<?xml version="1.0" standalone="no"?>
 <!DOCTYPE svg PUBLIC "-//W3C//DTD SVG 1.1//EN" 
 "http://www.w3.org/Graphics/SVG/1.1/DTD/svg11.dtd"> 
<svg
  xmlns:svg="http://www.w3.org/2000/svg"
  xmlns="http://www.w3.org/2000/svg"
  xmlns:xlink="http://www.w3.org/1999/xlink"
  version="1.1"
  width="29.700220cm" height="21.000720cm" viewBox="0 0 116930 82680">
<title>SVG Picture created as cargadorDeBateriasLitIon-40-Dwgs_User.svg date 2021/12/18 17:13:56 </title>
  <desc>Picture generated by PCBNEW </desc>
<g style="fill:#000000; fill-opacity:1;stroke:#000000; stroke-opacity:1;
stroke-linecap:round; stroke-linejoin:round;"
 transform="translate(0 0) scale(1 1)">
</g>
<g style="fill:#000000; fill-opacity:0.0; 
stroke:#000000; stroke-width:-0.000787402; stroke-opacity:1; 
stroke-linecap:round; stroke-linejoin:round;">
</g>
<g style="fill:#000000; fill-opacity:0.0; 
stroke:#000000; stroke-width:39.3701; stroke-opacity:1; 
stroke-linecap:round; stroke-linejoin:round;">
<path d="M48916 45464
L48916 47433
" />
<path d="M49310 45070
L48916 45464
" />
<path d="M49310 39559
L49310 45070
" />
<path d="M48916 39165
L49310 39559
" />
<path d="M63090 41527
L63090 37196
" />
<path d="M62696 41921
L63090 41527
" />
<path d="M62696 42708
L62696 41921
" />
<path d="M63090 43102
L62696 42708
" />
<path d="M48916 37196
L63090 37196
" />
<path d="M48916 39165
L48916 37196
" />
<path d="M63090 47433
L48916 47433
" />
<path d="M63090 43102
L63090 47433
" />
</g>
<g style="fill:#000000; fill-opacity:0.0; 
stroke:#000000; stroke-width:118.11; stroke-opacity:1; 
stroke-linecap:round; stroke-linejoin:round;">
<g transform="rotate(-270 64901.1 42315)">
<text x="64901.1" y="42708.7"
textLength="7080.05" font-size="1049.87" lengthAdjust="spacingAndGlyphs"
text-anchor="middle" opacity="0">13.000 mm</text>
</g>
<path d="M64544 39502
L64544 39052
" />
<path d="M64544 39277
L65332 39277
L65219 39202
L65144 39127
L65107 39052
" />
<path d="M65332 39765
L65332 40252
L65032 39990
L65032 40102
L64994 40177
L64957 40215
L64882 40252
L64694 40252
L64619 40215
L64582 40177
L64544 40102
L64544 39877
L64582 39802
L64619 39765
" />
<path d="M64619 40590
L64582 40627
L64544 40590
L64582 40552
L64619 40590
L64544 40590
" />
<path d="M65332 41115
L65332 41190
L65294 41265
L65257 41302
L65182 41340
L65032 41377
L64844 41377
L64694 41340
L64619 41302
L64582 41265
L64544 41190
L64544 41115
L64582 41040
L64619 41002
L64694 40965
L64844 40927
L65032 40927
L65182 40965
L65257 41002
L65294 41040
L65332 41115
" />
<path d="M65332 41865
L65332 41940
L65294 42015
L65257 42052
L65182 42090
L65032 42127
L64844 42127
L64694 42090
L64619 42052
L64582 42015
L64544 41940
L64544 41865
L64582 41790
L64619 41752
L64694 41715
L64844 41677
L65032 41677
L65182 41715
L65257 41752
L65294 41790
L65332 41865
" />
<path d="M65332 42614
L65332 42689
L65294 42764
L65257 42802
L65182 42839
L65032 42877
L64844 42877
L64694 42839
L64619 42802
L64582 42764
L64544 42689
L64544 42614
L64582 42539
L64619 42502
L64694 42465
L64844 42427
L65032 42427
L65182 42465
L65257 42502
L65294 42539
L65332 42614
" />
<path d="M64544 43814
L65069 43814
" />
<path d="M64994 43814
L65032 43852
L65069 43927
L65069 44039
L65032 44114
L64957 44152
L64544 44152
" />
<path d="M64957 44152
L65032 44189
L65069 44264
L65069 44377
L65032 44452
L64957 44489
L64544 44489
" />
<path d="M64544 44864
L65069 44864
" />
<path d="M64994 44864
L65032 44902
L65069 44977
L65069 45089
L65032 45164
L64957 45202
L64544 45202
" />
<path d="M64957 45202
L65032 45239
L65069 45314
L65069 45427
L65032 45502
L64957 45539
L64544 45539
" />
<path d="M63877 37196
L63877 47433
" />
<path d="M63090 37196
L64339 37196
" />
<path d="M63090 47433
L64339 47433
" />
<path d="M63877 47433
L63415 46546
" />
<path d="M63877 47433
L64339 46546
" />
<path d="M63877 37196
L63415 38083
" />
<path d="M63877 37196
L64339 38083
" />
<text x="56003.4" y="34943.7"
textLength="6977.69" font-size="1049.87" lengthAdjust="spacingAndGlyphs"
text-anchor="middle" opacity="0">18.000 mm</text>
<path d="M53191 34906
L52741 34906
" />
<path d="M52966 34906
L52966 34118
L52891 34231
L52816 34306
L52741 34343
" />
<path d="M53641 34456
L53566 34418
L53528 34381
L53491 34306
L53491 34268
L53528 34193
L53566 34156
L53641 34118
L53791 34118
L53866 34156
L53903 34193
L53941 34268
L53941 34306
L53903 34381
L53866 34418
L53791 34456
L53641 34456
L53566 34493
L53528 34531
L53491 34606
L53491 34756
L53528 34831
L53566 34868
L53641 34906
L53791 34906
L53866 34868
L53903 34831
L53941 34756
L53941 34606
L53903 34531
L53866 34493
L53791 34456
" />
<path d="M54278 34831
L54316 34868
L54278 34906
L54241 34868
L54278 34831
L54278 34906
" />
<path d="M54803 34118
L54878 34118
L54953 34156
L54991 34193
L55028 34268
L55066 34418
L55066 34606
L55028 34756
L54991 34831
L54953 34868
L54878 34906
L54803 34906
L54728 34868
L54691 34831
L54653 34756
L54616 34606
L54616 34418
L54653 34268
L54691 34193
L54728 34156
L54803 34118
" />
<path d="M55553 34118
L55628 34118
L55703 34156
L55740 34193
L55778 34268
L55815 34418
L55815 34606
L55778 34756
L55740 34831
L55703 34868
L55628 34906
L55553 34906
L55478 34868
L55441 34831
L55403 34756
L55366 34606
L55366 34418
L55403 34268
L55441 34193
L55478 34156
L55553 34118
" />
<path d="M56303 34118
L56378 34118
L56453 34156
L56490 34193
L56528 34268
L56565 34418
L56565 34606
L56528 34756
L56490 34831
L56453 34868
L56378 34906
L56303 34906
L56228 34868
L56190 34831
L56153 34756
L56115 34606
L56115 34418
L56153 34268
L56190 34193
L56228 34156
L56303 34118
" />
<path d="M57503 34906
L57503 34381
" />
<path d="M57503 34456
L57540 34418
L57615 34381
L57728 34381
L57803 34418
L57840 34493
L57840 34906
" />
<path d="M57840 34493
L57878 34418
L57953 34381
L58065 34381
L58140 34418
L58178 34493
L58178 34906
" />
<path d="M58553 34906
L58553 34381
" />
<path d="M58553 34456
L58590 34418
L58665 34381
L58778 34381
L58853 34418
L58890 34493
L58890 34906
" />
<path d="M58890 34493
L58928 34418
L59003 34381
L59115 34381
L59190 34418
L59228 34493
L59228 34906
" />
<path d="M63090 35573
L48916 35573
" />
<path d="M63090 37196
L63090 35111
" />
<path d="M48916 37196
L48916 35111
" />
<path d="M48916 35573
L49803 35111
" />
<path d="M48916 35573
L49803 36035
" />
<path d="M63090 35573
L62203 35111
" />
<path d="M63090 35573
L62203 36035
" />
<g >
</g>
<g >
</g>
<g >
</g>
<g >
</g>
<g >
</g>
<g >
</g>
<g >
</g>
<g >
</g>
<g >
</g>
<g >
</g>
<g >
</g>
<g >
</g>
<g >
</g>
<g >
</g>
<g >
</g>
<g >
</g>
<g >
</g>
<g >
</g>
<g >
</g>
<g >
</g>
</g> 
</svg>
