<?xml version="1.0" standalone="no"?>
 <!DOCTYPE svg PUBLIC "-//W3C//DTD SVG 1.1//EN" 
 "http://www.w3.org/Graphics/SVG/1.1/DTD/svg11.dtd"> 
<svg
  xmlns:svg="http://www.w3.org/2000/svg"
  xmlns="http://www.w3.org/2000/svg"
  xmlns:xlink="http://www.w3.org/1999/xlink"
  version="1.1"
  width="29.700220cm" height="21.000720cm" viewBox="0 0 116930 82680">
<title>SVG Picture created as cargadorDeBateriasLitIon-38-B_Mask.svg date 2021/12/18 17:13:56 </title>
  <desc>Picture generated by PCBNEW </desc>
<g style="fill:#000000; fill-opacity:1;stroke:#000000; stroke-opacity:1;
stroke-linecap:round; stroke-linejoin:round;"
 transform="translate(0 0) scale(1 1)">
</g>
<g style="fill:#000000; fill-opacity:0.0; 
stroke:#000000; stroke-width:-0.000787402; stroke-opacity:1; 
stroke-linecap:round; stroke-linejoin:round;">
</g>
<g style="fill:#000000; fill-opacity:0.0; 
stroke:#000000; stroke-width:196.85; stroke-opacity:1; 
stroke-linecap:round; stroke-linejoin:round;">
<text x="55823.9" y="44661.5"
transform="scale(-1 1) translate(-111647.847244 0)"
textLength="9240.93" font-size="1049.87" lengthAdjust="spacingAndGlyphs"
text-anchor="middle" opacity="0">MAYKOLREY.COM</text>
<path d="M60502 44623
L60403 43836
L60211 44399
L59878 43836
L59977 44623
" />
<path d="M59611 44399
L59236 44399
" />
<path d="M59714 44623
L59353 43836
L59189 44623
" />
<path d="M58730 44249
L58777 44623
" />
<path d="M58941 43836
L58730 44249
L58416 43836
" />
<path d="M58252 44623
L58154 43836
" />
<path d="M57802 44623
L58083 44174
" />
<path d="M57704 43836
L58210 44286
" />
<path d="M57216 43836
L57066 43836
L56996 43874
L56930 43949
L56912 44099
L56944 44361
L57001 44511
L57085 44586
L57165 44623
L57315 44623
L57385 44586
L57451 44511
L57469 44361
L57436 44099
L57380 43949
L57296 43874
L57216 43836
" />
<path d="M56265 44623
L56640 44623
L56541 43836
" />
<path d="M55552 44623
L55768 44249
" />
<path d="M56002 44623
L55904 43836
L55604 43836
L55534 43874
L55501 43911
L55473 43986
L55487 44099
L55534 44174
L55576 44211
L55655 44249
L55955 44249
" />
<path d="M55163 44211
L54901 44211
" />
<path d="M54840 44623
L55215 44623
L55116 43836
L54742 43836
" />
<path d="M54306 44249
L54352 44623
" />
<path d="M54517 43836
L54306 44249
L53992 43836
" />
<path d="M53818 44548
L53785 44586
L53828 44623
L53860 44586
L53818 44548
L53828 44623
" />
<path d="M52993 44548
L53035 44586
L53153 44623
L53228 44623
L53335 44586
L53401 44511
L53429 44436
L53448 44286
L53434 44174
L53378 44024
L53331 43949
L53246 43874
L53129 43836
L53054 43836
L52946 43874
L52914 43911
" />
<path d="M52417 43836
L52267 43836
L52197 43874
L52131 43949
L52112 44099
L52145 44361
L52201 44511
L52286 44586
L52365 44623
L52515 44623
L52586 44586
L52651 44511
L52670 44361
L52637 44099
L52581 43949
L52496 43874
L52417 43836
" />
<path d="M51840 44623
L51742 43836
L51550 44399
L51217 43836
L51315 44623
" />
</g>
<g style="fill:#000000; fill-opacity:0.0; 
stroke:#000000; stroke-width:39.3701; stroke-opacity:1; 
stroke-linecap:round; stroke-linejoin:round;">
<path d="M48934 45464
L48934 47433
" />
<path d="M49327 45070
L48934 45464
" />
<path d="M49327 39559
L49327 45070
" />
<path d="M48934 39165
L49327 39559
" />
<path d="M63107 41527
L63107 37196
" />
<path d="M62713 41921
L63107 41527
" />
<path d="M62713 42708
L62713 41921
" />
<path d="M63107 43102
L62713 42708
" />
<path d="M48934 37196
L63107 37196
" />
<path d="M48934 39165
L48934 37196
" />
<path d="M63107 47433
L48934 47433
" />
<path d="M63107 43102
L63107 47433
" />
</g>
<g style="fill:#000000; fill-opacity:1.0; 
stroke:#000000; stroke-width:7.87402; stroke-opacity:1; 
stroke-linecap:round; stroke-linejoin:round;">
<path style="fill:#000000; fill-opacity:1.0; 
stroke:#000000; stroke-width:7.87402; stroke-opacity:1; 
stroke-linecap:round; stroke-linejoin:round;fill-rule:evenodd;"
d="M 53669.6,39317.2
53527.9,39319.7
53415.2,39325.1
53325.8,39334.5
53254.2,39348.9
53194.8,39369.3
53142.2,39396.8
53090.8,39432.4
53049.4,39465.2
52949.9,39570.5
52882.4,39692.6
52846,39825.6
52839.7,39963.5
52862.8,40100.3
52914.3,40230.2
52993.3,40347.1
53098.9,40445.1
53206,40507.8
53248.7,40525.7
53292.2,40539.2
53343.7,40549.1
53410.8,40556.5
53500.8,40562.4
53621.2,40567.8
53665.6,40569.5
53805.5,40575.6
53909.6,40582.5
53982.2,40591.5
54027.4,40603.7
54049.7,40620.2
54053.1,40642.4
54041.9,40671.2
54040.8,40673.4
54030.5,40687.6
54013.3,40698.1
53983.3,40705.7
53934.8,40711.1
53862,40715
53759.1,40718.2
53664.4,40720.3
53506.3,40725.4
53381.4,40734.4
53282.7,40749.5
53203.6,40772.8
53137,40806.5
53076.3,40852.7
53014.6,40913.6
53000.3,40929
52950.5,40986.9
52912.2,41042.1
52883.7,41101.1
52863.6,41170.3
52850.4,41256.1
52842.4,41364.9
52838.2,41503.2
52836.7,41610.4
52835.8,41747.4
52836.4,41850.3
52839,41925
52843.8,41977.3
52851.4,42013.1
52862.1,42038.3
52866.2,42045.1
52919.8,42094.8
52987.6,42114.5
53057.4,42104.2
53117,42064.1
53132.2,42044.5
53145.2,42019.1
53154.2,41984.7
53159.7,41934.7
53162.1,41862.4
53162.1,41761.1
53161.1,41677.1
53160.7,41520.9
53165.2,41399.2
53175.4,41306.7
53192,41238
53215.9,41188
53234,41164.7
53265.3,41131.8
53294.6,41107.1
53328.2,41089.2
53372.3,41076.9
53433.1,41068.7
53517,41063.3
53630.2,41059.3
53730.4,41056.6
54115.7,41046.6
54202.4,40985.7
54295.5,40899
54356.2,40797.2
54385.3,40686.8
54383.9,40574.5
54352.7,40466.7
54292.7,40370
54204.8,40291
54101.1,40239.9
54052.8,40230.7
53971,40223.5
53862.4,40218.7
53733.3,40216.6
53710.7,40216.6
53585.4,40216
53492.9,40213.8
53426.3,40209.2
53378.4,40201.7
53342.3,40190.5
53318.7,40179.3
53239.7,40115.7
53190.3,40028.1
53174.1,39923.6
53191.4,39823.9
53241.6,39745.3
53305.1,39695.7
53328.1,39683.4
53355.1,39673.9
53391.4,39667
53442.4,39662.2
53513.5,39659.2
53609.9,39657.5
53737.2,39656.8
53850.2,39656.7
54331.3,39656.6
54399.6,39707
54447.9,39747.1
54483.1,39784.3
54488.5,39792
54493.8,39820.8
54498.9,39887.7
54503.8,39990.7
54508.2,40127.9
54512.3,40297.3
54515.8,40497
54518.8,40724.9
54519,40746.6
54529,41666.6
54582,41766.6
54674.9,41901.7
54794,42009.6
54873.6,42057.8
54974.6,42092.5
55095.7,42108.8
55221.8,42106.5
55337.5,42085.5
55399,42062.2
55521.1,41981.8
55627.5,41872.2
55695.7,41767.7
55749,41666.6
55759,40746.6
55761.4,40525.6
55763.6,40340.9
55766.1,40189.1
55769.4,40066.5
55773.8,39969.6
55779.8,39894.8
55788,39838.4
55798.7,39796.9
55812.4,39766.7
55829.6,39744.3
55850.6,39726
55876,39708.2
55891.4,39697.8
55940.2,39670.1
55990.4,39658.8
56059.7,39660
56070.3,39660.9
56144.2,39671.3
56195.9,39692.5
56243.5,39731.8
56245.4,39733.7
56309,39797.3
56319.9,40711.9
56322.5,40928.4
56325,41108.6
56327.5,41256.3
56330.3,41375.4
56333.5,41469.7
56337.2,41542.8
56341.8,41598.7
56347.4,41641
56354.1,41673.6
56362.2,41700.2
56370.5,41721.4
56447.1,41855.8
56553,41970.8
56661,42046.8
56718,42076.1
56767.9,42094
56824.1,42103.1
56900.1,42106.3
56949,42106.6
57039.9,42105.3
57104.2,42099.4
57155.5,42086.2
57207.2,42062.9
57236.2,42047.3
57352.1,41965.5
57449.9,41862.3
57519.8,41748.3
57531.3,41720.5
57539.8,41694.4
57547,41662.5
57553,41621.1
57558,41566.4
57562.3,41494.8
57565.9,41402.4
57569,41285.6
57571.8,41140.6
57574.6,40963.6
57577.4,40751
57577.8,40713.7
57580.5,40498.6
57583,40319.9
57585.5,40174
57588.1,40057.4
57591,39966.5
57594.5,39897.6
57598.8,39847.3
57603.9,39811.8
57610.2,39787.6
57617.8,39771.2
57626.9,39759
57629,39756.6
57710.6,39693.1
57805.1,39661.4
57903.5,39661
57996.6,39691.3
58075.4,39751.8
58101.5,39785.2
58108.3,39802.7
58114.2,39835.1
58119.2,39885.6
58123.6,39957.4
58127.3,40053.5
58130.6,40177
58133.6,40331.2
58136.3,40519.1
58139,40743.8
58139,40746.6
58141.4,40962.4
58143.6,41142
58145.8,41289.1
58148.2,41407.4
58151.1,41500.7
58154.5,41572.7
58158.8,41627.2
58164.1,41667.9
58170.6,41698.7
58178.6,41723.1
58188.2,41745
58193.9,41756.7
58278,41885.2
58387.2,41989.6
58514.8,42065.2
58654,42107.2
58702.4,42113
58770.7,42115.6
58814.2,42108.7
58847.8,42088.3
58867.6,42069.8
58911.2,42003.5
58919.3,41934.4
58895.2,41870.1
58842.1,41818.1
58763.2,41786
58746.9,41783
58633,41751
58550.9,41695.3
58524.2,41662.1
58515.8,41646.5
58508.8,41625
58502.9,41594
58498,41550
58494,41489.3
58490.6,41408.4
58487.7,41303.6
58485.1,41171.4
58482.7,41008.2
58480.3,40810.4
58479,40697.5
58476.6,40482.5
58474.4,40303.8
58472.1,40157.4
58469.6,40039.7
58466.7,39946.8
58463.1,39875
58458.7,39820.5
58453.2,39779.5
58446.6,39748.2
58438.5,39722.8
58428.7,39699.5
58425.8,39693.1
58342.2,39556.1
58233,39447.6
58102.3,39370.5
57954.4,39327.6
57898.8,39321.2
57742.6,39329.1
57597.2,39373.6
57468.2,39452
57360.7,39561.2
57311,39636.6
57249,39746.6
57239,40666.6
57236.2,40902.7
57233,41101.1
57229.5,41264.1
57225.6,41394.1
57221.1,41493.4
57216.1,41564.4
57210.4,41609.2
57204.5,41629.4
57173.2,41670.1
57126.8,41716.7
57115.4,41726.5
57073.3,41757.7
57032.9,41772.5
56978.1,41774.9
56935.3,41772.4
56831.4,41751.9
56752.7,41704.3
56692.2,41626.6
56685.9,41600.3
56680.2,41543.2
56675.2,41454.1
56670.7,41331.3
56666.7,41173.4
56663.1,40978.9
56659.9,40746.3
56659,40666.6
56656.6,40450.7
56654.4,40271.1
56652.2,40124.1
56649.8,40005.9
56647,39912.9
56643.5,39841.2
56639.3,39787.3
56634,39747.3
56627.6,39717.6
56619.7,39694.5
56610.2,39674.1
56605.2,39664.6
56515.5,39534.4
56406.1,39434.9
56282.1,39366
56148.9,39327.6
56012,39319.6
55876.5,39341.7
55747.9,39393.8
55631.5,39475.9
55532.6,39587.8
55471.8,39694.1
55461.7,39717.3
55453.2,39741.9
55446.3,39771.5
55440.6,39810
55436,39861.2
55432.2,39928.8
55429.1,40016.7
55426.5,40128.6
55424.2,40268.4
55422,40439.7
55419.6,40646.4
55419,40696.6
55416.3,40924.7
55413.3,41115.8
55410.1,41272.6
55406.5,41398.1
55402.4,41495.2
55397.7,41566.8
55392.3,41615.7
55386.1,41644.9
55382.8,41652.7
55324.1,41718
55242.9,41759.8
55150.2,41775.9
55057.1,41764.4
54978.5,41726.2
54930.2,41686.1
54894.9,41648.9
54889.6,41641.2
54884.2,41612.3
54879.1,41545.4
54874.3,41442.5
54869.8,41305.6
54865.7,41136.5
54862.2,40937.4
54859.2,40710.2
54859,40696.6
54856.7,40482.2
54854.5,40304
54852.3,40158.2
54849.9,40040.9
54847,39948.3
54843.5,39876.5
54839.2,39821.9
54833.7,39780.4
54826.9,39748.4
54818.7,39722
54808.6,39697.3
54801.4,39681.2
54742.9,39585
54660,39491.7
54564.2,39412
54467.3,39356.7
54446.2,39348.7
54408.7,39338.3
54361.4,39330.3
54299,39324.5
54216.2,39320.5
54107.7,39318
53968.3,39316.8
53845.7,39316.6
Z" /> 
<g >
</g>
<g >
</g>
<g style="fill:#000000; fill-opacity:1.0; 
stroke:#000000; stroke-width:7.87402; stroke-opacity:1; 
stroke-linecap:round; stroke-linejoin:round;">
</g>
<g style="fill:#000000; fill-opacity:1.0; 
stroke:#000000; stroke-width:0; stroke-opacity:1; 
stroke-linecap:round; stroke-linejoin:round;">
<path style="fill:#000000; fill-opacity:1.0; 
stroke:#000000; stroke-width:0; stroke-opacity:1; 
stroke-linecap:round; stroke-linejoin:round;fill-rule:evenodd;"
d="M 62914.4,43653.8
62918.2,43654.4
62922,43655.3
62925.6,43656.6
62929.1,43658.3
62932.4,43660.2
62935.5,43662.5
62938.4,43665.1
62941,43668
62943.3,43671.1
62945.3,43674.4
62946.9,43677.9
62948.2,43681.5
62949.2,43685.3
62949.7,43689.1
62949.9,43693
62949.9,44874.1
62949.7,44877.9
62949.2,44881.8
62948.2,44885.5
62946.9,44889.1
62945.3,44892.6
62943.3,44895.9
62941,44899.1
62938.4,44901.9
62935.5,44904.5
62932.4,44906.8
62929.1,44908.8
62925.6,44910.4
62922,44911.8
62918.2,44912.7
62914.4,44913.3
62910.5,44913.4
61729.4,44913.4
61725.6,44913.3
61721.8,44912.7
61718,44911.8
61714.4,44910.4
61710.9,44908.8
61707.6,44906.8
61704.5,44904.5
61701.6,44901.9
61699,44899.1
61696.7,44895.9
61694.7,44892.6
61693.1,44889.1
61691.8,44885.5
61690.8,44881.8
61690.3,44877.9
61690.1,44874.1
61690.1,43693
61690.3,43689.1
61690.8,43685.3
61691.8,43681.5
61693.1,43677.9
61694.7,43674.4
61696.7,43671.1
61699,43668
61701.6,43665.1
61704.5,43662.5
61707.6,43660.2
61710.9,43658.3
61714.4,43656.6
61718,43655.3
61721.8,43654.4
61725.6,43653.8
61729.4,43653.6
62910.5,43653.6
Z" /> 
</g>
<g >
</g>
<g >
</g>
<g >
</g>
<g style="fill:#000000; fill-opacity:1.0; 
stroke:#000000; stroke-width:0; stroke-opacity:1; 
stroke-linecap:round; stroke-linejoin:round;">
<path style="fill:#000000; fill-opacity:1.0; 
stroke:#000000; stroke-width:0; stroke-opacity:1; 
stroke-linecap:round; stroke-linejoin:round;fill-rule:evenodd;"
d="M 62914.4,46016
62918.2,46016.6
62922,46017.5
62925.6,46018.8
62929.1,46020.5
62932.4,46022.4
62935.5,46024.7
62938.4,46027.3
62941,46030.2
62943.3,46033.3
62945.3,46036.6
62946.9,46040.1
62948.2,46043.7
62949.2,46047.5
62949.7,46051.3
62949.9,46055.2
62949.9,47236.3
62949.7,47240.1
62949.2,47244
62948.2,47247.7
62946.9,47251.3
62945.3,47254.8
62943.3,47258.2
62941,47261.3
62938.4,47264.1
62935.5,47266.7
62932.4,47269
62929.1,47271
62925.6,47272.7
62922,47274
62918.2,47274.9
62914.4,47275.5
62910.5,47275.7
61729.4,47275.7
61725.6,47275.5
61721.8,47274.9
61718,47274
61714.4,47272.7
61710.9,47271
61707.6,47269
61704.5,47266.7
61701.6,47264.1
61699,47261.3
61696.7,47258.2
61694.7,47254.8
61693.1,47251.3
61691.8,47247.7
61690.8,47244
61690.3,47240.1
61690.1,47236.3
61690.1,46055.2
61690.3,46051.3
61690.8,46047.5
61691.8,46043.7
61693.1,46040.1
61694.7,46036.6
61696.7,46033.3
61699,46030.2
61701.6,46027.3
61704.5,46024.7
61707.6,46022.4
61710.9,46020.5
61714.4,46018.8
61718,46017.5
61721.8,46016.6
61725.6,46016
61729.4,46015.8
62910.5,46015.8
Z" /> 
</g>
<g >
</g>
<g style="fill:#000000; fill-opacity:1.0; 
stroke:#000000; stroke-width:0; stroke-opacity:1; 
stroke-linecap:round; stroke-linejoin:round;">
<path style="fill:#000000; fill-opacity:1.0; 
stroke:#000000; stroke-width:0; stroke-opacity:1; 
stroke-linecap:round; stroke-linejoin:round;fill-rule:evenodd;"
d="M 62914.4,37354.6
62918.2,37355.1
62922,37356.1
62925.6,37357.4
62929.1,37359
62932.4,37361
62935.5,37363.3
62938.4,37365.9
62941,37368.8
62943.3,37371.9
62945.3,37375.2
62946.9,37378.7
62948.2,37382.3
62949.2,37386.1
62949.7,37389.9
62949.9,37393.8
62949.9,38574.9
62949.7,38578.7
62949.2,38582.5
62948.2,38586.3
62946.9,38589.9
62945.3,38593.4
62943.3,38596.7
62941,38599.8
62938.4,38602.7
62935.5,38605.3
62932.4,38607.6
62929.1,38609.6
62925.6,38611.2
62922,38612.5
62918.2,38613.5
62914.4,38614
62910.5,38614.2
61729.4,38614.2
61725.6,38614
61721.8,38613.5
61718,38612.5
61714.4,38611.2
61710.9,38609.6
61707.6,38607.6
61704.5,38605.3
61701.6,38602.7
61699,38599.8
61696.7,38596.7
61694.7,38593.4
61693.1,38589.9
61691.8,38586.3
61690.8,38582.5
61690.3,38578.7
61690.1,38574.9
61690.1,37393.8
61690.3,37389.9
61690.8,37386.1
61691.8,37382.3
61693.1,37378.7
61694.7,37375.2
61696.7,37371.9
61699,37368.8
61701.6,37365.9
61704.5,37363.3
61707.6,37361
61710.9,37359
61714.4,37357.4
61718,37356.1
61721.8,37355.1
61725.6,37354.6
61729.4,37354.4
62910.5,37354.4
Z" /> 
</g>
<g >
</g>
<g style="fill:#000000; fill-opacity:1.0; 
stroke:#000000; stroke-width:0; stroke-opacity:1; 
stroke-linecap:round; stroke-linejoin:round;">
<path style="fill:#000000; fill-opacity:1.0; 
stroke:#000000; stroke-width:0; stroke-opacity:1; 
stroke-linecap:round; stroke-linejoin:round;fill-rule:evenodd;"
d="M 62914.4,39716.8
62918.2,39717.4
62922,39718.3
62925.6,39719.6
62929.1,39721.2
62932.4,39723.2
62935.5,39725.5
62938.4,39728.1
62941,39731
62943.3,39734.1
62945.3,39737.4
62946.9,39740.9
62948.2,39744.5
62949.2,39748.3
62949.7,39752.1
62949.9,39756
62949.9,40937.1
62949.7,40940.9
62949.2,40944.7
62948.2,40948.5
62946.9,40952.1
62945.3,40955.6
62943.3,40958.9
62941,40962
62938.4,40964.9
62935.5,40967.5
62932.4,40969.8
62929.1,40971.8
62925.6,40973.4
62922,40974.7
62918.2,40975.7
62914.4,40976.2
62910.5,40976.4
61729.4,40976.4
61725.6,40976.2
61721.8,40975.7
61718,40974.7
61714.4,40973.4
61710.9,40971.8
61707.6,40969.8
61704.5,40967.5
61701.6,40964.9
61699,40962
61696.7,40958.9
61694.7,40955.6
61693.1,40952.1
61691.8,40948.5
61690.8,40944.7
61690.3,40940.9
61690.1,40937.1
61690.1,39756
61690.3,39752.1
61690.8,39748.3
61691.8,39744.5
61693.1,39740.9
61694.7,39737.4
61696.7,39734.1
61699,39731
61701.6,39728.1
61704.5,39725.5
61707.6,39723.2
61710.9,39721.2
61714.4,39719.6
61718,39718.3
61721.8,39717.4
61725.6,39716.8
61729.4,39716.6
62910.5,39716.6
Z" /> 
</g>
<g >
</g>
<g style="fill:#000000; fill-opacity:1.0; 
stroke:#000000; stroke-width:0; stroke-opacity:1; 
stroke-linecap:round; stroke-linejoin:round;">
<path style="fill:#000000; fill-opacity:1.0; 
stroke:#000000; stroke-width:0; stroke-opacity:1; 
stroke-linecap:round; stroke-linejoin:round;fill-rule:evenodd;"
d="M 50316,37354.6
50319.8,37355.1
50323.5,37356.1
50327.2,37357.4
50330.7,37359
50334,37361
50337.1,37363.3
50340,37365.9
50342.5,37368.8
50344.8,37371.9
50346.8,37375.2
50348.5,37378.7
50349.8,37382.3
50350.7,37386.1
50351.3,37389.9
50351.5,37393.8
50351.5,38574.9
50351.3,38578.7
50350.7,38582.5
50349.8,38586.3
50348.5,38589.9
50346.8,38593.4
50344.8,38596.7
50342.5,38599.8
50340,38602.7
50337.1,38605.3
50334,38607.6
50330.7,38609.6
50327.2,38611.2
50323.5,38612.5
50319.8,38613.5
50316,38614
50312.1,38614.2
49131,38614.2
49127.2,38614
49123.3,38613.5
49119.6,38612.5
49115.9,38611.2
49112.5,38609.6
49109.1,38607.6
49106,38605.3
49103.2,38602.7
49100.6,38599.8
49098.3,38596.7
49096.3,38593.4
49094.6,38589.9
49093.3,38586.3
49092.4,38582.5
49091.8,38578.7
49091.6,38574.9
49091.6,37393.8
49091.8,37389.9
49092.4,37386.1
49093.3,37382.3
49094.6,37378.7
49096.3,37375.2
49098.3,37371.9
49100.6,37368.8
49103.2,37365.9
49106,37363.3
49109.1,37361
49112.5,37359
49115.9,37357.4
49119.6,37356.1
49123.3,37355.1
49127.2,37354.6
49131,37354.4
50312.1,37354.4
Z" /> 
</g>
<g >
</g>
<g style="fill:#000000; fill-opacity:1.0; 
stroke:#000000; stroke-width:0; stroke-opacity:1; 
stroke-linecap:round; stroke-linejoin:round;">
<path style="fill:#000000; fill-opacity:1.0; 
stroke:#000000; stroke-width:0; stroke-opacity:1; 
stroke-linecap:round; stroke-linejoin:round;fill-rule:evenodd;"
d="M 50316,46016
50319.8,46016.6
50323.5,46017.5
50327.2,46018.8
50330.7,46020.5
50334,46022.4
50337.1,46024.7
50340,46027.3
50342.5,46030.2
50344.8,46033.3
50346.8,46036.6
50348.5,46040.1
50349.8,46043.7
50350.7,46047.5
50351.3,46051.3
50351.5,46055.2
50351.5,47236.3
50351.3,47240.1
50350.7,47244
50349.8,47247.7
50348.5,47251.3
50346.8,47254.8
50344.8,47258.2
50342.5,47261.3
50340,47264.1
50337.1,47266.7
50334,47269
50330.7,47271
50327.2,47272.7
50323.5,47274
50319.8,47274.9
50316,47275.5
50312.1,47275.7
49131,47275.7
49127.2,47275.5
49123.3,47274.9
49119.6,47274
49115.9,47272.7
49112.5,47271
49109.1,47269
49106,47266.7
49103.2,47264.1
49100.6,47261.3
49098.3,47258.2
49096.3,47254.8
49094.6,47251.3
49093.3,47247.7
49092.4,47244
49091.8,47240.1
49091.6,47236.3
49091.6,46055.2
49091.8,46051.3
49092.4,46047.5
49093.3,46043.7
49094.6,46040.1
49096.3,46036.6
49098.3,46033.3
49100.6,46030.2
49103.2,46027.3
49106,46024.7
49109.1,46022.4
49112.5,46020.5
49115.9,46018.8
49119.6,46017.5
49123.3,46016.6
49127.2,46016
49131,46015.8
50312.1,46015.8
Z" /> 
</g>
<g >
</g>
<g >
</g>
<g >
</g>
<g >
</g>
<g >
</g>
<g >
</g>
<g >
</g>
<g >
</g>
<g >
</g>
<g >
</g>
<g >
</g>
<g >
</g>
<g >
</g>
</g> 
</svg>
