<?xml version="1.0" standalone="no"?>
 <!DOCTYPE svg PUBLIC "-//W3C//DTD SVG 1.1//EN" 
 "http://www.w3.org/Graphics/SVG/1.1/DTD/svg11.dtd"> 
<svg
  xmlns:svg="http://www.w3.org/2000/svg"
  xmlns="http://www.w3.org/2000/svg"
  xmlns:xlink="http://www.w3.org/1999/xlink"
  version="1.1"
  width="29.700220cm" height="21.000720cm" viewBox="0 0 116930 82680">
<title>SVG Picture created as cargadorDeBateriasLitIon-31-B_Cu.svg date 2021/12/18 17:13:56 </title>
  <desc>Picture generated by PCBNEW </desc>
<g style="fill:#000000; fill-opacity:1;stroke:#000000; stroke-opacity:1;
stroke-linecap:round; stroke-linejoin:round;"
 transform="translate(0 0) scale(1 1)">
</g>
<g style="fill:#000000; fill-opacity:0.0; 
stroke:#000000; stroke-width:-0.000787402; stroke-opacity:1; 
stroke-linecap:round; stroke-linejoin:round;">
</g>
<g style="fill:#000000; fill-opacity:0.0; 
stroke:#000000; stroke-width:39.3701; stroke-opacity:1; 
stroke-linecap:round; stroke-linejoin:round;">
<path d="M48934 45464
L48934 47433
" />
<path d="M49327 45070
L48934 45464
" />
<path d="M49327 39559
L49327 45070
" />
<path d="M48934 39165
L49327 39559
" />
<path d="M63107 41527
L63107 37196
" />
<path d="M62713 41921
L63107 41527
" />
<path d="M62713 42708
L62713 41921
" />
<path d="M63107 43102
L62713 42708
" />
<path d="M48934 37196
L63107 37196
" />
<path d="M48934 39165
L48934 37196
" />
<path d="M63107 47433
L48934 47433
" />
<path d="M63107 43102
L63107 47433
" />
<g >
</g>
<g >
</g>
<g style="fill:#000000; fill-opacity:0.0; 
stroke:#000000; stroke-width:39.3701; stroke-opacity:1; 
stroke-linecap:round; stroke-linejoin:round;">
</g>
<g style="fill:#000000; fill-opacity:0.0; 
stroke:#000000; stroke-width:0; stroke-opacity:1; 
stroke-linecap:round; stroke-linejoin:round;">
</g>
<g style="fill:#000000; fill-opacity:1.0; 
stroke:#000000; stroke-width:0; stroke-opacity:1; 
stroke-linecap:round; stroke-linejoin:round;">
<path style="fill:#000000; fill-opacity:1.0; 
stroke:#000000; stroke-width:0; stroke-opacity:1; 
stroke-linecap:round; stroke-linejoin:round;fill-rule:evenodd;"
d="M 61729.4,44874.1
61729.4,43693
62910.5,43693
62910.5,44874.1
Z" /> 
</g>
<g >
</g>
<g >
</g>
<g >
</g>
<g style="fill:#000000; fill-opacity:1.0; 
stroke:#000000; stroke-width:0; stroke-opacity:1; 
stroke-linecap:round; stroke-linejoin:round;">
<path style="fill:#000000; fill-opacity:1.0; 
stroke:#000000; stroke-width:0; stroke-opacity:1; 
stroke-linecap:round; stroke-linejoin:round;fill-rule:evenodd;"
d="M 61729.4,47236.3
61729.4,46055.2
62910.5,46055.2
62910.5,47236.3
Z" /> 
</g>
<g >
</g>
<g style="fill:#000000; fill-opacity:1.0; 
stroke:#000000; stroke-width:0; stroke-opacity:1; 
stroke-linecap:round; stroke-linejoin:round;">
<path style="fill:#000000; fill-opacity:1.0; 
stroke:#000000; stroke-width:0; stroke-opacity:1; 
stroke-linecap:round; stroke-linejoin:round;fill-rule:evenodd;"
d="M 61729.4,38574.9
61729.4,37393.8
62910.5,37393.8
62910.5,38574.9
Z" /> 
</g>
<g >
</g>
<g style="fill:#000000; fill-opacity:1.0; 
stroke:#000000; stroke-width:0; stroke-opacity:1; 
stroke-linecap:round; stroke-linejoin:round;">
<path style="fill:#000000; fill-opacity:1.0; 
stroke:#000000; stroke-width:0; stroke-opacity:1; 
stroke-linecap:round; stroke-linejoin:round;fill-rule:evenodd;"
d="M 61729.4,40937.1
61729.4,39756
62910.5,39756
62910.5,40937.1
Z" /> 
</g>
<g >
</g>
<g style="fill:#000000; fill-opacity:1.0; 
stroke:#000000; stroke-width:0; stroke-opacity:1; 
stroke-linecap:round; stroke-linejoin:round;">
<path style="fill:#000000; fill-opacity:1.0; 
stroke:#000000; stroke-width:0; stroke-opacity:1; 
stroke-linecap:round; stroke-linejoin:round;fill-rule:evenodd;"
d="M 49131,38574.9
49131,37393.8
50312.1,37393.8
50312.1,38574.9
Z" /> 
</g>
<g >
</g>
<g style="fill:#000000; fill-opacity:1.0; 
stroke:#000000; stroke-width:0; stroke-opacity:1; 
stroke-linecap:round; stroke-linejoin:round;">
<path style="fill:#000000; fill-opacity:1.0; 
stroke:#000000; stroke-width:0; stroke-opacity:1; 
stroke-linecap:round; stroke-linejoin:round;fill-rule:evenodd;"
d="M 49131,47236.3
49131,46055.2
50312.1,46055.2
50312.1,47236.3
Z" /> 
</g>
<g >
</g>
<g >
</g>
<g >
</g>
<g >
</g>
<g >
</g>
<g >
</g>
<g >
</g>
<g >
</g>
<g >
</g>
<g >
</g>
<g >
</g>
<g style="fill:#000000; fill-opacity:1.0; 
stroke:#000000; stroke-width:0; stroke-opacity:1; 
stroke-linecap:round; stroke-linejoin:round;">
<circle cx="52091.6" cy="45354.4" r="314.961" /> 
</g>
<g style="fill:#000000; fill-opacity:1.0; 
stroke:#000000; stroke-width:118.11; stroke-opacity:1; 
stroke-linecap:round; stroke-linejoin:round;">
</g>
<g >
</g>
<g >
</g>
<g style="fill:#000000; fill-opacity:1.0; 
stroke:#000000; stroke-width:118.11; stroke-opacity:1; 
stroke-linecap:round; stroke-linejoin:round;">
<g >
</g>
<g style="fill:#000000; fill-opacity:1.0; 
stroke:#000000; stroke-width:200; stroke-opacity:1; 
stroke-linecap:round; stroke-linejoin:round;">
<path style="fill:#000000; fill-opacity:1.0; 
stroke:#000000; stroke-width:200; stroke-opacity:1; 
stroke-linecap:round; stroke-linejoin:round;fill-rule:evenodd;"
d="M 61227,38574.9
61236.7,38672.9
61265.3,38767.1
61311.7,38854
61374.2,38930.1
61450.3,38992.6
61537.2,39039
61631.4,39067.6
61729.4,39077.3
62587.7,39077.3
62587.7,39253.5
61729.4,39253.5
61631.4,39263.2
61537.2,39291.8
61450.3,39338.2
61374.2,39400.7
61311.7,39476.8
61265.3,39563.7
61236.7,39657.9
61227,39756
61227,40937.1
61236.7,41035.1
61265.3,41129.3
61311.7,41216.2
61374.2,41292.3
61450.3,41354.8
61537.2,41401.2
61631.4,41429.8
61729.4,41439.5
62460.6,41439.5
62364.3,41535.8
62344.4,41552.1
62328.2,41571.9
62328.2,41571.9
62279.5,41631.2
62231.2,41721.5
62210.5,41789.7
62202,41817.7
62201.5,41819.4
62191.5,41921.3
62194,41946.8
62194,42683.2
62191.5,42708.7
62194,42734.2
62194,42734.2
62201.5,42810.6
62229.4,42902.6
62231.2,42908.6
62279.5,42998.8
62317.4,43045
62344.4,43078
62364.3,43094.2
62460.6,43190.6
61729.4,43190.6
61631.4,43200.2
61537.2,43228.8
61450.3,43275.2
61374.2,43337.7
61311.7,43413.8
61265.3,43500.7
61236.7,43595
61227,43693
61227,44874.1
61236.7,44972.1
61265.3,45066.3
61311.7,45153.2
61374.2,45229.3
61450.3,45291.8
61537.2,45338.3
61631.4,45366.8
61729.4,45376.5
62587.7,45376.5
62587.7,45554.9
62545,45555.2
62420,45680.2
62420,46545.7
62435.7,46545.7
62435.7,46745.7
62420,46745.7
62420,46761.5
62220,46761.5
62220,46745.7
61354.4,46745.7
61229.4,46870.7
61229.2,46913.4
50814.5,46913.4
50814.5,46055.2
61227,46055.2
61229.4,46420.7
61354.4,46545.7
62220,46545.7
62220,45680.2
62095,45555.2
61729.4,45552.8
61631.4,45562.4
61537.2,45591
61450.3,45637.4
61374.2,45699.9
61311.7,45776
61265.3,45862.9
61236.7,45957.2
61227,46055.2
50814.5,46055.2
50804.9,45957.2
50776.3,45862.9
50729.9,45776
50667.4,45699.9
50591.2,45637.4
50504.4,45591
50410.1,45562.4
50312.1,45552.8
49581,45552.8
49677.3,45456.4
49697.1,45440.2
49762.1,45361
49810.3,45270.8
49840,45172.8
49847.5,45096.5
49847.5,45096.4
49850.1,45070.9
49847.5,45045.4
49847.5,39584.6
49850.1,39559.1
49847.5,39533.6
49847.5,39533.6
49840,39457.2
49810.3,39359.3
49762.1,39269
49697.1,39189.9
49677.3,39173.6
49537.6,39033.9
49621.6,38949.9
49621.6,38084.3
49821.6,38084.3
49821.6,38949.9
49946.6,39074.9
50312.1,39077.3
50410.1,39067.6
50504.4,39039
50591.2,38992.6
50667.4,38930.1
50729.9,38854
50776.3,38767.1
50804.9,38672.9
50814.5,38574.9
50812.1,38209.3
50687.1,38084.3
49821.6,38084.3
49621.6,38084.3
49605.8,38084.3
49605.8,37884.3
49621.6,37884.3
49621.6,37868.6
49821.6,37868.6
49821.6,37884.3
50687.1,37884.3
50812.1,37759.3
50812.4,37716.6
61227,37716.6
Z" /> 
</g>
</g>
</g>
<g style="fill:#FFFFFF; fill-opacity:1.0; 
stroke:#FFFFFF; stroke-width:200; stroke-opacity:1; 
stroke-linecap:round; stroke-linejoin:round;">
</g>
<g style="fill:#FFFFFF; fill-opacity:1.0; 
stroke:#FFFFFF; stroke-width:0; stroke-opacity:1; 
stroke-linecap:round; stroke-linejoin:round;">
<circle cx="52091.6" cy="45354.4" r="137.795" /> 
</g>
<g style="fill:#FFFFFF; fill-opacity:1.0; 
stroke:#FFFFFF; stroke-width:118.11; stroke-opacity:1; 
stroke-linecap:round; stroke-linejoin:round;">
</g>
<g style="fill:#FFFFFF; fill-opacity:1.0; 
stroke:#FFFFFF; stroke-width:0; stroke-opacity:1; 
stroke-linecap:round; stroke-linejoin:round;">
<circle cx="62320" cy="44283.5" r="137.795" /> 
</g>
<g style="fill:#FFFFFF; fill-opacity:1.0; 
stroke:#FFFFFF; stroke-width:118.11; stroke-opacity:1; 
stroke-linecap:round; stroke-linejoin:round;">
</g>
<g style="fill:#FFFFFF; fill-opacity:1.0; 
stroke:#FFFFFF; stroke-width:0; stroke-opacity:1; 
stroke-linecap:round; stroke-linejoin:round;">
<circle cx="62320" cy="46645.7" r="137.795" /> 
</g>
<g style="fill:#FFFFFF; fill-opacity:1.0; 
stroke:#FFFFFF; stroke-width:118.11; stroke-opacity:1; 
stroke-linecap:round; stroke-linejoin:round;">
</g>
<g style="fill:#FFFFFF; fill-opacity:1.0; 
stroke:#FFFFFF; stroke-width:0; stroke-opacity:1; 
stroke-linecap:round; stroke-linejoin:round;">
<circle cx="62320" cy="37984.3" r="137.795" /> 
</g>
<g style="fill:#FFFFFF; fill-opacity:1.0; 
stroke:#FFFFFF; stroke-width:118.11; stroke-opacity:1; 
stroke-linecap:round; stroke-linejoin:round;">
</g>
<g style="fill:#FFFFFF; fill-opacity:1.0; 
stroke:#FFFFFF; stroke-width:0; stroke-opacity:1; 
stroke-linecap:round; stroke-linejoin:round;">
<circle cx="62320" cy="40346.5" r="137.795" /> 
</g>
<g style="fill:#FFFFFF; fill-opacity:1.0; 
stroke:#FFFFFF; stroke-width:118.11; stroke-opacity:1; 
stroke-linecap:round; stroke-linejoin:round;">
</g>
<g style="fill:#FFFFFF; fill-opacity:1.0; 
stroke:#FFFFFF; stroke-width:0; stroke-opacity:1; 
stroke-linecap:round; stroke-linejoin:round;">
<circle cx="49721.6" cy="37984.3" r="137.795" /> 
</g>
<g style="fill:#FFFFFF; fill-opacity:1.0; 
stroke:#FFFFFF; stroke-width:118.11; stroke-opacity:1; 
stroke-linecap:round; stroke-linejoin:round;">
</g>
<g style="fill:#FFFFFF; fill-opacity:1.0; 
stroke:#FFFFFF; stroke-width:0; stroke-opacity:1; 
stroke-linecap:round; stroke-linejoin:round;">
<circle cx="49721.6" cy="46645.7" r="137.795" /> 
</g>
<g style="fill:#FFFFFF; fill-opacity:1.0; 
stroke:#FFFFFF; stroke-width:118.11; stroke-opacity:1; 
stroke-linecap:round; stroke-linejoin:round;">
</g>
<g style="fill:#000000; fill-opacity:1.0; 
stroke:#000000; stroke-width:118.11; stroke-opacity:1; 
stroke-linecap:round; stroke-linejoin:round;">
</g> 
</svg>
