<?xml version="1.0" standalone="no"?>
 <!DOCTYPE svg PUBLIC "-//W3C//DTD SVG 1.1//EN" 
 "http://www.w3.org/Graphics/SVG/1.1/DTD/svg11.dtd"> 
<svg
  xmlns:svg="http://www.w3.org/2000/svg"
  xmlns="http://www.w3.org/2000/svg"
  xmlns:xlink="http://www.w3.org/1999/xlink"
  version="1.1"
  width="29.700220cm" height="21.000720cm" viewBox="0 0 116930 82680">
<title>SVG Picture created as cargadorDeBateriasLitIon-39-F_Mask.svg date 2021/12/18 17:13:56 </title>
  <desc>Picture generated by PCBNEW </desc>
<g style="fill:#000000; fill-opacity:1;stroke:#000000; stroke-opacity:1;
stroke-linecap:round; stroke-linejoin:round;"
 transform="translate(0 0) scale(1 1)">
</g>
<g style="fill:#000000; fill-opacity:0.0; 
stroke:#000000; stroke-width:-0.000787402; stroke-opacity:1; 
stroke-linecap:round; stroke-linejoin:round;">
</g>
<g style="fill:#000000; fill-opacity:0.0; 
stroke:#000000; stroke-width:39.3701; stroke-opacity:1; 
stroke-linecap:round; stroke-linejoin:round;">
<path d="M48916 45464
L48916 47433
" />
<path d="M49310 45070
L48916 45464
" />
<path d="M49310 39559
L49310 45070
" />
<path d="M48916 39165
L49310 39559
" />
<path d="M63090 41527
L63090 37196
" />
<path d="M62696 41921
L63090 41527
" />
<path d="M62696 42708
L62696 41921
" />
<path d="M63090 43102
L62696 42708
" />
<path d="M48916 37196
L63090 37196
" />
<path d="M48916 39165
L48916 37196
" />
<path d="M63090 47433
L48916 47433
" />
<path d="M63090 43102
L63090 47433
" />
<g >
</g>
<g >
</g>
<g style="fill:#000000; fill-opacity:0.0; 
stroke:#000000; stroke-width:39.3701; stroke-opacity:1; 
stroke-linecap:round; stroke-linejoin:round;">
</g>
<g style="fill:#000000; fill-opacity:0.0; 
stroke:#000000; stroke-width:0; stroke-opacity:1; 
stroke-linecap:round; stroke-linejoin:round;">
</g>
<g style="fill:#000000; fill-opacity:1.0; 
stroke:#000000; stroke-width:0; stroke-opacity:1; 
stroke-linecap:round; stroke-linejoin:round;">
<path style="fill:#000000; fill-opacity:1.0; 
stroke:#000000; stroke-width:0; stroke-opacity:1; 
stroke-linecap:round; stroke-linejoin:round;fill-rule:evenodd;"
d="M 62897.1,43653.8
62900.9,43654.4
62904.6,43655.3
62908.3,43656.6
62911.8,43658.3
62915.1,43660.2
62918.2,43662.5
62921,43665.1
62923.6,43668
62925.9,43671.1
62927.9,43674.4
62929.6,43677.9
62930.9,43681.5
62931.8,43685.3
62932.4,43689.1
62932.6,43693
62932.6,44874.1
62932.4,44877.9
62931.8,44881.8
62930.9,44885.5
62929.6,44889.1
62927.9,44892.6
62925.9,44895.9
62923.6,44899.1
62921,44901.9
62918.2,44904.5
62915.1,44906.8
62911.8,44908.8
62908.3,44910.4
62904.6,44911.8
62900.9,44912.7
62897.1,44913.3
62893.2,44913.4
61712.1,44913.4
61708.2,44913.3
61704.4,44912.7
61700.7,44911.8
61697,44910.4
61693.5,44908.8
61690.2,44906.8
61687.1,44904.5
61684.3,44901.9
61681.7,44899.1
61679.4,44895.9
61677.4,44892.6
61675.7,44889.1
61674.4,44885.5
61673.5,44881.8
61672.9,44877.9
61672.7,44874.1
61672.7,43693
61672.9,43689.1
61673.5,43685.3
61674.4,43681.5
61675.7,43677.9
61677.4,43674.4
61679.4,43671.1
61681.7,43668
61684.3,43665.1
61687.1,43662.5
61690.2,43660.2
61693.5,43658.3
61697,43656.6
61700.7,43655.3
61704.4,43654.4
61708.2,43653.8
61712.1,43653.6
62893.2,43653.6
Z" /> 
</g>
<g >
</g>
<g style="fill:#000000; fill-opacity:1.0; 
stroke:#000000; stroke-width:0; stroke-opacity:1; 
stroke-linecap:round; stroke-linejoin:round;">
<path style="fill:#000000; fill-opacity:1.0; 
stroke:#000000; stroke-width:0; stroke-opacity:1; 
stroke-linecap:round; stroke-linejoin:round;fill-rule:evenodd;"
d="M 57294.7,42464.8
57298.5,42465.4
57302.3,42466.3
57305.9,42467.6
57309.4,42469.3
57312.7,42471.3
57315.8,42473.6
57318.7,42476.2
57321.3,42479
57323.6,42482.1
57325.6,42485.4
57327.2,42488.9
57328.5,42492.6
57329.4,42496.3
57330,42500.1
57330.2,42504
57330.2,43291.4
57330,43295.3
57329.4,43299.1
57328.5,43302.8
57327.2,43306.5
57325.6,43310
57323.6,43313.3
57321.3,43316.4
57318.7,43319.2
57315.8,43321.8
57312.7,43324.1
57309.4,43326.1
57305.9,43327.8
57302.3,43329.1
57298.5,43330
57294.7,43330.6
57290.8,43330.8
56857.8,43330.8
56853.9,43330.6
56850.1,43330
56846.3,43329.1
56842.7,43327.8
56839.2,43326.1
56835.9,43324.1
56832.8,43321.8
56829.9,43319.2
56827.3,43316.4
56825,43313.3
56823,43310
56821.4,43306.5
56820.1,43302.8
56819.1,43299.1
56818.6,43295.3
56818.4,43291.4
56818.4,42504
56818.6,42500.1
56819.1,42496.3
56820.1,42492.6
56821.4,42488.9
56823,42485.4
56825,42482.1
56827.3,42479
56829.9,42476.2
56832.8,42473.6
56835.9,42471.3
56839.2,42469.3
56842.7,42467.6
56846.3,42466.3
56850.1,42465.4
56853.9,42464.8
56857.8,42464.6
57290.8,42464.6
Z" /> 
<path style="fill:#000000; fill-opacity:1.0; 
stroke:#000000; stroke-width:0; stroke-opacity:1; 
stroke-linecap:round; stroke-linejoin:round;fill-rule:evenodd;"
d="M 58042.7,42464.8
58046.5,42465.4
58050.3,42466.3
58053.9,42467.6
58057.4,42469.3
58060.7,42471.3
58063.8,42473.6
58066.7,42476.2
58069.3,42479
58071.6,42482.1
58073.6,42485.4
58075.2,42488.9
58076.5,42492.6
58077.5,42496.3
58078,42500.1
58078.2,42504
58078.2,43291.4
58078,43295.3
58077.5,43299.1
58076.5,43302.8
58075.2,43306.5
58073.6,43310
58071.6,43313.3
58069.3,43316.4
58066.7,43319.2
58063.8,43321.8
58060.7,43324.1
58057.4,43326.1
58053.9,43327.8
58050.3,43329.1
58046.5,43330
58042.7,43330.6
58038.9,43330.8
57605.8,43330.8
57601.9,43330.6
57598.1,43330
57594.4,43329.1
57590.7,43327.8
57587.2,43326.1
57583.9,43324.1
57580.8,43321.8
57578,43319.2
57575.4,43316.4
57573.1,43313.3
57571.1,43310
57569.4,43306.5
57568.1,43302.8
57567.2,43299.1
57566.6,43295.3
57566.4,43291.4
57566.4,42504
57566.6,42500.1
57567.2,42496.3
57568.1,42492.6
57569.4,42488.9
57571.1,42485.4
57573.1,42482.1
57575.4,42479
57578,42476.2
57580.8,42473.6
57583.9,42471.3
57587.2,42469.3
57590.7,42467.6
57594.4,42466.3
57598.1,42465.4
57601.9,42464.8
57605.8,42464.6
58038.9,42464.6
Z" /> 
<path style="fill:#000000; fill-opacity:1.0; 
stroke:#000000; stroke-width:0; stroke-opacity:1; 
stroke-linecap:round; stroke-linejoin:round;fill-rule:evenodd;"
d="M 58790.8,42464.8
58794.6,42465.4
58798.3,42466.3
58802,42467.6
58805.5,42469.3
58808.8,42471.3
58811.9,42473.6
58814.7,42476.2
58817.3,42479
58819.6,42482.1
58821.6,42485.4
58823.3,42488.9
58824.6,42492.6
58825.5,42496.3
58826.1,42500.1
58826.3,42504
58826.3,43291.4
58826.1,43295.3
58825.5,43299.1
58824.6,43302.8
58823.3,43306.5
58821.6,43310
58819.6,43313.3
58817.3,43316.4
58814.7,43319.2
58811.9,43321.8
58808.8,43324.1
58805.5,43326.1
58802,43327.8
58798.3,43329.1
58794.6,43330
58790.8,43330.6
58786.9,43330.8
58353.8,43330.8
58350,43330.6
58346.1,43330
58342.4,43329.1
58338.8,43327.8
58335.3,43326.1
58332,43324.1
58328.8,43321.8
58326,43319.2
58323.4,43316.4
58321.1,43313.3
58319.1,43310
58317.5,43306.5
58316.2,43302.8
58315.2,43299.1
58314.6,43295.3
58314.5,43291.4
58314.5,42504
58314.6,42500.1
58315.2,42496.3
58316.2,42492.6
58317.5,42488.9
58319.1,42485.4
58321.1,42482.1
58323.4,42479
58326,42476.2
58328.8,42473.6
58332,42471.3
58335.3,42469.3
58338.8,42467.6
58342.4,42466.3
58346.1,42465.4
58350,42464.8
58353.8,42464.6
58786.9,42464.6
Z" /> 
<path style="fill:#000000; fill-opacity:1.0; 
stroke:#000000; stroke-width:0; stroke-opacity:1; 
stroke-linecap:round; stroke-linejoin:round;fill-rule:evenodd;"
d="M 58790.8,40575.1
58794.6,40575.6
58798.3,40576.6
58802,40577.9
58805.5,40579.5
58808.8,40581.5
58811.9,40583.8
58814.7,40586.4
58817.3,40589.3
58819.6,40592.4
58821.6,40595.7
58823.3,40599.2
58824.6,40602.8
58825.5,40606.6
58826.1,40610.4
58826.3,40614.2
58826.3,41401.6
58826.1,41405.5
58825.5,41409.3
58824.6,41413.1
58823.3,41416.7
58821.6,41420.2
58819.6,41423.5
58817.3,41426.6
58814.7,41429.5
58811.9,41432.1
58808.8,41434.4
58805.5,41436.4
58802,41438
58798.3,41439.3
58794.6,41440.2
58790.8,41440.8
58786.9,41441
58353.8,41441
58350,41440.8
58346.1,41440.2
58342.4,41439.3
58338.8,41438
58335.3,41436.4
58332,41434.4
58328.8,41432.1
58326,41429.5
58323.4,41426.6
58321.1,41423.5
58319.1,41420.2
58317.5,41416.7
58316.2,41413.1
58315.2,41409.3
58314.6,41405.5
58314.5,41401.6
58314.5,40614.2
58314.6,40610.4
58315.2,40606.6
58316.2,40602.8
58317.5,40599.2
58319.1,40595.7
58321.1,40592.4
58323.4,40589.3
58326,40586.4
58328.8,40583.8
58332,40581.5
58335.3,40579.5
58338.8,40577.9
58342.4,40576.6
58346.1,40575.6
58350,40575.1
58353.8,40574.9
58786.9,40574.9
Z" /> 
<path style="fill:#000000; fill-opacity:1.0; 
stroke:#000000; stroke-width:0; stroke-opacity:1; 
stroke-linecap:round; stroke-linejoin:round;fill-rule:evenodd;"
d="M 58042.7,40575.1
58046.5,40575.6
58050.3,40576.6
58053.9,40577.9
58057.4,40579.5
58060.7,40581.5
58063.8,40583.8
58066.7,40586.4
58069.3,40589.3
58071.6,40592.4
58073.6,40595.7
58075.2,40599.2
58076.5,40602.8
58077.5,40606.6
58078,40610.4
58078.2,40614.2
58078.2,41401.6
58078,41405.5
58077.5,41409.3
58076.5,41413.1
58075.2,41416.7
58073.6,41420.2
58071.6,41423.5
58069.3,41426.6
58066.7,41429.5
58063.8,41432.1
58060.7,41434.4
58057.4,41436.4
58053.9,41438
58050.3,41439.3
58046.5,41440.2
58042.7,41440.8
58038.9,41441
57605.8,41441
57601.9,41440.8
57598.1,41440.2
57594.4,41439.3
57590.7,41438
57587.2,41436.4
57583.9,41434.4
57580.8,41432.1
57578,41429.5
57575.4,41426.6
57573.1,41423.5
57571.1,41420.2
57569.4,41416.7
57568.1,41413.1
57567.2,41409.3
57566.6,41405.5
57566.4,41401.6
57566.4,40614.2
57566.6,40610.4
57567.2,40606.6
57568.1,40602.8
57569.4,40599.2
57571.1,40595.7
57573.1,40592.4
57575.4,40589.3
57578,40586.4
57580.8,40583.8
57583.9,40581.5
57587.2,40579.5
57590.7,40577.9
57594.4,40576.6
57598.1,40575.6
57601.9,40575.1
57605.8,40574.9
58038.9,40574.9
Z" /> 
<path style="fill:#000000; fill-opacity:1.0; 
stroke:#000000; stroke-width:0; stroke-opacity:1; 
stroke-linecap:round; stroke-linejoin:round;fill-rule:evenodd;"
d="M 57294.7,40575.1
57298.5,40575.6
57302.3,40576.6
57305.9,40577.9
57309.4,40579.5
57312.7,40581.5
57315.8,40583.8
57318.7,40586.4
57321.3,40589.3
57323.6,40592.4
57325.6,40595.7
57327.2,40599.2
57328.5,40602.8
57329.4,40606.6
57330,40610.4
57330.2,40614.2
57330.2,41401.6
57330,41405.5
57329.4,41409.3
57328.5,41413.1
57327.2,41416.7
57325.6,41420.2
57323.6,41423.5
57321.3,41426.6
57318.7,41429.5
57315.8,41432.1
57312.7,41434.4
57309.4,41436.4
57305.9,41438
57302.3,41439.3
57298.5,41440.2
57294.7,41440.8
57290.8,41441
56857.8,41441
56853.9,41440.8
56850.1,41440.2
56846.3,41439.3
56842.7,41438
56839.2,41436.4
56835.9,41434.4
56832.8,41432.1
56829.9,41429.5
56827.3,41426.6
56825,41423.5
56823,41420.2
56821.4,41416.7
56820.1,41413.1
56819.1,41409.3
56818.6,41405.5
56818.4,41401.6
56818.4,40614.2
56818.6,40610.4
56819.1,40606.6
56820.1,40602.8
56821.4,40599.2
56823,40595.7
56825,40592.4
56827.3,40589.3
56829.9,40586.4
56832.8,40583.8
56835.9,40581.5
56839.2,40579.5
56842.7,40577.9
56846.3,40576.6
56850.1,40575.6
56853.9,40575.1
56857.8,40574.9
57290.8,40574.9
Z" /> 
</g>
<g >
</g>
<g style="fill:#000000; fill-opacity:1.0; 
stroke:#000000; stroke-width:0; stroke-opacity:1; 
stroke-linecap:round; stroke-linejoin:round;">
<path style="fill:#000000; fill-opacity:1.0; 
stroke:#000000; stroke-width:0; stroke-opacity:1; 
stroke-linecap:round; stroke-linejoin:round;fill-rule:evenodd;"
d="M 59566.3,44827
59570.2,44827.6
59573.9,44828.5
59577.6,44829.8
59581,44831.5
59584.4,44833.5
59587.5,44835.8
59590.3,44838.4
59592.9,44841.2
59595.2,44844.3
59597.2,44847.6
59598.9,44851.1
59600.2,44854.8
59601.1,44858.5
59601.7,44862.3
59601.9,44866.2
59601.9,45417.4
59601.7,45421.2
59601.1,45425.1
59600.2,45428.8
59598.9,45432.4
59597.2,45435.9
59595.2,45439.3
59592.9,45442.4
59590.3,45445.2
59587.5,45447.8
59584.4,45450.1
59581,45452.1
59577.6,45453.8
59573.9,45455.1
59570.2,45456
59566.3,45456.6
59562.5,45456.8
58775.1,45456.8
58771.2,45456.6
58767.4,45456
58763.7,45455.1
58760,45453.8
58756.5,45452.1
58753.2,45450.1
58750.1,45447.8
58747.2,45445.2
58744.7,45442.4
58742.4,45439.3
58740.4,45435.9
58738.7,45432.4
58737.4,45428.8
58736.5,45425.1
58735.9,45421.2
58735.7,45417.4
58735.7,44866.2
58735.9,44862.3
58736.5,44858.5
58737.4,44854.8
58738.7,44851.1
58740.4,44847.6
58742.4,44844.3
58744.7,44841.2
58747.2,44838.4
58750.1,44835.8
58753.2,44833.5
58756.5,44831.5
58760,44829.8
58763.7,44828.5
58767.4,44827.6
58771.2,44827
58775.1,44826.8
59562.5,44826.8
Z" /> 
<path style="fill:#000000; fill-opacity:1.0; 
stroke:#000000; stroke-width:0; stroke-opacity:1; 
stroke-linecap:round; stroke-linejoin:round;fill-rule:evenodd;"
d="M 59566.3,44079
59570.2,44079.6
59573.9,44080.5
59577.6,44081.8
59581,44083.4
59584.4,44085.4
59587.5,44087.7
59590.3,44090.3
59592.9,44093.2
59595.2,44096.3
59597.2,44099.6
59598.9,44103.1
59600.2,44106.7
59601.1,44110.5
59601.7,44114.3
59601.9,44118.2
59601.9,44669.4
59601.7,44673.2
59601.1,44677
59600.2,44680.8
59598.9,44684.4
59597.2,44687.9
59595.2,44691.2
59592.9,44694.3
59590.3,44697.2
59587.5,44699.8
59584.4,44702.1
59581,44704.1
59577.6,44705.7
59573.9,44707
59570.2,44708
59566.3,44708.5
59562.5,44708.7
58775.1,44708.7
58771.2,44708.5
58767.4,44708
58763.7,44707
58760,44705.7
58756.5,44704.1
58753.2,44702.1
58750.1,44699.8
58747.2,44697.2
58744.7,44694.3
58742.4,44691.2
58740.4,44687.9
58738.7,44684.4
58737.4,44680.8
58736.5,44677
58735.9,44673.2
58735.7,44669.4
58735.7,44118.2
58735.9,44114.3
58736.5,44110.5
58737.4,44106.7
58738.7,44103.1
58740.4,44099.6
58742.4,44096.3
58744.7,44093.2
58747.2,44090.3
58750.1,44087.7
58753.2,44085.4
58756.5,44083.4
58760,44081.8
58763.7,44080.5
58767.4,44079.6
58771.2,44079
58775.1,44078.8
59562.5,44078.8
Z" /> 
<path style="fill:#000000; fill-opacity:1.0; 
stroke:#000000; stroke-width:0; stroke-opacity:1; 
stroke-linecap:round; stroke-linejoin:round;fill-rule:evenodd;"
d="M 59566.3,45575.1
59570.2,45575.6
59573.9,45576.6
59577.6,45577.9
59581,45579.5
59584.4,45581.5
59587.5,45583.8
59590.3,45586.4
59592.9,45589.3
59595.2,45592.4
59597.2,45595.7
59598.9,45599.2
59600.2,45602.8
59601.1,45606.6
59601.7,45610.4
59601.9,45614.2
59601.9,46165.4
59601.7,46169.3
59601.1,46173.1
59600.2,46176.8
59598.9,46180.5
59597.2,46184
59595.2,46187.3
59592.9,46190.4
59590.3,46193.3
59587.5,46195.8
59584.4,46198.1
59581,46200.1
59577.6,46201.8
59573.9,46203.1
59570.2,46204
59566.3,46204.6
59562.5,46204.8
58775.1,46204.8
58771.2,46204.6
58767.4,46204
58763.7,46203.1
58760,46201.8
58756.5,46200.1
58753.2,46198.1
58750.1,46195.8
58747.2,46193.3
58744.7,46190.4
58742.4,46187.3
58740.4,46184
58738.7,46180.5
58737.4,46176.8
58736.5,46173.1
58735.9,46169.3
58735.7,46165.4
58735.7,45614.2
58735.9,45610.4
58736.5,45606.6
58737.4,45602.8
58738.7,45599.2
58740.4,45595.7
58742.4,45592.4
58744.7,45589.3
58747.2,45586.4
58750.1,45583.8
58753.2,45581.5
58756.5,45579.5
58760,45577.9
58763.7,45576.6
58767.4,45575.6
58771.2,45575.1
58775.1,45574.9
59562.5,45574.9
Z" /> 
<path style="fill:#000000; fill-opacity:1.0; 
stroke:#000000; stroke-width:0; stroke-opacity:1; 
stroke-linecap:round; stroke-linejoin:round;fill-rule:evenodd;"
d="M 57519.1,45575.1
57522.9,45575.6
57526.7,45576.6
57530.3,45577.9
57533.8,45579.5
57537.1,45581.5
57540.2,45583.8
57543.1,45586.4
57545.7,45589.3
57548,45592.4
57550,45595.7
57551.6,45599.2
57552.9,45602.8
57553.9,45606.6
57554.4,45610.4
57554.6,45614.2
57554.6,46165.4
57554.4,46169.3
57553.9,46173.1
57552.9,46176.8
57551.6,46180.5
57550,46184
57548,46187.3
57545.7,46190.4
57543.1,46193.3
57540.2,46195.8
57537.1,46198.1
57533.8,46200.1
57530.3,46201.8
57526.7,46203.1
57522.9,46204
57519.1,46204.6
57515.2,46204.8
56727.8,46204.8
56724,46204.6
56720.2,46204
56716.4,46203.1
56712.8,46201.8
56709.3,46200.1
56706,46198.1
56702.9,46195.8
56700,46193.3
56697.4,46190.4
56695.1,46187.3
56693.1,46184
56691.5,46180.5
56690.2,46176.8
56689.2,46173.1
56688.7,46169.3
56688.5,46165.4
56688.5,45614.2
56688.7,45610.4
56689.2,45606.6
56690.2,45602.8
56691.5,45599.2
56693.1,45595.7
56695.1,45592.4
56697.4,45589.3
56700,45586.4
56702.9,45583.8
56706,45581.5
56709.3,45579.5
56712.8,45577.9
56716.4,45576.6
56720.2,45575.6
56724,45575.1
56727.8,45574.9
57515.2,45574.9
Z" /> 
<path style="fill:#000000; fill-opacity:1.0; 
stroke:#000000; stroke-width:0; stroke-opacity:1; 
stroke-linecap:round; stroke-linejoin:round;fill-rule:evenodd;"
d="M 57519.1,44827
57522.9,44827.6
57526.7,44828.5
57530.3,44829.8
57533.8,44831.5
57537.1,44833.5
57540.2,44835.8
57543.1,44838.4
57545.7,44841.2
57548,44844.3
57550,44847.6
57551.6,44851.1
57552.9,44854.8
57553.9,44858.5
57554.4,44862.3
57554.6,44866.2
57554.6,45417.4
57554.4,45421.2
57553.9,45425.1
57552.9,45428.8
57551.6,45432.4
57550,45435.9
57548,45439.3
57545.7,45442.4
57543.1,45445.2
57540.2,45447.8
57537.1,45450.1
57533.8,45452.1
57530.3,45453.8
57526.7,45455.1
57522.9,45456
57519.1,45456.6
57515.2,45456.8
56727.8,45456.8
56724,45456.6
56720.2,45456
56716.4,45455.1
56712.8,45453.8
56709.3,45452.1
56706,45450.1
56702.9,45447.8
56700,45445.2
56697.4,45442.4
56695.1,45439.3
56693.1,45435.9
56691.5,45432.4
56690.2,45428.8
56689.2,45425.1
56688.7,45421.2
56688.5,45417.4
56688.5,44866.2
56688.7,44862.3
56689.2,44858.5
56690.2,44854.8
56691.5,44851.1
56693.1,44847.6
56695.1,44844.3
56697.4,44841.2
56700,44838.4
56702.9,44835.8
56706,44833.5
56709.3,44831.5
56712.8,44829.8
56716.4,44828.5
56720.2,44827.6
56724,44827
56727.8,44826.8
57515.2,44826.8
Z" /> 
<path style="fill:#000000; fill-opacity:1.0; 
stroke:#000000; stroke-width:0; stroke-opacity:1; 
stroke-linecap:round; stroke-linejoin:round;fill-rule:evenodd;"
d="M 57519.1,44079
57522.9,44079.6
57526.7,44080.5
57530.3,44081.8
57533.8,44083.4
57537.1,44085.4
57540.2,44087.7
57543.1,44090.3
57545.7,44093.2
57548,44096.3
57550,44099.6
57551.6,44103.1
57552.9,44106.7
57553.9,44110.5
57554.4,44114.3
57554.6,44118.2
57554.6,44669.4
57554.4,44673.2
57553.9,44677
57552.9,44680.8
57551.6,44684.4
57550,44687.9
57548,44691.2
57545.7,44694.3
57543.1,44697.2
57540.2,44699.8
57537.1,44702.1
57533.8,44704.1
57530.3,44705.7
57526.7,44707
57522.9,44708
57519.1,44708.5
57515.2,44708.7
56727.8,44708.7
56724,44708.5
56720.2,44708
56716.4,44707
56712.8,44705.7
56709.3,44704.1
56706,44702.1
56702.9,44699.8
56700,44697.2
56697.4,44694.3
56695.1,44691.2
56693.1,44687.9
56691.5,44684.4
56690.2,44680.8
56689.2,44677
56688.7,44673.2
56688.5,44669.4
56688.5,44118.2
56688.7,44114.3
56689.2,44110.5
56690.2,44106.7
56691.5,44103.1
56693.1,44099.6
56695.1,44096.3
56697.4,44093.2
56700,44090.3
56702.9,44087.7
56706,44085.4
56709.3,44083.4
56712.8,44081.8
56716.4,44080.5
56720.2,44079.6
56724,44079
56727.8,44078.8
57515.2,44078.8
Z" /> 
</g>
<g >
</g>
<g style="fill:#000000; fill-opacity:1.0; 
stroke:#000000; stroke-width:0; stroke-opacity:1; 
stroke-linecap:round; stroke-linejoin:round;">
<path style="fill:#000000; fill-opacity:1.0; 
stroke:#000000; stroke-width:0; stroke-opacity:1; 
stroke-linecap:round; stroke-linejoin:round;fill-rule:evenodd;"
d="M 62897.1,46016
62900.9,46016.6
62904.6,46017.5
62908.3,46018.8
62911.8,46020.5
62915.1,46022.4
62918.2,46024.7
62921,46027.3
62923.6,46030.2
62925.9,46033.3
62927.9,46036.6
62929.6,46040.1
62930.9,46043.7
62931.8,46047.5
62932.4,46051.3
62932.6,46055.2
62932.6,47236.3
62932.4,47240.1
62931.8,47244
62930.9,47247.7
62929.6,47251.3
62927.9,47254.8
62925.9,47258.2
62923.6,47261.3
62921,47264.1
62918.2,47266.7
62915.1,47269
62911.8,47271
62908.3,47272.7
62904.6,47274
62900.9,47274.9
62897.1,47275.5
62893.2,47275.7
61712.1,47275.7
61708.2,47275.5
61704.4,47274.9
61700.7,47274
61697,47272.7
61693.5,47271
61690.2,47269
61687.1,47266.7
61684.3,47264.1
61681.7,47261.3
61679.4,47258.2
61677.4,47254.8
61675.7,47251.3
61674.4,47247.7
61673.5,47244
61672.9,47240.1
61672.7,47236.3
61672.7,46055.2
61672.9,46051.3
61673.5,46047.5
61674.4,46043.7
61675.7,46040.1
61677.4,46036.6
61679.4,46033.3
61681.7,46030.2
61684.3,46027.3
61687.1,46024.7
61690.2,46022.4
61693.5,46020.5
61697,46018.8
61700.7,46017.5
61704.4,46016.6
61708.2,46016
61712.1,46015.8
62893.2,46015.8
Z" /> 
</g>
<g >
</g>
<g style="fill:#000000; fill-opacity:1.0; 
stroke:#000000; stroke-width:0; stroke-opacity:1; 
stroke-linecap:round; stroke-linejoin:round;">
<path style="fill:#000000; fill-opacity:1.0; 
stroke:#000000; stroke-width:0; stroke-opacity:1; 
stroke-linecap:round; stroke-linejoin:round;fill-rule:evenodd;"
d="M 62897.1,37354.6
62900.9,37355.1
62904.6,37356.1
62908.3,37357.4
62911.8,37359
62915.1,37361
62918.2,37363.3
62921,37365.9
62923.6,37368.8
62925.9,37371.9
62927.9,37375.2
62929.6,37378.7
62930.9,37382.3
62931.8,37386.1
62932.4,37389.9
62932.6,37393.8
62932.6,38574.9
62932.4,38578.7
62931.8,38582.5
62930.9,38586.3
62929.6,38589.9
62927.9,38593.4
62925.9,38596.7
62923.6,38599.8
62921,38602.7
62918.2,38605.3
62915.1,38607.6
62911.8,38609.6
62908.3,38611.2
62904.6,38612.5
62900.9,38613.5
62897.1,38614
62893.2,38614.2
61712.1,38614.2
61708.2,38614
61704.4,38613.5
61700.7,38612.5
61697,38611.2
61693.5,38609.6
61690.2,38607.6
61687.1,38605.3
61684.3,38602.7
61681.7,38599.8
61679.4,38596.7
61677.4,38593.4
61675.7,38589.9
61674.4,38586.3
61673.5,38582.5
61672.9,38578.7
61672.7,38574.9
61672.7,37393.8
61672.9,37389.9
61673.5,37386.1
61674.4,37382.3
61675.7,37378.7
61677.4,37375.2
61679.4,37371.9
61681.7,37368.8
61684.3,37365.9
61687.1,37363.3
61690.2,37361
61693.5,37359
61697,37357.4
61700.7,37356.1
61704.4,37355.1
61708.2,37354.6
61712.1,37354.4
62893.2,37354.4
Z" /> 
</g>
<g >
</g>
<g style="fill:#000000; fill-opacity:1.0; 
stroke:#000000; stroke-width:0; stroke-opacity:1; 
stroke-linecap:round; stroke-linejoin:round;">
<path style="fill:#000000; fill-opacity:1.0; 
stroke:#000000; stroke-width:0; stroke-opacity:1; 
stroke-linecap:round; stroke-linejoin:round;fill-rule:evenodd;"
d="M 62897.1,39716.8
62900.9,39717.4
62904.6,39718.3
62908.3,39719.6
62911.8,39721.2
62915.1,39723.2
62918.2,39725.5
62921,39728.1
62923.6,39731
62925.9,39734.1
62927.9,39737.4
62929.6,39740.9
62930.9,39744.5
62931.8,39748.3
62932.4,39752.1
62932.6,39756
62932.6,40937.1
62932.4,40940.9
62931.8,40944.7
62930.9,40948.5
62929.6,40952.1
62927.9,40955.6
62925.9,40958.9
62923.6,40962
62921,40964.9
62918.2,40967.5
62915.1,40969.8
62911.8,40971.8
62908.3,40973.4
62904.6,40974.7
62900.9,40975.7
62897.1,40976.2
62893.2,40976.4
61712.1,40976.4
61708.2,40976.2
61704.4,40975.7
61700.7,40974.7
61697,40973.4
61693.5,40971.8
61690.2,40969.8
61687.1,40967.5
61684.3,40964.9
61681.7,40962
61679.4,40958.9
61677.4,40955.6
61675.7,40952.1
61674.4,40948.5
61673.5,40944.7
61672.9,40940.9
61672.7,40937.1
61672.7,39756
61672.9,39752.1
61673.5,39748.3
61674.4,39744.5
61675.7,39740.9
61677.4,39737.4
61679.4,39734.1
61681.7,39731
61684.3,39728.1
61687.1,39725.5
61690.2,39723.2
61693.5,39721.2
61697,39719.6
61700.7,39718.3
61704.4,39717.4
61708.2,39716.8
61712.1,39716.6
62893.2,39716.6
Z" /> 
</g>
<g >
</g>
<g style="fill:#000000; fill-opacity:1.0; 
stroke:#000000; stroke-width:0; stroke-opacity:1; 
stroke-linecap:round; stroke-linejoin:round;">
<path style="fill:#000000; fill-opacity:1.0; 
stroke:#000000; stroke-width:0; stroke-opacity:1; 
stroke-linecap:round; stroke-linejoin:round;fill-rule:evenodd;"
d="M 50298.6,37354.6
50302.5,37355.1
50306.2,37356.1
50309.8,37357.4
50313.3,37359
50316.6,37361
50319.7,37363.3
50322.6,37365.9
50325.2,37368.8
50327.5,37371.9
50329.5,37375.2
50331.1,37378.7
50332.4,37382.3
50333.4,37386.1
50334,37389.9
50334.1,37393.8
50334.1,38574.9
50334,38578.7
50333.4,38582.5
50332.4,38586.3
50331.1,38589.9
50329.5,38593.4
50327.5,38596.7
50325.2,38599.8
50322.6,38602.7
50319.7,38605.3
50316.6,38607.6
50313.3,38609.6
50309.8,38611.2
50306.2,38612.5
50302.5,38613.5
50298.6,38614
50294.8,38614.2
49113.7,38614.2
49109.8,38614
49106,38613.5
49102.2,38612.5
49098.6,38611.2
49095.1,38609.6
49091.8,38607.6
49088.7,38605.3
49085.8,38602.7
49083.2,38599.8
49080.9,38596.7
49078.9,38593.4
49077.3,38589.9
49076,38586.3
49075.1,38582.5
49074.5,38578.7
49074.3,38574.9
49074.3,37393.8
49074.5,37389.9
49075.1,37386.1
49076,37382.3
49077.3,37378.7
49078.9,37375.2
49080.9,37371.9
49083.2,37368.8
49085.8,37365.9
49088.7,37363.3
49091.8,37361
49095.1,37359
49098.6,37357.4
49102.2,37356.1
49106,37355.1
49109.8,37354.6
49113.7,37354.4
50294.8,37354.4
Z" /> 
</g>
<g >
</g>
<g style="fill:#000000; fill-opacity:1.0; 
stroke:#000000; stroke-width:0; stroke-opacity:1; 
stroke-linecap:round; stroke-linejoin:round;">
<path style="fill:#000000; fill-opacity:1.0; 
stroke:#000000; stroke-width:0; stroke-opacity:1; 
stroke-linecap:round; stroke-linejoin:round;fill-rule:evenodd;"
d="M 50298.6,46016
50302.5,46016.6
50306.2,46017.5
50309.8,46018.8
50313.3,46020.5
50316.6,46022.4
50319.7,46024.7
50322.6,46027.3
50325.2,46030.2
50327.5,46033.3
50329.5,46036.6
50331.1,46040.1
50332.4,46043.7
50333.4,46047.5
50334,46051.3
50334.1,46055.2
50334.1,47236.3
50334,47240.1
50333.4,47244
50332.4,47247.7
50331.1,47251.3
50329.5,47254.8
50327.5,47258.2
50325.2,47261.3
50322.6,47264.1
50319.7,47266.7
50316.6,47269
50313.3,47271
50309.8,47272.7
50306.2,47274
50302.5,47274.9
50298.6,47275.5
50294.8,47275.7
49113.7,47275.7
49109.8,47275.5
49106,47274.9
49102.2,47274
49098.6,47272.7
49095.1,47271
49091.8,47269
49088.7,47266.7
49085.8,47264.1
49083.2,47261.3
49080.9,47258.2
49078.9,47254.8
49077.3,47251.3
49076,47247.7
49075.1,47244
49074.5,47240.1
49074.3,47236.3
49074.3,46055.2
49074.5,46051.3
49075.1,46047.5
49076,46043.7
49077.3,46040.1
49078.9,46036.6
49080.9,46033.3
49083.2,46030.2
49085.8,46027.3
49088.7,46024.7
49091.8,46022.4
49095.1,46020.5
49098.6,46018.8
49102.2,46017.5
49106,46016.6
49109.8,46016
49113.7,46015.8
50294.8,46015.8
Z" /> 
</g>
<g >
</g>
<g style="fill:#000000; fill-opacity:1.0; 
stroke:#000000; stroke-width:0; stroke-opacity:1; 
stroke-linecap:round; stroke-linejoin:round;">
<path style="fill:#000000; fill-opacity:1.0; 
stroke:#000000; stroke-width:0; stroke-opacity:1; 
stroke-linecap:round; stroke-linejoin:round;fill-rule:evenodd;"
d="M 55416.7,40933.3
55420.6,40933.9
55424.3,40934.8
55427.9,40936.1
55431.4,40937.8
55434.8,40939.8
55437.9,40942.1
55440.7,40944.7
55443.3,40947.5
55445.6,40950.6
55447.6,40953.9
55449.3,40957.4
55450.6,40961.1
55451.5,40964.8
55452.1,40968.6
55452.3,40972.5
55452.3,41484.3
55452.1,41488.2
55451.5,41492
55450.6,41495.7
55449.3,41499.4
55447.6,41502.9
55445.6,41506.2
55443.3,41509.3
55440.7,41512.2
55437.9,41514.7
55434.8,41517
55431.4,41519
55427.9,41520.7
55424.3,41522
55420.6,41522.9
55416.7,41523.5
55412.9,41523.7
54578.2,41523.7
54574.4,41523.5
54570.6,41522.9
54566.8,41522
54563.2,41520.7
54559.7,41519
54556.4,41517
54553.3,41514.7
54550.4,41512.2
54547.8,41509.3
54545.5,41506.2
54543.5,41502.9
54541.9,41499.4
54540.6,41495.7
54539.6,41492
54539.1,41488.2
54538.9,41484.3
54538.9,40972.5
54539.1,40968.6
54539.6,40964.8
54540.6,40961.1
54541.9,40957.4
54543.5,40953.9
54545.5,40950.6
54547.8,40947.5
54550.4,40944.7
54553.3,40942.1
54556.4,40939.8
54559.7,40937.8
54563.2,40936.1
54566.8,40934.8
54570.6,40933.9
54574.4,40933.3
54578.2,40933.1
55412.9,40933.1
Z" /> 
<path style="fill:#000000; fill-opacity:1.0; 
stroke:#000000; stroke-width:0; stroke-opacity:1; 
stroke-linecap:round; stroke-linejoin:round;fill-rule:evenodd;"
d="M 55416.7,42429.4
55420.6,42430
55424.3,42430.9
55427.9,42432.2
55431.4,42433.8
55434.8,42435.8
55437.9,42438.1
55440.7,42440.7
55443.3,42443.6
55445.6,42446.7
55447.6,42450
55449.3,42453.5
55450.6,42457.1
55451.5,42460.9
55452.1,42464.7
55452.3,42468.6
55452.3,42980.4
55452.1,42984.2
55451.5,42988.1
55450.6,42991.8
55449.3,42995.4
55447.6,42998.9
55445.6,43002.2
55443.3,43005.4
55440.7,43008.2
55437.9,43010.8
55434.8,43013.1
55431.4,43015.1
55427.9,43016.7
55424.3,43018
55420.6,43019
55416.7,43019.6
55412.9,43019.7
54578.2,43019.7
54574.4,43019.6
54570.6,43019
54566.8,43018
54563.2,43016.7
54559.7,43015.1
54556.4,43013.1
54553.3,43010.8
54550.4,43008.2
54547.8,43005.4
54545.5,43002.2
54543.5,42998.9
54541.9,42995.4
54540.6,42991.8
54539.6,42988.1
54539.1,42984.2
54538.9,42980.4
54538.9,42468.6
54539.1,42464.7
54539.6,42460.9
54540.6,42457.1
54541.9,42453.5
54543.5,42450
54545.5,42446.7
54547.8,42443.6
54550.4,42440.7
54553.3,42438.1
54556.4,42435.8
54559.7,42433.8
54563.2,42432.2
54566.8,42430.9
54570.6,42430
54574.4,42429.4
54578.2,42429.2
55412.9,42429.2
Z" /> 
<path style="fill:#000000; fill-opacity:1.0; 
stroke:#000000; stroke-width:0; stroke-opacity:1; 
stroke-linecap:round; stroke-linejoin:round;fill-rule:evenodd;"
d="M 53684.5,42429.4
53688.3,42430
53692,42430.9
53695.7,42432.2
53699.2,42433.8
53702.5,42435.8
53705.6,42438.1
53708.4,42440.7
53711,42443.6
53713.3,42446.7
53715.3,42450
53717,42453.5
53718.3,42457.1
53719.2,42460.9
53719.8,42464.7
53720,42468.6
53720,42980.4
53719.8,42984.2
53719.2,42988.1
53718.3,42991.8
53717,42995.4
53715.3,42998.9
53713.3,43002.2
53711,43005.4
53708.4,43008.2
53705.6,43010.8
53702.5,43013.1
53699.2,43015.1
53695.7,43016.7
53692,43018
53688.3,43019
53684.5,43019.6
53680.6,43019.7
52846,43019.7
52842.1,43019.6
52838.3,43019
52834.5,43018
52830.9,43016.7
52827.4,43015.1
52824.1,43013.1
52821,43010.8
52818.1,43008.2
52815.5,43005.4
52813.2,43002.2
52811.2,42998.9
52809.6,42995.4
52808.3,42991.8
52807.3,42988.1
52806.8,42984.2
52806.6,42980.4
52806.6,42468.6
52806.8,42464.7
52807.3,42460.9
52808.3,42457.1
52809.6,42453.5
52811.2,42450
52813.2,42446.7
52815.5,42443.6
52818.1,42440.7
52821,42438.1
52824.1,42435.8
52827.4,42433.8
52830.9,42432.2
52834.5,42430.9
52838.3,42430
52842.1,42429.4
52846,42429.2
53680.6,42429.2
Z" /> 
<path style="fill:#000000; fill-opacity:1.0; 
stroke:#000000; stroke-width:0; stroke-opacity:1; 
stroke-linecap:round; stroke-linejoin:round;fill-rule:evenodd;"
d="M 53684.5,41681.4
53688.3,41681.9
53692,41682.9
53695.7,41684.2
53699.2,41685.8
53702.5,41687.8
53705.6,41690.1
53708.4,41692.7
53711,41695.6
53713.3,41698.7
53715.3,41702
53717,41705.5
53718.3,41709.1
53719.2,41712.9
53719.8,41716.7
53720,41720.5
53720,42232.3
53719.8,42236.2
53719.2,42240
53718.3,42243.8
53717,42247.4
53715.3,42250.9
53713.3,42254.2
53711,42257.3
53708.4,42260.2
53705.6,42262.8
53702.5,42265.1
53699.2,42267.1
53695.7,42268.7
53692,42270
53688.3,42271
53684.5,42271.5
53680.6,42271.7
52846,42271.7
52842.1,42271.5
52838.3,42271
52834.5,42270
52830.9,42268.7
52827.4,42267.1
52824.1,42265.1
52821,42262.8
52818.1,42260.2
52815.5,42257.3
52813.2,42254.2
52811.2,42250.9
52809.6,42247.4
52808.3,42243.8
52807.3,42240
52806.8,42236.2
52806.6,42232.3
52806.6,41720.5
52806.8,41716.7
52807.3,41712.9
52808.3,41709.1
52809.6,41705.5
52811.2,41702
52813.2,41698.7
52815.5,41695.6
52818.1,41692.7
52821,41690.1
52824.1,41687.8
52827.4,41685.8
52830.9,41684.2
52834.5,41682.9
52838.3,41681.9
52842.1,41681.4
52846,41681.2
53680.6,41681.2
Z" /> 
<path style="fill:#000000; fill-opacity:1.0; 
stroke:#000000; stroke-width:0; stroke-opacity:1; 
stroke-linecap:round; stroke-linejoin:round;fill-rule:evenodd;"
d="M 53684.5,40933.3
53688.3,40933.9
53692,40934.8
53695.7,40936.1
53699.2,40937.8
53702.5,40939.8
53705.6,40942.1
53708.4,40944.7
53711,40947.5
53713.3,40950.6
53715.3,40953.9
53717,40957.4
53718.3,40961.1
53719.2,40964.8
53719.8,40968.6
53720,40972.5
53720,41484.3
53719.8,41488.2
53719.2,41492
53718.3,41495.7
53717,41499.4
53715.3,41502.9
53713.3,41506.2
53711,41509.3
53708.4,41512.2
53705.6,41514.7
53702.5,41517
53699.2,41519
53695.7,41520.7
53692,41522
53688.3,41522.9
53684.5,41523.5
53680.6,41523.7
52846,41523.7
52842.1,41523.5
52838.3,41522.9
52834.5,41522
52830.9,41520.7
52827.4,41519
52824.1,41517
52821,41514.7
52818.1,41512.2
52815.5,41509.3
52813.2,41506.2
52811.2,41502.9
52809.6,41499.4
52808.3,41495.7
52807.3,41492
52806.8,41488.2
52806.6,41484.3
52806.6,40972.5
52806.8,40968.6
52807.3,40964.8
52808.3,40961.1
52809.6,40957.4
52811.2,40953.9
52813.2,40950.6
52815.5,40947.5
52818.1,40944.7
52821,40942.1
52824.1,40939.8
52827.4,40937.8
52830.9,40936.1
52834.5,40934.8
52838.3,40933.9
52842.1,40933.3
52846,40933.1
53680.6,40933.1
Z" /> 
</g>
<g >
</g>
<g style="fill:#000000; fill-opacity:1.0; 
stroke:#000000; stroke-width:0; stroke-opacity:1; 
stroke-linecap:round; stroke-linejoin:round;">
<path style="fill:#000000; fill-opacity:1.0; 
stroke:#000000; stroke-width:0; stroke-opacity:1; 
stroke-linecap:round; stroke-linejoin:round;fill-rule:evenodd;"
d="M 60731.9,39288.4
60750.5,39291.1
60768.8,39295.7
60786.5,39302.1
60803.6,39310.1
60819.7,39319.8
60834.8,39331
60848.8,39343.7
60861.4,39357.6
60872.7,39372.8
60882.3,39388.9
60890.4,39405.9
60896.7,39423.7
60901.3,39441.9
60904.1,39460.6
60905,39479.4
60905,39922.3
60904.1,39941.1
60901.3,39959.7
60896.7,39978
60890.4,39995.8
60882.3,40012.8
60872.7,40028.9
60861.4,40044.1
60848.8,40058
60834.8,40070.7
60819.7,40081.9
60803.6,40091.6
60786.5,40099.6
60768.8,40106
60750.5,40110.5
60731.9,40113.3
60713.1,40114.2
60329.2,40114.2
60310.4,40113.3
60291.8,40110.5
60273.5,40106
60255.8,40099.6
60238.7,40091.6
60222.6,40081.9
60207.5,40070.7
60193.5,40058
60180.9,40044.1
60169.6,40028.9
60160,40012.8
60151.9,39995.8
60145.6,39978
60141,39959.7
60138.2,39941.1
60137.3,39922.3
60137.3,39479.4
60138.2,39460.6
60141,39441.9
60145.6,39423.7
60151.9,39405.9
60160,39388.9
60169.6,39372.8
60180.9,39357.6
60193.5,39343.7
60207.5,39331
60222.6,39319.8
60238.7,39310.1
60255.8,39302.1
60273.5,39295.7
60291.8,39291.1
60310.4,39288.4
60329.2,39287.5
60713.1,39287.5
Z" /> 
<path style="fill:#000000; fill-opacity:1.0; 
stroke:#000000; stroke-width:0; stroke-opacity:1; 
stroke-linecap:round; stroke-linejoin:round;fill-rule:evenodd;"
d="M 59491.7,39288.4
59510.4,39291.1
59528.6,39295.7
59546.4,39302.1
59563.4,39310.1
59579.6,39319.8
59594.7,39331
59608.6,39343.7
59621.3,39357.6
59632.5,39372.8
59642.2,39388.9
59650.2,39405.9
59656.6,39423.7
59661.2,39441.9
59663.9,39460.6
59664.8,39479.4
59664.8,39922.3
59663.9,39941.1
59661.2,39959.7
59656.6,39978
59650.2,39995.8
59642.2,40012.8
59632.5,40028.9
59621.3,40044.1
59608.6,40058
59594.7,40070.7
59579.6,40081.9
59563.4,40091.6
59546.4,40099.6
59528.6,40106
59510.4,40110.5
59491.7,40113.3
59472.9,40114.2
59089.1,40114.2
59070.2,40113.3
59051.6,40110.5
59033.3,40106
59015.6,40099.6
58998.6,40091.6
58982.4,40081.9
58967.3,40070.7
58953.3,40058
58940.7,40044.1
58929.5,40028.9
58919.8,40012.8
58911.7,39995.8
58905.4,39978
58900.8,39959.7
58898.1,39941.1
58897.1,39922.3
58897.1,39479.4
58898.1,39460.6
58900.8,39441.9
58905.4,39423.7
58911.7,39405.9
58919.8,39388.9
58929.5,39372.8
58940.7,39357.6
58953.3,39343.7
58967.3,39331
58982.4,39319.8
58998.6,39310.1
59015.6,39302.1
59033.3,39295.7
59051.6,39291.1
59070.2,39288.4
59089.1,39287.5
59472.9,39287.5
Z" /> 
</g>
<g >
</g>
<g style="fill:#000000; fill-opacity:1.0; 
stroke:#000000; stroke-width:0; stroke-opacity:1; 
stroke-linecap:round; stroke-linejoin:round;">
<path style="fill:#000000; fill-opacity:1.0; 
stroke:#000000; stroke-width:0; stroke-opacity:1; 
stroke-linecap:round; stroke-linejoin:round;fill-rule:evenodd;"
d="M 60054.7,40847.4
60073.4,40850.2
60091.6,40854.8
60109.4,40861.1
60126.4,40869.2
60142.5,40878.9
60157.7,40890.1
60171.6,40902.7
60184.3,40916.7
60195.5,40931.8
60205.2,40948
60213.2,40965
60219.6,40982.7
60224.2,41001
60226.9,41019.6
60227.8,41038.4
60227.8,41422.3
60226.9,41441.1
60224.2,41459.7
60219.6,41478
60213.2,41495.8
60205.2,41512.8
60195.5,41528.9
60184.3,41544.1
60171.6,41558
60157.7,41570.7
60142.5,41581.9
60126.4,41591.6
60109.4,41599.6
60091.6,41606
60073.4,41610.5
60054.7,41613.3
60035.9,41614.2
59593,41614.2
59574.2,41613.3
59555.6,41610.5
59537.3,41606
59519.6,41599.6
59502.5,41591.6
59486.4,41581.9
59471.2,41570.7
59457.3,41558
59444.6,41544.1
59433.4,41528.9
59423.7,41512.8
59415.7,41495.8
59409.3,41478
59404.8,41459.7
59402,41441.1
59401.1,41422.3
59401.1,41038.4
59402,41019.6
59404.8,41001
59409.3,40982.7
59415.7,40965
59423.7,40948
59433.4,40931.8
59444.6,40916.7
59457.3,40902.7
59471.2,40890.1
59486.4,40878.9
59502.5,40869.2
59519.6,40861.1
59537.3,40854.8
59555.6,40850.2
59574.2,40847.4
59593,40846.5
60035.9,40846.5
Z" /> 
<path style="fill:#000000; fill-opacity:1.0; 
stroke:#000000; stroke-width:0; stroke-opacity:1; 
stroke-linecap:round; stroke-linejoin:round;fill-rule:evenodd;"
d="M 60054.7,42087.6
60073.4,42090.4
60091.6,42094.9
60109.4,42101.3
60126.4,42109.3
60142.5,42119
60157.7,42130.2
60171.6,42142.9
60184.3,42156.8
60195.5,42172
60205.2,42188.1
60213.2,42205.2
60219.6,42222.9
60224.2,42241.2
60226.9,42259.8
60227.8,42278.6
60227.8,42662.5
60226.9,42681.3
60224.2,42699.9
60219.6,42718.2
60213.2,42735.9
60205.2,42752.9
60195.5,42769.1
60184.3,42784.2
60171.6,42798.2
60157.7,42810.8
60142.5,42822
60126.4,42831.7
60109.4,42839.8
60091.6,42846.1
60073.4,42850.7
60054.7,42853.5
60035.9,42854.4
59593,42854.4
59574.2,42853.5
59555.6,42850.7
59537.3,42846.1
59519.6,42839.8
59502.5,42831.7
59486.4,42822
59471.2,42810.8
59457.3,42798.2
59444.6,42784.2
59433.4,42769.1
59423.7,42752.9
59415.7,42735.9
59409.3,42718.2
59404.8,42699.9
59402,42681.3
59401.1,42662.5
59401.1,42278.6
59402,42259.8
59404.8,42241.2
59409.3,42222.9
59415.7,42205.2
59423.7,42188.1
59433.4,42172
59444.6,42156.8
59457.3,42142.9
59471.2,42130.2
59486.4,42119
59502.5,42109.3
59519.6,42101.3
59537.3,42094.9
59555.6,42090.4
59574.2,42087.6
59593,42086.7
60035.9,42086.7
Z" /> 
</g>
<g >
</g>
<g style="fill:#000000; fill-opacity:1.0; 
stroke:#000000; stroke-width:0; stroke-opacity:1; 
stroke-linecap:round; stroke-linejoin:round;">
<path style="fill:#000000; fill-opacity:1.0; 
stroke:#000000; stroke-width:0; stroke-opacity:1; 
stroke-linecap:round; stroke-linejoin:round;fill-rule:evenodd;"
d="M 55275.2,39469.5
55293.8,39472.3
55312.1,39476.8
55329.8,39483.2
55346.9,39491.2
55363,39500.9
55378.1,39512.1
55392.1,39524.8
55404.7,39538.7
55416,39553.9
55425.7,39570
55433.7,39587
55440,39604.8
55444.6,39623
55447.4,39641.7
55448.3,39660.5
55448.3,40103.4
55447.4,40122.2
55444.6,40140.8
55440,40159.1
55433.7,40176.9
55425.7,40193.9
55416,40210
55404.7,40225.2
55392.1,40239.1
55378.1,40251.8
55363,40263
55346.9,40272.7
55329.8,40280.7
55312.1,40287.1
55293.8,40291.6
55275.2,40294.4
55256.4,40295.3
54872.5,40295.3
54853.7,40294.4
54835.1,40291.6
54816.8,40287.1
54799.1,40280.7
54782.1,40272.7
54765.9,40263
54750.8,40251.8
54736.8,40239.1
54724.2,40225.2
54712.9,40210
54703.3,40193.9
54695.2,40176.9
54688.9,40159.1
54684.3,40140.8
54681.5,40122.2
54680.6,40103.4
54680.6,39660.5
54681.5,39641.7
54684.3,39623
54688.9,39604.8
54695.2,39587
54703.3,39570
54712.9,39553.9
54724.2,39538.7
54736.8,39524.8
54750.8,39512.1
54765.9,39500.9
54782.1,39491.2
54799.1,39483.2
54816.8,39476.8
54835.1,39472.3
54853.7,39469.5
54872.5,39468.6
55256.4,39468.6
Z" /> 
<path style="fill:#000000; fill-opacity:1.0; 
stroke:#000000; stroke-width:0; stroke-opacity:1; 
stroke-linecap:round; stroke-linejoin:round;fill-rule:evenodd;"
d="M 54035,39469.5
54053.7,39472.3
54071.9,39476.8
54089.7,39483.2
54106.7,39491.2
54122.9,39500.9
54138,39512.1
54151.9,39524.8
54164.6,39538.7
54175.8,39553.9
54185.5,39570
54193.5,39587
54199.9,39604.8
54204.5,39623
54207.2,39641.7
54208.2,39660.5
54208.2,40103.4
54207.2,40122.2
54204.5,40140.8
54199.9,40159.1
54193.5,40176.9
54185.5,40193.9
54175.8,40210
54164.6,40225.2
54151.9,40239.1
54138,40251.8
54122.9,40263
54106.7,40272.7
54089.7,40280.7
54071.9,40287.1
54053.7,40291.6
54035,40294.4
54016.2,40295.3
53632.4,40295.3
53613.6,40294.4
53594.9,40291.6
53576.7,40287.1
53558.9,40280.7
53541.9,40272.7
53525.7,40263
53510.6,40251.8
53496.7,40239.1
53484,40225.2
53472.8,40210
53463.1,40193.9
53455,40176.9
53448.7,40159.1
53444.1,40140.8
53441.4,40122.2
53440.4,40103.4
53440.4,39660.5
53441.4,39641.7
53444.1,39623
53448.7,39604.8
53455,39587
53463.1,39570
53472.8,39553.9
53484,39538.7
53496.7,39524.8
53510.6,39512.1
53525.7,39500.9
53541.9,39491.2
53558.9,39483.2
53576.7,39476.8
53594.9,39472.3
53613.6,39469.5
53632.4,39468.6
54016.2,39468.6
Z" /> 
</g>
<g >
</g>
<g style="fill:#000000; fill-opacity:1.0; 
stroke:#000000; stroke-width:0; stroke-opacity:1; 
stroke-linecap:round; stroke-linejoin:round;">
<path style="fill:#000000; fill-opacity:1.0; 
stroke:#000000; stroke-width:0; stroke-opacity:1; 
stroke-linecap:round; stroke-linejoin:round;fill-rule:evenodd;"
d="M 50834.3,42481.3
50852.9,42484.1
50871.2,42488.6
50888.9,42495
50905.9,42503
50922.1,42512.7
50937.2,42523.9
50951.2,42536.6
50963.8,42550.5
50975,42565.7
50984.7,42581.8
50992.8,42598.9
50999.1,42616.6
51003.7,42634.9
51006.4,42653.5
51007.4,42672.3
51007.4,43056.2
51006.4,43075
51003.7,43093.6
50999.1,43111.9
50992.8,43129.6
50984.7,43146.6
50975,43162.8
50963.8,43177.9
50951.2,43191.9
50937.2,43204.5
50922.1,43215.7
50905.9,43225.4
50888.9,43233.5
50871.2,43239.8
50852.9,43244.4
50834.3,43247.2
50815.4,43248.1
50372.5,43248.1
50353.7,43247.2
50335.1,43244.4
50316.8,43239.8
50299.1,43233.5
50282.1,43225.4
50265.9,43215.7
50250.8,43204.5
50236.8,43191.9
50224.2,43177.9
50212.9,43162.8
50203.3,43146.6
50195.2,43129.6
50188.9,43111.9
50184.3,43093.6
50181.5,43075
50180.6,43056.2
50180.6,42672.3
50181.5,42653.5
50184.3,42634.9
50188.9,42616.6
50195.2,42598.9
50203.3,42581.8
50212.9,42565.7
50224.2,42550.5
50236.8,42536.6
50250.8,42523.9
50265.9,42512.7
50282.1,42503
50299.1,42495
50316.8,42488.6
50335.1,42484.1
50353.7,42481.3
50372.5,42480.4
50815.4,42480.4
Z" /> 
<path style="fill:#000000; fill-opacity:1.0; 
stroke:#000000; stroke-width:0; stroke-opacity:1; 
stroke-linecap:round; stroke-linejoin:round;fill-rule:evenodd;"
d="M 50834.3,41241.1
50852.9,41243.9
50871.2,41248.5
50888.9,41254.8
50905.9,41262.9
50922.1,41272.6
50937.2,41283.8
50951.2,41296.4
50963.8,41310.4
50975,41325.5
50984.7,41341.7
50992.8,41358.7
50999.1,41376.4
51003.7,41394.7
51006.4,41413.3
51007.4,41432.1
51007.4,41816
51006.4,41834.8
51003.7,41853.4
50999.1,41871.7
50992.8,41889.5
50984.7,41906.5
50975,41922.6
50963.8,41937.8
50951.2,41951.7
50937.2,41964.4
50922.1,41975.6
50905.9,41985.3
50888.9,41993.3
50871.2,41999.7
50852.9,42004.2
50834.3,42007
50815.4,42007.9
50372.5,42007.9
50353.7,42007
50335.1,42004.2
50316.8,41999.7
50299.1,41993.3
50282.1,41985.3
50265.9,41975.6
50250.8,41964.4
50236.8,41951.7
50224.2,41937.8
50212.9,41922.6
50203.3,41906.5
50195.2,41889.5
50188.9,41871.7
50184.3,41853.4
50181.5,41834.8
50180.6,41816
50180.6,41432.1
50181.5,41413.3
50184.3,41394.7
50188.9,41376.4
50195.2,41358.7
50203.3,41341.7
50212.9,41325.5
50224.2,41310.4
50236.8,41296.4
50250.8,41283.8
50265.9,41272.6
50282.1,41262.9
50299.1,41254.8
50316.8,41248.5
50335.1,41243.9
50353.7,41241.1
50372.5,41240.2
50815.4,41240.2
Z" /> 
</g>
<g >
</g>
<g style="fill:#000000; fill-opacity:1.0; 
stroke:#000000; stroke-width:0; stroke-opacity:1; 
stroke-linecap:round; stroke-linejoin:round;">
<path style="fill:#000000; fill-opacity:1.0; 
stroke:#000000; stroke-width:0; stroke-opacity:1; 
stroke-linecap:round; stroke-linejoin:round;fill-rule:evenodd;"
d="M 55290.9,43674.2
55309.6,43677
55327.8,43681.6
55345.6,43687.9
55362.6,43696
55378.8,43705.6
55393.9,43716.9
55407.8,43729.5
55420.5,43743.5
55431.7,43758.6
55441.4,43774.7
55449.5,43791.8
55455.8,43809.5
55460.4,43827.8
55463.1,43846.4
55464.1,43865.2
55464.1,44308.1
55463.1,44326.9
55460.4,44345.6
55455.8,44363.8
55449.5,44381.6
55441.4,44398.6
55431.7,44414.8
55420.5,44429.9
55407.8,44443.8
55393.9,44456.5
55378.8,44467.7
55362.6,44477.4
55345.6,44485.5
55327.8,44491.8
55309.6,44496.4
55290.9,44499.1
55272.1,44500.1
54888.3,44500.1
54869.5,44499.1
54850.8,44496.4
54832.6,44491.8
54814.8,44485.5
54797.8,44477.4
54781.6,44467.7
54766.5,44456.5
54752.6,44443.8
54739.9,44429.9
54728.7,44414.8
54719,44398.6
54711,44381.6
54704.6,44363.8
54700,44345.6
54697.3,44326.9
54696.3,44308.1
54696.3,43865.2
54697.3,43846.4
54700,43827.8
54704.6,43809.5
54711,43791.8
54719,43774.7
54728.7,43758.6
54739.9,43743.5
54752.6,43729.5
54766.5,43716.9
54781.6,43705.6
54797.8,43696
54814.8,43687.9
54832.6,43681.6
54850.8,43677
54869.5,43674.2
54888.3,43673.3
55272.1,43673.3
Z" /> 
<path style="fill:#000000; fill-opacity:1.0; 
stroke:#000000; stroke-width:0; stroke-opacity:1; 
stroke-linecap:round; stroke-linejoin:round;fill-rule:evenodd;"
d="M 54050.8,43674.2
54069.4,43677
54087.7,43681.6
54105.4,43687.9
54122.5,43696
54138.6,43705.6
54153.7,43716.9
54167.7,43729.5
54180.3,43743.5
54191.6,43758.6
54201.2,43774.7
54209.3,43791.8
54215.6,43809.5
54220.2,43827.8
54223,43846.4
54223.9,43865.2
54223.9,44308.1
54223,44326.9
54220.2,44345.6
54215.6,44363.8
54209.3,44381.6
54201.2,44398.6
54191.6,44414.8
54180.3,44429.9
54167.7,44443.8
54153.7,44456.5
54138.6,44467.7
54122.5,44477.4
54105.4,44485.5
54087.7,44491.8
54069.4,44496.4
54050.8,44499.1
54032,44500.1
53648.1,44500.1
53629.3,44499.1
53610.7,44496.4
53592.4,44491.8
53574.7,44485.5
53557.6,44477.4
53541.5,44467.7
53526.4,44456.5
53512.4,44443.8
53499.8,44429.9
53488.5,44414.8
53478.9,44398.6
53470.8,44381.6
53464.5,44363.8
53459.9,44345.6
53457.1,44326.9
53456.2,44308.1
53456.2,43865.2
53457.1,43846.4
53459.9,43827.8
53464.5,43809.5
53470.8,43791.8
53478.9,43774.7
53488.5,43758.6
53499.8,43743.5
53512.4,43729.5
53526.4,43716.9
53541.5,43705.6
53557.6,43696
53574.7,43687.9
53592.4,43681.6
53610.7,43677
53629.3,43674.2
53648.1,43673.3
54032,43673.3
Z" /> 
</g>
<g >
</g>
<g style="fill:#000000; fill-opacity:1.0; 
stroke:#000000; stroke-width:0; stroke-opacity:1; 
stroke-linecap:round; stroke-linejoin:round;">
<path style="fill:#000000; fill-opacity:1.0; 
stroke:#000000; stroke-width:0; stroke-opacity:1; 
stroke-linecap:round; stroke-linejoin:round;fill-rule:evenodd;"
d="M 52165,41241.1
52183.6,41243.9
52201.9,41248.5
52219.6,41254.8
52236.6,41262.9
52252.8,41272.6
52267.9,41283.8
52281.9,41296.4
52294.5,41310.4
52305.7,41325.5
52315.4,41341.7
52323.5,41358.7
52329.8,41376.4
52334.4,41394.7
52337.2,41413.3
52338.1,41432.1
52338.1,41816
52337.2,41834.8
52334.4,41853.4
52329.8,41871.7
52323.5,41889.5
52315.4,41906.5
52305.7,41922.6
52294.5,41937.8
52281.9,41951.7
52267.9,41964.4
52252.8,41975.6
52236.6,41985.3
52219.6,41993.3
52201.9,41999.7
52183.6,42004.2
52165,42007
52146.1,42007.9
51703.2,42007.9
51684.4,42007
51665.8,42004.2
51647.5,41999.7
51629.8,41993.3
51612.8,41985.3
51596.6,41975.6
51581.5,41964.4
51567.5,41951.7
51554.9,41937.8
51543.7,41922.6
51534,41906.5
51525.9,41889.5
51519.6,41871.7
51515,41853.4
51512.2,41834.8
51511.3,41816
51511.3,41432.1
51512.2,41413.3
51515,41394.7
51519.6,41376.4
51525.9,41358.7
51534,41341.7
51543.7,41325.5
51554.9,41310.4
51567.5,41296.4
51581.5,41283.8
51596.6,41272.6
51612.8,41262.9
51629.8,41254.8
51647.5,41248.5
51665.8,41243.9
51684.4,41241.1
51703.2,41240.2
52146.1,41240.2
Z" /> 
<path style="fill:#000000; fill-opacity:1.0; 
stroke:#000000; stroke-width:0; stroke-opacity:1; 
stroke-linecap:round; stroke-linejoin:round;fill-rule:evenodd;"
d="M 52165,42481.3
52183.6,42484.1
52201.9,42488.6
52219.6,42495
52236.6,42503
52252.8,42512.7
52267.9,42523.9
52281.9,42536.6
52294.5,42550.5
52305.7,42565.7
52315.4,42581.8
52323.5,42598.9
52329.8,42616.6
52334.4,42634.9
52337.2,42653.5
52338.1,42672.3
52338.1,43056.2
52337.2,43075
52334.4,43093.6
52329.8,43111.9
52323.5,43129.6
52315.4,43146.6
52305.7,43162.8
52294.5,43177.9
52281.9,43191.9
52267.9,43204.5
52252.8,43215.7
52236.6,43225.4
52219.6,43233.5
52201.9,43239.8
52183.6,43244.4
52165,43247.2
52146.1,43248.1
51703.2,43248.1
51684.4,43247.2
51665.8,43244.4
51647.5,43239.8
51629.8,43233.5
51612.8,43225.4
51596.6,43215.7
51581.5,43204.5
51567.5,43191.9
51554.9,43177.9
51543.7,43162.8
51534,43146.6
51525.9,43129.6
51519.6,43111.9
51515,43093.6
51512.2,43075
51511.3,43056.2
51511.3,42672.3
51512.2,42653.5
51515,42634.9
51519.6,42616.6
51525.9,42598.9
51534,42581.8
51543.7,42565.7
51554.9,42550.5
51567.5,42536.6
51581.5,42523.9
51596.6,42512.7
51612.8,42503
51629.8,42495
51647.5,42488.6
51665.8,42484.1
51684.4,42481.3
51703.2,42480.4
52146.1,42480.4
Z" /> 
</g>
<g >
</g>
<g style="fill:#000000; fill-opacity:1.0; 
stroke:#000000; stroke-width:0; stroke-opacity:1; 
stroke-linecap:round; stroke-linejoin:round;">
<path style="fill:#000000; fill-opacity:1.0; 
stroke:#000000; stroke-width:0; stroke-opacity:1; 
stroke-linecap:round; stroke-linejoin:round;fill-rule:evenodd;"
d="M 57058.7,39288.4
57077.3,39291.1
57095.6,39295.7
57113.3,39302.1
57130.3,39310.1
57146.5,39319.8
57161.6,39331
57175.6,39343.7
57188.2,39357.6
57199.4,39372.8
57209.1,39388.9
57217.2,39405.9
57223.5,39423.7
57228.1,39441.9
57230.9,39460.6
57231.8,39479.4
57231.8,39922.3
57230.9,39941.1
57228.1,39959.7
57223.5,39978
57217.2,39995.8
57209.1,40012.8
57199.4,40028.9
57188.2,40044.1
57175.6,40058
57161.6,40070.7
57146.5,40081.9
57130.3,40091.6
57113.3,40099.6
57095.6,40106
57077.3,40110.5
57058.7,40113.3
57039.8,40114.2
56656,40114.2
56637.2,40113.3
56618.5,40110.5
56600.3,40106
56582.5,40099.6
56565.5,40091.6
56549.4,40081.9
56534.2,40070.7
56520.3,40058
56507.6,40044.1
56496.4,40028.9
56486.7,40012.8
56478.7,39995.8
56472.3,39978
56467.8,39959.7
56465,39941.1
56464.1,39922.3
56464.1,39479.4
56465,39460.6
56467.8,39441.9
56472.3,39423.7
56478.7,39405.9
56486.7,39388.9
56496.4,39372.8
56507.6,39357.6
56520.3,39343.7
56534.2,39331
56549.4,39319.8
56565.5,39310.1
56582.5,39302.1
56600.3,39295.7
56618.5,39291.1
56637.2,39288.4
56656,39287.5
57039.8,39287.5
Z" /> 
<path style="fill:#000000; fill-opacity:1.0; 
stroke:#000000; stroke-width:0; stroke-opacity:1; 
stroke-linecap:round; stroke-linejoin:round;fill-rule:evenodd;"
d="M 58298.8,39288.4
58317.5,39291.1
58335.7,39295.7
58353.5,39302.1
58370.5,39310.1
58386.6,39319.8
58401.8,39331
58415.7,39343.7
58428.4,39357.6
58439.6,39372.8
58449.3,39388.9
58457.3,39405.9
58463.7,39423.7
58468.2,39441.9
58471,39460.6
58471.9,39479.4
58471.9,39922.3
58471,39941.1
58468.2,39959.7
58463.7,39978
58457.3,39995.8
58449.3,40012.8
58439.6,40028.9
58428.4,40044.1
58415.7,40058
58401.8,40070.7
58386.6,40081.9
58370.5,40091.6
58353.5,40099.6
58335.7,40106
58317.5,40110.5
58298.8,40113.3
58280,40114.2
57896.1,40114.2
57877.3,40113.3
57858.7,40110.5
57840.4,40106
57822.7,40099.6
57805.7,40091.6
57789.5,40081.9
57774.4,40070.7
57760.4,40058
57747.8,40044.1
57736.6,40028.9
57726.9,40012.8
57718.8,39995.8
57712.5,39978
57707.9,39959.7
57705.1,39941.1
57704.2,39922.3
57704.2,39479.4
57705.1,39460.6
57707.9,39441.9
57712.5,39423.7
57718.8,39405.9
57726.9,39388.9
57736.6,39372.8
57747.8,39357.6
57760.4,39343.7
57774.4,39331
57789.5,39319.8
57805.7,39310.1
57822.7,39302.1
57840.4,39295.7
57858.7,39291.1
57877.3,39288.4
57896.1,39287.5
58280,39287.5
Z" /> 
</g>
<g >
</g>
<g style="fill:#000000; fill-opacity:1.0; 
stroke:#000000; stroke-width:0; stroke-opacity:1; 
stroke-linecap:round; stroke-linejoin:round;">
<path style="fill:#000000; fill-opacity:1.0; 
stroke:#000000; stroke-width:0; stroke-opacity:1; 
stroke-linecap:round; stroke-linejoin:round;fill-rule:evenodd;"
d="M 52763.4,43705.7
52782,43708.5
52800.3,43713
52818,43719.4
52835,43727.4
52851.2,43737.1
52866.3,43748.4
52880.3,43761
52892.9,43775
52904.2,43790.1
52913.8,43806.2
52921.9,43823.3
52928.2,43841
52932.8,43859.3
52935.6,43877.9
52936.5,43896.7
52936.5,44339.6
52935.6,44358.4
52932.8,44377.1
52928.2,44395.3
52921.9,44413.1
52913.8,44430.1
52904.2,44446.3
52892.9,44461.4
52880.3,44475.3
52866.3,44488
52851.2,44499.2
52835,44508.9
52818,44516.9
52800.3,44523.3
52782,44527.9
52763.4,44530.6
52744.6,44531.6
52360.7,44531.6
52341.9,44530.6
52323.3,44527.9
52305,44523.3
52287.3,44516.9
52270.2,44508.9
52254.1,44499.2
52239,44488
52225,44475.3
52212.4,44461.4
52201.1,44446.3
52191.4,44430.1
52183.4,44413.1
52177.1,44395.3
52172.5,44377.1
52169.7,44358.4
52168.8,44339.6
52168.8,43896.7
52169.7,43877.9
52172.5,43859.3
52177.1,43841
52183.4,43823.3
52191.4,43806.2
52201.1,43790.1
52212.4,43775
52225,43761
52239,43748.4
52254.1,43737.1
52270.2,43727.4
52287.3,43719.4
52305,43713
52323.3,43708.5
52341.9,43705.7
52360.7,43704.8
52744.6,43704.8
Z" /> 
<path style="fill:#000000; fill-opacity:1.0; 
stroke:#000000; stroke-width:0; stroke-opacity:1; 
stroke-linecap:round; stroke-linejoin:round;fill-rule:evenodd;"
d="M 51523.2,43705.7
51541.9,43708.5
51560.1,43713
51577.9,43719.4
51594.9,43727.4
51611,43737.1
51626.2,43748.4
51640.1,43761
51652.8,43775
51664,43790.1
51673.7,43806.2
51681.7,43823.3
51688.1,43841
51692.7,43859.3
51695.4,43877.9
51696.3,43896.7
51696.3,44339.6
51695.4,44358.4
51692.7,44377.1
51688.1,44395.3
51681.7,44413.1
51673.7,44430.1
51664,44446.3
51652.8,44461.4
51640.1,44475.3
51626.2,44488
51611,44499.2
51594.9,44508.9
51577.9,44516.9
51560.1,44523.3
51541.9,44527.9
51523.2,44530.6
51504.4,44531.6
51120.6,44531.6
51101.7,44530.6
51083.1,44527.9
51064.8,44523.3
51047.1,44516.9
51030.1,44508.9
51013.9,44499.2
50998.8,44488
50984.8,44475.3
50972.2,44461.4
50961,44446.3
50951.3,44430.1
50943.2,44413.1
50936.9,44395.3
50932.3,44377.1
50929.6,44358.4
50928.6,44339.6
50928.6,43896.7
50929.6,43877.9
50932.3,43859.3
50936.9,43841
50943.2,43823.3
50951.3,43806.2
50961,43790.1
50972.2,43775
50984.8,43761
50998.8,43748.4
51013.9,43737.1
51030.1,43727.4
51047.1,43719.4
51064.8,43713
51083.1,43708.5
51101.7,43705.7
51120.6,43704.8
51504.4,43704.8
Z" /> 
</g>
<g >
</g>
<g style="fill:#000000; fill-opacity:1.0; 
stroke:#000000; stroke-width:0; stroke-opacity:1; 
stroke-linecap:round; stroke-linejoin:round;">
<path style="fill:#000000; fill-opacity:1.0; 
stroke:#000000; stroke-width:0; stroke-opacity:1; 
stroke-linecap:round; stroke-linejoin:round;fill-rule:evenodd;"
d="M 53413,44949.8
53431.6,44952.6
53449.9,44957.1
53467.6,44963.5
53484.7,44971.5
53500.8,44981.2
53515.9,44992.4
53529.9,45005.1
53542.5,45019
53553.8,45034.2
53563.4,45050.3
53571.5,45067.4
53577.8,45085.1
53582.4,45103.4
53585.2,45122
53586.1,45140.8
53586.1,45583.7
53585.2,45602.5
53582.4,45621.2
53577.8,45639.4
53571.5,45657.2
53563.4,45674.2
53553.8,45690.4
53542.5,45705.5
53529.9,45719.4
53515.9,45732.1
53500.8,45743.3
53484.7,45753
53467.6,45761
53449.9,45767.4
53431.6,45772
53413,45774.7
53394.2,45775.7
53010.3,45775.7
52991.5,45774.7
52972.9,45772
52954.6,45767.4
52936.9,45761
52919.8,45753
52903.7,45743.3
52888.6,45732.1
52874.6,45719.4
52862,45705.5
52850.7,45690.4
52841.1,45674.2
52833,45657.2
52826.7,45639.4
52822.1,45621.2
52819.3,45602.5
52818.4,45583.7
52818.4,45140.8
52819.3,45122
52822.1,45103.4
52826.7,45085.1
52833,45067.4
52841.1,45050.3
52850.7,45034.2
52862,45019
52874.6,45005.1
52888.6,44992.4
52903.7,44981.2
52919.8,44971.5
52936.9,44963.5
52954.6,44957.1
52972.9,44952.6
52991.5,44949.8
53010.3,44948.9
53394.2,44948.9
Z" /> 
<path style="fill:#000000; fill-opacity:1.0; 
stroke:#000000; stroke-width:0; stroke-opacity:1; 
stroke-linecap:round; stroke-linejoin:round;fill-rule:evenodd;"
d="M 54653.2,44949.8
54671.8,44952.6
54690.1,44957.1
54707.8,44963.5
54724.8,44971.5
54741,44981.2
54756.1,44992.4
54770.1,45005.1
54782.7,45019
54793.9,45034.2
54803.6,45050.3
54811.7,45067.4
54818,45085.1
54822.6,45103.4
54825.3,45122
54826.3,45140.8
54826.3,45583.7
54825.3,45602.5
54822.6,45621.2
54818,45639.4
54811.7,45657.2
54803.6,45674.2
54793.9,45690.4
54782.7,45705.5
54770.1,45719.4
54756.1,45732.1
54741,45743.3
54724.8,45753
54707.8,45761
54690.1,45767.4
54671.8,45772
54653.2,45774.7
54634.3,45775.7
54250.5,45775.7
54231.7,45774.7
54213,45772
54194.8,45767.4
54177,45761
54160,45753
54143.8,45743.3
54128.7,45732.1
54114.8,45719.4
54102.1,45705.5
54090.9,45690.4
54081.2,45674.2
54073.2,45657.2
54066.8,45639.4
54062.2,45621.2
54059.5,45602.5
54058.6,45583.7
54058.6,45140.8
54059.5,45122
54062.2,45103.4
54066.8,45085.1
54073.2,45067.4
54081.2,45050.3
54090.9,45034.2
54102.1,45019
54114.8,45005.1
54128.7,44992.4
54143.8,44981.2
54160,44971.5
54177,44963.5
54194.8,44957.1
54213,44952.6
54231.7,44949.8
54250.5,44948.9
54634.3,44948.9
Z" /> 
</g>
<g >
</g>
<g >
</g>
<g >
</g>
</g> 
</svg>
