<?xml version="1.0" standalone="no"?>
 <!DOCTYPE svg PUBLIC "-//W3C//DTD SVG 1.1//EN" 
 "http://www.w3.org/Graphics/SVG/1.1/DTD/svg11.dtd"> 
<svg
  xmlns:svg="http://www.w3.org/2000/svg"
  xmlns="http://www.w3.org/2000/svg"
  xmlns:xlink="http://www.w3.org/1999/xlink"
  version="1.1"
  width="29.700220cm" height="21.000720cm" viewBox="0 0 116930 82680">
<title>SVG Picture created as cargadorDeBateriasLitIon-47-F_CrtYd.svg date 2021/12/18 17:13:56 </title>
  <desc>Picture generated by PCBNEW </desc>
<g style="fill:#000000; fill-opacity:1;stroke:#000000; stroke-opacity:1;
stroke-linecap:round; stroke-linejoin:round;"
 transform="translate(0 0) scale(1 1)">
</g>
<g style="fill:#000000; fill-opacity:0.0; 
stroke:#000000; stroke-width:-0.000787402; stroke-opacity:1; 
stroke-linecap:round; stroke-linejoin:round;">
</g>
<g style="fill:#000000; fill-opacity:0.0; 
stroke:#000000; stroke-width:39.3701; stroke-opacity:1; 
stroke-linecap:round; stroke-linejoin:round;">
<path d="M48934 45464
L48934 47433
" />
<path d="M49327 45070
L48934 45464
" />
<path d="M49327 39559
L49327 45070
" />
<path d="M48934 39165
L49327 39559
" />
<path d="M63107 41527
L63107 37196
" />
<path d="M62713 41921
L63107 41527
" />
<path d="M62713 42708
L62713 41921
" />
<path d="M63107 43102
L62713 42708
" />
<path d="M48934 37196
L63107 37196
" />
<path d="M48934 39165
L48934 37196
" />
<path d="M63107 47433
L48934 47433
" />
<path d="M63107 43102
L63107 47433
" />
<path d="M61335 43299
L63304 43299
" />
<path d="M61335 43299
L61335 45267
" />
<path d="M63304 45267
L63304 43299
" />
<path d="M63304 45267
L61335 45267
" />
<path d="M56548 43803
L59776 43803
" />
<path d="M56548 43803
L56548 46480
" />
<path d="M59776 46480
L59776 43803
" />
<path d="M59776 46480
L56548 46480
" />
<path d="M61335 45661
L63304 45661
" />
<path d="M61335 45661
L61335 47629
" />
<path d="M63304 47629
L63304 45661
" />
<path d="M63304 47629
L61335 47629
" />
<path d="M61335 37000
L63304 37000
" />
<path d="M61335 37000
L61335 38968
" />
<path d="M63304 38968
L63304 37000
" />
<path d="M63304 38968
L61335 38968
" />
<path d="M61335 39362
L63304 39362
" />
<path d="M61335 39362
L61335 41330
" />
<path d="M63304 41330
L63304 39362
" />
<path d="M63304 41330
L61335 41330
" />
<path d="M48737 37000
L50705 37000
" />
<path d="M48737 37000
L48737 38968
" />
<path d="M50705 38968
L50705 37000
" />
<path d="M50705 38968
L48737 38968
" />
<path d="M48737 45661
L50705 45661
" />
<path d="M48737 45661
L48737 47629
" />
<path d="M50705 47629
L50705 45661
" />
<path d="M50705 47629
L48737 47629
" />
<path d="M52650 43393
L52650 40559
" />
<path d="M55642 43393
L52650 43393
" />
<path d="M55642 40559
L55642 43393
" />
<path d="M52650 40559
L55642 40559
" />
<path d="M61083 40275
L58753 40275
" />
<path d="M61083 39126
L61083 40275
" />
<path d="M58753 39126
L61083 39126
" />
<path d="M58753 40275
L58753 39126
" />
<path d="M60406 40685
L60406 43015
" />
<path d="M59256 40685
L60406 40685
" />
<path d="M59256 43015
L59256 40685
" />
<path d="M60406 43015
L59256 43015
" />
<path d="M55627 40456
L53296 40456
" />
<path d="M55627 39307
L55627 40456
" />
<path d="M53296 39307
L55627 39307
" />
<path d="M53296 40456
L53296 39307
" />
<path d="M50036 43409
L50036 41078
" />
<path d="M51186 43409
L50036 43409
" />
<path d="M51186 41078
L51186 43409
" />
<path d="M50036 41078
L51186 41078
" />
<path d="M55642 44661
L53312 44661
" />
<path d="M55642 43511
L55642 44661
" />
<path d="M53312 43511
L55642 43511
" />
<path d="M53312 44661
L53312 43511
" />
<path d="M52516 41078
L52516 43409
" />
<path d="M51367 41078
L52516 41078
" />
<path d="M51367 43409
L51367 41078
" />
<path d="M52516 43409
L51367 43409
" />
<path d="M56319 39126
L58650 39126
" />
<path d="M56319 40275
L56319 39126
" />
<path d="M58650 40275
L56319 40275
" />
<path d="M58650 39126
L58650 40275
" />
<path d="M53115 44692
L50784 44692
" />
<path d="M53115 43543
L53115 44692
" />
<path d="M50784 43543
L53115 43543
" />
<path d="M50784 44692
L50784 43543
" />
<path d="M52674 44787
L55005 44787
" />
<path d="M52674 45937
L52674 44787
" />
<path d="M55005 45937
L52674 45937
" />
<path d="M55005 44787
L55005 45937
" />
<g >
</g>
<g >
</g>
<g >
</g>
<g >
</g>
<g >
</g>
<g >
</g>
<g >
</g>
<g >
</g>
<g >
</g>
<g >
</g>
<g >
</g>
<g >
</g>
<g >
</g>
<g >
</g>
<g >
</g>
<g >
</g>
<g >
</g>
<g >
</g>
<g >
</g>
<g >
</g>
</g> 
</svg>
