<?xml version="1.0" standalone="no"?>
 <!DOCTYPE svg PUBLIC "-//W3C//DTD SVG 1.1//EN" 
 "http://www.w3.org/Graphics/SVG/1.1/DTD/svg11.dtd"> 
<svg
  xmlns:svg="http://www.w3.org/2000/svg"
  xmlns="http://www.w3.org/2000/svg"
  xmlns:xlink="http://www.w3.org/1999/xlink"
  version="1.1"
  width="29.700220cm" height="21.000720cm" viewBox="0 0 116930 82680">
<title>SVG Picture created as cargadorDeBateriasLitIon-37-F_SilkS.svg date 2021/12/18 17:13:56 </title>
  <desc>Picture generated by PCBNEW </desc>
<g style="fill:#000000; fill-opacity:1;stroke:#000000; stroke-opacity:1;
stroke-linecap:round; stroke-linejoin:round;"
 transform="translate(0 0) scale(1 1)">
</g>
<g style="fill:#000000; fill-opacity:0.0; 
stroke:#000000; stroke-width:-0.000787402; stroke-opacity:1; 
stroke-linecap:round; stroke-linejoin:round;">
</g>
<g style="fill:#000000; fill-opacity:0.0; 
stroke:#000000; stroke-width:118.11; stroke-opacity:1; 
stroke-linecap:round; stroke-linejoin:round;">
<text x="51493.2" y="38267.8"
textLength="1522.31" font-size="734.908" lengthAdjust="spacingAndGlyphs"
text-anchor="middle" opacity="0">IN-</text>
<path d="M50863 38241
L50863 37690
" />
<path d="M51125 38241
L51125 37690
L51440 38241
L51440 37690
" />
<path d="M51703 38031
L52123 38031
" />
<text x="51579.8" y="46944.9"
textLength="1675.85" font-size="734.908" lengthAdjust="spacingAndGlyphs"
text-anchor="middle" opacity="0">IN+</text>
<path d="M50949 46918
L50949 46367
" />
<path d="M51212 46918
L51212 46367
L51527 46918
L51527 46367
" />
<path d="M51789 46708
L52209 46708
" />
<path d="M51999 46918
L51999 46498
" />
<text x="60351.5" y="46921.3"
textLength="2410.76" font-size="734.908" lengthAdjust="spacingAndGlyphs"
text-anchor="middle" opacity="0">OUT-</text>
<path d="M59459 46343
L59564 46343
L59616 46370
L59669 46422
L59695 46527
L59695 46711
L59669 46816
L59616 46868
L59564 46895
L59459 46895
L59406 46868
L59354 46816
L59327 46711
L59327 46527
L59354 46422
L59406 46370
L59459 46343
" />
<path d="M59931 46343
L59931 46790
L59957 46842
L59984 46868
L60036 46895
L60141 46895
L60194 46868
L60220 46842
L60246 46790
L60246 46343
" />
<path d="M60430 46343
L60745 46343
" />
<path d="M60587 46895
L60587 46343
" />
<path d="M60928 46685
L61348 46685
" />
<g transform="rotate(-90 61138.9 44307.1)">
<text x="61138.9" y="44582.7"
textLength="1387.14" font-size="734.908" lengthAdjust="spacingAndGlyphs"
text-anchor="middle" opacity="0">B-</text>
</g>
<path d="M61099 44608
L61125 44530
L61152 44503
L61204 44477
L61283 44477
L61335 44503
L61361 44530
L61388 44582
L61388 44792
L60837 44792
L60837 44608
L60863 44556
L60889 44530
L60942 44503
L60994 44503
L61047 44530
L61073 44556
L61099 44608
L61099 44792
" />
<path d="M61178 44241
L61178 43821
" />
<text x="60351.5" y="38378"
textLength="2410.76" font-size="734.908" lengthAdjust="spacingAndGlyphs"
text-anchor="middle" opacity="0">OUT+</text>
<path d="M59459 37800
L59564 37800
L59616 37826
L59669 37879
L59695 37984
L59695 38168
L59669 38273
L59616 38325
L59564 38351
L59459 38351
L59406 38325
L59354 38273
L59327 38168
L59327 37984
L59354 37879
L59406 37826
L59459 37800
" />
<path d="M59931 37800
L59931 38246
L59957 38299
L59984 38325
L60036 38351
L60141 38351
L60194 38325
L60220 38299
L60246 38246
L60246 37800
" />
<path d="M60430 37800
L60745 37800
" />
<path d="M60587 38351
L60587 37800
" />
<path d="M60928 38141
L61348 38141
" />
<path d="M61138 38351
L61138 37931
" />
<g transform="rotate(-90 61138.9 40362.3)">
<text x="61138.9" y="40637.9"
textLength="1387.14" font-size="734.908" lengthAdjust="spacingAndGlyphs"
text-anchor="middle" opacity="0">B+</text>
</g>
<path d="M61099 40664
L61125 40585
L61152 40559
L61204 40532
L61283 40532
L61335 40559
L61361 40585
L61388 40637
L61388 40847
L60837 40847
L60837 40664
L60863 40611
L60889 40585
L60942 40559
L60994 40559
L61047 40585
L61073 40611
L61099 40664
L61099 40847
" />
<path d="M61178 40296
L61178 39876
" />
<path d="M61388 40086
L60968 40086
" />
</g>
<g style="fill:#000000; fill-opacity:0.0; 
stroke:#000000; stroke-width:39.3701; stroke-opacity:1; 
stroke-linecap:round; stroke-linejoin:round;">
<path d="M48934 45464
L48934 47433
" />
<path d="M49327 45070
L48934 45464
" />
<path d="M49327 39559
L49327 45070
" />
<path d="M48934 39165
L49327 39559
" />
<path d="M63107 41527
L63107 37196
" />
<path d="M62713 41921
L63107 41527
" />
<path d="M62713 42708
L62713 41921
" />
<path d="M63107 43102
L62713 42708
" />
<path d="M48934 37196
L63107 37196
" />
<path d="M48934 39165
L48934 37196
" />
<path d="M63107 47433
L48934 47433
" />
<path d="M63107 43102
L63107 47433
" />
</g>
<g style="fill:#000000; fill-opacity:0.0; 
stroke:#000000; stroke-width:94.4882; stroke-opacity:1; 
stroke-linecap:round; stroke-linejoin:round;">
<path d="M61571 43535
L63068 43535
" />
<path d="M63068 43535
L63068 45031
" />
<path d="M63068 45031
L61571 45031
" />
<path d="M61571 45031
L61571 43535
" />
<path d="M58831 43881
L56784 43881
" />
<path d="M58831 46401
L57493 46401
" />
<path d="M61571 45897
L63068 45897
" />
<path d="M63068 45897
L63068 47393
" />
<path d="M63068 47393
L61571 47393
" />
<path d="M61571 47393
L61571 45897
" />
<path d="M61571 37236
L63068 37236
" />
<path d="M63068 37236
L63068 38732
" />
<path d="M63068 38732
L61571 38732
" />
<path d="M61571 38732
L61571 37236
" />
<path d="M61571 39598
L63068 39598
" />
<path d="M63068 39598
L63068 41094
" />
<path d="M63068 41094
L61571 41094
" />
<path d="M61571 41094
L61571 39598
" />
<path d="M48973 37236
L50469 37236
" />
<path d="M50469 37236
L50469 38732
" />
<path d="M50469 38732
L48973 38732
" />
<path d="M48973 38732
L48973 37236
" />
<path d="M48973 45897
L50469 45897
" />
<path d="M50469 45897
L50469 47393
" />
<path d="M50469 47393
L48973 47393
" />
<path d="M48973 47393
L48973 45897
" />
<path d="M54855 40708
L52926 40708
" />
<path d="M53438 43244
L54855 43244
" />
<path d="M59790 40102
L60046 40102
" />
<path d="M59790 39299
L60046 39299
" />
<path d="M60233 41978
L60233 41722
" />
<path d="M59430 41978
L59430 41722
" />
<path d="M54333 40283
L54589 40283
" />
<path d="M54333 39480
L54589 39480
" />
<path d="M50209 42115
L50209 42372
" />
<path d="M51012 42115
L51012 42372
" />
<path d="M53308 44665
L55107 44665
" />
<path d="M53308 43507
L53308 44665
" />
<path d="M55107 43507
L53308 43507
" />
<path d="M52343 42372
L52343 42115
" />
<path d="M51540 42372
L51540 42115
" />
<path d="M57613 39299
L57357 39299
" />
<path d="M57613 40102
L57357 40102
" />
<path d="M51821 44519
L52078 44519
" />
<path d="M51821 43716
L52078 43716
" />
<path d="M53967 44960
L53711 44960
" />
<path d="M53967 45763
L53711 45763
" />
<g >
</g>
<g >
</g>
<g >
</g>
<g >
</g>
<g >
</g>
<g >
</g>
<g >
</g>
<g >
</g>
<g >
</g>
<g >
</g>
<g >
</g>
<g >
</g>
<g >
</g>
<g >
</g>
<g >
</g>
<g >
</g>
<g >
</g>
<g >
</g>
<g >
</g>
</g>
<g style="fill:#000000; fill-opacity:0.0; 
stroke:#000000; stroke-width:94.4882; stroke-opacity:1; 
stroke-linecap:round; stroke-linejoin:round;">
</g>
<g style="fill:#000000; fill-opacity:0.0; 
stroke:#000000; stroke-width:118.11; stroke-opacity:1; 
stroke-linecap:round; stroke-linejoin:round;">
<text x="56020.8" y="47039.4"
textLength="1728.35" font-size="1049.87" lengthAdjust="spacingAndGlyphs"
text-anchor="middle" opacity="0">Q1</text>
<path d="M55945 47076
L55870 47039
L55795 46964
L55683 46851
L55608 46814
L55533 46814
" />
<path d="M55570 47001
L55495 46964
L55420 46889
L55383 46739
L55383 46477
L55420 46327
L55495 46252
L55570 46214
L55720 46214
L55795 46252
L55870 46327
L55908 46477
L55908 46739
L55870 46889
L55795 46964
L55720 47001
L55570 47001
" />
<path d="M56658 47001
L56208 47001
" />
<path d="M56433 47001
L56433 46214
L56358 46327
L56283 46402
L56208 46439
" />
<g transform="rotate(-90 56020.8 41921.3)">
<text x="56020.8" y="42236.3"
textLength="1413.39" font-size="839.894" lengthAdjust="spacingAndGlyphs"
text-anchor="middle" opacity="0">U1</text>
</g>
<path d="M55675 42401
L56185 42401
L56245 42371
L56275 42341
L56305 42281
L56305 42161
L56275 42101
L56245 42071
L56185 42041
L55675 42041
" />
<path d="M56305 41411
L56305 41771
" />
<path d="M56305 41591
L55675 41591
L55765 41651
L55825 41711
L55855 41771
" />
<text x="58509" y="38803.2"
textLength="1690.85" font-size="1049.87" lengthAdjust="spacingAndGlyphs"
text-anchor="middle" opacity="0">R4</text>
<path d="M58377 38765
L58115 38390
" />
<path d="M57927 38765
L57927 37978
L58227 37978
L58302 38015
L58340 38053
L58377 38128
L58377 38240
L58340 38315
L58302 38353
L58227 38390
L57927 38390
" />
<path d="M59052 38240
L59052 38765
" />
<path d="M58865 37940
L58677 38503
L59165 38503
" />
<text x="61162.5" y="42858.3"
textLength="1690.85" font-size="1049.87" lengthAdjust="spacingAndGlyphs"
text-anchor="middle" opacity="0">R3</text>
<path d="M61031 42820
L60768 42445
" />
<path d="M60581 42820
L60581 42033
L60881 42033
L60956 42070
L60993 42108
L61031 42183
L61031 42295
L60993 42370
L60956 42408
L60881 42445
L60581 42445
" />
<path d="M61293 42033
L61781 42033
L61518 42333
L61631 42333
L61706 42370
L61743 42408
L61781 42483
L61781 42670
L61743 42745
L61706 42783
L61631 42820
L61406 42820
L61331 42783
L61293 42745
" />
<text x="54461.7" y="39149.7"
textLength="1690.85" font-size="1049.87" lengthAdjust="spacingAndGlyphs"
text-anchor="middle" opacity="0">R2</text>
<path d="M54330 39112
L54068 38737
" />
<path d="M53880 39112
L53880 38324
L54180 38324
L54255 38362
L54292 38399
L54330 38474
L54330 38587
L54292 38662
L54255 38699
L54180 38737
L53880 38737
" />
<path d="M54630 38399
L54667 38362
L54742 38324
L54930 38324
L55005 38362
L55042 38399
L55080 38474
L55080 38549
L55042 38662
L54592 39112
L55080 39112
" />
<g transform="rotate(-90 50658.6 40196.9)">
<text x="50658.6" y="40590.6"
textLength="1690.85" font-size="1049.87" lengthAdjust="spacingAndGlyphs"
text-anchor="middle" opacity="0">R1</text>
</g>
<path d="M51014 40328
L50639 40590
" />
<path d="M51014 40778
L50227 40778
L50227 40478
L50264 40403
L50302 40365
L50377 40328
L50489 40328
L50564 40365
L50602 40403
L50639 40478
L50639 40778
" />
<path d="M51014 39578
L51014 40028
" />
<path d="M51014 39803
L50227 39803
L50339 39878
L50414 39953
L50452 40028
" />
<g transform="rotate(-90 55989.3 44047.3)">
<text x="55989.3" y="44322.9"
textLength="1229.66" font-size="734.908" lengthAdjust="spacingAndGlyphs"
text-anchor="middle" opacity="0">D1</text>
</g>
<path d="M56238 44454
L55687 44454
L55687 44322
L55713 44244
L55766 44191
L55818 44165
L55923 44139
L56002 44139
L56107 44165
L56159 44191
L56212 44244
L56238 44322
L56238 44454
" />
<path d="M56238 43614
L56238 43929
" />
<path d="M56238 43771
L55687 43771
L55766 43824
L55818 43876
L55844 43929
" />
<g transform="rotate(-90 51918.4 40220.5)">
<text x="51918.4" y="40614.2"
textLength="1690.85" font-size="1049.87" lengthAdjust="spacingAndGlyphs"
text-anchor="middle" opacity="0">C4</text>
</g>
<path d="M52199 40351
L52237 40389
L52274 40501
L52274 40576
L52237 40689
L52162 40764
L52087 40801
L51937 40839
L51824 40839
L51674 40801
L51599 40764
L51524 40689
L51487 40576
L51487 40501
L51524 40389
L51562 40351
" />
<path d="M51749 39676
L52274 39676
" />
<path d="M51449 39864
L52012 40051
L52012 39564
" />
<text x="56595.6" y="38874.1"
textLength="1690.85" font-size="1049.87" lengthAdjust="spacingAndGlyphs"
text-anchor="middle" opacity="0">C3</text>
<path d="M56464 38761
L56426 38799
L56314 38836
L56239 38836
L56126 38799
L56051 38724
L56014 38649
L55976 38499
L55976 38386
L56014 38236
L56051 38161
L56126 38086
L56239 38049
L56314 38049
L56426 38086
L56464 38124
" />
<path d="M56726 38049
L57214 38049
L56951 38349
L57064 38349
L57139 38386
L57176 38424
L57214 38499
L57214 38686
L57176 38761
L57139 38799
L57064 38836
L56839 38836
L56764 38799
L56726 38761
" />
<text x="51690.1" y="45858.3"
textLength="1690.85" font-size="1049.87" lengthAdjust="spacingAndGlyphs"
text-anchor="middle" opacity="0">C2</text>
<path d="M51558 45745
L51521 45783
L51408 45820
L51333 45820
L51221 45783
L51146 45708
L51108 45633
L51071 45483
L51071 45370
L51108 45220
L51146 45145
L51221 45070
L51333 45033
L51408 45033
L51521 45070
L51558 45108
" />
<path d="M51858 45108
L51896 45070
L51971 45033
L52158 45033
L52233 45070
L52271 45108
L52308 45183
L52308 45258
L52271 45370
L51821 45820
L52308 45820
" />
<text x="53839.7" y="46881.9"
textLength="1690.85" font-size="1049.87" lengthAdjust="spacingAndGlyphs"
text-anchor="middle" opacity="0">C1</text>
<path d="M53708 46769
L53670 46806
L53558 46844
L53483 46844
L53370 46806
L53295 46731
L53258 46656
L53220 46506
L53220 46394
L53258 46244
L53295 46169
L53370 46094
L53483 46057
L53558 46057
L53670 46094
L53708 46132
" />
<path d="M54458 46844
L54008 46844
" />
<path d="M54233 46844
L54233 46057
L54158 46169
L54083 46244
L54008 46282
" />
<g >
</g>
</g> 
</svg>
