<?xml version="1.0" standalone="no"?>
 <!DOCTYPE svg PUBLIC "-//W3C//DTD SVG 1.1//EN" 
 "http://www.w3.org/Graphics/SVG/1.1/DTD/svg11.dtd"> 
<svg
  xmlns:svg="http://www.w3.org/2000/svg"
  xmlns="http://www.w3.org/2000/svg"
  xmlns:xlink="http://www.w3.org/1999/xlink"
  version="1.1"
  width="29.700220cm" height="21.000720cm" viewBox="0 0 116930 82680">
<title>SVG Picture created as cargadorDeBateriasLitIon-49-F_Fab.svg date 2021/12/18 17:13:56 </title>
  <desc>Picture generated by PCBNEW </desc>
<g style="fill:#000000; fill-opacity:1;stroke:#000000; stroke-opacity:1;
stroke-linecap:round; stroke-linejoin:round;"
 transform="translate(0 0) scale(1 1)">
</g>
<g style="fill:#000000; fill-opacity:0.0; 
stroke:#000000; stroke-width:-0.000787402; stroke-opacity:1; 
stroke-linecap:round; stroke-linejoin:round;">
</g>
<g style="fill:#000000; fill-opacity:0.0; 
stroke:#000000; stroke-width:39.3701; stroke-opacity:1; 
stroke-linecap:round; stroke-linejoin:round;">
<path d="M48934 45464
L48934 47433
" />
<path d="M49327 45070
L48934 45464
" />
<path d="M49327 39559
L49327 45070
" />
<path d="M48934 39165
L49327 39559
" />
<path d="M63107 41527
L63107 37196
" />
<path d="M62713 41921
L63107 41527
" />
<path d="M62713 42708
L62713 41921
" />
<path d="M63107 43102
L62713 42708
" />
<path d="M48934 37196
L63107 37196
" />
<path d="M48934 39165
L48934 37196
" />
<path d="M63107 47433
L48934 47433
" />
<path d="M63107 43102
L63107 47433
" />
</g>
<g style="fill:#000000; fill-opacity:0.0; 
stroke:#000000; stroke-width:78.7402; stroke-opacity:1; 
stroke-linecap:round; stroke-linejoin:round;">
<path d="M56658 42661
L56658 41244
" />
<path d="M59020 42661
L56658 42661
" />
<path d="M59020 41244
L59020 42661
" />
<path d="M56658 41244
L59020 41244
" />
<circle cx="57052.3" cy="42267.8" r="111.355" /> 
</g>
<g style="fill:#000000; fill-opacity:0.0; 
stroke:#000000; stroke-width:94.4882; stroke-opacity:1; 
stroke-linecap:round; stroke-linejoin:round;">
<path d="M57493 46283
L58831 46283
" />
<path d="M58831 46283
L58831 44000
" />
<path d="M58831 44000
L57847 44000
" />
<path d="M57847 44000
L57493 44354
" />
<path d="M57493 44354
L57493 46283
" />
</g>
<g style="fill:#000000; fill-opacity:0.0; 
stroke:#000000; stroke-width:78.7402; stroke-opacity:1; 
stroke-linecap:round; stroke-linejoin:round;">
<path d="M54855 40755
L54855 43196
" />
<path d="M54855 43196
L53438 43196
" />
<path d="M53438 41267
L53438 43196
" />
<path d="M54855 40755
L53949 40755
" />
<path d="M53438 41267
L53949 40755
" />
<path d="M60548 40015
L59288 40015
" />
<path d="M60548 39385
L60548 40015
" />
<path d="M59288 39385
L60548 39385
" />
<path d="M59288 40015
L59288 39385
" />
<path d="M60146 41220
L60146 42480
" />
<path d="M59516 41220
L60146 41220
" />
<path d="M59516 42480
L59516 41220
" />
<path d="M60146 42480
L59516 42480
" />
<path d="M55091 40196
L53831 40196
" />
<path d="M55091 39566
L55091 40196
" />
<path d="M53831 39566
L55091 39566
" />
<path d="M53831 40196
L53831 39566
" />
<path d="M50296 42874
L50296 41614
" />
<path d="M50926 42874
L50296 42874
" />
<path d="M50926 41614
L50926 42874
" />
<path d="M50296 41614
L50926 41614
" />
<path d="M55107 44401
L55107 43771
" />
<path d="M53847 44401
L55107 44401
" />
<path d="M53847 44007
L53847 44401
" />
<path d="M54083 43771
L53847 44007
" />
<path d="M55107 43771
L54083 43771
" />
<path d="M52256 41614
L52256 42874
" />
<path d="M51627 41614
L52256 41614
" />
<path d="M51627 42874
L51627 41614
" />
<path d="M52256 42874
L51627 42874
" />
<path d="M56855 39385
L58115 39385
" />
<path d="M56855 40015
L56855 39385
" />
<path d="M58115 40015
L56855 40015
" />
<path d="M58115 39385
L58115 40015
" />
<path d="M52579 44433
L51319 44433
" />
<path d="M52579 43803
L52579 44433
" />
<path d="M51319 43803
L52579 43803
" />
<path d="M51319 44433
L51319 43803
" />
<path d="M53209 45047
L54469 45047
" />
<path d="M53209 45677
L53209 45047
" />
<path d="M54469 45677
L53209 45677
" />
<path d="M54469 45047
L54469 45677
" />
<g >
</g>
<g >
</g>
<g >
</g>
<g >
</g>
<g >
</g>
<g >
</g>
<g >
</g>
<g >
</g>
<g >
</g>
<g >
</g>
<g >
</g>
<g >
</g>
<g >
</g>
<g >
</g>
<g >
</g>
<g >
</g>
<g >
</g>
<g >
</g>
<g >
</g>
</g>
<g style="fill:#000000; fill-opacity:0.0; 
stroke:#000000; stroke-width:78.7402; stroke-opacity:1; 
stroke-linecap:round; stroke-linejoin:round;">
</g>
<g style="fill:#000000; fill-opacity:0.0; 
stroke:#000000; stroke-width:118.11; stroke-opacity:1; 
stroke-linecap:round; stroke-linejoin:round;">
<text x="62320" y="46055.2"
textLength="1915.82" font-size="1049.87" lengthAdjust="spacingAndGlyphs"
text-anchor="middle" opacity="0">B-</text>
<path d="M61888 45605
L62001 45642
L62038 45680
L62076 45755
L62076 45867
L62038 45942
L62001 45980
L61926 46017
L61626 46017
L61626 45230
L61888 45230
L61963 45267
L62001 45305
L62038 45380
L62038 45455
L62001 45530
L61963 45567
L61888 45605
L61626 45605
" />
<path d="M62413 45717
L63013 45717
" />
<text x="62320" y="43378"
textLength="1503.37" font-size="1049.87" lengthAdjust="spacingAndGlyphs"
text-anchor="middle" opacity="0">J5</text>
<path d="M62057 42553
L62057 43115
L62020 43228
L61945 43303
L61832 43340
L61757 43340
" />
<path d="M62807 42553
L62432 42553
L62394 42928
L62432 42890
L62507 42853
L62694 42853
L62769 42890
L62807 42928
L62844 43003
L62844 43190
L62807 43265
L62769 43303
L62694 43340
L62507 43340
L62432 43303
L62394 43265
" />
</g>
<g style="fill:#000000; fill-opacity:0.0; 
stroke:#000000; stroke-width:29.5276; stroke-opacity:1; 
stroke-linecap:round; stroke-linejoin:round;">
<text x="58390.9" y="42011.9"
textLength="389.764" font-size="157.48" lengthAdjust="spacingAndGlyphs"
text-anchor="middle" opacity="0">U2</text>
<path d="M58300 41888
L58300 41983
L58306 41994
L58312 42000
L58323 42006
L58345 42006
L58357 42000
L58362 41994
L58368 41983
L58368 41888
" />
<path d="M58418 41899
L58424 41893
L58435 41888
L58463 41888
L58475 41893
L58480 41899
L58486 41910
L58486 41921
L58480 41938
L58413 42006
L58486 42006
" />
<text x="57524.7" y="42011.9"
textLength="1056.38" font-size="157.48" lengthAdjust="spacingAndGlyphs"
text-anchor="middle" opacity="0">AP9101CK6</text>
<path d="M57038 41972
L57094 41972
" />
<path d="M57026 42006
L57066 41888
L57105 42006
" />
<path d="M57145 42006
L57145 41888
L57190 41888
L57201 41893
L57206 41899
L57212 41910
L57212 41927
L57206 41938
L57201 41944
L57190 41950
L57145 41950
" />
<path d="M57268 42006
L57291 42006
L57302 42000
L57308 41994
L57319 41978
L57325 41955
L57325 41910
L57319 41899
L57313 41893
L57302 41888
L57280 41888
L57268 41893
L57263 41899
L57257 41910
L57257 41938
L57263 41950
L57268 41955
L57280 41961
L57302 41961
L57313 41955
L57319 41950
L57325 41938
" />
<path d="M57437 42006
L57370 42006
" />
<path d="M57403 42006
L57403 41888
L57392 41905
L57381 41916
L57370 41921
" />
<path d="M57510 41888
L57521 41888
L57533 41893
L57538 41899
L57544 41910
L57550 41933
L57550 41961
L57544 41983
L57538 41994
L57533 42000
L57521 42006
L57510 42006
L57499 42000
L57493 41994
L57488 41983
L57482 41961
L57482 41933
L57488 41910
L57493 41899
L57499 41893
L57510 41888
" />
<path d="M57662 42006
L57595 42006
" />
<path d="M57628 42006
L57628 41888
L57617 41905
L57606 41916
L57595 41921
" />
<path d="M57780 41994
L57774 42000
L57758 42006
L57746 42006
L57729 42000
L57718 41989
L57713 41978
L57707 41955
L57707 41938
L57713 41916
L57718 41905
L57729 41893
L57746 41888
L57758 41888
L57774 41893
L57780 41899
" />
<path d="M57831 42006
L57831 41888
" />
<path d="M57898 42006
L57848 41938
" />
<path d="M57898 41888
L57831 41955
" />
<path d="M57999 41888
L57977 41888
L57966 41893
L57960 41899
L57949 41916
L57943 41938
L57943 41983
L57949 41994
L57954 42000
L57966 42006
L57988 42006
L57999 42000
L58005 41994
L58011 41983
L58011 41955
L58005 41944
L57999 41938
L57988 41933
L57966 41933
L57954 41938
L57949 41944
L57943 41955
" />
</g>
<g style="fill:#000000; fill-opacity:0.0; 
stroke:#000000; stroke-width:118.11; stroke-opacity:1; 
stroke-linecap:round; stroke-linejoin:round;">
<text x="58162.5" y="47504"
textLength="6112.63" font-size="1049.87" lengthAdjust="spacingAndGlyphs"
text-anchor="middle" opacity="0">FDC6401N</text>
<path d="M55575 47054
L55312 47054
" />
<path d="M55312 47466
L55312 46679
L55687 46679
" />
<path d="M55987 47466
L55987 46679
L56175 46679
L56287 46716
L56362 46791
L56400 46866
L56437 47016
L56437 47129
L56400 47279
L56362 47354
L56287 47429
L56175 47466
L55987 47466
" />
<path d="M57225 47391
L57187 47429
L57075 47466
L57000 47466
L56887 47429
L56812 47354
L56775 47279
L56737 47129
L56737 47016
L56775 46866
L56812 46791
L56887 46716
L57000 46679
L57075 46679
L57187 46716
L57225 46754
" />
<path d="M57900 46679
L57750 46679
L57675 46716
L57637 46754
L57562 46866
L57525 47016
L57525 47316
L57562 47391
L57600 47429
L57675 47466
L57825 47466
L57900 47429
L57937 47391
L57975 47316
L57975 47129
L57937 47054
L57900 47016
L57825 46979
L57675 46979
L57600 47016
L57562 47054
L57525 47129
" />
<path d="M58649 46941
L58649 47466
" />
<path d="M58462 46641
L58274 47204
L58762 47204
" />
<path d="M59212 46679
L59287 46679
L59362 46716
L59399 46754
L59437 46829
L59474 46979
L59474 47166
L59437 47316
L59399 47391
L59362 47429
L59287 47466
L59212 47466
L59137 47429
L59099 47391
L59062 47316
L59024 47166
L59024 46979
L59062 46829
L59099 46754
L59137 46716
L59212 46679
" />
<path d="M60224 47466
L59774 47466
" />
<path d="M59999 47466
L59999 46679
L59924 46791
L59849 46866
L59774 46904
" />
<path d="M60562 47466
L60562 46679
L61012 47466
L61012 46679
" />
</g>
<g style="fill:#000000; fill-opacity:0.0; 
stroke:#000000; stroke-width:59.0551; stroke-opacity:1; 
stroke-linecap:round; stroke-linejoin:round;">
<g transform="rotate(-90 58162.5 45141.8)">
<text x="58162.5" y="45338.6"
textLength="940.945" font-size="524.934" lengthAdjust="spacingAndGlyphs"
text-anchor="middle" opacity="0">Q1</text>
</g>
<path d="M58378 45179
L58359 45216
L58321 45254
L58265 45310
L58246 45348
L58246 45385
" />
<path d="M58340 45366
L58321 45404
L58284 45441
L58209 45460
L58078 45460
L58003 45441
L57965 45404
L57946 45366
L57946 45291
L57965 45254
L58003 45216
L58078 45198
L58209 45198
L58284 45216
L58321 45254
L58340 45291
L58340 45366
" />
<path d="M58340 44823
L58340 45048
" />
<path d="M58340 44935
L57946 44935
L58003 44973
L58040 45010
L58059 45048
" />
</g>
<g style="fill:#000000; fill-opacity:0.0; 
stroke:#000000; stroke-width:118.11; stroke-opacity:1; 
stroke-linecap:round; stroke-linejoin:round;">
<text x="62320" y="48417.4"
textLength="3301.37" font-size="1049.87" lengthAdjust="spacingAndGlyphs"
text-anchor="middle" opacity="0">OUT-</text>
<path d="M61045 47592
L61195 47592
L61270 47629
L61345 47704
L61382 47854
L61382 48117
L61345 48267
L61270 48342
L61195 48379
L61045 48379
L60970 48342
L60895 48267
L60857 48117
L60857 47854
L60895 47704
L60970 47629
L61045 47592
" />
<path d="M61720 47592
L61720 48229
L61757 48304
L61795 48342
L61870 48379
L62020 48379
L62095 48342
L62132 48304
L62170 48229
L62170 47592
" />
<path d="M62432 47592
L62882 47592
" />
<path d="M62657 48379
L62657 47592
" />
<path d="M63144 48079
L63744 48079
" />
<text x="62320" y="45740.2"
textLength="1503.37" font-size="1049.87" lengthAdjust="spacingAndGlyphs"
text-anchor="middle" opacity="0">J6</text>
<path d="M62057 44915
L62057 45477
L62020 45590
L61945 45665
L61832 45702
L61757 45702
" />
<path d="M62769 44915
L62619 44915
L62544 44952
L62507 44990
L62432 45102
L62394 45252
L62394 45552
L62432 45627
L62469 45665
L62544 45702
L62694 45702
L62769 45665
L62807 45627
L62844 45552
L62844 45365
L62807 45290
L62769 45252
L62694 45215
L62544 45215
L62469 45252
L62432 45290
L62394 45365
" />
<text x="62320" y="39756"
textLength="1915.82" font-size="1049.87" lengthAdjust="spacingAndGlyphs"
text-anchor="middle" opacity="0">B+</text>
<path d="M61888 39306
L62001 39343
L62038 39381
L62076 39456
L62076 39568
L62038 39643
L62001 39680
L61926 39718
L61626 39718
L61626 38931
L61888 38931
L61963 38968
L62001 39006
L62038 39081
L62038 39156
L62001 39231
L61963 39268
L61888 39306
L61626 39306
" />
<path d="M62413 39418
L63013 39418
" />
<path d="M62713 39718
L62713 39118
" />
<text x="62320" y="37078.8"
textLength="1503.37" font-size="1049.87" lengthAdjust="spacingAndGlyphs"
text-anchor="middle" opacity="0">J4</text>
<path d="M62057 36253
L62057 36816
L62020 36928
L61945 37003
L61832 37041
L61757 37041
" />
<path d="M62769 36516
L62769 37041
" />
<path d="M62582 36216
L62394 36778
L62882 36778
" />
<text x="62320" y="42118.2"
textLength="3378.14" font-size="1049.87" lengthAdjust="spacingAndGlyphs"
text-anchor="middle" opacity="0">OUT+</text>
<path d="M61045 41293
L61195 41293
L61270 41330
L61345 41405
L61382 41555
L61382 41818
L61345 41968
L61270 42043
L61195 42080
L61045 42080
L60970 42043
L60895 41968
L60857 41818
L60857 41555
L60895 41405
L60970 41330
L61045 41293
" />
<path d="M61720 41293
L61720 41930
L61757 42005
L61795 42043
L61870 42080
L62020 42080
L62095 42043
L62132 42005
L62170 41930
L62170 41293
" />
<path d="M62432 41293
L62882 41293
" />
<path d="M62657 42080
L62657 41293
" />
<path d="M63144 41780
L63744 41780
" />
<path d="M63444 42080
L63444 41480
" />
<text x="62320" y="39441"
textLength="1503.37" font-size="1049.87" lengthAdjust="spacingAndGlyphs"
text-anchor="middle" opacity="0">J3</text>
<path d="M62057 38616
L62057 39178
L62020 39291
L61945 39366
L61832 39403
L61757 39403
" />
<path d="M62357 38616
L62844 38616
L62582 38916
L62694 38916
L62769 38953
L62807 38991
L62844 39066
L62844 39253
L62807 39328
L62769 39366
L62694 39403
L62469 39403
L62394 39366
L62357 39328
" />
<text x="49721.6" y="39756"
textLength="2328.27" font-size="1049.87" lengthAdjust="spacingAndGlyphs"
text-anchor="middle" opacity="0">IN-</text>
<path d="M48821 39718
L48821 38931
" />
<path d="M49196 39718
L49196 38931
L49646 39718
L49646 38931
" />
<path d="M50021 39418
L50621 39418
" />
<text x="49721.6" y="37078.8"
textLength="1503.37" font-size="1049.87" lengthAdjust="spacingAndGlyphs"
text-anchor="middle" opacity="0">J2</text>
<path d="M49459 36253
L49459 36816
L49421 36928
L49346 37003
L49234 37041
L49159 37041
" />
<path d="M49796 36328
L49834 36291
L49909 36253
L50096 36253
L50171 36291
L50209 36328
L50246 36403
L50246 36478
L50209 36591
L49759 37041
L50246 37041
" />
<text x="49721.6" y="48417.4"
textLength="2328.27" font-size="1049.87" lengthAdjust="spacingAndGlyphs"
text-anchor="middle" opacity="0">IN+</text>
<path d="M48821 48379
L48821 47592
" />
<path d="M49196 48379
L49196 47592
L49646 48379
L49646 47592
" />
<path d="M50021 48079
L50621 48079
" />
<path d="M50321 48379
L50321 47779
" />
<text x="49721.6" y="45740.2"
textLength="1503.37" font-size="1049.87" lengthAdjust="spacingAndGlyphs"
text-anchor="middle" opacity="0">J1</text>
<path d="M49459 44915
L49459 45477
L49421 45590
L49346 45665
L49234 45702
L49159 45702
" />
<path d="M50246 45702
L49796 45702
" />
<path d="M50021 45702
L50021 44915
L49946 45027
L49871 45102
L49796 45140
" />
<text x="54146.8" y="44653.6"
textLength="6377.77" font-size="1049.87" lengthAdjust="spacingAndGlyphs"
text-anchor="middle" opacity="0">MCP73831</text>
<path d="M51222 44616
L51222 43828
L51484 44391
L51747 43828
L51747 44616
" />
<path d="M52571 44541
L52534 44578
L52421 44616
L52346 44616
L52234 44578
L52159 44503
L52122 44428
L52084 44278
L52084 44166
L52122 44016
L52159 43941
L52234 43866
L52346 43828
L52421 43828
L52534 43866
L52571 43903
" />
<path d="M52909 44616
L52909 43828
L53209 43828
L53284 43866
L53321 43903
L53359 43978
L53359 44091
L53321 44166
L53284 44203
L53209 44241
L52909 44241
" />
<path d="M53621 43828
L54146 43828
L53809 44616
" />
<path d="M54371 43828
L54859 43828
L54596 44128
L54709 44128
L54784 44166
L54821 44203
L54859 44278
L54859 44466
L54821 44541
L54784 44578
L54709 44616
L54484 44616
L54409 44578
L54371 44541
" />
<path d="M55309 44166
L55234 44128
L55196 44091
L55159 44016
L55159 43978
L55196 43903
L55234 43866
L55309 43828
L55459 43828
L55534 43866
L55571 43903
L55609 43978
L55609 44016
L55571 44091
L55534 44128
L55459 44166
L55309 44166
L55234 44203
L55196 44241
L55159 44316
L55159 44466
L55196 44541
L55234 44578
L55309 44616
L55459 44616
L55534 44578
L55571 44541
L55609 44466
L55609 44316
L55571 44241
L55534 44203
L55459 44166
" />
<path d="M55871 43828
L56358 43828
L56096 44128
L56209 44128
L56283 44166
L56321 44203
L56358 44278
L56358 44466
L56321 44541
L56283 44578
L56209 44616
L55984 44616
L55909 44578
L55871 44541
" />
<path d="M57108 44616
L56658 44616
" />
<path d="M56883 44616
L56883 43828
L56808 43941
L56733 44016
L56658 44053
" />
</g>
<g style="fill:#000000; fill-opacity:0.0; 
stroke:#000000; stroke-width:59.0551; stroke-opacity:1; 
stroke-linecap:round; stroke-linejoin:round;">
<g transform="rotate(-90 54146.8 41976.4)">
<text x="54146.8" y="42173.3"
textLength="940.945" font-size="524.934" lengthAdjust="spacingAndGlyphs"
text-anchor="middle" opacity="0">U1</text>
</g>
<path d="M53931 42276
L54249 42276
L54287 42257
L54306 42238
L54324 42201
L54324 42126
L54306 42088
L54287 42070
L54249 42051
L53931 42051
" />
<path d="M54324 41657
L54324 41882
" />
<path d="M54324 41770
L53931 41770
L53987 41807
L54024 41845
L54043 41882
" />
</g>
<g style="fill:#000000; fill-opacity:0.0; 
stroke:#000000; stroke-width:118.11; stroke-opacity:1; 
stroke-linecap:round; stroke-linejoin:round;">
<text x="59918.4" y="41220.5"
textLength="2326.49" font-size="1049.87" lengthAdjust="spacingAndGlyphs"
text-anchor="middle" opacity="0">330</text>
<path d="M58906 40395
L59393 40395
L59131 40695
L59243 40695
L59318 40733
L59355 40770
L59393 40845
L59393 41033
L59355 41108
L59318 41145
L59243 41183
L59018 41183
L58943 41145
L58906 41108
" />
<path d="M59655 40395
L60143 40395
L59880 40695
L59993 40695
L60068 40733
L60105 40770
L60143 40845
L60143 41033
L60105 41108
L60068 41145
L59993 41183
L59768 41183
L59693 41145
L59655 41108
" />
<path d="M60630 40395
L60705 40395
L60780 40433
L60818 40470
L60855 40545
L60893 40695
L60893 40883
L60855 41033
L60818 41108
L60780 41145
L60705 41183
L60630 41183
L60555 41145
L60518 41108
L60480 41033
L60443 40883
L60443 40695
L60480 40545
L60518 40470
L60555 40433
L60630 40395
" />
</g>
<g style="fill:#000000; fill-opacity:0.0; 
stroke:#000000; stroke-width:47.2441; stroke-opacity:1; 
stroke-linecap:round; stroke-linejoin:round;">
<text x="59918.4" y="39858.3"
textLength="768.466" font-size="419.947" lengthAdjust="spacingAndGlyphs"
text-anchor="middle" opacity="0">R4</text>
<path d="M59865 39843
L59760 39693
" />
<path d="M59685 39843
L59685 39528
L59805 39528
L59835 39543
L59850 39558
L59865 39588
L59865 39633
L59850 39663
L59835 39678
L59805 39693
L59685 39693
" />
<path d="M60135 39633
L60135 39843
" />
<path d="M60060 39513
L59985 39738
L60180 39738
" />
</g>
<g style="fill:#000000; fill-opacity:0.0; 
stroke:#000000; stroke-width:118.11; stroke-opacity:1; 
stroke-linecap:round; stroke-linejoin:round;">
<g transform="rotate(-90 60957.8 41850.5)">
<text x="60957.8" y="42244.2"
textLength="2723.58" font-size="1049.87" lengthAdjust="spacingAndGlyphs"
text-anchor="middle" opacity="0">2.7K</text>
</g>
<path d="M60601 43031
L60564 42994
L60526 42919
L60526 42731
L60564 42656
L60601 42619
L60676 42581
L60751 42581
L60864 42619
L61313 43069
L61313 42581
" />
<path d="M61238 42244
L61276 42206
L61313 42244
L61276 42281
L61238 42244
L61313 42244
" />
<path d="M60526 41944
L60526 41419
L61313 41756
" />
<path d="M61313 41119
L60526 41119
" />
<path d="M61313 40669
L60864 41006
" />
<path d="M60526 40669
L60976 41119
" />
</g>
<g style="fill:#000000; fill-opacity:0.0; 
stroke:#000000; stroke-width:47.2441; stroke-opacity:1; 
stroke-linecap:round; stroke-linejoin:round;">
<g transform="rotate(-90 59831.8 41850.5)">
<text x="59831.8" y="42007.9"
textLength="768.466" font-size="419.947" lengthAdjust="spacingAndGlyphs"
text-anchor="middle" opacity="0">R3</text>
</g>
<path d="M59974 41902
L59824 42007
" />
<path d="M59974 42082
L59659 42082
L59659 41962
L59674 41932
L59689 41917
L59719 41902
L59764 41902
L59794 41917
L59809 41932
L59824 41962
L59824 42082
" />
<path d="M59659 41797
L59659 41602
L59779 41707
L59779 41662
L59794 41632
L59809 41617
L59839 41602
L59914 41602
L59944 41617
L59959 41632
L59974 41662
L59974 41752
L59959 41782
L59944 41797
" />
</g>
<g style="fill:#000000; fill-opacity:0.0; 
stroke:#000000; stroke-width:118.11; stroke-opacity:1; 
stroke-linecap:round; stroke-linejoin:round;">
<text x="54461.7" y="41401.6"
textLength="1598.73" font-size="1049.87" lengthAdjust="spacingAndGlyphs"
text-anchor="middle" opacity="0">2K</text>
<path d="M53843 40651
L53880 40614
L53955 40576
L54143 40576
L54217 40614
L54255 40651
L54292 40726
L54292 40801
L54255 40914
L53805 41364
L54292 41364
" />
<path d="M54630 41364
L54630 40576
" />
<path d="M55080 41364
L54742 40914
" />
<path d="M55080 40576
L54630 41026
" />
</g>
<g style="fill:#000000; fill-opacity:0.0; 
stroke:#000000; stroke-width:47.2441; stroke-opacity:1; 
stroke-linecap:round; stroke-linejoin:round;">
<text x="54461.7" y="40039.4"
textLength="768.466" font-size="419.947" lengthAdjust="spacingAndGlyphs"
text-anchor="middle" opacity="0">R2</text>
<path d="M54409 40024
L54304 39874
" />
<path d="M54229 40024
L54229 39709
L54349 39709
L54379 39724
L54394 39739
L54409 39769
L54409 39814
L54394 39844
L54379 39859
L54349 39874
L54229 39874
" />
<path d="M54529 39739
L54544 39724
L54574 39709
L54649 39709
L54679 39724
L54694 39739
L54709 39769
L54709 39799
L54694 39844
L54514 40024
L54709 40024
" />
</g>
<g style="fill:#000000; fill-opacity:0.0; 
stroke:#000000; stroke-width:118.11; stroke-opacity:1; 
stroke-linecap:round; stroke-linejoin:round;">
<g transform="rotate(-90 49485.3 42244.2)">
<text x="49485.3" y="42637.9"
textLength="2311.14" font-size="1049.87" lengthAdjust="spacingAndGlyphs"
text-anchor="middle" opacity="0">470</text>
</g>
<path d="M49316 42844
L49841 42844
" />
<path d="M49016 43031
L49579 43219
L49579 42731
" />
<path d="M49054 42506
L49054 41981
L49841 42319
" />
<path d="M49054 41531
L49054 41456
L49091 41381
L49129 41344
L49204 41306
L49354 41269
L49541 41269
L49691 41306
L49766 41344
L49804 41381
L49841 41456
L49841 41531
L49804 41606
L49766 41644
L49691 41681
L49541 41719
L49354 41719
L49204 41681
L49129 41644
L49091 41606
L49054 41531
" />
</g>
<g style="fill:#000000; fill-opacity:0.0; 
stroke:#000000; stroke-width:47.2441; stroke-opacity:1; 
stroke-linecap:round; stroke-linejoin:round;">
<g transform="rotate(-90 50611.3 42244.2)">
<text x="50611.3" y="42401.6"
textLength="768.466" font-size="419.947" lengthAdjust="spacingAndGlyphs"
text-anchor="middle" opacity="0">R1</text>
</g>
<path d="M50753 42296
L50603 42401
" />
<path d="M50753 42476
L50438 42476
L50438 42356
L50453 42326
L50468 42311
L50498 42296
L50543 42296
L50573 42311
L50588 42326
L50603 42356
L50603 42476
" />
<path d="M50753 41996
L50753 42176
" />
<path d="M50753 42086
L50438 42086
L50483 42116
L50513 42146
L50528 42176
" />
</g>
<g style="fill:#000000; fill-opacity:0.0; 
stroke:#000000; stroke-width:118.11; stroke-opacity:1; 
stroke-linecap:round; stroke-linejoin:round;">
<text x="54477.5" y="45606.4"
textLength="2686.09" font-size="1049.87" lengthAdjust="spacingAndGlyphs"
text-anchor="middle" opacity="0">STAT</text>
<path d="M53315 45531
L53427 45568
L53615 45568
L53690 45531
L53727 45493
L53765 45418
L53765 45343
L53727 45268
L53690 45231
L53615 45193
L53465 45156
L53390 45118
L53352 45081
L53315 45006
L53315 44931
L53352 44856
L53390 44818
L53465 44781
L53652 44781
L53765 44818
" />
<path d="M53990 44781
L54439 44781
" />
<path d="M54214 45568
L54214 44781
" />
<path d="M54664 45343
L55039 45343
" />
<path d="M54589 45568
L54852 44781
L55114 45568
" />
<path d="M55264 44781
L55714 44781
" />
<path d="M55489 45568
L55489 44781
" />
</g>
<g style="fill:#000000; fill-opacity:0.0; 
stroke:#000000; stroke-width:47.2441; stroke-opacity:1; 
stroke-linecap:round; stroke-linejoin:round;">
<text x="54477.5" y="44244.2"
textLength="768.466" font-size="419.947" lengthAdjust="spacingAndGlyphs"
text-anchor="middle" opacity="0">D1</text>
<path d="M54244 44229
L54244 43914
L54319 43914
L54364 43929
L54394 43959
L54409 43989
L54424 44049
L54424 44094
L54409 44154
L54394 44184
L54364 44214
L54319 44229
L54244 44229
" />
<path d="M54724 44229
L54544 44229
" />
<path d="M54634 44229
L54634 43914
L54604 43959
L54574 43989
L54544 44004
" />
</g>
<g style="fill:#000000; fill-opacity:0.0; 
stroke:#000000; stroke-width:118.11; stroke-opacity:1; 
stroke-linecap:round; stroke-linejoin:round;">
<g transform="rotate(-90 53068 42244.2)">
<text x="53068" y="42637.9"
textLength="3698.46" font-size="1049.87" lengthAdjust="spacingAndGlyphs"
text-anchor="middle" opacity="0">100nF</text>
</g>
<path d="M53424 43462
L53424 43912
" />
<path d="M53424 43687
L52636 43687
L52749 43762
L52824 43837
L52861 43912
" />
<path d="M52636 42975
L52636 42900
L52674 42825
L52711 42787
L52786 42750
L52936 42712
L53124 42712
L53274 42750
L53349 42787
L53386 42825
L53424 42900
L53424 42975
L53386 43050
L53349 43087
L53274 43125
L53124 43162
L52936 43162
L52786 43125
L52711 43087
L52674 43050
L52636 42975
" />
<path d="M52636 42225
L52636 42150
L52674 42075
L52711 42037
L52786 42000
L52936 41962
L53124 41962
L53274 42000
L53349 42037
L53386 42075
L53424 42150
L53424 42225
L53386 42300
L53349 42337
L53274 42375
L53124 42412
L52936 42412
L52786 42375
L52711 42337
L52674 42300
L52636 42225
" />
<path d="M52899 41625
L53424 41625
" />
<path d="M52974 41625
L52936 41587
L52899 41512
L52899 41400
L52936 41325
L53011 41288
L53424 41288
" />
<path d="M53011 40650
L53011 40913
" />
<path d="M53424 40913
L52636 40913
L52636 40538
" />
</g>
<g style="fill:#000000; fill-opacity:0.0; 
stroke:#000000; stroke-width:47.2441; stroke-opacity:1; 
stroke-linecap:round; stroke-linejoin:round;">
<g transform="rotate(-90 51942 42244.2)">
<text x="51942" y="42401.6"
textLength="768.466" font-size="419.947" lengthAdjust="spacingAndGlyphs"
text-anchor="middle" opacity="0">C4</text>
</g>
<path d="M52054 42296
L52069 42311
L52084 42356
L52084 42386
L52069 42431
L52039 42461
L52009 42476
L51949 42491
L51904 42491
L51844 42476
L51814 42461
L51784 42431
L51769 42386
L51769 42356
L51784 42311
L51799 42296
" />
<path d="M51874 42026
L52084 42026
" />
<path d="M51754 42101
L51979 42176
L51979 41981
" />
</g>
<g style="fill:#000000; fill-opacity:0.0; 
stroke:#000000; stroke-width:118.11; stroke-opacity:1; 
stroke-linecap:round; stroke-linejoin:round;">
<text x="57485.3" y="38968.6"
textLength="3698.46" font-size="1049.87" lengthAdjust="spacingAndGlyphs"
text-anchor="middle" opacity="0">100nF</text>
<path d="M56266 38931
L55816 38931
" />
<path d="M56041 38931
L56041 38143
L55966 38256
L55891 38331
L55816 38368
" />
<path d="M56754 38143
L56829 38143
L56904 38181
L56941 38218
L56979 38293
L57016 38443
L57016 38631
L56979 38781
L56941 38856
L56904 38893
L56829 38931
L56754 38931
L56679 38893
L56641 38856
L56604 38781
L56566 38631
L56566 38443
L56604 38293
L56641 38218
L56679 38181
L56754 38143
" />
<path d="M57504 38143
L57579 38143
L57654 38181
L57691 38218
L57729 38293
L57766 38443
L57766 38631
L57729 38781
L57691 38856
L57654 38893
L57579 38931
L57504 38931
L57429 38893
L57391 38856
L57354 38781
L57316 38631
L57316 38443
L57354 38293
L57391 38218
L57429 38181
L57504 38143
" />
<path d="M58104 38406
L58104 38931
" />
<path d="M58104 38481
L58141 38443
L58216 38406
L58328 38406
L58403 38443
L58441 38518
L58441 38931
" />
<path d="M59078 38518
L58816 38518
" />
<path d="M58816 38931
L58816 38143
L59191 38143
" />
</g>
<g style="fill:#000000; fill-opacity:0.0; 
stroke:#000000; stroke-width:47.2441; stroke-opacity:1; 
stroke-linecap:round; stroke-linejoin:round;">
<text x="57485.3" y="39858.3"
textLength="768.466" font-size="419.947" lengthAdjust="spacingAndGlyphs"
text-anchor="middle" opacity="0">C3</text>
<path d="M57432 39813
L57417 39828
L57372 39843
L57342 39843
L57297 39828
L57267 39798
L57252 39768
L57237 39708
L57237 39663
L57252 39603
L57267 39573
L57297 39543
L57342 39528
L57372 39528
L57417 39543
L57432 39558
" />
<path d="M57537 39528
L57732 39528
L57627 39648
L57672 39648
L57702 39663
L57717 39678
L57732 39708
L57732 39783
L57717 39813
L57702 39828
L57672 39843
L57582 39843
L57552 39828
L57537 39813
" />
</g>
<g style="fill:#000000; fill-opacity:0.0; 
stroke:#000000; stroke-width:118.11; stroke-opacity:1; 
stroke-linecap:round; stroke-linejoin:round;">
<text x="51949.9" y="45637.9"
textLength="3323.51" font-size="1049.87" lengthAdjust="spacingAndGlyphs"
text-anchor="middle" opacity="0">4.7uF</text>
<path d="M50843 45075
L50843 45600
" />
<path d="M50656 44775
L50468 45337
L50956 45337
" />
<path d="M51256 45525
L51293 45562
L51256 45600
L51218 45562
L51256 45525
L51256 45600
" />
<path d="M51556 44812
L52081 44812
L51743 45600
" />
<path d="M52718 45075
L52718 45600
" />
<path d="M52381 45075
L52381 45487
L52418 45562
L52493 45600
L52606 45600
L52681 45562
L52718 45525
" />
<path d="M53355 45187
L53093 45187
" />
<path d="M53093 45600
L53093 44812
L53468 44812
" />
</g>
<g style="fill:#000000; fill-opacity:0.0; 
stroke:#000000; stroke-width:47.2441; stroke-opacity:1; 
stroke-linecap:round; stroke-linejoin:round;">
<text x="51949.9" y="44275.7"
textLength="768.466" font-size="419.947" lengthAdjust="spacingAndGlyphs"
text-anchor="middle" opacity="0">C2</text>
<path d="M51897 44230
L51882 44245
L51837 44260
L51807 44260
L51762 44245
L51732 44215
L51717 44185
L51702 44125
L51702 44080
L51717 44020
L51732 43990
L51762 43960
L51807 43945
L51837 43945
L51882 43960
L51897 43975
" />
<path d="M52017 43975
L52032 43960
L52062 43945
L52137 43945
L52167 43960
L52182 43975
L52197 44005
L52197 44035
L52182 44080
L52002 44260
L52197 44260
" />
</g>
<g style="fill:#000000; fill-opacity:0.0; 
stroke:#000000; stroke-width:118.11; stroke-opacity:1; 
stroke-linecap:round; stroke-linejoin:round;">
<text x="53839.7" y="44630"
textLength="3323.51" font-size="1049.87" lengthAdjust="spacingAndGlyphs"
text-anchor="middle" opacity="0">4.7uF</text>
<path d="M52733 44067
L52733 44592
" />
<path d="M52546 43767
L52358 44330
L52846 44330
" />
<path d="M53146 44517
L53183 44554
L53146 44592
L53108 44554
L53146 44517
L53146 44592
" />
<path d="M53445 43805
L53970 43805
L53633 44592
" />
<path d="M54608 44067
L54608 44592
" />
<path d="M54270 44067
L54270 44479
L54308 44554
L54383 44592
L54495 44592
L54570 44554
L54608 44517
" />
<path d="M55245 44180
L54983 44180
" />
<path d="M54983 44592
L54983 43805
L55358 43805
" />
</g>
<g style="fill:#000000; fill-opacity:0.0; 
stroke:#000000; stroke-width:47.2441; stroke-opacity:1; 
stroke-linecap:round; stroke-linejoin:round;">
<text x="53839.7" y="45519.7"
textLength="768.466" font-size="419.947" lengthAdjust="spacingAndGlyphs"
text-anchor="middle" opacity="0">C1</text>
<path d="M53787 45474
L53772 45489
L53727 45504
L53697 45504
L53652 45489
L53622 45459
L53607 45429
L53592 45369
L53592 45324
L53607 45264
L53622 45234
L53652 45204
L53697 45189
L53727 45189
L53772 45204
L53787 45219
" />
<path d="M54087 45504
L53907 45504
" />
<path d="M53997 45504
L53997 45189
L53967 45234
L53937 45264
L53907 45279
" />
<g >
</g>
</g> 
</svg>
