<?xml version="1.0" standalone="no"?>
 <!DOCTYPE svg PUBLIC "-//W3C//DTD SVG 1.1//EN" 
 "http://www.w3.org/Graphics/SVG/1.1/DTD/svg11.dtd"> 
<svg
  xmlns:svg="http://www.w3.org/2000/svg"
  xmlns="http://www.w3.org/2000/svg"
  xmlns:xlink="http://www.w3.org/1999/xlink"
  version="1.1"
  width="29.700220cm" height="21.000720cm" viewBox="0 0 116930 82680">
<title>SVG Picture created as cargadorDeBateriasLitIon-00-F_Cu.svg date 2021/12/18 17:13:56 </title>
  <desc>Picture generated by PCBNEW </desc>
<g style="fill:#000000; fill-opacity:1;stroke:#000000; stroke-opacity:1;
stroke-linecap:round; stroke-linejoin:round;"
 transform="translate(0 0) scale(1 1)">
</g>
<g style="fill:#000000; fill-opacity:0.0; 
stroke:#000000; stroke-width:-0.000787402; stroke-opacity:1; 
stroke-linecap:round; stroke-linejoin:round;">
</g>
<g style="fill:#000000; fill-opacity:0.0; 
stroke:#000000; stroke-width:39.3701; stroke-opacity:1; 
stroke-linecap:round; stroke-linejoin:round;">
<path d="M48934 45464
L48934 47433
" />
<path d="M49327 45070
L48934 45464
" />
<path d="M49327 39559
L49327 45070
" />
<path d="M48934 39165
L49327 39559
" />
<path d="M63107 41527
L63107 37196
" />
<path d="M62713 41921
L63107 41527
" />
<path d="M62713 42708
L62713 41921
" />
<path d="M63107 43102
L62713 42708
" />
<path d="M48934 37196
L63107 37196
" />
<path d="M48934 39165
L48934 37196
" />
<path d="M63107 47433
L48934 47433
" />
<path d="M63107 43102
L63107 47433
" />
<g >
</g>
<g >
</g>
<g style="fill:#000000; fill-opacity:0.0; 
stroke:#000000; stroke-width:39.3701; stroke-opacity:1; 
stroke-linecap:round; stroke-linejoin:round;">
</g>
<g style="fill:#000000; fill-opacity:0.0; 
stroke:#000000; stroke-width:0; stroke-opacity:1; 
stroke-linecap:round; stroke-linejoin:round;">
</g>
<g style="fill:#000000; fill-opacity:1.0; 
stroke:#000000; stroke-width:0; stroke-opacity:1; 
stroke-linecap:round; stroke-linejoin:round;">
<path style="fill:#000000; fill-opacity:1.0; 
stroke:#000000; stroke-width:0; stroke-opacity:1; 
stroke-linecap:round; stroke-linejoin:round;fill-rule:evenodd;"
d="M 61729.4,44874.1
61729.4,43693
62910.5,43693
62910.5,44874.1
Z" /> 
</g>
<g >
</g>
<g style="fill:#000000; fill-opacity:1.0; 
stroke:#000000; stroke-width:0; stroke-opacity:1; 
stroke-linecap:round; stroke-linejoin:round;">
<path style="fill:#000000; fill-opacity:1.0; 
stroke:#000000; stroke-width:0; stroke-opacity:1; 
stroke-linecap:round; stroke-linejoin:round;fill-rule:evenodd;"
d="M 56875.1,43291.4
56875.1,42504
57308.2,42504
57308.2,43291.4
Z" /> 
<path style="fill:#000000; fill-opacity:1.0; 
stroke:#000000; stroke-width:0; stroke-opacity:1; 
stroke-linecap:round; stroke-linejoin:round;fill-rule:evenodd;"
d="M 57623.1,43291.4
57623.1,42504
58056.2,42504
58056.2,43291.4
Z" /> 
<path style="fill:#000000; fill-opacity:1.0; 
stroke:#000000; stroke-width:0; stroke-opacity:1; 
stroke-linecap:round; stroke-linejoin:round;fill-rule:evenodd;"
d="M 58371.2,43291.4
58371.2,42504
58804.2,42504
58804.2,43291.4
Z" /> 
<path style="fill:#000000; fill-opacity:1.0; 
stroke:#000000; stroke-width:0; stroke-opacity:1; 
stroke-linecap:round; stroke-linejoin:round;fill-rule:evenodd;"
d="M 58371.2,41401.6
58371.2,40614.2
58804.2,40614.2
58804.2,41401.6
Z" /> 
<path style="fill:#000000; fill-opacity:1.0; 
stroke:#000000; stroke-width:0; stroke-opacity:1; 
stroke-linecap:round; stroke-linejoin:round;fill-rule:evenodd;"
d="M 57623.1,41401.6
57623.1,40614.2
58056.2,40614.2
58056.2,41401.6
Z" /> 
<path style="fill:#000000; fill-opacity:1.0; 
stroke:#000000; stroke-width:0; stroke-opacity:1; 
stroke-linecap:round; stroke-linejoin:round;fill-rule:evenodd;"
d="M 56875.1,41401.6
56875.1,40614.2
57308.2,40614.2
57308.2,41401.6
Z" /> 
</g>
<g >
</g>
<g style="fill:#000000; fill-opacity:1.0; 
stroke:#000000; stroke-width:0; stroke-opacity:1; 
stroke-linecap:round; stroke-linejoin:round;">
<path style="fill:#000000; fill-opacity:1.0; 
stroke:#000000; stroke-width:0; stroke-opacity:1; 
stroke-linecap:round; stroke-linejoin:round;fill-rule:evenodd;"
d="M 58792.4,45417.4
58792.4,44866.2
59579.8,44866.2
59579.8,45417.4
Z" /> 
<path style="fill:#000000; fill-opacity:1.0; 
stroke:#000000; stroke-width:0; stroke-opacity:1; 
stroke-linecap:round; stroke-linejoin:round;fill-rule:evenodd;"
d="M 58792.4,44669.4
58792.4,44118.2
59579.8,44118.2
59579.8,44669.4
Z" /> 
<path style="fill:#000000; fill-opacity:1.0; 
stroke:#000000; stroke-width:0; stroke-opacity:1; 
stroke-linecap:round; stroke-linejoin:round;fill-rule:evenodd;"
d="M 58792.4,46165.4
58792.4,45614.2
59579.8,45614.2
59579.8,46165.4
Z" /> 
<path style="fill:#000000; fill-opacity:1.0; 
stroke:#000000; stroke-width:0; stroke-opacity:1; 
stroke-linecap:round; stroke-linejoin:round;fill-rule:evenodd;"
d="M 56745.2,46165.4
56745.2,45614.2
57532.6,45614.2
57532.6,46165.4
Z" /> 
<path style="fill:#000000; fill-opacity:1.0; 
stroke:#000000; stroke-width:0; stroke-opacity:1; 
stroke-linecap:round; stroke-linejoin:round;fill-rule:evenodd;"
d="M 56745.2,45417.4
56745.2,44866.2
57532.6,44866.2
57532.6,45417.4
Z" /> 
<path style="fill:#000000; fill-opacity:1.0; 
stroke:#000000; stroke-width:0; stroke-opacity:1; 
stroke-linecap:round; stroke-linejoin:round;fill-rule:evenodd;"
d="M 56745.2,44669.4
56745.2,44118.2
57532.6,44118.2
57532.6,44669.4
Z" /> 
</g>
<g >
</g>
<g style="fill:#000000; fill-opacity:1.0; 
stroke:#000000; stroke-width:0; stroke-opacity:1; 
stroke-linecap:round; stroke-linejoin:round;">
<path style="fill:#000000; fill-opacity:1.0; 
stroke:#000000; stroke-width:0; stroke-opacity:1; 
stroke-linecap:round; stroke-linejoin:round;fill-rule:evenodd;"
d="M 61729.4,47236.3
61729.4,46055.2
62910.5,46055.2
62910.5,47236.3
Z" /> 
</g>
<g >
</g>
<g style="fill:#000000; fill-opacity:1.0; 
stroke:#000000; stroke-width:0; stroke-opacity:1; 
stroke-linecap:round; stroke-linejoin:round;">
<path style="fill:#000000; fill-opacity:1.0; 
stroke:#000000; stroke-width:0; stroke-opacity:1; 
stroke-linecap:round; stroke-linejoin:round;fill-rule:evenodd;"
d="M 61729.4,38574.9
61729.4,37393.8
62910.5,37393.8
62910.5,38574.9
Z" /> 
</g>
<g >
</g>
<g style="fill:#000000; fill-opacity:1.0; 
stroke:#000000; stroke-width:0; stroke-opacity:1; 
stroke-linecap:round; stroke-linejoin:round;">
<path style="fill:#000000; fill-opacity:1.0; 
stroke:#000000; stroke-width:0; stroke-opacity:1; 
stroke-linecap:round; stroke-linejoin:round;fill-rule:evenodd;"
d="M 61729.4,40937.1
61729.4,39756
62910.5,39756
62910.5,40937.1
Z" /> 
</g>
<g >
</g>
<g style="fill:#000000; fill-opacity:1.0; 
stroke:#000000; stroke-width:0; stroke-opacity:1; 
stroke-linecap:round; stroke-linejoin:round;">
<path style="fill:#000000; fill-opacity:1.0; 
stroke:#000000; stroke-width:0; stroke-opacity:1; 
stroke-linecap:round; stroke-linejoin:round;fill-rule:evenodd;"
d="M 49131,38574.9
49131,37393.8
50312.1,37393.8
50312.1,38574.9
Z" /> 
</g>
<g >
</g>
<g style="fill:#000000; fill-opacity:1.0; 
stroke:#000000; stroke-width:0; stroke-opacity:1; 
stroke-linecap:round; stroke-linejoin:round;">
<path style="fill:#000000; fill-opacity:1.0; 
stroke:#000000; stroke-width:0; stroke-opacity:1; 
stroke-linecap:round; stroke-linejoin:round;fill-rule:evenodd;"
d="M 49131,47236.3
49131,46055.2
50312.1,46055.2
50312.1,47236.3
Z" /> 
</g>
<g >
</g>
<g style="fill:#000000; fill-opacity:1.0; 
stroke:#000000; stroke-width:0; stroke-opacity:1; 
stroke-linecap:round; stroke-linejoin:round;">
<path style="fill:#000000; fill-opacity:1.0; 
stroke:#000000; stroke-width:0; stroke-opacity:1; 
stroke-linecap:round; stroke-linejoin:round;fill-rule:evenodd;"
d="M 54595.6,41484.3
54595.6,40972.5
55430.2,40972.5
55430.2,41484.3
Z" /> 
<path style="fill:#000000; fill-opacity:1.0; 
stroke:#000000; stroke-width:0; stroke-opacity:1; 
stroke-linecap:round; stroke-linejoin:round;fill-rule:evenodd;"
d="M 54595.6,42980.4
54595.6,42468.6
55430.2,42468.6
55430.2,42980.4
Z" /> 
<path style="fill:#000000; fill-opacity:1.0; 
stroke:#000000; stroke-width:0; stroke-opacity:1; 
stroke-linecap:round; stroke-linejoin:round;fill-rule:evenodd;"
d="M 52863.3,42980.4
52863.3,42468.6
53697.9,42468.6
53697.9,42980.4
Z" /> 
<path style="fill:#000000; fill-opacity:1.0; 
stroke:#000000; stroke-width:0; stroke-opacity:1; 
stroke-linecap:round; stroke-linejoin:round;fill-rule:evenodd;"
d="M 52863.3,42232.3
52863.3,41720.5
53697.9,41720.5
53697.9,42232.3
Z" /> 
<path style="fill:#000000; fill-opacity:1.0; 
stroke:#000000; stroke-width:0; stroke-opacity:1; 
stroke-linecap:round; stroke-linejoin:round;fill-rule:evenodd;"
d="M 52863.3,41484.3
52863.3,40972.5
53697.9,40972.5
53697.9,41484.3
Z" /> 
</g>
<g >
</g>
<g style="fill:#000000; fill-opacity:1.0; 
stroke:#000000; stroke-width:0; stroke-opacity:1; 
stroke-linecap:round; stroke-linejoin:round;">
<path style="fill:#000000; fill-opacity:1.0; 
stroke:#000000; stroke-width:0; stroke-opacity:1; 
stroke-linecap:round; stroke-linejoin:round;fill-rule:evenodd;"
d="M 60727.6,39327.7
60744.3,39330.1
60760.7,39334.2
60776.6,39339.9
60791.9,39347.2
60806.4,39355.9
60820,39365.9
60832.5,39377.3
60843.9,39389.8
60854,39403.4
60862.6,39417.9
60869.9,39433.2
60875.6,39449.1
60879.7,39465.5
60882.1,39482.2
60883,39499.1
60883,39902.6
60882.1,39919.5
60879.7,39936.2
60875.6,39952.6
60869.9,39968.5
60862.6,39983.8
60854,39998.3
60843.9,40011.9
60832.5,40024.4
60820,40035.8
60806.4,40045.8
60791.9,40054.5
60776.6,40061.8
60760.7,40067.4
60744.3,40071.6
60727.6,40074
60710.7,40074.9
60366.2,40074.9
60349.4,40074
60332.6,40071.6
60316.2,40067.4
60300.3,40061.8
60285.1,40054.5
60270.6,40045.8
60257,40035.8
60244.5,40024.4
60233.1,40011.9
60223,39998.3
60214.3,39983.8
60207.1,39968.5
60201.4,39952.6
60197.3,39936.2
60194.8,39919.5
60194,39902.6
60194,39499.1
60194.8,39482.2
60197.3,39465.5
60201.4,39449.1
60207.1,39433.2
60214.3,39417.9
60223,39403.4
60233.1,39389.8
60244.5,39377.3
60257,39365.9
60270.6,39355.9
60285.1,39347.2
60300.3,39339.9
60316.2,39334.2
60332.6,39330.1
60349.4,39327.7
60366.2,39326.8
60710.7,39326.8
Z" /> 
<path style="fill:#000000; fill-opacity:1.0; 
stroke:#000000; stroke-width:0; stroke-opacity:1; 
stroke-linecap:round; stroke-linejoin:round;fill-rule:evenodd;"
d="M 59487.5,39327.7
59504.2,39330.1
59520.6,39334.2
59536.5,39339.9
59551.8,39347.2
59566.3,39355.9
59579.8,39365.9
59592.4,39377.3
59603.7,39389.8
59613.8,39403.4
59622.5,39417.9
59629.7,39433.2
59635.4,39449.1
59639.5,39465.5
59642,39482.2
59642.8,39499.1
59642.8,39902.6
59642,39919.5
59639.5,39936.2
59635.4,39952.6
59629.7,39968.5
59622.5,39983.8
59613.8,39998.3
59603.7,40011.9
59592.4,40024.4
59579.8,40035.8
59566.3,40045.8
59551.8,40054.5
59536.5,40061.8
59520.6,40067.4
59504.2,40071.6
59487.5,40074
59470.6,40074.9
59126.1,40074.9
59109.2,40074
59092.5,40071.6
59076.1,40067.4
59060.2,40061.8
59044.9,40054.5
59030.4,40045.8
59016.8,40035.8
59004.3,40024.4
58992.9,40011.9
58982.9,39998.3
58974.2,39983.8
58967,39968.5
58961.3,39952.6
58957.2,39936.2
58954.7,39919.5
58953.8,39902.6
58953.8,39499.1
58954.7,39482.2
58957.2,39465.5
58961.3,39449.1
58967,39433.2
58974.2,39417.9
58982.9,39403.4
58992.9,39389.8
59004.3,39377.3
59016.8,39365.9
59030.4,39355.9
59044.9,39347.2
59060.2,39339.9
59076.1,39334.2
59092.5,39330.1
59109.2,39327.7
59126.1,39326.8
59470.6,39326.8
Z" /> 
</g>
<g >
</g>
<g style="fill:#000000; fill-opacity:1.0; 
stroke:#000000; stroke-width:0; stroke-opacity:1; 
stroke-linecap:round; stroke-linejoin:round;">
<path style="fill:#000000; fill-opacity:1.0; 
stroke:#000000; stroke-width:0; stroke-opacity:1; 
stroke-linecap:round; stroke-linejoin:round;fill-rule:evenodd;"
d="M 60050.5,40886.7
60067.2,40889.2
60083.6,40893.3
60099.5,40899
60114.8,40906.2
60129.3,40914.9
60142.8,40925
60155.4,40936.3
60166.7,40948.9
60176.8,40962.4
60185.5,40976.9
60192.7,40992.2
60198.4,41008.1
60202.5,41024.5
60205,41041.2
60205.8,41058.1
60205.8,41402.6
60205,41419.5
60202.5,41436.2
60198.4,41452.6
60192.7,41468.5
60185.5,41483.8
60176.8,41498.3
60166.7,41511.9
60155.4,41524.4
60142.8,41535.8
60129.3,41545.8
60114.8,41554.5
60099.5,41561.8
60083.6,41567.4
60067.2,41571.6
60050.5,41574
60033.6,41574.9
59630,41574.9
59613.1,41574
59596.4,41571.6
59580,41567.4
59564.1,41561.8
59548.8,41554.5
59534.3,41545.8
59520.8,41535.8
59508.2,41524.4
59496.9,41511.9
59486.8,41498.3
59478.1,41483.8
59470.9,41468.5
59465.2,41452.6
59461.1,41436.2
59458.6,41419.5
59457.8,41402.6
59457.8,41058.1
59458.6,41041.2
59461.1,41024.5
59465.2,41008.1
59470.9,40992.2
59478.1,40976.9
59486.8,40962.4
59496.9,40948.9
59508.2,40936.3
59520.8,40925
59534.3,40914.9
59548.8,40906.2
59564.1,40899
59580,40893.3
59596.4,40889.2
59613.1,40886.7
59630,40885.9
60033.6,40885.9
Z" /> 
<path style="fill:#000000; fill-opacity:1.0; 
stroke:#000000; stroke-width:0; stroke-opacity:1; 
stroke-linecap:round; stroke-linejoin:round;fill-rule:evenodd;"
d="M 60050.5,42126.9
60067.2,42129.4
60083.6,42133.5
60099.5,42139.2
60114.8,42146.4
60129.3,42155.1
60142.8,42165.1
60155.4,42176.5
60166.7,42189
60176.8,42202.6
60185.5,42217.1
60192.7,42232.4
60198.4,42248.3
60202.5,42264.7
60205,42281.4
60205.8,42298.3
60205.8,42642.8
60205,42659.7
60202.5,42676.4
60198.4,42692.8
60192.7,42708.7
60185.5,42724
60176.8,42738.5
60166.7,42752
60155.4,42764.6
60142.8,42775.9
60129.3,42786
60114.8,42794.7
60099.5,42801.9
60083.6,42807.6
60067.2,42811.7
60050.5,42814.2
60033.6,42815
59630,42815
59613.1,42814.2
59596.4,42811.7
59580,42807.6
59564.1,42801.9
59548.8,42794.7
59534.3,42786
59520.8,42775.9
59508.2,42764.6
59496.9,42752
59486.8,42738.5
59478.1,42724
59470.9,42708.7
59465.2,42692.8
59461.1,42676.4
59458.6,42659.7
59457.8,42642.8
59457.8,42298.3
59458.6,42281.4
59461.1,42264.7
59465.2,42248.3
59470.9,42232.4
59478.1,42217.1
59486.8,42202.6
59496.9,42189
59508.2,42176.5
59520.8,42165.1
59534.3,42155.1
59548.8,42146.4
59564.1,42139.2
59580,42133.5
59596.4,42129.4
59613.1,42126.9
59630,42126
60033.6,42126
Z" /> 
</g>
<g >
</g>
<g style="fill:#000000; fill-opacity:1.0; 
stroke:#000000; stroke-width:0; stroke-opacity:1; 
stroke-linecap:round; stroke-linejoin:round;">
<path style="fill:#000000; fill-opacity:1.0; 
stroke:#000000; stroke-width:0; stroke-opacity:1; 
stroke-linecap:round; stroke-linejoin:round;fill-rule:evenodd;"
d="M 55270.9,39508.8
55287.6,39511.2
55304,39515.4
55320,39521
55335.2,39528.3
55349.7,39537
55363.3,39547
55375.8,39558.4
55387.2,39570.9
55397.3,39584.5
55405.9,39599
55413.2,39614.3
55418.9,39630.2
55423,39646.6
55425.5,39663.3
55426.3,39680.2
55426.3,40083.7
55425.5,40100.6
55423,40117.3
55418.9,40133.7
55413.2,40149.6
55405.9,40164.9
55397.3,40179.4
55387.2,40193
55375.8,40205.5
55363.3,40216.9
55349.7,40226.9
55335.2,40235.6
55320,40242.9
55304,40248.5
55287.6,40252.7
55270.9,40255.1
55254,40256
54909.6,40256
54892.7,40255.1
54876,40252.7
54859.6,40248.5
54843.6,40242.9
54828.4,40235.6
54813.9,40226.9
54800.3,40216.9
54787.8,40205.5
54776.4,40193
54766.3,40179.4
54757.6,40164.9
54750.4,40149.6
54744.7,40133.7
54740.6,40117.3
54738.1,40100.6
54737.3,40083.7
54737.3,39680.2
54738.1,39663.3
54740.6,39646.6
54744.7,39630.2
54750.4,39614.3
54757.6,39599
54766.3,39584.5
54776.4,39570.9
54787.8,39558.4
54800.3,39547
54813.9,39537
54828.4,39528.3
54843.6,39521
54859.6,39515.4
54876,39511.2
54892.7,39508.8
54909.6,39507.9
55254,39507.9
Z" /> 
<path style="fill:#000000; fill-opacity:1.0; 
stroke:#000000; stroke-width:0; stroke-opacity:1; 
stroke-linecap:round; stroke-linejoin:round;fill-rule:evenodd;"
d="M 54030.8,39508.8
54047.5,39511.2
54063.9,39515.4
54079.8,39521
54095.1,39528.3
54109.6,39537
54123.2,39547
54135.7,39558.4
54147,39570.9
54157.1,39584.5
54165.8,39599
54173,39614.3
54178.7,39630.2
54182.8,39646.6
54185.3,39663.3
54186.1,39680.2
54186.1,40083.7
54185.3,40100.6
54182.8,40117.3
54178.7,40133.7
54173,40149.6
54165.8,40164.9
54157.1,40179.4
54147,40193
54135.7,40205.5
54123.2,40216.9
54109.6,40226.9
54095.1,40235.6
54079.8,40242.9
54063.9,40248.5
54047.5,40252.7
54030.8,40255.1
54013.9,40256
53669.4,40256
53652.5,40255.1
53635.8,40252.7
53619.4,40248.5
53603.5,40242.9
53588.2,40235.6
53573.7,40226.9
53560.1,40216.9
53547.6,40205.5
53536.2,40193
53526.2,40179.4
53517.5,40164.9
53510.3,40149.6
53504.6,40133.7
53500.5,40117.3
53498,40100.6
53497.2,40083.7
53497.2,39680.2
53498,39663.3
53500.5,39646.6
53504.6,39630.2
53510.3,39614.3
53517.5,39599
53526.2,39584.5
53536.2,39570.9
53547.6,39558.4
53560.1,39547
53573.7,39537
53588.2,39528.3
53603.5,39521
53619.4,39515.4
53635.8,39511.2
53652.5,39508.8
53669.4,39507.9
54013.9,39507.9
Z" /> 
</g>
<g >
</g>
<g style="fill:#000000; fill-opacity:1.0; 
stroke:#000000; stroke-width:0; stroke-opacity:1; 
stroke-linecap:round; stroke-linejoin:round;">
<path style="fill:#000000; fill-opacity:1.0; 
stroke:#000000; stroke-width:0; stroke-opacity:1; 
stroke-linecap:round; stroke-linejoin:round;fill-rule:evenodd;"
d="M 50830,42520.6
50846.7,42523.1
50863.1,42527.2
50879,42532.9
50894.3,42540.1
50908.8,42548.8
50922.4,42558.8
50934.9,42570.2
50946.2,42582.7
50956.3,42596.3
50965,42610.8
50972.2,42626.1
50977.9,42642
50982,42658.4
50984.5,42675.1
50985.3,42692
50985.3,43036.5
50984.5,43053.4
50982,43070.1
50977.9,43086.5
50972.2,43102.4
50965,43117.7
50956.3,43132.2
50946.2,43145.7
50934.9,43158.3
50922.4,43169.6
50908.8,43179.7
50894.3,43188.4
50879,43195.6
50863.1,43201.3
50846.7,43205.4
50830,43207.9
50813.1,43208.7
50409.6,43208.7
50392.7,43207.9
50376,43205.4
50359.6,43201.3
50343.6,43195.6
50328.4,43188.4
50313.9,43179.7
50300.3,43169.6
50287.8,43158.3
50276.4,43145.7
50266.3,43132.2
50257.6,43117.7
50250.4,43102.4
50244.7,43086.5
50240.6,43070.1
50238.1,43053.4
50237.3,43036.5
50237.3,42692
50238.1,42675.1
50240.6,42658.4
50244.7,42642
50250.4,42626.1
50257.6,42610.8
50266.3,42596.3
50276.4,42582.7
50287.8,42570.2
50300.3,42558.8
50313.9,42548.8
50328.4,42540.1
50343.6,42532.9
50359.6,42527.2
50376,42523.1
50392.7,42520.6
50409.6,42519.7
50813.1,42519.7
Z" /> 
<path style="fill:#000000; fill-opacity:1.0; 
stroke:#000000; stroke-width:0; stroke-opacity:1; 
stroke-linecap:round; stroke-linejoin:round;fill-rule:evenodd;"
d="M 50830,41280.4
50846.7,41282.9
50863.1,41287
50879,41292.7
50894.3,41299.9
50908.8,41308.6
50922.4,41318.7
50934.9,41330
50946.2,41342.6
50956.3,41356.1
50965,41370.6
50972.2,41385.9
50977.9,41401.8
50982,41418.2
50984.5,41434.9
50985.3,41451.8
50985.3,41796.3
50984.5,41813.2
50982,41829.9
50977.9,41846.3
50972.2,41862.2
50965,41877.5
50956.3,41892
50946.2,41905.6
50934.9,41918.1
50922.4,41929.5
50908.8,41939.5
50894.3,41948.2
50879,41955.5
50863.1,41961.1
50846.7,41965.3
50830,41967.7
50813.1,41968.6
50409.6,41968.6
50392.7,41967.7
50376,41965.3
50359.6,41961.1
50343.6,41955.5
50328.4,41948.2
50313.9,41939.5
50300.3,41929.5
50287.8,41918.1
50276.4,41905.6
50266.3,41892
50257.6,41877.5
50250.4,41862.2
50244.7,41846.3
50240.6,41829.9
50238.1,41813.2
50237.3,41796.3
50237.3,41451.8
50238.1,41434.9
50240.6,41418.2
50244.7,41401.8
50250.4,41385.9
50257.6,41370.6
50266.3,41356.1
50276.4,41342.6
50287.8,41330
50300.3,41318.7
50313.9,41308.6
50328.4,41299.9
50343.6,41292.7
50359.6,41287
50376,41282.9
50392.7,41280.4
50409.6,41279.6
50813.1,41279.6
Z" /> 
</g>
<g >
</g>
<g style="fill:#000000; fill-opacity:1.0; 
stroke:#000000; stroke-width:0; stroke-opacity:1; 
stroke-linecap:round; stroke-linejoin:round;">
<path style="fill:#000000; fill-opacity:1.0; 
stroke:#000000; stroke-width:0; stroke-opacity:1; 
stroke-linecap:round; stroke-linejoin:round;fill-rule:evenodd;"
d="M 55286.7,43713.5
55303.4,43716
55319.8,43720.1
55335.7,43725.8
55351,43733
55365.5,43741.7
55379.1,43751.8
55391.6,43763.1
55402.9,43775.6
55413,43789.2
55421.7,43803.7
55428.9,43819
55434.6,43834.9
55438.7,43851.3
55441.2,43868
55442,43884.9
55442,44288.4
55441.2,44305.3
55438.7,44322
55434.6,44338.4
55428.9,44354.4
55421.7,44369.6
55413,44384.1
55402.9,44397.7
55391.6,44410.2
55379.1,44421.6
55365.5,44431.7
55351,44440.4
55335.7,44447.6
55319.8,44453.3
55303.4,44457.4
55286.7,44459.9
55269.8,44460.7
54925.3,44460.7
54908.4,44459.9
54891.7,44457.4
54875.3,44453.3
54859.4,44447.6
54844.1,44440.4
54829.6,44431.7
54816,44421.6
54803.5,44410.2
54792.2,44397.7
54782.1,44384.1
54773.4,44369.6
54766.2,44354.4
54760.5,44338.4
54756.4,44322
54753.9,44305.3
54753.1,44288.4
54753.1,43884.9
54753.9,43868
54756.4,43851.3
54760.5,43834.9
54766.2,43819
54773.4,43803.7
54782.1,43789.2
54792.2,43775.6
54803.5,43763.1
54816,43751.8
54829.6,43741.7
54844.1,43733
54859.4,43725.8
54875.3,43720.1
54891.7,43716
54908.4,43713.5
54925.3,43712.7
55269.8,43712.7
Z" /> 
<path style="fill:#000000; fill-opacity:1.0; 
stroke:#000000; stroke-width:0; stroke-opacity:1; 
stroke-linecap:round; stroke-linejoin:round;fill-rule:evenodd;"
d="M 54046.5,43713.5
54063.2,43716
54079.6,43720.1
54095.5,43725.8
54110.8,43733
54125.3,43741.7
54138.9,43751.8
54151.4,43763.1
54162.8,43775.6
54172.8,43789.2
54181.5,43803.7
54188.8,43819
54194.5,43834.9
54198.6,43851.3
54201,43868
54201.9,43884.9
54201.9,44288.4
54201,44305.3
54198.6,44322
54194.5,44338.4
54188.8,44354.4
54181.5,44369.6
54172.8,44384.1
54162.8,44397.7
54151.4,44410.2
54138.9,44421.6
54125.3,44431.7
54110.8,44440.4
54095.5,44447.6
54079.6,44453.3
54063.2,44457.4
54046.5,44459.9
54029.6,44460.7
53685.1,44460.7
53668.3,44459.9
53651.5,44457.4
53635.1,44453.3
53619.2,44447.6
53603.9,44440.4
53589.5,44431.7
53575.9,44421.6
53563.3,44410.2
53552,44397.7
53541.9,44384.1
53533.2,44369.6
53526,44354.4
53520.3,44338.4
53516.2,44322
53513.7,44305.3
53512.9,44288.4
53512.9,43884.9
53513.7,43868
53516.2,43851.3
53520.3,43834.9
53526,43819
53533.2,43803.7
53541.9,43789.2
53552,43775.6
53563.3,43763.1
53575.9,43751.8
53589.5,43741.7
53603.9,43733
53619.2,43725.8
53635.1,43720.1
53651.5,43716
53668.3,43713.5
53685.1,43712.7
54029.6,43712.7
Z" /> 
</g>
<g >
</g>
<g style="fill:#000000; fill-opacity:1.0; 
stroke:#000000; stroke-width:0; stroke-opacity:1; 
stroke-linecap:round; stroke-linejoin:round;">
<path style="fill:#000000; fill-opacity:1.0; 
stroke:#000000; stroke-width:0; stroke-opacity:1; 
stroke-linecap:round; stroke-linejoin:round;fill-rule:evenodd;"
d="M 52160.7,41280.4
52177.4,41282.9
52193.8,41287
52209.7,41292.7
52225,41299.9
52239.5,41308.6
52253.1,41318.7
52265.6,41330
52277,41342.6
52287,41356.1
52295.7,41370.6
52302.9,41385.9
52308.6,41401.8
52312.7,41418.2
52315.2,41434.9
52316,41451.8
52316,41796.3
52315.2,41813.2
52312.7,41829.9
52308.6,41846.3
52302.9,41862.2
52295.7,41877.5
52287,41892
52277,41905.6
52265.6,41918.1
52253.1,41929.5
52239.5,41939.5
52225,41948.2
52209.7,41955.5
52193.8,41961.1
52177.4,41965.3
52160.7,41967.7
52143.8,41968.6
51740.3,41968.6
51723.4,41967.7
51706.7,41965.3
51690.3,41961.1
51674.3,41955.5
51659.1,41948.2
51644.6,41939.5
51631,41929.5
51618.5,41918.1
51607.1,41905.6
51597,41892
51588.4,41877.5
51581.1,41862.2
51575.4,41846.3
51571.3,41829.9
51568.8,41813.2
51568,41796.3
51568,41451.8
51568.8,41434.9
51571.3,41418.2
51575.4,41401.8
51581.1,41385.9
51588.4,41370.6
51597,41356.1
51607.1,41342.6
51618.5,41330
51631,41318.7
51644.6,41308.6
51659.1,41299.9
51674.3,41292.7
51690.3,41287
51706.7,41282.9
51723.4,41280.4
51740.3,41279.6
52143.8,41279.6
Z" /> 
<path style="fill:#000000; fill-opacity:1.0; 
stroke:#000000; stroke-width:0; stroke-opacity:1; 
stroke-linecap:round; stroke-linejoin:round;fill-rule:evenodd;"
d="M 52160.7,42520.6
52177.4,42523.1
52193.8,42527.2
52209.7,42532.9
52225,42540.1
52239.5,42548.8
52253.1,42558.8
52265.6,42570.2
52277,42582.7
52287,42596.3
52295.7,42610.8
52302.9,42626.1
52308.6,42642
52312.7,42658.4
52315.2,42675.1
52316,42692
52316,43036.5
52315.2,43053.4
52312.7,43070.1
52308.6,43086.5
52302.9,43102.4
52295.7,43117.7
52287,43132.2
52277,43145.7
52265.6,43158.3
52253.1,43169.6
52239.5,43179.7
52225,43188.4
52209.7,43195.6
52193.8,43201.3
52177.4,43205.4
52160.7,43207.9
52143.8,43208.7
51740.3,43208.7
51723.4,43207.9
51706.7,43205.4
51690.3,43201.3
51674.3,43195.6
51659.1,43188.4
51644.6,43179.7
51631,43169.6
51618.5,43158.3
51607.1,43145.7
51597,43132.2
51588.4,43117.7
51581.1,43102.4
51575.4,43086.5
51571.3,43070.1
51568.8,43053.4
51568,43036.5
51568,42692
51568.8,42675.1
51571.3,42658.4
51575.4,42642
51581.1,42626.1
51588.4,42610.8
51597,42596.3
51607.1,42582.7
51618.5,42570.2
51631,42558.8
51644.6,42548.8
51659.1,42540.1
51674.3,42532.9
51690.3,42527.2
51706.7,42523.1
51723.4,42520.6
51740.3,42519.7
52143.8,42519.7
Z" /> 
</g>
<g >
</g>
<g style="fill:#000000; fill-opacity:1.0; 
stroke:#000000; stroke-width:0; stroke-opacity:1; 
stroke-linecap:round; stroke-linejoin:round;">
<path style="fill:#000000; fill-opacity:1.0; 
stroke:#000000; stroke-width:0; stroke-opacity:1; 
stroke-linecap:round; stroke-linejoin:round;fill-rule:evenodd;"
d="M 57054.4,39327.7
57071.1,39330.1
57087.5,39334.2
57103.4,39339.9
57118.7,39347.2
57133.2,39355.9
57146.8,39365.9
57159.3,39377.3
57170.7,39389.8
57180.7,39403.4
57189.4,39417.9
57196.6,39433.2
57202.3,39449.1
57206.4,39465.5
57208.9,39482.2
57209.8,39499.1
57209.8,39902.6
57208.9,39919.5
57206.4,39936.2
57202.3,39952.6
57196.6,39968.5
57189.4,39983.8
57180.7,39998.3
57170.7,40011.9
57159.3,40024.4
57146.8,40035.8
57133.2,40045.8
57118.7,40054.5
57103.4,40061.8
57087.5,40067.4
57071.1,40071.6
57054.4,40074
57037.5,40074.9
56693,40074.9
56676.1,40074
56659.4,40071.6
56643,40067.4
56627.1,40061.8
56611.8,40054.5
56597.3,40045.8
56583.7,40035.8
56571.2,40024.4
56559.9,40011.9
56549.8,39998.3
56541.1,39983.8
56533.9,39968.5
56528.2,39952.6
56524.1,39936.2
56521.6,39919.5
56520.8,39902.6
56520.8,39499.1
56521.6,39482.2
56524.1,39465.5
56528.2,39449.1
56533.9,39433.2
56541.1,39417.9
56549.8,39403.4
56559.9,39389.8
56571.2,39377.3
56583.7,39365.9
56597.3,39355.9
56611.8,39347.2
56627.1,39339.9
56643,39334.2
56659.4,39330.1
56676.1,39327.7
56693,39326.8
57037.5,39326.8
Z" /> 
<path style="fill:#000000; fill-opacity:1.0; 
stroke:#000000; stroke-width:0; stroke-opacity:1; 
stroke-linecap:round; stroke-linejoin:round;fill-rule:evenodd;"
d="M 58294.5,39327.7
58311.3,39330.1
58327.7,39334.2
58343.6,39339.9
58358.9,39347.2
58373.4,39355.9
58386.9,39365.9
58399.5,39377.3
58410.8,39389.8
58420.9,39403.4
58429.6,39417.9
58436.8,39433.2
58442.5,39449.1
58446.6,39465.5
58449.1,39482.2
58449.9,39499.1
58449.9,39902.6
58449.1,39919.5
58446.6,39936.2
58442.5,39952.6
58436.8,39968.5
58429.6,39983.8
58420.9,39998.3
58410.8,40011.9
58399.5,40024.4
58386.9,40035.8
58373.4,40045.8
58358.9,40054.5
58343.6,40061.8
58327.7,40067.4
58311.3,40071.6
58294.5,40074
58277.7,40074.9
57933.2,40074.9
57916.3,40074
57899.6,40071.6
57883.2,40067.4
57867.3,40061.8
57852,40054.5
57837.5,40045.8
57823.9,40035.8
57811.4,40024.4
57800,40011.9
57790,39998.3
57781.3,39983.8
57774,39968.5
57768.3,39952.6
57764.2,39936.2
57761.8,39919.5
57760.9,39902.6
57760.9,39499.1
57761.8,39482.2
57764.2,39465.5
57768.3,39449.1
57774,39433.2
57781.3,39417.9
57790,39403.4
57800,39389.8
57811.4,39377.3
57823.9,39365.9
57837.5,39355.9
57852,39347.2
57867.3,39339.9
57883.2,39334.2
57899.6,39330.1
57916.3,39327.7
57933.2,39326.8
58277.7,39326.8
Z" /> 
</g>
<g >
</g>
<g style="fill:#000000; fill-opacity:1.0; 
stroke:#000000; stroke-width:0; stroke-opacity:1; 
stroke-linecap:round; stroke-linejoin:round;">
<path style="fill:#000000; fill-opacity:1.0; 
stroke:#000000; stroke-width:0; stroke-opacity:1; 
stroke-linecap:round; stroke-linejoin:round;fill-rule:evenodd;"
d="M 52759.1,43745
52775.8,43747.5
52792.2,43751.6
52808.1,43757.3
52823.4,43764.5
52837.9,43773.2
52851.5,43783.3
52864,43794.6
52875.4,43807.1
52885.4,43820.7
52894.1,43835.2
52901.4,43850.5
52907.1,43866.4
52911.2,43882.8
52913.6,43899.5
52914.5,43916.4
52914.5,44319.9
52913.6,44336.8
52911.2,44353.5
52907.1,44369.9
52901.4,44385.9
52894.1,44401.1
52885.4,44415.6
52875.4,44429.2
52864,44441.7
52851.5,44453.1
52837.9,44463.2
52823.4,44471.8
52808.1,44479.1
52792.2,44484.8
52775.8,44488.9
52759.1,44491.4
52742.2,44492.2
52397.7,44492.2
52380.9,44491.4
52364.1,44488.9
52347.7,44484.8
52331.8,44479.1
52316.5,44471.8
52302,44463.2
52288.5,44453.1
52275.9,44441.7
52264.6,44429.2
52254.5,44415.6
52245.8,44401.1
52238.6,44385.9
52232.9,44369.9
52228.8,44353.5
52226.3,44336.8
52225.5,44319.9
52225.5,43916.4
52226.3,43899.5
52228.8,43882.8
52232.9,43866.4
52238.6,43850.5
52245.8,43835.2
52254.5,43820.7
52264.6,43807.1
52275.9,43794.6
52288.5,43783.3
52302,43773.2
52316.5,43764.5
52331.8,43757.3
52347.7,43751.6
52364.1,43747.5
52380.9,43745
52397.7,43744.2
52742.2,43744.2
Z" /> 
<path style="fill:#000000; fill-opacity:1.0; 
stroke:#000000; stroke-width:0; stroke-opacity:1; 
stroke-linecap:round; stroke-linejoin:round;fill-rule:evenodd;"
d="M 51519,43745
51535.7,43747.5
51552.1,43751.6
51568,43757.3
51583.3,43764.5
51597.8,43773.2
51611.3,43783.3
51623.9,43794.6
51635.2,43807.1
51645.3,43820.7
51654,43835.2
51661.2,43850.5
51666.9,43866.4
51671,43882.8
51673.5,43899.5
51674.3,43916.4
51674.3,44319.9
51673.5,44336.8
51671,44353.5
51666.9,44369.9
51661.2,44385.9
51654,44401.1
51645.3,44415.6
51635.2,44429.2
51623.9,44441.7
51611.3,44453.1
51597.8,44463.2
51583.3,44471.8
51568,44479.1
51552.1,44484.8
51535.7,44488.9
51519,44491.4
51502.1,44492.2
51157.6,44492.2
51140.7,44491.4
51124,44488.9
51107.6,44484.8
51091.7,44479.1
51076.4,44471.8
51061.9,44463.2
51048.3,44453.1
51035.8,44441.7
51024.4,44429.2
51014.4,44415.6
51005.7,44401.1
50998.5,44385.9
50992.8,44369.9
50988.7,44353.5
50986.2,44336.8
50985.3,44319.9
50985.3,43916.4
50986.2,43899.5
50988.7,43882.8
50992.8,43866.4
50998.5,43850.5
51005.7,43835.2
51014.4,43820.7
51024.4,43807.1
51035.8,43794.6
51048.3,43783.3
51061.9,43773.2
51076.4,43764.5
51091.7,43757.3
51107.6,43751.6
51124,43747.5
51140.7,43745
51157.6,43744.2
51502.1,43744.2
Z" /> 
</g>
<g >
</g>
<g style="fill:#000000; fill-opacity:1.0; 
stroke:#000000; stroke-width:0; stroke-opacity:1; 
stroke-linecap:round; stroke-linejoin:round;">
<path style="fill:#000000; fill-opacity:1.0; 
stroke:#000000; stroke-width:0; stroke-opacity:1; 
stroke-linecap:round; stroke-linejoin:round;fill-rule:evenodd;"
d="M 53408.7,44989.1
53425.4,44991.6
53441.8,44995.7
53457.8,45001.4
53473,45008.6
53487.5,45017.3
53501.1,45027.3
53513.6,45038.7
53525,45051.2
53535.1,45064.8
53543.7,45079.3
53551,45094.6
53556.7,45110.5
53560.8,45126.9
53563.3,45143.6
53564.1,45160.5
53564.1,45564
53563.3,45580.9
53560.8,45597.6
53556.7,45614
53551,45630
53543.7,45645.2
53535.1,45659.7
53525,45673.3
53513.6,45685.8
53501.1,45697.2
53487.5,45707.3
53473,45715.9
53457.8,45723.2
53441.8,45728.9
53425.4,45733
53408.7,45735.5
53391.8,45736.3
53047.3,45736.3
53030.5,45735.5
53013.7,45733
52997.3,45728.9
52981.4,45723.2
52966.2,45715.9
52951.7,45707.3
52938.1,45697.2
52925.6,45685.8
52914.2,45673.3
52904.1,45659.7
52895.4,45645.2
52888.2,45630
52882.5,45614
52878.4,45597.6
52875.9,45580.9
52875.1,45564
52875.1,45160.5
52875.9,45143.6
52878.4,45126.9
52882.5,45110.5
52888.2,45094.6
52895.4,45079.3
52904.1,45064.8
52914.2,45051.2
52925.6,45038.7
52938.1,45027.3
52951.7,45017.3
52966.2,45008.6
52981.4,45001.4
52997.3,44995.7
53013.7,44991.6
53030.5,44989.1
53047.3,44988.2
53391.8,44988.2
Z" /> 
<path style="fill:#000000; fill-opacity:1.0; 
stroke:#000000; stroke-width:0; stroke-opacity:1; 
stroke-linecap:round; stroke-linejoin:round;fill-rule:evenodd;"
d="M 54648.9,44989.1
54665.6,44991.6
54682,44995.7
54697.9,45001.4
54713.2,45008.6
54727.7,45017.3
54741.3,45027.3
54753.8,45038.7
54765.1,45051.2
54775.2,45064.8
54783.9,45079.3
54791.1,45094.6
54796.8,45110.5
54800.9,45126.9
54803.4,45143.6
54804.2,45160.5
54804.2,45564
54803.4,45580.9
54800.9,45597.6
54796.8,45614
54791.1,45630
54783.9,45645.2
54775.2,45659.7
54765.1,45673.3
54753.8,45685.8
54741.3,45697.2
54727.7,45707.3
54713.2,45715.9
54697.9,45723.2
54682,45728.9
54665.6,45733
54648.9,45735.5
54632,45736.3
54287.5,45736.3
54270.6,45735.5
54253.9,45733
54237.5,45728.9
54221.6,45723.2
54206.3,45715.9
54191.8,45707.3
54178.2,45697.2
54165.7,45685.8
54154.4,45673.3
54144.3,45659.7
54135.6,45645.2
54128.4,45630
54122.7,45614
54118.6,45597.6
54116.1,45580.9
54115.3,45564
54115.3,45160.5
54116.1,45143.6
54118.6,45126.9
54122.7,45110.5
54128.4,45094.6
54135.6,45079.3
54144.3,45064.8
54154.4,45051.2
54165.7,45038.7
54178.2,45027.3
54191.8,45017.3
54206.3,45008.6
54221.6,45001.4
54237.5,44995.7
54253.9,44991.6
54270.6,44989.1
54287.5,44988.2
54632,44988.2
Z" /> 
</g>
<g >
</g>
<g style="fill:#000000; fill-opacity:1.0; 
stroke:#000000; stroke-width:0; stroke-opacity:1; 
stroke-linecap:round; stroke-linejoin:round;">
<circle cx="52091.6" cy="45354.4" r="314.961" /> 
</g>
<g style="fill:#000000; fill-opacity:1.0; 
stroke:#000000; stroke-width:118.11; stroke-opacity:1; 
stroke-linecap:round; stroke-linejoin:round;">
</g>
<g >
</g>
<g style="fill:#000000; fill-opacity:1.0; 
stroke:#000000; stroke-width:118.11; stroke-opacity:1; 
stroke-linecap:round; stroke-linejoin:round;">
</g>
<g style="fill:#000000; fill-opacity:1.0; 
stroke:#000000; stroke-width:196.85; stroke-opacity:1; 
stroke-linecap:round; stroke-linejoin:round;">
</g>
<g style="fill:#000000; fill-opacity:0.0; 
stroke:#000000; stroke-width:196.85; stroke-opacity:1; 
stroke-linecap:round; stroke-linejoin:round;">
<path d="M52294 41976
L51942 41624
" />
<path d="M53280 41976
L52294 41976
" />
<path d="M53280 41976
L53745 41976
" />
<path d="M53745 41976
L54154 41566
" />
<path d="M54154 40194
L53841 39881
" />
<path d="M54154 41566
L54154 40194
" />
<path d="M52569 44712
L53219 45362
" />
<path d="M52569 44118
L52569 44712
" />
<path d="M53219 45362
L52099 45362
" />
<path d="M52099 45362
L52091 45354
" />
<path d="M55097 44724
L54459 45362
" />
<path d="M55097 44086
L55097 44724
" />
<path d="M49721 46645
L53721 46645
" />
<path d="M54459 45907
L54459 45362
" />
<path d="M53721 46645
L54459 45907
" />
<path d="M55012 44002
L55097 44086
" />
<path d="M55012 42724
L55012 44002
" />
</g>
<g style="fill:#000000; fill-opacity:0.0; 
stroke:#000000; stroke-width:393.701; stroke-opacity:1; 
stroke-linecap:round; stroke-linejoin:round;">
<path d="M52081 42724
L51942 42864
" />
<path d="M53280 42724
L52081 42724
" />
<path d="M51942 43505
L51329 44118
" />
<path d="M51942 42864
L51942 43505
" />
<path d="M61674 39700
L62319 40346
" />
<path d="M60538 39700
L61674 39700
" />
<path d="M62319 40346
L62319 37984
" />
<path d="M60538 39519
L60538 39700
" />
<path d="M56264 38787
L59806 38787
" />
<path d="M55934 39118
L56264 38787
" />
<path d="M53768 42724
L54508 41984
" />
<path d="M54508 41984
L55705 41984
" />
<path d="M53280 42724
L53768 42724
" />
<path d="M59806 38787
L60538 39519
" />
<path d="M55705 41984
L55934 41755
" />
<path d="M55934 41755
L55934 39118
" />
</g>
<g style="fill:#000000; fill-opacity:0.0; 
stroke:#000000; stroke-width:196.85; stroke-opacity:1; 
stroke-linecap:round; stroke-linejoin:round;">
<path d="M57091 39927
L57091 41007
" />
<path d="M56865 39700
L57091 39927
" />
<path d="M59186 45889
L59784 45889
" />
<path d="M61390 44283
L62319 44283
" />
<path d="M59784 45889
L61390 44283
" />
<path d="M56595 43133
L56595 41503
" />
<path d="M55886 43842
L56595 43133
" />
<path d="M58406 45889
L57721 46574
" />
<path d="M59186 45889
L58406 45889
" />
<path d="M56595 41503
L57091 41007
" />
<path d="M56461 46574
L55886 46000
" />
<path d="M57721 46574
L56461 46574
" />
<path d="M55886 46000
L55886 43842
" />
<path d="M57839 39966
L58105 39700
" />
<path d="M57839 41007
L57839 39966
" />
<path d="M58105 39700
L59479 39700
" />
<path d="M53857 44086
L53857 45761
" />
<path d="M53857 45761
L53461 46157
" />
<path d="M53461 46157
L51603 46157
" />
<path d="M50611 45165
L50611 42864
" />
<path d="M51603 46157
L50611 45165
" />
<path d="M57138 45889
L56611 45889
" />
<path d="M56611 45889
L56296 45574
" />
<path d="M56296 45574
L56296 44126
" />
<path d="M57091 43330
L57091 42897
" />
<path d="M56296 44126
L57091 43330
" />
<path d="M57138 45141
L57926 45141
" />
<path d="M58674 44393
L59186 44393
" />
<path d="M57926 45141
L58674 44393
" />
<path d="M57138 44393
L57784 44393
" />
<path d="M58587 43590
L58587 42897
" />
<path d="M57784 44393
L58587 43590
" />
<path d="M50949 40834
L52886 40834
" />
<path d="M50611 41624
L50611 41173
" />
<path d="M52886 40834
L53280 41228
" />
<path d="M50611 41173
L50949 40834
" />
<path d="M55081 41159
L55012 41228
" />
<path d="M55081 39881
L55081 41159
" />
<path d="M57839 42897
L57839 42283
" />
<path d="M57839 42283
L58249 41874
" />
<path d="M59188 41874
L59831 41230
" />
<path d="M58249 41874
L59188 41874
" />
<path d="M59831 43803
L59831 42470
" />
<path d="M60012 44779
L60012 43984
" />
<path d="M60012 43984
L59831 43803
" />
<path d="M59186 45141
L59650 45141
" />
<path d="M59650 45141
L60012 44779
" />
</g>
<g >
</g>
<g style="fill:#000000; fill-opacity:0.0; 
stroke:#000000; stroke-width:196.85; stroke-opacity:1; 
stroke-linecap:round; stroke-linejoin:round;">
<g >
</g>
<g style="fill:#000000; fill-opacity:1.0; 
stroke:#000000; stroke-width:200; stroke-opacity:1; 
stroke-linecap:round; stroke-linejoin:round;">
<path style="fill:#000000; fill-opacity:1.0; 
stroke:#000000; stroke-width:200; stroke-opacity:1; 
stroke-linecap:round; stroke-linejoin:round;fill-rule:evenodd;"
d="M 61374.2,45229.3
61450.3,45291.8
61537.2,45338.3
61631.4,45366.8
61729.4,45376.5
62587.7,45376.5
62587.7,45554.9
62545,45555.2
62420,45680.2
62420,46545.7
62435.7,46545.7
62435.7,46745.7
62420,46745.7
62420,46761.5
62220,46761.5
62220,46745.7
61354.4,46745.7
61229.4,46870.7
61229.2,46913.4
58229.3,46913.4
58543.4,46599.3
58600.2,46629.6
58694.4,46658.2
58792.4,46667.8
59579.8,46667.8
59677.8,46658.2
59772.1,46629.6
59859,46583.2
59935.1,46520.7
59991,46452.6
60014.7,46445.4
60118.6,46389.8
60209.8,46315
60228.5,46292.2
60465.5,46055.2
61227,46055.2
61229.4,46420.7
61354.4,46545.7
62220,46545.7
62220,45680.2
62095,45555.2
61729.4,45552.8
61631.4,45562.4
61537.2,45591
61450.3,45637.4
61374.2,45699.9
61311.7,45776
61265.3,45862.9
61236.7,45957.2
61227,46055.2
60465.5,46055.2
61336.8,45183.8
Z" /> 
<path style="fill:#000000; fill-opacity:1.0; 
stroke:#000000; stroke-width:200; stroke-opacity:1; 
stroke-linecap:round; stroke-linejoin:round;fill-rule:evenodd;"
d="M 51946.4,44909.9
52033.2,44956.4
52127.5,44985
52225.5,44994.6
52345,44992.2
52375.3,44961.9
52372.7,44988.2
52375.1,45137.3
52500.1,45262.3
53119.6,45262.3
53119.6,45246.5
53259,45246.5
53259,45478
53119.6,45478
53119.6,45462.3
52500.1,45462.3
52403.3,45559.1
51851.3,45559.1
51286.8,44994.6
51502.1,44994.6
51633.7,44981.6
51760.3,44943.2
51876.9,44880.9
51893.9,44866.9
Z" /> 
<path style="fill:#000000; fill-opacity:1.0; 
stroke:#000000; stroke-width:200; stroke-opacity:1; 
stroke-linecap:round; stroke-linejoin:round;fill-rule:evenodd;"
d="M 52670,44018.2
52685.7,44018.2
52685.7,44218.2
52670,44218.2
52670,44233.9
52470,44233.9
52470,44218.2
52454.2,44218.2
52454.2,44018.2
52470,44018.2
52470,44002.4
52670,44002.4
Z" /> 
<path style="fill:#000000; fill-opacity:1.0; 
stroke:#000000; stroke-width:200; stroke-opacity:1; 
stroke-linecap:round; stroke-linejoin:round;fill-rule:evenodd;"
d="M 52042,41524.1
52057.8,41524.1
52057.8,41724.1
52042,41724.1
52042,41739.8
51842,41739.8
51842,41724.1
51826.3,41724.1
51826.3,41524.1
51842,41524.1
51842,41508.3
52042,41508.3
Z" /> 
<path style="fill:#000000; fill-opacity:1.0; 
stroke:#000000; stroke-width:200; stroke-opacity:1; 
stroke-linecap:round; stroke-linejoin:round;fill-rule:evenodd;"
d="M 61227,38574.9
61236.7,38672.9
61265.3,38767.1
61311.7,38854
61374.2,38930.1
61450.3,38992.6
61471.6,39004
61165.8,39004
61085.6,38938.1
60968.9,38875.8
60842.4,38837.4
60841.5,38837.3
60323.2,38318.9
60301.3,38292.3
60195.2,38205.2
60074.2,38140.5
59942.8,38100.7
59840.4,38090.6
59840.4,38090.6
59806.2,38087.2
59772,38090.6
56299.1,38090.6
56264.9,38087.2
56230.6,38090.6
56230.6,38090.6
56128.3,38100.7
55996.9,38140.5
55875.8,38205.2
55769.7,38292.3
55747.9,38318.9
55465.6,38601.2
55439,38623
55417.2,38649.6
55417.2,38649.6
55351.9,38729.1
55287.2,38850.2
55247.4,38981.6
55245,39005.5
54909.6,39005.5
54777.9,39018.5
54651.4,39056.9
54534.7,39119.2
54517.7,39133.2
54465.3,39090.2
54378.4,39043.8
54284.1,39015.2
54186.1,39005.5
54066.6,39007.9
53941.6,39132.9
53941.6,39781.9
53957.4,39781.9
53957.4,39981.9
53941.6,39981.9
53941.6,39997.7
53741.6,39997.7
53741.6,39981.9
53122.2,39981.9
52997.2,40106.9
52994.9,40244
52916.3,40236.3
52916.3,40236.3
52886.9,40233.4
52857.5,40236.3
50979.3,40236.3
50949.9,40233.4
50920.5,40236.3
50920.5,40236.3
50832.6,40244.9
50719.8,40279.2
50615.8,40334.7
50524.7,40409.5
50506,40432.3
50209,40729.4
50186.1,40748.1
50167.4,40770.9
50167.4,40770.9
50111.3,40839.2
50103.3,40854.2
50034.7,40890.9
49932.5,40974.8
49848.6,41077
49847.5,41079
49847.5,39584.6
49850.1,39559.1
49847.5,39533.6
49847.5,39533.6
49845,39507.9
52994.7,39507.9
52997.2,39656.9
53122.2,39781.9
53741.6,39781.9
53741.6,39132.9
53616.6,39007.9
53497.2,39005.5
53399.1,39015.2
53304.9,39043.8
53218,39090.2
53141.9,39152.7
53079.4,39228.8
53033,39315.7
53004.4,39409.9
52994.7,39507.9
49845,39507.9
49840,39457.2
49810.3,39359.3
49762.1,39269
49752.1,39256.9
49713.4,39209.7
49713.4,39209.7
49697.1,39189.9
49677.3,39173.6
49537.6,39033.9
49621.6,38949.9
49621.6,38084.3
49821.6,38084.3
49821.6,38949.9
49946.6,39074.9
50312.1,39077.3
50410.1,39067.6
50504.4,39039
50591.2,38992.6
50667.4,38930.1
50729.9,38854
50776.3,38767.1
50804.9,38672.9
50814.5,38574.9
50812.1,38209.3
50687.1,38084.3
49821.6,38084.3
49621.6,38084.3
49605.8,38084.3
49605.8,37884.3
49621.6,37884.3
49621.6,37868.6
49821.6,37868.6
49821.6,37884.3
50687.1,37884.3
50812.1,37759.3
50812.4,37716.6
61227,37716.6
Z" /> 
</g>
</g>
</g>
<g style="fill:#FFFFFF; fill-opacity:1.0; 
stroke:#FFFFFF; stroke-width:200; stroke-opacity:1; 
stroke-linecap:round; stroke-linejoin:round;">
</g>
<g style="fill:#FFFFFF; fill-opacity:1.0; 
stroke:#FFFFFF; stroke-width:0; stroke-opacity:1; 
stroke-linecap:round; stroke-linejoin:round;">
<circle cx="52091.6" cy="45354.4" r="137.795" /> 
</g>
<g style="fill:#FFFFFF; fill-opacity:1.0; 
stroke:#FFFFFF; stroke-width:118.11; stroke-opacity:1; 
stroke-linecap:round; stroke-linejoin:round;">
</g>
<g style="fill:#FFFFFF; fill-opacity:1.0; 
stroke:#FFFFFF; stroke-width:0; stroke-opacity:1; 
stroke-linecap:round; stroke-linejoin:round;">
<circle cx="62320" cy="44283.5" r="137.795" /> 
</g>
<g style="fill:#FFFFFF; fill-opacity:1.0; 
stroke:#FFFFFF; stroke-width:118.11; stroke-opacity:1; 
stroke-linecap:round; stroke-linejoin:round;">
</g>
<g style="fill:#FFFFFF; fill-opacity:1.0; 
stroke:#FFFFFF; stroke-width:0; stroke-opacity:1; 
stroke-linecap:round; stroke-linejoin:round;">
<circle cx="62320" cy="46645.7" r="137.795" /> 
</g>
<g style="fill:#FFFFFF; fill-opacity:1.0; 
stroke:#FFFFFF; stroke-width:118.11; stroke-opacity:1; 
stroke-linecap:round; stroke-linejoin:round;">
</g>
<g style="fill:#FFFFFF; fill-opacity:1.0; 
stroke:#FFFFFF; stroke-width:0; stroke-opacity:1; 
stroke-linecap:round; stroke-linejoin:round;">
<circle cx="62320" cy="37984.3" r="137.795" /> 
</g>
<g style="fill:#FFFFFF; fill-opacity:1.0; 
stroke:#FFFFFF; stroke-width:118.11; stroke-opacity:1; 
stroke-linecap:round; stroke-linejoin:round;">
</g>
<g style="fill:#FFFFFF; fill-opacity:1.0; 
stroke:#FFFFFF; stroke-width:0; stroke-opacity:1; 
stroke-linecap:round; stroke-linejoin:round;">
<circle cx="62320" cy="40346.5" r="137.795" /> 
</g>
<g style="fill:#FFFFFF; fill-opacity:1.0; 
stroke:#FFFFFF; stroke-width:118.11; stroke-opacity:1; 
stroke-linecap:round; stroke-linejoin:round;">
</g>
<g style="fill:#FFFFFF; fill-opacity:1.0; 
stroke:#FFFFFF; stroke-width:0; stroke-opacity:1; 
stroke-linecap:round; stroke-linejoin:round;">
<circle cx="49721.6" cy="37984.3" r="137.795" /> 
</g>
<g style="fill:#FFFFFF; fill-opacity:1.0; 
stroke:#FFFFFF; stroke-width:118.11; stroke-opacity:1; 
stroke-linecap:round; stroke-linejoin:round;">
</g>
<g style="fill:#FFFFFF; fill-opacity:1.0; 
stroke:#FFFFFF; stroke-width:0; stroke-opacity:1; 
stroke-linecap:round; stroke-linejoin:round;">
<circle cx="49721.6" cy="46645.7" r="137.795" /> 
</g>
<g style="fill:#FFFFFF; fill-opacity:1.0; 
stroke:#FFFFFF; stroke-width:118.11; stroke-opacity:1; 
stroke-linecap:round; stroke-linejoin:round;">
</g>
<g style="fill:#000000; fill-opacity:1.0; 
stroke:#000000; stroke-width:118.11; stroke-opacity:1; 
stroke-linecap:round; stroke-linejoin:round;">
</g> 
</svg>
