<!DOCTYPE svg PUBLIC "-//W3C//DTD SVG 1.1//EN"
"http://www.w3.org/Graphics/SVG/1.1/DTD/svg11.dtd">
<svg xmlns="http://www.w3.org/2000/svg" xmlns:xlink="http://www.w3.org/1999/xlink" width="29.7002cm" height="21.0007cm" viewBox="0 0 11693 8268" font-family="Verdana, sans-serif" style="stroke-opacity:1.000000;fill-opacity:1.000000;"><rect fill="#FFFFFF00" width="11693" height="8268" style="stroke-opacity:1.0;fill-opacity:1.0;"></rect><polyline points="8450, 4900 8800, 4900" stroke-width="10px" stroke="#000000FF"></polyline><polyline points="3050, 4900 3400, 4900" stroke-width="10px" stroke="#000000FF"></polyline><polyline points="7700, 4600 8800, 4600" stroke-width="10px" stroke="#000000FF"></polyline><polyline points="7450, 4600 7700, 4600" stroke-width="10px" stroke="#000000FF"></polyline><polyline points="7200, 4600 7450, 4600" stroke-width="10px" stroke="#000000FF"></polyline><polyline points="6700, 4600 6800, 4600" stroke-width="10px" stroke="#000000FF"></polyline><polyline points="6050, 4600 6300, 4600" stroke-width="10px" stroke="#000000FF"></polyline><polyline points="5100, 3900 5300, 3900" stroke-width="10px" stroke="#000000FF"></polyline><polyline points="3850, 3900 4200, 3900" stroke-width="10px" stroke="#000000FF"></polyline><polyline points="7300, 3850 7450, 3850" stroke-width="10px" stroke="#000000FF"></polyline><polyline points="6050, 3750 6200, 3750" stroke-width="10px" stroke="#000000FF"></polyline><polyline points="8450, 3650 8800, 3650" stroke-width="10px" stroke="#000000FF"></polyline><polyline points="8200, 3650 8450, 3650" stroke-width="10px" stroke="#000000FF"></polyline><polyline points="7700, 3650 7900, 3650" stroke-width="10px" stroke="#000000FF"></polyline><polyline points="7300, 3650 7700, 3650" stroke-width="10px" stroke="#000000FF"></polyline><polyline points="5100, 3500 5300, 3500" stroke-width="10px" stroke="#000000FF"></polyline><polyline points="8450, 3100 8800, 3100" stroke-width="10px" stroke="#000000FF"></polyline><polyline points="5600, 3100 8450, 3100" stroke-width="10px" stroke="#000000FF"></polyline><polyline points="5100, 3100 5600, 3100" stroke-width="10px" stroke="#000000FF"></polyline><polyline points="3850, 3100 4200, 3100" stroke-width="10px" stroke="#000000FF"></polyline><polyline points="3400, 3100 3850, 3100" stroke-width="10px" stroke="#000000FF"></polyline><polyline points="3050, 3100 3400, 3100" stroke-width="10px" stroke="#000000FF"></polyline><polyline points="8450, 4900 8450, 5100" stroke-width="10px" stroke="#000000FF"></polyline><polyline points="8450, 4050 8450, 4150" stroke-width="10px" stroke="#000000FF"></polyline><polyline points="8450, 3650 8450, 3750" stroke-width="10px" stroke="#000000FF"></polyline><polyline points="8450, 3100 8450, 3650" stroke-width="10px" stroke="#000000FF"></polyline><polyline points="7700, 4300 7700, 4600" stroke-width="10px" stroke="#000000FF"></polyline><polyline points="7700, 3650 7700, 4000" stroke-width="10px" stroke="#000000FF"></polyline><polyline points="7450, 3850 7450, 4600" stroke-width="10px" stroke="#000000FF"></polyline><polyline points="7000, 4150 7000, 4300" stroke-width="10px" stroke="#000000FF"></polyline><polyline points="6500, 4150 6500, 4300" stroke-width="10px" stroke="#000000FF"></polyline><polyline points="6050, 4350 6050, 4600" stroke-width="10px" stroke="#000000FF"></polyline><polyline points="6050, 3750 6050, 4050" stroke-width="10px" stroke="#000000FF"></polyline><polyline points="5600, 3550 5600, 3650" stroke-width="10px" stroke="#000000FF"></polyline><polyline points="5600, 3100 5600, 3250" stroke-width="10px" stroke="#000000FF"></polyline><polyline points="5300, 3900 5300, 4000" stroke-width="10px" stroke="#000000FF"></polyline><polyline points="5300, 3850 5300, 3900" stroke-width="10px" stroke="#000000FF"></polyline><polyline points="5300, 3500 5300, 3550" stroke-width="10px" stroke="#000000FF"></polyline><polyline points="3850, 3850 3850, 3900" stroke-width="10px" stroke="#000000FF"></polyline><polyline points="3850, 3450 3850, 3550" stroke-width="10px" stroke="#000000FF"></polyline><polyline points="3850, 3100 3850, 3150" stroke-width="10px" stroke="#000000FF"></polyline><polyline points="3400, 4900 3400, 5100" stroke-width="10px" stroke="#000000FF"></polyline><polyline points="3400, 3500 3400, 3600" stroke-width="10px" stroke="#000000FF"></polyline><polyline points="3400, 3100 3400, 3200" stroke-width="10px" stroke="#000000FF"></polyline><text x="6500" y="4749" font-size="50.000000" text-anchor="middle" transform="rotate(0 6500 4749)" fill="#000000">Q1</text><text x="6500" y="4840" font-size="50.000000" text-anchor="middle" transform="rotate(0 6500 4840)" fill="#000000">FDC6401N</text><text x="7000" y="4749" font-size="50.000000" text-anchor="middle" transform="rotate(0 7000 4749)" fill="#000000">Q1</text><text x="7000" y="4840" font-size="50.000000" text-anchor="middle" transform="rotate(0 7000 4840)" fill="#000000">FDC6401N</text><text x="3395" y="5273" font-size="50.000000" text-anchor="middle" transform="rotate(0 3395 5273)" fill="#000000">GND</text><polyline points="3450, 5150 3400, 5150" stroke-width="10px" stroke="#000000"></polyline><polyline points="3400, 5200 3450, 5150" stroke-width="10px" stroke="#000000"></polyline><polyline points="3350, 5150 3400, 5200" stroke-width="10px" stroke="#000000"></polyline><polyline points="3400, 5150 3350, 5150" stroke-width="10px" stroke="#000000"></polyline><polyline points="3400, 5100 3400, 5150" stroke-width="10px" stroke="#000000"></polyline><text x="2958" y="4715" font-size="50.000000" text-anchor="middle" transform="rotate(0 2958 4715)" fill="#000000">J2</text><text x="2958" y="4806" font-size="50.000000" text-anchor="middle" transform="rotate(0 2958 4806)" fill="#000000">IN-</text><text x="3050" y="4900" font-size="50.000000" text-anchor="end" transform="rotate(0 3050 4900)" fill="#000000">1</text><polyline points="2900, 4900 3050, 4900" stroke-width="10px" stroke="#000000"></polyline><polyline points="2900, 4900 2870, 4900" stroke-width="10px" stroke="#000000"></polyline><path d="M2850,4880 A20,20 0 0,0 2850,4920" fill="none" stroke-width="10px" stroke="#000000"></path><text x="8455" y="5273" font-size="50.000000" text-anchor="middle" transform="rotate(0 8455 5273)" fill="#000000">GND</text><polyline points="8400, 5150 8450, 5150" stroke-width="10px" stroke="#000000"></polyline><polyline points="8450, 5200 8400, 5150" stroke-width="10px" stroke="#000000"></polyline><polyline points="8500, 5150 8450, 5200" stroke-width="10px" stroke="#000000"></polyline><polyline points="8450, 5150 8500, 5150" stroke-width="10px" stroke="#000000"></polyline><polyline points="8450, 5100 8450, 5150" stroke-width="10px" stroke="#000000"></polyline><text x="9028" y="4874" font-size="50.000000" text-anchor="start" transform="rotate(0 9028 4874)" fill="#000000">J6</text><text x="9028" y="4965" font-size="50.000000" text-anchor="start" transform="rotate(0 9028 4965)" fill="#000000">OUT-</text><text x="8800" y="4900" font-size="50.000000" text-anchor="start" transform="rotate(0 8800 4900)" fill="#000000">1</text><polyline points="8950, 4900 8800, 4900" stroke-width="10px" stroke="#000000"></polyline><polyline points="8950, 4900 8980, 4900" stroke-width="10px" stroke="#000000"></polyline><path d="M9000,4880 A20,20 0 0,0 9000,4920" fill="none" stroke-width="10px" stroke="#000000"></path><text x="9028" y="4574" font-size="50.000000" text-anchor="start" transform="rotate(0 9028 4574)" fill="#000000">J5</text><text x="9028" y="4665" font-size="50.000000" text-anchor="start" transform="rotate(0 9028 4665)" fill="#000000">B-</text><text x="8800" y="4600" font-size="50.000000" text-anchor="start" transform="rotate(0 8800 4600)" fill="#000000">1</text><polyline points="8950, 4600 8800, 4600" stroke-width="10px" stroke="#000000"></polyline><polyline points="8950, 4600 8980, 4600" stroke-width="10px" stroke="#000000"></polyline><path d="M9000,4580 A20,20 0 0,0 9000,4620" fill="none" stroke-width="10px" stroke="#000000"></path><text x="9028" y="3624" font-size="50.000000" text-anchor="start" transform="rotate(0 9028 3624)" fill="#000000">J4</text><text x="9028" y="3715" font-size="50.000000" text-anchor="start" transform="rotate(0 9028 3715)" fill="#000000">B+</text><text x="8800" y="3650" font-size="50.000000" text-anchor="start" transform="rotate(0 8800 3650)" fill="#000000">1</text><polyline points="8950, 3650 8800, 3650" stroke-width="10px" stroke="#000000"></polyline><polyline points="8950, 3650 8980, 3650" stroke-width="10px" stroke="#000000"></polyline><path d="M9000,3630 A20,20 0 0,0 9000,3670" fill="none" stroke-width="10px" stroke="#000000"></path><text x="9028" y="3074" font-size="50.000000" text-anchor="start" transform="rotate(0 9028 3074)" fill="#000000">J3</text><text x="9028" y="3165" font-size="50.000000" text-anchor="start" transform="rotate(0 9028 3165)" fill="#000000">OUT+</text><text x="8800" y="3100" font-size="50.000000" text-anchor="start" transform="rotate(0 8800 3100)" fill="#000000">1</text><polyline points="8950, 3100 8800, 3100" stroke-width="10px" stroke="#000000"></polyline><polyline points="8950, 3100 8980, 3100" stroke-width="10px" stroke="#000000"></polyline><path d="M9000,3080 A20,20 0 0,0 9000,3120" fill="none" stroke-width="10px" stroke="#000000"></path><text x="2958" y="2875" font-size="50.000000" text-anchor="middle" transform="rotate(0 2958 2875)" fill="#000000">J1</text><text x="2958" y="2966" font-size="50.000000" text-anchor="middle" transform="rotate(0 2958 2966)" fill="#000000">IN+</text><text x="3050" y="3100" font-size="50.000000" text-anchor="end" transform="rotate(0 3050 3100)" fill="#000000">1</text><polyline points="2900, 3100 3050, 3100" stroke-width="10px" stroke="#000000"></polyline><polyline points="2900, 3100 2870, 3100" stroke-width="10px" stroke="#000000"></polyline><path d="M2850,3120 A20,20 0 0,0 2850,3080" fill="none" stroke-width="10px" stroke="#000000"></path><circle r="10" cx="8450" cy="3100" fill="#000000" stroke-width="10px" stroke="#000000"></circle><circle r="10" cx="5600" cy="3100" fill="#000000" stroke-width="10px" stroke="#000000"></circle><text x="3150" y="3100" font-size="50.000000" text-anchor="start" transform="rotate(0 3150 3100)" fill="#000000FF">IN+</text><circle r="10" cx="3400" cy="3100" fill="#000000" stroke-width="10px" stroke="#000000"></circle><text x="3405" y="3773" font-size="50.000000" text-anchor="middle" transform="rotate(0 3405 3773)" fill="#000000">GND</text><polyline points="3350, 3650 3400, 3650" stroke-width="10px" stroke="#000000"></polyline><polyline points="3400, 3700 3350, 3650" stroke-width="10px" stroke="#000000"></polyline><polyline points="3450, 3650 3400, 3700" stroke-width="10px" stroke="#000000"></polyline><polyline points="3400, 3650 3450, 3650" stroke-width="10px" stroke="#000000"></polyline><polyline points="3400, 3600 3400, 3650" stroke-width="10px" stroke="#000000"></polyline><text x="5605" y="3823" font-size="50.000000" text-anchor="middle" transform="rotate(0 5605 3823)" fill="#000000">GND</text><polyline points="5550, 3700 5600, 3700" stroke-width="10px" stroke="#000000"></polyline><polyline points="5600, 3750 5550, 3700" stroke-width="10px" stroke="#000000"></polyline><polyline points="5650, 3700 5600, 3750" stroke-width="10px" stroke="#000000"></polyline><polyline points="5600, 3700 5650, 3700" stroke-width="10px" stroke="#000000"></polyline><polyline points="5600, 3650 5600, 3700" stroke-width="10px" stroke="#000000"></polyline><text x="8455" y="4323" font-size="50.000000" text-anchor="middle" transform="rotate(0 8455 4323)" fill="#000000">GND</text><polyline points="8400, 4200 8450, 4200" stroke-width="10px" stroke="#000000"></polyline><polyline points="8450, 4250 8400, 4200" stroke-width="10px" stroke="#000000"></polyline><polyline points="8500, 4200 8450, 4250" stroke-width="10px" stroke="#000000"></polyline><polyline points="8450, 4200 8500, 4200" stroke-width="10px" stroke="#000000"></polyline><polyline points="8450, 4150 8450, 4200" stroke-width="10px" stroke="#000000"></polyline><text x="5305" y="4173" font-size="50.000000" text-anchor="middle" transform="rotate(0 5305 4173)" fill="#000000">GND</text><polyline points="5250, 4050 5300, 4050" stroke-width="10px" stroke="#000000"></polyline><polyline points="5300, 4100 5250, 4050" stroke-width="10px" stroke="#000000"></polyline><polyline points="5350, 4050 5300, 4100" stroke-width="10px" stroke="#000000"></polyline><polyline points="5300, 4050 5350, 4050" stroke-width="10px" stroke="#000000"></polyline><polyline points="5300, 4000 5300, 4050" stroke-width="10px" stroke="#000000"></polyline><text x="8565" y="3854" font-size="50.000000" text-anchor="start" transform="rotate(0 8565 3854)" fill="#000000">C4</text><text x="8565" y="3945" font-size="50.000000" text-anchor="start" transform="rotate(0 8565 3945)" fill="#000000">100nF</text><polyline points="8450, 3940 8450, 4050" stroke-width="10px" stroke="#000000"></polyline><polyline points="8450, 3860 8450, 3750" stroke-width="10px" stroke="#000000"></polyline><polyline points="8530, 3870 8370, 3870" stroke-width="10px" stroke="#000000"></polyline><polyline points="8530, 3930 8370, 3930" stroke-width="10px" stroke="#000000"></polyline><circle r="10" cx="3850" cy="3100" fill="#000000" stroke-width="10px" stroke="#000000"></circle><text x="3515" y="3304" font-size="50.000000" text-anchor="start" transform="rotate(0 3515 3304)" fill="#000000">C1</text><text x="3515" y="3395" font-size="50.000000" text-anchor="start" transform="rotate(0 3515 3395)" fill="#000000">4.7uF</text><polyline points="3400, 3390 3400, 3500" stroke-width="10px" stroke="#000000"></polyline><polyline points="3400, 3310 3400, 3200" stroke-width="10px" stroke="#000000"></polyline><polyline points="3480, 3320 3320, 3320" stroke-width="10px" stroke="#000000"></polyline><polyline points="3480, 3380 3320, 3380" stroke-width="10px" stroke="#000000"></polyline><text x="5715" y="3354" font-size="50.000000" text-anchor="start" transform="rotate(0 5715 3354)" fill="#000000">C2</text><text x="5715" y="3445" font-size="50.000000" text-anchor="start" transform="rotate(0 5715 3445)" fill="#000000">4.7uF</text><polyline points="5600, 3440 5600, 3550" stroke-width="10px" stroke="#000000"></polyline><polyline points="5600, 3360 5600, 3250" stroke-width="10px" stroke="#000000"></polyline><polyline points="5680, 3370 5520, 3370" stroke-width="10px" stroke="#000000"></polyline><polyline points="5680, 3430 5520, 3430" stroke-width="10px" stroke="#000000"></polyline><text x="3781" y="3654" font-size="50.000000" text-anchor="end" transform="rotate(0 3781 3654)" fill="#000000">R1</text><text x="3781" y="3745" font-size="50.000000" text-anchor="end" transform="rotate(0 3781 3745)" fill="#000000">470</text><polyline points="3850, 3600 3850, 3550" stroke-width="10px" stroke="#000000"></polyline><polyline points="3850, 3800 3850, 3850" stroke-width="10px" stroke="#000000"></polyline><polyline points="3890, 3600 3810, 3600" stroke-width="10px" stroke="#000000"></polyline><polyline points="3890, 3800 3890, 3600" stroke-width="10px" stroke="#000000"></polyline><polyline points="3810, 3800 3890, 3800" stroke-width="10px" stroke="#000000"></polyline><polyline points="3810, 3600 3810, 3800" stroke-width="10px" stroke="#000000"></polyline><text x="3968" y="3261" font-size="50.000000" text-anchor="start" transform="rotate(0 3968 3261)" fill="#000000">D1</text><text x="3968" y="3352" font-size="50.000000" text-anchor="start" transform="rotate(0 3968 3352)" fill="#000000">STAT</text><polyline points="3850, 3250 3850, 3150" stroke-width="10px" stroke="#000000"></polyline><polyline points="3850, 3350 3850, 3450" stroke-width="10px" stroke="#000000"></polyline><polyline points="3940, 3430 3910, 3430" stroke-width="10px" stroke="#000000"></polyline><polyline points="3940, 3400 3940, 3430" stroke-width="10px" stroke="#000000"></polyline><polyline points="3940, 3430 3940, 3400" stroke-width="10px" stroke="#000000"></polyline><polyline points="3880, 3370 3940, 3430" stroke-width="10px" stroke="#000000"></polyline><polyline points="3940, 3480 3910, 3480" stroke-width="10px" stroke="#000000"></polyline><polyline points="3940, 3450 3940, 3480" stroke-width="10px" stroke="#000000"></polyline><polyline points="3940, 3480 3940, 3450" stroke-width="10px" stroke="#000000"></polyline><polyline points="3880, 3420 3940, 3480" stroke-width="10px" stroke="#000000"></polyline><polyline points="3850, 3350 3900, 3250" stroke-width="10px" stroke="#000000"></polyline><polyline points="3800, 3250 3850, 3350" stroke-width="10px" stroke="#000000"></polyline><polyline points="3900, 3250 3800, 3250" stroke-width="10px" stroke="#000000"></polyline><polyline points="3900, 3250 3900, 3250" stroke-width="10px" stroke="#000000"></polyline><polyline points="3850, 3350 3850, 3250" stroke-width="10px" stroke="#000000"></polyline><polyline points="3900, 3350 3800, 3350" stroke-width="10px" stroke="#000000"></polyline><circle r="10" cx="5300" cy="3900" fill="#000000" stroke-width="10px" stroke="#000000"></circle><text x="5230" y="3654" font-size="50.000000" text-anchor="end" transform="rotate(0 5230 3654)" fill="#000000">R2</text><text x="5230" y="3745" font-size="50.000000" text-anchor="end" transform="rotate(0 5230 3745)" fill="#000000">2K</text><polyline points="5300, 3600 5300, 3550" stroke-width="10px" stroke="#000000"></polyline><polyline points="5300, 3800 5300, 3850" stroke-width="10px" stroke="#000000"></polyline><polyline points="5340, 3600 5260, 3600" stroke-width="10px" stroke="#000000"></polyline><polyline points="5340, 3800 5340, 3600" stroke-width="10px" stroke="#000000"></polyline><polyline points="5260, 3800 5340, 3800" stroke-width="10px" stroke="#000000"></polyline><polyline points="5260, 3600 5260, 3800" stroke-width="10px" stroke="#000000"></polyline><text x="8700" y="4600" font-size="50.000000" text-anchor="end" transform="rotate(0 8700 4600)" fill="#000000FF">B-</text><text x="8700" y="3100" font-size="50.000000" text-anchor="end" transform="rotate(0 8700 3100)" fill="#000000FF">OUT+</text><text x="8700" y="3650" font-size="50.000000" text-anchor="end" transform="rotate(0 8700 3650)" fill="#000000FF">B+</text><circle r="10" cx="8450" cy="3650" fill="#000000" stroke-width="10px" stroke="#000000"></circle><circle r="10" cx="7700" cy="4600" fill="#000000" stroke-width="10px" stroke="#000000"></circle><text x="5981" y="4154" font-size="50.000000" text-anchor="end" transform="rotate(0 5981 4154)" fill="#000000">R3</text><text x="5981" y="4245" font-size="50.000000" text-anchor="end" transform="rotate(0 5981 4245)" fill="#000000">2.7K</text><polyline points="6050, 4100 6050, 4050" stroke-width="10px" stroke="#000000"></polyline><polyline points="6050, 4300 6050, 4350" stroke-width="10px" stroke="#000000"></polyline><polyline points="6090, 4100 6010, 4100" stroke-width="10px" stroke="#000000"></polyline><polyline points="6090, 4300 6090, 4100" stroke-width="10px" stroke="#000000"></polyline><polyline points="6010, 4300 6090, 4300" stroke-width="10px" stroke="#000000"></polyline><polyline points="6010, 4100 6010, 4300" stroke-width="10px" stroke="#000000"></polyline><circle r="10" cx="7700" cy="3650" fill="#000000" stroke-width="10px" stroke="#000000"></circle><circle r="10" cx="7450" cy="4600" fill="#000000" stroke-width="10px" stroke="#000000"></circle><text x="7815" y="4104" font-size="50.000000" text-anchor="start" transform="rotate(0 7815 4104)" fill="#000000">C3</text><text x="7815" y="4195" font-size="50.000000" text-anchor="start" transform="rotate(0 7815 4195)" fill="#000000">100nF</text><polyline points="7700, 4190 7700, 4300" stroke-width="10px" stroke="#000000"></polyline><polyline points="7700, 4110 7700, 4000" stroke-width="10px" stroke="#000000"></polyline><polyline points="7780, 4120 7620, 4120" stroke-width="10px" stroke="#000000"></polyline><polyline points="7780, 4180 7620, 4180" stroke-width="10px" stroke="#000000"></polyline><text x="8050" y="3443" font-size="50.000000" text-anchor="middle" transform="rotate(0 8050 3443)" fill="#000000">R4</text><text x="8050" y="3534" font-size="50.000000" text-anchor="middle" transform="rotate(0 8050 3534)" fill="#000000">330</text><polyline points="8150, 3650 8200, 3650" stroke-width="10px" stroke="#000000"></polyline><polyline points="7950, 3650 7900, 3650" stroke-width="10px" stroke="#000000"></polyline><polyline points="8150, 3690 8150, 3610" stroke-width="10px" stroke="#000000"></polyline><polyline points="7950, 3690 8150, 3690" stroke-width="10px" stroke="#000000"></polyline><polyline points="7950, 3610 7950, 3690" stroke-width="10px" stroke="#000000"></polyline><polyline points="8150, 3610 7950, 3610" stroke-width="10px" stroke="#000000"></polyline><text x="6750" y="3285" font-size="50.000000" text-anchor="middle" transform="rotate(0 6750 3285)" fill="#000000">U2</text><text x="6750" y="3376" font-size="50.000000" text-anchor="middle" transform="rotate(0 6750 3376)" fill="#000000">AP9101CK6</text><text x="4650" y="2835" font-size="50.000000" text-anchor="middle" transform="rotate(0 4650 2835)" fill="#000000">U1</text><text x="4650" y="2926" font-size="50.000000" text-anchor="middle" transform="rotate(0 4650 2926)" fill="#000000">MCP73831</text><text x="9893" y="8218" font-size="50.000000" text-anchor="start" transform="rotate(0 9893 8218)" fill="#000000">Git rev dbf4a3c</text><text x="8693" y="7968" font-size="50.000000" text-anchor="start" transform="rotate(0 8693 7968)" fill="#000000">maykolrey.com</text><text x="10893" y="8118" font-size="100.000000" text-anchor="start" transform="rotate(0 10893 8118)" fill="#000000">Rev: V 1.0.0</text><text x="8193" y="7968" font-size="50.000000" text-anchor="start" transform="rotate(0 8193 7968)" fill="#000000">Date: 2020-09-01</text><text x="7693" y="8118" font-size="100.000000" text-anchor="start" transform="rotate(0 7693 8118)" fill="#000000">Title: Cargador de Baterias Litio</text><text x="7693" y="7968" font-size="50.000000" text-anchor="start" transform="rotate(0 7693 7968)" fill="#000000">Page: 1 1</text><rect x="7593" y="7618" width="4000" height="400" fill="none" stroke-width="5px" stroke="#000000"></rect><rect x="7593" y="7918" width="4000" height="100" fill="none" stroke-width="5px" stroke="#000000"></rect><rect x="7593" y="8018" width="4000" height="150" fill="none" stroke-width="5px" stroke="#000000"></rect><rect x="100" y="100" width="11493" height="8068" fill="none" stroke-width="5px" stroke="#000000"></rect></svg>