<!DOCTYPE svg PUBLIC "-//W3C//DTD SVG 1.1//EN" "http://www.w3.org/Graphics/SVG/1.1/DTD/svg11.dtd">
<svg xmlns="http://www.w3.org/2000/svg" version="1.1" width="35.708335mm" height="18.761552mm" viewBox="-69374 38535 14058 7386">
            <title>Picture generated by PcbDraw </title>
            <desc>Picture generated by PcbDraw</desc>
        <defs><clipPath id="cut-off"><path d=" M 66535.0 45275.0 L 55708.0 45275.0 L 55708.0 40157.0 L 66535.0 40157.0 L 66535.0 45275.0 " style="fill-rule: evenodd;"/></clipPath><mask id="pads-mask"><g style="fill:#ffffff; fill-opacity:0.0;  stroke:#ffffff; stroke-width:98.4252; stroke-opacity:1;  stroke-linecap:round; stroke-linejoin:round;">
<text x="60236.2" y="44291.3" transform="scale(-1 1) translate(-120472.440945 0)" textLength="4562.89" font-size="524.934" lengthAdjust="spacingAndGlyphs" text-anchor="middle" opacity="0">MAYKOLREY.COM</text>
<path d="M62575 44272 L62526 43878 L62430 44160 L62263 43878 L62312 44272 "/>
<path d="M62130 44160 L61942 44160 "/>
<path d="M62181 44272 L62001 43878 L61919 44272 "/>
<path d="M61689 44085 L61712 44272 "/>
<path d="M61795 43878 L61689 44085 L61532 43878 "/>
<path d="M61450 44272 L61401 43878 "/>
<path d="M61225 44272 L61366 44047 "/>
<path d="M61176 43878 L61429 44103 "/>
<path d="M60932 43878 L60857 43878 L60822 43897 L60789 43935 L60780 44010 L60796 44141 L60824 44216 L60866 44253 L60906 44272 L60981 44272 L61016 44253 L61049 44216 L61059 44141 L61042 44010 L61014 43935 L60972 43897 L60932 43878 "/>
<path d="M60456 44272 L60644 44272 L60595 43878 "/>
<path d="M60100 44272 L60208 44085 "/>
<path d="M60325 44272 L60276 43878 L60126 43878 L60091 43897 L60074 43916 L60060 43953 L60067 44010 L60091 44047 L60112 44066 L60152 44085 L60302 44085 "/>
<path d="M59906 44066 L59774 44066 "/>
<path d="M59744 44272 L59931 44272 L59882 43878 L59695 43878 "/>
<path d="M59477 44085 L59500 44272 "/>
<path d="M59582 43878 L59477 44085 L59320 43878 "/>
<path d="M59233 44235 L59217 44253 L59238 44272 L59254 44253 L59233 44235 L59238 44272 "/>
<path d="M58821 44235 L58842 44253 L58900 44272 L58938 44272 L58992 44253 L59025 44216 L59039 44178 L59048 44103 L59041 44047 L59013 43972 L58989 43935 L58947 43897 L58889 43878 L58851 43878 L58797 43897 L58781 43916 "/>
<path d="M58532 43878 L58457 43878 L58422 43897 L58389 43935 L58380 44010 L58396 44141 L58425 44216 L58467 44253 L58507 44272 L58582 44272 L58617 44253 L58650 44216 L58659 44141 L58643 44010 L58614 43935 L58572 43897 L58532 43878 "/>
<path d="M58244 44272 L58195 43878 L58099 44160 L57932 43878 L57982 44272 "/>
<g style="fill:#ffffff; fill-opacity:1.0;  stroke:#ffffff; stroke-width:0; stroke-opacity:1;  stroke-linecap:round; stroke-linejoin:round;">
<path style="fill:#ffffff; fill-opacity:1.0;  stroke:#ffffff; stroke-width:0; stroke-opacity:1;  stroke-linecap:round; stroke-linejoin:round;fill-rule:evenodd;" d="M 66438.9,44567 66440.8,44567.3 66442.7,44567.8 66444.5,44568.4 66446.3,44569.3 66447.9,44570.2 66449.5,44571.4 66450.9,44572.7 66452.2,44574.1 66453.4,44575.7 66454.4,44577.3 66455.2,44579.1 66455.8,44580.9 66456.3,44582.8 66456.6,44584.7 66456.7,44586.6 66456.7,45177.2 66456.6,45179.1 66456.3,45181 66455.8,45182.9 66455.2,45184.7 66454.4,45186.4 66453.4,45188.1 66452.2,45189.7 66450.9,45191.1 66449.5,45192.4 66447.9,45193.5 66446.3,45194.5 66444.5,45195.4 66442.7,45196 66440.8,45196.5 66438.9,45196.8 66437,45196.9 65846.5,45196.9 65844.5,45196.8 65842.6,45196.5 65840.7,45196 65838.9,45195.4 65837.2,45194.5 65835.5,45193.5 65834,45192.4 65832.5,45191.1 65831.2,45189.7 65830.1,45188.1 65829.1,45186.4 65828.3,45184.7 65827.6,45182.9 65827.1,45181 65826.9,45179.1 65826.8,45177.2 65826.8,44586.6 65826.9,44584.7 65827.1,44582.8 65827.6,44580.9 65828.3,44579.1 65829.1,44577.3 65830.1,44575.7 65831.2,44574.1 65832.5,44572.7 65834,44571.4 65835.5,44570.2 65837.2,44569.3 65838.9,44568.4 65840.7,44567.8 65842.6,44567.3 65844.5,44567 65846.5,44566.9 66437,44566.9 Z"/> 
</g>
<g style="fill:#ffffff; fill-opacity:1.0;  stroke:#ffffff; stroke-width:0; stroke-opacity:1;  stroke-linecap:round; stroke-linejoin:round;">
<path style="fill:#ffffff; fill-opacity:1.0;  stroke:#ffffff; stroke-width:0; stroke-opacity:1;  stroke-linecap:round; stroke-linejoin:round;fill-rule:evenodd;" d="M 66438.9,43189.1 66440.8,43189.4 66442.7,43189.8 66444.5,43190.5 66446.3,43191.3 66447.9,43192.3 66449.5,43193.4 66450.9,43194.7 66452.2,43196.2 66453.4,43197.7 66454.4,43199.4 66455.2,43201.1 66455.8,43202.9 66456.3,43204.8 66456.6,43206.7 66456.7,43208.7 66456.7,43799.2 66456.6,43801.1 66456.3,43803.1 66455.8,43804.9 66455.2,43806.7 66454.4,43808.5 66453.4,43810.1 66452.2,43811.7 66450.9,43813.1 66449.5,43814.4 66447.9,43815.6 66446.3,43816.6 66444.5,43817.4 66442.7,43818.1 66440.8,43818.5 66438.9,43818.8 66437,43818.9 65846.5,43818.9 65844.5,43818.8 65842.6,43818.5 65840.7,43818.1 65838.9,43817.4 65837.2,43816.6 65835.5,43815.6 65834,43814.4 65832.5,43813.1 65831.2,43811.7 65830.1,43810.1 65829.1,43808.5 65828.3,43806.7 65827.6,43804.9 65827.1,43803.1 65826.9,43801.1 65826.8,43799.2 65826.8,43208.7 65826.9,43206.7 65827.1,43204.8 65827.6,43202.9 65828.3,43201.1 65829.1,43199.4 65830.1,43197.7 65831.2,43196.2 65832.5,43194.7 65834,43193.4 65835.5,43192.3 65837.2,43191.3 65838.9,43190.5 65840.7,43189.8 65842.6,43189.4 65844.5,43189.1 65846.5,43189 66437,43189 Z"/> 
</g>
<g style="fill:#ffffff; fill-opacity:1.0;  stroke:#ffffff; stroke-width:0; stroke-opacity:1;  stroke-linecap:round; stroke-linejoin:round;">
<path style="fill:#ffffff; fill-opacity:1.0;  stroke:#ffffff; stroke-width:0; stroke-opacity:1;  stroke-linecap:round; stroke-linejoin:round;fill-rule:evenodd;" d="M 66438.9,40236.3 66440.8,40236.6 66442.7,40237.1 66444.5,40237.7 66446.3,40238.5 66447.9,40239.5 66449.5,40240.7 66450.9,40242 66452.2,40243.4 66453.4,40245 66454.4,40246.6 66455.2,40248.4 66455.8,40250.2 66456.3,40252.1 66456.6,40254 66456.7,40255.9 66456.7,40846.5 66456.6,40848.4 66456.3,40850.3 66455.8,40852.2 66455.2,40854 66454.4,40855.7 66453.4,40857.4 66452.2,40858.9 66450.9,40860.4 66449.5,40861.7 66447.9,40862.8 66446.3,40863.8 66444.5,40864.6 66442.7,40865.3 66440.8,40865.8 66438.9,40866 66437,40866.1 65846.5,40866.1 65844.5,40866 65842.6,40865.8 65840.7,40865.3 65838.9,40864.6 65837.2,40863.8 65835.5,40862.8 65834,40861.7 65832.5,40860.4 65831.2,40858.9 65830.1,40857.4 65829.1,40855.7 65828.3,40854 65827.6,40852.2 65827.1,40850.3 65826.9,40848.4 65826.8,40846.5 65826.8,40255.9 65826.9,40254 65827.1,40252.1 65827.6,40250.2 65828.3,40248.4 65829.1,40246.6 65830.1,40245 65831.2,40243.4 65832.5,40242 65834,40240.7 65835.5,40239.5 65837.2,40238.5 65838.9,40237.7 65840.7,40237.1 65842.6,40236.6 65844.5,40236.3 65846.5,40236.2 66437,40236.2 Z"/> 
</g>
<g style="fill:#ffffff; fill-opacity:1.0;  stroke:#ffffff; stroke-width:0; stroke-opacity:1;  stroke-linecap:round; stroke-linejoin:round;">
<path style="fill:#ffffff; fill-opacity:1.0;  stroke:#ffffff; stroke-width:0; stroke-opacity:1;  stroke-linecap:round; stroke-linejoin:round;fill-rule:evenodd;" d="M 66438.9,41614.3 66440.8,41614.6 66442.7,41615 66444.5,41615.7 66446.3,41616.5 66447.9,41617.5 66449.5,41618.6 66450.9,41619.9 66452.2,41621.4 66453.4,41622.9 66454.4,41624.6 66455.2,41626.3 66455.8,41628.1 66456.3,41630 66456.6,41631.9 66456.7,41633.9 66456.7,42224.4 66456.6,42226.3 66456.3,42228.2 66455.8,42230.1 66455.2,42231.9 66454.4,42233.7 66453.4,42235.3 66452.2,42236.9 66450.9,42238.3 66449.5,42239.6 66447.9,42240.8 66446.3,42241.8 66444.5,42242.6 66442.7,42243.2 66440.8,42243.7 66438.9,42244 66437,42244.1 65846.5,42244.1 65844.5,42244 65842.6,42243.7 65840.7,42243.2 65838.9,42242.6 65837.2,42241.8 65835.5,42240.8 65834,42239.6 65832.5,42238.3 65831.2,42236.9 65830.1,42235.3 65829.1,42233.7 65828.3,42231.9 65827.6,42230.1 65827.1,42228.2 65826.9,42226.3 65826.8,42224.4 65826.8,41633.9 65826.9,41631.9 65827.1,41630 65827.6,41628.1 65828.3,41626.3 65829.1,41624.6 65830.1,41622.9 65831.2,41621.4 65832.5,41619.9 65834,41618.6 65835.5,41617.5 65837.2,41616.5 65838.9,41615.7 65840.7,41615 65842.6,41614.6 65844.5,41614.3 65846.5,41614.2 66437,41614.2 Z"/> 
</g>
<g style="fill:#ffffff; fill-opacity:1.0;  stroke:#ffffff; stroke-width:0; stroke-opacity:1;  stroke-linecap:round; stroke-linejoin:round;">
<path style="fill:#ffffff; fill-opacity:1.0;  stroke:#ffffff; stroke-width:0; stroke-opacity:1;  stroke-linecap:round; stroke-linejoin:round;fill-rule:evenodd;" d="M 56399.6,40236.3 56401.5,40236.6 56403.4,40237.1 56405.2,40237.7 56406.9,40238.5 56408.6,40239.5 56410.1,40240.7 56411.6,40242 56412.9,40243.4 56414,40245 56415,40246.6 56415.8,40248.4 56416.5,40250.2 56416.9,40252.1 56417.2,40254 56417.3,40255.9 56417.3,40846.5 56417.2,40848.4 56416.9,40850.3 56416.5,40852.2 56415.8,40854 56415,40855.7 56414,40857.4 56412.9,40858.9 56411.6,40860.4 56410.1,40861.7 56408.6,40862.8 56406.9,40863.8 56405.2,40864.6 56403.4,40865.3 56401.5,40865.8 56399.6,40866 56397.6,40866.1 55807.1,40866.1 55805.2,40866 55803.2,40865.8 55801.4,40865.3 55799.6,40864.6 55797.8,40863.8 55796.2,40862.8 55794.6,40861.7 55793.2,40860.4 55791.9,40858.9 55790.7,40857.4 55789.7,40855.7 55788.9,40854 55788.2,40852.2 55787.8,40850.3 55787.5,40848.4 55787.4,40846.5 55787.4,40255.9 55787.5,40254 55787.8,40252.1 55788.2,40250.2 55788.9,40248.4 55789.7,40246.6 55790.7,40245 55791.9,40243.4 55793.2,40242 55794.6,40240.7 55796.2,40239.5 55797.8,40238.5 55799.6,40237.7 55801.4,40237.1 55803.2,40236.6 55805.2,40236.3 55807.1,40236.2 56397.6,40236.2 Z"/> 
</g>
<g style="fill:#ffffff; fill-opacity:1.0;  stroke:#ffffff; stroke-width:0; stroke-opacity:1;  stroke-linecap:round; stroke-linejoin:round;">
<path style="fill:#ffffff; fill-opacity:1.0;  stroke:#ffffff; stroke-width:0; stroke-opacity:1;  stroke-linecap:round; stroke-linejoin:round;fill-rule:evenodd;" d="M 56399.6,44370.2 56401.5,44370.5 56403.4,44370.9 56405.2,44371.6 56406.9,44372.4 56408.6,44373.4 56410.1,44374.5 56411.6,44375.8 56412.9,44377.3 56414,44378.8 56415,44380.5 56415.8,44382.2 56416.5,44384 56416.9,44385.9 56417.2,44387.8 56417.3,44389.8 56417.3,44980.3 56417.2,44982.2 56416.9,44984.2 56416.5,44986 56415.8,44987.8 56415,44989.6 56414,44991.3 56412.9,44992.8 56411.6,44994.2 56410.1,44995.5 56408.6,44996.7 56406.9,44997.7 56405.2,44998.5 56403.4,44999.2 56401.5,44999.6 56399.6,44999.9 56397.6,45000 55807.1,45000 55805.2,44999.9 55803.2,44999.6 55801.4,44999.2 55799.6,44998.5 55797.8,44997.7 55796.2,44996.7 55794.6,44995.5 55793.2,44994.2 55791.9,44992.8 55790.7,44991.3 55789.7,44989.6 55788.9,44987.8 55788.2,44986 55787.8,44984.2 55787.5,44982.2 55787.4,44980.3 55787.4,44389.8 55787.5,44387.8 55787.8,44385.9 55788.2,44384 55788.9,44382.2 55789.7,44380.5 55790.7,44378.8 55791.9,44377.3 55793.2,44375.8 55794.6,44374.5 55796.2,44373.4 55797.8,44372.4 55799.6,44371.6 55801.4,44370.9 55803.2,44370.5 55805.2,44370.2 55807.1,44370.1 56397.6,44370.1 Z"/> 
</g>
</g> 
</mask><mask id="pads-mask-silkscreen"><rect x="55314" y="38535" width="14099" height="7386" fill="white"/><g style="fill:#000000; fill-opacity:0.0;  stroke:#000000; stroke-width:98.4252; stroke-opacity:1;  stroke-linecap:round; stroke-linejoin:round;">
<text x="60236.2" y="44291.3" transform="scale(-1 1) translate(-120472.440945 0)" textLength="4562.89" font-size="524.934" lengthAdjust="spacingAndGlyphs" text-anchor="middle" opacity="0">MAYKOLREY.COM</text>
<path d="M62575 44272 L62526 43878 L62430 44160 L62263 43878 L62312 44272 "/>
<path d="M62130 44160 L61942 44160 "/>
<path d="M62181 44272 L62001 43878 L61919 44272 "/>
<path d="M61689 44085 L61712 44272 "/>
<path d="M61795 43878 L61689 44085 L61532 43878 "/>
<path d="M61450 44272 L61401 43878 "/>
<path d="M61225 44272 L61366 44047 "/>
<path d="M61176 43878 L61429 44103 "/>
<path d="M60932 43878 L60857 43878 L60822 43897 L60789 43935 L60780 44010 L60796 44141 L60824 44216 L60866 44253 L60906 44272 L60981 44272 L61016 44253 L61049 44216 L61059 44141 L61042 44010 L61014 43935 L60972 43897 L60932 43878 "/>
<path d="M60456 44272 L60644 44272 L60595 43878 "/>
<path d="M60100 44272 L60208 44085 "/>
<path d="M60325 44272 L60276 43878 L60126 43878 L60091 43897 L60074 43916 L60060 43953 L60067 44010 L60091 44047 L60112 44066 L60152 44085 L60302 44085 "/>
<path d="M59906 44066 L59774 44066 "/>
<path d="M59744 44272 L59931 44272 L59882 43878 L59695 43878 "/>
<path d="M59477 44085 L59500 44272 "/>
<path d="M59582 43878 L59477 44085 L59320 43878 "/>
<path d="M59233 44235 L59217 44253 L59238 44272 L59254 44253 L59233 44235 L59238 44272 "/>
<path d="M58821 44235 L58842 44253 L58900 44272 L58938 44272 L58992 44253 L59025 44216 L59039 44178 L59048 44103 L59041 44047 L59013 43972 L58989 43935 L58947 43897 L58889 43878 L58851 43878 L58797 43897 L58781 43916 "/>
<path d="M58532 43878 L58457 43878 L58422 43897 L58389 43935 L58380 44010 L58396 44141 L58425 44216 L58467 44253 L58507 44272 L58582 44272 L58617 44253 L58650 44216 L58659 44141 L58643 44010 L58614 43935 L58572 43897 L58532 43878 "/>
<path d="M58244 44272 L58195 43878 L58099 44160 L57932 43878 L57982 44272 "/>
<g style="fill:#000000; fill-opacity:1.0;  stroke:#000000; stroke-width:0; stroke-opacity:1;  stroke-linecap:round; stroke-linejoin:round;">
<path style="fill:#000000; fill-opacity:1.0;  stroke:#000000; stroke-width:0; stroke-opacity:1;  stroke-linecap:round; stroke-linejoin:round;fill-rule:evenodd;" d="M 66438.9,44567 66440.8,44567.3 66442.7,44567.8 66444.5,44568.4 66446.3,44569.3 66447.9,44570.2 66449.5,44571.4 66450.9,44572.7 66452.2,44574.1 66453.4,44575.7 66454.4,44577.3 66455.2,44579.1 66455.8,44580.9 66456.3,44582.8 66456.6,44584.7 66456.7,44586.6 66456.7,45177.2 66456.6,45179.1 66456.3,45181 66455.8,45182.9 66455.2,45184.7 66454.4,45186.4 66453.4,45188.1 66452.2,45189.7 66450.9,45191.1 66449.5,45192.4 66447.9,45193.5 66446.3,45194.5 66444.5,45195.4 66442.7,45196 66440.8,45196.5 66438.9,45196.8 66437,45196.9 65846.5,45196.9 65844.5,45196.8 65842.6,45196.5 65840.7,45196 65838.9,45195.4 65837.2,45194.5 65835.5,45193.5 65834,45192.4 65832.5,45191.1 65831.2,45189.7 65830.1,45188.1 65829.1,45186.4 65828.3,45184.7 65827.6,45182.9 65827.1,45181 65826.9,45179.1 65826.8,45177.2 65826.8,44586.6 65826.9,44584.7 65827.1,44582.8 65827.6,44580.9 65828.3,44579.1 65829.1,44577.3 65830.1,44575.7 65831.2,44574.1 65832.5,44572.7 65834,44571.4 65835.5,44570.2 65837.2,44569.3 65838.9,44568.4 65840.7,44567.8 65842.6,44567.3 65844.5,44567 65846.5,44566.9 66437,44566.9 Z"/> 
</g>
<g style="fill:#000000; fill-opacity:1.0;  stroke:#000000; stroke-width:0; stroke-opacity:1;  stroke-linecap:round; stroke-linejoin:round;">
<path style="fill:#000000; fill-opacity:1.0;  stroke:#000000; stroke-width:0; stroke-opacity:1;  stroke-linecap:round; stroke-linejoin:round;fill-rule:evenodd;" d="M 66438.9,43189.1 66440.8,43189.4 66442.7,43189.8 66444.5,43190.5 66446.3,43191.3 66447.9,43192.3 66449.5,43193.4 66450.9,43194.7 66452.2,43196.2 66453.4,43197.7 66454.4,43199.4 66455.2,43201.1 66455.8,43202.9 66456.3,43204.8 66456.6,43206.7 66456.7,43208.7 66456.7,43799.2 66456.6,43801.1 66456.3,43803.1 66455.8,43804.9 66455.2,43806.7 66454.4,43808.5 66453.4,43810.1 66452.2,43811.7 66450.9,43813.1 66449.5,43814.4 66447.9,43815.6 66446.3,43816.6 66444.5,43817.4 66442.7,43818.1 66440.8,43818.5 66438.9,43818.8 66437,43818.9 65846.5,43818.9 65844.5,43818.8 65842.6,43818.5 65840.7,43818.1 65838.9,43817.4 65837.2,43816.6 65835.5,43815.6 65834,43814.4 65832.5,43813.1 65831.2,43811.7 65830.1,43810.1 65829.1,43808.5 65828.3,43806.7 65827.6,43804.9 65827.1,43803.1 65826.9,43801.1 65826.8,43799.2 65826.8,43208.7 65826.9,43206.7 65827.1,43204.8 65827.6,43202.9 65828.3,43201.1 65829.1,43199.4 65830.1,43197.7 65831.2,43196.2 65832.5,43194.7 65834,43193.4 65835.5,43192.3 65837.2,43191.3 65838.9,43190.5 65840.7,43189.8 65842.6,43189.4 65844.5,43189.1 65846.5,43189 66437,43189 Z"/> 
</g>
<g style="fill:#000000; fill-opacity:1.0;  stroke:#000000; stroke-width:0; stroke-opacity:1;  stroke-linecap:round; stroke-linejoin:round;">
<path style="fill:#000000; fill-opacity:1.0;  stroke:#000000; stroke-width:0; stroke-opacity:1;  stroke-linecap:round; stroke-linejoin:round;fill-rule:evenodd;" d="M 66438.9,40236.3 66440.8,40236.6 66442.7,40237.1 66444.5,40237.7 66446.3,40238.5 66447.9,40239.5 66449.5,40240.7 66450.9,40242 66452.2,40243.4 66453.4,40245 66454.4,40246.6 66455.2,40248.4 66455.8,40250.2 66456.3,40252.1 66456.6,40254 66456.7,40255.9 66456.7,40846.5 66456.6,40848.4 66456.3,40850.3 66455.8,40852.2 66455.2,40854 66454.4,40855.7 66453.4,40857.4 66452.2,40858.9 66450.9,40860.4 66449.5,40861.7 66447.9,40862.8 66446.3,40863.8 66444.5,40864.6 66442.7,40865.3 66440.8,40865.8 66438.9,40866 66437,40866.1 65846.5,40866.1 65844.5,40866 65842.6,40865.8 65840.7,40865.3 65838.9,40864.6 65837.2,40863.8 65835.5,40862.8 65834,40861.7 65832.5,40860.4 65831.2,40858.9 65830.1,40857.4 65829.1,40855.7 65828.3,40854 65827.6,40852.2 65827.1,40850.3 65826.9,40848.4 65826.8,40846.5 65826.8,40255.9 65826.9,40254 65827.1,40252.1 65827.6,40250.2 65828.3,40248.4 65829.1,40246.6 65830.1,40245 65831.2,40243.4 65832.5,40242 65834,40240.7 65835.5,40239.5 65837.2,40238.5 65838.9,40237.7 65840.7,40237.1 65842.6,40236.6 65844.5,40236.3 65846.5,40236.2 66437,40236.2 Z"/> 
</g>
<g style="fill:#000000; fill-opacity:1.0;  stroke:#000000; stroke-width:0; stroke-opacity:1;  stroke-linecap:round; stroke-linejoin:round;">
<path style="fill:#000000; fill-opacity:1.0;  stroke:#000000; stroke-width:0; stroke-opacity:1;  stroke-linecap:round; stroke-linejoin:round;fill-rule:evenodd;" d="M 66438.9,41614.3 66440.8,41614.6 66442.7,41615 66444.5,41615.7 66446.3,41616.5 66447.9,41617.5 66449.5,41618.6 66450.9,41619.9 66452.2,41621.4 66453.4,41622.9 66454.4,41624.6 66455.2,41626.3 66455.8,41628.1 66456.3,41630 66456.6,41631.9 66456.7,41633.9 66456.7,42224.4 66456.6,42226.3 66456.3,42228.2 66455.8,42230.1 66455.2,42231.9 66454.4,42233.7 66453.4,42235.3 66452.2,42236.9 66450.9,42238.3 66449.5,42239.6 66447.9,42240.8 66446.3,42241.8 66444.5,42242.6 66442.7,42243.2 66440.8,42243.7 66438.9,42244 66437,42244.1 65846.5,42244.1 65844.5,42244 65842.6,42243.7 65840.7,42243.2 65838.9,42242.6 65837.2,42241.8 65835.5,42240.8 65834,42239.6 65832.5,42238.3 65831.2,42236.9 65830.1,42235.3 65829.1,42233.7 65828.3,42231.9 65827.6,42230.1 65827.1,42228.2 65826.9,42226.3 65826.8,42224.4 65826.8,41633.9 65826.9,41631.9 65827.1,41630 65827.6,41628.1 65828.3,41626.3 65829.1,41624.6 65830.1,41622.9 65831.2,41621.4 65832.5,41619.9 65834,41618.6 65835.5,41617.5 65837.2,41616.5 65838.9,41615.7 65840.7,41615 65842.6,41614.6 65844.5,41614.3 65846.5,41614.2 66437,41614.2 Z"/> 
</g>
<g style="fill:#000000; fill-opacity:1.0;  stroke:#000000; stroke-width:0; stroke-opacity:1;  stroke-linecap:round; stroke-linejoin:round;">
<path style="fill:#000000; fill-opacity:1.0;  stroke:#000000; stroke-width:0; stroke-opacity:1;  stroke-linecap:round; stroke-linejoin:round;fill-rule:evenodd;" d="M 56399.6,40236.3 56401.5,40236.6 56403.4,40237.1 56405.2,40237.7 56406.9,40238.5 56408.6,40239.5 56410.1,40240.7 56411.6,40242 56412.9,40243.4 56414,40245 56415,40246.6 56415.8,40248.4 56416.5,40250.2 56416.9,40252.1 56417.2,40254 56417.3,40255.9 56417.3,40846.5 56417.2,40848.4 56416.9,40850.3 56416.5,40852.2 56415.8,40854 56415,40855.7 56414,40857.4 56412.9,40858.9 56411.6,40860.4 56410.1,40861.7 56408.6,40862.8 56406.9,40863.8 56405.2,40864.6 56403.4,40865.3 56401.5,40865.8 56399.6,40866 56397.6,40866.1 55807.1,40866.1 55805.2,40866 55803.2,40865.8 55801.4,40865.3 55799.6,40864.6 55797.8,40863.8 55796.2,40862.8 55794.6,40861.7 55793.2,40860.4 55791.9,40858.9 55790.7,40857.4 55789.7,40855.7 55788.9,40854 55788.2,40852.2 55787.8,40850.3 55787.5,40848.4 55787.4,40846.5 55787.4,40255.9 55787.5,40254 55787.8,40252.1 55788.2,40250.2 55788.9,40248.4 55789.7,40246.6 55790.7,40245 55791.9,40243.4 55793.2,40242 55794.6,40240.7 55796.2,40239.5 55797.8,40238.5 55799.6,40237.7 55801.4,40237.1 55803.2,40236.6 55805.2,40236.3 55807.1,40236.2 56397.6,40236.2 Z"/> 
</g>
<g style="fill:#000000; fill-opacity:1.0;  stroke:#000000; stroke-width:0; stroke-opacity:1;  stroke-linecap:round; stroke-linejoin:round;">
<path style="fill:#000000; fill-opacity:1.0;  stroke:#000000; stroke-width:0; stroke-opacity:1;  stroke-linecap:round; stroke-linejoin:round;fill-rule:evenodd;" d="M 56399.6,44370.2 56401.5,44370.5 56403.4,44370.9 56405.2,44371.6 56406.9,44372.4 56408.6,44373.4 56410.1,44374.5 56411.6,44375.8 56412.9,44377.3 56414,44378.8 56415,44380.5 56415.8,44382.2 56416.5,44384 56416.9,44385.9 56417.2,44387.8 56417.3,44389.8 56417.3,44980.3 56417.2,44982.2 56416.9,44984.2 56416.5,44986 56415.8,44987.8 56415,44989.6 56414,44991.3 56412.9,44992.8 56411.6,44994.2 56410.1,44995.5 56408.6,44996.7 56406.9,44997.7 56405.2,44998.5 56403.4,44999.2 56401.5,44999.6 56399.6,44999.9 56397.6,45000 55807.1,45000 55805.2,44999.9 55803.2,44999.6 55801.4,44999.2 55799.6,44998.5 55797.8,44997.7 55796.2,44996.7 55794.6,44995.5 55793.2,44994.2 55791.9,44992.8 55790.7,44991.3 55789.7,44989.6 55788.9,44987.8 55788.2,44986 55787.8,44984.2 55787.5,44982.2 55787.4,44980.3 55787.4,44389.8 55787.5,44387.8 55787.8,44385.9 55788.2,44384 55788.9,44382.2 55789.7,44380.5 55790.7,44378.8 55791.9,44377.3 55793.2,44375.8 55794.6,44374.5 55796.2,44373.4 55797.8,44372.4 55799.6,44371.6 55801.4,44370.9 55803.2,44370.5 55805.2,44370.2 55807.1,44370.1 56397.6,44370.1 Z"/> 
</g>
</g> 
</mask><mask id="hole-mask"><g><rect x="55314" y="38535" fill="white" width="14099" height="7386"/><polyline stroke-linecap="round" stroke="black" stroke-width="275" points="0.0 0 0.0 0" transform="translate(66141 44881) rotate(-0.0)"/><polyline stroke-linecap="round" stroke="black" stroke-width="275" points="0.0 0 0.0 0" transform="translate(66141 43503) rotate(-0.0)"/><polyline stroke-linecap="round" stroke="black" stroke-width="275" points="0.0 0 0.0 0" transform="translate(66141 40551) rotate(-0.0)"/><polyline stroke-linecap="round" stroke="black" stroke-width="275" points="0.0 0 0.0 0" transform="translate(66141 41929) rotate(-0.0)"/><polyline stroke-linecap="round" stroke="black" stroke-width="275" points="0.0 0 0.0 0" transform="translate(56102 40551) rotate(-0.0)"/><polyline stroke-linecap="round" stroke="black" stroke-width="275" points="0.0 0 0.0 0" transform="translate(56102 44685) rotate(-0.0)"/></g></mask></defs><g transform="scale(-1,1)" id="boardContainer"><g clip-path="url(#cut-off)" mask="url(#hole-mask)"><g id="substrate-board" style="fill:#4ca06c; stroke:#4ca06c;"><path d=" M 66535.0 45275.0 L 55708.0 45275.0 L 55708.0 40157.0 L 66535.0 40157.0 L 66535.0 45275.0 " style="fill-rule: evenodd;"/><g style="fill:#000000; stroke: #000000;"><g style="fill-opacity:0.0; stroke-width:19.685; stroke-opacity:1; stroke-linecap:round; stroke-linejoin:round;">
<path d="M66535 40157 L66535 45275 "/>
<path d="M55708 40157 L55708 45275 "/>
<path d="M55708 40157 L66535 40157 "/>
<path d="M66535 45275 L55708 45275 "/>
</g> 
</g></g><g id="substrate-clad" style="fill:#9c6b28; stroke:#9c6b28;"><g style="fill-opacity:0.0; stroke-width:98.4252; stroke-opacity:1; stroke-linecap:round; stroke-linejoin:round;">
<text x="60236.2" y="44291.3" transform="scale(-1 1) translate(-120472.440945 0)" textLength="4706.83" font-size="524.934" lengthAdjust="spacingAndGlyphs" text-anchor="middle" opacity="0">MAYKOLREY.COM</text>
<path d="M62575 44272 L62526 43878 L62430 44160 L62263 43878 L62312 44272 "/>
<path d="M62130 44160 L61942 44160 "/>
<path d="M62181 44272 L62001 43878 L61919 44272 "/>
<path d="M61689 44085 L61712 44272 "/>
<path d="M61795 43878 L61689 44085 L61532 43878 "/>
<path d="M61450 44272 L61401 43878 "/>
<path d="M61225 44272 L61366 44047 "/>
<path d="M61176 43878 L61429 44103 "/>
<path d="M60932 43878 L60857 43878 L60822 43897 L60789 43935 L60780 44010 L60796 44141 L60824 44216 L60866 44253 L60906 44272 L60981 44272 L61016 44253 L61049 44216 L61059 44141 L61042 44010 L61014 43935 L60972 43897 L60932 43878 "/>
<path d="M60456 44272 L60644 44272 L60595 43878 "/>
<path d="M60100 44272 L60208 44085 "/>
<path d="M60325 44272 L60276 43878 L60126 43878 L60091 43897 L60074 43916 L60060 43953 L60067 44010 L60091 44047 L60112 44066 L60152 44085 L60302 44085 "/>
<path d="M59906 44066 L59774 44066 "/>
<path d="M59744 44272 L59931 44272 L59882 43878 L59695 43878 "/>
<path d="M59477 44085 L59500 44272 "/>
<path d="M59582 43878 L59477 44085 L59320 43878 "/>
<path d="M59233 44235 L59217 44253 L59238 44272 L59254 44253 L59233 44235 L59238 44272 "/>
<path d="M58821 44235 L58842 44253 L58900 44272 L58938 44272 L58992 44253 L59025 44216 L59039 44178 L59048 44103 L59041 44047 L59013 43972 L58989 43935 L58947 43897 L58889 43878 L58851 43878 L58797 43897 L58781 43916 "/>
<path d="M58532 43878 L58457 43878 L58422 43897 L58389 43935 L58380 44010 L58396 44141 L58425 44216 L58467 44253 L58507 44272 L58582 44272 L58617 44253 L58650 44216 L58659 44141 L58643 44010 L58614 43935 L58572 43897 L58532 43878 "/>
<path d="M58244 44272 L58195 43878 L58099 44160 L57932 43878 L57982 44272 "/>
<g style="fill-opacity:1.0; stroke-width:0; stroke-opacity:1; stroke-linecap:round; stroke-linejoin:round;">
<path style="fill-opacity:1.0; stroke-width:0; stroke-opacity:1; stroke-linecap:round; stroke-linejoin:round;fill-rule:evenodd;" d="M 66438.9,44567 66440.8,44567.3 66442.7,44567.8 66444.5,44568.4 66446.3,44569.3 66447.9,44570.2 66449.5,44571.4 66450.9,44572.7 66452.2,44574.1 66453.4,44575.7 66454.4,44577.3 66455.2,44579.1 66455.8,44580.9 66456.3,44582.8 66456.6,44584.7 66456.7,44586.6 66456.7,45177.2 66456.6,45179.1 66456.3,45181 66455.8,45182.9 66455.2,45184.7 66454.4,45186.4 66453.4,45188.1 66452.2,45189.7 66450.9,45191.1 66449.5,45192.4 66447.9,45193.5 66446.3,45194.5 66444.5,45195.4 66442.7,45196 66440.8,45196.5 66438.9,45196.8 66437,45196.9 65846.5,45196.9 65844.5,45196.8 65842.6,45196.5 65840.7,45196 65838.9,45195.4 65837.2,45194.5 65835.5,45193.5 65834,45192.4 65832.5,45191.1 65831.2,45189.7 65830.1,45188.1 65829.1,45186.4 65828.3,45184.7 65827.6,45182.9 65827.1,45181 65826.9,45179.1 65826.8,45177.2 65826.8,44586.6 65826.9,44584.7 65827.1,44582.8 65827.6,44580.9 65828.3,44579.1 65829.1,44577.3 65830.1,44575.7 65831.2,44574.1 65832.5,44572.7 65834,44571.4 65835.5,44570.2 65837.2,44569.3 65838.9,44568.4 65840.7,44567.8 65842.6,44567.3 65844.5,44567 65846.5,44566.9 66437,44566.9 Z"/> 
</g>
<g style="fill-opacity:1.0; stroke-width:0; stroke-opacity:1; stroke-linecap:round; stroke-linejoin:round;">
<path style="fill-opacity:1.0; stroke-width:0; stroke-opacity:1; stroke-linecap:round; stroke-linejoin:round;fill-rule:evenodd;" d="M 66438.9,43189.1 66440.8,43189.4 66442.7,43189.8 66444.5,43190.5 66446.3,43191.3 66447.9,43192.3 66449.5,43193.4 66450.9,43194.7 66452.2,43196.2 66453.4,43197.7 66454.4,43199.4 66455.2,43201.1 66455.8,43202.9 66456.3,43204.8 66456.6,43206.7 66456.7,43208.7 66456.7,43799.2 66456.6,43801.1 66456.3,43803.1 66455.8,43804.9 66455.2,43806.7 66454.4,43808.5 66453.4,43810.1 66452.2,43811.7 66450.9,43813.1 66449.5,43814.4 66447.9,43815.6 66446.3,43816.6 66444.5,43817.4 66442.7,43818.1 66440.8,43818.5 66438.9,43818.8 66437,43818.9 65846.5,43818.9 65844.5,43818.8 65842.6,43818.5 65840.7,43818.1 65838.9,43817.4 65837.2,43816.6 65835.5,43815.6 65834,43814.4 65832.5,43813.1 65831.2,43811.7 65830.1,43810.1 65829.1,43808.5 65828.3,43806.7 65827.6,43804.9 65827.1,43803.1 65826.9,43801.1 65826.8,43799.2 65826.8,43208.7 65826.9,43206.7 65827.1,43204.8 65827.6,43202.9 65828.3,43201.1 65829.1,43199.4 65830.1,43197.7 65831.2,43196.2 65832.5,43194.7 65834,43193.4 65835.5,43192.3 65837.2,43191.3 65838.9,43190.5 65840.7,43189.8 65842.6,43189.4 65844.5,43189.1 65846.5,43189 66437,43189 Z"/> 
</g>
<g style="fill-opacity:1.0; stroke-width:0; stroke-opacity:1; stroke-linecap:round; stroke-linejoin:round;">
<path style="fill-opacity:1.0; stroke-width:0; stroke-opacity:1; stroke-linecap:round; stroke-linejoin:round;fill-rule:evenodd;" d="M 66438.9,40236.3 66440.8,40236.6 66442.7,40237.1 66444.5,40237.7 66446.3,40238.5 66447.9,40239.5 66449.5,40240.7 66450.9,40242 66452.2,40243.4 66453.4,40245 66454.4,40246.6 66455.2,40248.4 66455.8,40250.2 66456.3,40252.1 66456.6,40254 66456.7,40255.9 66456.7,40846.5 66456.6,40848.4 66456.3,40850.3 66455.8,40852.2 66455.2,40854 66454.4,40855.7 66453.4,40857.4 66452.2,40858.9 66450.9,40860.4 66449.5,40861.7 66447.9,40862.8 66446.3,40863.8 66444.5,40864.6 66442.7,40865.3 66440.8,40865.8 66438.9,40866 66437,40866.1 65846.5,40866.1 65844.5,40866 65842.6,40865.8 65840.7,40865.3 65838.9,40864.6 65837.2,40863.8 65835.5,40862.8 65834,40861.7 65832.5,40860.4 65831.2,40858.9 65830.1,40857.4 65829.1,40855.7 65828.3,40854 65827.6,40852.2 65827.1,40850.3 65826.9,40848.4 65826.8,40846.5 65826.8,40255.9 65826.9,40254 65827.1,40252.1 65827.6,40250.2 65828.3,40248.4 65829.1,40246.6 65830.1,40245 65831.2,40243.4 65832.5,40242 65834,40240.7 65835.5,40239.5 65837.2,40238.5 65838.9,40237.7 65840.7,40237.1 65842.6,40236.6 65844.5,40236.3 65846.5,40236.2 66437,40236.2 Z"/> 
</g>
<g style="fill-opacity:1.0; stroke-width:0; stroke-opacity:1; stroke-linecap:round; stroke-linejoin:round;">
<path style="fill-opacity:1.0; stroke-width:0; stroke-opacity:1; stroke-linecap:round; stroke-linejoin:round;fill-rule:evenodd;" d="M 66438.9,41614.3 66440.8,41614.6 66442.7,41615 66444.5,41615.7 66446.3,41616.5 66447.9,41617.5 66449.5,41618.6 66450.9,41619.9 66452.2,41621.4 66453.4,41622.9 66454.4,41624.6 66455.2,41626.3 66455.8,41628.1 66456.3,41630 66456.6,41631.9 66456.7,41633.9 66456.7,42224.4 66456.6,42226.3 66456.3,42228.2 66455.8,42230.1 66455.2,42231.9 66454.4,42233.7 66453.4,42235.3 66452.2,42236.9 66450.9,42238.3 66449.5,42239.6 66447.9,42240.8 66446.3,42241.8 66444.5,42242.6 66442.7,42243.2 66440.8,42243.7 66438.9,42244 66437,42244.1 65846.5,42244.1 65844.5,42244 65842.6,42243.7 65840.7,42243.2 65838.9,42242.6 65837.2,42241.8 65835.5,42240.8 65834,42239.6 65832.5,42238.3 65831.2,42236.9 65830.1,42235.3 65829.1,42233.7 65828.3,42231.9 65827.6,42230.1 65827.1,42228.2 65826.9,42226.3 65826.8,42224.4 65826.8,41633.9 65826.9,41631.9 65827.1,41630 65827.6,41628.1 65828.3,41626.3 65829.1,41624.6 65830.1,41622.9 65831.2,41621.4 65832.5,41619.9 65834,41618.6 65835.5,41617.5 65837.2,41616.5 65838.9,41615.7 65840.7,41615 65842.6,41614.6 65844.5,41614.3 65846.5,41614.2 66437,41614.2 Z"/> 
</g>
<g style="fill-opacity:1.0; stroke-width:0; stroke-opacity:1; stroke-linecap:round; stroke-linejoin:round;">
<path style="fill-opacity:1.0; stroke-width:0; stroke-opacity:1; stroke-linecap:round; stroke-linejoin:round;fill-rule:evenodd;" d="M 56399.6,40236.3 56401.5,40236.6 56403.4,40237.1 56405.2,40237.7 56406.9,40238.5 56408.6,40239.5 56410.1,40240.7 56411.6,40242 56412.9,40243.4 56414,40245 56415,40246.6 56415.8,40248.4 56416.5,40250.2 56416.9,40252.1 56417.2,40254 56417.3,40255.9 56417.3,40846.5 56417.2,40848.4 56416.9,40850.3 56416.5,40852.2 56415.8,40854 56415,40855.7 56414,40857.4 56412.9,40858.9 56411.6,40860.4 56410.1,40861.7 56408.6,40862.8 56406.9,40863.8 56405.2,40864.6 56403.4,40865.3 56401.5,40865.8 56399.6,40866 56397.6,40866.1 55807.1,40866.1 55805.2,40866 55803.2,40865.8 55801.4,40865.3 55799.6,40864.6 55797.8,40863.8 55796.2,40862.8 55794.6,40861.7 55793.2,40860.4 55791.9,40858.9 55790.7,40857.4 55789.7,40855.7 55788.9,40854 55788.2,40852.2 55787.8,40850.3 55787.5,40848.4 55787.4,40846.5 55787.4,40255.9 55787.5,40254 55787.8,40252.1 55788.2,40250.2 55788.9,40248.4 55789.7,40246.6 55790.7,40245 55791.9,40243.4 55793.2,40242 55794.6,40240.7 55796.2,40239.5 55797.8,40238.5 55799.6,40237.7 55801.4,40237.1 55803.2,40236.6 55805.2,40236.3 55807.1,40236.2 56397.6,40236.2 Z"/> 
</g>
<g style="fill-opacity:1.0; stroke-width:0; stroke-opacity:1; stroke-linecap:round; stroke-linejoin:round;">
<path style="fill-opacity:1.0; stroke-width:0; stroke-opacity:1; stroke-linecap:round; stroke-linejoin:round;fill-rule:evenodd;" d="M 56399.6,44370.2 56401.5,44370.5 56403.4,44370.9 56405.2,44371.6 56406.9,44372.4 56408.6,44373.4 56410.1,44374.5 56411.6,44375.8 56412.9,44377.3 56414,44378.8 56415,44380.5 56415.8,44382.2 56416.5,44384 56416.9,44385.9 56417.2,44387.8 56417.3,44389.8 56417.3,44980.3 56417.2,44982.2 56416.9,44984.2 56416.5,44986 56415.8,44987.8 56415,44989.6 56414,44991.3 56412.9,44992.8 56411.6,44994.2 56410.1,44995.5 56408.6,44996.7 56406.9,44997.7 56405.2,44998.5 56403.4,44999.2 56401.5,44999.6 56399.6,44999.9 56397.6,45000 55807.1,45000 55805.2,44999.9 55803.2,44999.6 55801.4,44999.2 55799.6,44998.5 55797.8,44997.7 55796.2,44996.7 55794.6,44995.5 55793.2,44994.2 55791.9,44992.8 55790.7,44991.3 55789.7,44989.6 55788.9,44987.8 55788.2,44986 55787.8,44984.2 55787.5,44982.2 55787.4,44980.3 55787.4,44389.8 55787.5,44387.8 55787.8,44385.9 55788.2,44384 55788.9,44382.2 55789.7,44380.5 55790.7,44378.8 55791.9,44377.3 55793.2,44375.8 55794.6,44374.5 55796.2,44373.4 55797.8,44372.4 55799.6,44371.6 55801.4,44370.9 55803.2,44370.5 55805.2,44370.2 55807.1,44370.1 56397.6,44370.1 Z"/> 
</g>
</g> 
</g><g id="substrate-copper" style="fill:#417e5a; stroke:#417e5a;"><g style="fill-opacity:0.0; stroke-width:-0.000393701; stroke-opacity:1; stroke-linecap:round; stroke-linejoin:round;">
<g style="fill-opacity:1.0; stroke-width:0; stroke-opacity:1; stroke-linecap:round; stroke-linejoin:round;">
<path style="fill-opacity:1.0; stroke-width:0; stroke-opacity:1; stroke-linecap:round; stroke-linejoin:round;fill-rule:evenodd;" d="M 65846.5,45177.2 65846.5,44586.6 66437,44586.6 66437,45177.2 Z"/> 
</g>
<g style="fill-opacity:1.0; stroke-width:0; stroke-opacity:1; stroke-linecap:round; stroke-linejoin:round;">
<path style="fill-opacity:1.0; stroke-width:0; stroke-opacity:1; stroke-linecap:round; stroke-linejoin:round;fill-rule:evenodd;" d="M 65846.5,43799.2 65846.5,43208.7 66437,43208.7 66437,43799.2 Z"/> 
</g>
<g style="fill-opacity:1.0; stroke-width:0; stroke-opacity:1; stroke-linecap:round; stroke-linejoin:round;">
<path style="fill-opacity:1.0; stroke-width:0; stroke-opacity:1; stroke-linecap:round; stroke-linejoin:round;fill-rule:evenodd;" d="M 65846.5,40846.5 65846.5,40255.9 66437,40255.9 66437,40846.5 Z"/> 
</g>
<g style="fill-opacity:1.0; stroke-width:0; stroke-opacity:1; stroke-linecap:round; stroke-linejoin:round;">
<path style="fill-opacity:1.0; stroke-width:0; stroke-opacity:1; stroke-linecap:round; stroke-linejoin:round;fill-rule:evenodd;" d="M 65846.5,42224.4 65846.5,41633.9 66437,41633.9 66437,42224.4 Z"/> 
</g>
<g style="fill-opacity:1.0; stroke-width:0; stroke-opacity:1; stroke-linecap:round; stroke-linejoin:round;">
<path style="fill-opacity:1.0; stroke-width:0; stroke-opacity:1; stroke-linecap:round; stroke-linejoin:round;fill-rule:evenodd;" d="M 55807.1,40846.5 55807.1,40255.9 56397.6,40255.9 56397.6,40846.5 Z"/> 
</g>
<g style="fill-opacity:1.0; stroke-width:0; stroke-opacity:1; stroke-linecap:round; stroke-linejoin:round;">
<path style="fill-opacity:1.0; stroke-width:0; stroke-opacity:1; stroke-linecap:round; stroke-linejoin:round;fill-rule:evenodd;" d="M 55807.1,44980.3 55807.1,44389.8 56397.6,44389.8 56397.6,44980.3 Z"/> 
</g>
<g style="fill-opacity:1.0; stroke-width:0; stroke-opacity:1; stroke-linecap:round; stroke-linejoin:round;">
<circle cx="61220.5" cy="42716.5" r="157.48"/> 
</g>
<g style="fill-opacity:1.0; stroke-width:0; stroke-opacity:1; stroke-linecap:round; stroke-linejoin:round;">
<circle cx="58582.7" cy="44921.3" r="157.48"/> 
</g>
<g style="fill-opacity:1.0; stroke-width:0; stroke-opacity:1; stroke-linecap:round; stroke-linejoin:round;">
<circle cx="57842.5" cy="41378" r="157.48"/> 
</g>
<g style="fill-opacity:1.0; stroke-width:0; stroke-opacity:1; stroke-linecap:round; stroke-linejoin:round;">
<circle cx="62992.1" cy="43897.6" r="157.48"/> 
</g>
<g style="fill-opacity:1.0; stroke-width:0; stroke-opacity:1; stroke-linecap:round; stroke-linejoin:round;">
<circle cx="66141.7" cy="41141.7" r="157.48"/> 
</g>
<g style="fill-opacity:1.0; stroke-width:0; stroke-opacity:1; stroke-linecap:round; stroke-linejoin:round;">
<circle cx="65748" cy="41141.7" r="157.48"/> 
</g>
<g style="fill-opacity:1.0; stroke-width:0; stroke-opacity:1; stroke-linecap:round; stroke-linejoin:round;">
<circle cx="65354.3" cy="41141.7" r="157.48"/> 
</g>
<g style="fill-opacity:1.0; stroke-width:0; stroke-opacity:1; stroke-linecap:round; stroke-linejoin:round;">
<circle cx="65354.3" cy="40748" r="157.48"/> 
</g>
<g style="fill-opacity:1.0; stroke-width:0; stroke-opacity:1; stroke-linecap:round; stroke-linejoin:round;">
<circle cx="59153.5" cy="42618.1" r="157.48"/> 
</g>
<g style="fill-opacity:1.0; stroke-width:0; stroke-opacity:1; stroke-linecap:round; stroke-linejoin:round;">
<circle cx="60336.7" cy="43208.7" r="157.48"/> 
</g>
<g style="fill-opacity:1.0; stroke-width:0; stroke-opacity:1; stroke-linecap:round; stroke-linejoin:round;">
<circle cx="64468.5" cy="41141.7" r="157.48"/> 
</g>
<g style="fill-opacity:1.0; stroke-width:0; stroke-opacity:1; stroke-linecap:round; stroke-linejoin:round;">
<circle cx="64074.8" cy="41141.7" r="157.48"/> 
</g>
<g style="fill-opacity:1.0; stroke-width:0; stroke-opacity:1; stroke-linecap:round; stroke-linejoin:round;">
<circle cx="64074.8" cy="41535.4" r="157.48"/> 
</g>
<g style="fill-opacity:1.0; stroke-width:0; stroke-opacity:1; stroke-linecap:round; stroke-linejoin:round;">
<circle cx="64074.8" cy="41929.1" r="157.48"/> 
</g>
<g style="fill-opacity:0.0; stroke-width:157.48; stroke-opacity:1; stroke-linecap:round; stroke-linejoin:round;">
<path d="M59746 42618 L60336 43208 "/>
<path d="M59153 42618 L59746 42618 "/>
</g>
<g style="fill-opacity:0.0; stroke-width:157.48; stroke-opacity:1; stroke-linecap:round; stroke-linejoin:round;">
<g style="fill-opacity:1.0; stroke-width:100; stroke-opacity:1; stroke-linecap:round; stroke-linejoin:round;">
<path style="fill-opacity:1.0; stroke-width:100; stroke-opacity:1; stroke-linecap:round; stroke-linejoin:round;fill-rule:evenodd;" d="M 63040.6,42913.4 63041.5,42923.1 63044.4,42932.5 63049,42941.2 63055.2,42948.7 63062.8,42955 63071.4,42959.6 63080.8,42962.4 63090.6,42963.4 66275.6,42963.4 66275.6,44335.4 65846.5,44335.4 65797.4,44340.2 65750.3,44354.5 65706.9,44377.7 65668.8,44409 65637.6,44447 65614.4,44490.5 65600.1,44537.6 65595.2,44586.6 65595.2,45015.7 56645.4,45015.7 56648.8,44980.3 56648.8,44389.8 56644,44340.8 56629.7,44293.6 56606.5,44250.2 56575.3,44212.1 56537.2,44180.9 56493.8,44157.7 56446.6,44143.4 56397.6,44138.6 55968.5,44138.6 55968.5,42578 58746.1,42578 58746.1,42658.2 58761.7,42737 58792.4,42811.1 58837,42877.9 58893.8,42934.6 58960.5,42979.2 59034.7,43009.9 59113.4,43025.6 59193.7,43025.6 59272.4,43009.9 59346.6,42979.2 59395,42946.9 59609.9,42946.9 59933.5,43270.4 59944.8,43327.5 59975.6,43401.7 60020.2,43468.4 60076.9,43525.2 60143.6,43569.8 60217.8,43600.5 60296.5,43616.1 60376.8,43616.1 60455.5,43600.5 60529.7,43569.8 60596.4,43525.2 60653.2,43468.4 60697.8,43401.7 60728.5,43327.5 60744.1,43248.8 60744.1,43168.5 60728.5,43089.8 60697.8,43015.6 60653.2,42948.9 60596.4,42892.2 60529.7,42847.6 60455.5,42816.8 60398.4,42805.5 59990,42397.1 59979.7,42384.5 59929.6,42343.5 59872.5,42312.9 59810.6,42294.1 59762.3,42289.4 59762.3,42289.4 59746.1,42287.8 59730,42289.4 59395,42289.4 59346.6,42257 59272.4,42226.3 59193.7,42210.6 59113.4,42210.6 59034.7,42226.3 58960.5,42257 58893.8,42301.6 58837,42358.4 58792.4,42425.1 58761.7,42499.3 58746.1,42578 55968.5,42578 55968.5,40417.3 63040.6,40417.3 Z"/> 
</g>
</g>
<g style="fill-opacity:1.0; stroke-width:100; stroke-opacity:1; stroke-linecap:round; stroke-linejoin:round;">
<g>
<path style="fill-opacity:1.0; stroke-width:100; stroke-opacity:1; stroke-linecap:round; stroke-linejoin:round;fill-rule:evenodd;" d="M 64812.2,42568.1 63435.8,42568.1 63435.8,40417.3 64812.2,40417.3 Z"/> 
</g>
</g>
<g style="fill-opacity:1.0; stroke-width:100; stroke-opacity:1; stroke-linecap:round; stroke-linejoin:round;">
<g>
<path style="fill-opacity:1.0; stroke-width:100; stroke-opacity:1; stroke-linecap:round; stroke-linejoin:round;fill-rule:evenodd;" d="M 66275.6,41288.6 65207.5,41288.6 65207.5,40417.3 66275.6,40417.3 Z"/> 
</g>
</g>
<g style="fill-opacity:1.0; stroke-width:100; stroke-opacity:1; stroke-linecap:round; stroke-linejoin:round;">
<g>
<path style="fill-opacity:1.0; stroke-width:100; stroke-opacity:1; stroke-linecap:round; stroke-linejoin:round;fill-rule:evenodd;" d="M 66275.6,42568.1 65207.5,42568.1 65207.5,41683.9 66275.6,41683.9 Z"/> 
</g>
</g>
</g>
<g style="fill-opacity:1.0; stroke-width:0; stroke-opacity:1; stroke-linecap:round; stroke-linejoin:round;">
<circle cx="61220.5" cy="42716.5" r="68.8976"/> 
</g>
<g style="fill-opacity:1.0; stroke-width:0; stroke-opacity:1; stroke-linecap:round; stroke-linejoin:round;">
<circle cx="58582.7" cy="44921.3" r="68.8976"/> 
</g>
<g style="fill-opacity:1.0; stroke-width:0; stroke-opacity:1; stroke-linecap:round; stroke-linejoin:round;">
<circle cx="57842.5" cy="41378" r="68.8976"/> 
</g>
<g style="fill-opacity:1.0; stroke-width:0; stroke-opacity:1; stroke-linecap:round; stroke-linejoin:round;">
<circle cx="62992.1" cy="43897.6" r="68.8976"/> 
</g>
<g style="fill-opacity:1.0; stroke-width:0; stroke-opacity:1; stroke-linecap:round; stroke-linejoin:round;">
<circle cx="66141.7" cy="41141.7" r="68.8976"/> 
</g>
<g style="fill-opacity:1.0; stroke-width:0; stroke-opacity:1; stroke-linecap:round; stroke-linejoin:round;">
<circle cx="65748" cy="41141.7" r="68.8976"/> 
</g>
<g style="fill-opacity:1.0; stroke-width:0; stroke-opacity:1; stroke-linecap:round; stroke-linejoin:round;">
<circle cx="65354.3" cy="41141.7" r="68.8976"/> 
</g>
<g style="fill-opacity:1.0; stroke-width:0; stroke-opacity:1; stroke-linecap:round; stroke-linejoin:round;">
<circle cx="65354.3" cy="40748" r="68.8976"/> 
</g>
<g style="fill-opacity:1.0; stroke-width:0; stroke-opacity:1; stroke-linecap:round; stroke-linejoin:round;">
<circle cx="59153.5" cy="42618.1" r="68.8976"/> 
</g>
<g style="fill-opacity:1.0; stroke-width:0; stroke-opacity:1; stroke-linecap:round; stroke-linejoin:round;">
<circle cx="60336.7" cy="43208.7" r="68.8976"/> 
</g>
<g style="fill-opacity:1.0; stroke-width:0; stroke-opacity:1; stroke-linecap:round; stroke-linejoin:round;">
<circle cx="64468.5" cy="41141.7" r="68.8976"/> 
</g>
<g style="fill-opacity:1.0; stroke-width:0; stroke-opacity:1; stroke-linecap:round; stroke-linejoin:round;">
<circle cx="64074.8" cy="41141.7" r="68.8976"/> 
</g>
<g style="fill-opacity:1.0; stroke-width:0; stroke-opacity:1; stroke-linecap:round; stroke-linejoin:round;">
<circle cx="64074.8" cy="41535.4" r="68.8976"/> 
</g>
<g style="fill-opacity:1.0; stroke-width:0; stroke-opacity:1; stroke-linecap:round; stroke-linejoin:round;">
<circle cx="64074.8" cy="41929.1" r="68.8976"/> 
</g>
<g style="fill-opacity:1.0; stroke-width:0; stroke-opacity:1; stroke-linecap:round; stroke-linejoin:round;">
<circle cx="66141.7" cy="44881.9" r="68.8976"/> 
</g>
<g style="fill-opacity:1.0; stroke-width:0; stroke-opacity:1; stroke-linecap:round; stroke-linejoin:round;">
<circle cx="66141.7" cy="43503.9" r="68.8976"/> 
</g>
<g style="fill-opacity:1.0; stroke-width:0; stroke-opacity:1; stroke-linecap:round; stroke-linejoin:round;">
<circle cx="66141.7" cy="40551.2" r="68.8976"/> 
</g>
<g style="fill-opacity:1.0; stroke-width:0; stroke-opacity:1; stroke-linecap:round; stroke-linejoin:round;">
<circle cx="66141.7" cy="41929.1" r="68.8976"/> 
</g>
<g style="fill-opacity:1.0; stroke-width:0; stroke-opacity:1; stroke-linecap:round; stroke-linejoin:round;">
<circle cx="56102.4" cy="40551.2" r="68.8976"/> 
</g>
<g style="fill-opacity:1.0; stroke-width:0; stroke-opacity:1; stroke-linecap:round; stroke-linejoin:round;">
<circle cx="56102.4" cy="44685" r="68.8976"/> 
</g>
</g><g id="substrate-pads" style="fill:#b5ae30; stroke:#b5ae30;" mask="url(#pads-mask)"><g style="fill-opacity:0.0; stroke-width:-0.000393701; stroke-opacity:1; stroke-linecap:round; stroke-linejoin:round;">
<g style="fill-opacity:1.0; stroke-width:0; stroke-opacity:1; stroke-linecap:round; stroke-linejoin:round;">
<path style="fill-opacity:1.0; stroke-width:0; stroke-opacity:1; stroke-linecap:round; stroke-linejoin:round;fill-rule:evenodd;" d="M 65846.5,45177.2 65846.5,44586.6 66437,44586.6 66437,45177.2 Z"/> 
</g>
<g style="fill-opacity:1.0; stroke-width:0; stroke-opacity:1; stroke-linecap:round; stroke-linejoin:round;">
<path style="fill-opacity:1.0; stroke-width:0; stroke-opacity:1; stroke-linecap:round; stroke-linejoin:round;fill-rule:evenodd;" d="M 65846.5,43799.2 65846.5,43208.7 66437,43208.7 66437,43799.2 Z"/> 
</g>
<g style="fill-opacity:1.0; stroke-width:0; stroke-opacity:1; stroke-linecap:round; stroke-linejoin:round;">
<path style="fill-opacity:1.0; stroke-width:0; stroke-opacity:1; stroke-linecap:round; stroke-linejoin:round;fill-rule:evenodd;" d="M 65846.5,40846.5 65846.5,40255.9 66437,40255.9 66437,40846.5 Z"/> 
</g>
<g style="fill-opacity:1.0; stroke-width:0; stroke-opacity:1; stroke-linecap:round; stroke-linejoin:round;">
<path style="fill-opacity:1.0; stroke-width:0; stroke-opacity:1; stroke-linecap:round; stroke-linejoin:round;fill-rule:evenodd;" d="M 65846.5,42224.4 65846.5,41633.9 66437,41633.9 66437,42224.4 Z"/> 
</g>
<g style="fill-opacity:1.0; stroke-width:0; stroke-opacity:1; stroke-linecap:round; stroke-linejoin:round;">
<path style="fill-opacity:1.0; stroke-width:0; stroke-opacity:1; stroke-linecap:round; stroke-linejoin:round;fill-rule:evenodd;" d="M 55807.1,40846.5 55807.1,40255.9 56397.6,40255.9 56397.6,40846.5 Z"/> 
</g>
<g style="fill-opacity:1.0; stroke-width:0; stroke-opacity:1; stroke-linecap:round; stroke-linejoin:round;">
<path style="fill-opacity:1.0; stroke-width:0; stroke-opacity:1; stroke-linecap:round; stroke-linejoin:round;fill-rule:evenodd;" d="M 55807.1,44980.3 55807.1,44389.8 56397.6,44389.8 56397.6,44980.3 Z"/> 
</g>
<g style="fill-opacity:1.0; stroke-width:0; stroke-opacity:1; stroke-linecap:round; stroke-linejoin:round;">
<circle cx="61220.5" cy="42716.5" r="157.48"/> 
</g>
<g style="fill-opacity:1.0; stroke-width:0; stroke-opacity:1; stroke-linecap:round; stroke-linejoin:round;">
<circle cx="58582.7" cy="44921.3" r="157.48"/> 
</g>
<g style="fill-opacity:1.0; stroke-width:0; stroke-opacity:1; stroke-linecap:round; stroke-linejoin:round;">
<circle cx="57842.5" cy="41378" r="157.48"/> 
</g>
<g style="fill-opacity:1.0; stroke-width:0; stroke-opacity:1; stroke-linecap:round; stroke-linejoin:round;">
<circle cx="62992.1" cy="43897.6" r="157.48"/> 
</g>
<g style="fill-opacity:1.0; stroke-width:0; stroke-opacity:1; stroke-linecap:round; stroke-linejoin:round;">
<circle cx="66141.7" cy="41141.7" r="157.48"/> 
</g>
<g style="fill-opacity:1.0; stroke-width:0; stroke-opacity:1; stroke-linecap:round; stroke-linejoin:round;">
<circle cx="65748" cy="41141.7" r="157.48"/> 
</g>
<g style="fill-opacity:1.0; stroke-width:0; stroke-opacity:1; stroke-linecap:round; stroke-linejoin:round;">
<circle cx="65354.3" cy="41141.7" r="157.48"/> 
</g>
<g style="fill-opacity:1.0; stroke-width:0; stroke-opacity:1; stroke-linecap:round; stroke-linejoin:round;">
<circle cx="65354.3" cy="40748" r="157.48"/> 
</g>
<g style="fill-opacity:1.0; stroke-width:0; stroke-opacity:1; stroke-linecap:round; stroke-linejoin:round;">
<circle cx="59153.5" cy="42618.1" r="157.48"/> 
</g>
<g style="fill-opacity:1.0; stroke-width:0; stroke-opacity:1; stroke-linecap:round; stroke-linejoin:round;">
<circle cx="60336.7" cy="43208.7" r="157.48"/> 
</g>
<g style="fill-opacity:1.0; stroke-width:0; stroke-opacity:1; stroke-linecap:round; stroke-linejoin:round;">
<circle cx="64468.5" cy="41141.7" r="157.48"/> 
</g>
<g style="fill-opacity:1.0; stroke-width:0; stroke-opacity:1; stroke-linecap:round; stroke-linejoin:round;">
<circle cx="64074.8" cy="41141.7" r="157.48"/> 
</g>
<g style="fill-opacity:1.0; stroke-width:0; stroke-opacity:1; stroke-linecap:round; stroke-linejoin:round;">
<circle cx="64074.8" cy="41535.4" r="157.48"/> 
</g>
<g style="fill-opacity:1.0; stroke-width:0; stroke-opacity:1; stroke-linecap:round; stroke-linejoin:round;">
<circle cx="64074.8" cy="41929.1" r="157.48"/> 
</g>
<g style="fill-opacity:0.0; stroke-width:157.48; stroke-opacity:1; stroke-linecap:round; stroke-linejoin:round;">
<path d="M59746 42618 L60336 43208 "/>
<path d="M59153 42618 L59746 42618 "/>
</g>
<g style="fill-opacity:0.0; stroke-width:157.48; stroke-opacity:1; stroke-linecap:round; stroke-linejoin:round;">
<g style="fill-opacity:1.0; stroke-width:100; stroke-opacity:1; stroke-linecap:round; stroke-linejoin:round;">
<path style="fill-opacity:1.0; stroke-width:100; stroke-opacity:1; stroke-linecap:round; stroke-linejoin:round;fill-rule:evenodd;" d="M 63040.6,42913.4 63041.5,42923.1 63044.4,42932.5 63049,42941.2 63055.2,42948.7 63062.8,42955 63071.4,42959.6 63080.8,42962.4 63090.6,42963.4 66275.6,42963.4 66275.6,44335.4 65846.5,44335.4 65797.4,44340.2 65750.3,44354.5 65706.9,44377.7 65668.8,44409 65637.6,44447 65614.4,44490.5 65600.1,44537.6 65595.2,44586.6 65595.2,45015.7 56645.4,45015.7 56648.8,44980.3 56648.8,44389.8 56644,44340.8 56629.7,44293.6 56606.5,44250.2 56575.3,44212.1 56537.2,44180.9 56493.8,44157.7 56446.6,44143.4 56397.6,44138.6 55968.5,44138.6 55968.5,42578 58746.1,42578 58746.1,42658.2 58761.7,42737 58792.4,42811.1 58837,42877.9 58893.8,42934.6 58960.5,42979.2 59034.7,43009.9 59113.4,43025.6 59193.7,43025.6 59272.4,43009.9 59346.6,42979.2 59395,42946.9 59609.9,42946.9 59933.5,43270.4 59944.8,43327.5 59975.6,43401.7 60020.2,43468.4 60076.9,43525.2 60143.6,43569.8 60217.8,43600.5 60296.5,43616.1 60376.8,43616.1 60455.5,43600.5 60529.7,43569.8 60596.4,43525.2 60653.2,43468.4 60697.8,43401.7 60728.5,43327.5 60744.1,43248.8 60744.1,43168.5 60728.5,43089.8 60697.8,43015.6 60653.2,42948.9 60596.4,42892.2 60529.7,42847.6 60455.5,42816.8 60398.4,42805.5 59990,42397.1 59979.7,42384.5 59929.6,42343.5 59872.5,42312.9 59810.6,42294.1 59762.3,42289.4 59762.3,42289.4 59746.1,42287.8 59730,42289.4 59395,42289.4 59346.6,42257 59272.4,42226.3 59193.7,42210.6 59113.4,42210.6 59034.7,42226.3 58960.5,42257 58893.8,42301.6 58837,42358.4 58792.4,42425.1 58761.7,42499.3 58746.1,42578 55968.5,42578 55968.5,40417.3 63040.6,40417.3 Z"/> 
</g>
</g>
<g style="fill-opacity:1.0; stroke-width:100; stroke-opacity:1; stroke-linecap:round; stroke-linejoin:round;">
<g>
<path style="fill-opacity:1.0; stroke-width:100; stroke-opacity:1; stroke-linecap:round; stroke-linejoin:round;fill-rule:evenodd;" d="M 64812.2,42568.1 63435.8,42568.1 63435.8,40417.3 64812.2,40417.3 Z"/> 
</g>
</g>
<g style="fill-opacity:1.0; stroke-width:100; stroke-opacity:1; stroke-linecap:round; stroke-linejoin:round;">
<g>
<path style="fill-opacity:1.0; stroke-width:100; stroke-opacity:1; stroke-linecap:round; stroke-linejoin:round;fill-rule:evenodd;" d="M 66275.6,41288.6 65207.5,41288.6 65207.5,40417.3 66275.6,40417.3 Z"/> 
</g>
</g>
<g style="fill-opacity:1.0; stroke-width:100; stroke-opacity:1; stroke-linecap:round; stroke-linejoin:round;">
<g>
<path style="fill-opacity:1.0; stroke-width:100; stroke-opacity:1; stroke-linecap:round; stroke-linejoin:round;fill-rule:evenodd;" d="M 66275.6,42568.1 65207.5,42568.1 65207.5,41683.9 66275.6,41683.9 Z"/> 
</g>
</g>
</g>
<g style="fill-opacity:1.0; stroke-width:0; stroke-opacity:1; stroke-linecap:round; stroke-linejoin:round;">
<circle cx="61220.5" cy="42716.5" r="68.8976"/> 
</g>
<g style="fill-opacity:1.0; stroke-width:0; stroke-opacity:1; stroke-linecap:round; stroke-linejoin:round;">
<circle cx="58582.7" cy="44921.3" r="68.8976"/> 
</g>
<g style="fill-opacity:1.0; stroke-width:0; stroke-opacity:1; stroke-linecap:round; stroke-linejoin:round;">
<circle cx="57842.5" cy="41378" r="68.8976"/> 
</g>
<g style="fill-opacity:1.0; stroke-width:0; stroke-opacity:1; stroke-linecap:round; stroke-linejoin:round;">
<circle cx="62992.1" cy="43897.6" r="68.8976"/> 
</g>
<g style="fill-opacity:1.0; stroke-width:0; stroke-opacity:1; stroke-linecap:round; stroke-linejoin:round;">
<circle cx="66141.7" cy="41141.7" r="68.8976"/> 
</g>
<g style="fill-opacity:1.0; stroke-width:0; stroke-opacity:1; stroke-linecap:round; stroke-linejoin:round;">
<circle cx="65748" cy="41141.7" r="68.8976"/> 
</g>
<g style="fill-opacity:1.0; stroke-width:0; stroke-opacity:1; stroke-linecap:round; stroke-linejoin:round;">
<circle cx="65354.3" cy="41141.7" r="68.8976"/> 
</g>
<g style="fill-opacity:1.0; stroke-width:0; stroke-opacity:1; stroke-linecap:round; stroke-linejoin:round;">
<circle cx="65354.3" cy="40748" r="68.8976"/> 
</g>
<g style="fill-opacity:1.0; stroke-width:0; stroke-opacity:1; stroke-linecap:round; stroke-linejoin:round;">
<circle cx="59153.5" cy="42618.1" r="68.8976"/> 
</g>
<g style="fill-opacity:1.0; stroke-width:0; stroke-opacity:1; stroke-linecap:round; stroke-linejoin:round;">
<circle cx="60336.7" cy="43208.7" r="68.8976"/> 
</g>
<g style="fill-opacity:1.0; stroke-width:0; stroke-opacity:1; stroke-linecap:round; stroke-linejoin:round;">
<circle cx="64468.5" cy="41141.7" r="68.8976"/> 
</g>
<g style="fill-opacity:1.0; stroke-width:0; stroke-opacity:1; stroke-linecap:round; stroke-linejoin:round;">
<circle cx="64074.8" cy="41141.7" r="68.8976"/> 
</g>
<g style="fill-opacity:1.0; stroke-width:0; stroke-opacity:1; stroke-linecap:round; stroke-linejoin:round;">
<circle cx="64074.8" cy="41535.4" r="68.8976"/> 
</g>
<g style="fill-opacity:1.0; stroke-width:0; stroke-opacity:1; stroke-linecap:round; stroke-linejoin:round;">
<circle cx="64074.8" cy="41929.1" r="68.8976"/> 
</g>
<g style="fill-opacity:1.0; stroke-width:0; stroke-opacity:1; stroke-linecap:round; stroke-linejoin:round;">
<circle cx="66141.7" cy="44881.9" r="68.8976"/> 
</g>
<g style="fill-opacity:1.0; stroke-width:0; stroke-opacity:1; stroke-linecap:round; stroke-linejoin:round;">
<circle cx="66141.7" cy="43503.9" r="68.8976"/> 
</g>
<g style="fill-opacity:1.0; stroke-width:0; stroke-opacity:1; stroke-linecap:round; stroke-linejoin:round;">
<circle cx="66141.7" cy="40551.2" r="68.8976"/> 
</g>
<g style="fill-opacity:1.0; stroke-width:0; stroke-opacity:1; stroke-linecap:round; stroke-linejoin:round;">
<circle cx="66141.7" cy="41929.1" r="68.8976"/> 
</g>
<g style="fill-opacity:1.0; stroke-width:0; stroke-opacity:1; stroke-linecap:round; stroke-linejoin:round;">
<circle cx="56102.4" cy="40551.2" r="68.8976"/> 
</g>
<g style="fill-opacity:1.0; stroke-width:0; stroke-opacity:1; stroke-linecap:round; stroke-linejoin:round;">
<circle cx="56102.4" cy="44685" r="68.8976"/> 
</g>
</g><g id="substrate-silk" style="fill:#f0f0f0; stroke:#f0f0f0;" mask="url(#pads-mask-silkscreen)"><g style="fill-opacity:1.0; stroke-width:3.93701; stroke-opacity:1; stroke-linecap:round; stroke-linejoin:round;">
<path style="fill-opacity:1.0; stroke-width:3.93701; stroke-opacity:1; stroke-linecap:round; stroke-linejoin:round;fill-rule:evenodd;" d="M 59052.2,40660.8 58963.6,40662.4 58893.2,40665.8 58837.3,40671.6 58792.5,40680.6 58755.4,40693.4 58722.6,40710.6 58690.4,40732.8 58664.6,40753.3 58602.4,40819.1 58560.2,40895.4 58537.4,40978.5 58533.5,41064.7 58547.9,41150.3 58580.1,41231.4 58629.5,41304.5 58695.5,41365.8 58762.4,41404.9 58789.1,41416.1 58816.3,41424.5 58848.5,41430.7 58890.4,41435.4 58946.7,41439.1 59021.9,41442.5 59049.7,41443.5 59137.1,41447.3 59202.2,41451.6 59247.5,41457.2 59275.8,41464.9 59289.7,41475.2 59291.8,41489 59284.9,41507.1 59284.2,41508.4 59277.7,41517.3 59267,41523.9 59248.2,41528.6 59217.9,41532 59172.4,41534.5 59108.1,41536.4 59048.9,41537.8 58950.1,41540.9 58872,41546.6 58810.4,41556 58760.9,41570.6 58719.3,41591.6 58681.4,41620.5 58642.8,41658.5 58633.9,41668.2 58602.7,41704.3 58578.8,41738.9 58561,41775.7 58548.4,41819 58540.2,41872.6 58535.2,41940.6 58532.5,42027.1 58531.6,42094.1 58531.1,42179.7 58531.4,42244 58533,42290.7 58536,42323.3 58540.8,42345.7 58547.5,42361.5 58550.1,42365.8 58583.5,42396.8 58625.9,42409.1 58669.6,42402.7 58706.8,42377.6 58716.3,42365.4 58724.4,42349.5 58730,42328 58733.5,42296.8 58735,42251.6 58735,42188.2 58734.4,42135.8 58734.1,42038.1 58736.9,41962.1 58743.3,41904.2 58753.7,41861.3 58768.6,41830.1 58779.9,41815.5 58799.5,41794.9 58817.8,41779.5 58838.8,41768.3 58866.3,41760.6 58904.4,41755.5 58956.8,41752.1 59027.5,41749.6 59090.2,41747.9 59331,41741.7 59385.2,41703.6 59443.3,41649.4 59481.3,41585.8 59499.5,41516.8 59498.6,41446.6 59479.1,41379.2 59441.6,41318.8 59386.7,41269.4 59321.8,41237.5 59291.7,41231.8 59240.6,41227.2 59172.7,41224.2 59092,41223 59077.9,41222.9 58999.5,41222.6 58941.7,41221.2 58900.1,41218.3 58870.2,41213.6 58847.6,41206.6 58832.9,41199.6 58783.5,41159.9 58752.6,41105.1 58742.5,41039.8 58753.3,40977.5 58784.7,40928.4 58824.4,40897.4 58838.8,40889.7 58855.6,40883.8 58878.3,40879.5 58910.2,40876.5 58954.6,40874.6 59014.9,40873.5 59094.4,40873.1 59165,40873 59465.7,40872.9 59508.4,40904.4 59538.6,40929.5 59560.6,40952.7 59564,40957.6 59567.3,40975.6 59570.5,41017.4 59573.5,41081.8 59576.3,41167.5 59578.8,41273.4 59581,41398.2 59582.9,41540.6 59583.1,41554.2 59589.3,42129.2 59622.5,42191.7 59680.5,42276.1 59754.9,42343.6 59804.7,42373.7 59867.8,42395.4 59943.5,42405.6 60022.3,42404.1 60094.6,42391 60133.1,42376.4 60209.3,42326.2 60275.8,42257.7 60318.5,42192.4 60351.8,42129.2 60358.1,41554.2 60359.6,41416 60360.9,41300.6 60362.5,41205.8 60364.5,41129.2 60367.3,41068.6 60371.1,41021.8 60376.2,40986.6 60382.9,40960.6 60391.4,40941.8 60402.1,40927.7 60415.3,40916.3 60431.2,40905.2 60440.8,40898.7 60471.3,40881.4 60502.7,40874.3 60546,40875.1 60552.6,40875.6 60598.8,40882.1 60631.1,40895.4 60660.8,40919.9 60662.1,40921.1 60701.8,40960.9 60708.6,41532.5 60710.2,41667.8 60711.8,41780.4 60713.4,41872.8 60715.1,41947.2 60717.1,42006.1 60719.4,42051.8 60722.3,42086.7 60725.8,42113.2 60730,42133.6 60735,42150.2 60740.2,42163.4 60788.1,42247.4 60854.3,42319.3 60921.8,42366.8 60957.4,42385.1 60988.6,42396.3 61023.7,42402 61071.3,42404 61101.8,42404.2 61158.6,42403.3 61198.8,42399.7 61230.9,42391.4 61263.2,42376.8 61281.3,42367.1 61353.7,42316 61414.8,42251.5 61458.5,42180.3 61465.8,42162.9 61471.1,42146.5 61475.5,42126.6 61479.3,42100.7 61482.4,42066.6 61485.1,42021.8 61487.3,41964.1 61489.3,41891 61491.1,41800.4 61492.8,41689.8 61494.5,41556.9 61494.8,41533.6 61496.5,41399.2 61498.1,41287.5 61499.6,41196.3 61501.2,41123.5 61503.1,41066.6 61505.3,41023.6 61507.9,40992.1 61511.1,40969.9 61515,40954.8 61519.8,40944.6 61525.5,40936.9 61526.8,40935.4 61577.8,40895.7 61636.9,40875.9 61698.4,40875.7 61756.6,40894.6 61805.8,40932.5 61822.1,40953.3 61826.4,40964.2 61830,40984.5 61833.2,41016.1 61835.9,41060.9 61838.2,41121 61840.3,41198.2 61842.2,41294.6 61843.9,41412 61845.6,41552.4 61845.6,41554.2 61847.1,41689.1 61848.4,41801.3 61849.8,41893.2 61851.3,41967.2 61853.1,42025.5 61855.3,42070.5 61857.9,42104.6 61861.2,42130 61865.3,42149.2 61870.3,42164.5 61876.3,42178.2 61879.9,42185.5 61932.4,42265.8 62000.7,42331.1 62080.4,42378.3 62167.4,42404.6 62197.6,42408.2 62240.3,42409.8 62267.5,42405.5 62288.6,42392.8 62300.9,42381.2 62328.2,42339.8 62333.2,42296.6 62318.2,42256.3 62285,42223.8 62235.6,42203.8 62225.5,42201.9 62154.3,42181.9 62103,42147.1 62086.3,42126.4 62081.1,42116.6 62076.7,42103.2 62073,42083.8 62069.9,42056.3 62067.4,42018.4 62065.3,41967.8 62063.5,41902.3 62061.9,41819.7 62060.4,41717.7 62058.9,41594.1 62058.1,41523.5 62056.6,41389.1 62055.2,41277.4 62053.7,41185.9 62052.2,41112.4 62050.3,41054.3 62048.1,41009.5 62045.3,40975.4 62041.9,40949.7 62037.8,40930.2 62032.7,40914.3 62026.6,40899.7 62024.8,40895.7 61972.6,40810.2 61904.3,40742.3 61822.6,40694.1 61730.1,40667.3 61695.4,40663.3 61597.8,40668.2 61506.9,40696.1 61426.3,40745 61359.1,40813.3 61328.1,40860.4 61289.3,40929.2 61283.1,41504.2 61281.3,41651.7 61279.3,41775.7 61277.1,41877.6 61274.7,41958.9 61271.9,42021 61268.7,42065.3 61265.2,42093.3 61261.5,42106 61241.9,42131.4 61212.9,42160.5 61205.8,42166.7 61179.5,42186.1 61154.2,42195.4 61120,42196.9 61093.2,42195.3 61028.3,42182.5 60979.1,42152.7 60941.3,42104.2 60937.4,42087.7 60933.8,42052.1 60930.7,41996.4 60927.8,41919.6 60925.3,41820.9 60923.1,41699.4 60921.1,41554 60920.6,41504.2 60919.1,41369.3 60917.7,41257 60916.3,41165.1 60914.8,41091.3 60913,41033.1 60910.9,40988.3 60908.2,40954.6 60904.9,40929.6 60900.9,40911.1 60896,40896.6 60890,40883.9 60886.9,40877.9 60830.9,40796.5 60762.5,40734.4 60685,40691.3 60601.8,40667.3 60516.2,40662.3 60431.5,40676.1 60351.1,40708.7 60278.4,40760 60216.6,40829.9 60178.5,40896.4 60172.2,40910.9 60166.9,40926.2 60162.6,40944.7 60159,40968.8 60156.1,41000.8 60153.8,41043.1 60151.9,41098 60150.3,41168 60148.8,41255.3 60147.4,41362.4 60145.9,41491.6 60145.6,41522.9 60143.8,41665.5 60142,41784.9 60140,41882.9 60137.7,41961.4 60135.2,42022.1 60132.3,42066.8 60128.9,42097.4 60125,42115.6 60122.9,42120.5 60086.3,42161.3 60035.5,42187.4 59977.6,42197.5 59919.3,42190.3 59870.2,42166.4 59840,42141.4 59818,42118.1 59814.7,42113.3 59811.3,42095.3 59808.1,42053.5 59805.1,41989.1 59802.3,41903.5 59799.8,41797.9 59797.5,41673.5 59795.7,41531.5 59795.6,41522.9 59794.1,41389 59792.7,41277.6 59791.4,41186.4 59789.8,41113.1 59788.1,41055.2 59785.9,41010.4 59783.2,40976.2 59779.7,40950.3 59775.5,40930.3 59770.3,40913.8 59764.1,40898.4 59759.5,40888.3 59723,40828.2 59671.1,40769.9 59611.3,40720 59550.7,40685.5 59537.5,40680.5 59514.1,40674 59484.6,40669 59445.5,40665.4 59393.8,40662.9 59326,40661.3 59238.8,40660.6 59162.2,40660.4 Z"/> 
</g> 
</g><g id="substrate-outline" style="fill:#000000; stroke:#000000;"><g style="fill-opacity:0.0; stroke-width:19.685; stroke-opacity:1; stroke-linecap:round; stroke-linejoin:round;">
<path d="M66535 40157 L66535 45275 "/>
<path d="M55708 40157 L55708 45275 "/>
<path d="M55708 40157 L66535 40157 "/>
<path d="M66535 45275 L55708 45275 "/>
</g> 
</g></g></g><g transform="scale(-1,1)" id="componentContainer"><!--Capacitor_SMD:C_0603_1608Metric.back--><!--Resistor_SMD:R_0603_1608Metric.back--><!--Resistor_SMD:R_0603_1608Metric.back--><g transform="translate(63779 43503) scale(393.63797397352994 393.6250916451029) rotate(-180.0) translate(-0.09999550133943558, -0.10003144294023514)"><use xmlns:xlink="http://www.w3.org/1999/xlink" xlink:href="#Resistor_SMD__R_0603_1608Metricback"/></g><!--Capacitor_SMD:C_0805_2012Metric.back--><!--Resistor_SMD:R_0603_1608Metric.back--><g transform="translate(60413 41409) scale(393.63797397352994 393.6250916451029) rotate(-0.0) translate(-0.09999550133943558, -0.10003144294023514)"><use xmlns:xlink="http://www.w3.org/1999/xlink" xlink:href="#Resistor_SMD__R_0603_1608Metricback"/></g><!--Resistor_SMD:R_0603_1608Metric.back--><g transform="translate(60708 42362) scale(393.63797397352994 393.6250916451029) rotate(-270.0) translate(-0.09999550133943558, -0.10003144294023514)"><use xmlns:xlink="http://www.w3.org/1999/xlink" xlink:href="#Resistor_SMD__R_0603_1608Metricback"/></g><!--Resistor_SMD:R_0603_1608Metric.back--><g transform="translate(58149 42559) scale(393.63797397352994 393.6250916451029) rotate(-270.0) translate(-0.09999550133943558, -0.10003144294023514)"><use xmlns:xlink="http://www.w3.org/1999/xlink" xlink:href="#Resistor_SMD__R_0603_1608Metricback"/></g><!--Resistor_SMD:R_0603_1608Metric.back--><g transform="translate(58149 43897) scale(393.63797397352994 393.6250916451029) rotate(-270.0) translate(-0.09999550133943558, -0.10003144294023514)"><use xmlns:xlink="http://www.w3.org/1999/xlink" xlink:href="#Resistor_SMD__R_0603_1608Metricback"/></g><!--LED_SMD:LED_0603_1608Metric.back--><!--Capacitor_SMD:C_0603_1608Metric.back--><g transform="translate(59196 41409) scale(393.63797397352994 393.6250916451029) rotate(-180.0) translate(-0.09999550133943558, -0.10003144294023514)"><use xmlns:xlink="http://www.w3.org/1999/xlink" xlink:href="#Capacitor_SMD__C_0603_1608Metricback"/></g><!--Capacitor_SMD:C_0603_1608Metric.back--><g transform="translate(56929 41377) scale(393.63797397352994 393.6250916451029) rotate(-0.0) translate(-0.09999550133943558, -0.10003144294023514)"><use xmlns:xlink="http://www.w3.org/1999/xlink" xlink:href="#Capacitor_SMD__C_0603_1608Metricback"/></g><!--Capacitor_SMD:C_0603_1608Metric.back--><g transform="translate(57204 44212) scale(393.63797397352994 393.6250916451029) rotate(-0.0) translate(-0.09999550133943558, -0.10003144294023514)"><use xmlns:xlink="http://www.w3.org/1999/xlink" xlink:href="#Capacitor_SMD__C_0603_1608Metricback"/></g></g></svg>