<?xml version="1.0" standalone="no"?>
 <!DOCTYPE svg PUBLIC "-//W3C//DTD SVG 1.1//EN" 
 "http://www.w3.org/Graphics/SVG/1.1/DTD/svg11.dtd"> 
<svg
  xmlns:svg="http://www.w3.org/2000/svg"
  xmlns="http://www.w3.org/2000/svg"
  xmlns:xlink="http://www.w3.org/1999/xlink"
  version="1.1"
  width="29.700220cm" height="21.000720cm" viewBox="0 0 116930 82680">
<title>SVG Picture created as cargadorDeBateriasLitIon-49-F_Fab.svg date 2021/12/18 17:13:58 </title>
  <desc>Picture generated by PCBNEW </desc>
<g style="fill:#000000; fill-opacity:1;stroke:#000000; stroke-opacity:1;
stroke-linecap:round; stroke-linejoin:round;"
 transform="translate(0 0) scale(1 1)">
</g>
<g style="fill:#000000; fill-opacity:0.0; 
stroke:#000000; stroke-width:-0.000787402; stroke-opacity:1; 
stroke-linecap:round; stroke-linejoin:round;">
</g>
<g style="fill:#000000; fill-opacity:0.0; 
stroke:#000000; stroke-width:39.3701; stroke-opacity:1; 
stroke-linecap:round; stroke-linejoin:round;">
<path d="M49204 37664
L62590 37664
" />
<path d="M49204 47113
L49204 37664
" />
<path d="M62590 47113
L49204 47113
" />
<path d="M62590 37664
L62590 47113
" />
</g>
<g style="fill:#000000; fill-opacity:0.0; 
stroke:#000000; stroke-width:78.7402; stroke-opacity:1; 
stroke-linecap:round; stroke-linejoin:round;">
<path d="M53944 40436
L53944 42877
" />
<path d="M53944 42877
L52527 42877
" />
<path d="M52527 40948
L52527 42877
" />
<path d="M53944 40436
L53039 40436
" />
<path d="M52527 40948
L53039 40436
" />
<path d="M61252 39554
L59992 39554
" />
<path d="M61252 38924
L61252 39554
" />
<path d="M59992 38924
L61252 38924
" />
<path d="M59992 39554
L59992 38924
" />
<path d="M61330 40971
L61330 42231
" />
<path d="M60700 40971
L61330 40971
" />
<path d="M60700 42231
L60700 40971
" />
<path d="M61330 42231
L60700 42231
" />
<path d="M55661 40499
L56921 40499
" />
<path d="M55661 41129
L55661 40499
" />
<path d="M56921 41129
L55661 41129
" />
<path d="M56921 40499
L56921 41129
" />
<path d="M51094 39003
L51094 40263
" />
<path d="M50464 39003
L51094 39003
" />
<path d="M50464 40263
L50464 39003
" />
<path d="M51094 40263
L50464 40263
" />
<path d="M57315 45948
L58417 45948
" />
<path d="M58417 43554
L58417 45948
" />
<path d="M57315 44003
L57748 43554
" />
<path d="M57748 43554
L58417 43554
" />
<path d="M57315 44003
L57315 45932
" />
<path d="M60070 45948
L61173 45948
" />
<path d="M61173 43554
L61173 45948
" />
<path d="M60070 44003
L60504 43554
" />
<path d="M60504 43554
L61173 43554
" />
<path d="M60070 44003
L60070 45932
" />
<path d="M54559 44672
L54559 44042
" />
<path d="M53299 44672
L54559 44672
" />
<path d="M53299 44278
L53299 44672
" />
<path d="M53535 44042
L53299 44278
" />
<path d="M54559 44042
L53535 44042
" />
<path d="M51094 41759
L51094 43019
" />
<path d="M50464 41759
L51094 41759
" />
<path d="M50464 43019
L50464 41759
" />
<path d="M51094 43019
L50464 43019
" />
<path d="M57236 38924
L58496 38924
" />
<path d="M57236 39554
L57236 38924
" />
<path d="M58496 39554
L57236 39554
" />
<path d="M58496 38924
L58496 39554
" />
<path d="M52029 44672
L50769 44672
" />
<path d="M52029 44042
L52029 44672
" />
<path d="M50769 44042
L52029 44042
" />
<path d="M50769 44672
L50769 44042
" />
<path d="M56921 42704
L55661 42704
" />
<path d="M56921 42074
L56921 42704
" />
<path d="M55661 42074
L56921 42074
" />
<path d="M55661 42704
L55661 42074
" />
<g >
</g>
<g >
</g>
<g >
</g>
<g >
</g>
<g >
</g>
<g >
</g>
<g >
</g>
<g >
</g>
<g >
</g>
<g >
</g>
<g >
</g>
<g >
</g>
<g >
</g>
</g>
<g style="fill:#000000; fill-opacity:0.0; 
stroke:#000000; stroke-width:78.7402; stroke-opacity:1; 
stroke-linecap:round; stroke-linejoin:round;">
</g>
<g style="fill:#000000; fill-opacity:0.0; 
stroke:#000000; stroke-width:118.11; stroke-opacity:1; 
stroke-linecap:round; stroke-linejoin:round;">
<text x="53236.3" y="44334.1"
textLength="8102.55" font-size="1049.87" lengthAdjust="spacingAndGlyphs"
text-anchor="middle" opacity="0">MCP73831-2</text>
<path d="M49449 44296
L49449 43509
L49711 44071
L49974 43509
L49974 44296
" />
<path d="M50799 44221
L50761 44259
L50649 44296
L50574 44296
L50461 44259
L50386 44184
L50349 44109
L50311 43959
L50311 43846
L50349 43696
L50386 43621
L50461 43546
L50574 43509
L50649 43509
L50761 43546
L50799 43584
" />
<path d="M51136 44296
L51136 43509
L51436 43509
L51511 43546
L51549 43584
L51586 43659
L51586 43771
L51549 43846
L51511 43884
L51436 43921
L51136 43921
" />
<path d="M51848 43509
L52373 43509
L52036 44296
" />
<path d="M52598 43509
L53086 43509
L52823 43809
L52936 43809
L53011 43846
L53048 43884
L53086 43959
L53086 44146
L53048 44221
L53011 44259
L52936 44296
L52711 44296
L52636 44259
L52598 44221
" />
<path d="M53536 43846
L53461 43809
L53423 43771
L53386 43696
L53386 43659
L53423 43584
L53461 43546
L53536 43509
L53686 43509
L53761 43546
L53798 43584
L53836 43659
L53836 43696
L53798 43771
L53761 43809
L53686 43846
L53536 43846
L53461 43884
L53423 43921
L53386 43996
L53386 44146
L53423 44221
L53461 44259
L53536 44296
L53686 44296
L53761 44259
L53798 44221
L53836 44146
L53836 43996
L53798 43921
L53761 43884
L53686 43846
" />
<path d="M54098 43509
L54586 43509
L54323 43809
L54436 43809
L54511 43846
L54548 43884
L54586 43959
L54586 44146
L54548 44221
L54511 44259
L54436 44296
L54211 44296
L54136 44259
L54098 44221
" />
<path d="M55336 44296
L54886 44296
" />
<path d="M55111 44296
L55111 43509
L55036 43621
L54961 43696
L54886 43734
" />
<path d="M55673 43996
L56273 43996
" />
<path d="M56610 43584
L56648 43546
L56723 43509
L56910 43509
L56985 43546
L57023 43584
L57060 43659
L57060 43734
L57023 43846
L56573 44296
L57060 44296
" />
</g>
<g style="fill:#000000; fill-opacity:0.0; 
stroke:#000000; stroke-width:59.0551; stroke-opacity:1; 
stroke-linecap:round; stroke-linejoin:round;">
<g transform="rotate(-90 53236.3 41656.9)">
<text x="53236.3" y="41853.8"
textLength="940.945" font-size="524.934" lengthAdjust="spacingAndGlyphs"
text-anchor="middle" opacity="0">U1</text>
</g>
<path d="M53020 41956
L53339 41956
L53376 41938
L53395 41919
L53414 41881
L53414 41806
L53395 41769
L53376 41750
L53339 41731
L53020 41731
" />
<path d="M53414 41338
L53414 41563
" />
<path d="M53414 41450
L53020 41450
L53076 41488
L53114 41525
L53133 41563
" />
</g>
<g style="fill:#000000; fill-opacity:0.0; 
stroke:#000000; stroke-width:118.11; stroke-opacity:1; 
stroke-linecap:round; stroke-linejoin:round;">
<text x="60622.2" y="40759.3"
textLength="2326.49" font-size="1049.87" lengthAdjust="spacingAndGlyphs"
text-anchor="middle" opacity="0">330</text>
<path d="M59609 39934
L60097 39934
L59834 40234
L59947 40234
L60022 40271
L60059 40309
L60097 40384
L60097 40571
L60059 40646
L60022 40684
L59947 40721
L59722 40721
L59647 40684
L59609 40646
" />
<path d="M60359 39934
L60847 39934
L60584 40234
L60697 40234
L60772 40271
L60809 40309
L60847 40384
L60847 40571
L60809 40646
L60772 40684
L60697 40721
L60472 40721
L60397 40684
L60359 40646
" />
<path d="M61334 39934
L61409 39934
L61484 39971
L61522 40009
L61559 40084
L61597 40234
L61597 40421
L61559 40571
L61522 40646
L61484 40684
L61409 40721
L61334 40721
L61259 40684
L61222 40646
L61184 40571
L61147 40421
L61147 40234
L61184 40084
L61222 40009
L61259 39971
L61334 39934
" />
</g>
<g style="fill:#000000; fill-opacity:0.0; 
stroke:#000000; stroke-width:47.2441; stroke-opacity:1; 
stroke-linecap:round; stroke-linejoin:round;">
<text x="60622.2" y="39397.1"
textLength="768.466" font-size="419.947" lengthAdjust="spacingAndGlyphs"
text-anchor="middle" opacity="0">R4</text>
<path d="M60569 39382
L60464 39232
" />
<path d="M60389 39382
L60389 39067
L60509 39067
L60539 39082
L60554 39097
L60569 39127
L60569 39172
L60554 39202
L60539 39217
L60509 39232
L60389 39232
" />
<path d="M60839 39172
L60839 39382
" />
<path d="M60764 39052
L60689 39277
L60884 39277
" />
</g>
<g style="fill:#000000; fill-opacity:0.0; 
stroke:#000000; stroke-width:118.11; stroke-opacity:1; 
stroke-linecap:round; stroke-linejoin:round;">
<g transform="rotate(-90 62141.8 41601.8)">
<text x="62141.8" y="41995.5"
textLength="2723.58" font-size="1049.87" lengthAdjust="spacingAndGlyphs"
text-anchor="middle" opacity="0">2.7K</text>
</g>
<path d="M61785 42782
L61748 42745
L61710 42670
L61710 42482
L61748 42407
L61785 42370
L61860 42332
L61935 42332
L62048 42370
L62498 42820
L62498 42332
" />
<path d="M62423 41995
L62460 41958
L62498 41995
L62460 42033
L62423 41995
L62498 41995
" />
<path d="M61710 41695
L61710 41170
L62498 41508
" />
<path d="M62498 40870
L61710 40870
" />
<path d="M62498 40420
L62048 40758
" />
<path d="M61710 40420
L62160 40870
" />
</g>
<g style="fill:#000000; fill-opacity:0.0; 
stroke:#000000; stroke-width:47.2441; stroke-opacity:1; 
stroke-linecap:round; stroke-linejoin:round;">
<g transform="rotate(-90 61015.9 41601.8)">
<text x="61015.9" y="41759.3"
textLength="768.466" font-size="419.947" lengthAdjust="spacingAndGlyphs"
text-anchor="middle" opacity="0">R3</text>
</g>
<path d="M61158 41654
L61008 41759
" />
<path d="M61158 41834
L60843 41834
L60843 41714
L60858 41684
L60873 41669
L60903 41654
L60948 41654
L60978 41669
L60993 41684
L61008 41714
L61008 41834
" />
<path d="M60843 41549
L60843 41354
L60963 41459
L60963 41414
L60978 41384
L60993 41369
L61023 41354
L61098 41354
L61128 41369
L61143 41384
L61158 41414
L61158 41504
L61143 41534
L61128 41549
" />
</g>
<g style="fill:#000000; fill-opacity:0.0; 
stroke:#000000; stroke-width:118.11; stroke-opacity:1; 
stroke-linecap:round; stroke-linejoin:round;">
<text x="56291.4" y="40082.1"
textLength="1598.73" font-size="1049.87" lengthAdjust="spacingAndGlyphs"
text-anchor="middle" opacity="0">2K</text>
<path d="M55672 39332
L55710 39294
L55785 39257
L55972 39257
L56047 39294
L56085 39332
L56122 39407
L56122 39482
L56085 39594
L55635 40044
L56122 40044
" />
<path d="M56460 40044
L56460 39257
" />
<path d="M56910 40044
L56572 39594
" />
<path d="M56910 39257
L56460 39707
" />
</g>
<g style="fill:#000000; fill-opacity:0.0; 
stroke:#000000; stroke-width:47.2441; stroke-opacity:1; 
stroke-linecap:round; stroke-linejoin:round;">
<text x="56291.4" y="40971.9"
textLength="768.466" font-size="419.947" lengthAdjust="spacingAndGlyphs"
text-anchor="middle" opacity="0">R2</text>
<path d="M56238 40956
L56133 40806
" />
<path d="M56058 40956
L56058 40641
L56178 40641
L56208 40656
L56223 40671
L56238 40701
L56238 40746
L56223 40776
L56208 40791
L56178 40806
L56058 40806
" />
<path d="M56358 40671
L56373 40656
L56403 40641
L56478 40641
L56508 40656
L56523 40671
L56538 40701
L56538 40731
L56523 40776
L56343 40956
L56538 40956
" />
</g>
<g style="fill:#000000; fill-opacity:0.0; 
stroke:#000000; stroke-width:118.11; stroke-opacity:1; 
stroke-linecap:round; stroke-linejoin:round;">
<g transform="rotate(-90 51905.6 39633.3)">
<text x="51905.6" y="40027"
textLength="2311.14" font-size="1049.87" lengthAdjust="spacingAndGlyphs"
text-anchor="middle" opacity="0">470</text>
</g>
<path d="M51736 40233
L52261 40233
" />
<path d="M51436 40420
L51999 40608
L51999 40120
" />
<path d="M51474 39895
L51474 39370
L52261 39708
" />
<path d="M51474 38920
L51474 38845
L51511 38770
L51549 38733
L51624 38695
L51774 38658
L51961 38658
L52111 38695
L52186 38733
L52224 38770
L52261 38845
L52261 38920
L52224 38995
L52186 39033
L52111 39070
L51961 39108
L51774 39108
L51624 39070
L51549 39033
L51511 38995
L51474 38920
" />
</g>
<g style="fill:#000000; fill-opacity:0.0; 
stroke:#000000; stroke-width:47.2441; stroke-opacity:1; 
stroke-linecap:round; stroke-linejoin:round;">
<g transform="rotate(-90 50779.6 39633.3)">
<text x="50779.6" y="39790.8"
textLength="768.466" font-size="419.947" lengthAdjust="spacingAndGlyphs"
text-anchor="middle" opacity="0">R1</text>
</g>
<path d="M50922 39685
L50772 39790
" />
<path d="M50922 39865
L50607 39865
L50607 39745
L50622 39715
L50637 39700
L50667 39685
L50712 39685
L50742 39700
L50757 39715
L50772 39745
L50772 39865
" />
<path d="M50922 39385
L50922 39565
" />
<path d="M50922 39475
L50607 39475
L50652 39505
L50682 39535
L50697 39565
" />
</g>
<g style="fill:#000000; fill-opacity:0.0; 
stroke:#000000; stroke-width:118.11; stroke-opacity:1; 
stroke-linecap:round; stroke-linejoin:round;">
<text x="57866.2" y="47113.6"
textLength="4635.85" font-size="1049.87" lengthAdjust="spacingAndGlyphs"
text-anchor="middle" opacity="0">2N7002</text>
<path d="M55729 46363
L55766 46326
L55841 46288
L56028 46288
L56103 46326
L56141 46363
L56178 46438
L56178 46513
L56141 46626
L55691 47076
L56178 47076
" />
<path d="M56516 47076
L56516 46288
L56966 47076
L56966 46288
" />
<path d="M57266 46288
L57791 46288
L57453 47076
" />
<path d="M58241 46288
L58316 46288
L58391 46326
L58428 46363
L58466 46438
L58503 46588
L58503 46776
L58466 46926
L58428 47001
L58391 47038
L58316 47076
L58241 47076
L58166 47038
L58128 47001
L58091 46926
L58053 46776
L58053 46588
L58091 46438
L58128 46363
L58166 46326
L58241 46288
" />
<path d="M58991 46288
L59066 46288
L59141 46326
L59178 46363
L59216 46438
L59253 46588
L59253 46776
L59216 46926
L59178 47001
L59141 47038
L59066 47076
L58991 47076
L58916 47038
L58878 47001
L58841 46926
L58803 46776
L58803 46588
L58841 46438
L58878 46363
L58916 46326
L58991 46288
" />
<path d="M59553 46363
L59591 46326
L59666 46288
L59853 46288
L59928 46326
L59965 46363
L60003 46438
L60003 46513
L59965 46626
L59516 47076
L60003 47076
" />
</g>
<g style="fill:#000000; fill-opacity:0.0; 
stroke:#000000; stroke-width:59.0551; stroke-opacity:1; 
stroke-linecap:round; stroke-linejoin:round;">
<g transform="rotate(-90 57866.2 44751.4)">
<text x="57866.2" y="44948.3"
textLength="940.945" font-size="524.934" lengthAdjust="spacingAndGlyphs"
text-anchor="middle" opacity="0">Q2</text>
</g>
<path d="M58081 44788
L58063 44826
L58025 44863
L57969 44920
L57950 44957
L57950 44995
" />
<path d="M58044 44976
L58025 45013
L57988 45051
L57913 45070
L57781 45070
L57706 45051
L57669 45013
L57650 44976
L57650 44901
L57669 44863
L57706 44826
L57781 44807
L57913 44807
L57988 44826
L58025 44863
L58044 44901
L58044 44976
" />
<path d="M57688 44657
L57669 44638
L57650 44601
L57650 44507
L57669 44470
L57688 44451
L57725 44432
L57763 44432
L57819 44451
L58044 44676
L58044 44432
" />
</g>
<g style="fill:#000000; fill-opacity:0.0; 
stroke:#000000; stroke-width:118.11; stroke-opacity:1; 
stroke-linecap:round; stroke-linejoin:round;">
<text x="60622.2" y="47113.6"
textLength="4651.2" font-size="1049.87" lengthAdjust="spacingAndGlyphs"
text-anchor="middle" opacity="0">2N7002</text>
<path d="M58484 46363
L58522 46326
L58597 46288
L58784 46288
L58859 46326
L58897 46363
L58934 46438
L58934 46513
L58897 46626
L58447 47076
L58934 47076
" />
<path d="M59272 47076
L59272 46288
L59722 47076
L59722 46288
" />
<path d="M60022 46288
L60547 46288
L60209 47076
" />
<path d="M60997 46288
L61072 46288
L61147 46326
L61184 46363
L61222 46438
L61259 46588
L61259 46776
L61222 46926
L61184 47001
L61147 47038
L61072 47076
L60997 47076
L60922 47038
L60884 47001
L60847 46926
L60809 46776
L60809 46588
L60847 46438
L60884 46363
L60922 46326
L60997 46288
" />
<path d="M61747 46288
L61822 46288
L61896 46326
L61934 46363
L61971 46438
L62009 46588
L62009 46776
L61971 46926
L61934 47001
L61896 47038
L61822 47076
L61747 47076
L61672 47038
L61634 47001
L61597 46926
L61559 46776
L61559 46588
L61597 46438
L61634 46363
L61672 46326
L61747 46288
" />
<path d="M62309 46363
L62346 46326
L62421 46288
L62609 46288
L62684 46326
L62721 46363
L62759 46438
L62759 46513
L62721 46626
L62271 47076
L62759 47076
" />
</g>
<g style="fill:#000000; fill-opacity:0.0; 
stroke:#000000; stroke-width:59.0551; stroke-opacity:1; 
stroke-linecap:round; stroke-linejoin:round;">
<g transform="rotate(-90 60622.2 44751.4)">
<text x="60622.2" y="44948.3"
textLength="940.945" font-size="524.934" lengthAdjust="spacingAndGlyphs"
text-anchor="middle" opacity="0">Q1</text>
</g>
<path d="M60837 44788
L60819 44826
L60781 44863
L60725 44920
L60706 44957
L60706 44995
" />
<path d="M60800 44976
L60781 45013
L60744 45051
L60669 45070
L60537 45070
L60462 45051
L60425 45013
L60406 44976
L60406 44901
L60425 44863
L60462 44826
L60537 44807
L60669 44807
L60744 44826
L60781 44863
L60800 44901
L60800 44976
" />
<path d="M60800 44432
L60800 44657
" />
<path d="M60800 44545
L60406 44545
L60462 44582
L60500 44620
L60519 44657
" />
</g>
<g style="fill:#000000; fill-opacity:0.0; 
stroke:#000000; stroke-width:118.11; stroke-opacity:1; 
stroke-linecap:round; stroke-linejoin:round;">
<text x="53929.2" y="45877.4"
textLength="2701.44" font-size="1049.87" lengthAdjust="spacingAndGlyphs"
text-anchor="middle" opacity="0">STAT</text>
<path d="M52766 45802
L52879 45839
L53066 45839
L53141 45802
L53179 45764
L53216 45689
L53216 45614
L53179 45539
L53141 45502
L53066 45464
L52916 45427
L52841 45389
L52804 45352
L52766 45277
L52766 45202
L52804 45127
L52841 45090
L52916 45052
L53104 45052
L53216 45090
" />
<path d="M53441 45052
L53891 45052
" />
<path d="M53666 45839
L53666 45052
" />
<path d="M54116 45614
L54491 45614
" />
<path d="M54041 45839
L54304 45052
L54566 45839
" />
<path d="M54716 45052
L55166 45052
" />
<path d="M54941 45839
L54941 45052
" />
</g>
<g style="fill:#000000; fill-opacity:0.0; 
stroke:#000000; stroke-width:47.2441; stroke-opacity:1; 
stroke-linecap:round; stroke-linejoin:round;">
<text x="53929.2" y="44515.2"
textLength="768.466" font-size="419.947" lengthAdjust="spacingAndGlyphs"
text-anchor="middle" opacity="0">D1</text>
<path d="M53696 44500
L53696 44185
L53771 44185
L53816 44200
L53846 44230
L53861 44260
L53876 44320
L53876 44365
L53861 44425
L53846 44455
L53816 44485
L53771 44500
L53696 44500
" />
<path d="M54176 44500
L53996 44500
" />
<path d="M54086 44500
L54086 44185
L54056 44230
L54026 44260
L53996 44275
" />
</g>
<g style="fill:#000000; fill-opacity:0.0; 
stroke:#000000; stroke-width:118.11; stroke-opacity:1; 
stroke-linecap:round; stroke-linejoin:round;">
<g transform="rotate(-90 51905.6 42389.2)">
<text x="51905.6" y="42782.9"
textLength="3698.46" font-size="1049.87" lengthAdjust="spacingAndGlyphs"
text-anchor="middle" opacity="0">100nF</text>
</g>
<path d="M52261 43607
L52261 44057
" />
<path d="M52261 43832
L51474 43832
L51586 43907
L51661 43982
L51699 44057
" />
<path d="M51474 43120
L51474 43045
L51511 42970
L51549 42932
L51624 42895
L51774 42857
L51961 42857
L52111 42895
L52186 42932
L52224 42970
L52261 43045
L52261 43120
L52224 43195
L52186 43232
L52111 43270
L51961 43307
L51774 43307
L51624 43270
L51549 43232
L51511 43195
L51474 43120
" />
<path d="M51474 42370
L51474 42295
L51511 42220
L51549 42182
L51624 42145
L51774 42107
L51961 42107
L52111 42145
L52186 42182
L52224 42220
L52261 42295
L52261 42370
L52224 42445
L52186 42482
L52111 42520
L51961 42557
L51774 42557
L51624 42520
L51549 42482
L51511 42445
L51474 42370
" />
<path d="M51736 41770
L52261 41770
" />
<path d="M51811 41770
L51774 41733
L51736 41658
L51736 41545
L51774 41470
L51849 41433
L52261 41433
" />
<path d="M51849 40795
L51849 41058
" />
<path d="M52261 41058
L51474 41058
L51474 40683
" />
</g>
<g style="fill:#000000; fill-opacity:0.0; 
stroke:#000000; stroke-width:47.2441; stroke-opacity:1; 
stroke-linecap:round; stroke-linejoin:round;">
<g transform="rotate(-90 50779.6 42389.2)">
<text x="50779.6" y="42546.7"
textLength="768.466" font-size="419.947" lengthAdjust="spacingAndGlyphs"
text-anchor="middle" opacity="0">C4</text>
</g>
<path d="M50892 42441
L50907 42456
L50922 42501
L50922 42531
L50907 42576
L50877 42606
L50847 42621
L50787 42636
L50742 42636
L50682 42621
L50652 42606
L50622 42576
L50607 42531
L50607 42501
L50622 42456
L50637 42441
" />
<path d="M50712 42171
L50922 42171
" />
<path d="M50592 42246
L50817 42321
L50817 42126
" />
</g>
<g style="fill:#000000; fill-opacity:0.0; 
stroke:#000000; stroke-width:118.11; stroke-opacity:1; 
stroke-linecap:round; stroke-linejoin:round;">
<text x="57866.2" y="38507.3"
textLength="3698.46" font-size="1049.87" lengthAdjust="spacingAndGlyphs"
text-anchor="middle" opacity="0">100nF</text>
<path d="M56647 38469
L56197 38469
" />
<path d="M56422 38469
L56422 37682
L56347 37794
L56272 37869
L56197 37907
" />
<path d="M57135 37682
L57210 37682
L57285 37719
L57322 37757
L57360 37832
L57397 37982
L57397 38169
L57360 38319
L57322 38394
L57285 38432
L57210 38469
L57135 38469
L57060 38432
L57022 38394
L56985 38319
L56947 38169
L56947 37982
L56985 37832
L57022 37757
L57060 37719
L57135 37682
" />
<path d="M57884 37682
L57959 37682
L58034 37719
L58072 37757
L58109 37832
L58147 37982
L58147 38169
L58109 38319
L58072 38394
L58034 38432
L57959 38469
L57884 38469
L57810 38432
L57772 38394
L57735 38319
L57697 38169
L57697 37982
L57735 37832
L57772 37757
L57810 37719
L57884 37682
" />
<path d="M58484 37944
L58484 38469
" />
<path d="M58484 38019
L58522 37982
L58597 37944
L58709 37944
L58784 37982
L58822 38057
L58822 38469
" />
<path d="M59459 38057
L59197 38057
" />
<path d="M59197 38469
L59197 37682
L59572 37682
" />
</g>
<g style="fill:#000000; fill-opacity:0.0; 
stroke:#000000; stroke-width:47.2441; stroke-opacity:1; 
stroke-linecap:round; stroke-linejoin:round;">
<text x="57866.2" y="39397.1"
textLength="768.466" font-size="419.947" lengthAdjust="spacingAndGlyphs"
text-anchor="middle" opacity="0">C3</text>
<path d="M57813 39352
L57798 39367
L57753 39382
L57723 39382
L57678 39367
L57648 39337
L57633 39307
L57618 39247
L57618 39202
L57633 39142
L57648 39112
L57678 39082
L57723 39067
L57753 39067
L57798 39082
L57813 39097
" />
<path d="M57918 39067
L58113 39067
L58008 39187
L58053 39187
L58083 39202
L58098 39217
L58113 39247
L58113 39322
L58098 39352
L58083 39367
L58053 39382
L57963 39382
L57933 39367
L57918 39352
" />
</g>
<g style="fill:#000000; fill-opacity:0.0; 
stroke:#000000; stroke-width:118.11; stroke-opacity:1; 
stroke-linecap:round; stroke-linejoin:round;">
<text x="51399.7" y="45877.4"
textLength="3323.51" font-size="1049.87" lengthAdjust="spacingAndGlyphs"
text-anchor="middle" opacity="0">4.7uF</text>
<path d="M50293 45314
L50293 45839
" />
<path d="M50106 45015
L49918 45577
L50406 45577
" />
<path d="M50706 45764
L50743 45802
L50706 45839
L50668 45802
L50706 45764
L50706 45839
" />
<path d="M51006 45052
L51530 45052
L51193 45839
" />
<path d="M52168 45314
L52168 45839
" />
<path d="M51830 45314
L51830 45727
L51868 45802
L51943 45839
L52055 45839
L52130 45802
L52168 45764
" />
<path d="M52805 45427
L52543 45427
" />
<path d="M52543 45839
L52543 45052
L52918 45052
" />
</g>
<g style="fill:#000000; fill-opacity:0.0; 
stroke:#000000; stroke-width:47.2441; stroke-opacity:1; 
stroke-linecap:round; stroke-linejoin:round;">
<text x="51399.7" y="44515.2"
textLength="768.466" font-size="419.947" lengthAdjust="spacingAndGlyphs"
text-anchor="middle" opacity="0">C2</text>
<path d="M51347 44470
L51332 44485
L51287 44500
L51257 44500
L51212 44485
L51182 44455
L51167 44425
L51152 44365
L51152 44320
L51167 44260
L51182 44230
L51212 44200
L51257 44185
L51287 44185
L51332 44200
L51347 44215
" />
<path d="M51467 44215
L51482 44200
L51512 44185
L51587 44185
L51617 44200
L51632 44215
L51647 44245
L51647 44275
L51632 44320
L51452 44500
L51647 44500
" />
</g>
<g style="fill:#000000; fill-opacity:0.0; 
stroke:#000000; stroke-width:118.11; stroke-opacity:1; 
stroke-linecap:round; stroke-linejoin:round;">
<text x="56291.4" y="43908.9"
textLength="3323.51" font-size="1049.87" lengthAdjust="spacingAndGlyphs"
text-anchor="middle" opacity="0">4.7uF</text>
<path d="M55185 43346
L55185 43871
" />
<path d="M54997 43046
L54810 43608
L55297 43608
" />
<path d="M55597 43796
L55635 43833
L55597 43871
L55560 43833
L55597 43796
L55597 43871
" />
<path d="M55897 43084
L56422 43084
L56085 43871
" />
<path d="M57060 43346
L57060 43871
" />
<path d="M56722 43346
L56722 43758
L56760 43833
L56835 43871
L56947 43871
L57022 43833
L57060 43796
" />
<path d="M57697 43458
L57435 43458
" />
<path d="M57435 43871
L57435 43084
L57810 43084
" />
</g>
<g style="fill:#000000; fill-opacity:0.0; 
stroke:#000000; stroke-width:47.2441; stroke-opacity:1; 
stroke-linecap:round; stroke-linejoin:round;">
<text x="56291.4" y="42546.7"
textLength="768.466" font-size="419.947" lengthAdjust="spacingAndGlyphs"
text-anchor="middle" opacity="0">C1</text>
<path d="M56238 42501
L56223 42516
L56178 42531
L56148 42531
L56103 42516
L56073 42486
L56058 42456
L56043 42396
L56043 42351
L56058 42291
L56073 42261
L56103 42231
L56148 42216
L56178 42216
L56223 42231
L56238 42246
" />
<path d="M56538 42531
L56358 42531
" />
<path d="M56448 42531
L56448 42216
L56418 42261
L56388 42291
L56358 42306
" />
<g >
</g>
</g> 
</svg>
