<?xml version="1.0" standalone="no"?>
 <!DOCTYPE svg PUBLIC "-//W3C//DTD SVG 1.1//EN" 
 "http://www.w3.org/Graphics/SVG/1.1/DTD/svg11.dtd"> 
<svg
  xmlns:svg="http://www.w3.org/2000/svg"
  xmlns="http://www.w3.org/2000/svg"
  xmlns:xlink="http://www.w3.org/1999/xlink"
  version="1.1"
  width="29.700220cm" height="21.000720cm" viewBox="0 0 116930 82680">
<title>SVG Picture created as cargadorDeBateriasLitIon-39-F_Mask.svg date 2021/12/18 17:13:58 </title>
  <desc>Picture generated by PCBNEW </desc>
<g style="fill:#000000; fill-opacity:1;stroke:#000000; stroke-opacity:1;
stroke-linecap:round; stroke-linejoin:round;"
 transform="translate(0 0) scale(1 1)">
</g>
<g style="fill:#000000; fill-opacity:0.0; 
stroke:#000000; stroke-width:-0.000787402; stroke-opacity:1; 
stroke-linecap:round; stroke-linejoin:round;">
</g>
<g style="fill:#000000; fill-opacity:0.0; 
stroke:#000000; stroke-width:39.3701; stroke-opacity:1; 
stroke-linecap:round; stroke-linejoin:round;">
<path d="M49204 37664
L62590 37664
" />
<path d="M49204 47113
L49204 37664
" />
<path d="M62590 47113
L49204 47113
" />
<path d="M62590 37664
L62590 47113
" />
<g >
</g>
<g style="fill:#000000; fill-opacity:0.0; 
stroke:#000000; stroke-width:0; stroke-opacity:1; 
stroke-linecap:round; stroke-linejoin:round;">
</g>
<g style="fill:#000000; fill-opacity:1.0; 
stroke:#000000; stroke-width:0; stroke-opacity:1; 
stroke-linecap:round; stroke-linejoin:round;">
<path style="fill:#000000; fill-opacity:1.0; 
stroke:#000000; stroke-width:0; stroke-opacity:1; 
stroke-linecap:round; stroke-linejoin:round;fill-rule:evenodd;"
d="M 60015.8,42192.6
60019.6,42193.1
60023.3,42194.1
60027,42195.4
60030.5,42197
60033.8,42199
60036.9,42201.3
60039.8,42203.9
60042.3,42206.8
60044.7,42209.9
60046.6,42213.2
60048.3,42216.7
60049.6,42220.3
60050.5,42224.1
60051.1,42227.9
60051.3,42231.7
60051.3,42861.7
60051.1,42865.5
60050.5,42869.3
60049.6,42873.1
60048.3,42876.7
60046.6,42880.2
60044.7,42883.5
60042.3,42886.6
60039.8,42889.5
60036.9,42892.1
60033.8,42894.4
60030.5,42896.4
60027,42898
60023.3,42899.3
60019.6,42900.3
60015.8,42900.8
60011.9,42901
59578.8,42901
59575,42900.8
59571.2,42900.3
59567.4,42899.3
59563.8,42898
59560.3,42896.4
59557,42894.4
59553.9,42892.1
59551,42889.5
59548.4,42886.6
59546.1,42883.5
59544.1,42880.2
59542.5,42876.7
59541.2,42873.1
59540.2,42869.3
59539.7,42865.5
59539.5,42861.7
59539.5,42231.7
59539.7,42227.9
59540.2,42224.1
59541.2,42220.3
59542.5,42216.7
59544.1,42213.2
59546.1,42209.9
59548.4,42206.8
59551,42203.9
59553.9,42201.3
59557,42199
59560.3,42197
59563.8,42195.4
59567.4,42194.1
59571.2,42193.1
59575,42192.6
59578.8,42192.4
60011.9,42192.4
Z" /> 
<path style="fill:#000000; fill-opacity:1.0; 
stroke:#000000; stroke-width:0; stroke-opacity:1; 
stroke-linecap:round; stroke-linejoin:round;fill-rule:evenodd;"
d="M 58519.7,42192.6
58523.5,42193.1
58527.3,42194.1
58530.9,42195.4
58534.4,42197
58537.7,42199
58540.8,42201.3
58543.7,42203.9
58546.3,42206.8
58548.6,42209.9
58550.6,42213.2
58552.2,42216.7
58553.5,42220.3
58554.5,42224.1
58555,42227.9
58555.2,42231.7
58555.2,42861.7
58555,42865.5
58554.5,42869.3
58553.5,42873.1
58552.2,42876.7
58550.6,42880.2
58548.6,42883.5
58546.3,42886.6
58543.7,42889.5
58540.8,42892.1
58537.7,42894.4
58534.4,42896.4
58530.9,42898
58527.3,42899.3
58523.5,42900.3
58519.7,42900.8
58515.9,42901
58082.8,42901
58078.9,42900.8
58075.1,42900.3
58071.4,42899.3
58067.7,42898
58064.2,42896.4
58060.9,42894.4
58057.8,42892.1
58054.9,42889.5
58052.3,42886.6
58050,42883.5
58048.1,42880.2
58046.4,42876.7
58045.1,42873.1
58044.2,42869.3
58043.6,42865.5
58043.4,42861.7
58043.4,42231.7
58043.6,42227.9
58044.2,42224.1
58045.1,42220.3
58046.4,42216.7
58048.1,42213.2
58050,42209.9
58052.3,42206.8
58054.9,42203.9
58057.8,42201.3
58060.9,42199
58064.2,42197
58067.7,42195.4
58071.4,42194.1
58075.1,42193.1
58078.9,42192.6
58082.8,42192.4
58515.9,42192.4
Z" /> 
<path style="fill:#000000; fill-opacity:1.0; 
stroke:#000000; stroke-width:0; stroke-opacity:1; 
stroke-linecap:round; stroke-linejoin:round;fill-rule:evenodd;"
d="M 58519.7,40302.8
58523.5,40303.4
58527.3,40304.3
58530.9,40305.6
58534.4,40307.2
58537.7,40309.2
58540.8,40311.5
58543.7,40314.1
58546.3,40317
58548.6,40320.1
58550.6,40323.4
58552.2,40326.9
58553.5,40330.5
58554.5,40334.3
58555,40338.1
58555.2,40342
58555.2,40971.9
58555,40975.7
58554.5,40979.6
58553.5,40983.3
58552.2,40987
58550.6,40990.4
58548.6,40993.8
58546.3,40996.9
58543.7,40999.7
58540.8,41002.3
58537.7,41004.6
58534.4,41006.6
58530.9,41008.3
58527.3,41009.6
58523.5,41010.5
58519.7,41011.1
58515.9,41011.3
58082.8,41011.3
58078.9,41011.1
58075.1,41010.5
58071.4,41009.6
58067.7,41008.3
58064.2,41006.6
58060.9,41004.6
58057.8,41002.3
58054.9,40999.7
58052.3,40996.9
58050,40993.8
58048.1,40990.4
58046.4,40987
58045.1,40983.3
58044.2,40979.6
58043.6,40975.7
58043.4,40971.9
58043.4,40342
58043.6,40338.1
58044.2,40334.3
58045.1,40330.5
58046.4,40326.9
58048.1,40323.4
58050,40320.1
58052.3,40317
58054.9,40314.1
58057.8,40311.5
58060.9,40309.2
58064.2,40307.2
58067.7,40305.6
58071.4,40304.3
58075.1,40303.4
58078.9,40302.8
58082.8,40302.6
58515.9,40302.6
Z" /> 
<path style="fill:#000000; fill-opacity:1.0; 
stroke:#000000; stroke-width:0; stroke-opacity:1; 
stroke-linecap:round; stroke-linejoin:round;fill-rule:evenodd;"
d="M 59267.7,40302.8
59271.6,40303.4
59275.3,40304.3
59279,40305.6
59282.4,40307.2
59285.8,40309.2
59288.9,40311.5
59291.7,40314.1
59294.3,40317
59296.6,40320.1
59298.6,40323.4
59300.3,40326.9
59301.6,40330.5
59302.5,40334.3
59303.1,40338.1
59303.3,40342
59303.3,40971.9
59303.1,40975.7
59302.5,40979.6
59301.6,40983.3
59300.3,40987
59298.6,40990.4
59296.6,40993.8
59294.3,40996.9
59291.7,40999.7
59288.9,41002.3
59285.8,41004.6
59282.4,41006.6
59279,41008.3
59275.3,41009.6
59271.6,41010.5
59267.7,41011.1
59263.9,41011.3
58830.8,41011.3
58827,41011.1
58823.1,41010.5
58819.4,41009.6
58815.7,41008.3
58812.3,41006.6
58808.9,41004.6
58805.8,41002.3
58803,40999.7
58800.4,40996.9
58798.1,40993.8
58796.1,40990.4
58794.4,40987
58793.1,40983.3
58792.2,40979.6
58791.6,40975.7
58791.4,40971.9
58791.4,40342
58791.6,40338.1
58792.2,40334.3
58793.1,40330.5
58794.4,40326.9
58796.1,40323.4
58798.1,40320.1
58800.4,40317
58803,40314.1
58805.8,40311.5
58808.9,40309.2
58812.3,40307.2
58815.7,40305.6
58819.4,40304.3
58823.1,40303.4
58827,40302.8
58830.8,40302.6
59263.9,40302.6
Z" /> 
<path style="fill:#000000; fill-opacity:1.0; 
stroke:#000000; stroke-width:0; stroke-opacity:1; 
stroke-linecap:round; stroke-linejoin:round;fill-rule:evenodd;"
d="M 60015.8,40302.8
60019.6,40303.4
60023.3,40304.3
60027,40305.6
60030.5,40307.2
60033.8,40309.2
60036.9,40311.5
60039.8,40314.1
60042.3,40317
60044.7,40320.1
60046.6,40323.4
60048.3,40326.9
60049.6,40330.5
60050.5,40334.3
60051.1,40338.1
60051.3,40342
60051.3,40971.9
60051.1,40975.7
60050.5,40979.6
60049.6,40983.3
60048.3,40987
60046.6,40990.4
60044.7,40993.8
60042.3,40996.9
60039.8,40999.7
60036.9,41002.3
60033.8,41004.6
60030.5,41006.6
60027,41008.3
60023.3,41009.6
60019.6,41010.5
60015.8,41011.1
60011.9,41011.3
59578.8,41011.3
59575,41011.1
59571.2,41010.5
59567.4,41009.6
59563.8,41008.3
59560.3,41006.6
59557,41004.6
59553.9,41002.3
59551,40999.7
59548.4,40996.9
59546.1,40993.8
59544.1,40990.4
59542.5,40987
59541.2,40983.3
59540.2,40979.6
59539.7,40975.7
59539.5,40971.9
59539.5,40342
59539.7,40338.1
59540.2,40334.3
59541.2,40330.5
59542.5,40326.9
59544.1,40323.4
59546.1,40320.1
59548.4,40317
59551,40314.1
59553.9,40311.5
59557,40309.2
59560.3,40307.2
59563.8,40305.6
59567.4,40304.3
59571.2,40303.4
59575,40302.8
59578.8,40302.6
60011.9,40302.6
Z" /> 
</g>
<g >
</g>
<g style="fill:#000000; fill-opacity:1.0; 
stroke:#000000; stroke-width:0; stroke-opacity:1; 
stroke-linecap:round; stroke-linejoin:round;">
<path style="fill:#000000; fill-opacity:1.0; 
stroke:#000000; stroke-width:0; stroke-opacity:1; 
stroke-linecap:round; stroke-linejoin:round;fill-rule:evenodd;"
d="M 54523.6,40613.8
54527.5,40614.4
54531.2,40615.3
54534.9,40616.6
54538.3,40618.3
54541.7,40620.3
54544.8,40622.6
54547.6,40625.2
54550.2,40628
54552.5,40631.1
54554.5,40634.4
54556.2,40637.9
54557.5,40641.6
54558.4,40645.3
54559,40649.1
54559.2,40653
54559.2,41164.8
54559,41168.7
54558.4,41172.5
54557.5,41176.2
54556.2,41179.9
54554.5,41183.4
54552.5,41186.7
54550.2,41189.8
54547.6,41192.6
54544.8,41195.2
54541.7,41197.5
54538.3,41199.5
54534.9,41201.2
54531.2,41202.5
54527.5,41203.4
54523.6,41204
54519.8,41204.2
53685.1,41204.2
53681.3,41204
53677.5,41203.4
53673.7,41202.5
53670.1,41201.2
53666.6,41199.5
53663.3,41197.5
53660.2,41195.2
53657.3,41192.6
53654.7,41189.8
53652.4,41186.7
53650.4,41183.4
53648.8,41179.9
53647.5,41176.2
53646.5,41172.5
53646,41168.7
53645.8,41164.8
53645.8,40653
53646,40649.1
53646.5,40645.3
53647.5,40641.6
53648.8,40637.9
53650.4,40634.4
53652.4,40631.1
53654.7,40628
53657.3,40625.2
53660.2,40622.6
53663.3,40620.3
53666.6,40618.3
53670.1,40616.6
53673.7,40615.3
53677.5,40614.4
53681.3,40613.8
53685.1,40613.6
54519.8,40613.6
Z" /> 
<path style="fill:#000000; fill-opacity:1.0; 
stroke:#000000; stroke-width:0; stroke-opacity:1; 
stroke-linecap:round; stroke-linejoin:round;fill-rule:evenodd;"
d="M 54523.6,42109.9
54527.5,42110.4
54531.2,42111.4
54534.9,42112.7
54538.3,42114.3
54541.7,42116.3
54544.8,42118.6
54547.6,42121.2
54550.2,42124.1
54552.5,42127.2
54554.5,42130.5
54556.2,42134
54557.5,42137.6
54558.4,42141.4
54559,42145.2
54559.2,42149.1
54559.2,42660.9
54559,42664.7
54558.4,42668.5
54557.5,42672.3
54556.2,42675.9
54554.5,42679.4
54552.5,42682.7
54550.2,42685.8
54547.6,42688.7
54544.8,42691.3
54541.7,42693.6
54538.3,42695.6
54534.9,42697.2
54531.2,42698.5
54527.5,42699.5
54523.6,42700
54519.8,42700.2
53685.1,42700.2
53681.3,42700
53677.5,42699.5
53673.7,42698.5
53670.1,42697.2
53666.6,42695.6
53663.3,42693.6
53660.2,42691.3
53657.3,42688.7
53654.7,42685.8
53652.4,42682.7
53650.4,42679.4
53648.8,42675.9
53647.5,42672.3
53646.5,42668.5
53646,42664.7
53645.8,42660.9
53645.8,42149.1
53646,42145.2
53646.5,42141.4
53647.5,42137.6
53648.8,42134
53650.4,42130.5
53652.4,42127.2
53654.7,42124.1
53657.3,42121.2
53660.2,42118.6
53663.3,42116.3
53666.6,42114.3
53670.1,42112.7
53673.7,42111.4
53677.5,42110.4
53681.3,42109.9
53685.1,42109.7
54519.8,42109.7
Z" /> 
<path style="fill:#000000; fill-opacity:1.0; 
stroke:#000000; stroke-width:0; stroke-opacity:1; 
stroke-linecap:round; stroke-linejoin:round;fill-rule:evenodd;"
d="M 52791.4,42109.9
52795.2,42110.4
52798.9,42111.4
52802.6,42112.7
52806.1,42114.3
52809.4,42116.3
52812.5,42118.6
52815.3,42121.2
52817.9,42124.1
52820.2,42127.2
52822.2,42130.5
52823.9,42134
52825.2,42137.6
52826.1,42141.4
52826.7,42145.2
52826.9,42149.1
52826.9,42660.9
52826.7,42664.7
52826.1,42668.5
52825.2,42672.3
52823.9,42675.9
52822.2,42679.4
52820.2,42682.7
52817.9,42685.8
52815.3,42688.7
52812.5,42691.3
52809.4,42693.6
52806.1,42695.6
52802.6,42697.2
52798.9,42698.5
52795.2,42699.5
52791.4,42700
52787.5,42700.2
51952.9,42700.2
51949,42700
51945.2,42699.5
51941.4,42698.5
51937.8,42697.2
51934.3,42695.6
51931,42693.6
51927.9,42691.3
51925,42688.7
51922.4,42685.8
51920.1,42682.7
51918.1,42679.4
51916.5,42675.9
51915.2,42672.3
51914.2,42668.5
51913.7,42664.7
51913.5,42660.9
51913.5,42149.1
51913.7,42145.2
51914.2,42141.4
51915.2,42137.6
51916.5,42134
51918.1,42130.5
51920.1,42127.2
51922.4,42124.1
51925,42121.2
51927.9,42118.6
51931,42116.3
51934.3,42114.3
51937.8,42112.7
51941.4,42111.4
51945.2,42110.4
51949,42109.9
51952.9,42109.7
52787.5,42109.7
Z" /> 
<path style="fill:#000000; fill-opacity:1.0; 
stroke:#000000; stroke-width:0; stroke-opacity:1; 
stroke-linecap:round; stroke-linejoin:round;fill-rule:evenodd;"
d="M 52791.4,41361.8
52795.2,41362.4
52798.9,41363.3
52802.6,41364.7
52806.1,41366.3
52809.4,41368.3
52812.5,41370.6
52815.3,41373.2
52817.9,41376
52820.2,41379.2
52822.2,41382.5
52823.9,41386
52825.2,41389.6
52826.1,41393.3
52826.7,41397.2
52826.9,41401
52826.9,41912.8
52826.7,41916.7
52826.1,41920.5
52825.2,41924.3
52823.9,41927.9
52822.2,41931.4
52820.2,41934.7
52817.9,41937.8
52815.3,41940.7
52812.5,41943.3
52809.4,41945.6
52806.1,41947.6
52802.6,41949.2
52798.9,41950.5
52795.2,41951.4
52791.4,41952
52787.5,41952.2
51952.9,41952.2
51949,41952
51945.2,41951.4
51941.4,41950.5
51937.8,41949.2
51934.3,41947.6
51931,41945.6
51927.9,41943.3
51925,41940.7
51922.4,41937.8
51920.1,41934.7
51918.1,41931.4
51916.5,41927.9
51915.2,41924.3
51914.2,41920.5
51913.7,41916.7
51913.5,41912.8
51913.5,41401
51913.7,41397.2
51914.2,41393.3
51915.2,41389.6
51916.5,41386
51918.1,41382.5
51920.1,41379.2
51922.4,41376
51925,41373.2
51927.9,41370.6
51931,41368.3
51934.3,41366.3
51937.8,41364.7
51941.4,41363.3
51945.2,41362.4
51949,41361.8
51952.9,41361.7
52787.5,41361.7
Z" /> 
<path style="fill:#000000; fill-opacity:1.0; 
stroke:#000000; stroke-width:0; stroke-opacity:1; 
stroke-linecap:round; stroke-linejoin:round;fill-rule:evenodd;"
d="M 52791.4,40613.8
52795.2,40614.4
52798.9,40615.3
52802.6,40616.6
52806.1,40618.3
52809.4,40620.3
52812.5,40622.6
52815.3,40625.2
52817.9,40628
52820.2,40631.1
52822.2,40634.4
52823.9,40637.9
52825.2,40641.6
52826.1,40645.3
52826.7,40649.1
52826.9,40653
52826.9,41164.8
52826.7,41168.7
52826.1,41172.5
52825.2,41176.2
52823.9,41179.9
52822.2,41183.4
52820.2,41186.7
52817.9,41189.8
52815.3,41192.6
52812.5,41195.2
52809.4,41197.5
52806.1,41199.5
52802.6,41201.2
52798.9,41202.5
52795.2,41203.4
52791.4,41204
52787.5,41204.2
51952.9,41204.2
51949,41204
51945.2,41203.4
51941.4,41202.5
51937.8,41201.2
51934.3,41199.5
51931,41197.5
51927.9,41195.2
51925,41192.6
51922.4,41189.8
51920.1,41186.7
51918.1,41183.4
51916.5,41179.9
51915.2,41176.2
51914.2,41172.5
51913.7,41168.7
51913.5,41164.8
51913.5,40653
51913.7,40649.1
51914.2,40645.3
51915.2,40641.6
51916.5,40637.9
51918.1,40634.4
51920.1,40631.1
51922.4,40628
51925,40625.2
51927.9,40622.6
51931,40620.3
51934.3,40618.3
51937.8,40616.6
51941.4,40615.3
51945.2,40614.4
51949,40613.8
51952.9,40613.6
52787.5,40613.6
Z" /> 
</g>
<g >
</g>
<g style="fill:#000000; fill-opacity:1.0; 
stroke:#000000; stroke-width:0; stroke-opacity:1; 
stroke-linecap:round; stroke-linejoin:round;">
<path style="fill:#000000; fill-opacity:1.0; 
stroke:#000000; stroke-width:0; stroke-opacity:1; 
stroke-linecap:round; stroke-linejoin:round;fill-rule:evenodd;"
d="M 61453,38827.1
61471.6,38829.9
61489.9,38834.5
61507.6,38840.8
61524.6,38848.9
61540.8,38858.6
61555.9,38869.8
61569.9,38882.4
61582.5,38896.4
61593.7,38911.5
61603.4,38927.7
61611.5,38944.7
61617.8,38962.4
61622.4,38980.7
61625.2,38999.3
61626.1,39018.1
61626.1,39461.1
61625.2,39479.9
61622.4,39498.5
61617.8,39516.8
61611.5,39534.5
61603.4,39551.5
61593.7,39567.7
61582.5,39582.8
61569.9,39596.8
61555.9,39609.4
61540.8,39620.6
61524.6,39630.3
61507.6,39638.4
61489.9,39644.7
61471.6,39649.3
61453,39652.1
61434.2,39653
61050.3,39653
61031.5,39652.1
61012.9,39649.3
60994.6,39644.7
60976.9,39638.4
60959.8,39630.3
60943.7,39620.6
60928.5,39609.4
60914.6,39596.8
60901.9,39582.8
60890.7,39567.7
60881,39551.5
60873,39534.5
60866.6,39516.8
60862.1,39498.5
60859.3,39479.9
60858.4,39461.1
60858.4,39018.1
60859.3,38999.3
60862.1,38980.7
60866.6,38962.4
60873,38944.7
60881,38927.7
60890.7,38911.5
60901.9,38896.4
60914.6,38882.4
60928.5,38869.8
60943.7,38858.6
60959.8,38848.9
60976.9,38840.8
60994.6,38834.5
61012.9,38829.9
61031.5,38827.1
61050.3,38826.2
61434.2,38826.2
Z" /> 
<path style="fill:#000000; fill-opacity:1.0; 
stroke:#000000; stroke-width:0; stroke-opacity:1; 
stroke-linecap:round; stroke-linejoin:round;fill-rule:evenodd;"
d="M 60212.8,38827.1
60231.4,38829.9
60249.7,38834.5
60267.5,38840.8
60284.5,38848.9
60300.6,38858.6
60315.8,38869.8
60329.7,38882.4
60342.4,38896.4
60353.6,38911.5
60363.3,38927.7
60371.3,38944.7
60377.7,38962.4
60382.2,38980.7
60385,38999.3
60385.9,39018.1
60385.9,39461.1
60385,39479.9
60382.2,39498.5
60377.7,39516.8
60371.3,39534.5
60363.3,39551.5
60353.6,39567.7
60342.4,39582.8
60329.7,39596.8
60315.8,39609.4
60300.6,39620.6
60284.5,39630.3
60267.5,39638.4
60249.7,39644.7
60231.4,39649.3
60212.8,39652.1
60194,39653
59810.1,39653
59791.3,39652.1
59772.7,39649.3
59754.4,39644.7
59736.7,39638.4
59719.7,39630.3
59703.5,39620.6
59688.4,39609.4
59674.4,39596.8
59661.8,39582.8
59650.6,39567.7
59640.9,39551.5
59632.8,39534.5
59626.5,39516.8
59621.9,39498.5
59619.1,39479.9
59618.2,39461.1
59618.2,39018.1
59619.1,38999.3
59621.9,38980.7
59626.5,38962.4
59632.8,38944.7
59640.9,38927.7
59650.6,38911.5
59661.8,38896.4
59674.4,38882.4
59688.4,38869.8
59703.5,38858.6
59719.7,38848.9
59736.7,38840.8
59754.4,38834.5
59772.7,38829.9
59791.3,38827.1
59810.1,38826.2
60194,38826.2
Z" /> 
</g>
<g >
</g>
<g style="fill:#000000; fill-opacity:1.0; 
stroke:#000000; stroke-width:0; stroke-opacity:1; 
stroke-linecap:round; stroke-linejoin:round;">
<path style="fill:#000000; fill-opacity:1.0; 
stroke:#000000; stroke-width:0; stroke-opacity:1; 
stroke-linecap:round; stroke-linejoin:round;fill-rule:evenodd;"
d="M 61256.1,40598.8
61274.8,40601.6
61293,40606.1
61310.8,40612.5
61327.8,40620.5
61343.9,40630.2
61359.1,40641.4
61373,40654.1
61385.7,40668
61396.9,40683.2
61406.6,40699.3
61414.6,40716.4
61421,40734.1
61425.6,40752.4
61428.3,40771
61429.2,40789.8
61429.2,41173.7
61428.3,41192.5
61425.6,41211.1
61421,41229.4
61414.6,41247.1
61406.6,41264.1
61396.9,41280.3
61385.7,41295.4
61373,41309.4
61359.1,41322
61343.9,41333.2
61327.8,41342.9
61310.8,41351
61293,41357.3
61274.8,41361.9
61256.1,41364.7
61237.3,41365.6
60794.4,41365.6
60775.6,41364.7
60757,41361.9
60738.7,41357.3
60720.9,41351
60703.9,41342.9
60687.8,41333.2
60672.6,41322
60658.7,41309.4
60646,41295.4
60634.8,41280.3
60625.1,41264.1
60617.1,41247.1
60610.7,41229.4
60606.2,41211.1
60603.4,41192.5
60602.5,41173.7
60602.5,40789.8
60603.4,40771
60606.2,40752.4
60610.7,40734.1
60617.1,40716.4
60625.1,40699.3
60634.8,40683.2
60646,40668
60658.7,40654.1
60672.6,40641.4
60687.8,40630.2
60703.9,40620.5
60720.9,40612.5
60738.7,40606.1
60757,40601.6
60775.6,40598.8
60794.4,40597.9
61237.3,40597.9
Z" /> 
<path style="fill:#000000; fill-opacity:1.0; 
stroke:#000000; stroke-width:0; stroke-opacity:1; 
stroke-linecap:round; stroke-linejoin:round;fill-rule:evenodd;"
d="M 61256.1,41839
61274.8,41841.7
61293,41846.3
61310.8,41852.6
61327.8,41860.7
61343.9,41870.4
61359.1,41881.6
61373,41894.2
61385.7,41908.2
61396.9,41923.3
61406.6,41939.5
61414.6,41956.5
61421,41974.2
61425.6,41992.5
61428.3,42011.1
61429.2,42030
61429.2,42413.8
61428.3,42432.6
61425.6,42451.3
61421,42469.5
61414.6,42487.3
61406.6,42504.3
61396.9,42520.4
61385.7,42535.6
61373,42549.5
61359.1,42562.2
61343.9,42573.4
61327.8,42583.1
61310.8,42591.1
61293,42597.5
61274.8,42602.1
61256.1,42604.8
61237.3,42605.7
60794.4,42605.7
60775.6,42604.8
60757,42602.1
60738.7,42597.5
60720.9,42591.1
60703.9,42583.1
60687.8,42573.4
60672.6,42562.2
60658.7,42549.5
60646,42535.6
60634.8,42520.4
60625.1,42504.3
60617.1,42487.3
60610.7,42469.5
60606.2,42451.3
60603.4,42432.6
60602.5,42413.8
60602.5,42030
60603.4,42011.1
60606.2,41992.5
60610.7,41974.2
60617.1,41956.5
60625.1,41939.5
60634.8,41923.3
60646,41908.2
60658.7,41894.2
60672.6,41881.6
60687.8,41870.4
60703.9,41860.7
60720.9,41852.6
60738.7,41846.3
60757,41841.7
60775.6,41839
60794.4,41838
61237.3,41838
Z" /> 
</g>
<g >
</g>
<g style="fill:#000000; fill-opacity:1.0; 
stroke:#000000; stroke-width:0; stroke-opacity:1; 
stroke-linecap:round; stroke-linejoin:round;">
<path style="fill:#000000; fill-opacity:1.0; 
stroke:#000000; stroke-width:0; stroke-opacity:1; 
stroke-linecap:round; stroke-linejoin:round;fill-rule:evenodd;"
d="M 55882.1,40401.9
55900.7,40404.7
55919,40409.3
55936.7,40415.6
55953.8,40423.7
55969.9,40433.4
55985.1,40444.6
55999,40457.2
56011.7,40471.2
56022.9,40486.3
56032.6,40502.5
56040.6,40519.5
56047,40537.2
56051.5,40555.5
56054.3,40574.1
56055.2,40593
56055.2,41035.9
56054.3,41054.7
56051.5,41073.3
56047,41091.6
56040.6,41109.3
56032.6,41126.3
56022.9,41142.5
56011.7,41157.6
55999,41171.6
55985.1,41184.2
55969.9,41195.4
55953.8,41205.1
55936.7,41213.2
55919,41219.5
55900.7,41224.1
55882.1,41226.9
55863.3,41227.8
55479.4,41227.8
55460.6,41226.9
55442,41224.1
55423.7,41219.5
55406,41213.2
55389,41205.1
55372.8,41195.4
55357.7,41184.2
55343.7,41171.6
55331.1,41157.6
55319.9,41142.5
55310.2,41126.3
55302.1,41109.3
55295.8,41091.6
55291.2,41073.3
55288.4,41054.7
55287.5,41035.9
55287.5,40593
55288.4,40574.1
55291.2,40555.5
55295.8,40537.2
55302.1,40519.5
55310.2,40502.5
55319.9,40486.3
55331.1,40471.2
55343.7,40457.2
55357.7,40444.6
55372.8,40433.4
55389,40423.7
55406,40415.6
55423.7,40409.3
55442,40404.7
55460.6,40401.9
55479.4,40401
55863.3,40401
Z" /> 
<path style="fill:#000000; fill-opacity:1.0; 
stroke:#000000; stroke-width:0; stroke-opacity:1; 
stroke-linecap:round; stroke-linejoin:round;fill-rule:evenodd;"
d="M 57122.3,40401.9
57140.9,40404.7
57159.2,40409.3
57176.9,40415.6
57193.9,40423.7
57210.1,40433.4
57225.2,40444.6
57239.2,40457.2
57251.8,40471.2
57263,40486.3
57272.7,40502.5
57280.8,40519.5
57287.1,40537.2
57291.7,40555.5
57294.5,40574.1
57295.4,40593
57295.4,41035.9
57294.5,41054.7
57291.7,41073.3
57287.1,41091.6
57280.8,41109.3
57272.7,41126.3
57263,41142.5
57251.8,41157.6
57239.2,41171.6
57225.2,41184.2
57210.1,41195.4
57193.9,41205.1
57176.9,41213.2
57159.2,41219.5
57140.9,41224.1
57122.3,41226.9
57103.5,41227.8
56719.6,41227.8
56700.8,41226.9
56682.1,41224.1
56663.9,41219.5
56646.1,41213.2
56629.1,41205.1
56613,41195.4
56597.8,41184.2
56583.9,41171.6
56571.2,41157.6
56560,41142.5
56550.3,41126.3
56542.3,41109.3
56535.9,41091.6
56531.4,41073.3
56528.6,41054.7
56527.7,41035.9
56527.7,40593
56528.6,40574.1
56531.4,40555.5
56535.9,40537.2
56542.3,40519.5
56550.3,40502.5
56560,40486.3
56571.2,40471.2
56583.9,40457.2
56597.8,40444.6
56613,40433.4
56629.1,40423.7
56646.1,40415.6
56663.9,40409.3
56682.1,40404.7
56700.8,40401.9
56719.6,40401
57103.5,40401
Z" /> 
</g>
<g >
</g>
<g style="fill:#000000; fill-opacity:1.0; 
stroke:#000000; stroke-width:0; stroke-opacity:1; 
stroke-linecap:round; stroke-linejoin:round;">
<path style="fill:#000000; fill-opacity:1.0; 
stroke:#000000; stroke-width:0; stroke-opacity:1; 
stroke-linecap:round; stroke-linejoin:round;fill-rule:evenodd;"
d="M 51019.9,38630.3
51038.5,38633.1
51056.8,38637.6
51074.5,38644
51091.6,38652
51107.7,38661.7
51122.8,38672.9
51136.8,38685.6
51149.5,38699.5
51160.7,38714.7
51170.4,38730.8
51178.4,38747.9
51184.8,38765.6
51189.3,38783.9
51192.1,38802.5
51193,38821.3
51193,39205.2
51192.1,39224
51189.3,39242.6
51184.8,39260.9
51178.4,39278.6
51170.4,39295.6
51160.7,39311.8
51149.5,39326.9
51136.8,39340.9
51122.8,39353.5
51107.7,39364.7
51091.6,39374.4
51074.5,39382.5
51056.8,39388.8
51038.5,39393.4
51019.9,39396.2
51001.1,39397.1
50558.2,39397.1
50539.4,39396.2
50520.7,39393.4
50502.5,39388.8
50484.7,39382.5
50467.7,39374.4
50451.5,39364.7
50436.4,39353.5
50422.5,39340.9
50409.8,39326.9
50398.6,39311.8
50388.9,39295.6
50380.9,39278.6
50374.5,39260.9
50369.9,39242.6
50367.2,39224
50366.2,39205.2
50366.2,38821.3
50367.2,38802.5
50369.9,38783.9
50374.5,38765.6
50380.9,38747.9
50388.9,38730.8
50398.6,38714.7
50409.8,38699.5
50422.5,38685.6
50436.4,38672.9
50451.5,38661.7
50467.7,38652
50484.7,38644
50502.5,38637.6
50520.7,38633.1
50539.4,38630.3
50558.2,38629.4
51001.1,38629.4
Z" /> 
<path style="fill:#000000; fill-opacity:1.0; 
stroke:#000000; stroke-width:0; stroke-opacity:1; 
stroke-linecap:round; stroke-linejoin:round;fill-rule:evenodd;"
d="M 51019.9,39870.5
51038.5,39873.2
51056.8,39877.8
51074.5,39884.1
51091.6,39892.2
51107.7,39901.9
51122.8,39913.1
51136.8,39925.7
51149.5,39939.7
51160.7,39954.8
51170.4,39971
51178.4,39988
51184.8,40005.7
51189.3,40024
51192.1,40042.6
51193,40061.5
51193,40445.3
51192.1,40464.1
51189.3,40482.8
51184.8,40501
51178.4,40518.8
51170.4,40535.8
51160.7,40551.9
51149.5,40567.1
51136.8,40581
51122.8,40593.7
51107.7,40604.9
51091.6,40614.6
51074.5,40622.6
51056.8,40629
51038.5,40633.6
51019.9,40636.3
51001.1,40637.2
50558.2,40637.2
50539.4,40636.3
50520.7,40633.6
50502.5,40629
50484.7,40622.6
50467.7,40614.6
50451.5,40604.9
50436.4,40593.7
50422.5,40581
50409.8,40567.1
50398.6,40551.9
50388.9,40535.8
50380.9,40518.8
50374.5,40501
50369.9,40482.8
50367.2,40464.1
50366.2,40445.3
50366.2,40061.5
50367.2,40042.6
50369.9,40024
50374.5,40005.7
50380.9,39988
50388.9,39971
50398.6,39954.8
50409.8,39939.7
50422.5,39925.7
50436.4,39913.1
50451.5,39901.9
50467.7,39892.2
50484.7,39884.1
50502.5,39877.8
50520.7,39873.2
50539.4,39870.5
50558.2,39869.5
51001.1,39869.5
Z" /> 
</g>
<g >
</g>
<g style="fill:#000000; fill-opacity:1.0; 
stroke:#000000; stroke-width:0; stroke-opacity:1; 
stroke-linecap:round; stroke-linejoin:round;">
<path style="fill:#000000; fill-opacity:1.0; 
stroke:#000000; stroke-width:0; stroke-opacity:1; 
stroke-linecap:round; stroke-linejoin:round;fill-rule:evenodd;"
d="M 59011.8,44397.3
59015.7,44397.8
59019.4,44398.8
59023,44400.1
59026.5,44401.7
59029.9,44403.7
59033,44406
59035.8,44408.6
59038.4,44411.5
59040.7,44414.6
59042.7,44417.9
59044.4,44421.4
59045.7,44425
59046.6,44428.8
59047.2,44432.6
59047.3,44436.5
59047.3,45066.4
59047.2,45070.2
59046.6,45074.1
59045.7,45077.8
59044.4,45081.4
59042.7,45084.9
59040.7,45088.3
59038.4,45091.4
59035.8,45094.2
59033,45096.8
59029.9,45099.1
59026.5,45101.1
59023,45102.8
59019.4,45104.1
59015.7,45105
59011.8,45105.6
59008,45105.7
58299.3,45105.7
58295.5,45105.6
58291.6,45105
58287.9,45104.1
58284.3,45102.8
58280.8,45101.1
58277.4,45099.1
58274.3,45096.8
58271.5,45094.2
58268.9,45091.4
58266.6,45088.3
58264.6,45084.9
58262.9,45081.4
58261.6,45077.8
58260.7,45074.1
58260.1,45070.2
58259.9,45066.4
58259.9,44436.5
58260.1,44432.6
58260.7,44428.8
58261.6,44425
58262.9,44421.4
58264.6,44417.9
58266.6,44414.6
58268.9,44411.5
58271.5,44408.6
58274.3,44406
58277.4,44403.7
58280.8,44401.7
58284.3,44400.1
58287.9,44398.8
58291.6,44397.8
58295.5,44397.3
58299.3,44397.1
59008,44397.1
Z" /> 
<path style="fill:#000000; fill-opacity:1.0; 
stroke:#000000; stroke-width:0; stroke-opacity:1; 
stroke-linecap:round; stroke-linejoin:round;fill-rule:evenodd;"
d="M 57437,45145.3
57440.9,45145.9
57444.6,45146.8
57448.2,45148.1
57451.7,45149.8
57455,45151.8
57458.2,45154.1
57461,45156.6
57463.6,45159.5
57465.9,45162.6
57467.9,45165.9
57469.5,45169.4
57470.9,45173.1
57471.8,45176.8
57472.4,45180.6
57472.5,45184.5
57472.5,45814.4
57472.4,45818.3
57471.8,45822.1
57470.9,45825.8
57469.5,45829.5
57467.9,45833
57465.9,45836.3
57463.6,45839.4
57461,45842.2
57458.2,45844.8
57455,45847.1
57451.7,45849.1
57448.2,45850.8
57444.6,45852.1
57440.9,45853
57437,45853.6
57433.2,45853.8
56724.5,45853.8
56720.7,45853.6
56716.8,45853
56713.1,45852.1
56709.4,45850.8
56706,45849.1
56702.6,45847.1
56699.5,45844.8
56696.7,45842.2
56694.1,45839.4
56691.8,45836.3
56689.8,45833
56688.1,45829.5
56686.8,45825.8
56685.9,45822.1
56685.3,45818.3
56685.1,45814.4
56685.1,45184.5
56685.3,45180.6
56685.9,45176.8
56686.8,45173.1
56688.1,45169.4
56689.8,45165.9
56691.8,45162.6
56694.1,45159.5
56696.7,45156.6
56699.5,45154.1
56702.6,45151.8
56706,45149.8
56709.4,45148.1
56713.1,45146.8
56716.8,45145.9
56720.7,45145.3
56724.5,45145.1
57433.2,45145.1
Z" /> 
<path style="fill:#000000; fill-opacity:1.0; 
stroke:#000000; stroke-width:0; stroke-opacity:1; 
stroke-linecap:round; stroke-linejoin:round;fill-rule:evenodd;"
d="M 57437,43649.2
57440.9,43649.8
57444.6,43650.8
57448.2,43652.1
57451.7,43653.7
57455,43655.7
57458.2,43658
57461,43660.6
57463.6,43663.4
57465.9,43666.6
57467.9,43669.9
57469.5,43673.4
57470.9,43677
57471.8,43680.7
57472.4,43684.6
57472.5,43688.4
57472.5,44318.3
57472.4,44322.2
57471.8,44326
57470.9,44329.8
57469.5,44333.4
57467.9,44336.9
57465.9,44340.2
57463.6,44343.3
57461,44346.2
57458.2,44348.8
57455,44351.1
57451.7,44353.1
57448.2,44354.7
57444.6,44356
57440.9,44357
57437,44357.5
57433.2,44357.7
56724.5,44357.7
56720.7,44357.5
56716.8,44357
56713.1,44356
56709.4,44354.7
56706,44353.1
56702.6,44351.1
56699.5,44348.8
56696.7,44346.2
56694.1,44343.3
56691.8,44340.2
56689.8,44336.9
56688.1,44333.4
56686.8,44329.8
56685.9,44326
56685.3,44322.2
56685.1,44318.3
56685.1,43688.4
56685.3,43684.6
56685.9,43680.7
56686.8,43677
56688.1,43673.4
56689.8,43669.9
56691.8,43666.6
56694.1,43663.4
56696.7,43660.6
56699.5,43658
56702.6,43655.7
56706,43653.7
56709.4,43652.1
56713.1,43650.8
56716.8,43649.8
56720.7,43649.2
56724.5,43649.1
57433.2,43649.1
Z" /> 
</g>
<g >
</g>
<g style="fill:#000000; fill-opacity:1.0; 
stroke:#000000; stroke-width:0; stroke-opacity:1; 
stroke-linecap:round; stroke-linejoin:round;">
<path style="fill:#000000; fill-opacity:1.0; 
stroke:#000000; stroke-width:0; stroke-opacity:1; 
stroke-linecap:round; stroke-linejoin:round;fill-rule:evenodd;"
d="M 61767.7,44397.3
61771.6,44397.8
61775.3,44398.8
61779,44400.1
61782.4,44401.7
61785.8,44403.7
61788.9,44406
61791.7,44408.6
61794.3,44411.5
61796.6,44414.6
61798.6,44417.9
61800.3,44421.4
61801.6,44425
61802.5,44428.8
61803.1,44432.6
61803.3,44436.5
61803.3,45066.4
61803.1,45070.2
61802.5,45074.1
61801.6,45077.8
61800.3,45081.4
61798.6,45084.9
61796.6,45088.3
61794.3,45091.4
61791.7,45094.2
61788.9,45096.8
61785.8,45099.1
61782.4,45101.1
61779,45102.8
61775.3,45104.1
61771.6,45105
61767.7,45105.6
61763.9,45105.7
61055.2,45105.7
61051.4,45105.6
61047.5,45105
61043.8,45104.1
61040.2,45102.8
61036.7,45101.1
61033.3,45099.1
61030.2,45096.8
61027.4,45094.2
61024.8,45091.4
61022.5,45088.3
61020.5,45084.9
61018.8,45081.4
61017.5,45077.8
61016.6,45074.1
61016,45070.2
61015.9,45066.4
61015.9,44436.5
61016,44432.6
61016.6,44428.8
61017.5,44425
61018.8,44421.4
61020.5,44417.9
61022.5,44414.6
61024.8,44411.5
61027.4,44408.6
61030.2,44406
61033.3,44403.7
61036.7,44401.7
61040.2,44400.1
61043.8,44398.8
61047.5,44397.8
61051.4,44397.3
61055.2,44397.1
61763.9,44397.1
Z" /> 
<path style="fill:#000000; fill-opacity:1.0; 
stroke:#000000; stroke-width:0; stroke-opacity:1; 
stroke-linecap:round; stroke-linejoin:round;fill-rule:evenodd;"
d="M 60192.9,45145.3
60196.8,45145.9
60200.5,45146.8
60204.1,45148.1
60207.6,45149.8
60211,45151.8
60214.1,45154.1
60216.9,45156.6
60219.5,45159.5
60221.8,45162.6
60223.8,45165.9
60225.5,45169.4
60226.8,45173.1
60227.7,45176.8
60228.3,45180.6
60228.5,45184.5
60228.5,45814.4
60228.3,45818.3
60227.7,45822.1
60226.8,45825.8
60225.5,45829.5
60223.8,45833
60221.8,45836.3
60219.5,45839.4
60216.9,45842.2
60214.1,45844.8
60211,45847.1
60207.6,45849.1
60204.1,45850.8
60200.5,45852.1
60196.8,45853
60192.9,45853.6
60189.1,45853.8
59480.4,45853.8
59476.6,45853.6
59472.7,45853
59469,45852.1
59465.4,45850.8
59461.9,45849.1
59458.5,45847.1
59455.4,45844.8
59452.6,45842.2
59450,45839.4
59447.7,45836.3
59445.7,45833
59444,45829.5
59442.7,45825.8
59441.8,45822.1
59441.2,45818.3
59441,45814.4
59441,45184.5
59441.2,45180.6
59441.8,45176.8
59442.7,45173.1
59444,45169.4
59445.7,45165.9
59447.7,45162.6
59450,45159.5
59452.6,45156.6
59455.4,45154.1
59458.5,45151.8
59461.9,45149.8
59465.4,45148.1
59469,45146.8
59472.7,45145.9
59476.6,45145.3
59480.4,45145.1
60189.1,45145.1
Z" /> 
<path style="fill:#000000; fill-opacity:1.0; 
stroke:#000000; stroke-width:0; stroke-opacity:1; 
stroke-linecap:round; stroke-linejoin:round;fill-rule:evenodd;"
d="M 60192.9,43649.2
60196.8,43649.8
60200.5,43650.8
60204.1,43652.1
60207.6,43653.7
60211,43655.7
60214.1,43658
60216.9,43660.6
60219.5,43663.4
60221.8,43666.6
60223.8,43669.9
60225.5,43673.4
60226.8,43677
60227.7,43680.7
60228.3,43684.6
60228.5,43688.4
60228.5,44318.3
60228.3,44322.2
60227.7,44326
60226.8,44329.8
60225.5,44333.4
60223.8,44336.9
60221.8,44340.2
60219.5,44343.3
60216.9,44346.2
60214.1,44348.8
60211,44351.1
60207.6,44353.1
60204.1,44354.7
60200.5,44356
60196.8,44357
60192.9,44357.5
60189.1,44357.7
59480.4,44357.7
59476.6,44357.5
59472.7,44357
59469,44356
59465.4,44354.7
59461.9,44353.1
59458.5,44351.1
59455.4,44348.8
59452.6,44346.2
59450,44343.3
59447.7,44340.2
59445.7,44336.9
59444,44333.4
59442.7,44329.8
59441.8,44326
59441.2,44322.2
59441,44318.3
59441,43688.4
59441.2,43684.6
59441.8,43680.7
59442.7,43677
59444,43673.4
59445.7,43669.9
59447.7,43666.6
59450,43663.4
59452.6,43660.6
59455.4,43658
59458.5,43655.7
59461.9,43653.7
59465.4,43652.1
59469,43650.8
59472.7,43649.8
59476.6,43649.2
59480.4,43649.1
60189.1,43649.1
Z" /> 
</g>
<g >
</g>
<g style="fill:#000000; fill-opacity:1.0; 
stroke:#000000; stroke-width:0; stroke-opacity:1; 
stroke-linecap:round; stroke-linejoin:round;">
<path style="fill:#000000; fill-opacity:1.0; 
stroke:#000000; stroke-width:0; stroke-opacity:1; 
stroke-linecap:round; stroke-linejoin:round;fill-rule:evenodd;"
d="M 54760.1,43945.3
54778.7,43948
54797,43952.6
54814.7,43958.9
54831.7,43967
54847.9,43976.7
54863,43987.9
54877,44000.5
54889.6,44014.5
54900.8,44029.6
54910.5,44045.8
54918.6,44062.8
54924.9,44080.5
54929.5,44098.8
54932.3,44117.4
54933.2,44136.3
54933.2,44579.2
54932.3,44598
54929.5,44616.6
54924.9,44634.9
54918.6,44652.6
54910.5,44669.6
54900.8,44685.8
54889.6,44700.9
54877,44714.9
54863,44727.5
54847.9,44738.8
54831.7,44748.4
54814.7,44756.5
54797,44762.8
54778.7,44767.4
54760.1,44770.2
54741.2,44771.1
54357.4,44771.1
54338.6,44770.2
54319.9,44767.4
54301.7,44762.8
54283.9,44756.5
54266.9,44748.4
54250.8,44738.8
54235.6,44727.5
54221.7,44714.9
54209,44700.9
54197.8,44685.8
54188.1,44669.6
54180.1,44652.6
54173.7,44634.9
54169.1,44616.6
54166.4,44598
54165.5,44579.2
54165.5,44136.3
54166.4,44117.4
54169.1,44098.8
54173.7,44080.5
54180.1,44062.8
54188.1,44045.8
54197.8,44029.6
54209,44014.5
54221.7,44000.5
54235.6,43987.9
54250.8,43976.7
54266.9,43967
54283.9,43958.9
54301.7,43952.6
54319.9,43948
54338.6,43945.3
54357.4,43944.3
54741.2,43944.3
Z" /> 
<path style="fill:#000000; fill-opacity:1.0; 
stroke:#000000; stroke-width:0; stroke-opacity:1; 
stroke-linecap:round; stroke-linejoin:round;fill-rule:evenodd;"
d="M 53519.9,43945.3
53538.5,43948
53556.8,43952.6
53574.5,43958.9
53591.6,43967
53607.7,43976.7
53622.8,43987.9
53636.8,44000.5
53649.5,44014.5
53660.7,44029.6
53670.4,44045.8
53678.4,44062.8
53684.8,44080.5
53689.3,44098.8
53692.1,44117.4
53693,44136.3
53693,44579.2
53692.1,44598
53689.3,44616.6
53684.8,44634.9
53678.4,44652.6
53670.4,44669.6
53660.7,44685.8
53649.5,44700.9
53636.8,44714.9
53622.8,44727.5
53607.7,44738.8
53591.6,44748.4
53574.5,44756.5
53556.8,44762.8
53538.5,44767.4
53519.9,44770.2
53501.1,44771.1
53117.2,44771.1
53098.4,44770.2
53079.8,44767.4
53061.5,44762.8
53043.8,44756.5
53026.8,44748.4
53010.6,44738.8
52995.5,44727.5
52981.5,44714.9
52968.9,44700.9
52957.6,44685.8
52948,44669.6
52939.9,44652.6
52933.6,44634.9
52929,44616.6
52926.2,44598
52925.3,44579.2
52925.3,44136.3
52926.2,44117.4
52929,44098.8
52933.6,44080.5
52939.9,44062.8
52948,44045.8
52957.6,44029.6
52968.9,44014.5
52981.5,44000.5
52995.5,43987.9
53010.6,43976.7
53026.8,43967
53043.8,43958.9
53061.5,43952.6
53079.8,43948
53098.4,43945.3
53117.2,43944.3
53501.1,43944.3
Z" /> 
</g>
<g >
</g>
<g style="fill:#000000; fill-opacity:1.0; 
stroke:#000000; stroke-width:0; stroke-opacity:1; 
stroke-linecap:round; stroke-linejoin:round;">
<path style="fill:#000000; fill-opacity:1.0; 
stroke:#000000; stroke-width:0; stroke-opacity:1; 
stroke-linecap:round; stroke-linejoin:round;fill-rule:evenodd;"
d="M 51019.9,41386.2
51038.5,41389
51056.8,41393.5
51074.5,41399.9
51091.6,41407.9
51107.7,41417.6
51122.8,41428.8
51136.8,41441.5
51149.5,41455.4
51160.7,41470.6
51170.4,41486.7
51178.4,41503.8
51184.8,41521.5
51189.3,41539.8
51192.1,41558.4
51193,41577.2
51193,41961.1
51192.1,41979.9
51189.3,41998.5
51184.8,42016.8
51178.4,42034.5
51170.4,42051.5
51160.7,42067.7
51149.5,42082.8
51136.8,42096.8
51122.8,42109.4
51107.7,42120.6
51091.6,42130.3
51074.5,42138.4
51056.8,42144.7
51038.5,42149.3
51019.9,42152.1
51001.1,42153
50558.2,42153
50539.4,42152.1
50520.7,42149.3
50502.5,42144.7
50484.7,42138.4
50467.7,42130.3
50451.5,42120.6
50436.4,42109.4
50422.5,42096.8
50409.8,42082.8
50398.6,42067.7
50388.9,42051.5
50380.9,42034.5
50374.5,42016.8
50369.9,41998.5
50367.2,41979.9
50366.2,41961.1
50366.2,41577.2
50367.2,41558.4
50369.9,41539.8
50374.5,41521.5
50380.9,41503.8
50388.9,41486.7
50398.6,41470.6
50409.8,41455.4
50422.5,41441.5
50436.4,41428.8
50451.5,41417.6
50467.7,41407.9
50484.7,41399.9
50502.5,41393.5
50520.7,41389
50539.4,41386.2
50558.2,41385.3
51001.1,41385.3
Z" /> 
<path style="fill:#000000; fill-opacity:1.0; 
stroke:#000000; stroke-width:0; stroke-opacity:1; 
stroke-linecap:round; stroke-linejoin:round;fill-rule:evenodd;"
d="M 51019.9,42626.4
51038.5,42629.1
51056.8,42633.7
51074.5,42640
51091.6,42648.1
51107.7,42657.8
51122.8,42669
51136.8,42681.6
51149.5,42695.6
51160.7,42710.7
51170.4,42726.9
51178.4,42743.9
51184.8,42761.6
51189.3,42779.9
51192.1,42798.5
51193,42817.4
51193,43201.2
51192.1,43220
51189.3,43238.7
51184.8,43256.9
51178.4,43274.7
51170.4,43291.7
51160.7,43307.9
51149.5,43323
51136.8,43336.9
51122.8,43349.6
51107.7,43360.8
51091.6,43370.5
51074.5,43378.5
51056.8,43384.9
51038.5,43389.5
51019.9,43392.2
51001.1,43393.1
50558.2,43393.1
50539.4,43392.2
50520.7,43389.5
50502.5,43384.9
50484.7,43378.5
50467.7,43370.5
50451.5,43360.8
50436.4,43349.6
50422.5,43336.9
50409.8,43323
50398.6,43307.9
50388.9,43291.7
50380.9,43274.7
50374.5,43256.9
50369.9,43238.7
50367.2,43220
50366.2,43201.2
50366.2,42817.4
50367.2,42798.5
50369.9,42779.9
50374.5,42761.6
50380.9,42743.9
50388.9,42726.9
50398.6,42710.7
50409.8,42695.6
50422.5,42681.6
50436.4,42669
50451.5,42657.8
50467.7,42648.1
50484.7,42640
50502.5,42633.7
50520.7,42629.1
50539.4,42626.4
50558.2,42625.4
51001.1,42625.4
Z" /> 
</g>
<g >
</g>
<g style="fill:#000000; fill-opacity:1.0; 
stroke:#000000; stroke-width:0; stroke-opacity:1; 
stroke-linecap:round; stroke-linejoin:round;">
<path style="fill:#000000; fill-opacity:1.0; 
stroke:#000000; stroke-width:0; stroke-opacity:1; 
stroke-linecap:round; stroke-linejoin:round;fill-rule:evenodd;"
d="M 57456.9,38827.1
57475.5,38829.9
57493.8,38834.5
57511.5,38840.8
57528.6,38848.9
57544.7,38858.6
57559.9,38869.8
57573.8,38882.4
57586.5,38896.4
57597.7,38911.5
57607.4,38927.7
57615.4,38944.7
57621.8,38962.4
57626.3,38980.7
57629.1,38999.3
57630,39018.1
57630,39461.1
57629.1,39479.9
57626.3,39498.5
57621.8,39516.8
57615.4,39534.5
57607.4,39551.5
57597.7,39567.7
57586.5,39582.8
57573.8,39596.8
57559.9,39609.4
57544.7,39620.6
57528.6,39630.3
57511.5,39638.4
57493.8,39644.7
57475.5,39649.3
57456.9,39652.1
57438.1,39653
57054.2,39653
57035.4,39652.1
57016.8,39649.3
56998.5,39644.7
56980.8,39638.4
56963.8,39630.3
56947.6,39620.6
56932.5,39609.4
56918.5,39596.8
56905.9,39582.8
56894.7,39567.7
56885,39551.5
56876.9,39534.5
56870.6,39516.8
56866,39498.5
56863.2,39479.9
56862.3,39461.1
56862.3,39018.1
56863.2,38999.3
56866,38980.7
56870.6,38962.4
56876.9,38944.7
56885,38927.7
56894.7,38911.5
56905.9,38896.4
56918.5,38882.4
56932.5,38869.8
56947.6,38858.6
56963.8,38848.9
56980.8,38840.8
56998.5,38834.5
57016.8,38829.9
57035.4,38827.1
57054.2,38826.2
57438.1,38826.2
Z" /> 
<path style="fill:#000000; fill-opacity:1.0; 
stroke:#000000; stroke-width:0; stroke-opacity:1; 
stroke-linecap:round; stroke-linejoin:round;fill-rule:evenodd;"
d="M 58697.1,38827.1
58715.7,38829.9
58734,38834.5
58751.7,38840.8
58768.7,38848.9
58784.9,38858.6
58800,38869.8
58814,38882.4
58826.6,38896.4
58837.8,38911.5
58847.5,38927.7
58855.6,38944.7
58861.9,38962.4
58866.5,38980.7
58869.3,38999.3
58870.2,39018.1
58870.2,39461.1
58869.3,39479.9
58866.5,39498.5
58861.9,39516.8
58855.6,39534.5
58847.5,39551.5
58837.8,39567.7
58826.6,39582.8
58814,39596.8
58800,39609.4
58784.9,39620.6
58768.7,39630.3
58751.7,39638.4
58734,39644.7
58715.7,39649.3
58697.1,39652.1
58678.3,39653
58294.4,39653
58275.6,39652.1
58257,39649.3
58238.7,39644.7
58220.9,39638.4
58203.9,39630.3
58187.8,39620.6
58172.6,39609.4
58158.7,39596.8
58146,39582.8
58134.8,39567.7
58125.1,39551.5
58117.1,39534.5
58110.7,39516.8
58106.2,39498.5
58103.4,39479.9
58102.5,39461.1
58102.5,39018.1
58103.4,38999.3
58106.2,38980.7
58110.7,38962.4
58117.1,38944.7
58125.1,38927.7
58134.8,38911.5
58146,38896.4
58158.7,38882.4
58172.6,38869.8
58187.8,38858.6
58203.9,38848.9
58220.9,38840.8
58238.7,38834.5
58257,38829.9
58275.6,38827.1
58294.4,38826.2
58678.3,38826.2
Z" /> 
</g>
<g >
</g>
<g style="fill:#000000; fill-opacity:1.0; 
stroke:#000000; stroke-width:0; stroke-opacity:1; 
stroke-linecap:round; stroke-linejoin:round;">
<path style="fill:#000000; fill-opacity:1.0; 
stroke:#000000; stroke-width:0; stroke-opacity:1; 
stroke-linecap:round; stroke-linejoin:round;fill-rule:evenodd;"
d="M 52230.5,43945.3
52249.2,43948
52267.4,43952.6
52285.2,43958.9
52302.2,43967
52318.3,43976.7
52333.5,43987.9
52347.4,44000.5
52360.1,44014.5
52371.3,44029.6
52381,44045.8
52389,44062.8
52395.4,44080.5
52400,44098.8
52402.7,44117.4
52403.6,44136.3
52403.6,44579.2
52402.7,44598
52400,44616.6
52395.4,44634.9
52389,44652.6
52381,44669.6
52371.3,44685.8
52360.1,44700.9
52347.4,44714.9
52333.5,44727.5
52318.3,44738.8
52302.2,44748.4
52285.2,44756.5
52267.4,44762.8
52249.2,44767.4
52230.5,44770.2
52211.7,44771.1
51827.9,44771.1
51809,44770.2
51790.4,44767.4
51772.1,44762.8
51754.4,44756.5
51737.4,44748.4
51721.2,44738.8
51706.1,44727.5
51692.1,44714.9
51679.5,44700.9
51668.3,44685.8
51658.6,44669.6
51650.5,44652.6
51644.2,44634.9
51639.6,44616.6
51636.9,44598
51635.9,44579.2
51635.9,44136.3
51636.9,44117.4
51639.6,44098.8
51644.2,44080.5
51650.5,44062.8
51658.6,44045.8
51668.3,44029.6
51679.5,44014.5
51692.1,44000.5
51706.1,43987.9
51721.2,43976.7
51737.4,43967
51754.4,43958.9
51772.1,43952.6
51790.4,43948
51809,43945.3
51827.9,43944.3
52211.7,43944.3
Z" /> 
<path style="fill:#000000; fill-opacity:1.0; 
stroke:#000000; stroke-width:0; stroke-opacity:1; 
stroke-linecap:round; stroke-linejoin:round;fill-rule:evenodd;"
d="M 50990.4,43945.3
51009,43948
51027.3,43952.6
51045,43958.9
51062,43967
51078.2,43976.7
51093.3,43987.9
51107.3,44000.5
51119.9,44014.5
51131.1,44029.6
51140.8,44045.8
51148.9,44062.8
51155.2,44080.5
51159.8,44098.8
51162.6,44117.4
51163.5,44136.3
51163.5,44579.2
51162.6,44598
51159.8,44616.6
51155.2,44634.9
51148.9,44652.6
51140.8,44669.6
51131.1,44685.8
51119.9,44700.9
51107.3,44714.9
51093.3,44727.5
51078.2,44738.8
51062,44748.4
51045,44756.5
51027.3,44762.8
51009,44767.4
50990.4,44770.2
50971.6,44771.1
50587.7,44771.1
50568.9,44770.2
50550.3,44767.4
50532,44762.8
50514.3,44756.5
50497.2,44748.4
50481.1,44738.8
50465.9,44727.5
50452,44714.9
50439.3,44700.9
50428.1,44685.8
50418.4,44669.6
50410.4,44652.6
50404,44634.9
50399.5,44616.6
50396.7,44598
50395.8,44579.2
50395.8,44136.3
50396.7,44117.4
50399.5,44098.8
50404,44080.5
50410.4,44062.8
50418.4,44045.8
50428.1,44029.6
50439.3,44014.5
50452,44000.5
50465.9,43987.9
50481.1,43976.7
50497.2,43967
50514.3,43958.9
50532,43952.6
50550.3,43948
50568.9,43945.3
50587.7,43944.3
50971.6,43944.3
Z" /> 
</g>
<g >
</g>
<g style="fill:#000000; fill-opacity:1.0; 
stroke:#000000; stroke-width:0; stroke-opacity:1; 
stroke-linecap:round; stroke-linejoin:round;">
<path style="fill:#000000; fill-opacity:1.0; 
stroke:#000000; stroke-width:0; stroke-opacity:1; 
stroke-linecap:round; stroke-linejoin:round;fill-rule:evenodd;"
d="M 57122.3,41976.8
57140.9,41979.5
57159.2,41984.1
57176.9,41990.4
57193.9,41998.5
57210.1,42008.2
57225.2,42019.4
57239.2,42032
57251.8,42046
57263,42061.1
57272.7,42077.3
57280.8,42094.3
57287.1,42112
57291.7,42130.3
57294.5,42148.9
57295.4,42167.8
57295.4,42610.7
57294.5,42629.5
57291.7,42648.1
57287.1,42666.4
57280.8,42684.1
57272.7,42701.1
57263,42717.3
57251.8,42732.4
57239.2,42746.4
57225.2,42759
57210.1,42770.3
57193.9,42779.9
57176.9,42788
57159.2,42794.3
57140.9,42798.9
57122.3,42801.7
57103.5,42802.6
56719.6,42802.6
56700.8,42801.7
56682.1,42798.9
56663.9,42794.3
56646.1,42788
56629.1,42779.9
56613,42770.3
56597.8,42759
56583.9,42746.4
56571.2,42732.4
56560,42717.3
56550.3,42701.1
56542.3,42684.1
56535.9,42666.4
56531.4,42648.1
56528.6,42629.5
56527.7,42610.7
56527.7,42167.8
56528.6,42148.9
56531.4,42130.3
56535.9,42112
56542.3,42094.3
56550.3,42077.3
56560,42061.1
56571.2,42046
56583.9,42032
56597.8,42019.4
56613,42008.2
56629.1,41998.5
56646.1,41990.4
56663.9,41984.1
56682.1,41979.5
56700.8,41976.8
56719.6,41975.8
57103.5,41975.8
Z" /> 
<path style="fill:#000000; fill-opacity:1.0; 
stroke:#000000; stroke-width:0; stroke-opacity:1; 
stroke-linecap:round; stroke-linejoin:round;fill-rule:evenodd;"
d="M 55882.1,41976.8
55900.7,41979.5
55919,41984.1
55936.7,41990.4
55953.8,41998.5
55969.9,42008.2
55985.1,42019.4
55999,42032
56011.7,42046
56022.9,42061.1
56032.6,42077.3
56040.6,42094.3
56047,42112
56051.5,42130.3
56054.3,42148.9
56055.2,42167.8
56055.2,42610.7
56054.3,42629.5
56051.5,42648.1
56047,42666.4
56040.6,42684.1
56032.6,42701.1
56022.9,42717.3
56011.7,42732.4
55999,42746.4
55985.1,42759
55969.9,42770.3
55953.8,42779.9
55936.7,42788
55919,42794.3
55900.7,42798.9
55882.1,42801.7
55863.3,42802.6
55479.4,42802.6
55460.6,42801.7
55442,42798.9
55423.7,42794.3
55406,42788
55389,42779.9
55372.8,42770.3
55357.7,42759
55343.7,42746.4
55331.1,42732.4
55319.9,42717.3
55310.2,42701.1
55302.1,42684.1
55295.8,42666.4
55291.2,42648.1
55288.4,42629.5
55287.5,42610.7
55287.5,42167.8
55288.4,42148.9
55291.2,42130.3
55295.8,42112
55302.1,42094.3
55310.2,42077.3
55319.9,42061.1
55331.1,42046
55343.7,42032
55357.7,42019.4
55372.8,42008.2
55389,41998.5
55406,41990.4
55423.7,41984.1
55442,41979.5
55460.6,41976.8
55479.4,41975.8
55863.3,41975.8
Z" /> 
</g>
<g >
</g>
<g >
</g>
<g >
</g>
</g> 
</svg>
