<?xml version="1.0" standalone="no"?>
 <!DOCTYPE svg PUBLIC "-//W3C//DTD SVG 1.1//EN" 
 "http://www.w3.org/Graphics/SVG/1.1/DTD/svg11.dtd"> 
<svg
  xmlns:svg="http://www.w3.org/2000/svg"
  xmlns="http://www.w3.org/2000/svg"
  xmlns:xlink="http://www.w3.org/1999/xlink"
  version="1.1"
  width="29.700220cm" height="21.000720cm" viewBox="0 0 116930 82680">
<title>SVG Picture created as cargadorDeBateriasLitIon-40-Dwgs_User.svg date 2021/12/18 17:13:58 </title>
  <desc>Picture generated by PCBNEW </desc>
<g style="fill:#000000; fill-opacity:1;stroke:#000000; stroke-opacity:1;
stroke-linecap:round; stroke-linejoin:round;"
 transform="translate(0 0) scale(1 1)">
</g>
<g style="fill:#000000; fill-opacity:0.0; 
stroke:#000000; stroke-width:-0.000787402; stroke-opacity:1; 
stroke-linecap:round; stroke-linejoin:round;">
</g>
<g style="fill:#000000; fill-opacity:0.0; 
stroke:#000000; stroke-width:118.11; stroke-opacity:1; 
stroke-linecap:round; stroke-linejoin:round;">
<g transform="rotate(-270 64401.7 42389.2)">
<text x="64401.7" y="42782.9"
textLength="6977.69" font-size="1049.87" lengthAdjust="spacingAndGlyphs"
text-anchor="middle" opacity="0">12.000 mm</text>
</g>
<path d="M64045 39577
L64045 39127
" />
<path d="M64045 39352
L64832 39352
L64720 39277
L64645 39202
L64607 39127
" />
<path d="M64757 39877
L64795 39914
L64832 39989
L64832 40176
L64795 40251
L64757 40289
L64682 40326
L64607 40326
L64495 40289
L64045 39839
L64045 40326
" />
<path d="M64120 40664
L64082 40701
L64045 40664
L64082 40626
L64120 40664
L64045 40664
" />
<path d="M64832 41189
L64832 41264
L64795 41339
L64757 41376
L64682 41414
L64532 41451
L64345 41451
L64195 41414
L64120 41376
L64082 41339
L64045 41264
L64045 41189
L64082 41114
L64120 41076
L64195 41039
L64345 41001
L64532 41001
L64682 41039
L64757 41076
L64795 41114
L64832 41189
" />
<path d="M64832 41939
L64832 42014
L64795 42089
L64757 42126
L64682 42164
L64532 42201
L64345 42201
L64195 42164
L64120 42126
L64082 42089
L64045 42014
L64045 41939
L64082 41864
L64120 41826
L64195 41789
L64345 41751
L64532 41751
L64682 41789
L64757 41826
L64795 41864
L64832 41939
" />
<path d="M64832 42689
L64832 42764
L64795 42839
L64757 42876
L64682 42914
L64532 42951
L64345 42951
L64195 42914
L64120 42876
L64082 42839
L64045 42764
L64045 42689
L64082 42614
L64120 42576
L64195 42539
L64345 42501
L64532 42501
L64682 42539
L64757 42576
L64795 42614
L64832 42689
" />
<path d="M64045 43889
L64570 43889
" />
<path d="M64495 43889
L64532 43926
L64570 44001
L64570 44113
L64532 44188
L64457 44226
L64045 44226
" />
<path d="M64457 44226
L64532 44263
L64570 44338
L64570 44451
L64532 44526
L64457 44563
L64045 44563
" />
<path d="M64045 44938
L64570 44938
" />
<path d="M64495 44938
L64532 44976
L64570 45051
L64570 45163
L64532 45238
L64457 45276
L64045 45276
" />
<path d="M64457 45276
L64532 45313
L64570 45388
L64570 45501
L64532 45576
L64457 45613
L64045 45613
" />
<path d="M63378 37664
L63378 47113
" />
<path d="M62590 37664
L63839 37664
" />
<path d="M62590 47113
L63839 47113
" />
<path d="M63378 47113
L62916 46226
" />
<path d="M63378 47113
L63839 46226
" />
<path d="M63378 37664
L62916 38551
" />
<path d="M63378 37664
L63839 38551
" />
<text x="55897.7" y="36247.5"
textLength="6977.69" font-size="1049.87" lengthAdjust="spacingAndGlyphs"
text-anchor="middle" opacity="0">17.000 mm</text>
<path d="M53085 36209
L52635 36209
" />
<path d="M52860 36209
L52860 35422
L52785 35535
L52710 35610
L52635 35647
" />
<path d="M53348 35422
L53872 35422
L53535 36209
" />
<path d="M54172 36134
L54210 36172
L54172 36209
L54135 36172
L54172 36134
L54172 36209
" />
<path d="M54697 35422
L54772 35422
L54847 35460
L54885 35497
L54922 35572
L54960 35722
L54960 35910
L54922 36060
L54885 36134
L54847 36172
L54772 36209
L54697 36209
L54622 36172
L54585 36134
L54547 36060
L54510 35910
L54510 35722
L54547 35572
L54585 35497
L54622 35460
L54697 35422
" />
<path d="M55447 35422
L55522 35422
L55597 35460
L55635 35497
L55672 35572
L55710 35722
L55710 35910
L55672 36060
L55635 36134
L55597 36172
L55522 36209
L55447 36209
L55372 36172
L55335 36134
L55297 36060
L55260 35910
L55260 35722
L55297 35572
L55335 35497
L55372 35460
L55447 35422
" />
<path d="M56197 35422
L56272 35422
L56347 35460
L56385 35497
L56422 35572
L56460 35722
L56460 35910
L56422 36060
L56385 36134
L56347 36172
L56272 36209
L56197 36209
L56122 36172
L56085 36134
L56047 36060
L56010 35910
L56010 35722
L56047 35572
L56085 35497
L56122 35460
L56197 35422
" />
<path d="M57397 36209
L57397 35685
" />
<path d="M57397 35760
L57435 35722
L57510 35685
L57622 35685
L57697 35722
L57735 35797
L57735 36209
" />
<path d="M57735 35797
L57772 35722
L57847 35685
L57959 35685
L58034 35722
L58072 35797
L58072 36209
" />
<path d="M58447 36209
L58447 35685
" />
<path d="M58447 35760
L58484 35722
L58559 35685
L58672 35685
L58747 35722
L58784 35797
L58784 36209
" />
<path d="M58784 35797
L58822 35722
L58897 35685
L59009 35685
L59084 35722
L59122 35797
L59122 36209
" />
<path d="M62590 36877
L49204 36877
" />
<path d="M62590 37664
L62590 36415
" />
<path d="M49204 37664
L49204 36415
" />
<path d="M49204 36877
L50091 36415
" />
<path d="M49204 36877
L50091 37339
" />
<path d="M62590 36877
L61703 36415
" />
<path d="M62590 36877
L61703 37339
" />
</g>
<g style="fill:#000000; fill-opacity:0.0; 
stroke:#000000; stroke-width:39.3701; stroke-opacity:1; 
stroke-linecap:round; stroke-linejoin:round;">
<path d="M49204 37664
L62590 37664
" />
<path d="M49204 47113
L49204 37664
" />
<path d="M62590 47113
L49204 47113
" />
<path d="M62590 37664
L62590 47113
" />
<g >
</g>
<g >
</g>
<g >
</g>
<g >
</g>
<g >
</g>
<g >
</g>
<g >
</g>
<g >
</g>
<g >
</g>
<g >
</g>
<g >
</g>
<g >
</g>
<g >
</g>
<g >
</g>
</g> 
</svg>
