<?xml version="1.0" standalone="no"?>
 <!DOCTYPE svg PUBLIC "-//W3C//DTD SVG 1.1//EN" 
 "http://www.w3.org/Graphics/SVG/1.1/DTD/svg11.dtd"> 
<svg
  xmlns:svg="http://www.w3.org/2000/svg"
  xmlns="http://www.w3.org/2000/svg"
  xmlns:xlink="http://www.w3.org/1999/xlink"
  version="1.1"
  width="29.700220cm" height="21.000720cm" viewBox="0 0 116930 82680">
<title>SVG Picture created as cargadorDeBateriasLitIon-47-F_CrtYd.svg date 2021/12/18 17:13:58 </title>
  <desc>Picture generated by PCBNEW </desc>
<g style="fill:#000000; fill-opacity:1;stroke:#000000; stroke-opacity:1;
stroke-linecap:round; stroke-linejoin:round;"
 transform="translate(0 0) scale(1 1)">
</g>
<g style="fill:#000000; fill-opacity:0.0; 
stroke:#000000; stroke-width:-0.000787402; stroke-opacity:1; 
stroke-linecap:round; stroke-linejoin:round;">
</g>
<g style="fill:#000000; fill-opacity:0.0; 
stroke:#000000; stroke-width:39.3701; stroke-opacity:1; 
stroke-linecap:round; stroke-linejoin:round;">
<path d="M49204 37664
L62590 37664
" />
<path d="M49204 47113
L49204 37664
" />
<path d="M62590 47113
L49204 47113
" />
<path d="M62590 37664
L62590 47113
" />
<path d="M51740 43074
L51740 40239
" />
<path d="M54732 43074
L51740 43074
" />
<path d="M54732 40239
L54732 43074
" />
<path d="M51740 40239
L54732 40239
" />
<path d="M61787 39814
L59456 39814
" />
<path d="M61787 38664
L61787 39814
" />
<path d="M59456 38664
L61787 38664
" />
<path d="M59456 39814
L59456 38664
" />
<path d="M61590 40436
L61590 42767
" />
<path d="M60441 40436
L61590 40436
" />
<path d="M60441 42767
L60441 40436
" />
<path d="M61590 42767
L60441 42767
" />
<path d="M55126 40239
L57456 40239
" />
<path d="M55126 41389
L55126 40239
" />
<path d="M57456 41389
L55126 41389
" />
<path d="M57456 40239
L57456 41389
" />
<path d="M51354 38467
L51354 40798
" />
<path d="M50204 38467
L51354 38467
" />
<path d="M50204 40798
L50204 38467
" />
<path d="M51354 40798
L50204 40798
" />
<path d="M56527 46129
L56527 43373
" />
<path d="M59204 46129
L56527 46129
" />
<path d="M59204 43373
L59204 46129
" />
<path d="M56527 43373
L59204 43373
" />
<path d="M59283 46129
L59283 43373
" />
<path d="M61960 46129
L59283 46129
" />
<path d="M61960 43373
L61960 46129
" />
<path d="M59283 43373
L61960 43373
" />
<path d="M55094 44932
L52763 44932
" />
<path d="M55094 43782
L55094 44932
" />
<path d="M52763 43782
L55094 43782
" />
<path d="M52763 44932
L52763 43782
" />
<path d="M51354 41223
L51354 43554
" />
<path d="M50204 41223
L51354 41223
" />
<path d="M50204 43554
L50204 41223
" />
<path d="M51354 43554
L50204 43554
" />
<path d="M56700 38664
L59031 38664
" />
<path d="M56700 39814
L56700 38664
" />
<path d="M59031 39814
L56700 39814
" />
<path d="M59031 38664
L59031 39814
" />
<path d="M52565 44932
L50234 44932
" />
<path d="M52565 43782
L52565 44932
" />
<path d="M50234 43782
L52565 43782
" />
<path d="M50234 44932
L50234 43782
" />
<path d="M57456 42964
L55126 42964
" />
<path d="M57456 41814
L57456 42964
" />
<path d="M55126 41814
L57456 41814
" />
<path d="M55126 42964
L55126 41814
" />
<g >
</g>
<g >
</g>
<g >
</g>
<g >
</g>
<g >
</g>
<g >
</g>
<g >
</g>
<g >
</g>
<g >
</g>
<g >
</g>
<g >
</g>
<g >
</g>
<g >
</g>
<g >
</g>
</g> 
</svg>
