<?xml version="1.0" standalone="no"?>
 <!DOCTYPE svg PUBLIC "-//W3C//DTD SVG 1.1//EN" 
 "http://www.w3.org/Graphics/SVG/1.1/DTD/svg11.dtd"> 
<svg
  xmlns:svg="http://www.w3.org/2000/svg"
  xmlns="http://www.w3.org/2000/svg"
  xmlns:xlink="http://www.w3.org/1999/xlink"
  version="1.1"
  width="29.700220cm" height="21.000720cm" viewBox="0 0 116930 82680">
<title>SVG Picture created as cargadorDeBateriasLitIon-00-F_Cu.svg date 2021/12/18 17:13:58 </title>
  <desc>Picture generated by PCBNEW </desc>
<g style="fill:#000000; fill-opacity:1;stroke:#000000; stroke-opacity:1;
stroke-linecap:round; stroke-linejoin:round;"
 transform="translate(0 0) scale(1 1)">
</g>
<g style="fill:#000000; fill-opacity:0.0; 
stroke:#000000; stroke-width:-0.000787402; stroke-opacity:1; 
stroke-linecap:round; stroke-linejoin:round;">
</g>
<g style="fill:#000000; fill-opacity:0.0; 
stroke:#000000; stroke-width:39.3701; stroke-opacity:1; 
stroke-linecap:round; stroke-linejoin:round;">
<path d="M49204 37664
L62590 37664
" />
<path d="M49204 47113
L49204 37664
" />
<path d="M62590 47113
L49204 47113
" />
<path d="M62590 37664
L62590 47113
" />
<g >
</g>
<g style="fill:#000000; fill-opacity:0.0; 
stroke:#000000; stroke-width:0; stroke-opacity:1; 
stroke-linecap:round; stroke-linejoin:round;">
</g>
<g style="fill:#000000; fill-opacity:1.0; 
stroke:#000000; stroke-width:0; stroke-opacity:1; 
stroke-linecap:round; stroke-linejoin:round;">
<path style="fill:#000000; fill-opacity:1.0; 
stroke:#000000; stroke-width:0; stroke-opacity:1; 
stroke-linecap:round; stroke-linejoin:round;fill-rule:evenodd;"
d="M 60011.9,42231.7
60011.9,42861.7
59578.8,42861.7
59578.8,42231.7
Z" /> 
<path style="fill:#000000; fill-opacity:1.0; 
stroke:#000000; stroke-width:0; stroke-opacity:1; 
stroke-linecap:round; stroke-linejoin:round;fill-rule:evenodd;"
d="M 58515.9,42231.7
58515.9,42861.7
58082.8,42861.7
58082.8,42231.7
Z" /> 
<path style="fill:#000000; fill-opacity:1.0; 
stroke:#000000; stroke-width:0; stroke-opacity:1; 
stroke-linecap:round; stroke-linejoin:round;fill-rule:evenodd;"
d="M 58515.9,40342
58515.9,40971.9
58082.8,40971.9
58082.8,40342
Z" /> 
<path style="fill:#000000; fill-opacity:1.0; 
stroke:#000000; stroke-width:0; stroke-opacity:1; 
stroke-linecap:round; stroke-linejoin:round;fill-rule:evenodd;"
d="M 59263.9,40342
59263.9,40971.9
58830.8,40971.9
58830.8,40342
Z" /> 
<path style="fill:#000000; fill-opacity:1.0; 
stroke:#000000; stroke-width:0; stroke-opacity:1; 
stroke-linecap:round; stroke-linejoin:round;fill-rule:evenodd;"
d="M 60011.9,40342
60011.9,40971.9
59578.8,40971.9
59578.8,40342
Z" /> 
</g>
<g >
</g>
<g style="fill:#000000; fill-opacity:1.0; 
stroke:#000000; stroke-width:0; stroke-opacity:1; 
stroke-linecap:round; stroke-linejoin:round;">
<path style="fill:#000000; fill-opacity:1.0; 
stroke:#000000; stroke-width:0; stroke-opacity:1; 
stroke-linecap:round; stroke-linejoin:round;fill-rule:evenodd;"
d="M 53685.1,41164.8
53685.1,40653
54519.8,40653
54519.8,41164.8
Z" /> 
<path style="fill:#000000; fill-opacity:1.0; 
stroke:#000000; stroke-width:0; stroke-opacity:1; 
stroke-linecap:round; stroke-linejoin:round;fill-rule:evenodd;"
d="M 53685.1,42660.9
53685.1,42149.1
54519.8,42149.1
54519.8,42660.9
Z" /> 
<path style="fill:#000000; fill-opacity:1.0; 
stroke:#000000; stroke-width:0; stroke-opacity:1; 
stroke-linecap:round; stroke-linejoin:round;fill-rule:evenodd;"
d="M 51952.9,42660.9
51952.9,42149.1
52787.5,42149.1
52787.5,42660.9
Z" /> 
<path style="fill:#000000; fill-opacity:1.0; 
stroke:#000000; stroke-width:0; stroke-opacity:1; 
stroke-linecap:round; stroke-linejoin:round;fill-rule:evenodd;"
d="M 51952.9,41912.8
51952.9,41401
52787.5,41401
52787.5,41912.8
Z" /> 
<path style="fill:#000000; fill-opacity:1.0; 
stroke:#000000; stroke-width:0; stroke-opacity:1; 
stroke-linecap:round; stroke-linejoin:round;fill-rule:evenodd;"
d="M 51952.9,41164.8
51952.9,40653
52787.5,40653
52787.5,41164.8
Z" /> 
</g>
<g >
</g>
<g style="fill:#000000; fill-opacity:1.0; 
stroke:#000000; stroke-width:0; stroke-opacity:1; 
stroke-linecap:round; stroke-linejoin:round;">
<path style="fill:#000000; fill-opacity:1.0; 
stroke:#000000; stroke-width:0; stroke-opacity:1; 
stroke-linecap:round; stroke-linejoin:round;fill-rule:evenodd;"
d="M 61431.4,38866.4
61448.1,38868.9
61464.5,38873
61480.4,38878.7
61495.7,38885.9
61510.2,38894.6
61523.7,38904.7
61536.3,38916
61547.6,38928.6
61557.7,38942.1
61566.4,38956.6
61573.6,38971.9
61579.3,38987.8
61583.4,39004.2
61585.9,39021
61586.7,39037.8
61586.7,39441.4
61585.9,39458.3
61583.4,39475
61579.3,39491.4
61573.6,39507.3
61566.4,39522.6
61557.7,39537.1
61547.6,39550.6
61536.3,39563.2
61523.7,39574.5
61510.2,39584.6
61495.7,39593.3
61480.4,39600.5
61464.5,39606.2
61448.1,39610.3
61431.4,39612.8
61414.5,39613.6
61070,39613.6
61053.1,39612.8
61036.4,39610.3
61020,39606.2
61004.1,39600.5
60988.8,39593.3
60974.3,39584.6
60960.7,39574.5
60948.2,39563.2
60936.8,39550.6
60926.8,39537.1
60918.1,39522.6
60910.9,39507.3
60905.2,39491.4
60901.1,39475
60898.6,39458.3
60897.7,39441.4
60897.7,39037.8
60898.6,39021
60901.1,39004.2
60905.2,38987.8
60910.9,38971.9
60918.1,38956.6
60926.8,38942.1
60936.8,38928.6
60948.2,38916
60960.7,38904.7
60974.3,38894.6
60988.8,38885.9
61004.1,38878.7
61020,38873
61036.4,38868.9
61053.1,38866.4
61070,38865.6
61414.5,38865.6
Z" /> 
<path style="fill:#000000; fill-opacity:1.0; 
stroke:#000000; stroke-width:0; stroke-opacity:1; 
stroke-linecap:round; stroke-linejoin:round;fill-rule:evenodd;"
d="M 60191.2,38866.4
60207.9,38868.9
60224.3,38873
60240.2,38878.7
60255.5,38885.9
60270,38894.6
60283.6,38904.7
60296.1,38916
60307.5,38928.6
60317.5,38942.1
60326.2,38956.6
60333.5,38971.9
60339.1,38987.8
60343.3,39004.2
60345.7,39021
60346.6,39037.8
60346.6,39441.4
60345.7,39458.3
60343.3,39475
60339.1,39491.4
60333.5,39507.3
60326.2,39522.6
60317.5,39537.1
60307.5,39550.6
60296.1,39563.2
60283.6,39574.5
60270,39584.6
60255.5,39593.3
60240.2,39600.5
60224.3,39606.2
60207.9,39610.3
60191.2,39612.8
60174.3,39613.6
59829.8,39613.6
59812.9,39612.8
59796.2,39610.3
59779.8,39606.2
59763.9,39600.5
59748.6,39593.3
59734.1,39584.6
59720.6,39574.5
59708,39563.2
59696.7,39550.6
59686.6,39537.1
59677.9,39522.6
59670.7,39507.3
59665,39491.4
59660.9,39475
59658.4,39458.3
59657.6,39441.4
59657.6,39037.8
59658.4,39021
59660.9,39004.2
59665,38987.8
59670.7,38971.9
59677.9,38956.6
59686.6,38942.1
59696.7,38928.6
59708,38916
59720.6,38904.7
59734.1,38894.6
59748.6,38885.9
59763.9,38878.7
59779.8,38873
59796.2,38868.9
59812.9,38866.4
59829.8,38865.6
60174.3,38865.6
Z" /> 
</g>
<g >
</g>
<g style="fill:#000000; fill-opacity:1.0; 
stroke:#000000; stroke-width:0; stroke-opacity:1; 
stroke-linecap:round; stroke-linejoin:round;">
<path style="fill:#000000; fill-opacity:1.0; 
stroke:#000000; stroke-width:0; stroke-opacity:1; 
stroke-linecap:round; stroke-linejoin:round;fill-rule:evenodd;"
d="M 61234.5,40638.1
61251.2,40640.6
61267.6,40644.7
61283.5,40650.4
61298.8,40657.6
61313.3,40666.3
61326.9,40676.3
61339.4,40687.7
61350.8,40700.2
61360.8,40713.8
61369.5,40728.3
61376.8,40743.6
61382.5,40759.5
61386.6,40775.9
61389,40792.6
61389.9,40809.5
61389.9,41154
61389,41170.9
61386.6,41187.6
61382.5,41204
61376.8,41219.9
61369.5,41235.2
61360.8,41249.7
61350.8,41263.2
61339.4,41275.8
61326.9,41287.1
61313.3,41297.2
61298.8,41305.9
61283.5,41313.1
61267.6,41318.8
61251.2,41322.9
61234.5,41325.4
61217.6,41326.2
60814.1,41326.2
60797.2,41325.4
60780.5,41322.9
60764.1,41318.8
60748.2,41313.1
60732.9,41305.9
60718.4,41297.2
60704.8,41287.1
60692.3,41275.8
60680.9,41263.2
60670.9,41249.7
60662.2,41235.2
60654.9,41219.9
60649.3,41204
60645.1,41187.6
60642.7,41170.9
60641.8,41154
60641.8,40809.5
60642.7,40792.6
60645.1,40775.9
60649.3,40759.5
60654.9,40743.6
60662.2,40728.3
60670.9,40713.8
60680.9,40700.2
60692.3,40687.7
60704.8,40676.3
60718.4,40666.3
60732.9,40657.6
60748.2,40650.4
60764.1,40644.7
60780.5,40640.6
60797.2,40638.1
60814.1,40637.2
61217.6,40637.2
Z" /> 
<path style="fill:#000000; fill-opacity:1.0; 
stroke:#000000; stroke-width:0; stroke-opacity:1; 
stroke-linecap:round; stroke-linejoin:round;fill-rule:evenodd;"
d="M 61234.5,41878.2
61251.2,41880.7
61267.6,41884.8
61283.5,41890.5
61298.8,41897.7
61313.3,41906.4
61326.9,41916.5
61339.4,41927.9
61350.8,41940.4
61360.8,41954
61369.5,41968.5
61376.8,41983.7
61382.5,41999.6
61386.6,42016
61389,42032.8
61389.9,42049.6
61389.9,42394.1
61389,42411
61386.6,42427.7
61382.5,42444.1
61376.8,42460
61369.5,42475.3
61360.8,42489.8
61350.8,42503.4
61339.4,42515.9
61326.9,42527.3
61313.3,42537.3
61298.8,42546
61283.5,42553.3
61267.6,42559
61251.2,42563.1
61234.5,42565.5
61217.6,42566.4
60814.1,42566.4
60797.2,42565.5
60780.5,42563.1
60764.1,42559
60748.2,42553.3
60732.9,42546
60718.4,42537.3
60704.8,42527.3
60692.3,42515.9
60680.9,42503.4
60670.9,42489.8
60662.2,42475.3
60654.9,42460
60649.3,42444.1
60645.1,42427.7
60642.7,42411
60641.8,42394.1
60641.8,42049.6
60642.7,42032.8
60645.1,42016
60649.3,41999.6
60654.9,41983.7
60662.2,41968.5
60670.9,41954
60680.9,41940.4
60692.3,41927.9
60704.8,41916.5
60718.4,41906.4
60732.9,41897.7
60748.2,41890.5
60764.1,41884.8
60780.5,41880.7
60797.2,41878.2
60814.1,41877.4
61217.6,41877.4
Z" /> 
</g>
<g >
</g>
<g style="fill:#000000; fill-opacity:1.0; 
stroke:#000000; stroke-width:0; stroke-opacity:1; 
stroke-linecap:round; stroke-linejoin:round;">
<path style="fill:#000000; fill-opacity:1.0; 
stroke:#000000; stroke-width:0; stroke-opacity:1; 
stroke-linecap:round; stroke-linejoin:round;fill-rule:evenodd;"
d="M 55860.5,40441.2
55877.2,40443.7
55893.6,40447.8
55909.5,40453.5
55924.8,40460.7
55939.3,40469.4
55952.9,40479.5
55965.4,40490.8
55976.8,40503.4
55986.8,40516.9
55995.5,40531.4
56002.7,40546.7
56008.4,40562.6
56012.5,40579
56015,40595.8
56015.9,40612.6
56015.9,41016.2
56015,41033.1
56012.5,41049.8
56008.4,41066.2
56002.7,41082.1
55995.5,41097.4
55986.8,41111.9
55976.8,41125.5
55965.4,41138
55952.9,41149.3
55939.3,41159.4
55924.8,41168.1
55909.5,41175.3
55893.6,41181
55877.2,41185.1
55860.5,41187.6
55843.6,41188.4
55499.1,41188.4
55482.2,41187.6
55465.5,41185.1
55449.1,41181
55433.2,41175.3
55417.9,41168.1
55403.4,41159.4
55389.8,41149.3
55377.3,41138
55366,41125.5
55355.9,41111.9
55347.2,41097.4
55340,41082.1
55334.3,41066.2
55330.2,41049.8
55327.7,41033.1
55326.9,41016.2
55326.9,40612.6
55327.7,40595.8
55330.2,40579
55334.3,40562.6
55340,40546.7
55347.2,40531.4
55355.9,40516.9
55366,40503.4
55377.3,40490.8
55389.8,40479.5
55403.4,40469.4
55417.9,40460.7
55433.2,40453.5
55449.1,40447.8
55465.5,40443.7
55482.2,40441.2
55499.1,40440.4
55843.6,40440.4
Z" /> 
<path style="fill:#000000; fill-opacity:1.0; 
stroke:#000000; stroke-width:0; stroke-opacity:1; 
stroke-linecap:round; stroke-linejoin:round;fill-rule:evenodd;"
d="M 57100.6,40441.2
57117.4,40443.7
57133.8,40447.8
57149.7,40453.5
57165,40460.7
57179.5,40469.4
57193,40479.5
57205.6,40490.8
57216.9,40503.4
57227,40516.9
57235.7,40531.4
57242.9,40546.7
57248.6,40562.6
57252.7,40579
57255.2,40595.8
57256,40612.6
57256,41016.2
57255.2,41033.1
57252.7,41049.8
57248.6,41066.2
57242.9,41082.1
57235.7,41097.4
57227,41111.9
57216.9,41125.5
57205.6,41138
57193,41149.3
57179.5,41159.4
57165,41168.1
57149.7,41175.3
57133.8,41181
57117.4,41185.1
57100.6,41187.6
57083.8,41188.4
56739.3,41188.4
56722.4,41187.6
56705.7,41185.1
56689.3,41181
56673.4,41175.3
56658.1,41168.1
56643.6,41159.4
56630,41149.3
56617.5,41138
56606.1,41125.5
56596.1,41111.9
56587.4,41097.4
56580.1,41082.1
56574.5,41066.2
56570.3,41049.8
56567.9,41033.1
56567,41016.2
56567,40612.6
56567.9,40595.8
56570.3,40579
56574.5,40562.6
56580.1,40546.7
56587.4,40531.4
56596.1,40516.9
56606.1,40503.4
56617.5,40490.8
56630,40479.5
56643.6,40469.4
56658.1,40460.7
56673.4,40453.5
56689.3,40447.8
56705.7,40443.7
56722.4,40441.2
56739.3,40440.4
57083.8,40440.4
Z" /> 
</g>
<g >
</g>
<g style="fill:#000000; fill-opacity:1.0; 
stroke:#000000; stroke-width:0; stroke-opacity:1; 
stroke-linecap:round; stroke-linejoin:round;">
<path style="fill:#000000; fill-opacity:1.0; 
stroke:#000000; stroke-width:0; stroke-opacity:1; 
stroke-linecap:round; stroke-linejoin:round;fill-rule:evenodd;"
d="M 50998.3,38669.6
51015,38672
51031.4,38676.2
51047.3,38681.9
51062.6,38689.1
51077.1,38697.8
51090.7,38707.8
51103.2,38719.2
51114.6,38731.7
51124.6,38745.3
51133.3,38759.8
51140.5,38775.1
51146.2,38791
51150.3,38807.4
51152.8,38824.1
51153.6,38841
51153.6,39185.5
51152.8,39202.4
51150.3,39219.1
51146.2,39235.5
51140.5,39251.4
51133.3,39266.7
51124.6,39281.2
51114.6,39294.7
51103.2,39307.3
51090.7,39318.6
51077.1,39328.7
51062.6,39337.4
51047.3,39344.6
51031.4,39350.3
51015,39354.4
50998.3,39356.9
50981.4,39357.7
50577.9,39357.7
50561,39356.9
50544.3,39354.4
50527.9,39350.3
50511.9,39344.6
50496.7,39337.4
50482.2,39328.7
50468.6,39318.6
50456.1,39307.3
50444.7,39294.7
50434.6,39281.2
50426,39266.7
50418.7,39251.4
50413,39235.5
50408.9,39219.1
50406.4,39202.4
50405.6,39185.5
50405.6,38841
50406.4,38824.1
50408.9,38807.4
50413,38791
50418.7,38775.1
50426,38759.8
50434.6,38745.3
50444.7,38731.7
50456.1,38719.2
50468.6,38707.8
50482.2,38697.8
50496.7,38689.1
50511.9,38681.9
50527.9,38676.2
50544.3,38672
50561,38669.6
50577.9,38668.7
50981.4,38668.7
Z" /> 
<path style="fill:#000000; fill-opacity:1.0; 
stroke:#000000; stroke-width:0; stroke-opacity:1; 
stroke-linecap:round; stroke-linejoin:round;fill-rule:evenodd;"
d="M 50998.3,39909.7
51015,39912.2
51031.4,39916.3
51047.3,39922
51062.6,39929.2
51077.1,39937.9
51090.7,39948
51103.2,39959.3
51114.6,39971.9
51124.6,39985.4
51133.3,39999.9
51140.5,40015.2
51146.2,40031.1
51150.3,40047.5
51152.8,40064.3
51153.6,40081.1
51153.6,40425.6
51152.8,40442.5
51150.3,40459.2
51146.2,40475.6
51140.5,40491.5
51133.3,40506.8
51124.6,40521.3
51114.6,40534.9
51103.2,40547.4
51090.7,40558.8
51077.1,40568.8
51062.6,40577.5
51047.3,40584.8
51031.4,40590.5
51015,40594.6
50998.3,40597
50981.4,40597.9
50577.9,40597.9
50561,40597
50544.3,40594.6
50527.9,40590.5
50511.9,40584.8
50496.7,40577.5
50482.2,40568.8
50468.6,40558.8
50456.1,40547.4
50444.7,40534.9
50434.6,40521.3
50426,40506.8
50418.7,40491.5
50413,40475.6
50408.9,40459.2
50406.4,40442.5
50405.6,40425.6
50405.6,40081.1
50406.4,40064.3
50408.9,40047.5
50413,40031.1
50418.7,40015.2
50426,39999.9
50434.6,39985.4
50444.7,39971.9
50456.1,39959.3
50468.6,39948
50482.2,39937.9
50496.7,39929.2
50511.9,39922
50527.9,39916.3
50544.3,39912.2
50561,39909.7
50577.9,39908.9
50981.4,39908.9
Z" /> 
</g>
<g >
</g>
<g style="fill:#000000; fill-opacity:1.0; 
stroke:#000000; stroke-width:0; stroke-opacity:1; 
stroke-linecap:round; stroke-linejoin:round;">
<path style="fill:#000000; fill-opacity:1.0; 
stroke:#000000; stroke-width:0; stroke-opacity:1; 
stroke-linecap:round; stroke-linejoin:round;fill-rule:evenodd;"
d="M 58299.3,45066.4
58299.3,44436.5
59008,44436.5
59008,45066.4
Z" /> 
<path style="fill:#000000; fill-opacity:1.0; 
stroke:#000000; stroke-width:0; stroke-opacity:1; 
stroke-linecap:round; stroke-linejoin:round;fill-rule:evenodd;"
d="M 56724.5,45814.4
56724.5,45184.5
57433.2,45184.5
57433.2,45814.4
Z" /> 
<path style="fill:#000000; fill-opacity:1.0; 
stroke:#000000; stroke-width:0; stroke-opacity:1; 
stroke-linecap:round; stroke-linejoin:round;fill-rule:evenodd;"
d="M 56724.5,44318.3
56724.5,43688.4
57433.2,43688.4
57433.2,44318.3
Z" /> 
</g>
<g >
</g>
<g style="fill:#000000; fill-opacity:1.0; 
stroke:#000000; stroke-width:0; stroke-opacity:1; 
stroke-linecap:round; stroke-linejoin:round;">
<path style="fill:#000000; fill-opacity:1.0; 
stroke:#000000; stroke-width:0; stroke-opacity:1; 
stroke-linecap:round; stroke-linejoin:round;fill-rule:evenodd;"
d="M 61055.2,45066.4
61055.2,44436.5
61763.9,44436.5
61763.9,45066.4
Z" /> 
<path style="fill:#000000; fill-opacity:1.0; 
stroke:#000000; stroke-width:0; stroke-opacity:1; 
stroke-linecap:round; stroke-linejoin:round;fill-rule:evenodd;"
d="M 59480.4,45814.4
59480.4,45184.5
60189.1,45184.5
60189.1,45814.4
Z" /> 
<path style="fill:#000000; fill-opacity:1.0; 
stroke:#000000; stroke-width:0; stroke-opacity:1; 
stroke-linecap:round; stroke-linejoin:round;fill-rule:evenodd;"
d="M 59480.4,44318.3
59480.4,43688.4
60189.1,43688.4
60189.1,44318.3
Z" /> 
</g>
<g >
</g>
<g style="fill:#000000; fill-opacity:1.0; 
stroke:#000000; stroke-width:0; stroke-opacity:1; 
stroke-linecap:round; stroke-linejoin:round;">
<path style="fill:#000000; fill-opacity:1.0; 
stroke:#000000; stroke-width:0; stroke-opacity:1; 
stroke-linecap:round; stroke-linejoin:round;fill-rule:evenodd;"
d="M 54738.4,43984.5
54755.2,43987
54771.6,43991.1
54787.5,43996.8
54802.8,44004
54817.3,44012.7
54830.8,44022.8
54843.4,44034.1
54854.7,44046.7
54864.8,44060.3
54873.5,44074.7
54880.7,44090
54886.4,44105.9
54890.5,44122.3
54893,44139.1
54893.8,44155.9
54893.8,44559.5
54893,44576.4
54890.5,44593.1
54886.4,44609.5
54880.7,44625.4
54873.5,44640.7
54864.8,44655.2
54854.7,44668.8
54843.4,44681.3
54830.8,44692.6
54817.3,44702.7
54802.8,44711.4
54787.5,44718.6
54771.6,44724.3
54755.2,44728.4
54738.4,44730.9
54721.6,44731.7
54377.1,44731.7
54360.2,44730.9
54343.5,44728.4
54327.1,44724.3
54311.2,44718.6
54295.9,44711.4
54281.4,44702.7
54267.8,44692.6
54255.3,44681.3
54243.9,44668.8
54233.9,44655.2
54225.2,44640.7
54217.9,44625.4
54212.2,44609.5
54208.1,44593.1
54205.7,44576.4
54204.8,44559.5
54204.8,44155.9
54205.7,44139.1
54208.1,44122.3
54212.2,44105.9
54217.9,44090
54225.2,44074.7
54233.9,44060.3
54243.9,44046.7
54255.3,44034.1
54267.8,44022.8
54281.4,44012.7
54295.9,44004
54311.2,43996.8
54327.1,43991.1
54343.5,43987
54360.2,43984.5
54377.1,43983.7
54721.6,43983.7
Z" /> 
<path style="fill:#000000; fill-opacity:1.0; 
stroke:#000000; stroke-width:0; stroke-opacity:1; 
stroke-linecap:round; stroke-linejoin:round;fill-rule:evenodd;"
d="M 53498.3,43984.5
53515,43987
53531.4,43991.1
53547.3,43996.8
53562.6,44004
53577.1,44012.7
53590.7,44022.8
53603.2,44034.1
53614.6,44046.7
53624.6,44060.3
53633.3,44074.7
53640.5,44090
53646.2,44105.9
53650.3,44122.3
53652.8,44139.1
53653.6,44155.9
53653.6,44559.5
53652.8,44576.4
53650.3,44593.1
53646.2,44609.5
53640.5,44625.4
53633.3,44640.7
53624.6,44655.2
53614.6,44668.8
53603.2,44681.3
53590.7,44692.6
53577.1,44702.7
53562.6,44711.4
53547.3,44718.6
53531.4,44724.3
53515,44728.4
53498.3,44730.9
53481.4,44731.7
53136.9,44731.7
53120,44730.9
53103.3,44728.4
53086.9,44724.3
53071,44718.6
53055.7,44711.4
53041.2,44702.7
53027.6,44692.6
53015.1,44681.3
53003.8,44668.8
52993.7,44655.2
52985,44640.7
52977.8,44625.4
52972.1,44609.5
52968,44593.1
52965.5,44576.4
52964.7,44559.5
52964.7,44155.9
52965.5,44139.1
52968,44122.3
52972.1,44105.9
52977.8,44090
52985,44074.7
52993.7,44060.3
53003.8,44046.7
53015.1,44034.1
53027.6,44022.8
53041.2,44012.7
53055.7,44004
53071,43996.8
53086.9,43991.1
53103.3,43987
53120,43984.5
53136.9,43983.7
53481.4,43983.7
Z" /> 
</g>
<g >
</g>
<g style="fill:#000000; fill-opacity:1.0; 
stroke:#000000; stroke-width:0; stroke-opacity:1; 
stroke-linecap:round; stroke-linejoin:round;">
<path style="fill:#000000; fill-opacity:1.0; 
stroke:#000000; stroke-width:0; stroke-opacity:1; 
stroke-linecap:round; stroke-linejoin:round;fill-rule:evenodd;"
d="M 50998.3,41425.5
51015,41428
51031.4,41432.1
51047.3,41437.8
51062.6,41445
51077.1,41453.7
51090.7,41463.7
51103.2,41475.1
51114.6,41487.6
51124.6,41501.2
51133.3,41515.7
51140.5,41531
51146.2,41546.9
51150.3,41563.3
51152.8,41580
51153.6,41596.9
51153.6,41941.4
51152.8,41958.3
51150.3,41975
51146.2,41991.4
51140.5,42007.3
51133.3,42022.6
51124.6,42037.1
51114.6,42050.6
51103.2,42063.2
51090.7,42074.5
51077.1,42084.6
51062.6,42093.3
51047.3,42100.5
51031.4,42106.2
51015,42110.3
50998.3,42112.8
50981.4,42113.6
50577.9,42113.6
50561,42112.8
50544.3,42110.3
50527.9,42106.2
50511.9,42100.5
50496.7,42093.3
50482.2,42084.6
50468.6,42074.5
50456.1,42063.2
50444.7,42050.6
50434.6,42037.1
50426,42022.6
50418.7,42007.3
50413,41991.4
50408.9,41975
50406.4,41958.3
50405.6,41941.4
50405.6,41596.9
50406.4,41580
50408.9,41563.3
50413,41546.9
50418.7,41531
50426,41515.7
50434.6,41501.2
50444.7,41487.6
50456.1,41475.1
50468.6,41463.7
50482.2,41453.7
50496.7,41445
50511.9,41437.8
50527.9,41432.1
50544.3,41428
50561,41425.5
50577.9,41424.6
50981.4,41424.6
Z" /> 
<path style="fill:#000000; fill-opacity:1.0; 
stroke:#000000; stroke-width:0; stroke-opacity:1; 
stroke-linecap:round; stroke-linejoin:round;fill-rule:evenodd;"
d="M 50998.3,42665.6
51015,42668.1
51031.4,42672.2
51047.3,42677.9
51062.6,42685.1
51077.1,42693.8
51090.7,42703.9
51103.2,42715.3
51114.6,42727.8
51124.6,42741.4
51133.3,42755.9
51140.5,42771.1
51146.2,42787
51150.3,42803.4
51152.8,42820.2
51153.6,42837
51153.6,43181.5
51152.8,43198.4
51150.3,43215.1
51146.2,43231.5
51140.5,43247.5
51133.3,43262.7
51124.6,43277.2
51114.6,43290.8
51103.2,43303.3
51090.7,43314.7
51077.1,43324.8
51062.6,43333.4
51047.3,43340.7
51031.4,43346.4
51015,43350.5
50998.3,43353
50981.4,43353.8
50577.9,43353.8
50561,43353
50544.3,43350.5
50527.9,43346.4
50511.9,43340.7
50496.7,43333.4
50482.2,43324.8
50468.6,43314.7
50456.1,43303.3
50444.7,43290.8
50434.6,43277.2
50426,43262.7
50418.7,43247.5
50413,43231.5
50408.9,43215.1
50406.4,43198.4
50405.6,43181.5
50405.6,42837
50406.4,42820.2
50408.9,42803.4
50413,42787
50418.7,42771.1
50426,42755.9
50434.6,42741.4
50444.7,42727.8
50456.1,42715.3
50468.6,42703.9
50482.2,42693.8
50496.7,42685.1
50511.9,42677.9
50527.9,42672.2
50544.3,42668.1
50561,42665.6
50577.9,42664.8
50981.4,42664.8
Z" /> 
</g>
<g >
</g>
<g style="fill:#000000; fill-opacity:1.0; 
stroke:#000000; stroke-width:0; stroke-opacity:1; 
stroke-linecap:round; stroke-linejoin:round;">
<path style="fill:#000000; fill-opacity:1.0; 
stroke:#000000; stroke-width:0; stroke-opacity:1; 
stroke-linecap:round; stroke-linejoin:round;fill-rule:evenodd;"
d="M 57435.3,38866.4
57452,38868.9
57468.4,38873
57484.3,38878.7
57499.6,38885.9
57514.1,38894.6
57527.7,38904.7
57540.2,38916
57551.6,38928.6
57561.6,38942.1
57570.3,38956.6
57577.5,38971.9
57583.2,38987.8
57587.3,39004.2
57589.8,39021
57590.7,39037.8
57590.7,39441.4
57589.8,39458.3
57587.3,39475
57583.2,39491.4
57577.5,39507.3
57570.3,39522.6
57561.6,39537.1
57551.6,39550.6
57540.2,39563.2
57527.7,39574.5
57514.1,39584.6
57499.6,39593.3
57484.3,39600.5
57468.4,39606.2
57452,39610.3
57435.3,39612.8
57418.4,39613.6
57073.9,39613.6
57057,39612.8
57040.3,39610.3
57023.9,39606.2
57008,39600.5
56992.7,39593.3
56978.2,39584.6
56964.7,39574.5
56952.1,39563.2
56940.8,39550.6
56930.7,39537.1
56922,39522.6
56914.8,39507.3
56909.1,39491.4
56905,39475
56902.5,39458.3
56901.7,39441.4
56901.7,39037.8
56902.5,39021
56905,39004.2
56909.1,38987.8
56914.8,38971.9
56922,38956.6
56930.7,38942.1
56940.8,38928.6
56952.1,38916
56964.7,38904.7
56978.2,38894.6
56992.7,38885.9
57008,38878.7
57023.9,38873
57040.3,38868.9
57057,38866.4
57073.9,38865.6
57418.4,38865.6
Z" /> 
<path style="fill:#000000; fill-opacity:1.0; 
stroke:#000000; stroke-width:0; stroke-opacity:1; 
stroke-linecap:round; stroke-linejoin:round;fill-rule:evenodd;"
d="M 58675.5,38866.4
58692.2,38868.9
58708.6,38873
58724.5,38878.7
58739.8,38885.9
58754.3,38894.6
58767.8,38904.7
58780.4,38916
58791.7,38928.6
58801.8,38942.1
58810.5,38956.6
58817.7,38971.9
58823.4,38987.8
58827.5,39004.2
58830,39021
58830.8,39037.8
58830.8,39441.4
58830,39458.3
58827.5,39475
58823.4,39491.4
58817.7,39507.3
58810.5,39522.6
58801.8,39537.1
58791.7,39550.6
58780.4,39563.2
58767.8,39574.5
58754.3,39584.6
58739.8,39593.3
58724.5,39600.5
58708.6,39606.2
58692.2,39610.3
58675.5,39612.8
58658.6,39613.6
58314.1,39613.6
58297.2,39612.8
58280.5,39610.3
58264.1,39606.2
58248.2,39600.5
58232.9,39593.3
58218.4,39584.6
58204.8,39574.5
58192.3,39563.2
58180.9,39550.6
58170.9,39537.1
58162.2,39522.6
58154.9,39507.3
58149.3,39491.4
58145.1,39475
58142.7,39458.3
58141.8,39441.4
58141.8,39037.8
58142.7,39021
58145.1,39004.2
58149.3,38987.8
58154.9,38971.9
58162.2,38956.6
58170.9,38942.1
58180.9,38928.6
58192.3,38916
58204.8,38904.7
58218.4,38894.6
58232.9,38885.9
58248.2,38878.7
58264.1,38873
58280.5,38868.9
58297.2,38866.4
58314.1,38865.6
58658.6,38865.6
Z" /> 
</g>
<g >
</g>
<g style="fill:#000000; fill-opacity:1.0; 
stroke:#000000; stroke-width:0; stroke-opacity:1; 
stroke-linecap:round; stroke-linejoin:round;">
<path style="fill:#000000; fill-opacity:1.0; 
stroke:#000000; stroke-width:0; stroke-opacity:1; 
stroke-linecap:round; stroke-linejoin:round;fill-rule:evenodd;"
d="M 52208.9,43984.5
52225.6,43987
52242,43991.1
52257.9,43996.8
52273.2,44004
52287.7,44012.7
52301.3,44022.8
52313.8,44034.1
52325.2,44046.7
52335.2,44060.3
52343.9,44074.7
52351.2,44090
52356.9,44105.9
52361,44122.3
52363.4,44139.1
52364.3,44155.9
52364.3,44559.5
52363.4,44576.4
52361,44593.1
52356.9,44609.5
52351.2,44625.4
52343.9,44640.7
52335.2,44655.2
52325.2,44668.8
52313.8,44681.3
52301.3,44692.6
52287.7,44702.7
52273.2,44711.4
52257.9,44718.6
52242,44724.3
52225.6,44728.4
52208.9,44730.9
52192,44731.7
51847.5,44731.7
51830.7,44730.9
51813.9,44728.4
51797.5,44724.3
51781.6,44718.6
51766.4,44711.4
51751.9,44702.7
51738.3,44692.6
51725.8,44681.3
51714.4,44668.8
51704.3,44655.2
51695.6,44640.7
51688.4,44625.4
51682.7,44609.5
51678.6,44593.1
51676.1,44576.4
51675.3,44559.5
51675.3,44155.9
51676.1,44139.1
51678.6,44122.3
51682.7,44105.9
51688.4,44090
51695.6,44074.7
51704.3,44060.3
51714.4,44046.7
51725.8,44034.1
51738.3,44022.8
51751.9,44012.7
51766.4,44004
51781.6,43996.8
51797.5,43991.1
51813.9,43987
51830.7,43984.5
51847.5,43983.7
52192,43983.7
Z" /> 
<path style="fill:#000000; fill-opacity:1.0; 
stroke:#000000; stroke-width:0; stroke-opacity:1; 
stroke-linecap:round; stroke-linejoin:round;fill-rule:evenodd;"
d="M 50968.8,43984.5
50985.5,43987
51001.9,43991.1
51017.8,43996.8
51033.1,44004
51047.6,44012.7
51061.1,44022.8
51073.7,44034.1
51085,44046.7
51095.1,44060.3
51103.8,44074.7
51111,44090
51116.7,44105.9
51120.8,44122.3
51123.3,44139.1
51124.1,44155.9
51124.1,44559.5
51123.3,44576.4
51120.8,44593.1
51116.7,44609.5
51111,44625.4
51103.8,44640.7
51095.1,44655.2
51085,44668.8
51073.7,44681.3
51061.1,44692.6
51047.6,44702.7
51033.1,44711.4
51017.8,44718.6
51001.9,44724.3
50985.5,44728.4
50968.8,44730.9
50951.9,44731.7
50607.4,44731.7
50590.5,44730.9
50573.8,44728.4
50557.4,44724.3
50541.5,44718.6
50526.2,44711.4
50511.7,44702.7
50498.1,44692.6
50485.6,44681.3
50474.2,44668.8
50464.2,44655.2
50455.5,44640.7
50448.3,44625.4
50442.6,44609.5
50438.5,44593.1
50436,44576.4
50435.1,44559.5
50435.1,44155.9
50436,44139.1
50438.5,44122.3
50442.6,44105.9
50448.3,44090
50455.5,44074.7
50464.2,44060.3
50474.2,44046.7
50485.6,44034.1
50498.1,44022.8
50511.7,44012.7
50526.2,44004
50541.5,43996.8
50557.4,43991.1
50573.8,43987
50590.5,43984.5
50607.4,43983.7
50951.9,43983.7
Z" /> 
</g>
<g >
</g>
<g style="fill:#000000; fill-opacity:1.0; 
stroke:#000000; stroke-width:0; stroke-opacity:1; 
stroke-linecap:round; stroke-linejoin:round;">
<path style="fill:#000000; fill-opacity:1.0; 
stroke:#000000; stroke-width:0; stroke-opacity:1; 
stroke-linecap:round; stroke-linejoin:round;fill-rule:evenodd;"
d="M 57100.6,42016
57117.4,42018.5
57133.8,42022.6
57149.7,42028.3
57165,42035.5
57179.5,42044.2
57193,42054.3
57205.6,42065.6
57216.9,42078.2
57227,42091.7
57235.7,42106.2
57242.9,42121.5
57248.6,42137.4
57252.7,42153.8
57255.2,42170.6
57256,42187.4
57256,42591
57255.2,42607.9
57252.7,42624.6
57248.6,42641
57242.9,42656.9
57235.7,42672.2
57227,42686.7
57216.9,42700.3
57205.6,42712.8
57193,42724.1
57179.5,42734.2
57165,42742.9
57149.7,42750.1
57133.8,42755.8
57117.4,42759.9
57100.6,42762.4
57083.8,42763.2
56739.3,42763.2
56722.4,42762.4
56705.7,42759.9
56689.3,42755.8
56673.4,42750.1
56658.1,42742.9
56643.6,42734.2
56630,42724.1
56617.5,42712.8
56606.1,42700.3
56596.1,42686.7
56587.4,42672.2
56580.1,42656.9
56574.5,42641
56570.3,42624.6
56567.9,42607.9
56567,42591
56567,42187.4
56567.9,42170.6
56570.3,42153.8
56574.5,42137.4
56580.1,42121.5
56587.4,42106.2
56596.1,42091.7
56606.1,42078.2
56617.5,42065.6
56630,42054.3
56643.6,42044.2
56658.1,42035.5
56673.4,42028.3
56689.3,42022.6
56705.7,42018.5
56722.4,42016
56739.3,42015.2
57083.8,42015.2
Z" /> 
<path style="fill:#000000; fill-opacity:1.0; 
stroke:#000000; stroke-width:0; stroke-opacity:1; 
stroke-linecap:round; stroke-linejoin:round;fill-rule:evenodd;"
d="M 55860.5,42016
55877.2,42018.5
55893.6,42022.6
55909.5,42028.3
55924.8,42035.5
55939.3,42044.2
55952.9,42054.3
55965.4,42065.6
55976.8,42078.2
55986.8,42091.7
55995.5,42106.2
56002.7,42121.5
56008.4,42137.4
56012.5,42153.8
56015,42170.6
56015.9,42187.4
56015.9,42591
56015,42607.9
56012.5,42624.6
56008.4,42641
56002.7,42656.9
55995.5,42672.2
55986.8,42686.7
55976.8,42700.3
55965.4,42712.8
55952.9,42724.1
55939.3,42734.2
55924.8,42742.9
55909.5,42750.1
55893.6,42755.8
55877.2,42759.9
55860.5,42762.4
55843.6,42763.2
55499.1,42763.2
55482.2,42762.4
55465.5,42759.9
55449.1,42755.8
55433.2,42750.1
55417.9,42742.9
55403.4,42734.2
55389.8,42724.1
55377.3,42712.8
55366,42700.3
55355.9,42686.7
55347.2,42672.2
55340,42656.9
55334.3,42641
55330.2,42624.6
55327.7,42607.9
55326.9,42591
55326.9,42187.4
55327.7,42170.6
55330.2,42153.8
55334.3,42137.4
55340,42121.5
55347.2,42106.2
55355.9,42091.7
55366,42078.2
55377.3,42065.6
55389.8,42054.3
55403.4,42044.2
55417.9,42035.5
55433.2,42028.3
55449.1,42022.6
55465.5,42018.5
55482.2,42016
55499.1,42015.2
55843.6,42015.2
Z" /> 
</g>
<g >
</g>
<g >
</g>
<g >
</g>
</g>
<g style="fill:#FFFFFF; fill-opacity:1.0; 
stroke:#FFFFFF; stroke-width:0; stroke-opacity:1; 
stroke-linecap:round; stroke-linejoin:round;">
</g>
<g style="fill:#000000; fill-opacity:1.0; 
stroke:#000000; stroke-width:0; stroke-opacity:1; 
stroke-linecap:round; stroke-linejoin:round;">
</g> 
</svg>
