<?xml version="1.0" standalone="no"?>
 <!DOCTYPE svg PUBLIC "-//W3C//DTD SVG 1.1//EN" 
 "http://www.w3.org/Graphics/SVG/1.1/DTD/svg11.dtd"> 
<svg
  xmlns:svg="http://www.w3.org/2000/svg"
  xmlns="http://www.w3.org/2000/svg"
  xmlns:xlink="http://www.w3.org/1999/xlink"
  version="1.1"
  width="29.700220cm" height="21.000720cm" viewBox="0 0 116930 82680">
<title>SVG Picture created as cargadorDeBateriasLitIon-37-F_SilkS.svg date 2021/12/18 17:13:58 </title>
  <desc>Picture generated by PCBNEW </desc>
<g style="fill:#000000; fill-opacity:1;stroke:#000000; stroke-opacity:1;
stroke-linecap:round; stroke-linejoin:round;"
 transform="translate(0 0) scale(1 1)">
</g>
<g style="fill:#000000; fill-opacity:0.0; 
stroke:#000000; stroke-width:-0.000787402; stroke-opacity:1; 
stroke-linecap:round; stroke-linejoin:round;">
</g>
<g style="fill:#000000; fill-opacity:0.0; 
stroke:#000000; stroke-width:39.3701; stroke-opacity:1; 
stroke-linecap:round; stroke-linejoin:round;">
<path d="M49204 37664
L62590 37664
" />
<path d="M49204 47113
L49204 37664
" />
<path d="M62590 47113
L49204 47113
" />
<path d="M62590 37664
L62590 47113
" />
</g>
<g style="fill:#000000; fill-opacity:0.0; 
stroke:#000000; stroke-width:157.48; stroke-opacity:1; 
stroke-linecap:round; stroke-linejoin:round;">
<circle cx="59874.1" cy="41286.9" r="78.7402" /> 
</g>
<g style="fill:#000000; fill-opacity:0.0; 
stroke:#000000; stroke-width:118.11; stroke-opacity:1; 
stroke-linecap:round; stroke-linejoin:round;">
<path d="M60189 42231
L57905 42231
" />
<path d="M57905 42231
L57905 40971
" />
<path d="M57905 40971
L60189 40971
" />
<path d="M60189 40971
L60189 42231
" />
</g>
<g style="fill:#000000; fill-opacity:0.0; 
stroke:#000000; stroke-width:94.4882; stroke-opacity:1; 
stroke-linecap:round; stroke-linejoin:round;">
<path d="M53944 40389
L52015 40389
" />
<path d="M52527 42924
L53944 42924
" />
<path d="M60493 39641
L60750 39641
" />
<path d="M60493 38838
L60750 38838
" />
<path d="M61417 41729
L61417 41473
" />
<path d="M60614 41729
L60614 41473
" />
<path d="M56419 40412
L56163 40412
" />
<path d="M56419 41215
L56163 41215
" />
<path d="M51181 39761
L51181 39505
" />
<path d="M50378 39761
L50378 39505
" />
<path d="M58464 45995
L57315 45995
" />
<path d="M58464 43507
L56763 43507
" />
<path d="M58464 43507
L58464 44239
" />
<path d="M58464 45995
L58464 45263
" />
<path d="M61220 45995
L60070 45995
" />
<path d="M61220 43507
L59519 43507
" />
<path d="M61220 43507
L61220 44239
" />
<path d="M61220 45995
L61220 45263
" />
<path d="M52759 44936
L54559 44936
" />
<path d="M52759 43778
L52759 44936
" />
<path d="M54559 43778
L52759 43778
" />
<path d="M51181 42517
L51181 42261
" />
<path d="M50378 42517
L50378 42261
" />
<path d="M57994 38838
L57738 38838
" />
<path d="M57994 39641
L57738 39641
" />
<path d="M51271 44759
L51527 44759
" />
<path d="M51271 43956
L51527 43956
" />
<path d="M56163 42790
L56419 42790
" />
<path d="M56163 41987
L56419 41987
" />
<g >
</g>
<g >
</g>
<g >
</g>
<g >
</g>
<g >
</g>
<g >
</g>
<g >
</g>
<g >
</g>
<g >
</g>
<g >
</g>
<g >
</g>
<g >
</g>
<g >
</g>
</g>
<g style="fill:#000000; fill-opacity:0.0; 
stroke:#000000; stroke-width:94.4882; stroke-opacity:1; 
stroke-linecap:round; stroke-linejoin:round;">
</g>
<g style="fill:#000000; fill-opacity:0.0; 
stroke:#000000; stroke-width:78.7402; stroke-opacity:1; 
stroke-linecap:round; stroke-linejoin:round;">
<text x="59047.3" y="41901"
textLength="787.402" font-size="524.934" lengthAdjust="spacingAndGlyphs"
text-anchor="middle" opacity="0">U2</text>
<path d="M58747 41571
L58747 41826
L58766 41856
L58784 41871
L58822 41886
L58897 41886
L58934 41871
L58953 41856
L58972 41826
L58972 41571
" />
<path d="M59141 41601
L59159 41586
L59197 41571
L59291 41571
L59328 41586
L59347 41601
L59366 41631
L59366 41661
L59347 41706
L59122 41886
L59366 41886
" />
</g>
<g style="fill:#000000; fill-opacity:0.0; 
stroke:#000000; stroke-width:118.11; stroke-opacity:1; 
stroke-linecap:round; stroke-linejoin:round;">
<text x="53236.3" y="39767.2"
textLength="1677.17" font-size="1049.87" lengthAdjust="spacingAndGlyphs"
text-anchor="middle" opacity="0">U1</text>
<path d="M52636 38942
L52636 39579
L52673 39654
L52711 39692
L52786 39729
L52936 39729
L53011 39692
L53048 39654
L53086 39579
L53086 38942
" />
<path d="M53873 39729
L53423 39729
" />
<path d="M53648 39729
L53648 38942
L53573 39054
L53498 39129
L53423 39167
" />
<text x="60622.2" y="38507.3"
textLength="1690.85" font-size="1049.87" lengthAdjust="spacingAndGlyphs"
text-anchor="middle" opacity="0">R4</text>
<path d="M60490 38469
L60228 38094
" />
<path d="M60040 38469
L60040 37682
L60340 37682
L60415 37719
L60453 37757
L60490 37832
L60490 37944
L60453 38019
L60415 38057
L60340 38094
L60040 38094
" />
<path d="M61165 37944
L61165 38469
" />
<path d="M60978 37644
L60790 38207
L61278 38207
" />
<g transform="rotate(-90 59889.9 41601.8)">
<text x="59889.9" y="41995.5"
textLength="1690.85" font-size="1049.87" lengthAdjust="spacingAndGlyphs"
text-anchor="middle" opacity="0">R3</text>
</g>
<path d="M60246 41733
L59871 41995
" />
<path d="M60246 42182
L59458 42182
L59458 41883
L59496 41808
L59533 41770
L59608 41733
L59721 41733
L59796 41770
L59833 41808
L59871 41883
L59871 42182
" />
<path d="M59458 41470
L59458 40983
L59758 41245
L59758 41133
L59796 41058
L59833 41020
L59908 40983
L60096 40983
L60171 41020
L60208 41058
L60246 41133
L60246 41358
L60208 41433
L60171 41470
" />
<text x="56291.4" y="42334.1"
textLength="1690.85" font-size="1049.87" lengthAdjust="spacingAndGlyphs"
text-anchor="middle" opacity="0">R2</text>
<path d="M56160 42296
L55897 41921
" />
<path d="M55710 42296
L55710 41509
L56010 41509
L56085 41546
L56122 41584
L56160 41659
L56160 41771
L56122 41846
L56085 41884
L56010 41921
L55710 41921
" />
<path d="M56460 41584
L56497 41546
L56572 41509
L56760 41509
L56835 41546
L56872 41584
L56910 41659
L56910 41734
L56872 41846
L56422 42296
L56910 42296
" />
<g transform="rotate(-90 49653.6 39633.3)">
<text x="49653.6" y="40027"
textLength="1690.85" font-size="1049.87" lengthAdjust="spacingAndGlyphs"
text-anchor="middle" opacity="0">R1</text>
</g>
<path d="M50009 39764
L49634 40027
" />
<path d="M50009 40214
L49222 40214
L49222 39914
L49259 39839
L49297 39802
L49372 39764
L49484 39764
L49559 39802
L49597 39839
L49634 39914
L49634 40214
" />
<path d="M50009 39014
L50009 39464
" />
<path d="M50009 39239
L49222 39239
L49334 39314
L49409 39389
L49447 39464
" />
<text x="57866.2" y="43176.6"
textLength="1728.35" font-size="1049.87" lengthAdjust="spacingAndGlyphs"
text-anchor="middle" opacity="0">Q2</text>
<path d="M57791 43214
L57716 43176
L57641 43101
L57528 42989
L57453 42951
L57378 42951
" />
<path d="M57416 43139
L57341 43101
L57266 43026
L57228 42876
L57228 42614
L57266 42464
L57341 42389
L57416 42351
L57566 42351
L57641 42389
L57716 42464
L57753 42614
L57753 42876
L57716 43026
L57641 43101
L57566 43139
L57416 43139
" />
<path d="M58053 42426
L58091 42389
L58166 42351
L58353 42351
L58428 42389
L58466 42426
L58503 42501
L58503 42576
L58466 42689
L58016 43139
L58503 43139
" />
<text x="60622.2" y="43176.6"
textLength="1728.35" font-size="1049.87" lengthAdjust="spacingAndGlyphs"
text-anchor="middle" opacity="0">Q1</text>
<path d="M60547 43214
L60472 43176
L60397 43101
L60284 42989
L60209 42951
L60134 42951
" />
<path d="M60172 43139
L60097 43101
L60022 43026
L59984 42876
L59984 42614
L60022 42464
L60097 42389
L60172 42351
L60322 42351
L60397 42389
L60472 42464
L60509 42614
L60509 42876
L60472 43026
L60397 43101
L60322 43139
L60172 43139
" />
<path d="M61259 43139
L60809 43139
" />
<path d="M61034 43139
L61034 42351
L60959 42464
L60884 42539
L60809 42576
" />
<text x="53929.2" y="43625.4"
textLength="1690.85" font-size="1049.87" lengthAdjust="spacingAndGlyphs"
text-anchor="middle" opacity="0">D1</text>
<path d="M53348 43587
L53348 42800
L53535 42800
L53648 42838
L53723 42913
L53760 42988
L53798 43137
L53798 43250
L53760 43400
L53723 43475
L53648 43550
L53535 43587
L53348 43587
" />
<path d="M54547 43587
L54097 43587
" />
<path d="M54322 43587
L54322 42800
L54247 42913
L54172 42988
L54097 43025
" />
<g transform="rotate(-90 49653.6 42389.2)">
<text x="49653.6" y="42782.9"
textLength="1690.85" font-size="1049.87" lengthAdjust="spacingAndGlyphs"
text-anchor="middle" opacity="0">C4</text>
</g>
<path d="M49934 42520
L49972 42557
L50009 42670
L50009 42745
L49972 42857
L49897 42932
L49822 42970
L49672 43007
L49559 43007
L49409 42970
L49334 42932
L49259 42857
L49222 42745
L49222 42670
L49259 42557
L49297 42520
" />
<path d="M49484 41845
L50009 41845
" />
<path d="M49184 42033
L49747 42220
L49747 41733
" />
<text x="57866.2" y="40759.3"
textLength="1690.85" font-size="1049.87" lengthAdjust="spacingAndGlyphs"
text-anchor="middle" opacity="0">C3</text>
<path d="M57735 40646
L57697 40684
L57585 40721
L57510 40721
L57397 40684
L57322 40609
L57285 40534
L57247 40384
L57247 40271
L57285 40121
L57322 40046
L57397 39971
L57510 39934
L57585 39934
L57697 39971
L57735 40009
" />
<path d="M57997 39934
L58484 39934
L58222 40234
L58334 40234
L58409 40271
L58447 40309
L58484 40384
L58484 40571
L58447 40646
L58409 40684
L58334 40721
L58109 40721
L58034 40684
L57997 40646
" />
<text x="51399.7" y="43625.4"
textLength="1690.85" font-size="1049.87" lengthAdjust="spacingAndGlyphs"
text-anchor="middle" opacity="0">C2</text>
<path d="M51268 43512
L51230 43550
L51118 43587
L51043 43587
L50931 43550
L50856 43475
L50818 43400
L50781 43250
L50781 43137
L50818 42988
L50856 42913
L50931 42838
L51043 42800
L51118 42800
L51230 42838
L51268 42875
" />
<path d="M51568 42875
L51605 42838
L51680 42800
L51868 42800
L51943 42838
L51980 42875
L52018 42950
L52018 43025
L51980 43137
L51530 43587
L52018 43587
" />
<text x="56291.4" y="41656.9"
textLength="1690.85" font-size="1049.87" lengthAdjust="spacingAndGlyphs"
text-anchor="middle" opacity="0">C1</text>
<path d="M56160 41544
L56122 41581
L56010 41619
L55935 41619
L55822 41581
L55747 41506
L55710 41431
L55672 41281
L55672 41169
L55710 41019
L55747 40944
L55822 40869
L55935 40832
L56010 40832
L56122 40869
L56160 40907
" />
<path d="M56910 41619
L56460 41619
" />
<path d="M56685 41619
L56685 40832
L56610 40944
L56535 41019
L56460 41057
" />
<g >
</g>
</g> 
</svg>
