<?xml version="1.0" standalone="no"?>
 <!DOCTYPE svg PUBLIC "-//W3C//DTD SVG 1.1//EN" 
 "http://www.w3.org/Graphics/SVG/1.1/DTD/svg11.dtd"> 
<svg
  xmlns:svg="http://www.w3.org/2000/svg"
  xmlns="http://www.w3.org/2000/svg"
  xmlns:xlink="http://www.w3.org/1999/xlink"
  version="1.1"
  width="29.700220cm" height="21.000720cm" viewBox="0 0 116930 82680">
<title>SVG Picture created as cargadorDeBateriasLitIon-36-B_SilkS.svg date 2021/12/18 17:13:58 </title>
  <desc>Picture generated by PCBNEW </desc>
<g style="fill:#000000; fill-opacity:1;stroke:#000000; stroke-opacity:1;
stroke-linecap:round; stroke-linejoin:round;"
 transform="translate(0 0) scale(1 1)">
</g>
<g style="fill:#000000; fill-opacity:0.0; 
stroke:#000000; stroke-width:-0.000787402; stroke-opacity:1; 
stroke-linecap:round; stroke-linejoin:round;">
</g>
<g style="fill:#000000; fill-opacity:0.0; 
stroke:#000000; stroke-width:39.3701; stroke-opacity:1; 
stroke-linecap:round; stroke-linejoin:round;">
<path d="M66847 37196
L66847 47433
" />
<path d="M45194 37196
L45194 47433
" />
<path d="M45194 37196
L66847 37196
" />
<path d="M66847 47433
L45194 47433
" />
</g>
<g style="fill:#000000; fill-opacity:1.0; 
stroke:#000000; stroke-width:7.87402; stroke-opacity:1; 
stroke-linecap:round; stroke-linejoin:round;">
<path style="fill:#000000; fill-opacity:1.0; 
stroke:#000000; stroke-width:7.87402; stroke-opacity:1; 
stroke-linecap:round; stroke-linejoin:round;fill-rule:evenodd;"
d="M 51881,38203.6
51703.9,38206.7
51563,38213.5
51451.2,38225.2
51361.7,38243.2
51287.6,38268.7
51221.8,38303.1
51157.5,38347.5
51105.8,38388.6
50981.4,38520.2
50897,38672.8
50851.5,38839
50843.7,39011.4
50872.5,39182.5
50936.9,39344.8
51035.6,39491
51167.7,39613.5
51301.5,39691.8
51354.9,39714.2
51409.2,39731
51473.7,39743.4
51557.6,39752.7
51670.1,39760.1
51820.5,39766.9
51876,39769
52050.8,39776.6
52181,39785.2
52271.7,39796.4
52328.3,39811.7
52356.1,39832.4
52360.4,39860
52346.4,39896.1
52345,39898.8
52332.2,39916.5
52310.6,39929.7
52273.2,39939.2
52212.5,39946
52121.5,39950.9
51992.9,39954.8
51874.5,39957.5
51676.9,39963.8
51520.7,39975.1
51397.4,39993.9
51298.5,40023.1
51215.3,40065.2
51139.4,40122.9
51062.2,40199
51044.4,40218.3
50982.2,40290.6
50934.2,40359.7
50898.7,40433.4
50873.6,40519.9
50857,40627.2
50847,40763.2
50841.8,40936.1
50839.9,41070.1
50838.8,41241.4
50839.5,41370
50842.7,41463.3
50848.8,41528.6
50858.2,41573.4
50871.6,41604.9
50876.8,41613.5
50943.8,41675.6
51028.5,41700.2
51115.8,41687.4
51190.3,41637.2
51209.3,41612.7
51225.6,41581
51236.8,41538
51243.6,41475.5
51246.7,41385.1
51246.7,41258.4
51245.4,41153.5
51244.8,40958.2
51250.5,40806.1
51263.2,40690.4
51284.1,40604.6
51313.9,40542.1
51336.5,40513
51375.7,40471.8
51412.3,40440.9
51454.3,40418.6
51509.3,40403.2
51585.4,40393
51690.2,40386.2
51831.8,40381.2
51957.1,40377.8
52438.7,40365.3
52547,40289.2
52663.4,40180.8
52739.2,40053.5
52775.7,39915.6
52773.9,39775.1
52735,39640.4
52660,39519.6
52550,39420.8
52420.3,39357
52360,39345.5
52257.8,39336.4
52122,39330.4
51960.6,39327.9
51932.5,39327.8
51775.7,39327.1
51660.1,39324.3
51576.9,39318.6
51517.1,39309.2
51471.9,39295.2
51442.4,39281.2
51343.7,39201.7
51281.9,39092.2
51261.7,38961.6
51283.2,38837
51346.1,38738.7
51425.4,38676.7
51454.2,38661.3
51487.9,38649.5
51533.3,38640.9
51597,38634.9
51685.8,38631.1
51806.4,38629
51965.5,38628.1
52106.7,38627.9
52708.1,38627.8
52793.5,38690.8
52853.9,38741
52898,38787.4
52904.6,38797.1
52911.3,38833.1
52917.7,38916.7
52923.7,39045.5
52929.3,39217
52934.3,39428.7
52938.8,39678.3
52942.5,39963.2
52942.8,39990.3
52955.3,41140.3
53021.6,41265.3
53137.6,41434.2
53286.6,41569.1
53386,41629.4
53512.3,41672.7
53663.7,41693.1
53821.2,41690.2
53965.9,41663.9
54042.8,41634.8
54195.4,41534.3
54328.4,41397.3
54413.6,41266.8
54480.3,41140.3
54492.8,39990.3
54495.8,39714
54498.6,39483.2
54501.7,39293.5
54505.7,39140.3
54511.2,39019.1
54518.8,38925.5
54529,38855.1
54542.4,38803.2
54559.5,38765.5
54581,38737.4
54607.3,38714.5
54639.1,38692.3
54658.3,38679.3
54719.3,38644.7
54782,38630.5
54868.6,38632.1
54881.9,38633.2
54974.2,38646.2
55039,38672.7
55098.3,38721.8
55100.8,38724.2
55180.3,38803.7
55193.8,39947
55197.1,40217.5
55200.3,40442.8
55203.4,40627.5
55206.9,40776.4
55210.8,40894.2
55215.6,40985.6
55221.3,41055.4
55228.2,41108.3
55236.6,41149.1
55246.8,41182.3
55257.1,41208.8
55352.9,41376.8
55485.3,41520.5
55620.3,41615.5
55691.6,41652.2
55753.9,41674.5
55824.2,41686
55919.2,41690
55980.3,41690.3
56093.9,41688.6
56174.3,41681.3
56238.4,41664.8
56303.1,41635.6
56339.2,41616.2
56484.1,41513.9
56606.4,41384.9
56693.7,41242.5
56708.2,41207.7
56718.8,41175
56727.8,41135.2
56735.3,41083.4
56741.6,41015.1
56746.8,40925.5
56751.3,40810.1
56755.3,40664
56758.8,40482.8
56762.3,40261.6
56765.7,39995.8
56766.3,39949.1
56769.7,39680.3
56772.8,39456.9
56775.9,39274.6
56779.1,39128.9
56782.8,39015.2
56787.2,38929.1
56792.5,38866.1
56798.9,38821.8
56806.8,38791.6
56816.3,38771.1
56827.6,38755.8
56830.3,38752.8
56932.3,38673.4
57050.4,38633.8
57173.4,38633.3
57289.8,38671.2
57388.3,38746.9
57420.9,38788.6
57429.4,38810.4
57436.7,38851
57443,38914.1
57448.5,39003.8
57453.2,39123.9
57457.3,39278.4
57461,39471.1
57464.5,39705.9
57467.8,39986.8
57467.8,39990.3
57470.8,40260.1
57473.6,40484.6
57476.3,40668.4
57479.3,40816.3
57482.9,40932.9
57487.2,41022.9
57492.5,41091.1
57499.2,41142
57507.3,41180.4
57517.3,41210.9
57529.3,41238.3
57536.4,41252.9
57641.6,41413.6
57778.1,41544.1
57937.5,41638.6
58111.5,41691.1
58172,41698.3
58257.3,41701.6
58311.8,41693
58353.8,41667.5
58378.6,41644.3
58433,41561.5
58443.2,41475.1
58413.1,41394.6
58346.7,41329.6
58248,41289.5
58227.7,41285.8
58085.3,41245.8
57982.7,41176.2
57949.3,41134.7
57938.8,41115.2
57930,41088.3
57922.7,41049.6
57916.6,40994.5
57911.5,40918.7
57907.3,40817.5
57903.6,40686.6
57900.4,40521.4
57897.4,40317.4
57894.4,40070.1
57892.8,39929
57889.8,39660.2
57887,39436.8
57884.1,39253.8
57881,39106.7
57877.3,38990.6
57872.9,38900.9
57867.4,38832.7
57860.6,38781.4
57852.2,38742.3
57842.1,38710.5
57830,38681.4
57826.3,38673.4
57721.8,38502.3
57585.3,38366.6
57421.9,38270.2
57237,38216.6
57167.5,38208.6
56972.2,38218.4
56790.6,38274.1
56629.2,38372
56494.9,38508.6
56432.8,38602.8
56355.3,38740.3
56342.8,39890.3
56339.2,40185.4
56335.3,40433.4
56330.9,40637.2
56326,40799.7
56320.5,40923.9
56314.2,41012.5
56307,41068.6
56299.6,41093.9
56260.6,41144.7
56202.5,41202.9
56188.3,41215.3
56135.6,41254.2
56085.1,41272.7
56016.7,41275.7
55963.1,41272.6
55833.2,41246.9
55734.8,41187.4
55659.3,41090.3
55651.4,41057.4
55644.3,40986.1
55638,40874.7
55632.4,40721.2
55627.3,40523.8
55622.9,40280.7
55619,39989.9
55617.8,39890.3
55614.8,39620.5
55612.1,39396
55609.3,39212.2
55606.3,39064.5
55602.7,38948.2
55598.4,38858.6
55593.1,38791.2
55586.5,38741.2
55578.5,38704.1
55568.6,38675.2
55556.8,38649.8
55550.5,38637.8
55438.4,38475
55301.6,38350.7
55146.6,38264.6
54980.2,38216.6
54809,38206.5
54639.7,38234.2
54478.9,38299.4
54333.4,38402
54209.8,38541.8
54133.8,38674.8
54121.1,38703.8
54110.6,38734.4
54101.9,38771.4
54094.8,38819.6
54089,38883.5
54084.3,38968.1
54080.4,39078
54077.2,39217.9
54074.3,39392.5
54071.5,39606.7
54068.5,39865.1
54067.8,39927.8
54064.4,40213
54060.7,40451.8
54056.7,40647.8
54052.2,40804.7
54047.1,40926.1
54041.2,41015.5
54034.4,41076.7
54026.6,41113.1
54022.5,41122.9
53949.2,41204.6
53847.7,41256.8
53731.8,41277
53615.4,41262.6
53517.1,41214.8
53456.8,41164.7
53412.7,41118.2
53406,41108.6
53399.3,41072.5
53392.9,40988.9
53386.8,40860.2
53381.3,40689
53376.2,40477.7
53371.8,40228.9
53368,39944.9
53367.8,39927.8
53364.8,39659.9
53362.1,39437.1
53359.4,39254.8
53356.4,39108.2
53352.8,38992.4
53348.5,38902.7
53343,38834.4
53336.2,38782.6
53327.7,38742.6
53317.3,38709.6
53304.8,38678.7
53295.8,38658.6
53222.6,38538.4
53119,38421.7
52999.3,38322
52878.1,38253
52851.8,38243
52804.9,38230
52745.8,38220
52667.8,38212.7
52564.2,38207.7
52428.6,38204.6
52254.4,38203.1
52101.1,38202.8
Z" /> 
<g >
</g>
<g >
</g>
<g >
</g>
<g >
</g>
<g >
</g>
<g >
</g>
<g >
</g>
<g >
</g>
<g >
</g>
<g >
</g>
<g >
</g>
<g >
</g>
<g >
</g>
<g >
</g>
<g >
</g>
<g >
</g>
<g >
</g>
<g >
</g>
<g >
</g>
<g >
</g>
<g >
</g>
<g >
</g>
<g >
</g>
<g >
</g>
<g >
</g>
<g >
</g>
</g> 
</svg>
