<?xml version="1.0" standalone="no"?>
 <!DOCTYPE svg PUBLIC "-//W3C//DTD SVG 1.1//EN" 
 "http://www.w3.org/Graphics/SVG/1.1/DTD/svg11.dtd"> 
<svg
  xmlns:svg="http://www.w3.org/2000/svg"
  xmlns="http://www.w3.org/2000/svg"
  xmlns:xlink="http://www.w3.org/1999/xlink"
  version="1.1"
  width="29.700220cm" height="21.000720cm" viewBox="0 0 116930 82680">
<title>SVG Picture created as cargadorDeBateriasLitIon-38-B_Mask.svg date 2021/12/18 17:13:58 </title>
  <desc>Picture generated by PCBNEW </desc>
<g style="fill:#000000; fill-opacity:1;stroke:#000000; stroke-opacity:1;
stroke-linecap:round; stroke-linejoin:round;"
 transform="translate(0 0) scale(1 1)">
</g>
<g style="fill:#000000; fill-opacity:0.0; 
stroke:#000000; stroke-width:-0.000787402; stroke-opacity:1; 
stroke-linecap:round; stroke-linejoin:round;">
</g>
<g style="fill:#000000; fill-opacity:0.0; 
stroke:#000000; stroke-width:39.3701; stroke-opacity:1; 
stroke-linecap:round; stroke-linejoin:round;">
<path d="M66847 37196
L66847 47433
" />
</g>
<g style="fill:#000000; fill-opacity:0.0; 
stroke:#000000; stroke-width:196.85; stroke-opacity:1; 
stroke-linecap:round; stroke-linejoin:round;">
<text x="54249.1" y="45464.6"
transform="scale(-1 1) translate(-108498.240945 0)"
textLength="9240.93" font-size="1049.87" lengthAdjust="spacingAndGlyphs"
text-anchor="middle" opacity="0">MAYKOLREY.COM</text>
<path d="M58927 45427
L58828 44639
L58636 45202
L58304 44639
L58402 45427
" />
<path d="M58036 45202
L57661 45202
" />
<path d="M58140 45427
L57779 44639
L57615 45427
" />
<path d="M57155 45052
L57202 45427
" />
<path d="M57366 44639
L57155 45052
L56841 44639
" />
<path d="M56677 45427
L56579 44639
" />
<path d="M56227 45427
L56508 44977
" />
<path d="M56129 44639
L56635 45089
" />
<path d="M55641 44639
L55491 44639
L55421 44677
L55355 44752
L55337 44902
L55370 45164
L55426 45314
L55510 45389
L55590 45427
L55740 45427
L55810 45389
L55876 45314
L55894 45164
L55862 44902
L55805 44752
L55721 44677
L55641 44639
" />
<path d="M54690 45427
L55065 45427
L54966 44639
" />
<path d="M53978 45427
L54193 45052
" />
<path d="M54427 45427
L54329 44639
L54029 44639
L53959 44677
L53926 44714
L53898 44789
L53912 44902
L53959 44977
L54001 45014
L54081 45052
L54381 45052
" />
<path d="M53589 45014
L53326 45014
" />
<path d="M53265 45427
L53640 45427
L53542 44639
L53167 44639
" />
<path d="M52731 45052
L52778 45427
" />
<path d="M52942 44639
L52731 45052
L52417 44639
" />
<path d="M52243 45352
L52211 45389
L52253 45427
L52286 45389
L52243 45352
L52253 45427
" />
<path d="M51418 45352
L51461 45389
L51578 45427
L51653 45427
L51761 45389
L51826 45314
L51854 45239
L51873 45089
L51859 44977
L51803 44827
L51756 44752
L51672 44677
L51554 44639
L51479 44639
L51372 44677
L51339 44714
" />
<path d="M50842 44639
L50692 44639
L50622 44677
L50556 44752
L50537 44902
L50570 45164
L50626 45314
L50711 45389
L50790 45427
L50940 45427
L51011 45389
L51076 45314
L51095 45164
L51062 44902
L51006 44752
L50922 44677
L50842 44639
" />
<path d="M50266 45427
L50167 44639
L49975 45202
L49642 44639
L49741 45427
" />
</g>
<g style="fill:#000000; fill-opacity:0.0; 
stroke:#000000; stroke-width:39.3701; stroke-opacity:1; 
stroke-linecap:round; stroke-linejoin:round;">
<path d="M45194 37196
L45194 47433
" />
<path d="M45194 37196
L66847 37196
" />
<path d="M66847 47433
L45194 47433
" />
<g >
</g>
<g >
</g>
<g >
</g>
<g >
</g>
<g >
</g>
<g >
</g>
<g >
</g>
<g >
</g>
<g >
</g>
<g >
</g>
<g style="fill:#000000; fill-opacity:0.0; 
stroke:#000000; stroke-width:39.3701; stroke-opacity:1; 
stroke-linecap:round; stroke-linejoin:round;">
</g>
<g style="fill:#000000; fill-opacity:0.0; 
stroke:#000000; stroke-width:0; stroke-opacity:1; 
stroke-linecap:round; stroke-linejoin:round;">
</g>
<g style="fill:#000000; fill-opacity:1.0; 
stroke:#000000; stroke-width:0; stroke-opacity:1; 
stroke-linecap:round; stroke-linejoin:round;">
<path style="fill:#000000; fill-opacity:1.0; 
stroke:#000000; stroke-width:0; stroke-opacity:1; 
stroke-linecap:round; stroke-linejoin:round;fill-rule:evenodd;"
d="M 66654.6,46016
66658.4,46016.6
66662.1,46017.5
66665.8,46018.8
66669.3,46020.5
66672.6,46022.4
66675.7,46024.7
66678.5,46027.3
66681.1,46030.2
66683.4,46033.3
66685.4,46036.6
66687.1,46040.1
66688.4,46043.7
66689.3,46047.5
66689.9,46051.3
66690.1,46055.2
66690.1,47236.3
66689.9,47240.1
66689.3,47244
66688.4,47247.7
66687.1,47251.3
66685.4,47254.8
66683.4,47258.2
66681.1,47261.3
66678.5,47264.1
66675.7,47266.7
66672.6,47269
66669.3,47271
66665.8,47272.7
66662.1,47274
66658.4,47274.9
66654.6,47275.5
66650.7,47275.7
65469.6,47275.7
65465.7,47275.5
65461.9,47274.9
65458.2,47274
65454.5,47272.7
65451,47271
65447.7,47269
65444.6,47266.7
65441.8,47264.1
65439.2,47261.3
65436.9,47258.2
65434.9,47254.8
65433.2,47251.3
65431.9,47247.7
65431,47244
65430.4,47240.1
65430.2,47236.3
65430.2,46055.2
65430.4,46051.3
65431,46047.5
65431.9,46043.7
65433.2,46040.1
65434.9,46036.6
65436.9,46033.3
65439.2,46030.2
65441.8,46027.3
65444.6,46024.7
65447.7,46022.4
65451,46020.5
65454.5,46018.8
65458.2,46017.5
65461.9,46016.6
65465.7,46016
65469.6,46015.8
66650.7,46015.8
Z" /> 
</g>
<g >
</g>
<g >
</g>
<g style="fill:#000000; fill-opacity:1.0; 
stroke:#000000; stroke-width:0; stroke-opacity:1; 
stroke-linecap:round; stroke-linejoin:round;">
<path style="fill:#000000; fill-opacity:1.0; 
stroke:#000000; stroke-width:0; stroke-opacity:1; 
stroke-linecap:round; stroke-linejoin:round;fill-rule:evenodd;"
d="M 66654.6,43260.1
66658.4,43260.7
66662.1,43261.6
66665.8,43262.9
66669.3,43264.6
66672.6,43266.5
66675.7,43268.8
66678.5,43271.4
66681.1,43274.3
66683.4,43277.4
66685.4,43280.7
66687.1,43284.2
66688.4,43287.8
66689.3,43291.6
66689.9,43295.4
66690.1,43299.3
66690.1,44480.4
66689.9,44484.2
66689.3,44488.1
66688.4,44491.8
66687.1,44495.4
66685.4,44498.9
66683.4,44502.2
66681.1,44505.4
66678.5,44508.2
66675.7,44510.8
66672.6,44513.1
66669.3,44515.1
66665.8,44516.7
66662.1,44518
66658.4,44519
66654.6,44519.6
66650.7,44519.7
65469.6,44519.7
65465.7,44519.6
65461.9,44519
65458.2,44518
65454.5,44516.7
65451,44515.1
65447.7,44513.1
65444.6,44510.8
65441.8,44508.2
65439.2,44505.4
65436.9,44502.2
65434.9,44498.9
65433.2,44495.4
65431.9,44491.8
65431,44488.1
65430.4,44484.2
65430.2,44480.4
65430.2,43299.3
65430.4,43295.4
65431,43291.6
65431.9,43287.8
65433.2,43284.2
65434.9,43280.7
65436.9,43277.4
65439.2,43274.3
65441.8,43271.4
65444.6,43268.8
65447.7,43266.5
65451,43264.6
65454.5,43262.9
65458.2,43261.6
65461.9,43260.7
65465.7,43260.1
65469.6,43259.9
66650.7,43259.9
Z" /> 
</g>
<g >
</g>
<g style="fill:#000000; fill-opacity:1.0; 
stroke:#000000; stroke-width:0; stroke-opacity:1; 
stroke-linecap:round; stroke-linejoin:round;">
<path style="fill:#000000; fill-opacity:1.0; 
stroke:#000000; stroke-width:0; stroke-opacity:1; 
stroke-linecap:round; stroke-linejoin:round;fill-rule:evenodd;"
d="M 66654.6,37354.6
66658.4,37355.1
66662.1,37356.1
66665.8,37357.4
66669.3,37359
66672.6,37361
66675.7,37363.3
66678.5,37365.9
66681.1,37368.8
66683.4,37371.9
66685.4,37375.2
66687.1,37378.7
66688.4,37382.3
66689.3,37386.1
66689.9,37389.9
66690.1,37393.8
66690.1,38574.9
66689.9,38578.7
66689.3,38582.5
66688.4,38586.3
66687.1,38589.9
66685.4,38593.4
66683.4,38596.7
66681.1,38599.8
66678.5,38602.7
66675.7,38605.3
66672.6,38607.6
66669.3,38609.6
66665.8,38611.2
66662.1,38612.5
66658.4,38613.5
66654.6,38614
66650.7,38614.2
65469.6,38614.2
65465.7,38614
65461.9,38613.5
65458.2,38612.5
65454.5,38611.2
65451,38609.6
65447.7,38607.6
65444.6,38605.3
65441.8,38602.7
65439.2,38599.8
65436.9,38596.7
65434.9,38593.4
65433.2,38589.9
65431.9,38586.3
65431,38582.5
65430.4,38578.7
65430.2,38574.9
65430.2,37393.8
65430.4,37389.9
65431,37386.1
65431.9,37382.3
65433.2,37378.7
65434.9,37375.2
65436.9,37371.9
65439.2,37368.8
65441.8,37365.9
65444.6,37363.3
65447.7,37361
65451,37359
65454.5,37357.4
65458.2,37356.1
65461.9,37355.1
65465.7,37354.6
65469.6,37354.4
66650.7,37354.4
Z" /> 
</g>
<g >
</g>
<g style="fill:#000000; fill-opacity:1.0; 
stroke:#000000; stroke-width:0; stroke-opacity:1; 
stroke-linecap:round; stroke-linejoin:round;">
<path style="fill:#000000; fill-opacity:1.0; 
stroke:#000000; stroke-width:0; stroke-opacity:1; 
stroke-linecap:round; stroke-linejoin:round;fill-rule:evenodd;"
d="M 66654.6,40110.5
66658.4,40111.1
66662.1,40112
66665.8,40113.3
66669.3,40114.9
66672.6,40116.9
66675.7,40119.2
66678.5,40121.8
66681.1,40124.7
66683.4,40127.8
66685.4,40131.1
66687.1,40134.6
66688.4,40138.2
66689.3,40142
66689.9,40145.8
66690.1,40149.7
66690.1,41330.8
66689.9,41334.6
66689.3,41338.4
66688.4,41342.2
66687.1,41345.8
66685.4,41349.3
66683.4,41352.6
66681.1,41355.7
66678.5,41358.6
66675.7,41361.2
66672.6,41363.5
66669.3,41365.5
66665.8,41367.1
66662.1,41368.4
66658.4,41369.4
66654.6,41369.9
66650.7,41370.1
65469.6,41370.1
65465.7,41369.9
65461.9,41369.4
65458.2,41368.4
65454.5,41367.1
65451,41365.5
65447.7,41363.5
65444.6,41361.2
65441.8,41358.6
65439.2,41355.7
65436.9,41352.6
65434.9,41349.3
65433.2,41345.8
65431.9,41342.2
65431,41338.4
65430.4,41334.6
65430.2,41330.8
65430.2,40149.7
65430.4,40145.8
65431,40142
65431.9,40138.2
65433.2,40134.6
65434.9,40131.1
65436.9,40127.8
65439.2,40124.7
65441.8,40121.8
65444.6,40119.2
65447.7,40116.9
65451,40114.9
65454.5,40113.3
65458.2,40112
65461.9,40111.1
65465.7,40110.5
65469.6,40110.3
66650.7,40110.3
Z" /> 
</g>
<g >
</g>
<g style="fill:#000000; fill-opacity:1.0; 
stroke:#000000; stroke-width:0; stroke-opacity:1; 
stroke-linecap:round; stroke-linejoin:round;">
<path style="fill:#000000; fill-opacity:1.0; 
stroke:#000000; stroke-width:0; stroke-opacity:1; 
stroke-linecap:round; stroke-linejoin:round;fill-rule:evenodd;"
d="M 46575.8,37354.6
46579.6,37355.1
46583.4,37356.1
46587,37357.4
46590.5,37359
46593.8,37361
46596.9,37363.3
46599.8,37365.9
46602.4,37368.8
46604.7,37371.9
46606.7,37375.2
46608.3,37378.7
46609.6,37382.3
46610.6,37386.1
46611.1,37389.9
46611.3,37393.8
46611.3,38574.9
46611.1,38578.7
46610.6,38582.5
46609.6,38586.3
46608.3,38589.9
46606.7,38593.4
46604.7,38596.7
46602.4,38599.8
46599.8,38602.7
46596.9,38605.3
46593.8,38607.6
46590.5,38609.6
46587,38611.2
46583.4,38612.5
46579.6,38613.5
46575.8,38614
46572,38614.2
45390.9,38614.2
45387,38614
45383.2,38613.5
45379.4,38612.5
45375.8,38611.2
45372.3,38609.6
45369,38607.6
45365.9,38605.3
45363,38602.7
45360.4,38599.8
45358.1,38596.7
45356.1,38593.4
45354.5,38589.9
45353.2,38586.3
45352.2,38582.5
45351.7,38578.7
45351.5,38574.9
45351.5,37393.8
45351.7,37389.9
45352.2,37386.1
45353.2,37382.3
45354.5,37378.7
45356.1,37375.2
45358.1,37371.9
45360.4,37368.8
45363,37365.9
45365.9,37363.3
45369,37361
45372.3,37359
45375.8,37357.4
45379.4,37356.1
45383.2,37355.1
45387,37354.6
45390.9,37354.4
46572,37354.4
Z" /> 
</g>
<g >
</g>
<g style="fill:#000000; fill-opacity:1.0; 
stroke:#000000; stroke-width:0; stroke-opacity:1; 
stroke-linecap:round; stroke-linejoin:round;">
<path style="fill:#000000; fill-opacity:1.0; 
stroke:#000000; stroke-width:0; stroke-opacity:1; 
stroke-linecap:round; stroke-linejoin:round;fill-rule:evenodd;"
d="M 46575.8,45622.3
46579.6,45622.9
46583.4,45623.8
46587,45625.1
46590.5,45626.8
46593.8,45628.7
46596.9,45631
46599.8,45633.6
46602.4,45636.5
46604.7,45639.6
46606.7,45642.9
46608.3,45646.4
46609.6,45650
46610.6,45653.8
46611.1,45657.6
46611.3,45661.5
46611.3,46842.6
46611.1,46846.4
46610.6,46850.3
46609.6,46854
46608.3,46857.6
46606.7,46861.1
46604.7,46864.5
46602.4,46867.6
46599.8,46870.4
46596.9,46873
46593.8,46875.3
46590.5,46877.3
46587,46879
46583.4,46880.3
46579.6,46881.2
46575.8,46881.8
46572,46881.9
45390.9,46881.9
45387,46881.8
45383.2,46881.2
45379.4,46880.3
45375.8,46879
45372.3,46877.3
45369,46875.3
45365.9,46873
45363,46870.4
45360.4,46867.6
45358.1,46864.5
45356.1,46861.1
45354.5,46857.6
45353.2,46854
45352.2,46850.3
45351.7,46846.4
45351.5,46842.6
45351.5,45661.5
45351.7,45657.6
45352.2,45653.8
45353.2,45650
45354.5,45646.4
45356.1,45642.9
45358.1,45639.6
45360.4,45636.5
45363,45633.6
45365.9,45631
45369,45628.7
45372.3,45626.8
45375.8,45625.1
45379.4,45623.8
45383.2,45622.9
45387,45622.3
45390.9,45622.1
46572,45622.1
Z" /> 
</g>
<g >
</g>
<g >
</g>
<g >
</g>
<g >
</g>
<g >
</g>
<g >
</g>
<g >
</g>
<g >
</g>
<g >
</g>
<g >
</g>
<g >
</g>
<g >
</g>
</g> 
</svg>
