<?xml version="1.0" standalone="no"?>
 <!DOCTYPE svg PUBLIC "-//W3C//DTD SVG 1.1//EN" 
 "http://www.w3.org/Graphics/SVG/1.1/DTD/svg11.dtd"> 
<svg
  xmlns:svg="http://www.w3.org/2000/svg"
  xmlns="http://www.w3.org/2000/svg"
  xmlns:xlink="http://www.w3.org/1999/xlink"
  version="1.1"
  width="29.700220cm" height="21.000720cm" viewBox="0 0 116930 82680">
<title>SVG Picture created as cargadorDeBateriasLitIon-40-Dwgs_User.svg date 2021/12/18 17:13:58 </title>
  <desc>Picture generated by PCBNEW </desc>
<g style="fill:#000000; fill-opacity:1;stroke:#000000; stroke-opacity:1;
stroke-linecap:round; stroke-linejoin:round;"
 transform="translate(0 0) scale(1 1)">
</g>
<g style="fill:#000000; fill-opacity:0.0; 
stroke:#000000; stroke-width:-0.000787402; stroke-opacity:1; 
stroke-linecap:round; stroke-linejoin:round;">
</g>
<g style="fill:#000000; fill-opacity:0.0; 
stroke:#000000; stroke-width:118.11; stroke-opacity:1; 
stroke-linecap:round; stroke-linejoin:round;">
<g transform="rotate(-270 69011.7 42315)">
<text x="69011.7" y="42708.7"
textLength="7080.05" font-size="1049.87" lengthAdjust="spacingAndGlyphs"
text-anchor="middle" opacity="0">13.000 mm</text>
</g>
<path d="M68655 39502
L68655 39052
" />
<path d="M68655 39277
L69442 39277
L69330 39202
L69255 39127
L69217 39052
" />
<path d="M69442 39765
L69442 40252
L69142 39990
L69142 40102
L69105 40177
L69067 40215
L68992 40252
L68805 40252
L68730 40215
L68692 40177
L68655 40102
L68655 39877
L68692 39802
L68730 39765
" />
<path d="M68730 40590
L68692 40627
L68655 40590
L68692 40552
L68730 40590
L68655 40590
" />
<path d="M69442 41115
L69442 41190
L69405 41265
L69367 41302
L69292 41340
L69142 41377
L68955 41377
L68805 41340
L68730 41302
L68692 41265
L68655 41190
L68655 41115
L68692 41040
L68730 41002
L68805 40965
L68955 40927
L69142 40927
L69292 40965
L69367 41002
L69405 41040
L69442 41115
" />
<path d="M69442 41865
L69442 41940
L69405 42015
L69367 42052
L69292 42090
L69142 42127
L68955 42127
L68805 42090
L68730 42052
L68692 42015
L68655 41940
L68655 41865
L68692 41790
L68730 41752
L68805 41715
L68955 41677
L69142 41677
L69292 41715
L69367 41752
L69405 41790
L69442 41865
" />
<path d="M69442 42614
L69442 42689
L69405 42764
L69367 42802
L69292 42839
L69142 42877
L68955 42877
L68805 42839
L68730 42802
L68692 42764
L68655 42689
L68655 42614
L68692 42539
L68730 42502
L68805 42465
L68955 42427
L69142 42427
L69292 42465
L69367 42502
L69405 42539
L69442 42614
" />
<path d="M68655 43814
L69180 43814
" />
<path d="M69105 43814
L69142 43852
L69180 43927
L69180 44039
L69142 44114
L69067 44152
L68655 44152
" />
<path d="M69067 44152
L69142 44189
L69180 44264
L69180 44377
L69142 44452
L69067 44489
L68655 44489
" />
<path d="M68655 44864
L69180 44864
" />
<path d="M69105 44864
L69142 44902
L69180 44977
L69180 45089
L69142 45164
L69067 45202
L68655 45202
" />
<path d="M69067 45202
L69142 45239
L69180 45314
L69180 45427
L69142 45502
L69067 45539
L68655 45539
" />
<path d="M67988 37196
L67988 47433
" />
<path d="M66806 37196
L68449 37196
" />
<path d="M66806 47433
L68449 47433
" />
<path d="M67988 47433
L67526 46546
" />
<path d="M67988 47433
L68449 46546
" />
<path d="M67988 37196
L67526 38083
" />
<path d="M67988 37196
L68449 38083
" />
</g>
<g style="fill:#000000; fill-opacity:0.0; 
stroke:#000000; stroke-width:39.3701; stroke-opacity:1; 
stroke-linecap:round; stroke-linejoin:round;">
<path d="M66806 37196
L66806 47433
" />
<path d="M45153 37196
L45153 47433
" />
<path d="M45153 37196
L66806 37196
" />
<path d="M66806 47433
L45153 47433
" />
</g>
<g style="fill:#000000; fill-opacity:0.0; 
stroke:#000000; stroke-width:118.11; stroke-opacity:1; 
stroke-linecap:round; stroke-linejoin:round;">
<text x="55980.2" y="34943.7"
textLength="6977.69" font-size="1049.87" lengthAdjust="spacingAndGlyphs"
text-anchor="middle" opacity="0">27.500 mm</text>
<path d="M52718 34193
L52755 34156
L52830 34118
L53018 34118
L53093 34156
L53130 34193
L53168 34268
L53168 34343
L53130 34456
L52680 34906
L53168 34906
" />
<path d="M53430 34118
L53955 34118
L53617 34906
" />
<path d="M54255 34831
L54292 34868
L54255 34906
L54217 34868
L54255 34831
L54255 34906
" />
<path d="M55005 34118
L54630 34118
L54592 34493
L54630 34456
L54705 34418
L54892 34418
L54967 34456
L55005 34493
L55042 34568
L55042 34756
L55005 34831
L54967 34868
L54892 34906
L54705 34906
L54630 34868
L54592 34831
" />
<path d="M55530 34118
L55605 34118
L55680 34156
L55717 34193
L55755 34268
L55792 34418
L55792 34606
L55755 34756
L55717 34831
L55680 34868
L55605 34906
L55530 34906
L55455 34868
L55417 34831
L55380 34756
L55342 34606
L55342 34418
L55380 34268
L55417 34193
L55455 34156
L55530 34118
" />
<path d="M56280 34118
L56355 34118
L56430 34156
L56467 34193
L56505 34268
L56542 34418
L56542 34606
L56505 34756
L56467 34831
L56430 34868
L56355 34906
L56280 34906
L56205 34868
L56167 34831
L56130 34756
L56092 34606
L56092 34418
L56130 34268
L56167 34193
L56205 34156
L56280 34118
" />
<path d="M57479 34906
L57479 34381
" />
<path d="M57479 34456
L57517 34418
L57592 34381
L57704 34381
L57779 34418
L57817 34493
L57817 34906
" />
<path d="M57817 34493
L57854 34418
L57929 34381
L58042 34381
L58117 34418
L58154 34493
L58154 34906
" />
<path d="M58529 34906
L58529 34381
" />
<path d="M58529 34456
L58567 34418
L58642 34381
L58754 34381
L58829 34418
L58867 34493
L58867 34906
" />
<path d="M58867 34493
L58904 34418
L58979 34381
L59092 34381
L59167 34418
L59204 34493
L59204 34906
" />
<path d="M66806 35573
L45153 35573
" />
<path d="M66806 37196
L66806 35111
" />
<path d="M45153 37196
L45153 35111
" />
<path d="M45153 35573
L46040 35111
" />
<path d="M45153 35573
L46040 36035
" />
<path d="M66806 35573
L65919 35111
" />
<path d="M66806 35573
L65919 36035
" />
<g >
</g>
<g >
</g>
<g >
</g>
<g >
</g>
<g >
</g>
<g >
</g>
<g >
</g>
<g >
</g>
<g >
</g>
<g >
</g>
<g >
</g>
<g >
</g>
<g >
</g>
<g >
</g>
<g >
</g>
<g >
</g>
<g >
</g>
<g >
</g>
<g >
</g>
<g >
</g>
<g >
</g>
<g >
</g>
<g >
</g>
<g >
</g>
<g >
</g>
<g >
</g>
</g> 
</svg>
