<?xml version="1.0" standalone="no"?>
 <!DOCTYPE svg PUBLIC "-//W3C//DTD SVG 1.1//EN" 
 "http://www.w3.org/Graphics/SVG/1.1/DTD/svg11.dtd"> 
<svg
  xmlns:svg="http://www.w3.org/2000/svg"
  xmlns="http://www.w3.org/2000/svg"
  xmlns:xlink="http://www.w3.org/1999/xlink"
  version="1.1"
  width="29.700220cm" height="21.000720cm" viewBox="0 0 116930 82680">
<title>SVG Picture created as cargadorDeBateriasLitIon-39-F_Mask.svg date 2021/12/18 17:13:58 </title>
  <desc>Picture generated by PCBNEW </desc>
<g style="fill:#000000; fill-opacity:1;stroke:#000000; stroke-opacity:1;
stroke-linecap:round; stroke-linejoin:round;"
 transform="translate(0 0) scale(1 1)">
</g>
<g style="fill:#000000; fill-opacity:0.0; 
stroke:#000000; stroke-width:-0.000787402; stroke-opacity:1; 
stroke-linecap:round; stroke-linejoin:round;">
</g>
<g style="fill:#000000; fill-opacity:0.0; 
stroke:#000000; stroke-width:39.3701; stroke-opacity:1; 
stroke-linecap:round; stroke-linejoin:round;">
<path d="M66806 37196
L66806 47433
" />
<path d="M45153 37196
L45153 47433
" />
<path d="M45153 37196
L66806 37196
" />
<path d="M66806 47433
L45153 47433
" />
<g >
</g>
<g >
</g>
<g style="fill:#000000; fill-opacity:0.0; 
stroke:#000000; stroke-width:39.3701; stroke-opacity:1; 
stroke-linecap:round; stroke-linejoin:round;">
</g>
<g style="fill:#000000; fill-opacity:0.0; 
stroke:#000000; stroke-width:0; stroke-opacity:1; 
stroke-linecap:round; stroke-linejoin:round;">
</g>
<g style="fill:#000000; fill-opacity:1.0; 
stroke:#000000; stroke-width:0; stroke-opacity:1; 
stroke-linecap:round; stroke-linejoin:round;">
<path style="fill:#000000; fill-opacity:1.0; 
stroke:#000000; stroke-width:0; stroke-opacity:1; 
stroke-linecap:round; stroke-linejoin:round;fill-rule:evenodd;"
d="M 63700.8,44914.4
63719.4,44917.1
63737.7,44921.7
63755.4,44928.1
63772.4,44936.1
63788.6,44945.8
63803.7,44957
63817.7,44969.7
63830.3,44983.6
63841.5,44998.7
63851.2,45014.9
63859.3,45031.9
63865.6,45049.7
63870.2,45067.9
63872.9,45086.6
63873.9,45105.4
63873.9,45489.2
63872.9,45508
63870.2,45526.7
63865.6,45544.9
63859.3,45562.7
63851.2,45579.7
63841.5,45595.9
63830.3,45611
63817.7,45624.9
63803.7,45637.6
63788.6,45648.8
63772.4,45658.5
63755.4,45666.6
63737.7,45672.9
63719.4,45677.5
63700.8,45680.2
63681.9,45681.2
63239,45681.2
63220.2,45680.2
63201.6,45677.5
63183.3,45672.9
63165.6,45666.6
63148.6,45658.5
63132.4,45648.8
63117.3,45637.6
63103.3,45624.9
63090.7,45611
63079.4,45595.9
63069.8,45579.7
63061.7,45562.7
63055.4,45544.9
63050.8,45526.7
63048,45508
63047.1,45489.2
63047.1,45105.4
63048,45086.6
63050.8,45067.9
63055.4,45049.7
63061.7,45031.9
63069.8,45014.9
63079.4,44998.7
63090.7,44983.6
63103.3,44969.7
63117.3,44957
63132.4,44945.8
63148.6,44936.1
63165.6,44928.1
63183.3,44921.7
63201.6,44917.1
63220.2,44914.4
63239,44913.4
63681.9,44913.4
Z" /> 
<path style="fill:#000000; fill-opacity:1.0; 
stroke:#000000; stroke-width:0; stroke-opacity:1; 
stroke-linecap:round; stroke-linejoin:round;fill-rule:evenodd;"
d="M 63700.8,43674.2
63719.4,43677
63737.7,43681.6
63755.4,43687.9
63772.4,43696
63788.6,43705.6
63803.7,43716.9
63817.7,43729.5
63830.3,43743.5
63841.5,43758.6
63851.2,43774.7
63859.3,43791.8
63865.6,43809.5
63870.2,43827.8
63872.9,43846.4
63873.9,43865.2
63873.9,44249.1
63872.9,44267.9
63870.2,44286.5
63865.6,44304.8
63859.3,44322.5
63851.2,44339.6
63841.5,44355.7
63830.3,44370.8
63817.7,44384.8
63803.7,44397.4
63788.6,44408.7
63772.4,44418.3
63755.4,44426.4
63737.7,44432.7
63719.4,44437.3
63700.8,44440.1
63681.9,44441
63239,44441
63220.2,44440.1
63201.6,44437.3
63183.3,44432.7
63165.6,44426.4
63148.6,44418.3
63132.4,44408.7
63117.3,44397.4
63103.3,44384.8
63090.7,44370.8
63079.4,44355.7
63069.8,44339.6
63061.7,44322.5
63055.4,44304.8
63050.8,44286.5
63048,44267.9
63047.1,44249.1
63047.1,43865.2
63048,43846.4
63050.8,43827.8
63055.4,43809.5
63061.7,43791.8
63069.8,43774.7
63079.4,43758.6
63090.7,43743.5
63103.3,43729.5
63117.3,43716.9
63132.4,43705.6
63148.6,43696
63165.6,43687.9
63183.3,43681.6
63201.6,43677
63220.2,43674.2
63239,43673.3
63681.9,43673.3
Z" /> 
</g>
<g >
</g>
<g style="fill:#000000; fill-opacity:1.0; 
stroke:#000000; stroke-width:0; stroke-opacity:1; 
stroke-linecap:round; stroke-linejoin:round;">
<path style="fill:#000000; fill-opacity:1.0; 
stroke:#000000; stroke-width:0; stroke-opacity:1; 
stroke-linecap:round; stroke-linejoin:round;fill-rule:evenodd;"
d="M 52302.9,42630.2
52306.8,42630.7
52310.5,42631.7
52314.1,42633
52317.6,42634.6
52320.9,42636.6
52324,42638.9
52326.9,42641.5
52329.5,42644.4
52331.8,42647.5
52333.8,42650.8
52335.4,42654.3
52336.7,42657.9
52337.7,42661.7
52338.3,42665.5
52338.4,42669.4
52338.4,43456.8
52338.3,43460.6
52337.7,43464.4
52336.7,43468.2
52335.4,43471.8
52333.8,43475.3
52331.8,43478.6
52329.5,43481.7
52326.9,43484.6
52324,43487.2
52320.9,43489.5
52317.6,43491.5
52314.1,43493.1
52310.5,43494.4
52306.8,43495.4
52302.9,43495.9
52299.1,43496.1
51866,43496.1
51862.1,43495.9
51858.3,43495.4
51854.6,43494.4
51850.9,43493.1
51847.4,43491.5
51844.1,43489.5
51841,43487.2
51838.2,43484.6
51835.6,43481.7
51833.3,43478.6
51831.3,43475.3
51829.6,43471.8
51828.3,43468.2
51827.4,43464.4
51826.8,43460.6
51826.6,43456.8
51826.6,42669.4
51826.8,42665.5
51827.4,42661.7
51828.3,42657.9
51829.6,42654.3
51831.3,42650.8
51833.3,42647.5
51835.6,42644.4
51838.2,42641.5
51841,42638.9
51844.1,42636.6
51847.4,42634.6
51850.9,42633
51854.6,42631.7
51858.3,42630.7
51862.1,42630.2
51866,42630
52299.1,42630
Z" /> 
<path style="fill:#000000; fill-opacity:1.0; 
stroke:#000000; stroke-width:0; stroke-opacity:1; 
stroke-linecap:round; stroke-linejoin:round;fill-rule:evenodd;"
d="M 53051,42630.2
53054.8,42630.7
53058.5,42631.7
53062.2,42633
53065.7,42634.6
53069,42636.6
53072.1,42638.9
53074.9,42641.5
53077.5,42644.4
53079.8,42647.5
53081.8,42650.8
53083.5,42654.3
53084.8,42657.9
53085.7,42661.7
53086.3,42665.5
53086.5,42669.4
53086.5,43456.8
53086.3,43460.6
53085.7,43464.4
53084.8,43468.2
53083.5,43471.8
53081.8,43475.3
53079.8,43478.6
53077.5,43481.7
53074.9,43484.6
53072.1,43487.2
53069,43489.5
53065.7,43491.5
53062.2,43493.1
53058.5,43494.4
53054.8,43495.4
53051,43495.9
53047.1,43496.1
52614,43496.1
52610.2,43495.9
52606.4,43495.4
52602.6,43494.4
52599,43493.1
52595.5,43491.5
52592.2,43489.5
52589.1,43487.2
52586.2,43484.6
52583.6,43481.7
52581.3,43478.6
52579.3,43475.3
52577.7,43471.8
52576.4,43468.2
52575.4,43464.4
52574.9,43460.6
52574.7,43456.8
52574.7,42669.4
52574.9,42665.5
52575.4,42661.7
52576.4,42657.9
52577.7,42654.3
52579.3,42650.8
52581.3,42647.5
52583.6,42644.4
52586.2,42641.5
52589.1,42638.9
52592.2,42636.6
52595.5,42634.6
52599,42633
52602.6,42631.7
52606.4,42630.7
52610.2,42630.2
52614,42630
53047.1,42630
Z" /> 
<path style="fill:#000000; fill-opacity:1.0; 
stroke:#000000; stroke-width:0; stroke-opacity:1; 
stroke-linecap:round; stroke-linejoin:round;fill-rule:evenodd;"
d="M 53799,42630.2
53802.8,42630.7
53806.6,42631.7
53810.2,42633
53813.7,42634.6
53817,42636.6
53820.1,42638.9
53823,42641.5
53825.6,42644.4
53827.9,42647.5
53829.9,42650.8
53831.5,42654.3
53832.8,42657.9
53833.7,42661.7
53834.3,42665.5
53834.5,42669.4
53834.5,43456.8
53834.3,43460.6
53833.7,43464.4
53832.8,43468.2
53831.5,43471.8
53829.9,43475.3
53827.9,43478.6
53825.6,43481.7
53823,43484.6
53820.1,43487.2
53817,43489.5
53813.7,43491.5
53810.2,43493.1
53806.6,43494.4
53802.8,43495.4
53799,43495.9
53795.1,43496.1
53362.1,43496.1
53358.2,43495.9
53354.4,43495.4
53350.6,43494.4
53347,43493.1
53343.5,43491.5
53340.2,43489.5
53337.1,43487.2
53334.2,43484.6
53331.6,43481.7
53329.3,43478.6
53327.3,43475.3
53325.7,43471.8
53324.4,43468.2
53323.4,43464.4
53322.9,43460.6
53322.7,43456.8
53322.7,42669.4
53322.9,42665.5
53323.4,42661.7
53324.4,42657.9
53325.7,42654.3
53327.3,42650.8
53329.3,42647.5
53331.6,42644.4
53334.2,42641.5
53337.1,42638.9
53340.2,42636.6
53343.5,42634.6
53347,42633
53350.6,42631.7
53354.4,42630.7
53358.2,42630.2
53362.1,42630
53795.1,42630
Z" /> 
<path style="fill:#000000; fill-opacity:1.0; 
stroke:#000000; stroke-width:0; stroke-opacity:1; 
stroke-linecap:round; stroke-linejoin:round;fill-rule:evenodd;"
d="M 53799,40740.4
53802.8,40741
53806.6,40741.9
53810.2,40743.2
53813.7,40744.9
53817,40746.9
53820.1,40749.2
53823,40751.7
53825.6,40754.6
53827.9,40757.7
53829.9,40761
53831.5,40764.5
53832.8,40768.2
53833.7,40771.9
53834.3,40775.7
53834.5,40779.6
53834.5,41567
53834.3,41570.8
53833.7,41574.7
53832.8,41578.4
53831.5,41582.1
53829.9,41585.5
53827.9,41588.9
53825.6,41592
53823,41594.8
53820.1,41597.4
53817,41599.7
53813.7,41601.7
53810.2,41603.4
53806.6,41604.7
53802.8,41605.6
53799,41606.2
53795.1,41606.4
53362.1,41606.4
53358.2,41606.2
53354.4,41605.6
53350.6,41604.7
53347,41603.4
53343.5,41601.7
53340.2,41599.7
53337.1,41597.4
53334.2,41594.8
53331.6,41592
53329.3,41588.9
53327.3,41585.5
53325.7,41582.1
53324.4,41578.4
53323.4,41574.7
53322.9,41570.8
53322.7,41567
53322.7,40779.6
53322.9,40775.7
53323.4,40771.9
53324.4,40768.2
53325.7,40764.5
53327.3,40761
53329.3,40757.7
53331.6,40754.6
53334.2,40751.7
53337.1,40749.2
53340.2,40746.9
53343.5,40744.9
53347,40743.2
53350.6,40741.9
53354.4,40741
53358.2,40740.4
53362.1,40740.2
53795.1,40740.2
Z" /> 
<path style="fill:#000000; fill-opacity:1.0; 
stroke:#000000; stroke-width:0; stroke-opacity:1; 
stroke-linecap:round; stroke-linejoin:round;fill-rule:evenodd;"
d="M 53051,40740.4
53054.8,40741
53058.5,40741.9
53062.2,40743.2
53065.7,40744.9
53069,40746.9
53072.1,40749.2
53074.9,40751.7
53077.5,40754.6
53079.8,40757.7
53081.8,40761
53083.5,40764.5
53084.8,40768.2
53085.7,40771.9
53086.3,40775.7
53086.5,40779.6
53086.5,41567
53086.3,41570.8
53085.7,41574.7
53084.8,41578.4
53083.5,41582.1
53081.8,41585.5
53079.8,41588.9
53077.5,41592
53074.9,41594.8
53072.1,41597.4
53069,41599.7
53065.7,41601.7
53062.2,41603.4
53058.5,41604.7
53054.8,41605.6
53051,41606.2
53047.1,41606.4
52614,41606.4
52610.2,41606.2
52606.4,41605.6
52602.6,41604.7
52599,41603.4
52595.5,41601.7
52592.2,41599.7
52589.1,41597.4
52586.2,41594.8
52583.6,41592
52581.3,41588.9
52579.3,41585.5
52577.7,41582.1
52576.4,41578.4
52575.4,41574.7
52574.9,41570.8
52574.7,41567
52574.7,40779.6
52574.9,40775.7
52575.4,40771.9
52576.4,40768.2
52577.7,40764.5
52579.3,40761
52581.3,40757.7
52583.6,40754.6
52586.2,40751.7
52589.1,40749.2
52592.2,40746.9
52595.5,40744.9
52599,40743.2
52602.6,40741.9
52606.4,40741
52610.2,40740.4
52614,40740.2
53047.1,40740.2
Z" /> 
<path style="fill:#000000; fill-opacity:1.0; 
stroke:#000000; stroke-width:0; stroke-opacity:1; 
stroke-linecap:round; stroke-linejoin:round;fill-rule:evenodd;"
d="M 52302.9,40740.4
52306.8,40741
52310.5,40741.9
52314.1,40743.2
52317.6,40744.9
52320.9,40746.9
52324,40749.2
52326.9,40751.7
52329.5,40754.6
52331.8,40757.7
52333.8,40761
52335.4,40764.5
52336.7,40768.2
52337.7,40771.9
52338.3,40775.7
52338.4,40779.6
52338.4,41567
52338.3,41570.8
52337.7,41574.7
52336.7,41578.4
52335.4,41582.1
52333.8,41585.5
52331.8,41588.9
52329.5,41592
52326.9,41594.8
52324,41597.4
52320.9,41599.7
52317.6,41601.7
52314.1,41603.4
52310.5,41604.7
52306.8,41605.6
52302.9,41606.2
52299.1,41606.4
51866,41606.4
51862.1,41606.2
51858.3,41605.6
51854.6,41604.7
51850.9,41603.4
51847.4,41601.7
51844.1,41599.7
51841,41597.4
51838.2,41594.8
51835.6,41592
51833.3,41588.9
51831.3,41585.5
51829.6,41582.1
51828.3,41578.4
51827.4,41574.7
51826.8,41570.8
51826.6,41567
51826.6,40779.6
51826.8,40775.7
51827.4,40771.9
51828.3,40768.2
51829.6,40764.5
51831.3,40761
51833.3,40757.7
51835.6,40754.6
51838.2,40751.7
51841,40749.2
51844.1,40746.9
51847.4,40744.9
51850.9,40743.2
51854.6,40741.9
51858.3,40741
51862.1,40740.4
51866,40740.2
52299.1,40740.2
Z" /> 
</g>
<g >
</g>
<g style="fill:#000000; fill-opacity:1.0; 
stroke:#000000; stroke-width:0; stroke-opacity:1; 
stroke-linecap:round; stroke-linejoin:round;">
<path style="fill:#000000; fill-opacity:1.0; 
stroke:#000000; stroke-width:0; stroke-opacity:1; 
stroke-linecap:round; stroke-linejoin:round;fill-rule:evenodd;"
d="M 57503.7,45130.2
57507.5,45130.7
57511.3,45131.7
57514.9,45133
57518.4,45134.6
57521.7,45136.6
57524.8,45138.9
57527.7,45141.5
57530.3,45144.4
57532.6,45147.5
57534.6,45150.8
57536.2,45154.3
57537.5,45157.9
57538.5,45161.7
57539,45165.5
57539.2,45169.4
57539.2,45681.2
57539,45685
57538.5,45688.8
57537.5,45692.6
57536.2,45696.2
57534.6,45699.7
57532.6,45703
57530.3,45706.1
57527.7,45709
57524.8,45711.6
57521.7,45713.9
57518.4,45715.9
57514.9,45717.5
57511.3,45718.8
57507.5,45719.8
57503.7,45720.3
57499.9,45720.5
56665.2,45720.5
56661.4,45720.3
56657.5,45719.8
56653.8,45718.8
56650.1,45717.5
56646.7,45715.9
56643.3,45713.9
56640.2,45711.6
56637.4,45709
56634.8,45706.1
56632.5,45703
56630.5,45699.7
56628.8,45696.2
56627.5,45692.6
56626.6,45688.8
56626,45685
56625.8,45681.2
56625.8,45169.4
56626,45165.5
56626.6,45161.7
56627.5,45157.9
56628.8,45154.3
56630.5,45150.8
56632.5,45147.5
56634.8,45144.4
56637.4,45141.5
56640.2,45138.9
56643.3,45136.6
56646.7,45134.6
56650.1,45133
56653.8,45131.7
56657.5,45130.7
56661.4,45130.2
56665.2,45130
57499.9,45130
Z" /> 
<path style="fill:#000000; fill-opacity:1.0; 
stroke:#000000; stroke-width:0; stroke-opacity:1; 
stroke-linecap:round; stroke-linejoin:round;fill-rule:evenodd;"
d="M 57503.7,43634.1
57507.5,43634.7
57511.3,43635.6
57514.9,43636.9
57518.4,43638.6
57521.7,43640.6
57524.8,43642.9
57527.7,43645.4
57530.3,43648.3
57532.6,43651.4
57534.6,43654.7
57536.2,43658.2
57537.5,43661.9
57538.5,43665.6
57539,43669.4
57539.2,43673.3
57539.2,44185.1
57539,44189
57538.5,44192.8
57537.5,44196.5
57536.2,44200.2
57534.6,44203.7
57532.6,44207
57530.3,44210.1
57527.7,44212.9
57524.8,44215.5
57521.7,44217.8
57518.4,44219.8
57514.9,44221.5
57511.3,44222.8
57507.5,44223.7
57503.7,44224.3
57499.9,44224.5
56665.2,44224.5
56661.4,44224.3
56657.5,44223.7
56653.8,44222.8
56650.1,44221.5
56646.7,44219.8
56643.3,44217.8
56640.2,44215.5
56637.4,44212.9
56634.8,44210.1
56632.5,44207
56630.5,44203.7
56628.8,44200.2
56627.5,44196.5
56626.6,44192.8
56626,44189
56625.8,44185.1
56625.8,43673.3
56626,43669.4
56626.6,43665.6
56627.5,43661.9
56628.8,43658.2
56630.5,43654.7
56632.5,43651.4
56634.8,43648.3
56637.4,43645.4
56640.2,43642.9
56643.3,43640.6
56646.7,43638.6
56650.1,43636.9
56653.8,43635.6
56657.5,43634.7
56661.4,43634.1
56665.2,43633.9
57499.9,43633.9
Z" /> 
<path style="fill:#000000; fill-opacity:1.0; 
stroke:#000000; stroke-width:0; stroke-opacity:1; 
stroke-linecap:round; stroke-linejoin:round;fill-rule:evenodd;"
d="M 59236,43634.1
59239.8,43634.7
59243.6,43635.6
59247.2,43636.9
59250.7,43638.6
59254,43640.6
59257.1,43642.9
59260,43645.4
59262.6,43648.3
59264.9,43651.4
59266.9,43654.7
59268.5,43658.2
59269.8,43661.9
59270.8,43665.6
59271.3,43669.4
59271.5,43673.3
59271.5,44185.1
59271.3,44189
59270.8,44192.8
59269.8,44196.5
59268.5,44200.2
59266.9,44203.7
59264.9,44207
59262.6,44210.1
59260,44212.9
59257.1,44215.5
59254,44217.8
59250.7,44219.8
59247.2,44221.5
59243.6,44222.8
59239.8,44223.7
59236,44224.3
59232.1,44224.5
58397.5,44224.5
58393.6,44224.3
58389.8,44223.7
58386.1,44222.8
58382.4,44221.5
58378.9,44219.8
58375.6,44217.8
58372.5,44215.5
58369.7,44212.9
58367.1,44210.1
58364.8,44207
58362.8,44203.7
58361.1,44200.2
58359.8,44196.5
58358.9,44192.8
58358.3,44189
58358.1,44185.1
58358.1,43673.3
58358.3,43669.4
58358.9,43665.6
58359.8,43661.9
58361.1,43658.2
58362.8,43654.7
58364.8,43651.4
58367.1,43648.3
58369.7,43645.4
58372.5,43642.9
58375.6,43640.6
58378.9,43638.6
58382.4,43636.9
58386.1,43635.6
58389.8,43634.7
58393.6,43634.1
58397.5,43633.9
59232.1,43633.9
Z" /> 
<path style="fill:#000000; fill-opacity:1.0; 
stroke:#000000; stroke-width:0; stroke-opacity:1; 
stroke-linecap:round; stroke-linejoin:round;fill-rule:evenodd;"
d="M 59236,44382.1
59239.8,44382.7
59243.6,44383.6
59247.2,44384.9
59250.7,44386.6
59254,44388.6
59257.1,44390.9
59260,44393.5
59262.6,44396.3
59264.9,44399.4
59266.9,44402.8
59268.5,44406.3
59269.8,44409.9
59270.8,44413.6
59271.3,44417.5
59271.5,44421.3
59271.5,44933.1
59271.3,44937
59270.8,44940.8
59269.8,44944.6
59268.5,44948.2
59266.9,44951.7
59264.9,44955
59262.6,44958.1
59260,44961
59257.1,44963.6
59254,44965.9
59250.7,44967.9
59247.2,44969.5
59243.6,44970.8
59239.8,44971.7
59236,44972.3
59232.1,44972.5
58397.5,44972.5
58393.6,44972.3
58389.8,44971.7
58386.1,44970.8
58382.4,44969.5
58378.9,44967.9
58375.6,44965.9
58372.5,44963.6
58369.7,44961
58367.1,44958.1
58364.8,44955
58362.8,44951.7
58361.1,44948.2
58359.8,44944.6
58358.9,44940.8
58358.3,44937
58358.1,44933.1
58358.1,44421.3
58358.3,44417.5
58358.9,44413.6
58359.8,44409.9
58361.1,44406.3
58362.8,44402.8
58364.8,44399.4
58367.1,44396.3
58369.7,44393.5
58372.5,44390.9
58375.6,44388.6
58378.9,44386.6
58382.4,44384.9
58386.1,44383.6
58389.8,44382.7
58393.6,44382.1
58397.5,44381.9
59232.1,44381.9
Z" /> 
<path style="fill:#000000; fill-opacity:1.0; 
stroke:#000000; stroke-width:0; stroke-opacity:1; 
stroke-linecap:round; stroke-linejoin:round;fill-rule:evenodd;"
d="M 59236,45130.2
59239.8,45130.7
59243.6,45131.7
59247.2,45133
59250.7,45134.6
59254,45136.6
59257.1,45138.9
59260,45141.5
59262.6,45144.4
59264.9,45147.5
59266.9,45150.8
59268.5,45154.3
59269.8,45157.9
59270.8,45161.7
59271.3,45165.5
59271.5,45169.4
59271.5,45681.2
59271.3,45685
59270.8,45688.8
59269.8,45692.6
59268.5,45696.2
59266.9,45699.7
59264.9,45703
59262.6,45706.1
59260,45709
59257.1,45711.6
59254,45713.9
59250.7,45715.9
59247.2,45717.5
59243.6,45718.8
59239.8,45719.8
59236,45720.3
59232.1,45720.5
58397.5,45720.5
58393.6,45720.3
58389.8,45719.8
58386.1,45718.8
58382.4,45717.5
58378.9,45715.9
58375.6,45713.9
58372.5,45711.6
58369.7,45709
58367.1,45706.1
58364.8,45703
58362.8,45699.7
58361.1,45696.2
58359.8,45692.6
58358.9,45688.8
58358.3,45685
58358.1,45681.2
58358.1,45169.4
58358.3,45165.5
58358.9,45161.7
58359.8,45157.9
58361.1,45154.3
58362.8,45150.8
58364.8,45147.5
58367.1,45144.4
58369.7,45141.5
58372.5,45138.9
58375.6,45136.6
58378.9,45134.6
58382.4,45133
58386.1,45131.7
58389.8,45130.7
58393.6,45130.2
58397.5,45130
59232.1,45130
Z" /> 
</g>
<g >
</g>
<g style="fill:#000000; fill-opacity:1.0; 
stroke:#000000; stroke-width:0; stroke-opacity:1; 
stroke-linecap:round; stroke-linejoin:round;">
<path style="fill:#000000; fill-opacity:1.0; 
stroke:#000000; stroke-width:0; stroke-opacity:1; 
stroke-linecap:round; stroke-linejoin:round;fill-rule:evenodd;"
d="M 62126,44855.3
62144.6,44858.1
62162.9,44862.7
62180.6,44869
62197.6,44877.1
62213.8,44886.7
62228.9,44898
62242.9,44910.6
62255.5,44924.6
62266.7,44939.7
62276.4,44955.8
62284.5,44972.9
62290.8,44990.6
62295.4,45008.9
62298.1,45027.5
62299.1,45046.3
62299.1,45489.2
62298.1,45508
62295.4,45526.7
62290.8,45544.9
62284.5,45562.7
62276.4,45579.7
62266.7,45595.9
62255.5,45611
62242.9,45624.9
62228.9,45637.6
62213.8,45648.8
62197.6,45658.5
62180.6,45666.6
62162.9,45672.9
62144.6,45677.5
62126,45680.2
62107.1,45681.2
61723.3,45681.2
61704.5,45680.2
61685.8,45677.5
61667.6,45672.9
61649.8,45666.6
61632.8,45658.5
61616.7,45648.8
61601.5,45637.6
61587.6,45624.9
61574.9,45611
61563.7,45595.9
61554,45579.7
61546,45562.7
61539.6,45544.9
61535,45526.7
61532.3,45508
61531.4,45489.2
61531.4,45046.3
61532.3,45027.5
61535,45008.9
61539.6,44990.6
61546,44972.9
61554,44955.8
61563.7,44939.7
61574.9,44924.6
61587.6,44910.6
61601.5,44898
61616.7,44886.7
61632.8,44877.1
61649.8,44869
61667.6,44862.7
61685.8,44858.1
61704.5,44855.3
61723.3,44854.4
62107.1,44854.4
Z" /> 
<path style="fill:#000000; fill-opacity:1.0; 
stroke:#000000; stroke-width:0; stroke-opacity:1; 
stroke-linecap:round; stroke-linejoin:round;fill-rule:evenodd;"
d="M 60885.8,44855.3
60904.4,44858.1
60922.7,44862.7
60940.4,44869
60957.5,44877.1
60973.6,44886.7
60988.7,44898
61002.7,44910.6
61015.3,44924.6
61026.6,44939.7
61036.3,44955.8
61044.3,44972.9
61050.6,44990.6
61055.2,45008.9
61058,45027.5
61058.9,45046.3
61058.9,45489.2
61058,45508
61055.2,45526.7
61050.6,45544.9
61044.3,45562.7
61036.3,45579.7
61026.6,45595.9
61015.3,45611
61002.7,45624.9
60988.7,45637.6
60973.6,45648.8
60957.5,45658.5
60940.4,45666.6
60922.7,45672.9
60904.4,45677.5
60885.8,45680.2
60867,45681.2
60483.1,45681.2
60464.3,45680.2
60445.7,45677.5
60427.4,45672.9
60409.7,45666.6
60392.7,45658.5
60376.5,45648.8
60361.4,45637.6
60347.4,45624.9
60334.8,45611
60323.5,45595.9
60313.9,45579.7
60305.8,45562.7
60299.5,45544.9
60294.9,45526.7
60292.1,45508
60291.2,45489.2
60291.2,45046.3
60292.1,45027.5
60294.9,45008.9
60299.5,44990.6
60305.8,44972.9
60313.9,44955.8
60323.5,44939.7
60334.8,44924.6
60347.4,44910.6
60361.4,44898
60376.5,44886.7
60392.7,44877.1
60409.7,44869
60427.4,44862.7
60445.7,44858.1
60464.3,44855.3
60483.1,44854.4
60867,44854.4
Z" /> 
</g>
<g >
</g>
<g style="fill:#000000; fill-opacity:1.0; 
stroke:#000000; stroke-width:0; stroke-opacity:1; 
stroke-linecap:round; stroke-linejoin:round;">
<path style="fill:#000000; fill-opacity:1.0; 
stroke:#000000; stroke-width:0; stroke-opacity:1; 
stroke-linecap:round; stroke-linejoin:round;fill-rule:evenodd;"
d="M 60885.8,43477.4
60904.4,43480.1
60922.7,43484.7
60940.4,43491
60957.5,43499.1
60973.6,43508.8
60988.7,43520
61002.7,43532.7
61015.3,43546.6
61026.6,43561.7
61036.3,43577.9
61044.3,43594.9
61050.6,43612.7
61055.2,43630.9
61058,43649.6
61058.9,43668.4
61058.9,44111.3
61058,44130.1
61055.2,44148.7
61050.6,44167
61044.3,44184.7
61036.3,44201.8
61026.6,44217.9
61015.3,44233
61002.7,44247
60988.7,44259.6
60973.6,44270.9
60957.5,44280.5
60940.4,44288.6
60922.7,44294.9
60904.4,44299.5
60885.8,44302.3
60867,44303.2
60483.1,44303.2
60464.3,44302.3
60445.7,44299.5
60427.4,44294.9
60409.7,44288.6
60392.7,44280.5
60376.5,44270.9
60361.4,44259.6
60347.4,44247
60334.8,44233
60323.5,44217.9
60313.9,44201.8
60305.8,44184.7
60299.5,44167
60294.9,44148.7
60292.1,44130.1
60291.2,44111.3
60291.2,43668.4
60292.1,43649.6
60294.9,43630.9
60299.5,43612.7
60305.8,43594.9
60313.9,43577.9
60323.5,43561.7
60334.8,43546.6
60347.4,43532.7
60361.4,43520
60376.5,43508.8
60392.7,43499.1
60409.7,43491
60427.4,43484.7
60445.7,43480.1
60464.3,43477.4
60483.1,43476.4
60867,43476.4
Z" /> 
<path style="fill:#000000; fill-opacity:1.0; 
stroke:#000000; stroke-width:0; stroke-opacity:1; 
stroke-linecap:round; stroke-linejoin:round;fill-rule:evenodd;"
d="M 62126,43477.4
62144.6,43480.1
62162.9,43484.7
62180.6,43491
62197.6,43499.1
62213.8,43508.8
62228.9,43520
62242.9,43532.7
62255.5,43546.6
62266.7,43561.7
62276.4,43577.9
62284.5,43594.9
62290.8,43612.7
62295.4,43630.9
62298.1,43649.6
62299.1,43668.4
62299.1,44111.3
62298.1,44130.1
62295.4,44148.7
62290.8,44167
62284.5,44184.7
62276.4,44201.8
62266.7,44217.9
62255.5,44233
62242.9,44247
62228.9,44259.6
62213.8,44270.9
62197.6,44280.5
62180.6,44288.6
62162.9,44294.9
62144.6,44299.5
62126,44302.3
62107.1,44303.2
61723.3,44303.2
61704.5,44302.3
61685.8,44299.5
61667.6,44294.9
61649.8,44288.6
61632.8,44280.5
61616.7,44270.9
61601.5,44259.6
61587.6,44247
61574.9,44233
61563.7,44217.9
61554,44201.8
61546,44184.7
61539.6,44167
61535,44148.7
61532.3,44130.1
61531.4,44111.3
61531.4,43668.4
61532.3,43649.6
61535,43630.9
61539.6,43612.7
61546,43594.9
61554,43577.9
61563.7,43561.7
61574.9,43546.6
61587.6,43532.7
61601.5,43520
61616.7,43508.8
61632.8,43499.1
61649.8,43491
61667.6,43484.7
61685.8,43480.1
61704.5,43477.4
61723.3,43476.4
62107.1,43476.4
Z" /> 
</g>
<g >
</g>
<g style="fill:#000000; fill-opacity:1.0; 
stroke:#000000; stroke-width:0; stroke-opacity:1; 
stroke-linecap:round; stroke-linejoin:round;">
<path style="fill:#000000; fill-opacity:1.0; 
stroke:#000000; stroke-width:0; stroke-opacity:1; 
stroke-linecap:round; stroke-linejoin:round;fill-rule:evenodd;"
d="M 61338.4,38535.7
61342.2,38536.2
61345.9,38537.2
61349.6,38538.5
61353.1,38540.1
61356.4,38542.1
61359.5,38544.4
61362.3,38547
61364.9,38549.9
61367.2,38553
61369.2,38556.3
61370.9,38559.8
61372.2,38563.4
61373.1,38567.2
61373.7,38571
61373.9,38574.9
61373.9,42118.2
61373.7,42122
61373.1,42125.9
61372.2,42129.6
61370.9,42133.2
61369.2,42136.7
61367.2,42140
61364.9,42143.1
61362.3,42146
61359.5,42148.6
61356.4,42150.9
61353.1,42152.9
61349.6,42154.5
61345.9,42155.8
61342.2,42156.8
61338.4,42157.4
61334.5,42157.5
59917.2,42157.5
59913.3,42157.4
59909.5,42156.8
59905.8,42155.8
59902.1,42154.5
59898.6,42152.9
59895.3,42150.9
59892.2,42148.6
59889.3,42146
59886.7,42143.1
59884.4,42140
59882.5,42136.7
59880.8,42133.2
59879.5,42129.6
59878.6,42125.9
59878,42122
59877.8,42118.2
59877.8,38574.9
59878,38571
59878.6,38567.2
59879.5,38563.4
59880.8,38559.8
59882.5,38556.3
59884.4,38553
59886.7,38549.9
59889.3,38547
59892.2,38544.4
59895.3,38542.1
59898.6,38540.1
59902.1,38538.5
59905.8,38537.2
59909.5,38536.2
59913.3,38535.7
59917.2,38535.5
61334.5,38535.5
Z" /> 
<path style="fill:#000000; fill-opacity:1.0; 
stroke:#000000; stroke-width:0; stroke-opacity:1; 
stroke-linecap:round; stroke-linejoin:round;fill-rule:evenodd;"
d="M 58739.9,38535.7
58743.8,38536.2
58747.5,38537.2
58751.1,38538.5
58754.6,38540.1
58758,38542.1
58761.1,38544.4
58763.9,38547
58766.5,38549.9
58768.8,38553
58770.8,38556.3
58772.5,38559.8
58773.8,38563.4
58774.7,38567.2
58775.3,38571
58775.4,38574.9
58775.4,42118.2
58775.3,42122
58774.7,42125.9
58773.8,42129.6
58772.5,42133.2
58770.8,42136.7
58768.8,42140
58766.5,42143.1
58763.9,42146
58761.1,42148.6
58758,42150.9
58754.6,42152.9
58751.1,42154.5
58747.5,42155.8
58743.8,42156.8
58739.9,42157.4
58736.1,42157.5
57318.8,42157.5
57314.9,42157.4
57311.1,42156.8
57307.3,42155.8
57303.7,42154.5
57300.2,42152.9
57296.9,42150.9
57293.8,42148.6
57290.9,42146
57288.3,42143.1
57286,42140
57284,42136.7
57282.4,42133.2
57281.1,42129.6
57280.1,42125.9
57279.6,42122
57279.4,42118.2
57279.4,38574.9
57279.6,38571
57280.1,38567.2
57281.1,38563.4
57282.4,38559.8
57284,38556.3
57286,38553
57288.3,38549.9
57290.9,38547
57293.8,38544.4
57296.9,38542.1
57300.2,38540.1
57303.7,38538.5
57307.3,38537.2
57311.1,38536.2
57314.9,38535.7
57318.8,38535.5
58736.1,38535.5
Z" /> 
</g>
<g >
</g>
<g style="fill:#000000; fill-opacity:1.0; 
stroke:#000000; stroke-width:0; stroke-opacity:1; 
stroke-linecap:round; stroke-linejoin:round;">
<path style="fill:#000000; fill-opacity:1.0; 
stroke:#000000; stroke-width:0; stroke-opacity:1; 
stroke-linecap:round; stroke-linejoin:round;fill-rule:evenodd;"
d="M 63306.9,39756.2
63310.7,39756.7
63314.4,39757.7
63318.1,39759
63321.6,39760.6
63324.9,39762.6
63328,39764.9
63330.8,39767.5
63333.4,39770.4
63335.7,39773.5
63337.7,39776.8
63339.4,39780.3
63340.7,39783.9
63341.6,39787.7
63342.2,39791.5
63342.4,39795.3
63342.4,40661.5
63342.2,40665.3
63341.6,40669.2
63340.7,40672.9
63339.4,40676.5
63337.7,40680
63335.7,40683.4
63333.4,40686.5
63330.8,40689.3
63328,40691.9
63324.9,40694.2
63321.6,40696.2
63318.1,40697.9
63314.4,40699.2
63310.7,40700.1
63306.9,40700.7
63303,40700.8
62436.9,40700.8
62433,40700.7
62429.2,40700.1
62425.4,40699.2
62421.8,40697.9
62418.3,40696.2
62415,40694.2
62411.9,40691.9
62409,40689.3
62406.4,40686.5
62404.1,40683.4
62402.1,40680
62400.5,40676.5
62399.2,40672.9
62398.3,40669.2
62397.7,40665.3
62397.5,40661.5
62397.5,39795.3
62397.7,39791.5
62398.3,39787.7
62399.2,39783.9
62400.5,39780.3
62402.1,39776.8
62404.1,39773.5
62406.4,39770.4
62409,39767.5
62411.9,39764.9
62415,39762.6
62418.3,39760.6
62421.8,39759
62425.4,39757.7
62429.2,39756.7
62433,39756.2
62436.9,39756
63303,39756
Z" /> 
<path style="fill:#000000; fill-opacity:1.0; 
stroke:#000000; stroke-width:0; stroke-opacity:1; 
stroke-linecap:round; stroke-linejoin:round;fill-rule:evenodd;"
d="M 63306.9,41960.9
63310.7,41961.4
63314.4,41962.4
63318.1,41963.7
63321.6,41965.3
63324.9,41967.3
63328,41969.6
63330.8,41972.2
63333.4,41975.1
63335.7,41978.2
63337.7,41981.5
63339.4,41985
63340.7,41988.6
63341.6,41992.4
63342.2,41996.2
63342.4,42000.1
63342.4,42866.2
63342.2,42870.1
63341.6,42873.9
63340.7,42877.6
63339.4,42881.3
63337.7,42884.8
63335.7,42888.1
63333.4,42891.2
63330.8,42894
63328,42896.6
63324.9,42898.9
63321.6,42900.9
63318.1,42902.6
63314.4,42903.9
63310.7,42904.8
63306.9,42905.4
63303,42905.6
62436.9,42905.6
62433,42905.4
62429.2,42904.8
62425.4,42903.9
62421.8,42902.6
62418.3,42900.9
62415,42898.9
62411.9,42896.6
62409,42894
62406.4,42891.2
62404.1,42888.1
62402.1,42884.8
62400.5,42881.3
62399.2,42877.6
62398.3,42873.9
62397.7,42870.1
62397.5,42866.2
62397.5,42000.1
62397.7,41996.2
62398.3,41992.4
62399.2,41988.6
62400.5,41985
62402.1,41981.5
62404.1,41978.2
62406.4,41975.1
62409,41972.2
62411.9,41969.6
62415,41967.3
62418.3,41965.3
62421.8,41963.7
62425.4,41962.4
62429.2,41961.4
62433,41960.9
62436.9,41960.7
63303,41960.7
Z" /> 
</g>
<g >
</g>
<g style="fill:#000000; fill-opacity:1.0; 
stroke:#000000; stroke-width:0; stroke-opacity:1; 
stroke-linecap:round; stroke-linejoin:round;">
<path style="fill:#000000; fill-opacity:1.0; 
stroke:#000000; stroke-width:0; stroke-opacity:1; 
stroke-linecap:round; stroke-linejoin:round;fill-rule:evenodd;"
d="M 55966.5,43044.4
55987,43047.4
56007.2,43052.5
56026.7,43059.5
56045.5,43068.4
56063.3,43079
56080,43091.4
56095.4,43105.3
56109.3,43120.7
56121.7,43137.4
56132.4,43155.2
56141.2,43174
56148.2,43193.6
56153.3,43213.7
56156.3,43234.2
56157.3,43255
56157.3,43678.2
56156.3,43699
56153.3,43719.5
56148.2,43739.6
56141.2,43759.2
56132.4,43778
56121.7,43795.8
56109.3,43812.5
56095.4,43827.8
56080,43841.8
56063.3,43854.2
56045.5,43864.8
56026.7,43873.7
56007.2,43880.7
55987,43885.8
55966.5,43888.8
55945.7,43889.8
55187.9,43889.8
55167.1,43888.8
55146.6,43885.8
55126.4,43880.7
55106.9,43873.7
55088.1,43864.8
55070.3,43854.2
55053.6,43841.8
55038.2,43827.8
55024.3,43812.5
55011.9,43795.8
55001.2,43778
54992.3,43759.2
54985.3,43739.6
54980.3,43719.5
54977.3,43699
54976.2,43678.2
54976.2,43255
54977.3,43234.2
54980.3,43213.7
54985.3,43193.6
54992.3,43174
55001.2,43155.2
55011.9,43137.4
55024.3,43120.7
55038.2,43105.3
55053.6,43091.4
55070.3,43079
55088.1,43068.4
55106.9,43059.5
55126.4,43052.5
55146.6,43047.4
55167.1,43044.4
55187.9,43043.4
55945.7,43043.4
Z" /> 
<path style="fill:#000000; fill-opacity:1.0; 
stroke:#000000; stroke-width:0; stroke-opacity:1; 
stroke-linecap:round; stroke-linejoin:round;fill-rule:evenodd;"
d="M 55966.5,44520.8
55987,44523.8
56007.2,44528.9
56026.7,44535.9
56045.5,44544.7
56063.3,44555.4
56080,44567.8
56095.4,44581.7
56109.3,44597.1
56121.7,44613.8
56132.4,44631.6
56141.2,44650.4
56148.2,44669.9
56153.3,44690.1
56156.3,44710.6
56157.3,44731.4
56157.3,45154.6
56156.3,45175.3
56153.3,45195.9
56148.2,45216
56141.2,45235.6
56132.4,45254.3
56121.7,45272.2
56109.3,45288.8
56095.4,45304.2
56080,45318.2
56063.3,45330.5
56045.5,45341.2
56026.7,45350.1
56007.2,45357.1
55987,45362.1
55966.5,45365.2
55945.7,45366.2
55187.9,45366.2
55167.1,45365.2
55146.6,45362.1
55126.4,45357.1
55106.9,45350.1
55088.1,45341.2
55070.3,45330.5
55053.6,45318.2
55038.2,45304.2
55024.3,45288.8
55011.9,45272.2
55001.2,45254.3
54992.3,45235.6
54985.3,45216
54980.3,45195.9
54977.3,45175.3
54976.2,45154.6
54976.2,44731.4
54977.3,44710.6
54980.3,44690.1
54985.3,44669.9
54992.3,44650.4
55001.2,44631.6
55011.9,44613.8
55024.3,44597.1
55038.2,44581.7
55053.6,44567.8
55070.3,44555.4
55088.1,44544.7
55106.9,44535.9
55126.4,44528.9
55146.6,44523.8
55167.1,44520.8
55187.9,44519.7
55945.7,44519.7
Z" /> 
</g>
<g >
</g>
<g style="fill:#000000; fill-opacity:1.0; 
stroke:#000000; stroke-width:0; stroke-opacity:1; 
stroke-linecap:round; stroke-linejoin:round;">
<path style="fill:#000000; fill-opacity:1.0; 
stroke:#000000; stroke-width:0; stroke-opacity:1; 
stroke-linecap:round; stroke-linejoin:round;fill-rule:evenodd;"
d="M 66614,46016
66617.8,46016.6
66621.5,46017.5
66625.2,46018.8
66628.7,46020.5
66632,46022.4
66635.1,46024.7
66637.9,46027.3
66640.5,46030.2
66642.8,46033.3
66644.8,46036.6
66646.5,46040.1
66647.8,46043.7
66648.7,46047.5
66649.3,46051.3
66649.5,46055.2
66649.5,47236.3
66649.3,47240.1
66648.7,47244
66647.8,47247.7
66646.5,47251.3
66644.8,47254.8
66642.8,47258.2
66640.5,47261.3
66637.9,47264.1
66635.1,47266.7
66632,47269
66628.7,47271
66625.2,47272.7
66621.5,47274
66617.8,47274.9
66614,47275.5
66610.1,47275.7
65429,47275.7
65425.1,47275.5
65421.3,47274.9
65417.6,47274
65413.9,47272.7
65410.4,47271
65407.1,47269
65404,47266.7
65401.2,47264.1
65398.6,47261.3
65396.3,47258.2
65394.3,47254.8
65392.6,47251.3
65391.3,47247.7
65390.4,47244
65389.8,47240.1
65389.6,47236.3
65389.6,46055.2
65389.8,46051.3
65390.4,46047.5
65391.3,46043.7
65392.6,46040.1
65394.3,46036.6
65396.3,46033.3
65398.6,46030.2
65401.2,46027.3
65404,46024.7
65407.1,46022.4
65410.4,46020.5
65413.9,46018.8
65417.6,46017.5
65421.3,46016.6
65425.1,46016
65429,46015.8
66610.1,46015.8
Z" /> 
</g>
<g >
</g>
<g style="fill:#000000; fill-opacity:1.0; 
stroke:#000000; stroke-width:0; stroke-opacity:1; 
stroke-linecap:round; stroke-linejoin:round;">
<path style="fill:#000000; fill-opacity:1.0; 
stroke:#000000; stroke-width:0; stroke-opacity:1; 
stroke-linecap:round; stroke-linejoin:round;fill-rule:evenodd;"
d="M 54228.1,44827
54231.9,44827.6
54235.7,44828.5
54239.3,44829.8
54242.8,44831.5
54246.1,44833.5
54249.2,44835.8
54252.1,44838.4
54254.7,44841.2
54257,44844.3
54259,44847.6
54260.6,44851.1
54261.9,44854.8
54262.9,44858.5
54263.4,44862.3
54263.6,44866.2
54263.6,45417.4
54263.4,45421.2
54262.9,45425.1
54261.9,45428.8
54260.6,45432.4
54259,45435.9
54257,45439.3
54254.7,45442.4
54252.1,45445.2
54249.2,45447.8
54246.1,45450.1
54242.8,45452.1
54239.3,45453.8
54235.7,45455.1
54231.9,45456
54228.1,45456.6
54224.3,45456.8
53436.9,45456.8
53433,45456.6
53429.2,45456
53425.4,45455.1
53421.8,45453.8
53418.3,45452.1
53415,45450.1
53411.9,45447.8
53409,45445.2
53406.4,45442.4
53404.1,45439.3
53402.1,45435.9
53400.5,45432.4
53399.2,45428.8
53398.3,45425.1
53397.7,45421.2
53397.5,45417.4
53397.5,44866.2
53397.7,44862.3
53398.3,44858.5
53399.2,44854.8
53400.5,44851.1
53402.1,44847.6
53404.1,44844.3
53406.4,44841.2
53409,44838.4
53411.9,44835.8
53415,44833.5
53418.3,44831.5
53421.8,44829.8
53425.4,44828.5
53429.2,44827.6
53433,44827
53436.9,44826.8
54224.3,44826.8
Z" /> 
<path style="fill:#000000; fill-opacity:1.0; 
stroke:#000000; stroke-width:0; stroke-opacity:1; 
stroke-linecap:round; stroke-linejoin:round;fill-rule:evenodd;"
d="M 54228.1,44079
54231.9,44079.6
54235.7,44080.5
54239.3,44081.8
54242.8,44083.4
54246.1,44085.4
54249.2,44087.7
54252.1,44090.3
54254.7,44093.2
54257,44096.3
54259,44099.6
54260.6,44103.1
54261.9,44106.7
54262.9,44110.5
54263.4,44114.3
54263.6,44118.2
54263.6,44669.4
54263.4,44673.2
54262.9,44677
54261.9,44680.8
54260.6,44684.4
54259,44687.9
54257,44691.2
54254.7,44694.3
54252.1,44697.2
54249.2,44699.8
54246.1,44702.1
54242.8,44704.1
54239.3,44705.7
54235.7,44707
54231.9,44708
54228.1,44708.5
54224.3,44708.7
53436.9,44708.7
53433,44708.5
53429.2,44708
53425.4,44707
53421.8,44705.7
53418.3,44704.1
53415,44702.1
53411.9,44699.8
53409,44697.2
53406.4,44694.3
53404.1,44691.2
53402.1,44687.9
53400.5,44684.4
53399.2,44680.8
53398.3,44677
53397.7,44673.2
53397.5,44669.4
53397.5,44118.2
53397.7,44114.3
53398.3,44110.5
53399.2,44106.7
53400.5,44103.1
53402.1,44099.6
53404.1,44096.3
53406.4,44093.2
53409,44090.3
53411.9,44087.7
53415,44085.4
53418.3,44083.4
53421.8,44081.8
53425.4,44080.5
53429.2,44079.6
53433,44079
53436.9,44078.8
54224.3,44078.8
Z" /> 
<path style="fill:#000000; fill-opacity:1.0; 
stroke:#000000; stroke-width:0; stroke-opacity:1; 
stroke-linecap:round; stroke-linejoin:round;fill-rule:evenodd;"
d="M 54228.1,45575.1
54231.9,45575.6
54235.7,45576.6
54239.3,45577.9
54242.8,45579.5
54246.1,45581.5
54249.2,45583.8
54252.1,45586.4
54254.7,45589.3
54257,45592.4
54259,45595.7
54260.6,45599.2
54261.9,45602.8
54262.9,45606.6
54263.4,45610.4
54263.6,45614.2
54263.6,46165.4
54263.4,46169.3
54262.9,46173.1
54261.9,46176.8
54260.6,46180.5
54259,46184
54257,46187.3
54254.7,46190.4
54252.1,46193.3
54249.2,46195.8
54246.1,46198.1
54242.8,46200.1
54239.3,46201.8
54235.7,46203.1
54231.9,46204
54228.1,46204.6
54224.3,46204.8
53436.9,46204.8
53433,46204.6
53429.2,46204
53425.4,46203.1
53421.8,46201.8
53418.3,46200.1
53415,46198.1
53411.9,46195.8
53409,46193.3
53406.4,46190.4
53404.1,46187.3
53402.1,46184
53400.5,46180.5
53399.2,46176.8
53398.3,46173.1
53397.7,46169.3
53397.5,46165.4
53397.5,45614.2
53397.7,45610.4
53398.3,45606.6
53399.2,45602.8
53400.5,45599.2
53402.1,45595.7
53404.1,45592.4
53406.4,45589.3
53409,45586.4
53411.9,45583.8
53415,45581.5
53418.3,45579.5
53421.8,45577.9
53425.4,45576.6
53429.2,45575.6
53433,45575.1
53436.9,45574.9
54224.3,45574.9
Z" /> 
<path style="fill:#000000; fill-opacity:1.0; 
stroke:#000000; stroke-width:0; stroke-opacity:1; 
stroke-linecap:round; stroke-linejoin:round;fill-rule:evenodd;"
d="M 52180.9,45575.1
52184.7,45575.6
52188.5,45576.6
52192.1,45577.9
52195.6,45579.5
52198.9,45581.5
52202,45583.8
52204.9,45586.4
52207.5,45589.3
52209.8,45592.4
52211.7,45595.7
52213.4,45599.2
52214.7,45602.8
52215.6,45606.6
52216.2,45610.4
52216.4,45614.2
52216.4,46165.4
52216.2,46169.3
52215.6,46173.1
52214.7,46176.8
52213.4,46180.5
52211.7,46184
52209.8,46187.3
52207.5,46190.4
52204.9,46193.3
52202,46195.8
52198.9,46198.1
52195.6,46200.1
52192.1,46201.8
52188.5,46203.1
52184.7,46204
52180.9,46204.6
52177,46204.8
51389.6,46204.8
51385.8,46204.6
51381.9,46204
51378.2,46203.1
51374.6,46201.8
51371.1,46200.1
51367.7,46198.1
51364.6,46195.8
51361.8,46193.3
51359.2,46190.4
51356.9,46187.3
51354.9,46184
51353.2,46180.5
51351.9,46176.8
51351,46173.1
51350.4,46169.3
51350.3,46165.4
51350.3,45614.2
51350.4,45610.4
51351,45606.6
51351.9,45602.8
51353.2,45599.2
51354.9,45595.7
51356.9,45592.4
51359.2,45589.3
51361.8,45586.4
51364.6,45583.8
51367.7,45581.5
51371.1,45579.5
51374.6,45577.9
51378.2,45576.6
51381.9,45575.6
51385.8,45575.1
51389.6,45574.9
52177,45574.9
Z" /> 
<path style="fill:#000000; fill-opacity:1.0; 
stroke:#000000; stroke-width:0; stroke-opacity:1; 
stroke-linecap:round; stroke-linejoin:round;fill-rule:evenodd;"
d="M 52180.9,44827
52184.7,44827.6
52188.5,44828.5
52192.1,44829.8
52195.6,44831.5
52198.9,44833.5
52202,44835.8
52204.9,44838.4
52207.5,44841.2
52209.8,44844.3
52211.7,44847.6
52213.4,44851.1
52214.7,44854.8
52215.6,44858.5
52216.2,44862.3
52216.4,44866.2
52216.4,45417.4
52216.2,45421.2
52215.6,45425.1
52214.7,45428.8
52213.4,45432.4
52211.7,45435.9
52209.8,45439.3
52207.5,45442.4
52204.9,45445.2
52202,45447.8
52198.9,45450.1
52195.6,45452.1
52192.1,45453.8
52188.5,45455.1
52184.7,45456
52180.9,45456.6
52177,45456.8
51389.6,45456.8
51385.8,45456.6
51381.9,45456
51378.2,45455.1
51374.6,45453.8
51371.1,45452.1
51367.7,45450.1
51364.6,45447.8
51361.8,45445.2
51359.2,45442.4
51356.9,45439.3
51354.9,45435.9
51353.2,45432.4
51351.9,45428.8
51351,45425.1
51350.4,45421.2
51350.3,45417.4
51350.3,44866.2
51350.4,44862.3
51351,44858.5
51351.9,44854.8
51353.2,44851.1
51354.9,44847.6
51356.9,44844.3
51359.2,44841.2
51361.8,44838.4
51364.6,44835.8
51367.7,44833.5
51371.1,44831.5
51374.6,44829.8
51378.2,44828.5
51381.9,44827.6
51385.8,44827
51389.6,44826.8
52177,44826.8
Z" /> 
<path style="fill:#000000; fill-opacity:1.0; 
stroke:#000000; stroke-width:0; stroke-opacity:1; 
stroke-linecap:round; stroke-linejoin:round;fill-rule:evenodd;"
d="M 52180.9,44079
52184.7,44079.6
52188.5,44080.5
52192.1,44081.8
52195.6,44083.4
52198.9,44085.4
52202,44087.7
52204.9,44090.3
52207.5,44093.2
52209.8,44096.3
52211.7,44099.6
52213.4,44103.1
52214.7,44106.7
52215.6,44110.5
52216.2,44114.3
52216.4,44118.2
52216.4,44669.4
52216.2,44673.2
52215.6,44677
52214.7,44680.8
52213.4,44684.4
52211.7,44687.9
52209.8,44691.2
52207.5,44694.3
52204.9,44697.2
52202,44699.8
52198.9,44702.1
52195.6,44704.1
52192.1,44705.7
52188.5,44707
52184.7,44708
52180.9,44708.5
52177,44708.7
51389.6,44708.7
51385.8,44708.5
51381.9,44708
51378.2,44707
51374.6,44705.7
51371.1,44704.1
51367.7,44702.1
51364.6,44699.8
51361.8,44697.2
51359.2,44694.3
51356.9,44691.2
51354.9,44687.9
51353.2,44684.4
51351.9,44680.8
51351,44677
51350.4,44673.2
51350.3,44669.4
51350.3,44118.2
51350.4,44114.3
51351,44110.5
51351.9,44106.7
51353.2,44103.1
51354.9,44099.6
51356.9,44096.3
51359.2,44093.2
51361.8,44090.3
51364.6,44087.7
51367.7,44085.4
51371.1,44083.4
51374.6,44081.8
51378.2,44080.5
51381.9,44079.6
51385.8,44079
51389.6,44078.8
52177,44078.8
Z" /> 
</g>
<g >
</g>
<g style="fill:#000000; fill-opacity:1.0; 
stroke:#000000; stroke-width:0; stroke-opacity:1; 
stroke-linecap:round; stroke-linejoin:round;">
<path style="fill:#000000; fill-opacity:1.0; 
stroke:#000000; stroke-width:0; stroke-opacity:1; 
stroke-linecap:round; stroke-linejoin:round;fill-rule:evenodd;"
d="M 66614,43260.1
66617.8,43260.7
66621.5,43261.6
66625.2,43262.9
66628.7,43264.6
66632,43266.5
66635.1,43268.8
66637.9,43271.4
66640.5,43274.3
66642.8,43277.4
66644.8,43280.7
66646.5,43284.2
66647.8,43287.8
66648.7,43291.6
66649.3,43295.4
66649.5,43299.3
66649.5,44480.4
66649.3,44484.2
66648.7,44488.1
66647.8,44491.8
66646.5,44495.4
66644.8,44498.9
66642.8,44502.2
66640.5,44505.4
66637.9,44508.2
66635.1,44510.8
66632,44513.1
66628.7,44515.1
66625.2,44516.7
66621.5,44518
66617.8,44519
66614,44519.6
66610.1,44519.7
65429,44519.7
65425.1,44519.6
65421.3,44519
65417.6,44518
65413.9,44516.7
65410.4,44515.1
65407.1,44513.1
65404,44510.8
65401.2,44508.2
65398.6,44505.4
65396.3,44502.2
65394.3,44498.9
65392.6,44495.4
65391.3,44491.8
65390.4,44488.1
65389.8,44484.2
65389.6,44480.4
65389.6,43299.3
65389.8,43295.4
65390.4,43291.6
65391.3,43287.8
65392.6,43284.2
65394.3,43280.7
65396.3,43277.4
65398.6,43274.3
65401.2,43271.4
65404,43268.8
65407.1,43266.5
65410.4,43264.6
65413.9,43262.9
65417.6,43261.6
65421.3,43260.7
65425.1,43260.1
65429,43259.9
66610.1,43259.9
Z" /> 
</g>
<g >
</g>
<g style="fill:#000000; fill-opacity:1.0; 
stroke:#000000; stroke-width:0; stroke-opacity:1; 
stroke-linecap:round; stroke-linejoin:round;">
<path style="fill:#000000; fill-opacity:1.0; 
stroke:#000000; stroke-width:0; stroke-opacity:1; 
stroke-linecap:round; stroke-linejoin:round;fill-rule:evenodd;"
d="M 66614,37354.6
66617.8,37355.1
66621.5,37356.1
66625.2,37357.4
66628.7,37359
66632,37361
66635.1,37363.3
66637.9,37365.9
66640.5,37368.8
66642.8,37371.9
66644.8,37375.2
66646.5,37378.7
66647.8,37382.3
66648.7,37386.1
66649.3,37389.9
66649.5,37393.8
66649.5,38574.9
66649.3,38578.7
66648.7,38582.5
66647.8,38586.3
66646.5,38589.9
66644.8,38593.4
66642.8,38596.7
66640.5,38599.8
66637.9,38602.7
66635.1,38605.3
66632,38607.6
66628.7,38609.6
66625.2,38611.2
66621.5,38612.5
66617.8,38613.5
66614,38614
66610.1,38614.2
65429,38614.2
65425.1,38614
65421.3,38613.5
65417.6,38612.5
65413.9,38611.2
65410.4,38609.6
65407.1,38607.6
65404,38605.3
65401.2,38602.7
65398.6,38599.8
65396.3,38596.7
65394.3,38593.4
65392.6,38589.9
65391.3,38586.3
65390.4,38582.5
65389.8,38578.7
65389.6,38574.9
65389.6,37393.8
65389.8,37389.9
65390.4,37386.1
65391.3,37382.3
65392.6,37378.7
65394.3,37375.2
65396.3,37371.9
65398.6,37368.8
65401.2,37365.9
65404,37363.3
65407.1,37361
65410.4,37359
65413.9,37357.4
65417.6,37356.1
65421.3,37355.1
65425.1,37354.6
65429,37354.4
66610.1,37354.4
Z" /> 
</g>
<g >
</g>
<g style="fill:#000000; fill-opacity:1.0; 
stroke:#000000; stroke-width:0; stroke-opacity:1; 
stroke-linecap:round; stroke-linejoin:round;">
<path style="fill:#000000; fill-opacity:1.0; 
stroke:#000000; stroke-width:0; stroke-opacity:1; 
stroke-linecap:round; stroke-linejoin:round;fill-rule:evenodd;"
d="M 66614,40110.5
66617.8,40111.1
66621.5,40112
66625.2,40113.3
66628.7,40114.9
66632,40116.9
66635.1,40119.2
66637.9,40121.8
66640.5,40124.7
66642.8,40127.8
66644.8,40131.1
66646.5,40134.6
66647.8,40138.2
66648.7,40142
66649.3,40145.8
66649.5,40149.7
66649.5,41330.8
66649.3,41334.6
66648.7,41338.4
66647.8,41342.2
66646.5,41345.8
66644.8,41349.3
66642.8,41352.6
66640.5,41355.7
66637.9,41358.6
66635.1,41361.2
66632,41363.5
66628.7,41365.5
66625.2,41367.1
66621.5,41368.4
66617.8,41369.4
66614,41369.9
66610.1,41370.1
65429,41370.1
65425.1,41369.9
65421.3,41369.4
65417.6,41368.4
65413.9,41367.1
65410.4,41365.5
65407.1,41363.5
65404,41361.2
65401.2,41358.6
65398.6,41355.7
65396.3,41352.6
65394.3,41349.3
65392.6,41345.8
65391.3,41342.2
65390.4,41338.4
65389.8,41334.6
65389.6,41330.8
65389.6,40149.7
65389.8,40145.8
65390.4,40142
65391.3,40138.2
65392.6,40134.6
65394.3,40131.1
65396.3,40127.8
65398.6,40124.7
65401.2,40121.8
65404,40119.2
65407.1,40116.9
65410.4,40114.9
65413.9,40113.3
65417.6,40112
65421.3,40111.1
65425.1,40110.5
65429,40110.3
66610.1,40110.3
Z" /> 
</g>
<g >
</g>
<g style="fill:#000000; fill-opacity:1.0; 
stroke:#000000; stroke-width:0; stroke-opacity:1; 
stroke-linecap:round; stroke-linejoin:round;">
<path style="fill:#000000; fill-opacity:1.0; 
stroke:#000000; stroke-width:0; stroke-opacity:1; 
stroke-linecap:round; stroke-linejoin:round;fill-rule:evenodd;"
d="M 46535.2,37354.6
46539,37355.1
46542.8,37356.1
46546.4,37357.4
46549.9,37359
46553.2,37361
46556.3,37363.3
46559.2,37365.9
46561.8,37368.8
46564.1,37371.9
46566.1,37375.2
46567.7,37378.7
46569,37382.3
46570,37386.1
46570.5,37389.9
46570.7,37393.8
46570.7,38574.9
46570.5,38578.7
46570,38582.5
46569,38586.3
46567.7,38589.9
46566.1,38593.4
46564.1,38596.7
46561.8,38599.8
46559.2,38602.7
46556.3,38605.3
46553.2,38607.6
46549.9,38609.6
46546.4,38611.2
46542.8,38612.5
46539,38613.5
46535.2,38614
46531.4,38614.2
45350.3,38614.2
45346.4,38614
45342.6,38613.5
45338.8,38612.5
45335.2,38611.2
45331.7,38609.6
45328.4,38607.6
45325.3,38605.3
45322.4,38602.7
45319.8,38599.8
45317.5,38596.7
45315.5,38593.4
45313.9,38589.9
45312.6,38586.3
45311.6,38582.5
45311.1,38578.7
45310.9,38574.9
45310.9,37393.8
45311.1,37389.9
45311.6,37386.1
45312.6,37382.3
45313.9,37378.7
45315.5,37375.2
45317.5,37371.9
45319.8,37368.8
45322.4,37365.9
45325.3,37363.3
45328.4,37361
45331.7,37359
45335.2,37357.4
45338.8,37356.1
45342.6,37355.1
45346.4,37354.6
45350.3,37354.4
46531.4,37354.4
Z" /> 
</g>
<g >
</g>
<g style="fill:#000000; fill-opacity:1.0; 
stroke:#000000; stroke-width:0; stroke-opacity:1; 
stroke-linecap:round; stroke-linejoin:round;">
<path style="fill:#000000; fill-opacity:1.0; 
stroke:#000000; stroke-width:0; stroke-opacity:1; 
stroke-linecap:round; stroke-linejoin:round;fill-rule:evenodd;"
d="M 46535.2,45622.3
46539,45622.9
46542.8,45623.8
46546.4,45625.1
46549.9,45626.8
46553.2,45628.7
46556.3,45631
46559.2,45633.6
46561.8,45636.5
46564.1,45639.6
46566.1,45642.9
46567.7,45646.4
46569,45650
46570,45653.8
46570.5,45657.6
46570.7,45661.5
46570.7,46842.6
46570.5,46846.4
46570,46850.3
46569,46854
46567.7,46857.6
46566.1,46861.1
46564.1,46864.5
46561.8,46867.6
46559.2,46870.4
46556.3,46873
46553.2,46875.3
46549.9,46877.3
46546.4,46879
46542.8,46880.3
46539,46881.2
46535.2,46881.8
46531.4,46881.9
45350.3,46881.9
45346.4,46881.8
45342.6,46881.2
45338.8,46880.3
45335.2,46879
45331.7,46877.3
45328.4,46875.3
45325.3,46873
45322.4,46870.4
45319.8,46867.6
45317.5,46864.5
45315.5,46861.1
45313.9,46857.6
45312.6,46854
45311.6,46850.3
45311.1,46846.4
45310.9,46842.6
45310.9,45661.5
45311.1,45657.6
45311.6,45653.8
45312.6,45650
45313.9,45646.4
45315.5,45642.9
45317.5,45639.6
45319.8,45636.5
45322.4,45633.6
45325.3,45631
45328.4,45628.7
45331.7,45626.8
45335.2,45625.1
45338.8,45623.8
45342.6,45622.9
45346.4,45622.3
45350.3,45622.1
46531.4,45622.1
Z" /> 
</g>
<g >
</g>
<g style="fill:#000000; fill-opacity:1.0; 
stroke:#000000; stroke-width:0; stroke-opacity:1; 
stroke-linecap:round; stroke-linejoin:round;">
<path style="fill:#000000; fill-opacity:1.0; 
stroke:#000000; stroke-width:0; stroke-opacity:1; 
stroke-linecap:round; stroke-linejoin:round;fill-rule:evenodd;"
d="M 48917.1,42252.2
48920.9,42252.8
48924.7,42253.7
48928.3,42255
48931.8,42256.7
48935.1,42258.7
48938.2,42261
48941.1,42263.6
48943.7,42266.4
48946,42269.5
48948,42272.8
48949.6,42276.3
48950.9,42280
48951.9,42283.7
48952.4,42287.5
48952.6,42291.4
48952.6,43126
48952.4,43129.9
48951.9,43133.7
48950.9,43137.5
48949.6,43141.1
48948,43144.6
48946,43147.9
48943.7,43151
48941.1,43153.9
48938.2,43156.5
48935.1,43158.8
48931.8,43160.8
48928.3,43162.4
48924.7,43163.7
48920.9,43164.7
48917.1,43165.2
48913.2,43165.4
48401.4,43165.4
48397.6,43165.2
48393.8,43164.7
48390,43163.7
48386.4,43162.4
48382.9,43160.8
48379.6,43158.8
48376.5,43156.5
48373.6,43153.9
48371,43151
48368.7,43147.9
48366.7,43144.6
48365.1,43141.1
48363.8,43137.5
48362.8,43133.7
48362.3,43129.9
48362.1,43126
48362.1,42291.4
48362.3,42287.5
48362.8,42283.7
48363.8,42280
48365.1,42276.3
48366.7,42272.8
48368.7,42269.5
48371,42266.4
48373.6,42263.6
48376.5,42261
48379.6,42258.7
48382.9,42256.7
48386.4,42255
48390,42253.7
48393.8,42252.8
48397.6,42252.2
48401.4,42252
48913.2,42252
Z" /> 
<path style="fill:#000000; fill-opacity:1.0; 
stroke:#000000; stroke-width:0; stroke-opacity:1; 
stroke-linecap:round; stroke-linejoin:round;fill-rule:evenodd;"
d="M 47421,42252.2
47424.9,42252.8
47428.6,42253.7
47432.2,42255
47435.7,42256.7
47439.1,42258.7
47442.2,42261
47445,42263.6
47447.6,42266.4
47449.9,42269.5
47451.9,42272.8
47453.6,42276.3
47454.9,42280
47455.8,42283.7
47456.4,42287.5
47456.6,42291.4
47456.6,43126
47456.4,43129.9
47455.8,43133.7
47454.9,43137.5
47453.6,43141.1
47451.9,43144.6
47449.9,43147.9
47447.6,43151
47445,43153.9
47442.2,43156.5
47439.1,43158.8
47435.7,43160.8
47432.2,43162.4
47428.6,43163.7
47424.9,43164.7
47421,43165.2
47417.2,43165.4
46905.4,43165.4
46901.5,43165.2
46897.7,43164.7
46893.9,43163.7
46890.3,43162.4
46886.8,43160.8
46883.5,43158.8
46880.4,43156.5
46877.5,43153.9
46874.9,43151
46872.6,43147.9
46870.6,43144.6
46869,43141.1
46867.7,43137.5
46866.8,43133.7
46866.2,43129.9
46866,43126
46866,42291.4
46866.2,42287.5
46866.8,42283.7
46867.7,42280
46869,42276.3
46870.6,42272.8
46872.6,42269.5
46874.9,42266.4
46877.5,42263.6
46880.4,42261
46883.5,42258.7
46886.8,42256.7
46890.3,42255
46893.9,42253.7
46897.7,42252.8
46901.5,42252.2
46905.4,42252
47417.2,42252
Z" /> 
<path style="fill:#000000; fill-opacity:1.0; 
stroke:#000000; stroke-width:0; stroke-opacity:1; 
stroke-linecap:round; stroke-linejoin:round;fill-rule:evenodd;"
d="M 47421,40519.9
47424.9,40520.5
47428.6,40521.4
47432.2,40522.7
47435.7,40524.4
47439.1,40526.4
47442.2,40528.7
47445,40531.3
47447.6,40534.1
47449.9,40537.2
47451.9,40540.6
47453.6,40544
47454.9,40547.7
47455.8,40551.4
47456.4,40555.3
47456.6,40559.1
47456.6,41393.8
47456.4,41397.6
47455.8,41401.4
47454.9,41405.2
47453.6,41408.8
47451.9,41412.3
47449.9,41415.6
47447.6,41418.7
47445,41421.6
47442.2,41424.2
47439.1,41426.5
47435.7,41428.5
47432.2,41430.1
47428.6,41431.4
47424.9,41432.4
47421,41432.9
47417.2,41433.1
46905.4,41433.1
46901.5,41432.9
46897.7,41432.4
46893.9,41431.4
46890.3,41430.1
46886.8,41428.5
46883.5,41426.5
46880.4,41424.2
46877.5,41421.6
46874.9,41418.7
46872.6,41415.6
46870.6,41412.3
46869,41408.8
46867.7,41405.2
46866.8,41401.4
46866.2,41397.6
46866,41393.8
46866,40559.1
46866.2,40555.3
46866.8,40551.4
46867.7,40547.7
46869,40544
46870.6,40540.6
46872.6,40537.2
46874.9,40534.1
46877.5,40531.3
46880.4,40528.7
46883.5,40526.4
46886.8,40524.4
46890.3,40522.7
46893.9,40521.4
46897.7,40520.5
46901.5,40519.9
46905.4,40519.7
47417.2,40519.7
Z" /> 
<path style="fill:#000000; fill-opacity:1.0; 
stroke:#000000; stroke-width:0; stroke-opacity:1; 
stroke-linecap:round; stroke-linejoin:round;fill-rule:evenodd;"
d="M 48169.1,40519.9
48172.9,40520.5
48176.6,40521.4
48180.3,40522.7
48183.8,40524.4
48187.1,40526.4
48190.2,40528.7
48193.1,40531.3
48195.6,40534.1
48197.9,40537.2
48199.9,40540.6
48201.6,40544
48202.9,40547.7
48203.8,40551.4
48204.4,40555.3
48204.6,40559.1
48204.6,41393.8
48204.4,41397.6
48203.8,41401.4
48202.9,41405.2
48201.6,41408.8
48199.9,41412.3
48197.9,41415.6
48195.6,41418.7
48193.1,41421.6
48190.2,41424.2
48187.1,41426.5
48183.8,41428.5
48180.3,41430.1
48176.6,41431.4
48172.9,41432.4
48169.1,41432.9
48165.2,41433.1
47653.4,41433.1
47649.5,41432.9
47645.7,41432.4
47642,41431.4
47638.3,41430.1
47634.8,41428.5
47631.5,41426.5
47628.4,41424.2
47625.6,41421.6
47623,41418.7
47620.7,41415.6
47618.7,41412.3
47617,41408.8
47615.7,41405.2
47614.8,41401.4
47614.2,41397.6
47614,41393.8
47614,40559.1
47614.2,40555.3
47614.8,40551.4
47615.7,40547.7
47617,40544
47618.7,40540.6
47620.7,40537.2
47623,40534.1
47625.6,40531.3
47628.4,40528.7
47631.5,40526.4
47634.8,40524.4
47638.3,40522.7
47642,40521.4
47645.7,40520.5
47649.5,40519.9
47653.4,40519.7
48165.2,40519.7
Z" /> 
<path style="fill:#000000; fill-opacity:1.0; 
stroke:#000000; stroke-width:0; stroke-opacity:1; 
stroke-linecap:round; stroke-linejoin:round;fill-rule:evenodd;"
d="M 48917.1,40519.9
48920.9,40520.5
48924.7,40521.4
48928.3,40522.7
48931.8,40524.4
48935.1,40526.4
48938.2,40528.7
48941.1,40531.3
48943.7,40534.1
48946,40537.2
48948,40540.6
48949.6,40544
48950.9,40547.7
48951.9,40551.4
48952.4,40555.3
48952.6,40559.1
48952.6,41393.8
48952.4,41397.6
48951.9,41401.4
48950.9,41405.2
48949.6,41408.8
48948,41412.3
48946,41415.6
48943.7,41418.7
48941.1,41421.6
48938.2,41424.2
48935.1,41426.5
48931.8,41428.5
48928.3,41430.1
48924.7,41431.4
48920.9,41432.4
48917.1,41432.9
48913.2,41433.1
48401.4,41433.1
48397.6,41432.9
48393.8,41432.4
48390,41431.4
48386.4,41430.1
48382.9,41428.5
48379.6,41426.5
48376.5,41424.2
48373.6,41421.6
48371,41418.7
48368.7,41415.6
48366.7,41412.3
48365.1,41408.8
48363.8,41405.2
48362.8,41401.4
48362.3,41397.6
48362.1,41393.8
48362.1,40559.1
48362.3,40555.3
48362.8,40551.4
48363.8,40547.7
48365.1,40544
48366.7,40540.6
48368.7,40537.2
48371,40534.1
48373.6,40531.3
48376.5,40528.7
48379.6,40526.4
48382.9,40524.4
48386.4,40522.7
48390,40521.4
48393.8,40520.5
48397.6,40519.9
48401.4,40519.7
48913.2,40519.7
Z" /> 
</g>
<g >
</g>
<g style="fill:#000000; fill-opacity:1.0; 
stroke:#000000; stroke-width:0; stroke-opacity:1; 
stroke-linecap:round; stroke-linejoin:round;">
<path style="fill:#000000; fill-opacity:1.0; 
stroke:#000000; stroke-width:0; stroke-opacity:1; 
stroke-linecap:round; stroke-linejoin:round;fill-rule:evenodd;"
d="M 55393.7,39288.4
55412.3,39291.1
55430.6,39295.7
55448.3,39302.1
55465.3,39310.1
55481.5,39319.8
55496.6,39331
55510.6,39343.7
55523.2,39357.6
55534.4,39372.8
55544.1,39388.9
55552.2,39405.9
55558.5,39423.7
55563.1,39441.9
55565.9,39460.6
55566.8,39479.4
55566.8,39922.3
55565.9,39941.1
55563.1,39959.7
55558.5,39978
55552.2,39995.8
55544.1,40012.8
55534.4,40028.9
55523.2,40044.1
55510.6,40058
55496.6,40070.7
55481.5,40081.9
55465.3,40091.6
55448.3,40099.6
55430.6,40106
55412.3,40110.5
55393.7,40113.3
55374.9,40114.2
54991,40114.2
54972.2,40113.3
54953.6,40110.5
54935.3,40106
54917.6,40099.6
54900.5,40091.6
54884.4,40081.9
54869.2,40070.7
54855.3,40058
54842.6,40044.1
54831.4,40028.9
54821.7,40012.8
54813.7,39995.8
54807.3,39978
54802.8,39959.7
54800,39941.1
54799.1,39922.3
54799.1,39479.4
54800,39460.6
54802.8,39441.9
54807.3,39423.7
54813.7,39405.9
54821.7,39388.9
54831.4,39372.8
54842.6,39357.6
54855.3,39343.7
54869.2,39331
54884.4,39319.8
54900.5,39310.1
54917.6,39302.1
54935.3,39295.7
54953.6,39291.1
54972.2,39288.4
54991,39287.5
55374.9,39287.5
Z" /> 
<path style="fill:#000000; fill-opacity:1.0; 
stroke:#000000; stroke-width:0; stroke-opacity:1; 
stroke-linecap:round; stroke-linejoin:round;fill-rule:evenodd;"
d="M 54153.5,39288.4
54172.1,39291.1
54190.4,39295.7
54208.1,39302.1
54225.2,39310.1
54241.3,39319.8
54256.5,39331
54270.4,39343.7
54283.1,39357.6
54294.3,39372.8
54304,39388.9
54312,39405.9
54318.4,39423.7
54322.9,39441.9
54325.7,39460.6
54326.6,39479.4
54326.6,39922.3
54325.7,39941.1
54322.9,39959.7
54318.4,39978
54312,39995.8
54304,40012.8
54294.3,40028.9
54283.1,40044.1
54270.4,40058
54256.5,40070.7
54241.3,40081.9
54225.2,40091.6
54208.1,40099.6
54190.4,40106
54172.1,40110.5
54153.5,40113.3
54134.7,40114.2
53750.8,40114.2
53732,40113.3
53713.4,40110.5
53695.1,40106
53677.4,40099.6
53660.4,40091.6
53644.2,40081.9
53629.1,40070.7
53615.1,40058
53602.5,40044.1
53591.3,40028.9
53581.6,40012.8
53573.5,39995.8
53567.2,39978
53562.6,39959.7
53559.8,39941.1
53558.9,39922.3
53558.9,39479.4
53559.8,39460.6
53562.6,39441.9
53567.2,39423.7
53573.5,39405.9
53581.6,39388.9
53591.3,39372.8
53602.5,39357.6
53615.1,39343.7
53629.1,39331
53644.2,39319.8
53660.4,39310.1
53677.4,39302.1
53695.1,39295.7
53713.4,39291.1
53732,39288.4
53750.8,39287.5
54134.7,39287.5
Z" /> 
</g>
<g >
</g>
<g style="fill:#000000; fill-opacity:1.0; 
stroke:#000000; stroke-width:0; stroke-opacity:1; 
stroke-linecap:round; stroke-linejoin:round;">
<path style="fill:#000000; fill-opacity:1.0; 
stroke:#000000; stroke-width:0; stroke-opacity:1; 
stroke-linecap:round; stroke-linejoin:round;fill-rule:evenodd;"
d="M 55393.7,41843.5
55412.3,41846.3
55430.6,41850.8
55448.3,41857.2
55465.3,41865.2
55481.5,41874.9
55496.6,41886.1
55510.6,41898.8
55523.2,41912.8
55534.4,41927.9
55544.1,41944
55552.2,41961.1
55558.5,41978.8
55563.1,41997.1
55565.9,42015.7
55566.8,42034.5
55566.8,42418.4
55565.9,42437.2
55563.1,42455.8
55558.5,42474.1
55552.2,42491.8
55544.1,42508.8
55534.4,42525
55523.2,42540.1
55510.6,42554.1
55496.6,42566.7
55481.5,42578
55465.3,42587.6
55448.3,42595.7
55430.6,42602
55412.3,42606.6
55393.7,42609.4
55374.9,42610.3
54931.9,42610.3
54913.1,42609.4
54894.5,42606.6
54876.2,42602
54858.5,42595.7
54841.5,42587.6
54825.3,42578
54810.2,42566.7
54796.2,42554.1
54783.6,42540.1
54772.4,42525
54762.7,42508.8
54754.6,42491.8
54748.3,42474.1
54743.7,42455.8
54740.9,42437.2
54740,42418.4
54740,42034.5
54740.9,42015.7
54743.7,41997.1
54748.3,41978.8
54754.6,41961.1
54762.7,41944
54772.4,41927.9
54783.6,41912.8
54796.2,41898.8
54810.2,41886.1
54825.3,41874.9
54841.5,41865.2
54858.5,41857.2
54876.2,41850.8
54894.5,41846.3
54913.1,41843.5
54931.9,41842.6
55374.9,41842.6
Z" /> 
<path style="fill:#000000; fill-opacity:1.0; 
stroke:#000000; stroke-width:0; stroke-opacity:1; 
stroke-linecap:round; stroke-linejoin:round;fill-rule:evenodd;"
d="M 55393.7,40603.3
55412.3,40606.1
55430.6,40610.7
55448.3,40617
55465.3,40625.1
55481.5,40634.8
55496.6,40646
55510.6,40658.6
55523.2,40672.6
55534.4,40687.7
55544.1,40703.9
55552.2,40720.9
55558.5,40738.6
55563.1,40756.9
55565.9,40775.5
55566.8,40794.4
55566.8,41178.2
55565.9,41197
55563.1,41215.7
55558.5,41233.9
55552.2,41251.7
55544.1,41268.7
55534.4,41284.8
55523.2,41300
55510.6,41313.9
55496.6,41326.6
55481.5,41337.8
55465.3,41347.5
55448.3,41355.5
55430.6,41361.9
55412.3,41366.5
55393.7,41369.2
55374.9,41370.1
54931.9,41370.1
54913.1,41369.2
54894.5,41366.5
54876.2,41361.9
54858.5,41355.5
54841.5,41347.5
54825.3,41337.8
54810.2,41326.6
54796.2,41313.9
54783.6,41300
54772.4,41284.8
54762.7,41268.7
54754.6,41251.7
54748.3,41233.9
54743.7,41215.7
54740.9,41197
54740,41178.2
54740,40794.4
54740.9,40775.5
54743.7,40756.9
54748.3,40738.6
54754.6,40720.9
54762.7,40703.9
54772.4,40687.7
54783.6,40672.6
54796.2,40658.6
54810.2,40646
54825.3,40634.8
54841.5,40625.1
54858.5,40617
54876.2,40610.7
54894.5,40606.1
54913.1,40603.3
54931.9,40602.4
55374.9,40602.4
Z" /> 
</g>
<g >
</g>
<g style="fill:#000000; fill-opacity:1.0; 
stroke:#000000; stroke-width:0; stroke-opacity:1; 
stroke-linecap:round; stroke-linejoin:round;">
<path style="fill:#000000; fill-opacity:1.0; 
stroke:#000000; stroke-width:0; stroke-opacity:1; 
stroke-linecap:round; stroke-linejoin:round;fill-rule:evenodd;"
d="M 50275.6,42237.2
50294.2,42240
50312.5,42244.5
50330.2,42250.9
50347.2,42258.9
50363.4,42268.6
50378.5,42279.8
50392.5,42292.5
50405.1,42306.5
50416.3,42321.6
50426,42337.7
50434.1,42354.8
50440.4,42372.5
50445,42390.8
50447.8,42409.4
50448.7,42428.2
50448.7,42812.1
50447.8,42830.9
50445,42849.5
50440.4,42867.8
50434.1,42885.5
50426,42902.5
50416.3,42918.7
50405.1,42933.8
50392.5,42947.8
50378.5,42960.4
50363.4,42971.7
50347.2,42981.3
50330.2,42989.4
50312.5,42995.7
50294.2,43000.3
50275.6,43003.1
50256.7,43004
49813.8,43004
49795,43003.1
49776.4,43000.3
49758.1,42995.7
49740.4,42989.4
49723.4,42981.3
49707.2,42971.7
49692.1,42960.4
49678.1,42947.8
49665.5,42933.8
49654.3,42918.7
49644.6,42902.5
49636.5,42885.5
49630.2,42867.8
49625.6,42849.5
49622.8,42830.9
49621.9,42812.1
49621.9,42428.2
49622.8,42409.4
49625.6,42390.8
49630.2,42372.5
49636.5,42354.8
49644.6,42337.7
49654.3,42321.6
49665.5,42306.5
49678.1,42292.5
49692.1,42279.8
49707.2,42268.6
49723.4,42258.9
49740.4,42250.9
49758.1,42244.5
49776.4,42240
49795,42237.2
49813.8,42236.3
50256.7,42236.3
Z" /> 
<path style="fill:#000000; fill-opacity:1.0; 
stroke:#000000; stroke-width:0; stroke-opacity:1; 
stroke-linecap:round; stroke-linejoin:round;fill-rule:evenodd;"
d="M 50275.6,40997
50294.2,40999.8
50312.5,41004.4
50330.2,41010.7
50347.2,41018.8
50363.4,41028.5
50378.5,41039.7
50392.5,41052.3
50405.1,41066.3
50416.3,41081.4
50426,41097.6
50434.1,41114.6
50440.4,41132.3
50445,41150.6
50447.8,41169.2
50448.7,41188.1
50448.7,41571.9
50447.8,41590.7
50445,41609.4
50440.4,41627.6
50434.1,41645.4
50426,41662.4
50416.3,41678.5
50405.1,41693.7
50392.5,41707.6
50378.5,41720.3
50363.4,41731.5
50347.2,41741.2
50330.2,41749.2
50312.5,41755.6
50294.2,41760.2
50275.6,41762.9
50256.7,41763.8
49813.8,41763.8
49795,41762.9
49776.4,41760.2
49758.1,41755.6
49740.4,41749.2
49723.4,41741.2
49707.2,41731.5
49692.1,41720.3
49678.1,41707.6
49665.5,41693.7
49654.3,41678.5
49644.6,41662.4
49636.5,41645.4
49630.2,41627.6
49625.6,41609.4
49622.8,41590.7
49621.9,41571.9
49621.9,41188.1
49622.8,41169.2
49625.6,41150.6
49630.2,41132.3
49636.5,41114.6
49644.6,41097.6
49654.3,41081.4
49665.5,41066.3
49678.1,41052.3
49692.1,41039.7
49707.2,41028.5
49723.4,41018.8
49740.4,41010.7
49758.1,41004.4
49776.4,40999.8
49795,40997
49813.8,40996.1
50256.7,40996.1
Z" /> 
</g>
<g >
</g>
<g style="fill:#000000; fill-opacity:1.0; 
stroke:#000000; stroke-width:0; stroke-opacity:1; 
stroke-linecap:round; stroke-linejoin:round;">
<path style="fill:#000000; fill-opacity:1.0; 
stroke:#000000; stroke-width:0; stroke-opacity:1; 
stroke-linecap:round; stroke-linejoin:round;fill-rule:evenodd;"
d="M 50275.6,44914.4
50294.2,44917.1
50312.5,44921.7
50330.2,44928.1
50347.2,44936.1
50363.4,44945.8
50378.5,44957
50392.5,44969.7
50405.1,44983.6
50416.3,44998.7
50426,45014.9
50434.1,45031.9
50440.4,45049.7
50445,45067.9
50447.8,45086.6
50448.7,45105.4
50448.7,45489.2
50447.8,45508
50445,45526.7
50440.4,45544.9
50434.1,45562.7
50426,45579.7
50416.3,45595.9
50405.1,45611
50392.5,45624.9
50378.5,45637.6
50363.4,45648.8
50347.2,45658.5
50330.2,45666.6
50312.5,45672.9
50294.2,45677.5
50275.6,45680.2
50256.7,45681.2
49813.8,45681.2
49795,45680.2
49776.4,45677.5
49758.1,45672.9
49740.4,45666.6
49723.4,45658.5
49707.2,45648.8
49692.1,45637.6
49678.1,45624.9
49665.5,45611
49654.3,45595.9
49644.6,45579.7
49636.5,45562.7
49630.2,45544.9
49625.6,45526.7
49622.8,45508
49621.9,45489.2
49621.9,45105.4
49622.8,45086.6
49625.6,45067.9
49630.2,45049.7
49636.5,45031.9
49644.6,45014.9
49654.3,44998.7
49665.5,44983.6
49678.1,44969.7
49692.1,44957
49707.2,44945.8
49723.4,44936.1
49740.4,44928.1
49758.1,44921.7
49776.4,44917.1
49795,44914.4
49813.8,44913.4
50256.7,44913.4
Z" /> 
<path style="fill:#000000; fill-opacity:1.0; 
stroke:#000000; stroke-width:0; stroke-opacity:1; 
stroke-linecap:round; stroke-linejoin:round;fill-rule:evenodd;"
d="M 50275.6,43674.2
50294.2,43677
50312.5,43681.6
50330.2,43687.9
50347.2,43696
50363.4,43705.6
50378.5,43716.9
50392.5,43729.5
50405.1,43743.5
50416.3,43758.6
50426,43774.7
50434.1,43791.8
50440.4,43809.5
50445,43827.8
50447.8,43846.4
50448.7,43865.2
50448.7,44249.1
50447.8,44267.9
50445,44286.5
50440.4,44304.8
50434.1,44322.5
50426,44339.6
50416.3,44355.7
50405.1,44370.8
50392.5,44384.8
50378.5,44397.4
50363.4,44408.7
50347.2,44418.3
50330.2,44426.4
50312.5,44432.7
50294.2,44437.3
50275.6,44440.1
50256.7,44441
49813.8,44441
49795,44440.1
49776.4,44437.3
49758.1,44432.7
49740.4,44426.4
49723.4,44418.3
49707.2,44408.7
49692.1,44397.4
49678.1,44384.8
49665.5,44370.8
49654.3,44355.7
49644.6,44339.6
49636.5,44322.5
49630.2,44304.8
49625.6,44286.5
49622.8,44267.9
49621.9,44249.1
49621.9,43865.2
49622.8,43846.4
49625.6,43827.8
49630.2,43809.5
49636.5,43791.8
49644.6,43774.7
49654.3,43758.6
49665.5,43743.5
49678.1,43729.5
49692.1,43716.9
49707.2,43705.6
49723.4,43696
49740.4,43687.9
49758.1,43681.6
49776.4,43677
49795,43674.2
49813.8,43673.3
50256.7,43673.3
Z" /> 
</g>
<g >
</g>
<g style="fill:#000000; fill-opacity:1.0; 
stroke:#000000; stroke-width:0; stroke-opacity:1; 
stroke-linecap:round; stroke-linejoin:round;">
<path style="fill:#000000; fill-opacity:1.0; 
stroke:#000000; stroke-width:0; stroke-opacity:1; 
stroke-linecap:round; stroke-linejoin:round;fill-rule:evenodd;"
d="M 47736.2,43634.8
47754.8,43637.6
47773.1,43642.2
47790.8,43648.5
47807.9,43656.6
47824,43666.3
47839.1,43677.5
47853.1,43690.1
47865.7,43704.1
47877,43719.2
47886.6,43735.4
47894.7,43752.4
47901,43770.1
47905.6,43788.4
47908.4,43807
47909.3,43825.8
47909.3,44268.8
47908.4,44287.6
47905.6,44306.2
47901,44324.5
47894.7,44342.2
47886.6,44359.2
47877,44375.4
47865.7,44390.5
47853.1,44404.5
47839.1,44417.1
47824,44428.3
47807.9,44438
47790.8,44446.1
47773.1,44452.4
47754.8,44457
47736.2,44459.8
47717.4,44460.7
47333.5,44460.7
47314.7,44459.8
47296.1,44457
47277.8,44452.4
47260.1,44446.1
47243,44438
47226.9,44428.3
47211.8,44417.1
47197.8,44404.5
47185.2,44390.5
47173.9,44375.4
47164.3,44359.2
47156.2,44342.2
47149.9,44324.5
47145.3,44306.2
47142.5,44287.6
47141.6,44268.8
47141.6,43825.8
47142.5,43807
47145.3,43788.4
47149.9,43770.1
47156.2,43752.4
47164.3,43735.4
47173.9,43719.2
47185.2,43704.1
47197.8,43690.1
47211.8,43677.5
47226.9,43666.3
47243,43656.6
47260.1,43648.5
47277.8,43642.2
47296.1,43637.6
47314.7,43634.8
47333.5,43633.9
47717.4,43633.9
Z" /> 
<path style="fill:#000000; fill-opacity:1.0; 
stroke:#000000; stroke-width:0; stroke-opacity:1; 
stroke-linecap:round; stroke-linejoin:round;fill-rule:evenodd;"
d="M 48976.3,43634.8
48995,43637.6
49013.2,43642.2
49031,43648.5
49048,43656.6
49064.2,43666.3
49079.3,43677.5
49093.2,43690.1
49105.9,43704.1
49117.1,43719.2
49126.8,43735.4
49134.9,43752.4
49141.2,43770.1
49145.8,43788.4
49148.5,43807
49149.5,43825.8
49149.5,44268.8
49148.5,44287.6
49145.8,44306.2
49141.2,44324.5
49134.9,44342.2
49126.8,44359.2
49117.1,44375.4
49105.9,44390.5
49093.2,44404.5
49079.3,44417.1
49064.2,44428.3
49048,44438
49031,44446.1
49013.2,44452.4
48995,44457
48976.3,44459.8
48957.5,44460.7
48573.7,44460.7
48554.9,44459.8
48536.2,44457
48518,44452.4
48500.2,44446.1
48483.2,44438
48467,44428.3
48451.9,44417.1
48438,44404.5
48425.3,44390.5
48414.1,44375.4
48404.4,44359.2
48396.4,44342.2
48390,44324.5
48385.4,44306.2
48382.7,44287.6
48381.7,44268.8
48381.7,43825.8
48382.7,43807
48385.4,43788.4
48390,43770.1
48396.4,43752.4
48404.4,43735.4
48414.1,43719.2
48425.3,43704.1
48438,43690.1
48451.9,43677.5
48467,43666.3
48483.2,43656.6
48500.2,43648.5
48518,43642.2
48536.2,43637.6
48554.9,43634.8
48573.7,43633.9
48957.5,43633.9
Z" /> 
</g>
<g >
</g>
<g style="fill:#000000; fill-opacity:1.0; 
stroke:#000000; stroke-width:0; stroke-opacity:1; 
stroke-linecap:round; stroke-linejoin:round;">
<path style="fill:#000000; fill-opacity:1.0; 
stroke:#000000; stroke-width:0; stroke-opacity:1; 
stroke-linecap:round; stroke-linejoin:round;fill-rule:evenodd;"
d="M 51720.4,39288.4
51739.1,39291.1
51757.3,39295.7
51775.1,39302.1
51792.1,39310.1
51808.3,39319.8
51823.4,39331
51837.3,39343.7
51850,39357.6
51861.2,39372.8
51870.9,39388.9
51878.9,39405.9
51885.3,39423.7
51889.9,39441.9
51892.6,39460.6
51893.6,39479.4
51893.6,39922.3
51892.6,39941.1
51889.9,39959.7
51885.3,39978
51878.9,39995.8
51870.9,40012.8
51861.2,40028.9
51850,40044.1
51837.3,40058
51823.4,40070.7
51808.3,40081.9
51792.1,40091.6
51775.1,40099.6
51757.3,40106
51739.1,40110.5
51720.4,40113.3
51701.6,40114.2
51317.8,40114.2
51299,40113.3
51280.3,40110.5
51262.1,40106
51244.3,40099.6
51227.3,40091.6
51211.1,40081.9
51196,40070.7
51182.1,40058
51169.4,40044.1
51158.2,40028.9
51148.5,40012.8
51140.5,39995.8
51134.1,39978
51129.5,39959.7
51126.8,39941.1
51125.8,39922.3
51125.8,39479.4
51126.8,39460.6
51129.5,39441.9
51134.1,39423.7
51140.5,39405.9
51148.5,39388.9
51158.2,39372.8
51169.4,39357.6
51182.1,39343.7
51196,39331
51211.1,39319.8
51227.3,39310.1
51244.3,39302.1
51262.1,39295.7
51280.3,39291.1
51299,39288.4
51317.8,39287.5
51701.6,39287.5
Z" /> 
<path style="fill:#000000; fill-opacity:1.0; 
stroke:#000000; stroke-width:0; stroke-opacity:1; 
stroke-linecap:round; stroke-linejoin:round;fill-rule:evenodd;"
d="M 52960.6,39288.4
52979.2,39291.1
52997.5,39295.7
53015.2,39302.1
53032.3,39310.1
53048.4,39319.8
53063.5,39331
53077.5,39343.7
53090.2,39357.6
53101.4,39372.8
53111.1,39388.9
53119.1,39405.9
53125.5,39423.7
53130,39441.9
53132.8,39460.6
53133.7,39479.4
53133.7,39922.3
53132.8,39941.1
53130,39959.7
53125.5,39978
53119.1,39995.8
53111.1,40012.8
53101.4,40028.9
53090.2,40044.1
53077.5,40058
53063.5,40070.7
53048.4,40081.9
53032.3,40091.6
53015.2,40099.6
52997.5,40106
52979.2,40110.5
52960.6,40113.3
52941.8,40114.2
52557.9,40114.2
52539.1,40113.3
52520.5,40110.5
52502.2,40106
52484.5,40099.6
52467.5,40091.6
52451.3,40081.9
52436.2,40070.7
52422.2,40058
52409.6,40044.1
52398.3,40028.9
52388.7,40012.8
52380.6,39995.8
52374.3,39978
52369.7,39959.7
52366.9,39941.1
52366,39922.3
52366,39479.4
52366.9,39460.6
52369.7,39441.9
52374.3,39423.7
52380.6,39405.9
52388.7,39388.9
52398.3,39372.8
52409.6,39357.6
52422.2,39343.7
52436.2,39331
52451.3,39319.8
52467.5,39310.1
52484.5,39302.1
52502.2,39295.7
52520.5,39291.1
52539.1,39288.4
52557.9,39287.5
52941.8,39287.5
Z" /> 
</g>
<g >
</g>
<g style="fill:#000000; fill-opacity:1.0; 
stroke:#000000; stroke-width:0; stroke-opacity:1; 
stroke-linecap:round; stroke-linejoin:round;">
<path style="fill:#000000; fill-opacity:1.0; 
stroke:#000000; stroke-width:0; stroke-opacity:1; 
stroke-linecap:round; stroke-linejoin:round;fill-rule:evenodd;"
d="M 48425.2,39225.4
48443.8,39228.2
48462.1,39232.7
48479.8,39239.1
48496.8,39247.1
48513,39256.8
48528.1,39268
48542.1,39280.7
48554.7,39294.6
48565.9,39309.8
48575.6,39325.9
48583.7,39343
48590,39360.7
48594.6,39379
48597.4,39397.6
48598.3,39416.4
48598.3,39859.3
48597.4,39878.1
48594.6,39896.8
48590,39915
48583.7,39932.8
48575.6,39949.8
48565.9,39965.9
48554.7,39981.1
48542.1,39995
48528.1,40007.7
48513,40018.9
48496.8,40028.6
48479.8,40036.6
48462.1,40043
48443.8,40047.6
48425.2,40050.3
48406.4,40051.2
48022.5,40051.2
48003.7,40050.3
47985.1,40047.6
47966.8,40043
47949,40036.6
47932,40028.6
47915.9,40018.9
47900.7,40007.7
47886.8,39995
47874.1,39981.1
47862.9,39965.9
47853.2,39949.8
47845.2,39932.8
47838.8,39915
47834.3,39896.8
47831.5,39878.1
47830.6,39859.3
47830.6,39416.4
47831.5,39397.6
47834.3,39379
47838.8,39360.7
47845.2,39343
47853.2,39325.9
47862.9,39309.8
47874.1,39294.6
47886.8,39280.7
47900.7,39268
47915.9,39256.8
47932,39247.1
47949,39239.1
47966.8,39232.7
47985.1,39228.2
48003.7,39225.4
48022.5,39224.5
48406.4,39224.5
Z" /> 
<path style="fill:#000000; fill-opacity:1.0; 
stroke:#000000; stroke-width:0; stroke-opacity:1; 
stroke-linecap:round; stroke-linejoin:round;fill-rule:evenodd;"
d="M 47185,39225.4
47203.6,39228.2
47221.9,39232.7
47239.6,39239.1
47256.7,39247.1
47272.8,39256.8
47288,39268
47301.9,39280.7
47314.6,39294.6
47325.8,39309.8
47335.5,39325.9
47343.5,39343
47349.9,39360.7
47354.4,39379
47357.2,39397.6
47358.1,39416.4
47358.1,39859.3
47357.2,39878.1
47354.4,39896.8
47349.9,39915
47343.5,39932.8
47335.5,39949.8
47325.8,39965.9
47314.6,39981.1
47301.9,39995
47288,40007.7
47272.8,40018.9
47256.7,40028.6
47239.6,40036.6
47221.9,40043
47203.6,40047.6
47185,40050.3
47166.2,40051.2
46782.3,40051.2
46763.5,40050.3
46744.9,40047.6
46726.6,40043
46708.9,40036.6
46691.9,40028.6
46675.7,40018.9
46660.6,40007.7
46646.6,39995
46634,39981.1
46622.8,39965.9
46613.1,39949.8
46605,39932.8
46598.7,39915
46594.1,39896.8
46591.3,39878.1
46590.4,39859.3
46590.4,39416.4
46591.3,39397.6
46594.1,39379
46598.7,39360.7
46605,39343
46613.1,39325.9
46622.8,39309.8
46634,39294.6
46646.6,39280.7
46660.6,39268
46675.7,39256.8
46691.9,39247.1
46708.9,39239.1
46726.6,39232.7
46744.9,39228.2
46763.5,39225.4
46782.3,39224.5
47166.2,39224.5
Z" /> 
</g>
<g >
</g>
<g style="fill:#000000; fill-opacity:1.0; 
stroke:#000000; stroke-width:0; stroke-opacity:1; 
stroke-linecap:round; stroke-linejoin:round;">
<path style="fill:#000000; fill-opacity:1.0; 
stroke:#000000; stroke-width:0; stroke-opacity:1; 
stroke-linecap:round; stroke-linejoin:round;fill-rule:evenodd;"
d="M 48976.3,44894.7
48995,44897.4
49013.2,44902
49031,44908.4
49048,44916.4
49064.2,44926.1
49079.3,44937.3
49093.2,44950
49105.9,44963.9
49117.1,44979.1
49126.8,44995.2
49134.9,45012.2
49141.2,45030
49145.8,45048.2
49148.5,45066.9
49149.5,45085.7
49149.5,45528.6
49148.5,45547.4
49145.8,45566
49141.2,45584.3
49134.9,45602.1
49126.8,45619.1
49117.1,45635.2
49105.9,45650.4
49093.2,45664.3
49079.3,45677
49064.2,45688.2
49048,45697.9
49031,45705.9
49013.2,45712.3
48995,45716.8
48976.3,45719.6
48957.5,45720.5
48573.7,45720.5
48554.9,45719.6
48536.2,45716.8
48518,45712.3
48500.2,45705.9
48483.2,45697.9
48467,45688.2
48451.9,45677
48438,45664.3
48425.3,45650.4
48414.1,45635.2
48404.4,45619.1
48396.4,45602.1
48390,45584.3
48385.4,45566
48382.7,45547.4
48381.7,45528.6
48381.7,45085.7
48382.7,45066.9
48385.4,45048.2
48390,45030
48396.4,45012.2
48404.4,44995.2
48414.1,44979.1
48425.3,44963.9
48438,44950
48451.9,44937.3
48467,44926.1
48483.2,44916.4
48500.2,44908.4
48518,44902
48536.2,44897.4
48554.9,44894.7
48573.7,44893.8
48957.5,44893.8
Z" /> 
<path style="fill:#000000; fill-opacity:1.0; 
stroke:#000000; stroke-width:0; stroke-opacity:1; 
stroke-linecap:round; stroke-linejoin:round;fill-rule:evenodd;"
d="M 47736.2,44894.7
47754.8,44897.4
47773.1,44902
47790.8,44908.4
47807.9,44916.4
47824,44926.1
47839.1,44937.3
47853.1,44950
47865.7,44963.9
47877,44979.1
47886.6,44995.2
47894.7,45012.2
47901,45030
47905.6,45048.2
47908.4,45066.9
47909.3,45085.7
47909.3,45528.6
47908.4,45547.4
47905.6,45566
47901,45584.3
47894.7,45602.1
47886.6,45619.1
47877,45635.2
47865.7,45650.4
47853.1,45664.3
47839.1,45677
47824,45688.2
47807.9,45697.9
47790.8,45705.9
47773.1,45712.3
47754.8,45716.8
47736.2,45719.6
47717.4,45720.5
47333.5,45720.5
47314.7,45719.6
47296.1,45716.8
47277.8,45712.3
47260.1,45705.9
47243,45697.9
47226.9,45688.2
47211.8,45677
47197.8,45664.3
47185.2,45650.4
47173.9,45635.2
47164.3,45619.1
47156.2,45602.1
47149.9,45584.3
47145.3,45566
47142.5,45547.4
47141.6,45528.6
47141.6,45085.7
47142.5,45066.9
47145.3,45048.2
47149.9,45030
47156.2,45012.2
47164.3,44995.2
47173.9,44979.1
47185.2,44963.9
47197.8,44950
47211.8,44937.3
47226.9,44926.1
47243,44916.4
47260.1,44908.4
47277.8,44902
47296.1,44897.4
47314.7,44894.7
47333.5,44893.8
47717.4,44893.8
Z" /> 
</g>
<g >
</g>
<g >
</g>
<g >
</g>
</g> 
</svg>
