<?xml version="1.0" standalone="no"?>
 <!DOCTYPE svg PUBLIC "-//W3C//DTD SVG 1.1//EN" 
 "http://www.w3.org/Graphics/SVG/1.1/DTD/svg11.dtd"> 
<svg
  xmlns:svg="http://www.w3.org/2000/svg"
  xmlns="http://www.w3.org/2000/svg"
  xmlns:xlink="http://www.w3.org/1999/xlink"
  version="1.1"
  width="29.700220cm" height="21.000720cm" viewBox="0 0 116930 82680">
<title>SVG Picture created as cargadorDeBateriasLitIon-47-F_CrtYd.svg date 2021/12/18 17:13:57 </title>
  <desc>Picture generated by PCBNEW </desc>
<g style="fill:#000000; fill-opacity:1;stroke:#000000; stroke-opacity:1;
stroke-linecap:round; stroke-linejoin:round;"
 transform="translate(0 0) scale(1 1)">
</g>
<g style="fill:#000000; fill-opacity:0.0; 
stroke:#000000; stroke-width:-0.000787402; stroke-opacity:1; 
stroke-linecap:round; stroke-linejoin:round;">
</g>
<g style="fill:#000000; fill-opacity:0.0; 
stroke:#000000; stroke-width:39.3701; stroke-opacity:1; 
stroke-linecap:round; stroke-linejoin:round;">
<path d="M66847 37196
L66847 47433
" />
<path d="M45194 37196
L45194 47433
" />
<path d="M45194 37196
L66847 37196
" />
<path d="M66847 47433
L45194 47433
" />
</g>
<g style="fill:#000000; fill-opacity:0.0; 
stroke:#000000; stroke-width:94.4882; stroke-opacity:1; 
stroke-linecap:round; stroke-linejoin:round;">
<path d="M51146 43330
L51146 40574
" />
<path d="M51146 40574
L53902 40574
" />
<path d="M53902 40574
L53902 43330
" />
<path d="M53902 43330
L51146 43330
" />
</g>
<g style="fill:#000000; fill-opacity:0.0; 
stroke:#000000; stroke-width:39.3701; stroke-opacity:1; 
stroke-linecap:round; stroke-linejoin:round;">
<path d="M59485 43259
L59485 46094
" />
<path d="M56493 43259
L59485 43259
" />
<path d="M56493 46094
L56493 43259
" />
<path d="M59485 46094
L56493 46094
" />
<path d="M62501 45842
L60170 45842
" />
<path d="M62501 44692
L62501 45842
" />
<path d="M60170 44692
L62501 44692
" />
<path d="M60170 45842
L60170 44692
" />
<path d="M60170 43315
L62501 43315
" />
<path d="M60170 44464
L60170 43315
" />
<path d="M62501 44464
L60170 44464
" />
<path d="M62501 43315
L62501 44464
" />
</g>
<g style="fill:#000000; fill-opacity:0.0; 
stroke:#000000; stroke-width:94.4882; stroke-opacity:1; 
stroke-linecap:round; stroke-linejoin:round;">
<path d="M61729 43102
L57005 43102
" />
<path d="M61729 37590
L61729 43102
" />
<path d="M57005 37590
L61729 37590
" />
<path d="M57005 43102
L57005 37590
" />
</g>
<g style="fill:#000000; fill-opacity:0.0; 
stroke:#000000; stroke-width:39.3701; stroke-opacity:1; 
stroke-linecap:round; stroke-linejoin:round;">
<path d="M62005 43063
L63816 43063
" />
<path d="M63816 39598
L63816 43063
" />
<path d="M62005 39598
L63816 39598
" />
<path d="M62005 43063
L62005 39598
" />
<path d="M62753 46000
L62753 43354
" />
<path d="M64249 46000
L62753 46000
" />
<path d="M64249 43354
L64249 46000
" />
<path d="M62753 43354
L64249 43354
" />
<path d="M56355 42881
L56355 45527
" />
<path d="M54859 42881
L56355 42881
" />
<path d="M54859 45527
L54859 42881
" />
<path d="M56355 45527
L54859 45527
" />
<path d="M65075 45661
L67044 45661
" />
<path d="M65075 45661
L65075 47629
" />
<path d="M67044 47629
L67044 45661
" />
<path d="M67044 47629
L65075 47629
" />
<path d="M51233 43803
L54461 43803
" />
<path d="M51233 43803
L51233 46480
" />
<path d="M54461 46480
L54461 43803
" />
<path d="M54461 46480
L51233 46480
" />
<path d="M65075 42905
L67044 42905
" />
<path d="M65075 42905
L65075 44874
" />
<path d="M67044 44874
L67044 42905
" />
<path d="M67044 44874
L65075 44874
" />
<path d="M65075 37000
L67044 37000
" />
<path d="M65075 37000
L65075 38968
" />
<path d="M67044 38968
L67044 37000
" />
<path d="M67044 38968
L65075 38968
" />
<path d="M65075 39755
L67044 39755
" />
<path d="M65075 39755
L65075 41724
" />
<path d="M67044 41724
L67044 39755
" />
<path d="M67044 41724
L65075 41724
" />
<path d="M44997 37000
L46965 37000
" />
<path d="M44997 37000
L44997 38968
" />
<path d="M46965 38968
L46965 37000
" />
<path d="M46965 38968
L44997 38968
" />
<path d="M44997 45267
L46965 45267
" />
<path d="M44997 45267
L44997 47236
" />
<path d="M46965 47236
L46965 45267
" />
<path d="M46965 47236
L44997 47236
" />
<path d="M46532 40346
L49367 40346
" />
<path d="M46532 43338
L46532 40346
" />
<path d="M49367 43338
L46532 43338
" />
<path d="M49367 40346
L49367 43338
" />
<path d="M55768 40275
L53438 40275
" />
<path d="M55768 39126
L55768 40275
" />
<path d="M53438 39126
L55768 39126
" />
<path d="M53438 40275
L53438 39126
" />
<path d="M54619 42771
L54619 40441
" />
<path d="M55768 42771
L54619 42771
" />
<path d="M55768 40441
L55768 42771
" />
<path d="M54619 40441
L55768 40441
" />
<path d="M49501 43165
L49501 40834
" />
<path d="M50650 43165
L49501 43165
" />
<path d="M50650 40834
L50650 43165
" />
<path d="M49501 40834
L50650 40834
" />
<path d="M49501 45842
L49501 43511
" />
<path d="M50650 45842
L49501 45842
" />
<path d="M50650 43511
L50650 45842
" />
<path d="M49501 43511
L50650 43511
" />
<path d="M47020 43472
L49351 43472
" />
<path d="M47020 44622
L47020 43472
" />
<path d="M49351 44622
L47020 44622
" />
<path d="M49351 43472
L49351 44622
" />
<path d="M51005 39126
L53335 39126
" />
<path d="M51005 40275
L51005 39126
" />
<path d="M53335 40275
L51005 40275
" />
<path d="M53335 39126
L53335 40275
" />
<path d="M48800 40212
L46469 40212
" />
<path d="M48800 39063
L48800 40212
" />
<path d="M46469 39063
L48800 39063
" />
<path d="M46469 40212
L46469 39063
" />
<path d="M49351 45881
L47020 45881
" />
<path d="M49351 44732
L49351 45881
" />
<path d="M47020 44732
L49351 44732
" />
<path d="M47020 45881
L47020 44732
" />
<g >
</g>
<g >
</g>
<g >
</g>
<g >
</g>
<g >
</g>
<g >
</g>
<g >
</g>
<g >
</g>
<g >
</g>
<g >
</g>
<g >
</g>
<g >
</g>
<g >
</g>
<g >
</g>
<g >
</g>
<g >
</g>
<g >
</g>
<g >
</g>
<g >
</g>
<g >
</g>
<g >
</g>
<g >
</g>
<g >
</g>
<g >
</g>
<g >
</g>
</g> 
</svg>
