M48
; DRILL file {KiCad (5.1.6)-1} date 12/19/20 22:24:43
; FORMAT={-:-/ absolute / inch / decimal}
; #@! TF.CreationDate,2020-12-19T22:24:43-05:00
; #@! TF.GenerationSoftware,Kicad,Pcbnew,(5.1.6)-1
; #@! TF.FileFunction,Plated,1,2,PTH
FMAT,2
INCH
T1C0.0157
T2C0.0276
%
G90
G05
T1
X5.7843Y-4.1378
X5.8583Y-4.4921
X5.9154Y-4.2618
X6.0337Y-4.3209
X6.122Y-4.2717
X6.2992Y-4.3898
X6.4075Y-4.1142
X6.4075Y-4.1535
X6.4075Y-4.1929
X6.4469Y-4.1142
X6.5354Y-4.0748
X6.5354Y-4.1142
X6.5748Y-4.1142
X6.6142Y-4.1142
T2
X5.6102Y-4.0551
X6.6142Y-4.4882
X6.6142Y-4.1929
X6.6142Y-4.0551
X6.6142Y-4.3504
X5.6102Y-4.4685
T0
M30
