<?xml version="1.0" standalone="no"?>
 <!DOCTYPE svg PUBLIC "-//W3C//DTD SVG 1.1//EN" 
 "http://www.w3.org/Graphics/SVG/1.1/DTD/svg11.dtd"> 
<svg
  xmlns:svg="http://www.w3.org/2000/svg"
  xmlns="http://www.w3.org/2000/svg"
  xmlns:xlink="http://www.w3.org/1999/xlink"
  version="1.1"
  width="29.700220cm" height="21.000720cm" viewBox="0 0 116930 82680">
<title>SVG Picture created as cargadorDeBateriasLitIon-F_Mask.svg date 2021/02/06 12:39:52 </title>
  <desc>Picture generated by PCBNEW </desc>
<g style="fill:#000000; fill-opacity:1;stroke:#000000; stroke-opacity:1;
stroke-linecap:round; stroke-linejoin:round;"
 transform="translate(0 0) scale(1 1)">
</g>
<g style="fill:#000000; fill-opacity:0.0; 
stroke:#000000; stroke-width:-0.000393701; stroke-opacity:1; 
stroke-linecap:round; stroke-linejoin:round;">
<g >
</g>
<g >
</g>
<g style="fill:#000000; fill-opacity:0.0; 
stroke:#000000; stroke-width:-0.000393701; stroke-opacity:1; 
stroke-linecap:round; stroke-linejoin:round;">
</g>
<g style="fill:#000000; fill-opacity:0.0; 
stroke:#000000; stroke-width:0; stroke-opacity:1; 
stroke-linecap:round; stroke-linejoin:round;">
</g>
<g style="fill:#000000; fill-opacity:1.0; 
stroke:#000000; stroke-width:0; stroke-opacity:1; 
stroke-linecap:round; stroke-linejoin:round;">
<path style="fill:#000000; fill-opacity:1.0; 
stroke:#000000; stroke-width:0; stroke-opacity:1; 
stroke-linecap:round; stroke-linejoin:round;fill-rule:evenodd;"
d="M 64982.3,44016.2
64991.7,44017.6
65000.8,44019.9
65009.7,44023.1
65018.2,44027.1
65026.2,44031.9
65033.8,44037.5
65040.8,44043.9
65047.1,44050.8
65052.7,44058.4
65057.6,44066.5
65061.6,44075
65064.8,44083.9
65067.1,44093
65068.4,44102.3
65068.9,44111.7
65068.9,44303.6
65068.4,44313
65067.1,44322.4
65064.8,44331.5
65061.6,44340.4
65057.6,44348.9
65052.7,44357
65047.1,44364.5
65040.8,44371.5
65033.8,44377.8
65026.2,44383.4
65018.2,44388.3
65009.7,44392.3
65000.8,44395.5
64991.7,44397.8
64982.3,44399.1
64972.9,44399.6
64751.5,44399.6
64742.1,44399.1
64732.8,44397.8
64723.6,44395.5
64714.8,44392.3
64706.2,44388.3
64698.2,44383.4
64690.6,44377.8
64683.6,44371.5
64677.3,44364.5
64671.7,44357
64666.8,44348.9
64662.8,44340.4
64659.6,44331.5
64657.4,44322.4
64656,44313
64655.5,44303.6
64655.5,44111.7
64656,44102.3
64657.4,44093
64659.6,44083.9
64662.8,44075
64666.8,44066.5
64671.7,44058.4
64677.3,44050.8
64683.6,44043.9
64690.6,44037.5
64698.2,44031.9
64706.2,44027.1
64714.8,44023.1
64723.6,44019.9
64732.8,44017.6
64742.1,44016.2
64751.5,44015.7
64972.9,44015.7
Z" /> 
<path style="fill:#000000; fill-opacity:1.0; 
stroke:#000000; stroke-width:0; stroke-opacity:1; 
stroke-linecap:round; stroke-linejoin:round;fill-rule:evenodd;"
d="M 64982.3,43396.1
64991.7,43397.5
65000.8,43399.8
65009.7,43403
65018.2,43407
65026.2,43411.8
65033.8,43417.5
65040.8,43423.8
65047.1,43430.8
65052.7,43438.3
65057.6,43446.4
65061.6,43454.9
65064.8,43463.8
65067.1,43472.9
65068.4,43482.2
65068.9,43491.6
65068.9,43683.6
65068.4,43693
65067.1,43702.3
65064.8,43711.4
65061.6,43720.3
65057.6,43728.8
65052.7,43736.9
65047.1,43744.4
65040.8,43751.4
65033.8,43757.7
65026.2,43763.4
65018.2,43768.2
65009.7,43772.2
65000.8,43775.4
64991.7,43777.7
64982.3,43779.1
64972.9,43779.5
64751.5,43779.5
64742.1,43779.1
64732.8,43777.7
64723.6,43775.4
64714.8,43772.2
64706.2,43768.2
64698.2,43763.4
64690.6,43757.7
64683.6,43751.4
64677.3,43744.4
64671.7,43736.9
64666.8,43728.8
64662.8,43720.3
64659.6,43711.4
64657.4,43702.3
64656,43693
64655.5,43683.6
64655.5,43491.6
64656,43482.2
64657.4,43472.9
64659.6,43463.8
64662.8,43454.9
64666.8,43446.4
64671.7,43438.3
64677.3,43430.8
64683.6,43423.8
64690.6,43417.5
64698.2,43411.8
64706.2,43407
64714.8,43403
64723.6,43399.8
64732.8,43397.5
64742.1,43396.1
64751.5,43395.7
64972.9,43395.7
Z" /> 
</g>
<g >
</g>
<g style="fill:#000000; fill-opacity:1.0; 
stroke:#000000; stroke-width:0; stroke-opacity:1; 
stroke-linecap:round; stroke-linejoin:round;">
<path style="fill:#000000; fill-opacity:1.0; 
stroke:#000000; stroke-width:0; stroke-opacity:1; 
stroke-linecap:round; stroke-linejoin:round;fill-rule:evenodd;"
d="M 59283.4,42874.1
59285.3,42874.4
59287.2,42874.9
59289,42875.5
59290.8,42876.3
59292.4,42877.3
59294,42878.5
59295.4,42879.8
59296.7,42881.2
59297.9,42882.8
59298.9,42884.4
59299.7,42886.2
59300.3,42888
59300.8,42889.9
59301.1,42891.8
59301.2,42893.7
59301.2,43287.4
59301.1,43289.3
59300.8,43291.2
59300.3,43293.1
59299.7,43294.9
59298.9,43296.7
59297.9,43298.3
59296.7,43299.9
59295.4,43301.3
59294,43302.6
59292.4,43303.8
59290.8,43304.8
59289,43305.6
59287.2,43306.2
59285.3,43306.7
59283.4,43307
59281.5,43307.1
59065,43307.1
59063,43307
59061.1,43306.7
59059.2,43306.2
59057.4,43305.6
59055.7,43304.8
59054,43303.8
59052.5,43302.6
59051,43301.3
59049.7,43299.9
59048.6,43298.3
59047.6,43296.7
59046.8,43294.9
59046.1,43293.1
59045.7,43291.2
59045.4,43289.3
59045.3,43287.4
59045.3,42893.7
59045.4,42891.8
59045.7,42889.9
59046.1,42888
59046.8,42886.2
59047.6,42884.4
59048.6,42882.8
59049.7,42881.2
59051,42879.8
59052.5,42878.5
59054,42877.3
59055.7,42876.3
59057.4,42875.5
59059.2,42874.9
59061.1,42874.4
59063,42874.1
59065,42874
59281.5,42874
Z" /> 
<path style="fill:#000000; fill-opacity:1.0; 
stroke:#000000; stroke-width:0; stroke-opacity:1; 
stroke-linecap:round; stroke-linejoin:round;fill-rule:evenodd;"
d="M 59657.4,42874.1
59659.4,42874.4
59661.2,42874.9
59663,42875.5
59664.8,42876.3
59666.4,42877.3
59668,42878.5
59669.4,42879.8
59670.7,42881.2
59671.9,42882.8
59672.9,42884.4
59673.7,42886.2
59674.3,42888
59674.8,42889.9
59675.1,42891.8
59675.2,42893.7
59675.2,43287.4
59675.1,43289.3
59674.8,43291.2
59674.3,43293.1
59673.7,43294.9
59672.9,43296.7
59671.9,43298.3
59670.7,43299.9
59669.4,43301.3
59668,43302.6
59666.4,43303.8
59664.8,43304.8
59663,43305.6
59661.2,43306.2
59659.4,43306.7
59657.4,43307
59655.5,43307.1
59439,43307.1
59437,43307
59435.1,43306.7
59433.3,43306.2
59431.4,43305.6
59429.7,43304.8
59428,43303.8
59426.5,43302.6
59425.1,43301.3
59423.8,43299.9
59422.6,43298.3
59421.6,43296.7
59420.8,43294.9
59420.1,43293.1
59419.7,43291.2
59419.4,43289.3
59419.3,43287.4
59419.3,42893.7
59419.4,42891.8
59419.7,42889.9
59420.1,42888
59420.8,42886.2
59421.6,42884.4
59422.6,42882.8
59423.8,42881.2
59425.1,42879.8
59426.5,42878.5
59428,42877.3
59429.7,42876.3
59431.4,42875.5
59433.3,42874.9
59435.1,42874.4
59437,42874.1
59439,42874
59655.5,42874
Z" /> 
<path style="fill:#000000; fill-opacity:1.0; 
stroke:#000000; stroke-width:0; stroke-opacity:1; 
stroke-linecap:round; stroke-linejoin:round;fill-rule:evenodd;"
d="M 60031.5,42874.1
60033.4,42874.4
60035.2,42874.9
60037.1,42875.5
60038.8,42876.3
60040.5,42877.3
60042,42878.5
60043.4,42879.8
60044.7,42881.2
60045.9,42882.8
60046.9,42884.4
60047.7,42886.2
60048.4,42888
60048.8,42889.9
60049.1,42891.8
60049.2,42893.7
60049.2,43287.4
60049.1,43289.3
60048.8,43291.2
60048.4,43293.1
60047.7,43294.9
60046.9,43296.7
60045.9,43298.3
60044.7,43299.9
60043.4,43301.3
60042,43302.6
60040.5,43303.8
60038.8,43304.8
60037.1,43305.6
60035.2,43306.2
60033.4,43306.7
60031.5,43307
60029.5,43307.1
59813,43307.1
59811.1,43307
59809.2,43306.7
59807.3,43306.2
59805.5,43305.6
59803.7,43304.8
59802.1,43303.8
59800.5,43302.6
59799.1,43301.3
59797.8,43299.9
59796.6,43298.3
59795.6,43296.7
59794.8,43294.9
59794.2,43293.1
59793.7,43291.2
59793.4,43289.3
59793.3,43287.4
59793.3,42893.7
59793.4,42891.8
59793.7,42889.9
59794.2,42888
59794.8,42886.2
59795.6,42884.4
59796.6,42882.8
59797.8,42881.2
59799.1,42879.8
59800.5,42878.5
59802.1,42877.3
59803.7,42876.3
59805.5,42875.5
59807.3,42874.9
59809.2,42874.4
59811.1,42874.1
59813,42874
60029.5,42874
Z" /> 
<path style="fill:#000000; fill-opacity:1.0; 
stroke:#000000; stroke-width:0; stroke-opacity:1; 
stroke-linecap:round; stroke-linejoin:round;fill-rule:evenodd;"
d="M 60031.5,41929.2
60033.4,41929.5
60035.2,41930
60037.1,41930.6
60038.8,41931.5
60040.5,41932.5
60042,41933.6
60043.4,41934.9
60044.7,41936.3
60045.9,41937.9
60046.9,41939.5
60047.7,41941.3
60048.4,41943.1
60048.8,41945
60049.1,41946.9
60049.2,41948.8
60049.2,42342.5
60049.1,42344.4
60048.8,42346.4
60048.4,42348.2
60047.7,42350.1
60046.9,42351.8
60045.9,42353.5
60044.7,42355
60043.4,42356.4
60042,42357.7
60040.5,42358.9
60038.8,42359.9
60037.1,42360.7
60035.2,42361.4
60033.4,42361.8
60031.5,42362.1
60029.5,42362.2
59813,42362.2
59811.1,42362.1
59809.2,42361.8
59807.3,42361.4
59805.5,42360.7
59803.7,42359.9
59802.1,42358.9
59800.5,42357.7
59799.1,42356.4
59797.8,42355
59796.6,42353.5
59795.6,42351.8
59794.8,42350.1
59794.2,42348.2
59793.7,42346.4
59793.4,42344.4
59793.3,42342.5
59793.3,41948.8
59793.4,41946.9
59793.7,41945
59794.2,41943.1
59794.8,41941.3
59795.6,41939.5
59796.6,41937.9
59797.8,41936.3
59799.1,41934.9
59800.5,41933.6
59802.1,41932.5
59803.7,41931.5
59805.5,41930.6
59807.3,41930
59809.2,41929.5
59811.1,41929.2
59813,41929.1
60029.5,41929.1
Z" /> 
<path style="fill:#000000; fill-opacity:1.0; 
stroke:#000000; stroke-width:0; stroke-opacity:1; 
stroke-linecap:round; stroke-linejoin:round;fill-rule:evenodd;"
d="M 59657.4,41929.2
59659.4,41929.5
59661.2,41930
59663,41930.6
59664.8,41931.5
59666.4,41932.5
59668,41933.6
59669.4,41934.9
59670.7,41936.3
59671.9,41937.9
59672.9,41939.5
59673.7,41941.3
59674.3,41943.1
59674.8,41945
59675.1,41946.9
59675.2,41948.8
59675.2,42342.5
59675.1,42344.4
59674.8,42346.4
59674.3,42348.2
59673.7,42350.1
59672.9,42351.8
59671.9,42353.5
59670.7,42355
59669.4,42356.4
59668,42357.7
59666.4,42358.9
59664.8,42359.9
59663,42360.7
59661.2,42361.4
59659.4,42361.8
59657.4,42362.1
59655.5,42362.2
59439,42362.2
59437,42362.1
59435.1,42361.8
59433.3,42361.4
59431.4,42360.7
59429.7,42359.9
59428,42358.9
59426.5,42357.7
59425.1,42356.4
59423.8,42355
59422.6,42353.5
59421.6,42351.8
59420.8,42350.1
59420.1,42348.2
59419.7,42346.4
59419.4,42344.4
59419.3,42342.5
59419.3,41948.8
59419.4,41946.9
59419.7,41945
59420.1,41943.1
59420.8,41941.3
59421.6,41939.5
59422.6,41937.9
59423.8,41936.3
59425.1,41934.9
59426.5,41933.6
59428,41932.5
59429.7,41931.5
59431.4,41930.6
59433.3,41930
59435.1,41929.5
59437,41929.2
59439,41929.1
59655.5,41929.1
Z" /> 
<path style="fill:#000000; fill-opacity:1.0; 
stroke:#000000; stroke-width:0; stroke-opacity:1; 
stroke-linecap:round; stroke-linejoin:round;fill-rule:evenodd;"
d="M 59283.4,41929.2
59285.3,41929.5
59287.2,41930
59289,41930.6
59290.8,41931.5
59292.4,41932.5
59294,41933.6
59295.4,41934.9
59296.7,41936.3
59297.9,41937.9
59298.9,41939.5
59299.7,41941.3
59300.3,41943.1
59300.8,41945
59301.1,41946.9
59301.2,41948.8
59301.2,42342.5
59301.1,42344.4
59300.8,42346.4
59300.3,42348.2
59299.7,42350.1
59298.9,42351.8
59297.9,42353.5
59296.7,42355
59295.4,42356.4
59294,42357.7
59292.4,42358.9
59290.8,42359.9
59289,42360.7
59287.2,42361.4
59285.3,42361.8
59283.4,42362.1
59281.5,42362.2
59065,42362.2
59063,42362.1
59061.1,42361.8
59059.2,42361.4
59057.4,42360.7
59055.7,42359.9
59054,42358.9
59052.5,42357.7
59051,42356.4
59049.7,42355
59048.6,42353.5
59047.6,42351.8
59046.8,42350.1
59046.1,42348.2
59045.7,42346.4
59045.4,42344.4
59045.3,42342.5
59045.3,41948.8
59045.4,41946.9
59045.7,41945
59046.1,41943.1
59046.8,41941.3
59047.6,41939.5
59048.6,41937.9
59049.7,41936.3
59051,41934.9
59052.5,41933.6
59054,41932.5
59055.7,41931.5
59057.4,41930.6
59059.2,41930
59061.1,41929.5
59063,41929.2
59065,41929.1
59281.5,41929.1
Z" /> 
</g>
<g >
</g>
<g style="fill:#000000; fill-opacity:1.0; 
stroke:#000000; stroke-width:0; stroke-opacity:1; 
stroke-linecap:round; stroke-linejoin:round;">
<path style="fill:#000000; fill-opacity:1.0; 
stroke:#000000; stroke-width:0; stroke-opacity:1; 
stroke-linecap:round; stroke-linejoin:round;fill-rule:evenodd;"
d="M 61883.8,44124.1
61885.7,44124.4
61887.6,44124.9
61889.4,44125.5
61891.2,44126.3
61892.8,44127.3
61894.4,44128.5
61895.8,44129.8
61897.1,44131.2
61898.3,44132.8
61899.3,44134.4
61900.1,44136.2
61900.7,44138
61901.2,44139.9
61901.5,44141.8
61901.6,44143.7
61901.6,44399.6
61901.5,44401.5
61901.2,44403.4
61900.7,44405.3
61900.1,44407.1
61899.3,44408.9
61898.3,44410.5
61897.1,44412.1
61895.8,44413.5
61894.4,44414.8
61892.8,44416
61891.2,44417
61889.4,44417.8
61887.6,44418.4
61885.7,44418.9
61883.8,44419.2
61881.9,44419.3
61464.6,44419.3
61462.6,44419.2
61460.7,44418.9
61458.9,44418.4
61457,44417.8
61455.3,44417
61453.6,44416
61452.1,44414.8
61450.6,44413.5
61449.3,44412.1
61448.2,44410.5
61447.2,44408.9
61446.4,44407.1
61445.7,44405.3
61445.3,44403.4
61445,44401.5
61444.9,44399.6
61444.9,44143.7
61445,44141.8
61445.3,44139.9
61445.7,44138
61446.4,44136.2
61447.2,44134.4
61448.2,44132.8
61449.3,44131.2
61450.6,44129.8
61452.1,44128.5
61453.6,44127.3
61455.3,44126.3
61457,44125.5
61458.9,44124.9
61460.7,44124.4
61462.6,44124.1
61464.6,44124
61881.9,44124
Z" /> 
<path style="fill:#000000; fill-opacity:1.0; 
stroke:#000000; stroke-width:0; stroke-opacity:1; 
stroke-linecap:round; stroke-linejoin:round;fill-rule:evenodd;"
d="M 61883.8,43376.1
61885.7,43376.4
61887.6,43376.8
61889.4,43377.5
61891.2,43378.3
61892.8,43379.3
61894.4,43380.5
61895.8,43381.8
61897.1,43383.2
61898.3,43384.7
61899.3,43386.4
61900.1,43388.1
61900.7,43390
61901.2,43391.8
61901.5,43393.7
61901.6,43395.7
61901.6,43651.6
61901.5,43653.5
61901.2,43655.4
61900.7,43657.3
61900.1,43659.1
61899.3,43660.9
61898.3,43662.5
61897.1,43664.1
61895.8,43665.5
61894.4,43666.8
61892.8,43667.9
61891.2,43668.9
61889.4,43669.8
61887.6,43670.4
61885.7,43670.9
61883.8,43671.2
61881.9,43671.3
61464.6,43671.3
61462.6,43671.2
61460.7,43670.9
61458.9,43670.4
61457,43669.8
61455.3,43668.9
61453.6,43667.9
61452.1,43666.8
61450.6,43665.5
61449.3,43664.1
61448.2,43662.5
61447.2,43660.9
61446.4,43659.1
61445.7,43657.3
61445.3,43655.4
61445,43653.5
61444.9,43651.6
61444.9,43395.7
61445,43393.7
61445.3,43391.8
61445.7,43390
61446.4,43388.1
61447.2,43386.4
61448.2,43384.7
61449.3,43383.2
61450.6,43381.8
61452.1,43380.5
61453.6,43379.3
61455.3,43378.3
61457,43377.5
61458.9,43376.8
61460.7,43376.4
61462.6,43376.1
61464.6,43376
61881.9,43376
Z" /> 
<path style="fill:#000000; fill-opacity:1.0; 
stroke:#000000; stroke-width:0; stroke-opacity:1; 
stroke-linecap:round; stroke-linejoin:round;fill-rule:evenodd;"
d="M 62750,43376.1
62751.9,43376.4
62753.7,43376.8
62755.6,43377.5
62757.3,43378.3
62759,43379.3
62760.5,43380.5
62762,43381.8
62763.2,43383.2
62764.4,43384.7
62765.4,43386.4
62766.2,43388.1
62766.9,43390
62767.3,43391.8
62767.6,43393.7
62767.7,43395.7
62767.7,43651.6
62767.6,43653.5
62767.3,43655.4
62766.9,43657.3
62766.2,43659.1
62765.4,43660.9
62764.4,43662.5
62763.2,43664.1
62762,43665.5
62760.5,43666.8
62759,43667.9
62757.3,43668.9
62755.6,43669.8
62753.7,43670.4
62751.9,43670.9
62750,43671.2
62748,43671.3
62330.7,43671.3
62328.8,43671.2
62326.9,43670.9
62325,43670.4
62323.2,43669.8
62321.4,43668.9
62319.8,43667.9
62318.2,43666.8
62316.8,43665.5
62315.5,43664.1
62314.3,43662.5
62313.3,43660.9
62312.5,43659.1
62311.9,43657.3
62311.4,43655.4
62311.1,43653.5
62311,43651.6
62311,43395.7
62311.1,43393.7
62311.4,43391.8
62311.9,43390
62312.5,43388.1
62313.3,43386.4
62314.3,43384.7
62315.5,43383.2
62316.8,43381.8
62318.2,43380.5
62319.8,43379.3
62321.4,43378.3
62323.2,43377.5
62325,43376.8
62326.9,43376.4
62328.8,43376.1
62330.7,43376
62748,43376
Z" /> 
<path style="fill:#000000; fill-opacity:1.0; 
stroke:#000000; stroke-width:0; stroke-opacity:1; 
stroke-linecap:round; stroke-linejoin:round;fill-rule:evenodd;"
d="M 62750,43750.1
62751.9,43750.4
62753.7,43750.8
62755.6,43751.5
62757.3,43752.3
62759,43753.3
62760.5,43754.5
62762,43755.8
62763.2,43757.2
62764.4,43758.7
62765.4,43760.4
62766.2,43762.2
62766.9,43764
62767.3,43765.8
62767.6,43767.8
62767.7,43769.7
62767.7,44025.6
62767.6,44027.5
62767.3,44029.4
62766.9,44031.3
62766.2,44033.1
62765.4,44034.9
62764.4,44036.5
62763.2,44038.1
62762,44039.5
62760.5,44040.8
62759,44042
62757.3,44043
62755.6,44043.8
62753.7,44044.4
62751.9,44044.9
62750,44045.2
62748,44045.3
62330.7,44045.3
62328.8,44045.2
62326.9,44044.9
62325,44044.4
62323.2,44043.8
62321.4,44043
62319.8,44042
62318.2,44040.8
62316.8,44039.5
62315.5,44038.1
62314.3,44036.5
62313.3,44034.9
62312.5,44033.1
62311.9,44031.3
62311.4,44029.4
62311.1,44027.5
62311,44025.6
62311,43769.7
62311.1,43767.8
62311.4,43765.8
62311.9,43764
62312.5,43762.2
62313.3,43760.4
62314.3,43758.7
62315.5,43757.2
62316.8,43755.8
62318.2,43754.5
62319.8,43753.3
62321.4,43752.3
62323.2,43751.5
62325,43750.8
62326.9,43750.4
62328.8,43750.1
62330.7,43750
62748,43750
Z" /> 
<path style="fill:#000000; fill-opacity:1.0; 
stroke:#000000; stroke-width:0; stroke-opacity:1; 
stroke-linecap:round; stroke-linejoin:round;fill-rule:evenodd;"
d="M 62750,44124.1
62751.9,44124.4
62753.7,44124.9
62755.6,44125.5
62757.3,44126.3
62759,44127.3
62760.5,44128.5
62762,44129.8
62763.2,44131.2
62764.4,44132.8
62765.4,44134.4
62766.2,44136.2
62766.9,44138
62767.3,44139.9
62767.6,44141.8
62767.7,44143.7
62767.7,44399.6
62767.6,44401.5
62767.3,44403.4
62766.9,44405.3
62766.2,44407.1
62765.4,44408.9
62764.4,44410.5
62763.2,44412.1
62762,44413.5
62760.5,44414.8
62759,44416
62757.3,44417
62755.6,44417.8
62753.7,44418.4
62751.9,44418.9
62750,44419.2
62748,44419.3
62330.7,44419.3
62328.8,44419.2
62326.9,44418.9
62325,44418.4
62323.2,44417.8
62321.4,44417
62319.8,44416
62318.2,44414.8
62316.8,44413.5
62315.5,44412.1
62314.3,44410.5
62313.3,44408.9
62312.5,44407.1
62311.9,44405.3
62311.4,44403.4
62311.1,44401.5
62311,44399.6
62311,44143.7
62311.1,44141.8
62311.4,44139.9
62311.9,44138
62312.5,44136.2
62313.3,44134.4
62314.3,44132.8
62315.5,44131.2
62316.8,44129.8
62318.2,44128.5
62319.8,44127.3
62321.4,44126.3
62323.2,44125.5
62325,44124.9
62326.9,44124.4
62328.8,44124.1
62330.7,44124
62748,44124
Z" /> 
</g>
<g >
</g>
<g style="fill:#000000; fill-opacity:1.0; 
stroke:#000000; stroke-width:0; stroke-opacity:1; 
stroke-linecap:round; stroke-linejoin:round;">
<path style="fill:#000000; fill-opacity:1.0; 
stroke:#000000; stroke-width:0; stroke-opacity:1; 
stroke-linecap:round; stroke-linejoin:round;fill-rule:evenodd;"
d="M 64194.9,43986.7
64204.3,43988.1
64213.4,43990.4
64222.3,43993.5
64230.8,43997.6
64238.8,44002.4
64246.4,44008
64253.4,44014.3
64259.7,44021.3
64265.3,44028.9
64270.2,44036.9
64274.2,44045.5
64277.4,44054.3
64279.7,44063.5
64281,44072.8
64281.5,44082.2
64281.5,44303.6
64281,44313
64279.7,44322.4
64277.4,44331.5
64274.2,44340.4
64270.2,44348.9
64265.3,44357
64259.7,44364.5
64253.4,44371.5
64246.4,44377.8
64238.8,44383.4
64230.8,44388.3
64222.3,44392.3
64213.4,44395.5
64204.3,44397.8
64194.9,44399.1
64185.5,44399.6
63993.6,44399.6
63984.2,44399.1
63974.9,44397.8
63965.7,44395.5
63956.9,44392.3
63948.4,44388.3
63940.3,44383.4
63932.7,44377.8
63925.7,44371.5
63919.4,44364.5
63913.8,44357
63909,44348.9
63904.9,44340.4
63901.8,44331.5
63899.5,44322.4
63898.1,44313
63897.6,44303.6
63897.6,44082.2
63898.1,44072.8
63899.5,44063.5
63901.8,44054.3
63904.9,44045.5
63909,44036.9
63913.8,44028.9
63919.4,44021.3
63925.7,44014.3
63932.7,44008
63940.3,44002.4
63948.4,43997.6
63956.9,43993.5
63965.7,43990.4
63974.9,43988.1
63984.2,43986.7
63993.6,43986.2
64185.5,43986.2
Z" /> 
<path style="fill:#000000; fill-opacity:1.0; 
stroke:#000000; stroke-width:0; stroke-opacity:1; 
stroke-linecap:round; stroke-linejoin:round;fill-rule:evenodd;"
d="M 63574.9,43986.7
63584.2,43988.1
63593.3,43990.4
63602.2,43993.5
63610.7,43997.6
63618.8,44002.4
63626.3,44008
63633.3,44014.3
63639.6,44021.3
63645.2,44028.9
63650.1,44036.9
63654.1,44045.5
63657.3,44054.3
63659.6,44063.5
63661,44072.8
63661.4,44082.2
63661.4,44303.6
63661,44313
63659.6,44322.4
63657.3,44331.5
63654.1,44340.4
63650.1,44348.9
63645.2,44357
63639.6,44364.5
63633.3,44371.5
63626.3,44377.8
63618.8,44383.4
63610.7,44388.3
63602.2,44392.3
63593.3,44395.5
63584.2,44397.8
63574.9,44399.1
63565.5,44399.6
63373.5,44399.6
63364.1,44399.1
63354.8,44397.8
63345.7,44395.5
63336.8,44392.3
63328.3,44388.3
63320.2,44383.4
63312.6,44377.8
63305.7,44371.5
63299.3,44364.5
63293.7,44357
63288.9,44348.9
63284.9,44340.4
63281.7,44331.5
63279.4,44322.4
63278,44313
63277.6,44303.6
63277.6,44082.2
63278,44072.8
63279.4,44063.5
63281.7,44054.3
63284.9,44045.5
63288.9,44036.9
63293.7,44028.9
63299.3,44021.3
63305.7,44014.3
63312.6,44008
63320.2,44002.4
63328.3,43997.6
63336.8,43993.5
63345.7,43990.4
63354.8,43988.1
63364.1,43986.7
63373.5,43986.2
63565.5,43986.2
Z" /> 
</g>
<g >
</g>
<g style="fill:#000000; fill-opacity:1.0; 
stroke:#000000; stroke-width:0; stroke-opacity:1; 
stroke-linecap:round; stroke-linejoin:round;">
<path style="fill:#000000; fill-opacity:1.0; 
stroke:#000000; stroke-width:0; stroke-opacity:1; 
stroke-linecap:round; stroke-linejoin:round;fill-rule:evenodd;"
d="M 63574.9,43297.7
63584.2,43299.1
63593.3,43301.4
63602.2,43304.5
63610.7,43308.6
63618.8,43313.4
63626.3,43319
63633.3,43325.4
63639.6,43332.3
63645.2,43339.9
63650.1,43348
63654.1,43356.5
63657.3,43365.4
63659.6,43374.5
63661,43383.8
63661.4,43393.2
63661.4,43614.7
63661,43624.1
63659.6,43633.4
63657.3,43642.5
63654.1,43651.4
63650.1,43659.9
63645.2,43668
63639.6,43675.5
63633.3,43682.5
63626.3,43688.8
63618.8,43694.5
63610.7,43699.3
63602.2,43703.3
63593.3,43706.5
63584.2,43708.8
63574.9,43710.2
63565.5,43710.6
63373.5,43710.6
63364.1,43710.2
63354.8,43708.8
63345.7,43706.5
63336.8,43703.3
63328.3,43699.3
63320.2,43694.5
63312.6,43688.8
63305.7,43682.5
63299.3,43675.5
63293.7,43668
63288.9,43659.9
63284.9,43651.4
63281.7,43642.5
63279.4,43633.4
63278,43624.1
63277.6,43614.7
63277.6,43393.2
63278,43383.8
63279.4,43374.5
63281.7,43365.4
63284.9,43356.5
63288.9,43348
63293.7,43339.9
63299.3,43332.3
63305.7,43325.4
63312.6,43319
63320.2,43313.4
63328.3,43308.6
63336.8,43304.5
63345.7,43301.4
63354.8,43299.1
63364.1,43297.7
63373.5,43297.2
63565.5,43297.2
Z" /> 
<path style="fill:#000000; fill-opacity:1.0; 
stroke:#000000; stroke-width:0; stroke-opacity:1; 
stroke-linecap:round; stroke-linejoin:round;fill-rule:evenodd;"
d="M 64194.9,43297.7
64204.3,43299.1
64213.4,43301.4
64222.3,43304.5
64230.8,43308.6
64238.8,43313.4
64246.4,43319
64253.4,43325.4
64259.7,43332.3
64265.3,43339.9
64270.2,43348
64274.2,43356.5
64277.4,43365.4
64279.7,43374.5
64281,43383.8
64281.5,43393.2
64281.5,43614.7
64281,43624.1
64279.7,43633.4
64277.4,43642.5
64274.2,43651.4
64270.2,43659.9
64265.3,43668
64259.7,43675.5
64253.4,43682.5
64246.4,43688.8
64238.8,43694.5
64230.8,43699.3
64222.3,43703.3
64213.4,43706.5
64204.3,43708.8
64194.9,43710.2
64185.5,43710.6
63993.6,43710.6
63984.2,43710.2
63974.9,43708.8
63965.7,43706.5
63956.9,43703.3
63948.4,43699.3
63940.3,43694.5
63932.7,43688.8
63925.7,43682.5
63919.4,43675.5
63913.8,43668
63909,43659.9
63904.9,43651.4
63901.8,43642.5
63899.5,43633.4
63898.1,43624.1
63897.6,43614.7
63897.6,43393.2
63898.1,43383.8
63899.5,43374.5
63901.8,43365.4
63904.9,43356.5
63909,43348
63913.8,43339.9
63919.4,43332.3
63925.7,43325.4
63932.7,43319
63940.3,43313.4
63948.4,43308.6
63956.9,43304.5
63965.7,43301.4
63974.9,43299.1
63984.2,43297.7
63993.6,43297.2
64185.5,43297.2
Z" /> 
</g>
<g >
</g>
<g style="fill:#000000; fill-opacity:1.0; 
stroke:#000000; stroke-width:0; stroke-opacity:1; 
stroke-linecap:round; stroke-linejoin:round;">
<path style="fill:#000000; fill-opacity:1.0; 
stroke:#000000; stroke-width:0; stroke-opacity:1; 
stroke-linecap:round; stroke-linejoin:round;fill-rule:evenodd;"
d="M 63801.1,40826.9
63803.1,40827.2
63804.9,40827.6
63806.7,40828.3
63808.5,40829.1
63810.1,40830.1
63811.7,40831.2
63813.1,40832.5
63814.4,40834
63815.6,40835.5
63816.6,40837.2
63817.4,40838.9
63818,40840.7
63818.5,40842.6
63818.8,40844.5
63818.9,40846.5
63818.9,42618.1
63818.8,42620
63818.5,42622
63818,42623.8
63817.4,42625.6
63816.6,42627.4
63815.6,42629
63814.4,42630.6
63813.1,42632
63811.7,42633.3
63810.1,42634.5
63808.5,42635.5
63806.7,42636.3
63804.9,42636.9
63803.1,42637.4
63801.1,42637.7
63799.2,42637.8
63090.6,42637.8
63088.6,42637.7
63086.7,42637.4
63084.8,42636.9
63083,42636.3
63081.3,42635.5
63079.6,42634.5
63078.1,42633.3
63076.6,42632
63075.3,42630.6
63074.2,42629
63073.2,42627.4
63072.4,42625.6
63071.7,42623.8
63071.2,42622
63071,42620
63070.9,42618.1
63070.9,40846.5
63071,40844.5
63071.2,40842.6
63071.7,40840.7
63072.4,40838.9
63073.2,40837.2
63074.2,40835.5
63075.3,40834
63076.6,40832.5
63078.1,40831.2
63079.6,40830.1
63081.3,40829.1
63083,40828.3
63084.8,40827.6
63086.7,40827.2
63088.6,40826.9
63090.6,40826.8
63799.2,40826.8
Z" /> 
<path style="fill:#000000; fill-opacity:1.0; 
stroke:#000000; stroke-width:0; stroke-opacity:1; 
stroke-linecap:round; stroke-linejoin:round;fill-rule:evenodd;"
d="M 62501.9,40826.9
62503.8,40827.2
62505.7,40827.6
62507.5,40828.3
62509.3,40829.1
62510.9,40830.1
62512.5,40831.2
62513.9,40832.5
62515.2,40834
62516.4,40835.5
62517.4,40837.2
62518.2,40838.9
62518.8,40840.7
62519.3,40842.6
62519.6,40844.5
62519.7,40846.5
62519.7,42618.1
62519.6,42620
62519.3,42622
62518.8,42623.8
62518.2,42625.6
62517.4,42627.4
62516.4,42629
62515.2,42630.6
62513.9,42632
62512.5,42633.3
62510.9,42634.5
62509.3,42635.5
62507.5,42636.3
62505.7,42636.9
62503.8,42637.4
62501.9,42637.7
62500,42637.8
61791.3,42637.8
61789.4,42637.7
61787.5,42637.4
61785.6,42636.9
61783.8,42636.3
61782.1,42635.5
61780.4,42634.5
61778.9,42633.3
61777.4,42632
61776.1,42630.6
61775,42629
61774,42627.4
61773.2,42625.6
61772.5,42623.8
61772,42622
61771.7,42620
61771.7,42618.1
61771.7,40846.5
61771.7,40844.5
61772,40842.6
61772.5,40840.7
61773.2,40838.9
61774,40837.2
61775,40835.5
61776.1,40834
61777.4,40832.5
61778.9,40831.2
61780.4,40830.1
61782.1,40829.1
61783.8,40828.3
61785.6,40827.6
61787.5,40827.2
61789.4,40826.9
61791.3,40826.8
62500,40826.8
Z" /> 
</g>
<g >
</g>
<g style="fill:#000000; fill-opacity:1.0; 
stroke:#000000; stroke-width:0; stroke-opacity:1; 
stroke-linecap:round; stroke-linejoin:round;">
<path style="fill:#000000; fill-opacity:1.0; 
stroke:#000000; stroke-width:0; stroke-opacity:1; 
stroke-linecap:round; stroke-linejoin:round;fill-rule:evenodd;"
d="M 64785.4,41437.1
64787.3,41437.4
64789.2,41437.9
64791,41438.5
64792.7,41439.3
64794.4,41440.3
64796,41441.5
64797.4,41442.8
64798.7,41444.2
64799.8,41445.8
64800.8,41447.4
64801.7,41449.2
64802.3,41451
64802.8,41452.9
64803.1,41454.8
64803.1,41456.7
64803.1,41889.8
64803.1,41891.7
64802.8,41893.6
64802.3,41895.5
64801.7,41897.3
64800.8,41899
64799.8,41900.7
64798.7,41902.3
64797.4,41903.7
64796,41905
64794.4,41906.1
64792.7,41907.1
64791,41908
64789.2,41908.6
64787.3,41909.1
64785.4,41909.4
64783.5,41909.4
64350.4,41909.4
64348.5,41909.4
64346.6,41909.1
64344.7,41908.6
64342.9,41908
64341.1,41907.1
64339.5,41906.1
64337.9,41905
64336.5,41903.7
64335.2,41902.3
64334,41900.7
64333,41899
64332.2,41897.3
64331.6,41895.5
64331.1,41893.6
64330.8,41891.7
64330.7,41889.8
64330.7,41456.7
64330.8,41454.8
64331.1,41452.9
64331.6,41451
64332.2,41449.2
64333,41447.4
64334,41445.8
64335.2,41444.2
64336.5,41442.8
64337.9,41441.5
64339.5,41440.3
64341.1,41439.3
64342.9,41438.5
64344.7,41437.9
64346.6,41437.4
64348.5,41437.1
64350.4,41437
64783.5,41437
Z" /> 
<path style="fill:#000000; fill-opacity:1.0; 
stroke:#000000; stroke-width:0; stroke-opacity:1; 
stroke-linecap:round; stroke-linejoin:round;fill-rule:evenodd;"
d="M 64785.4,42539.5
64787.3,42539.7
64789.2,42540.2
64791,42540.9
64792.7,42541.7
64794.4,42542.7
64796,42543.8
64797.4,42545.1
64798.7,42546.6
64799.8,42548.1
64800.8,42549.8
64801.7,42551.5
64802.3,42553.3
64802.8,42555.2
64803.1,42557.1
64803.1,42559.1
64803.1,42992.1
64803.1,42994.1
64802.8,42996
64802.3,42997.8
64801.7,42999.7
64800.8,43001.4
64799.8,43003.1
64798.7,43004.6
64797.4,43006
64796,43007.3
64794.4,43008.5
64792.7,43009.5
64791,43010.3
64789.2,43011
64787.3,43011.4
64785.4,43011.7
64783.5,43011.8
64350.4,43011.8
64348.5,43011.7
64346.6,43011.4
64344.7,43011
64342.9,43010.3
64341.1,43009.5
64339.5,43008.5
64337.9,43007.3
64336.5,43006
64335.2,43004.6
64334,43003.1
64333,43001.4
64332.2,42999.7
64331.6,42997.8
64331.1,42996
64330.8,42994.1
64330.7,42992.1
64330.7,42559.1
64330.8,42557.1
64331.1,42555.2
64331.6,42553.3
64332.2,42551.5
64333,42549.8
64334,42548.1
64335.2,42546.6
64336.5,42545.1
64337.9,42543.8
64339.5,42542.7
64341.1,42541.7
64342.9,42540.9
64344.7,42540.2
64346.6,42539.7
64348.5,42539.5
64350.4,42539.4
64783.5,42539.4
Z" /> 
</g>
<g >
</g>
<g style="fill:#000000; fill-opacity:1.0; 
stroke:#000000; stroke-width:0; stroke-opacity:1; 
stroke-linecap:round; stroke-linejoin:round;">
<path style="fill:#000000; fill-opacity:1.0; 
stroke:#000000; stroke-width:0; stroke-opacity:1; 
stroke-linecap:round; stroke-linejoin:round;fill-rule:evenodd;"
d="M 61115.2,43081.2
61125.5,43082.7
61135.5,43085.3
61145.3,43088.8
61154.7,43093.2
61163.6,43098.5
61171.9,43104.7
61179.6,43111.7
61186.6,43119.4
61192.8,43127.7
61198.1,43136.6
61202.6,43146
61206.1,43155.8
61208.6,43165.9
61210.1,43176.1
61210.6,43186.5
61210.6,43398.1
61210.1,43408.5
61208.6,43418.8
61206.1,43428.8
61202.6,43438.6
61198.1,43448
61192.8,43456.9
61186.6,43465.3
61179.6,43472.9
61171.9,43479.9
61163.6,43486.1
61154.7,43491.4
61145.3,43495.9
61135.5,43499.4
61125.5,43501.9
61115.2,43503.4
61104.8,43503.9
60725.9,43503.9
60715.5,43503.4
60705.2,43501.9
60695.2,43499.4
60685.4,43495.9
60676,43491.4
60667.1,43486.1
60658.8,43479.9
60651.1,43472.9
60644.1,43465.3
60637.9,43456.9
60632.6,43448
60628.1,43438.6
60624.6,43428.8
60622.1,43418.8
60620.6,43408.5
60620.1,43398.1
60620.1,43186.5
60620.6,43176.1
60622.1,43165.9
60624.6,43155.8
60628.1,43146
60632.6,43136.6
60637.9,43127.7
60644.1,43119.4
60651.1,43111.7
60658.8,43104.7
60667.1,43098.5
60676,43093.2
60685.4,43088.8
60695.2,43085.3
60705.2,43082.7
60715.5,43081.2
60725.9,43080.7
61104.8,43080.7
Z" /> 
<path style="fill:#000000; fill-opacity:1.0; 
stroke:#000000; stroke-width:0; stroke-opacity:1; 
stroke-linecap:round; stroke-linejoin:round;fill-rule:evenodd;"
d="M 61115.2,43819.4
61125.5,43820.9
61135.5,43823.5
61145.3,43827
61154.7,43831.4
61163.6,43836.7
61171.9,43842.9
61179.6,43849.9
61186.6,43857.6
61192.8,43865.9
61198.1,43874.8
61202.6,43884.2
61206.1,43894
61208.6,43904.1
61210.1,43914.3
61210.6,43924.7
61210.6,44136.3
61210.1,44146.7
61208.6,44157
61206.1,44167
61202.6,44176.8
61198.1,44186.2
61192.8,44195.1
61186.6,44203.4
61179.6,44211.1
61171.9,44218.1
61163.6,44224.3
61154.7,44229.6
61145.3,44234.1
61135.5,44237.6
61125.5,44240.1
61115.2,44241.6
61104.8,44242.1
60725.9,44242.1
60715.5,44241.6
60705.2,44240.1
60695.2,44237.6
60685.4,44234.1
60676,44229.6
60667.1,44224.3
60658.8,44218.1
60651.1,44211.1
60644.1,44203.4
60637.9,44195.1
60632.6,44186.2
60628.1,44176.8
60624.6,44167
60622.1,44157
60620.6,44146.7
60620.1,44136.3
60620.1,43924.7
60620.6,43914.3
60622.1,43904.1
60624.6,43894
60628.1,43884.2
60632.6,43874.8
60637.9,43865.9
60644.1,43857.6
60651.1,43849.9
60658.8,43842.9
60667.1,43836.7
60676,43831.4
60685.4,43827
60695.2,43823.5
60705.2,43820.9
60715.5,43819.4
60725.9,43818.9
61104.8,43818.9
Z" /> 
</g>
<g >
</g>
<g style="fill:#000000; fill-opacity:1.0; 
stroke:#000000; stroke-width:0; stroke-opacity:1; 
stroke-linecap:round; stroke-linejoin:round;">
<path style="fill:#000000; fill-opacity:1.0; 
stroke:#000000; stroke-width:0; stroke-opacity:1; 
stroke-linecap:round; stroke-linejoin:round;fill-rule:evenodd;"
d="M 66438.9,44567
66440.8,44567.3
66442.7,44567.8
66444.5,44568.4
66446.3,44569.3
66447.9,44570.2
66449.5,44571.4
66450.9,44572.7
66452.2,44574.1
66453.4,44575.7
66454.4,44577.3
66455.2,44579.1
66455.8,44580.9
66456.3,44582.8
66456.6,44584.7
66456.7,44586.6
66456.7,45177.2
66456.6,45179.1
66456.3,45181
66455.8,45182.9
66455.2,45184.7
66454.4,45186.4
66453.4,45188.1
66452.2,45189.7
66450.9,45191.1
66449.5,45192.4
66447.9,45193.5
66446.3,45194.5
66444.5,45195.4
66442.7,45196
66440.8,45196.5
66438.9,45196.8
66437,45196.9
65846.5,45196.9
65844.5,45196.8
65842.6,45196.5
65840.7,45196
65838.9,45195.4
65837.2,45194.5
65835.5,45193.5
65834,45192.4
65832.5,45191.1
65831.2,45189.7
65830.1,45188.1
65829.1,45186.4
65828.3,45184.7
65827.6,45182.9
65827.1,45181
65826.9,45179.1
65826.8,45177.2
65826.8,44586.6
65826.9,44584.7
65827.1,44582.8
65827.6,44580.9
65828.3,44579.1
65829.1,44577.3
65830.1,44575.7
65831.2,44574.1
65832.5,44572.7
65834,44571.4
65835.5,44570.2
65837.2,44569.3
65838.9,44568.4
65840.7,44567.8
65842.6,44567.3
65844.5,44567
65846.5,44566.9
66437,44566.9
Z" /> 
</g>
<g >
</g>
<g style="fill:#000000; fill-opacity:1.0; 
stroke:#000000; stroke-width:0; stroke-opacity:1; 
stroke-linecap:round; stroke-linejoin:round;">
<path style="fill:#000000; fill-opacity:1.0; 
stroke:#000000; stroke-width:0; stroke-opacity:1; 
stroke-linecap:round; stroke-linejoin:round;fill-rule:evenodd;"
d="M 60246,43972.5
60247.9,43972.8
60249.8,43973.3
60251.6,43973.9
60253.4,43974.8
60255,43975.8
60256.6,43976.9
60258,43978.2
60259.3,43979.6
60260.5,43981.2
60261.5,43982.8
60262.3,43984.6
60262.9,43986.4
60263.4,43988.3
60263.7,43990.2
60263.8,43992.1
60263.8,44267.7
60263.7,44269.6
60263.4,44271.6
60262.9,44273.4
60262.3,44275.2
60261.5,44277
60260.5,44278.7
60259.3,44280.2
60258,44281.6
60256.6,44282.9
60255,44284.1
60253.4,44285.1
60251.6,44285.9
60249.8,44286.6
60247.9,44287
60246,44287.3
60244.1,44287.4
59850.4,44287.4
59848.5,44287.3
59846.6,44287
59844.7,44286.6
59842.9,44285.9
59841.1,44285.1
59839.5,44284.1
59837.9,44282.9
59836.5,44281.6
59835.2,44280.2
59834,44278.7
59833,44277
59832.2,44275.2
59831.6,44273.4
59831.1,44271.6
59830.8,44269.6
59830.7,44267.7
59830.7,43992.1
59830.8,43990.2
59831.1,43988.3
59831.6,43986.4
59832.2,43984.6
59833,43982.8
59834,43981.2
59835.2,43979.6
59836.5,43978.2
59837.9,43976.9
59839.5,43975.8
59841.1,43974.8
59842.9,43973.9
59844.7,43973.3
59846.6,43972.8
59848.5,43972.5
59850.4,43972.4
60244.1,43972.4
Z" /> 
<path style="fill:#000000; fill-opacity:1.0; 
stroke:#000000; stroke-width:0; stroke-opacity:1; 
stroke-linecap:round; stroke-linejoin:round;fill-rule:evenodd;"
d="M 60246,43598.5
60247.9,43598.8
60249.8,43599.3
60251.6,43599.9
60253.4,43600.7
60255,43601.7
60256.6,43602.9
60258,43604.2
60259.3,43605.6
60260.5,43607.2
60261.5,43608.8
60262.3,43610.6
60262.9,43612.4
60263.4,43614.3
60263.7,43616.2
60263.8,43618.1
60263.8,43893.7
60263.7,43895.6
60263.4,43897.5
60262.9,43899.4
60262.3,43901.2
60261.5,43903
60260.5,43904.6
60259.3,43906.2
60258,43907.6
60256.6,43908.9
60255,43910.1
60253.4,43911.1
60251.6,43911.9
60249.8,43912.5
60247.9,43913
60246,43913.3
60244.1,43913.4
59850.4,43913.4
59848.5,43913.3
59846.6,43913
59844.7,43912.5
59842.9,43911.9
59841.1,43911.1
59839.5,43910.1
59837.9,43908.9
59836.5,43907.6
59835.2,43906.2
59834,43904.6
59833,43903
59832.2,43901.2
59831.6,43899.4
59831.1,43897.5
59830.8,43895.6
59830.7,43893.7
59830.7,43618.1
59830.8,43616.2
59831.1,43614.3
59831.6,43612.4
59832.2,43610.6
59833,43608.8
59834,43607.2
59835.2,43605.6
59836.5,43604.2
59837.9,43602.9
59839.5,43601.7
59841.1,43600.7
59842.9,43599.9
59844.7,43599.3
59846.6,43598.8
59848.5,43598.5
59850.4,43598.4
60244.1,43598.4
Z" /> 
<path style="fill:#000000; fill-opacity:1.0; 
stroke:#000000; stroke-width:0; stroke-opacity:1; 
stroke-linecap:round; stroke-linejoin:round;fill-rule:evenodd;"
d="M 60246,44346.6
60247.9,44346.8
60249.8,44347.3
60251.6,44348
60253.4,44348.8
60255,44349.8
60256.6,44350.9
60258,44352.2
60259.3,44353.7
60260.5,44355.2
60261.5,44356.9
60262.3,44358.6
60262.9,44360.4
60263.4,44362.3
60263.7,44364.2
60263.8,44366.1
60263.8,44641.7
60263.7,44643.7
60263.4,44645.6
60262.9,44647.4
60262.3,44649.3
60261.5,44651
60260.5,44652.7
60259.3,44654.2
60258,44655.7
60256.6,44656.9
60255,44658.1
60253.4,44659.1
60251.6,44659.9
60249.8,44660.6
60247.9,44661
60246,44661.3
60244.1,44661.4
59850.4,44661.4
59848.5,44661.3
59846.6,44661
59844.7,44660.6
59842.9,44659.9
59841.1,44659.1
59839.5,44658.1
59837.9,44656.9
59836.5,44655.7
59835.2,44654.2
59834,44652.7
59833,44651
59832.2,44649.3
59831.6,44647.4
59831.1,44645.6
59830.8,44643.7
59830.7,44641.7
59830.7,44366.1
59830.8,44364.2
59831.1,44362.3
59831.6,44360.4
59832.2,44358.6
59833,44356.9
59834,44355.2
59835.2,44353.7
59836.5,44352.2
59837.9,44350.9
59839.5,44349.8
59841.1,44348.8
59842.9,44348
59844.7,44347.3
59846.6,44346.8
59848.5,44346.6
59850.4,44346.5
60244.1,44346.5
Z" /> 
<path style="fill:#000000; fill-opacity:1.0; 
stroke:#000000; stroke-width:0; stroke-opacity:1; 
stroke-linecap:round; stroke-linejoin:round;fill-rule:evenodd;"
d="M 59222.4,44346.6
59224.3,44346.8
59226.2,44347.3
59228,44348
59229.8,44348.8
59231.4,44349.8
59233,44350.9
59234.4,44352.2
59235.7,44353.7
59236.8,44355.2
59237.8,44356.9
59238.7,44358.6
59239.3,44360.4
59239.8,44362.3
59240.1,44364.2
59240.2,44366.1
59240.2,44641.7
59240.1,44643.7
59239.8,44645.6
59239.3,44647.4
59238.7,44649.3
59237.8,44651
59236.8,44652.7
59235.7,44654.2
59234.4,44655.7
59233,44656.9
59231.4,44658.1
59229.8,44659.1
59228,44659.9
59226.2,44660.6
59224.3,44661
59222.4,44661.3
59220.5,44661.4
58826.8,44661.4
58824.8,44661.3
58822.9,44661
58821.1,44660.6
58819.2,44659.9
58817.5,44659.1
58815.8,44658.1
58814.3,44656.9
58812.9,44655.7
58811.6,44654.2
58810.4,44652.7
58809.4,44651
58808.6,44649.3
58807.9,44647.4
58807.5,44645.6
58807.2,44643.7
58807.1,44641.7
58807.1,44366.1
58807.2,44364.2
58807.5,44362.3
58807.9,44360.4
58808.6,44358.6
58809.4,44356.9
58810.4,44355.2
58811.6,44353.7
58812.9,44352.2
58814.3,44350.9
58815.8,44349.8
58817.5,44348.8
58819.2,44348
58821.1,44347.3
58822.9,44346.8
58824.8,44346.6
58826.8,44346.5
59220.5,44346.5
Z" /> 
<path style="fill:#000000; fill-opacity:1.0; 
stroke:#000000; stroke-width:0; stroke-opacity:1; 
stroke-linecap:round; stroke-linejoin:round;fill-rule:evenodd;"
d="M 59222.4,43972.5
59224.3,43972.8
59226.2,43973.3
59228,43973.9
59229.8,43974.8
59231.4,43975.8
59233,43976.9
59234.4,43978.2
59235.7,43979.6
59236.8,43981.2
59237.8,43982.8
59238.7,43984.6
59239.3,43986.4
59239.8,43988.3
59240.1,43990.2
59240.2,43992.1
59240.2,44267.7
59240.1,44269.6
59239.8,44271.6
59239.3,44273.4
59238.7,44275.2
59237.8,44277
59236.8,44278.7
59235.7,44280.2
59234.4,44281.6
59233,44282.9
59231.4,44284.1
59229.8,44285.1
59228,44285.9
59226.2,44286.6
59224.3,44287
59222.4,44287.3
59220.5,44287.4
58826.8,44287.4
58824.8,44287.3
58822.9,44287
58821.1,44286.6
58819.2,44285.9
58817.5,44285.1
58815.8,44284.1
58814.3,44282.9
58812.9,44281.6
58811.6,44280.2
58810.4,44278.7
58809.4,44277
58808.6,44275.2
58807.9,44273.4
58807.5,44271.6
58807.2,44269.6
58807.1,44267.7
58807.1,43992.1
58807.2,43990.2
58807.5,43988.3
58807.9,43986.4
58808.6,43984.6
58809.4,43982.8
58810.4,43981.2
58811.6,43979.6
58812.9,43978.2
58814.3,43976.9
58815.8,43975.8
58817.5,43974.8
58819.2,43973.9
58821.1,43973.3
58822.9,43972.8
58824.8,43972.5
58826.8,43972.4
59220.5,43972.4
Z" /> 
<path style="fill:#000000; fill-opacity:1.0; 
stroke:#000000; stroke-width:0; stroke-opacity:1; 
stroke-linecap:round; stroke-linejoin:round;fill-rule:evenodd;"
d="M 59222.4,43598.5
59224.3,43598.8
59226.2,43599.3
59228,43599.9
59229.8,43600.7
59231.4,43601.7
59233,43602.9
59234.4,43604.2
59235.7,43605.6
59236.8,43607.2
59237.8,43608.8
59238.7,43610.6
59239.3,43612.4
59239.8,43614.3
59240.1,43616.2
59240.2,43618.1
59240.2,43893.7
59240.1,43895.6
59239.8,43897.5
59239.3,43899.4
59238.7,43901.2
59237.8,43903
59236.8,43904.6
59235.7,43906.2
59234.4,43907.6
59233,43908.9
59231.4,43910.1
59229.8,43911.1
59228,43911.9
59226.2,43912.5
59224.3,43913
59222.4,43913.3
59220.5,43913.4
58826.8,43913.4
58824.8,43913.3
58822.9,43913
58821.1,43912.5
58819.2,43911.9
58817.5,43911.1
58815.8,43910.1
58814.3,43908.9
58812.9,43907.6
58811.6,43906.2
58810.4,43904.6
58809.4,43903
58808.6,43901.2
58807.9,43899.4
58807.5,43897.5
58807.2,43895.6
58807.1,43893.7
58807.1,43618.1
58807.2,43616.2
58807.5,43614.3
58807.9,43612.4
58808.6,43610.6
58809.4,43608.8
58810.4,43607.2
58811.6,43605.6
58812.9,43604.2
58814.3,43602.9
58815.8,43601.7
58817.5,43600.7
58819.2,43599.9
58821.1,43599.3
58822.9,43598.8
58824.8,43598.5
58826.8,43598.4
59220.5,43598.4
Z" /> 
</g>
<g >
</g>
<g style="fill:#000000; fill-opacity:1.0; 
stroke:#000000; stroke-width:0; stroke-opacity:1; 
stroke-linecap:round; stroke-linejoin:round;">
<path style="fill:#000000; fill-opacity:1.0; 
stroke:#000000; stroke-width:0; stroke-opacity:1; 
stroke-linecap:round; stroke-linejoin:round;fill-rule:evenodd;"
d="M 66438.9,43189.1
66440.8,43189.4
66442.7,43189.8
66444.5,43190.5
66446.3,43191.3
66447.9,43192.3
66449.5,43193.4
66450.9,43194.7
66452.2,43196.2
66453.4,43197.7
66454.4,43199.4
66455.2,43201.1
66455.8,43202.9
66456.3,43204.8
66456.6,43206.7
66456.7,43208.7
66456.7,43799.2
66456.6,43801.1
66456.3,43803.1
66455.8,43804.9
66455.2,43806.7
66454.4,43808.5
66453.4,43810.1
66452.2,43811.7
66450.9,43813.1
66449.5,43814.4
66447.9,43815.6
66446.3,43816.6
66444.5,43817.4
66442.7,43818.1
66440.8,43818.5
66438.9,43818.8
66437,43818.9
65846.5,43818.9
65844.5,43818.8
65842.6,43818.5
65840.7,43818.1
65838.9,43817.4
65837.2,43816.6
65835.5,43815.6
65834,43814.4
65832.5,43813.1
65831.2,43811.7
65830.1,43810.1
65829.1,43808.5
65828.3,43806.7
65827.6,43804.9
65827.1,43803.1
65826.9,43801.1
65826.8,43799.2
65826.8,43208.7
65826.9,43206.7
65827.1,43204.8
65827.6,43202.9
65828.3,43201.1
65829.1,43199.4
65830.1,43197.7
65831.2,43196.2
65832.5,43194.7
65834,43193.4
65835.5,43192.3
65837.2,43191.3
65838.9,43190.5
65840.7,43189.8
65842.6,43189.4
65844.5,43189.1
65846.5,43189
66437,43189
Z" /> 
</g>
<g >
</g>
<g style="fill:#000000; fill-opacity:1.0; 
stroke:#000000; stroke-width:0; stroke-opacity:1; 
stroke-linecap:round; stroke-linejoin:round;">
<path style="fill:#000000; fill-opacity:1.0; 
stroke:#000000; stroke-width:0; stroke-opacity:1; 
stroke-linecap:round; stroke-linejoin:round;fill-rule:evenodd;"
d="M 66438.9,40236.3
66440.8,40236.6
66442.7,40237.1
66444.5,40237.7
66446.3,40238.5
66447.9,40239.5
66449.5,40240.7
66450.9,40242
66452.2,40243.4
66453.4,40245
66454.4,40246.6
66455.2,40248.4
66455.8,40250.2
66456.3,40252.1
66456.6,40254
66456.7,40255.9
66456.7,40846.5
66456.6,40848.4
66456.3,40850.3
66455.8,40852.2
66455.2,40854
66454.4,40855.7
66453.4,40857.4
66452.2,40858.9
66450.9,40860.4
66449.5,40861.7
66447.9,40862.8
66446.3,40863.8
66444.5,40864.6
66442.7,40865.3
66440.8,40865.8
66438.9,40866
66437,40866.1
65846.5,40866.1
65844.5,40866
65842.6,40865.8
65840.7,40865.3
65838.9,40864.6
65837.2,40863.8
65835.5,40862.8
65834,40861.7
65832.5,40860.4
65831.2,40858.9
65830.1,40857.4
65829.1,40855.7
65828.3,40854
65827.6,40852.2
65827.1,40850.3
65826.9,40848.4
65826.8,40846.5
65826.8,40255.9
65826.9,40254
65827.1,40252.1
65827.6,40250.2
65828.3,40248.4
65829.1,40246.6
65830.1,40245
65831.2,40243.4
65832.5,40242
65834,40240.7
65835.5,40239.5
65837.2,40238.5
65838.9,40237.7
65840.7,40237.1
65842.6,40236.6
65844.5,40236.3
65846.5,40236.2
66437,40236.2
Z" /> 
</g>
<g >
</g>
<g style="fill:#000000; fill-opacity:1.0; 
stroke:#000000; stroke-width:0; stroke-opacity:1; 
stroke-linecap:round; stroke-linejoin:round;">
<path style="fill:#000000; fill-opacity:1.0; 
stroke:#000000; stroke-width:0; stroke-opacity:1; 
stroke-linecap:round; stroke-linejoin:round;fill-rule:evenodd;"
d="M 66438.9,41614.3
66440.8,41614.6
66442.7,41615
66444.5,41615.7
66446.3,41616.5
66447.9,41617.5
66449.5,41618.6
66450.9,41619.9
66452.2,41621.4
66453.4,41622.9
66454.4,41624.6
66455.2,41626.3
66455.8,41628.1
66456.3,41630
66456.6,41631.9
66456.7,41633.9
66456.7,42224.4
66456.6,42226.3
66456.3,42228.2
66455.8,42230.1
66455.2,42231.9
66454.4,42233.7
66453.4,42235.3
66452.2,42236.9
66450.9,42238.3
66449.5,42239.6
66447.9,42240.8
66446.3,42241.8
66444.5,42242.6
66442.7,42243.2
66440.8,42243.7
66438.9,42244
66437,42244.1
65846.5,42244.1
65844.5,42244
65842.6,42243.7
65840.7,42243.2
65838.9,42242.6
65837.2,42241.8
65835.5,42240.8
65834,42239.6
65832.5,42238.3
65831.2,42236.9
65830.1,42235.3
65829.1,42233.7
65828.3,42231.9
65827.6,42230.1
65827.1,42228.2
65826.9,42226.3
65826.8,42224.4
65826.8,41633.9
65826.9,41631.9
65827.1,41630
65827.6,41628.1
65828.3,41626.3
65829.1,41624.6
65830.1,41622.9
65831.2,41621.4
65832.5,41619.9
65834,41618.6
65835.5,41617.5
65837.2,41616.5
65838.9,41615.7
65840.7,41615
65842.6,41614.6
65844.5,41614.3
65846.5,41614.2
66437,41614.2
Z" /> 
</g>
<g >
</g>
<g style="fill:#000000; fill-opacity:1.0; 
stroke:#000000; stroke-width:0; stroke-opacity:1; 
stroke-linecap:round; stroke-linejoin:round;">
<path style="fill:#000000; fill-opacity:1.0; 
stroke:#000000; stroke-width:0; stroke-opacity:1; 
stroke-linecap:round; stroke-linejoin:round;fill-rule:evenodd;"
d="M 56399.6,40236.3
56401.5,40236.6
56403.4,40237.1
56405.2,40237.7
56406.9,40238.5
56408.6,40239.5
56410.1,40240.7
56411.6,40242
56412.9,40243.4
56414,40245
56415,40246.6
56415.8,40248.4
56416.5,40250.2
56416.9,40252.1
56417.2,40254
56417.3,40255.9
56417.3,40846.5
56417.2,40848.4
56416.9,40850.3
56416.5,40852.2
56415.8,40854
56415,40855.7
56414,40857.4
56412.9,40858.9
56411.6,40860.4
56410.1,40861.7
56408.6,40862.8
56406.9,40863.8
56405.2,40864.6
56403.4,40865.3
56401.5,40865.8
56399.6,40866
56397.6,40866.1
55807.1,40866.1
55805.2,40866
55803.2,40865.8
55801.4,40865.3
55799.6,40864.6
55797.8,40863.8
55796.2,40862.8
55794.6,40861.7
55793.2,40860.4
55791.9,40858.9
55790.7,40857.4
55789.7,40855.7
55788.9,40854
55788.2,40852.2
55787.8,40850.3
55787.5,40848.4
55787.4,40846.5
55787.4,40255.9
55787.5,40254
55787.8,40252.1
55788.2,40250.2
55788.9,40248.4
55789.7,40246.6
55790.7,40245
55791.9,40243.4
55793.2,40242
55794.6,40240.7
55796.2,40239.5
55797.8,40238.5
55799.6,40237.7
55801.4,40237.1
55803.2,40236.6
55805.2,40236.3
55807.1,40236.2
56397.6,40236.2
Z" /> 
</g>
<g >
</g>
<g style="fill:#000000; fill-opacity:1.0; 
stroke:#000000; stroke-width:0; stroke-opacity:1; 
stroke-linecap:round; stroke-linejoin:round;">
<path style="fill:#000000; fill-opacity:1.0; 
stroke:#000000; stroke-width:0; stroke-opacity:1; 
stroke-linecap:round; stroke-linejoin:round;fill-rule:evenodd;"
d="M 56399.6,44370.2
56401.5,44370.5
56403.4,44370.9
56405.2,44371.6
56406.9,44372.4
56408.6,44373.4
56410.1,44374.5
56411.6,44375.8
56412.9,44377.3
56414,44378.8
56415,44380.5
56415.8,44382.2
56416.5,44384
56416.9,44385.9
56417.2,44387.8
56417.3,44389.8
56417.3,44980.3
56417.2,44982.2
56416.9,44984.2
56416.5,44986
56415.8,44987.8
56415,44989.6
56414,44991.3
56412.9,44992.8
56411.6,44994.2
56410.1,44995.5
56408.6,44996.7
56406.9,44997.7
56405.2,44998.5
56403.4,44999.2
56401.5,44999.6
56399.6,44999.9
56397.6,45000
55807.1,45000
55805.2,44999.9
55803.2,44999.6
55801.4,44999.2
55799.6,44998.5
55797.8,44997.7
55796.2,44996.7
55794.6,44995.5
55793.2,44994.2
55791.9,44992.8
55790.7,44991.3
55789.7,44989.6
55788.9,44987.8
55788.2,44986
55787.8,44984.2
55787.5,44982.2
55787.4,44980.3
55787.4,44389.8
55787.5,44387.8
55787.8,44385.9
55788.2,44384
55788.9,44382.2
55789.7,44380.5
55790.7,44378.8
55791.9,44377.3
55793.2,44375.8
55794.6,44374.5
55796.2,44373.4
55797.8,44372.4
55799.6,44371.6
55801.4,44370.9
55803.2,44370.5
55805.2,44370.2
55807.1,44370.1
56397.6,44370.1
Z" /> 
</g>
<g >
</g>
<g style="fill:#000000; fill-opacity:1.0; 
stroke:#000000; stroke-width:0; stroke-opacity:1; 
stroke-linecap:round; stroke-linejoin:round;">
<path style="fill:#000000; fill-opacity:1.0; 
stroke:#000000; stroke-width:0; stroke-opacity:1; 
stroke-linecap:round; stroke-linejoin:round;fill-rule:evenodd;"
d="M 57590.5,42685.1
57592.4,42685.4
57594.3,42685.9
57596.1,42686.5
57597.9,42687.4
57599.5,42688.4
57601.1,42689.5
57602.5,42690.8
57603.8,42692.2
57604.9,42693.8
57605.9,42695.4
57606.8,42697.2
57607.4,42699
57607.9,42700.9
57608.2,42702.8
57608.3,42704.7
57608.3,43122
57608.2,43124
57607.9,43125.9
57607.4,43127.8
57606.8,43129.6
57605.9,43131.3
57604.9,43133
57603.8,43134.5
57602.5,43136
57601.1,43137.3
57599.5,43138.4
57597.9,43139.4
57596.1,43140.2
57594.3,43140.9
57592.4,43141.4
57590.5,43141.6
57588.6,43141.7
57332.7,43141.7
57330.7,43141.6
57328.8,43141.4
57327,43140.9
57325.1,43140.2
57323.4,43139.4
57321.7,43138.4
57320.2,43137.3
57318.8,43136
57317.5,43134.5
57316.3,43133
57315.3,43131.3
57314.5,43129.6
57313.8,43127.8
57313.4,43125.9
57313.1,43124
57313,43122
57313,42704.7
57313.1,42702.8
57313.4,42700.9
57313.8,42699
57314.5,42697.2
57315.3,42695.4
57316.3,42693.8
57317.5,42692.2
57318.8,42690.8
57320.2,42689.5
57321.7,42688.4
57323.4,42687.4
57325.1,42686.5
57327,42685.9
57328.8,42685.4
57330.7,42685.1
57332.7,42685
57588.6,42685
Z" /> 
<path style="fill:#000000; fill-opacity:1.0; 
stroke:#000000; stroke-width:0; stroke-opacity:1; 
stroke-linecap:round; stroke-linejoin:round;fill-rule:evenodd;"
d="M 56842.5,42685.1
56844.4,42685.4
56846.3,42685.9
56848.1,42686.5
56849.8,42687.4
56851.5,42688.4
56853,42689.5
56854.5,42690.8
56855.8,42692.2
56856.9,42693.8
56857.9,42695.4
56858.7,42697.2
56859.4,42699
56859.9,42700.9
56860.1,42702.8
56860.2,42704.7
56860.2,43122
56860.1,43124
56859.9,43125.9
56859.4,43127.8
56858.7,43129.6
56857.9,43131.3
56856.9,43133
56855.8,43134.5
56854.5,43136
56853,43137.3
56851.5,43138.4
56849.8,43139.4
56848.1,43140.2
56846.3,43140.9
56844.4,43141.4
56842.5,43141.6
56840.6,43141.7
56584.6,43141.7
56582.7,43141.6
56580.8,43141.4
56578.9,43140.9
56577.1,43140.2
56575.4,43139.4
56573.7,43138.4
56572.2,43137.3
56570.7,43136
56569.4,43134.5
56568.3,43133
56567.3,43131.3
56566.5,43129.6
56565.8,43127.8
56565.3,43125.9
56565.1,43124
56565,43122
56565,42704.7
56565.1,42702.8
56565.3,42700.9
56565.8,42699
56566.5,42697.2
56567.3,42695.4
56568.3,42693.8
56569.4,42692.2
56570.7,42690.8
56572.2,42689.5
56573.7,42688.4
56575.4,42687.4
56577.1,42686.5
56578.9,42685.9
56580.8,42685.4
56582.7,42685.1
56584.6,42685
56840.6,42685
Z" /> 
<path style="fill:#000000; fill-opacity:1.0; 
stroke:#000000; stroke-width:0; stroke-opacity:1; 
stroke-linecap:round; stroke-linejoin:round;fill-rule:evenodd;"
d="M 56842.5,41819
56844.4,41819.3
56846.3,41819.7
56848.1,41820.4
56849.8,41821.2
56851.5,41822.2
56853,41823.4
56854.5,41824.7
56855.8,41826.1
56856.9,41827.6
56857.9,41829.3
56858.7,41831
56859.4,41832.9
56859.9,41834.7
56860.1,41836.7
56860.2,41838.6
56860.2,42255.9
56860.1,42257.8
56859.9,42259.7
56859.4,42261.6
56858.7,42263.4
56857.9,42265.2
56856.9,42266.8
56855.8,42268.4
56854.5,42269.8
56853,42271.1
56851.5,42272.3
56849.8,42273.3
56848.1,42274.1
56846.3,42274.7
56844.4,42275.2
56842.5,42275.5
56840.6,42275.6
56584.6,42275.6
56582.7,42275.5
56580.8,42275.2
56578.9,42274.7
56577.1,42274.1
56575.4,42273.3
56573.7,42272.3
56572.2,42271.1
56570.7,42269.8
56569.4,42268.4
56568.3,42266.8
56567.3,42265.2
56566.5,42263.4
56565.8,42261.6
56565.3,42259.7
56565.1,42257.8
56565,42255.9
56565,41838.6
56565.1,41836.7
56565.3,41834.7
56565.8,41832.9
56566.5,41831
56567.3,41829.3
56568.3,41827.6
56569.4,41826.1
56570.7,41824.7
56572.2,41823.4
56573.7,41822.2
56575.4,41821.2
56577.1,41820.4
56578.9,41819.7
56580.8,41819.3
56582.7,41819
56584.6,41818.9
56840.6,41818.9
Z" /> 
<path style="fill:#000000; fill-opacity:1.0; 
stroke:#000000; stroke-width:0; stroke-opacity:1; 
stroke-linecap:round; stroke-linejoin:round;fill-rule:evenodd;"
d="M 57216.5,41819
57218.4,41819.3
57220.3,41819.7
57222.1,41820.4
57223.8,41821.2
57225.5,41822.2
57227.1,41823.4
57228.5,41824.7
57229.8,41826.1
57230.9,41827.6
57231.9,41829.3
57232.8,41831
57233.4,41832.9
57233.9,41834.7
57234.2,41836.7
57234.3,41838.6
57234.3,42255.9
57234.2,42257.8
57233.9,42259.7
57233.4,42261.6
57232.8,42263.4
57231.9,42265.2
57230.9,42266.8
57229.8,42268.4
57228.5,42269.8
57227.1,42271.1
57225.5,42272.3
57223.8,42273.3
57222.1,42274.1
57220.3,42274.7
57218.4,42275.2
57216.5,42275.5
57214.6,42275.6
56958.7,42275.6
56956.7,42275.5
56954.8,42275.2
56952.9,42274.7
56951.1,42274.1
56949.4,42273.3
56947.7,42272.3
56946.2,42271.1
56944.7,42269.8
56943.4,42268.4
56942.3,42266.8
56941.3,42265.2
56940.5,42263.4
56939.8,42261.6
56939.4,42259.7
56939.1,42257.8
56939,42255.9
56939,41838.6
56939.1,41836.7
56939.4,41834.7
56939.8,41832.9
56940.5,41831
56941.3,41829.3
56942.3,41827.6
56943.4,41826.1
56944.7,41824.7
56946.2,41823.4
56947.7,41822.2
56949.4,41821.2
56951.1,41820.4
56952.9,41819.7
56954.8,41819.3
56956.7,41819
56958.7,41818.9
57214.6,41818.9
Z" /> 
<path style="fill:#000000; fill-opacity:1.0; 
stroke:#000000; stroke-width:0; stroke-opacity:1; 
stroke-linecap:round; stroke-linejoin:round;fill-rule:evenodd;"
d="M 57590.5,41819
57592.4,41819.3
57594.3,41819.7
57596.1,41820.4
57597.9,41821.2
57599.5,41822.2
57601.1,41823.4
57602.5,41824.7
57603.8,41826.1
57604.9,41827.6
57605.9,41829.3
57606.8,41831
57607.4,41832.9
57607.9,41834.7
57608.2,41836.7
57608.3,41838.6
57608.3,42255.9
57608.2,42257.8
57607.9,42259.7
57607.4,42261.6
57606.8,42263.4
57605.9,42265.2
57604.9,42266.8
57603.8,42268.4
57602.5,42269.8
57601.1,42271.1
57599.5,42272.3
57597.9,42273.3
57596.1,42274.1
57594.3,42274.7
57592.4,42275.2
57590.5,42275.5
57588.6,42275.6
57332.7,42275.6
57330.7,42275.5
57328.8,42275.2
57327,42274.7
57325.1,42274.1
57323.4,42273.3
57321.7,42272.3
57320.2,42271.1
57318.8,42269.8
57317.5,42268.4
57316.3,42266.8
57315.3,42265.2
57314.5,42263.4
57313.8,42261.6
57313.4,42259.7
57313.1,42257.8
57313,42255.9
57313,41838.6
57313.1,41836.7
57313.4,41834.7
57313.8,41832.9
57314.5,41831
57315.3,41829.3
57316.3,41827.6
57317.5,41826.1
57318.8,41824.7
57320.2,41823.4
57321.7,41822.2
57323.4,41821.2
57325.1,41820.4
57327,41819.7
57328.8,41819.3
57330.7,41819
57332.7,41818.9
57588.6,41818.9
Z" /> 
</g>
<g >
</g>
<g style="fill:#000000; fill-opacity:1.0; 
stroke:#000000; stroke-width:0; stroke-opacity:1; 
stroke-linecap:round; stroke-linejoin:round;">
<path style="fill:#000000; fill-opacity:1.0; 
stroke:#000000; stroke-width:0; stroke-opacity:1; 
stroke-linecap:round; stroke-linejoin:round;fill-rule:evenodd;"
d="M 60828.8,41203.2
60838.1,41204.6
60847.2,41206.9
60856.1,41210.1
60864.6,41214.1
60872.7,41218.9
60880.3,41224.5
60887.2,41230.9
60893.6,41237.8
60899.2,41245.4
60904,41253.5
60908,41262
60911.2,41270.9
60913.5,41280
60914.9,41289.3
60915.4,41298.7
60915.4,41520.2
60914.9,41529.6
60913.5,41538.9
60911.2,41548
60908,41556.9
60904,41565.4
60899.2,41573.5
60893.6,41581.1
60887.2,41588
60880.3,41594.4
60872.7,41600
60864.6,41604.8
60856.1,41608.8
60847.2,41612
60838.1,41614.3
60828.8,41615.7
60819.4,41616.1
60627.5,41616.1
60618.1,41615.7
60608.7,41614.3
60599.6,41612
60590.7,41608.8
60582.2,41604.8
60574.1,41600
60566.6,41594.4
60559.6,41588
60553.3,41581.1
60547.7,41573.5
60542.8,41565.4
60538.8,41556.9
60535.6,41548
60533.3,41538.9
60532,41529.6
60531.5,41520.2
60531.5,41298.7
60532,41289.3
60533.3,41280
60535.6,41270.9
60538.8,41262
60542.8,41253.5
60547.7,41245.4
60553.3,41237.8
60559.6,41230.9
60566.6,41224.5
60574.1,41218.9
60582.2,41214.1
60590.7,41210.1
60599.6,41206.9
60608.7,41204.6
60618.1,41203.2
60627.5,41202.8
60819.4,41202.8
Z" /> 
<path style="fill:#000000; fill-opacity:1.0; 
stroke:#000000; stroke-width:0; stroke-opacity:1; 
stroke-linecap:round; stroke-linejoin:round;fill-rule:evenodd;"
d="M 60208.7,41203.2
60218,41204.6
60227.2,41206.9
60236,41210.1
60244.5,41214.1
60252.6,41218.9
60260.2,41224.5
60267.2,41230.9
60273.5,41237.8
60279.1,41245.4
60283.9,41253.5
60288,41262
60291.1,41270.9
60293.4,41280
60294.8,41289.3
60295.3,41298.7
60295.3,41520.2
60294.8,41529.6
60293.4,41538.9
60291.1,41548
60288,41556.9
60283.9,41565.4
60279.1,41573.5
60273.5,41581.1
60267.2,41588
60260.2,41594.4
60252.6,41600
60244.5,41604.8
60236,41608.8
60227.2,41612
60218,41614.3
60208.7,41615.7
60199.3,41616.1
60007.4,41616.1
59998,41615.7
59988.7,41614.3
59979.5,41612
59970.7,41608.8
59962.1,41604.8
59954.1,41600
59946.5,41594.4
59939.5,41588
59933.2,41581.1
59927.6,41573.5
59922.7,41565.4
59918.7,41556.9
59915.5,41548
59913.3,41538.9
59911.9,41529.6
59911.4,41520.2
59911.4,41298.7
59911.9,41289.3
59913.3,41280
59915.5,41270.9
59918.7,41262
59922.7,41253.5
59927.6,41245.4
59933.2,41237.8
59939.5,41230.9
59946.5,41224.5
59954.1,41218.9
59962.1,41214.1
59970.7,41210.1
59979.5,41206.9
59988.7,41204.6
59998,41203.2
60007.4,41202.8
60199.3,41202.8
Z" /> 
</g>
<g >
</g>
<g style="fill:#000000; fill-opacity:1.0; 
stroke:#000000; stroke-width:0; stroke-opacity:1; 
stroke-linecap:round; stroke-linejoin:round;">
<path style="fill:#000000; fill-opacity:1.0; 
stroke:#000000; stroke-width:0; stroke-opacity:1; 
stroke-linecap:round; stroke-linejoin:round;fill-rule:evenodd;"
d="M 60828.8,42480.8
60838.1,42482.2
60847.2,42484.4
60856.1,42487.6
60864.6,42491.6
60872.7,42496.5
60880.3,42502.1
60887.2,42508.4
60893.6,42515.4
60899.2,42523
60904,42531
60908,42539.6
60911.2,42548.4
60913.5,42557.6
60914.9,42566.9
60915.4,42576.3
60915.4,42768.2
60914.9,42777.6
60913.5,42786.9
60911.2,42796.1
60908,42804.9
60904,42813.4
60899.2,42821.5
60893.6,42829.1
60887.2,42836.1
60880.3,42842.4
60872.7,42848
60864.6,42852.8
60856.1,42856.9
60847.2,42860
60838.1,42862.3
60828.8,42863.7
60819.4,42864.2
60597.9,42864.2
60588.5,42863.7
60579.2,42862.3
60570.1,42860
60561.2,42856.9
60552.7,42852.8
60544.6,42848
60537.1,42842.4
60530.1,42836.1
60523.8,42829.1
60518.1,42821.5
60513.3,42813.4
60509.3,42804.9
60506.1,42796.1
60503.8,42786.9
60502.4,42777.6
60502,42768.2
60502,42576.3
60502.4,42566.9
60503.8,42557.6
60506.1,42548.4
60509.3,42539.6
60513.3,42531
60518.1,42523
60523.8,42515.4
60530.1,42508.4
60537.1,42502.1
60544.6,42496.5
60552.7,42491.6
60561.2,42487.6
60570.1,42484.4
60579.2,42482.2
60588.5,42480.8
60597.9,42480.3
60819.4,42480.3
Z" /> 
<path style="fill:#000000; fill-opacity:1.0; 
stroke:#000000; stroke-width:0; stroke-opacity:1; 
stroke-linecap:round; stroke-linejoin:round;fill-rule:evenodd;"
d="M 60828.8,41860.7
60838.1,41862.1
60847.2,41864.4
60856.1,41867.5
60864.6,41871.6
60872.7,41876.4
60880.3,41882
60887.2,41888.3
60893.6,41895.3
60899.2,41902.9
60904,41911
60908,41919.5
60911.2,41928.3
60913.5,41937.5
60914.9,41946.8
60915.4,41956.2
60915.4,42148.1
60914.9,42157.5
60913.5,42166.9
60911.2,42176
60908,42184.9
60904,42193.4
60899.2,42201.4
60893.6,42209
60887.2,42216
60880.3,42222.3
60872.7,42227.9
60864.6,42232.8
60856.1,42236.8
60847.2,42240
60838.1,42242.3
60828.8,42243.6
60819.4,42244.1
60597.9,42244.1
60588.5,42243.6
60579.2,42242.3
60570.1,42240
60561.2,42236.8
60552.7,42232.8
60544.6,42227.9
60537.1,42222.3
60530.1,42216
60523.8,42209
60518.1,42201.4
60513.3,42193.4
60509.3,42184.9
60506.1,42176
60503.8,42166.9
60502.4,42157.5
60502,42148.1
60502,41956.2
60502.4,41946.8
60503.8,41937.5
60506.1,41928.3
60509.3,41919.5
60513.3,41911
60518.1,41902.9
60523.8,41895.3
60530.1,41888.3
60537.1,41882
60544.6,41876.4
60552.7,41871.6
60561.2,41867.5
60570.1,41864.4
60579.2,41862.1
60588.5,41860.7
60597.9,41860.2
60819.4,41860.2
Z" /> 
</g>
<g >
</g>
<g style="fill:#000000; fill-opacity:1.0; 
stroke:#000000; stroke-width:0; stroke-opacity:1; 
stroke-linecap:round; stroke-linejoin:round;">
<path style="fill:#000000; fill-opacity:1.0; 
stroke:#000000; stroke-width:0; stroke-opacity:1; 
stroke-linecap:round; stroke-linejoin:round;fill-rule:evenodd;"
d="M 58269.7,42677.6
58279.1,42679
58288.2,42681.3
58297.1,42684.5
58305.6,42688.5
58313.6,42693.3
58321.2,42698.9
58328.2,42705.3
58334.5,42712.3
58340.1,42719.8
58345,42727.9
58349,42736.4
58352.2,42745.3
58354.5,42754.4
58355.8,42763.7
58356.3,42773.1
58356.3,42965.1
58355.8,42974.5
58354.5,42983.8
58352.2,42992.9
58349,43001.8
58345,43010.3
58340.1,43018.4
58334.5,43025.9
58328.2,43032.9
58321.2,43039.2
58313.6,43044.9
58305.6,43049.7
58297.1,43053.7
58288.2,43056.9
58279.1,43059.2
58269.7,43060.6
58260.3,43061
58038.9,43061
58029.5,43060.6
58020.2,43059.2
58011,43056.9
58002.2,43053.7
57993.6,43049.7
57985.6,43044.9
57978,43039.2
57971,43032.9
57964.7,43025.9
57959.1,43018.4
57954.2,43010.3
57950.2,43001.8
57947,42992.9
57944.8,42983.8
57943.4,42974.5
57942.9,42965.1
57942.9,42773.1
57943.4,42763.7
57944.8,42754.4
57947,42745.3
57950.2,42736.4
57954.2,42727.9
57959.1,42719.8
57964.7,42712.3
57971,42705.3
57978,42698.9
57985.6,42693.3
57993.6,42688.5
58002.2,42684.5
58011,42681.3
58020.2,42679
58029.5,42677.6
58038.9,42677.2
58260.3,42677.2
Z" /> 
<path style="fill:#000000; fill-opacity:1.0; 
stroke:#000000; stroke-width:0; stroke-opacity:1; 
stroke-linecap:round; stroke-linejoin:round;fill-rule:evenodd;"
d="M 58269.7,42057.5
58279.1,42058.9
58288.2,42061.2
58297.1,42064.4
58305.6,42068.4
58313.6,42073.3
58321.2,42078.9
58328.2,42085.2
58334.5,42092.2
58340.1,42099.7
58345,42107.8
58349,42116.3
58352.2,42125.2
58354.5,42134.3
58355.8,42143.6
58356.3,42153.1
58356.3,42345
58355.8,42354.4
58354.5,42363.7
58352.2,42372.8
58349,42381.7
58345,42390.2
58340.1,42398.3
58334.5,42405.9
58328.2,42412.8
58321.2,42419.2
58313.6,42424.8
58305.6,42429.6
58297.1,42433.6
58288.2,42436.8
58279.1,42439.1
58269.7,42440.5
58260.3,42440.9
58038.9,42440.9
58029.5,42440.5
58020.2,42439.1
58011,42436.8
58002.2,42433.6
57993.6,42429.6
57985.6,42424.8
57978,42419.2
57971,42412.8
57964.7,42405.9
57959.1,42398.3
57954.2,42390.2
57950.2,42381.7
57947,42372.8
57944.8,42363.7
57943.4,42354.4
57942.9,42345
57942.9,42153.1
57943.4,42143.6
57944.8,42134.3
57947,42125.2
57950.2,42116.3
57954.2,42107.8
57959.1,42099.7
57964.7,42092.2
57971,42085.2
57978,42078.9
57985.6,42073.3
57993.6,42068.4
58002.2,42064.4
58011,42061.2
58020.2,42058.9
58029.5,42057.5
58038.9,42057.1
58260.3,42057.1
Z" /> 
</g>
<g >
</g>
<g style="fill:#000000; fill-opacity:1.0; 
stroke:#000000; stroke-width:0; stroke-opacity:1; 
stroke-linecap:round; stroke-linejoin:round;">
<path style="fill:#000000; fill-opacity:1.0; 
stroke:#000000; stroke-width:0; stroke-opacity:1; 
stroke-linecap:round; stroke-linejoin:round;fill-rule:evenodd;"
d="M 58269.7,44016.2
58279.1,44017.6
58288.2,44019.9
58297.1,44023.1
58305.6,44027.1
58313.6,44031.9
58321.2,44037.5
58328.2,44043.9
58334.5,44050.8
58340.1,44058.4
58345,44066.5
58349,44075
58352.2,44083.9
58354.5,44093
58355.8,44102.3
58356.3,44111.7
58356.3,44303.6
58355.8,44313
58354.5,44322.4
58352.2,44331.5
58349,44340.4
58345,44348.9
58340.1,44357
58334.5,44364.5
58328.2,44371.5
58321.2,44377.8
58313.6,44383.4
58305.6,44388.3
58297.1,44392.3
58288.2,44395.5
58279.1,44397.8
58269.7,44399.1
58260.3,44399.6
58038.9,44399.6
58029.5,44399.1
58020.2,44397.8
58011,44395.5
58002.2,44392.3
57993.6,44388.3
57985.6,44383.4
57978,44377.8
57971,44371.5
57964.7,44364.5
57959.1,44357
57954.2,44348.9
57950.2,44340.4
57947,44331.5
57944.8,44322.4
57943.4,44313
57942.9,44303.6
57942.9,44111.7
57943.4,44102.3
57944.8,44093
57947,44083.9
57950.2,44075
57954.2,44066.5
57959.1,44058.4
57964.7,44050.8
57971,44043.9
57978,44037.5
57985.6,44031.9
57993.6,44027.1
58002.2,44023.1
58011,44019.9
58020.2,44017.6
58029.5,44016.2
58038.9,44015.7
58260.3,44015.7
Z" /> 
<path style="fill:#000000; fill-opacity:1.0; 
stroke:#000000; stroke-width:0; stroke-opacity:1; 
stroke-linecap:round; stroke-linejoin:round;fill-rule:evenodd;"
d="M 58269.7,43396.1
58279.1,43397.5
58288.2,43399.8
58297.1,43403
58305.6,43407
58313.6,43411.8
58321.2,43417.5
58328.2,43423.8
58334.5,43430.8
58340.1,43438.3
58345,43446.4
58349,43454.9
58352.2,43463.8
58354.5,43472.9
58355.8,43482.2
58356.3,43491.6
58356.3,43683.6
58355.8,43693
58354.5,43702.3
58352.2,43711.4
58349,43720.3
58345,43728.8
58340.1,43736.9
58334.5,43744.4
58328.2,43751.4
58321.2,43757.7
58313.6,43763.4
58305.6,43768.2
58297.1,43772.2
58288.2,43775.4
58279.1,43777.7
58269.7,43779.1
58260.3,43779.5
58038.9,43779.5
58029.5,43779.1
58020.2,43777.7
58011,43775.4
58002.2,43772.2
57993.6,43768.2
57985.6,43763.4
57978,43757.7
57971,43751.4
57964.7,43744.4
57959.1,43736.9
57954.2,43728.8
57950.2,43720.3
57947,43711.4
57944.8,43702.3
57943.4,43693
57942.9,43683.6
57942.9,43491.6
57943.4,43482.2
57944.8,43472.9
57947,43463.8
57950.2,43454.9
57954.2,43446.4
57959.1,43438.3
57964.7,43430.8
57971,43423.8
57978,43417.5
57985.6,43411.8
57993.6,43407
58002.2,43403
58011,43399.8
58020.2,43397.5
58029.5,43396.1
58038.9,43395.7
58260.3,43395.7
Z" /> 
</g>
<g >
</g>
<g style="fill:#000000; fill-opacity:1.0; 
stroke:#000000; stroke-width:0; stroke-opacity:1; 
stroke-linecap:round; stroke-linejoin:round;">
<path style="fill:#000000; fill-opacity:1.0; 
stroke:#000000; stroke-width:0; stroke-opacity:1; 
stroke-linecap:round; stroke-linejoin:round;fill-rule:evenodd;"
d="M 57000.1,43376.4
57009.4,43377.8
57018.5,43380.1
57027.4,43383.3
57035.9,43387.3
57044,43392.2
57051.5,43397.8
57058.5,43404.1
57064.8,43411.1
57070.4,43418.6
57075.3,43426.7
57079.3,43435.2
57082.5,43444.1
57084.8,43453.2
57086.2,43462.5
57086.6,43471.9
57086.6,43693.4
57086.2,43702.8
57084.8,43712.1
57082.5,43721.3
57079.3,43730.1
57075.3,43738.6
57070.4,43746.7
57064.8,43754.3
57058.5,43761.3
57051.5,43767.6
57044,43773.2
57035.9,43778
57027.4,43782.1
57018.5,43785.2
57009.4,43787.5
57000.1,43788.9
56990.6,43789.4
56798.7,43789.4
56789.3,43788.9
56780,43787.5
56770.9,43785.2
56762,43782.1
56753.5,43778
56745.4,43773.2
56737.8,43767.6
56730.9,43761.3
56724.5,43754.3
56718.9,43746.7
56714.1,43738.6
56710.1,43730.1
56706.9,43721.3
56704.6,43712.1
56703.2,43702.8
56702.8,43693.4
56702.8,43471.9
56703.2,43462.5
56704.6,43453.2
56706.9,43444.1
56710.1,43435.2
56714.1,43426.7
56718.9,43418.6
56724.5,43411.1
56730.9,43404.1
56737.8,43397.8
56745.4,43392.2
56753.5,43387.3
56762,43383.3
56770.9,43380.1
56780,43377.8
56789.3,43376.4
56798.7,43376
56990.6,43376
Z" /> 
<path style="fill:#000000; fill-opacity:1.0; 
stroke:#000000; stroke-width:0; stroke-opacity:1; 
stroke-linecap:round; stroke-linejoin:round;fill-rule:evenodd;"
d="M 57620.1,43376.4
57629.4,43377.8
57638.6,43380.1
57647.5,43383.3
57656,43387.3
57664,43392.2
57671.6,43397.8
57678.6,43404.1
57684.9,43411.1
57690.5,43418.6
57695.4,43426.7
57699.4,43435.2
57702.6,43444.1
57704.8,43453.2
57706.2,43462.5
57706.7,43471.9
57706.7,43693.4
57706.2,43702.8
57704.8,43712.1
57702.6,43721.3
57699.4,43730.1
57695.4,43738.6
57690.5,43746.7
57684.9,43754.3
57678.6,43761.3
57671.6,43767.6
57664,43773.2
57656,43778
57647.5,43782.1
57638.6,43785.2
57629.4,43787.5
57620.1,43788.9
57610.7,43789.4
57418.8,43789.4
57409.4,43788.9
57400.1,43787.5
57390.9,43785.2
57382.1,43782.1
57373.6,43778
57365.5,43773.2
57357.9,43767.6
57350.9,43761.3
57344.6,43754.3
57339,43746.7
57334.2,43738.6
57330.1,43730.1
57327,43721.3
57324.7,43712.1
57323.3,43702.8
57322.8,43693.4
57322.8,43471.9
57323.3,43462.5
57324.7,43453.2
57327,43444.1
57330.1,43435.2
57334.2,43426.7
57339,43418.6
57344.6,43411.1
57350.9,43404.1
57357.9,43397.8
57365.5,43392.2
57373.6,43387.3
57382.1,43383.3
57390.9,43380.1
57400.1,43377.8
57409.4,43376.4
57418.8,43376
57610.7,43376
Z" /> 
</g>
<g >
</g>
<g style="fill:#000000; fill-opacity:1.0; 
stroke:#000000; stroke-width:0; stroke-opacity:1; 
stroke-linecap:round; stroke-linejoin:round;">
<path style="fill:#000000; fill-opacity:1.0; 
stroke:#000000; stroke-width:0; stroke-opacity:1; 
stroke-linecap:round; stroke-linejoin:round;fill-rule:evenodd;"
d="M 58992.2,41203.2
59001.5,41204.6
59010.6,41206.9
59019.5,41210.1
59028,41214.1
59036.1,41218.9
59043.7,41224.5
59050.6,41230.9
59057,41237.8
59062.6,41245.4
59067.4,41253.5
59071.4,41262
59074.6,41270.9
59076.9,41280
59078.3,41289.3
59078.7,41298.7
59078.7,41520.2
59078.3,41529.6
59076.9,41538.9
59074.6,41548
59071.4,41556.9
59067.4,41565.4
59062.6,41573.5
59057,41581.1
59050.6,41588
59043.7,41594.4
59036.1,41600
59028,41604.8
59019.5,41608.8
59010.6,41612
59001.5,41614.3
58992.2,41615.7
58982.8,41616.1
58790.8,41616.1
58781.4,41615.7
58772.1,41614.3
58763,41612
58754.1,41608.8
58745.6,41604.8
58737.5,41600
58730,41594.4
58723,41588
58716.7,41581.1
58711.1,41573.5
58706.2,41565.4
58702.2,41556.9
58699,41548
58696.7,41538.9
58695.3,41529.6
58694.9,41520.2
58694.9,41298.7
58695.3,41289.3
58696.7,41280
58699,41270.9
58702.2,41262
58706.2,41253.5
58711.1,41245.4
58716.7,41237.8
58723,41230.9
58730,41224.5
58737.5,41218.9
58745.6,41214.1
58754.1,41210.1
58763,41206.9
58772.1,41204.6
58781.4,41203.2
58790.8,41202.8
58982.8,41202.8
Z" /> 
<path style="fill:#000000; fill-opacity:1.0; 
stroke:#000000; stroke-width:0; stroke-opacity:1; 
stroke-linecap:round; stroke-linejoin:round;fill-rule:evenodd;"
d="M 59612.3,41203.2
59621.6,41204.6
59630.7,41206.9
59639.6,41210.1
59648.1,41214.1
59656.2,41218.9
59663.7,41224.5
59670.7,41230.9
59677,41237.8
59682.6,41245.4
59687.5,41253.5
59691.5,41262
59694.7,41270.9
59697,41280
59698.4,41289.3
59698.8,41298.7
59698.8,41520.2
59698.4,41529.6
59697,41538.9
59694.7,41548
59691.5,41556.9
59687.5,41565.4
59682.6,41573.5
59677,41581.1
59670.7,41588
59663.7,41594.4
59656.2,41600
59648.1,41604.8
59639.6,41608.8
59630.7,41612
59621.6,41614.3
59612.3,41615.7
59602.9,41616.1
59410.9,41616.1
59401.5,41615.7
59392.2,41614.3
59383.1,41612
59374.2,41608.8
59365.7,41604.8
59357.6,41600
59350,41594.4
59343.1,41588
59336.7,41581.1
59331.1,41573.5
59326.3,41565.4
59322.3,41556.9
59319.1,41548
59316.8,41538.9
59315.4,41529.6
59315,41520.2
59315,41298.7
59315.4,41289.3
59316.8,41280
59319.1,41270.9
59322.3,41262
59326.3,41253.5
59331.1,41245.4
59336.7,41237.8
59343.1,41230.9
59350,41224.5
59357.6,41218.9
59365.7,41214.1
59374.2,41210.1
59383.1,41206.9
59392.2,41204.6
59401.5,41203.2
59410.9,41202.8
59602.9,41202.8
Z" /> 
</g>
<g >
</g>
<g style="fill:#000000; fill-opacity:1.0; 
stroke:#000000; stroke-width:0; stroke-opacity:1; 
stroke-linecap:round; stroke-linejoin:round;">
<path style="fill:#000000; fill-opacity:1.0; 
stroke:#000000; stroke-width:0; stroke-opacity:1; 
stroke-linecap:round; stroke-linejoin:round;fill-rule:evenodd;"
d="M 57344.5,41171.7
57353.9,41173.1
57363,41175.4
57371.9,41178.6
57380.4,41182.6
57388.5,41187.4
57396,41193
57403,41199.4
57409.3,41206.3
57414.9,41213.9
57419.8,41222
57423.8,41230.5
57427,41239.4
57429.3,41248.5
57430.6,41257.8
57431.1,41267.2
57431.1,41488.7
57430.6,41498.1
57429.3,41507.4
57427,41516.5
57423.8,41525.4
57419.8,41533.9
57414.9,41542
57409.3,41549.6
57403,41556.5
57396,41562.9
57388.5,41568.5
57380.4,41573.3
57371.9,41577.3
57363,41580.5
57353.9,41582.8
57344.5,41584.2
57335.1,41584.6
57143.2,41584.6
57133.8,41584.2
57124.5,41582.8
57115.4,41580.5
57106.5,41577.3
57098,41573.3
57089.9,41568.5
57082.3,41562.9
57075.4,41556.5
57069,41549.6
57063.4,41542
57058.6,41533.9
57054.5,41525.4
57051.4,41516.5
57049.1,41507.4
57047.7,41498.1
57047.2,41488.7
57047.2,41267.2
57047.7,41257.8
57049.1,41248.5
57051.4,41239.4
57054.5,41230.5
57058.6,41222
57063.4,41213.9
57069,41206.3
57075.4,41199.4
57082.3,41193
57089.9,41187.4
57098,41182.6
57106.5,41178.6
57115.4,41175.4
57124.5,41173.1
57133.8,41171.7
57143.2,41171.3
57335.1,41171.3
Z" /> 
<path style="fill:#000000; fill-opacity:1.0; 
stroke:#000000; stroke-width:0; stroke-opacity:1; 
stroke-linecap:round; stroke-linejoin:round;fill-rule:evenodd;"
d="M 56724.5,41171.7
56733.8,41173.1
56742.9,41175.4
56751.8,41178.6
56760.3,41182.6
56768.4,41187.4
56775.9,41193
56782.9,41199.4
56789.2,41206.3
56794.9,41213.9
56799.7,41222
56803.7,41230.5
56806.9,41239.4
56809.2,41248.5
56810.6,41257.8
56811,41267.2
56811,41488.7
56810.6,41498.1
56809.2,41507.4
56806.9,41516.5
56803.7,41525.4
56799.7,41533.9
56794.9,41542
56789.2,41549.6
56782.9,41556.5
56775.9,41562.9
56768.4,41568.5
56760.3,41573.3
56751.8,41577.3
56742.9,41580.5
56733.8,41582.8
56724.5,41584.2
56715.1,41584.6
56523.1,41584.6
56513.7,41584.2
56504.4,41582.8
56495.3,41580.5
56486.4,41577.3
56477.9,41573.3
56469.8,41568.5
56462.3,41562.9
56455.3,41556.5
56448.9,41549.6
56443.3,41542
56438.5,41533.9
56434.5,41525.4
56431.3,41516.5
56429,41507.4
56427.6,41498.1
56427.2,41488.7
56427.2,41267.2
56427.6,41257.8
56429,41248.5
56431.3,41239.4
56434.5,41230.5
56438.5,41222
56443.3,41213.9
56448.9,41206.3
56455.3,41199.4
56462.3,41193
56469.8,41187.4
56477.9,41182.6
56486.4,41178.6
56495.3,41175.4
56504.4,41173.1
56513.7,41171.7
56523.1,41171.3
56715.1,41171.3
Z" /> 
</g>
<g >
</g>
<g style="fill:#000000; fill-opacity:1.0; 
stroke:#000000; stroke-width:0; stroke-opacity:1; 
stroke-linecap:round; stroke-linejoin:round;">
<path style="fill:#000000; fill-opacity:1.0; 
stroke:#000000; stroke-width:0; stroke-opacity:1; 
stroke-linecap:round; stroke-linejoin:round;fill-rule:evenodd;"
d="M 57620.1,44006.4
57629.4,44007.7
57638.6,44010
57647.5,44013.2
57656,44017.2
57664,44022.1
57671.6,44027.7
57678.6,44034
57684.9,44041
57690.5,44048.6
57695.4,44056.6
57699.4,44065.1
57702.6,44074
57704.8,44083.1
57706.2,44092.5
57706.7,44101.9
57706.7,44323.3
57706.2,44332.7
57704.8,44342
57702.6,44351.2
57699.4,44360.1
57695.4,44368.6
57690.5,44376.6
57684.9,44384.2
57678.6,44391.2
57671.6,44397.5
57664,44403.1
57656,44408
57647.5,44412
57638.6,44415.2
57629.4,44417.4
57620.1,44418.8
57610.7,44419.3
57418.8,44419.3
57409.4,44418.8
57400.1,44417.4
57390.9,44415.2
57382.1,44412
57373.6,44408
57365.5,44403.1
57357.9,44397.5
57350.9,44391.2
57344.6,44384.2
57339,44376.6
57334.2,44368.6
57330.1,44360.1
57327,44351.2
57324.7,44342
57323.3,44332.7
57322.8,44323.3
57322.8,44101.9
57323.3,44092.5
57324.7,44083.1
57327,44074
57330.1,44065.1
57334.2,44056.6
57339,44048.6
57344.6,44041
57350.9,44034
57357.9,44027.7
57365.5,44022.1
57373.6,44017.2
57382.1,44013.2
57390.9,44010
57400.1,44007.7
57409.4,44006.4
57418.8,44005.9
57610.7,44005.9
Z" /> 
<path style="fill:#000000; fill-opacity:1.0; 
stroke:#000000; stroke-width:0; stroke-opacity:1; 
stroke-linecap:round; stroke-linejoin:round;fill-rule:evenodd;"
d="M 57000.1,44006.4
57009.4,44007.7
57018.5,44010
57027.4,44013.2
57035.9,44017.2
57044,44022.1
57051.5,44027.7
57058.5,44034
57064.8,44041
57070.4,44048.6
57075.3,44056.6
57079.3,44065.1
57082.5,44074
57084.8,44083.1
57086.2,44092.5
57086.6,44101.9
57086.6,44323.3
57086.2,44332.7
57084.8,44342
57082.5,44351.2
57079.3,44360.1
57075.3,44368.6
57070.4,44376.6
57064.8,44384.2
57058.5,44391.2
57051.5,44397.5
57044,44403.1
57035.9,44408
57027.4,44412
57018.5,44415.2
57009.4,44417.4
57000.1,44418.8
56990.6,44419.3
56798.7,44419.3
56789.3,44418.8
56780,44417.4
56770.9,44415.2
56762,44412
56753.5,44408
56745.4,44403.1
56737.8,44397.5
56730.9,44391.2
56724.5,44384.2
56718.9,44376.6
56714.1,44368.6
56710.1,44360.1
56706.9,44351.2
56704.6,44342
56703.2,44332.7
56702.8,44323.3
56702.8,44101.9
56703.2,44092.5
56704.6,44083.1
56706.9,44074
56710.1,44065.1
56714.1,44056.6
56718.9,44048.6
56724.5,44041
56730.9,44034
56737.8,44027.7
56745.4,44022.1
56753.5,44017.2
56762,44013.2
56770.9,44010
56780,44007.7
56789.3,44006.4
56798.7,44005.9
56990.6,44005.9
Z" /> 
</g>
<g >
</g>
<g >
</g>
<g >
</g>
</g> 
</svg>
