%TF.GenerationSoftware,KiCad,Pcbnew,(5.1.6)-1*%
%TF.CreationDate,2020-12-19T22:24:40-05:00*%
%TF.ProjectId,cargadorDeBateriasLitIon,63617267-6164-46f7-9244-654261746572,rev?*%
%TF.SameCoordinates,Original*%
%TF.FileFunction,Paste,Top*%
%TF.FilePolarity,Positive*%
%FSLAX46Y46*%
G04 Gerber Fmt 4.6, Leading zero omitted, Abs format (unit mm)*
G04 Created by KiCad (PCBNEW (5.1.6)-1) date 2020-12-19 22:24:40*
%MOMM*%
%LPD*%
G01*
G04 APERTURE LIST*
%ADD10R,0.550000X1.000000*%
%ADD11R,1.060000X0.650000*%
%ADD12R,1.800000X4.500000*%
%ADD13R,1.100000X1.100000*%
%ADD14R,1.000000X0.700000*%
%ADD15R,0.650000X1.060000*%
G04 APERTURE END LIST*
%TO.C,C5*%
G36*
G01*
X164493750Y-111850000D02*
X165006250Y-111850000D01*
G75*
G02*
X165225000Y-112068750I0J-218750D01*
G01*
X165225000Y-112506250D01*
G75*
G02*
X165006250Y-112725000I-218750J0D01*
G01*
X164493750Y-112725000D01*
G75*
G02*
X164275000Y-112506250I0J218750D01*
G01*
X164275000Y-112068750D01*
G75*
G02*
X164493750Y-111850000I218750J0D01*
G01*
G37*
G36*
G01*
X164493750Y-110275000D02*
X165006250Y-110275000D01*
G75*
G02*
X165225000Y-110493750I0J-218750D01*
G01*
X165225000Y-110931250D01*
G75*
G02*
X165006250Y-111150000I-218750J0D01*
G01*
X164493750Y-111150000D01*
G75*
G02*
X164275000Y-110931250I0J218750D01*
G01*
X164275000Y-110493750D01*
G75*
G02*
X164493750Y-110275000I218750J0D01*
G01*
G37*
%TD*%
D10*
%TO.C,U2*%
X150300000Y-109450000D03*
X151250000Y-109450000D03*
X152200000Y-109450000D03*
X152200000Y-107050000D03*
X151250000Y-107050000D03*
X150300000Y-107050000D03*
%TD*%
D11*
%TO.C,U3*%
X156650000Y-112450000D03*
X156650000Y-110550000D03*
X158850000Y-110550000D03*
X158850000Y-111500000D03*
X158850000Y-112450000D03*
%TD*%
%TO.C,R6*%
G36*
G01*
X162350000Y-112506250D02*
X162350000Y-111993750D01*
G75*
G02*
X162568750Y-111775000I218750J0D01*
G01*
X163006250Y-111775000D01*
G75*
G02*
X163225000Y-111993750I0J-218750D01*
G01*
X163225000Y-112506250D01*
G75*
G02*
X163006250Y-112725000I-218750J0D01*
G01*
X162568750Y-112725000D01*
G75*
G02*
X162350000Y-112506250I0J218750D01*
G01*
G37*
G36*
G01*
X160775000Y-112506250D02*
X160775000Y-111993750D01*
G75*
G02*
X160993750Y-111775000I218750J0D01*
G01*
X161431250Y-111775000D01*
G75*
G02*
X161650000Y-111993750I0J-218750D01*
G01*
X161650000Y-112506250D01*
G75*
G02*
X161431250Y-112725000I-218750J0D01*
G01*
X160993750Y-112725000D01*
G75*
G02*
X160775000Y-112506250I0J218750D01*
G01*
G37*
%TD*%
%TO.C,R5*%
G36*
G01*
X161650000Y-110243750D02*
X161650000Y-110756250D01*
G75*
G02*
X161431250Y-110975000I-218750J0D01*
G01*
X160993750Y-110975000D01*
G75*
G02*
X160775000Y-110756250I0J218750D01*
G01*
X160775000Y-110243750D01*
G75*
G02*
X160993750Y-110025000I218750J0D01*
G01*
X161431250Y-110025000D01*
G75*
G02*
X161650000Y-110243750I0J-218750D01*
G01*
G37*
G36*
G01*
X163225000Y-110243750D02*
X163225000Y-110756250D01*
G75*
G02*
X163006250Y-110975000I-218750J0D01*
G01*
X162568750Y-110975000D01*
G75*
G02*
X162350000Y-110756250I0J218750D01*
G01*
X162350000Y-110243750D01*
G75*
G02*
X162568750Y-110025000I218750J0D01*
G01*
X163006250Y-110025000D01*
G75*
G02*
X163225000Y-110243750I0J-218750D01*
G01*
G37*
%TD*%
D12*
%TO.C,L1*%
X161150000Y-106000000D03*
X157850000Y-106000000D03*
%TD*%
D13*
%TO.C,D2*%
X164000000Y-105850000D03*
X164000000Y-108650000D03*
%TD*%
%TO.C,C4*%
G36*
G01*
X155181250Y-110450000D02*
X154268750Y-110450000D01*
G75*
G02*
X154025000Y-110206250I0J243750D01*
G01*
X154025000Y-109718750D01*
G75*
G02*
X154268750Y-109475000I243750J0D01*
G01*
X155181250Y-109475000D01*
G75*
G02*
X155425000Y-109718750I0J-243750D01*
G01*
X155425000Y-110206250D01*
G75*
G02*
X155181250Y-110450000I-243750J0D01*
G01*
G37*
G36*
G01*
X155181250Y-112325000D02*
X154268750Y-112325000D01*
G75*
G02*
X154025000Y-112081250I0J243750D01*
G01*
X154025000Y-111593750D01*
G75*
G02*
X154268750Y-111350000I243750J0D01*
G01*
X155181250Y-111350000D01*
G75*
G02*
X155425000Y-111593750I0J-243750D01*
G01*
X155425000Y-112081250D01*
G75*
G02*
X155181250Y-112325000I-243750J0D01*
G01*
G37*
%TD*%
D14*
%TO.C,Q1*%
X152520000Y-112090000D03*
X152520000Y-111140000D03*
X152520000Y-113040000D03*
X149920000Y-113040000D03*
X149920000Y-112090000D03*
X149920000Y-111140000D03*
%TD*%
D15*
%TO.C,U1*%
X145950000Y-109000000D03*
X144050000Y-109000000D03*
X144050000Y-106800000D03*
X145000000Y-106800000D03*
X145950000Y-106800000D03*
%TD*%
%TO.C,R4*%
G36*
G01*
X153800000Y-105436250D02*
X153800000Y-104923750D01*
G75*
G02*
X154018750Y-104705000I218750J0D01*
G01*
X154456250Y-104705000D01*
G75*
G02*
X154675000Y-104923750I0J-218750D01*
G01*
X154675000Y-105436250D01*
G75*
G02*
X154456250Y-105655000I-218750J0D01*
G01*
X154018750Y-105655000D01*
G75*
G02*
X153800000Y-105436250I0J218750D01*
G01*
G37*
G36*
G01*
X152225000Y-105436250D02*
X152225000Y-104923750D01*
G75*
G02*
X152443750Y-104705000I218750J0D01*
G01*
X152881250Y-104705000D01*
G75*
G02*
X153100000Y-104923750I0J-218750D01*
G01*
X153100000Y-105436250D01*
G75*
G02*
X152881250Y-105655000I-218750J0D01*
G01*
X152443750Y-105655000D01*
G75*
G02*
X152225000Y-105436250I0J218750D01*
G01*
G37*
%TD*%
%TO.C,R3*%
G36*
G01*
X153943750Y-107950000D02*
X154456250Y-107950000D01*
G75*
G02*
X154675000Y-108168750I0J-218750D01*
G01*
X154675000Y-108606250D01*
G75*
G02*
X154456250Y-108825000I-218750J0D01*
G01*
X153943750Y-108825000D01*
G75*
G02*
X153725000Y-108606250I0J218750D01*
G01*
X153725000Y-108168750D01*
G75*
G02*
X153943750Y-107950000I218750J0D01*
G01*
G37*
G36*
G01*
X153943750Y-106375000D02*
X154456250Y-106375000D01*
G75*
G02*
X154675000Y-106593750I0J-218750D01*
G01*
X154675000Y-107031250D01*
G75*
G02*
X154456250Y-107250000I-218750J0D01*
G01*
X153943750Y-107250000D01*
G75*
G02*
X153725000Y-107031250I0J218750D01*
G01*
X153725000Y-106593750D01*
G75*
G02*
X153943750Y-106375000I218750J0D01*
G01*
G37*
%TD*%
%TO.C,R2*%
G36*
G01*
X147443750Y-108450000D02*
X147956250Y-108450000D01*
G75*
G02*
X148175000Y-108668750I0J-218750D01*
G01*
X148175000Y-109106250D01*
G75*
G02*
X147956250Y-109325000I-218750J0D01*
G01*
X147443750Y-109325000D01*
G75*
G02*
X147225000Y-109106250I0J218750D01*
G01*
X147225000Y-108668750D01*
G75*
G02*
X147443750Y-108450000I218750J0D01*
G01*
G37*
G36*
G01*
X147443750Y-106875000D02*
X147956250Y-106875000D01*
G75*
G02*
X148175000Y-107093750I0J-218750D01*
G01*
X148175000Y-107531250D01*
G75*
G02*
X147956250Y-107750000I-218750J0D01*
G01*
X147443750Y-107750000D01*
G75*
G02*
X147225000Y-107531250I0J218750D01*
G01*
X147225000Y-107093750D01*
G75*
G02*
X147443750Y-106875000I218750J0D01*
G01*
G37*
%TD*%
%TO.C,R1*%
G36*
G01*
X147443750Y-111850000D02*
X147956250Y-111850000D01*
G75*
G02*
X148175000Y-112068750I0J-218750D01*
G01*
X148175000Y-112506250D01*
G75*
G02*
X147956250Y-112725000I-218750J0D01*
G01*
X147443750Y-112725000D01*
G75*
G02*
X147225000Y-112506250I0J218750D01*
G01*
X147225000Y-112068750D01*
G75*
G02*
X147443750Y-111850000I218750J0D01*
G01*
G37*
G36*
G01*
X147443750Y-110275000D02*
X147956250Y-110275000D01*
G75*
G02*
X148175000Y-110493750I0J-218750D01*
G01*
X148175000Y-110931250D01*
G75*
G02*
X147956250Y-111150000I-218750J0D01*
G01*
X147443750Y-111150000D01*
G75*
G02*
X147225000Y-110931250I0J218750D01*
G01*
X147225000Y-110493750D01*
G75*
G02*
X147443750Y-110275000I218750J0D01*
G01*
G37*
%TD*%
%TO.C,D1*%
G36*
G01*
X144950000Y-110443750D02*
X144950000Y-110956250D01*
G75*
G02*
X144731250Y-111175000I-218750J0D01*
G01*
X144293750Y-111175000D01*
G75*
G02*
X144075000Y-110956250I0J218750D01*
G01*
X144075000Y-110443750D01*
G75*
G02*
X144293750Y-110225000I218750J0D01*
G01*
X144731250Y-110225000D01*
G75*
G02*
X144950000Y-110443750I0J-218750D01*
G01*
G37*
G36*
G01*
X146525000Y-110443750D02*
X146525000Y-110956250D01*
G75*
G02*
X146306250Y-111175000I-218750J0D01*
G01*
X145868750Y-111175000D01*
G75*
G02*
X145650000Y-110956250I0J218750D01*
G01*
X145650000Y-110443750D01*
G75*
G02*
X145868750Y-110225000I218750J0D01*
G01*
X146306250Y-110225000D01*
G75*
G02*
X146525000Y-110443750I0J-218750D01*
G01*
G37*
%TD*%
%TO.C,C3*%
G36*
G01*
X150010000Y-104923750D02*
X150010000Y-105436250D01*
G75*
G02*
X149791250Y-105655000I-218750J0D01*
G01*
X149353750Y-105655000D01*
G75*
G02*
X149135000Y-105436250I0J218750D01*
G01*
X149135000Y-104923750D01*
G75*
G02*
X149353750Y-104705000I218750J0D01*
G01*
X149791250Y-104705000D01*
G75*
G02*
X150010000Y-104923750I0J-218750D01*
G01*
G37*
G36*
G01*
X151585000Y-104923750D02*
X151585000Y-105436250D01*
G75*
G02*
X151366250Y-105655000I-218750J0D01*
G01*
X150928750Y-105655000D01*
G75*
G02*
X150710000Y-105436250I0J218750D01*
G01*
X150710000Y-104923750D01*
G75*
G02*
X150928750Y-104705000I218750J0D01*
G01*
X151366250Y-104705000D01*
G75*
G02*
X151585000Y-104923750I0J-218750D01*
G01*
G37*
%TD*%
%TO.C,C2*%
G36*
G01*
X144950000Y-105356250D02*
X144950000Y-104843750D01*
G75*
G02*
X145168750Y-104625000I218750J0D01*
G01*
X145606250Y-104625000D01*
G75*
G02*
X145825000Y-104843750I0J-218750D01*
G01*
X145825000Y-105356250D01*
G75*
G02*
X145606250Y-105575000I-218750J0D01*
G01*
X145168750Y-105575000D01*
G75*
G02*
X144950000Y-105356250I0J218750D01*
G01*
G37*
G36*
G01*
X143375000Y-105356250D02*
X143375000Y-104843750D01*
G75*
G02*
X143593750Y-104625000I218750J0D01*
G01*
X144031250Y-104625000D01*
G75*
G02*
X144250000Y-104843750I0J-218750D01*
G01*
X144250000Y-105356250D01*
G75*
G02*
X144031250Y-105575000I-218750J0D01*
G01*
X143593750Y-105575000D01*
G75*
G02*
X143375000Y-105356250I0J218750D01*
G01*
G37*
%TD*%
%TO.C,C1*%
G36*
G01*
X145650000Y-112556250D02*
X145650000Y-112043750D01*
G75*
G02*
X145868750Y-111825000I218750J0D01*
G01*
X146306250Y-111825000D01*
G75*
G02*
X146525000Y-112043750I0J-218750D01*
G01*
X146525000Y-112556250D01*
G75*
G02*
X146306250Y-112775000I-218750J0D01*
G01*
X145868750Y-112775000D01*
G75*
G02*
X145650000Y-112556250I0J218750D01*
G01*
G37*
G36*
G01*
X144075000Y-112556250D02*
X144075000Y-112043750D01*
G75*
G02*
X144293750Y-111825000I218750J0D01*
G01*
X144731250Y-111825000D01*
G75*
G02*
X144950000Y-112043750I0J-218750D01*
G01*
X144950000Y-112556250D01*
G75*
G02*
X144731250Y-112775000I-218750J0D01*
G01*
X144293750Y-112775000D01*
G75*
G02*
X144075000Y-112556250I0J218750D01*
G01*
G37*
%TD*%
M02*
