%TF.GenerationSoftware,KiCad,Pcbnew,(5.1.6)-1*%
%TF.CreationDate,2020-12-19T22:24:40-05:00*%
%TF.ProjectId,cargadorDeBateriasLitIon,63617267-6164-46f7-9244-654261746572,rev?*%
%TF.SameCoordinates,Original*%
%TF.FileFunction,Legend,Bot*%
%TF.FilePolarity,Positive*%
%FSLAX46Y46*%
G04 Gerber Fmt 4.6, Leading zero omitted, Abs format (unit mm)*
G04 Created by KiCad (PCBNEW (5.1.6)-1) date 2020-12-19 22:24:40*
%MOMM*%
%LPD*%
G01*
G04 APERTURE LIST*
%ADD10C,0.010000*%
G04 APERTURE END LIST*
D10*
%TO.C,G\u002A\u002A\u002A*%
G36*
X149992493Y-103278455D02*
G01*
X149767608Y-103282416D01*
X149588603Y-103291026D01*
X149446675Y-103305927D01*
X149333021Y-103328763D01*
X149238840Y-103361176D01*
X149155327Y-103404809D01*
X149073680Y-103461305D01*
X149008011Y-103513405D01*
X148850031Y-103680554D01*
X148742832Y-103874409D01*
X148684996Y-104085516D01*
X148675103Y-104304425D01*
X148711734Y-104521684D01*
X148793470Y-104727841D01*
X148918890Y-104913445D01*
X149086577Y-105069043D01*
X149256552Y-105168500D01*
X149324375Y-105196982D01*
X149393351Y-105218323D01*
X149475222Y-105234102D01*
X149581729Y-105245896D01*
X149724616Y-105255284D01*
X149915624Y-105263844D01*
X149986124Y-105266565D01*
X150208181Y-105276169D01*
X150373463Y-105287157D01*
X150488693Y-105301389D01*
X150560594Y-105320725D01*
X150595888Y-105347025D01*
X150601299Y-105382150D01*
X150583550Y-105427960D01*
X150581742Y-105431376D01*
X150565461Y-105453904D01*
X150538123Y-105470635D01*
X150490544Y-105482714D01*
X150413544Y-105491289D01*
X150297942Y-105497504D01*
X150134555Y-105502505D01*
X149984227Y-105505954D01*
X149733287Y-105513990D01*
X149534942Y-105528276D01*
X149378350Y-105552220D01*
X149252668Y-105589228D01*
X149147056Y-105642708D01*
X149050671Y-105716065D01*
X148952671Y-105812706D01*
X148930035Y-105837193D01*
X148850981Y-105929035D01*
X148790097Y-106016692D01*
X148744938Y-106110350D01*
X148713058Y-106220196D01*
X148692012Y-106356416D01*
X148679354Y-106529195D01*
X148672640Y-106748721D01*
X148670327Y-106918984D01*
X148668876Y-107136455D01*
X148669843Y-107299779D01*
X148673861Y-107418287D01*
X148681564Y-107501308D01*
X148693586Y-107558170D01*
X148710558Y-107598203D01*
X148717178Y-107609042D01*
X148802207Y-107687889D01*
X148909843Y-107719160D01*
X149020686Y-107702897D01*
X149115335Y-107639144D01*
X149139434Y-107608110D01*
X149160067Y-107567739D01*
X149174300Y-107513155D01*
X149182967Y-107433760D01*
X149186900Y-107318956D01*
X149186931Y-107158145D01*
X149185268Y-107024837D01*
X149184556Y-106776886D01*
X149191704Y-106583672D01*
X149207907Y-106436783D01*
X149234362Y-106327808D01*
X149272265Y-106248335D01*
X149300941Y-106211376D01*
X149350712Y-106159082D01*
X149397253Y-106119865D01*
X149450521Y-106091555D01*
X149520469Y-106071985D01*
X149617055Y-106058987D01*
X149750233Y-106050394D01*
X149929959Y-106044037D01*
X150089080Y-106039750D01*
X150700752Y-106023875D01*
X150838314Y-105927215D01*
X150986087Y-105789535D01*
X151082431Y-105627899D01*
X151128756Y-105452707D01*
X151126478Y-105274359D01*
X151077007Y-105103254D01*
X150981758Y-104949791D01*
X150842144Y-104824370D01*
X150677450Y-104743277D01*
X150600804Y-104728656D01*
X150471054Y-104717210D01*
X150298541Y-104709558D01*
X150093610Y-104706317D01*
X150057830Y-104706250D01*
X149858790Y-104705302D01*
X149712005Y-104701747D01*
X149606246Y-104694518D01*
X149530286Y-104682548D01*
X149472897Y-104664769D01*
X149435505Y-104647096D01*
X149310103Y-104546053D01*
X149231571Y-104407039D01*
X149205925Y-104241137D01*
X149233317Y-104082918D01*
X149313137Y-103958100D01*
X149413913Y-103879352D01*
X149450432Y-103859776D01*
X149493246Y-103844800D01*
X149550871Y-103833814D01*
X149631828Y-103826208D01*
X149744633Y-103821371D01*
X149897806Y-103818693D01*
X150099865Y-103817564D01*
X150279145Y-103817368D01*
X151042914Y-103817250D01*
X151151364Y-103897262D01*
X151228032Y-103960947D01*
X151284021Y-104019955D01*
X151292470Y-104032199D01*
X151300970Y-104077991D01*
X151309095Y-104184194D01*
X151316745Y-104347716D01*
X151323821Y-104565471D01*
X151330226Y-104834367D01*
X151335858Y-105151316D01*
X151340621Y-105513228D01*
X151341000Y-105547625D01*
X151356875Y-107008125D01*
X151441025Y-107166875D01*
X151588418Y-107381372D01*
X151777543Y-107552636D01*
X151903891Y-107629224D01*
X152064232Y-107684306D01*
X152256512Y-107710115D01*
X152456577Y-107706451D01*
X152640274Y-107673111D01*
X152738000Y-107636154D01*
X152931744Y-107508493D01*
X153100622Y-107334471D01*
X153208873Y-107168704D01*
X153293625Y-107008125D01*
X153309500Y-105547625D01*
X153313276Y-105196722D01*
X153316784Y-104903620D01*
X153320742Y-104662624D01*
X153325870Y-104468042D01*
X153332886Y-104314182D01*
X153342508Y-104195350D01*
X153355456Y-104105853D01*
X153372448Y-104039999D01*
X153394202Y-103992096D01*
X153421437Y-103956449D01*
X153454872Y-103927367D01*
X153495226Y-103899157D01*
X153519681Y-103882601D01*
X153597112Y-103838719D01*
X153676734Y-103820691D01*
X153786756Y-103822699D01*
X153803598Y-103824031D01*
X153920863Y-103840593D01*
X154003089Y-103874193D01*
X154078519Y-103936577D01*
X154081621Y-103939664D01*
X154182625Y-104040617D01*
X154199792Y-105492621D01*
X154203995Y-105836177D01*
X154207955Y-106122239D01*
X154211973Y-106356813D01*
X154216350Y-106545901D01*
X154221386Y-106695510D01*
X154227384Y-106811642D01*
X154234644Y-106900302D01*
X154243467Y-106967494D01*
X154254154Y-107019224D01*
X154267007Y-107061494D01*
X154280146Y-107095156D01*
X154401828Y-107308443D01*
X154569909Y-107490992D01*
X154741349Y-107611632D01*
X154831907Y-107658259D01*
X154911090Y-107686597D01*
X155000318Y-107701095D01*
X155121009Y-107706202D01*
X155198625Y-107706625D01*
X155342845Y-107704492D01*
X155444991Y-107695150D01*
X155526431Y-107674184D01*
X155608530Y-107637180D01*
X155654410Y-107612445D01*
X155838482Y-107482625D01*
X155993694Y-107318743D01*
X156104646Y-107137846D01*
X156123021Y-107093676D01*
X156136490Y-107052210D01*
X156147860Y-107001575D01*
X156157404Y-106935840D01*
X156165396Y-106849073D01*
X156172111Y-106735341D01*
X156177822Y-106588713D01*
X156182804Y-106403257D01*
X156187330Y-106173041D01*
X156191675Y-105892132D01*
X156196111Y-105554600D01*
X156196843Y-105495339D01*
X156201132Y-105153884D01*
X156205066Y-104870235D01*
X156208950Y-104638702D01*
X156213087Y-104453595D01*
X156217783Y-104309224D01*
X156223340Y-104199898D01*
X156230063Y-104119927D01*
X156238257Y-104063622D01*
X156248225Y-104025291D01*
X156260271Y-103999245D01*
X156274700Y-103979793D01*
X156278051Y-103976026D01*
X156407612Y-103875161D01*
X156557673Y-103824844D01*
X156713828Y-103824203D01*
X156861669Y-103872363D01*
X156986793Y-103968452D01*
X157028173Y-104021487D01*
X157038980Y-104049177D01*
X157048287Y-104100645D01*
X157056287Y-104180849D01*
X157063175Y-104294747D01*
X157069145Y-104447297D01*
X157074388Y-104643458D01*
X157079100Y-104888188D01*
X157083474Y-105186445D01*
X157087702Y-105543187D01*
X157087750Y-105547625D01*
X157091546Y-105890243D01*
X157095032Y-106175312D01*
X157098531Y-106408779D01*
X157102367Y-106596593D01*
X157106862Y-106744702D01*
X157112341Y-106859051D01*
X157119126Y-106945591D01*
X157127541Y-107010268D01*
X157137909Y-107059030D01*
X157150553Y-107097824D01*
X157165797Y-107132599D01*
X157174906Y-107151164D01*
X157308386Y-107355201D01*
X157481743Y-107520964D01*
X157684248Y-107640933D01*
X157905169Y-107707590D01*
X157982016Y-107716733D01*
X158090438Y-107720992D01*
X158159569Y-107710008D01*
X158212967Y-107677629D01*
X158244413Y-107648224D01*
X158313546Y-107543014D01*
X158326451Y-107433297D01*
X158288200Y-107331129D01*
X158203869Y-107248561D01*
X158078531Y-107197648D01*
X158052741Y-107192888D01*
X157871908Y-107142121D01*
X157741631Y-107053665D01*
X157699237Y-107001000D01*
X157685924Y-106976185D01*
X157674732Y-106942047D01*
X157665394Y-106892883D01*
X157657643Y-106822990D01*
X157651212Y-106726664D01*
X157645835Y-106598203D01*
X157641242Y-106431904D01*
X157637168Y-106222064D01*
X157633346Y-105962981D01*
X157629507Y-105648950D01*
X157627500Y-105469723D01*
X157623659Y-105128430D01*
X157620089Y-104844623D01*
X157616473Y-104612291D01*
X157612492Y-104425421D01*
X157607829Y-104278002D01*
X157602163Y-104164023D01*
X157595177Y-104077471D01*
X157586552Y-104012337D01*
X157575970Y-103962607D01*
X157563112Y-103922271D01*
X157547660Y-103885317D01*
X157543017Y-103875172D01*
X157410307Y-103657785D01*
X157236930Y-103485523D01*
X157029481Y-103363039D01*
X156794559Y-103294988D01*
X156706296Y-103284837D01*
X156458326Y-103297316D01*
X156227641Y-103368022D01*
X156022758Y-103492384D01*
X155852196Y-103665830D01*
X155773262Y-103785500D01*
X155674875Y-103960125D01*
X155659000Y-105420625D01*
X155654423Y-105795385D01*
X155649426Y-106110335D01*
X155643876Y-106369165D01*
X155637643Y-106575564D01*
X155630592Y-106733222D01*
X155622593Y-106845827D01*
X155613511Y-106917069D01*
X155604154Y-106949137D01*
X155554519Y-107013675D01*
X155480825Y-107087616D01*
X155462797Y-107103302D01*
X155395838Y-107152808D01*
X155331713Y-107176226D01*
X155244763Y-107180092D01*
X155176766Y-107176169D01*
X155011819Y-107143538D01*
X154886875Y-107067911D01*
X154790898Y-106944625D01*
X154780876Y-106902811D01*
X154771892Y-106812299D01*
X154763863Y-106670742D01*
X154756709Y-106475796D01*
X154750349Y-106225114D01*
X154744701Y-105916350D01*
X154739684Y-105547159D01*
X154738250Y-105420625D01*
X154734448Y-105077926D01*
X154730948Y-104792824D01*
X154727433Y-104559418D01*
X154723586Y-104371806D01*
X154719090Y-104224088D01*
X154713627Y-104110363D01*
X154706879Y-104024731D01*
X154698531Y-103961291D01*
X154688263Y-103914141D01*
X154675759Y-103877382D01*
X154660702Y-103845113D01*
X154652709Y-103829923D01*
X154510428Y-103623210D01*
X154336643Y-103465304D01*
X154139829Y-103355983D01*
X153928465Y-103295026D01*
X153711028Y-103282212D01*
X153495995Y-103317320D01*
X153291844Y-103400128D01*
X153107052Y-103530416D01*
X152950097Y-103707962D01*
X152853486Y-103876863D01*
X152837443Y-103913695D01*
X152824051Y-103952618D01*
X152812994Y-103999642D01*
X152803955Y-104060777D01*
X152796618Y-104142031D01*
X152790666Y-104249415D01*
X152785784Y-104388938D01*
X152781656Y-104566609D01*
X152777965Y-104788438D01*
X152774394Y-105060434D01*
X152770629Y-105388608D01*
X152769750Y-105468250D01*
X152765356Y-105830438D01*
X152760696Y-106133720D01*
X152755596Y-106382689D01*
X152749884Y-106581939D01*
X152743383Y-106736062D01*
X152735920Y-106849653D01*
X152727321Y-106927305D01*
X152717411Y-106973611D01*
X152712162Y-106986011D01*
X152619092Y-107089799D01*
X152490169Y-107156101D01*
X152342986Y-107181716D01*
X152195139Y-107163444D01*
X152070387Y-107102737D01*
X151993719Y-107039052D01*
X151937730Y-106980044D01*
X151929281Y-106967800D01*
X151920748Y-106921966D01*
X151912590Y-106815782D01*
X151904909Y-106652400D01*
X151897807Y-106434970D01*
X151891385Y-106166643D01*
X151885745Y-105850567D01*
X151880991Y-105489895D01*
X151880750Y-105468250D01*
X151876956Y-105127940D01*
X151873499Y-104845057D01*
X151870035Y-104613532D01*
X151866219Y-104427296D01*
X151861706Y-104280280D01*
X151856152Y-104166415D01*
X151849213Y-104079631D01*
X151840544Y-104013860D01*
X151829801Y-103963032D01*
X151816639Y-103921078D01*
X151800713Y-103881929D01*
X151789253Y-103856298D01*
X151696358Y-103703670D01*
X151564710Y-103555464D01*
X151412718Y-103428912D01*
X151258792Y-103341244D01*
X151225347Y-103328493D01*
X151165891Y-103312007D01*
X151090790Y-103299335D01*
X150991680Y-103290032D01*
X150860199Y-103283649D01*
X150687983Y-103279738D01*
X150466669Y-103277853D01*
X150272060Y-103277499D01*
X149992493Y-103278455D01*
G37*
X149992493Y-103278455D02*
X149767608Y-103282416D01*
X149588603Y-103291026D01*
X149446675Y-103305927D01*
X149333021Y-103328763D01*
X149238840Y-103361176D01*
X149155327Y-103404809D01*
X149073680Y-103461305D01*
X149008011Y-103513405D01*
X148850031Y-103680554D01*
X148742832Y-103874409D01*
X148684996Y-104085516D01*
X148675103Y-104304425D01*
X148711734Y-104521684D01*
X148793470Y-104727841D01*
X148918890Y-104913445D01*
X149086577Y-105069043D01*
X149256552Y-105168500D01*
X149324375Y-105196982D01*
X149393351Y-105218323D01*
X149475222Y-105234102D01*
X149581729Y-105245896D01*
X149724616Y-105255284D01*
X149915624Y-105263844D01*
X149986124Y-105266565D01*
X150208181Y-105276169D01*
X150373463Y-105287157D01*
X150488693Y-105301389D01*
X150560594Y-105320725D01*
X150595888Y-105347025D01*
X150601299Y-105382150D01*
X150583550Y-105427960D01*
X150581742Y-105431376D01*
X150565461Y-105453904D01*
X150538123Y-105470635D01*
X150490544Y-105482714D01*
X150413544Y-105491289D01*
X150297942Y-105497504D01*
X150134555Y-105502505D01*
X149984227Y-105505954D01*
X149733287Y-105513990D01*
X149534942Y-105528276D01*
X149378350Y-105552220D01*
X149252668Y-105589228D01*
X149147056Y-105642708D01*
X149050671Y-105716065D01*
X148952671Y-105812706D01*
X148930035Y-105837193D01*
X148850981Y-105929035D01*
X148790097Y-106016692D01*
X148744938Y-106110350D01*
X148713058Y-106220196D01*
X148692012Y-106356416D01*
X148679354Y-106529195D01*
X148672640Y-106748721D01*
X148670327Y-106918984D01*
X148668876Y-107136455D01*
X148669843Y-107299779D01*
X148673861Y-107418287D01*
X148681564Y-107501308D01*
X148693586Y-107558170D01*
X148710558Y-107598203D01*
X148717178Y-107609042D01*
X148802207Y-107687889D01*
X148909843Y-107719160D01*
X149020686Y-107702897D01*
X149115335Y-107639144D01*
X149139434Y-107608110D01*
X149160067Y-107567739D01*
X149174300Y-107513155D01*
X149182967Y-107433760D01*
X149186900Y-107318956D01*
X149186931Y-107158145D01*
X149185268Y-107024837D01*
X149184556Y-106776886D01*
X149191704Y-106583672D01*
X149207907Y-106436783D01*
X149234362Y-106327808D01*
X149272265Y-106248335D01*
X149300941Y-106211376D01*
X149350712Y-106159082D01*
X149397253Y-106119865D01*
X149450521Y-106091555D01*
X149520469Y-106071985D01*
X149617055Y-106058987D01*
X149750233Y-106050394D01*
X149929959Y-106044037D01*
X150089080Y-106039750D01*
X150700752Y-106023875D01*
X150838314Y-105927215D01*
X150986087Y-105789535D01*
X151082431Y-105627899D01*
X151128756Y-105452707D01*
X151126478Y-105274359D01*
X151077007Y-105103254D01*
X150981758Y-104949791D01*
X150842144Y-104824370D01*
X150677450Y-104743277D01*
X150600804Y-104728656D01*
X150471054Y-104717210D01*
X150298541Y-104709558D01*
X150093610Y-104706317D01*
X150057830Y-104706250D01*
X149858790Y-104705302D01*
X149712005Y-104701747D01*
X149606246Y-104694518D01*
X149530286Y-104682548D01*
X149472897Y-104664769D01*
X149435505Y-104647096D01*
X149310103Y-104546053D01*
X149231571Y-104407039D01*
X149205925Y-104241137D01*
X149233317Y-104082918D01*
X149313137Y-103958100D01*
X149413913Y-103879352D01*
X149450432Y-103859776D01*
X149493246Y-103844800D01*
X149550871Y-103833814D01*
X149631828Y-103826208D01*
X149744633Y-103821371D01*
X149897806Y-103818693D01*
X150099865Y-103817564D01*
X150279145Y-103817368D01*
X151042914Y-103817250D01*
X151151364Y-103897262D01*
X151228032Y-103960947D01*
X151284021Y-104019955D01*
X151292470Y-104032199D01*
X151300970Y-104077991D01*
X151309095Y-104184194D01*
X151316745Y-104347716D01*
X151323821Y-104565471D01*
X151330226Y-104834367D01*
X151335858Y-105151316D01*
X151340621Y-105513228D01*
X151341000Y-105547625D01*
X151356875Y-107008125D01*
X151441025Y-107166875D01*
X151588418Y-107381372D01*
X151777543Y-107552636D01*
X151903891Y-107629224D01*
X152064232Y-107684306D01*
X152256512Y-107710115D01*
X152456577Y-107706451D01*
X152640274Y-107673111D01*
X152738000Y-107636154D01*
X152931744Y-107508493D01*
X153100622Y-107334471D01*
X153208873Y-107168704D01*
X153293625Y-107008125D01*
X153309500Y-105547625D01*
X153313276Y-105196722D01*
X153316784Y-104903620D01*
X153320742Y-104662624D01*
X153325870Y-104468042D01*
X153332886Y-104314182D01*
X153342508Y-104195350D01*
X153355456Y-104105853D01*
X153372448Y-104039999D01*
X153394202Y-103992096D01*
X153421437Y-103956449D01*
X153454872Y-103927367D01*
X153495226Y-103899157D01*
X153519681Y-103882601D01*
X153597112Y-103838719D01*
X153676734Y-103820691D01*
X153786756Y-103822699D01*
X153803598Y-103824031D01*
X153920863Y-103840593D01*
X154003089Y-103874193D01*
X154078519Y-103936577D01*
X154081621Y-103939664D01*
X154182625Y-104040617D01*
X154199792Y-105492621D01*
X154203995Y-105836177D01*
X154207955Y-106122239D01*
X154211973Y-106356813D01*
X154216350Y-106545901D01*
X154221386Y-106695510D01*
X154227384Y-106811642D01*
X154234644Y-106900302D01*
X154243467Y-106967494D01*
X154254154Y-107019224D01*
X154267007Y-107061494D01*
X154280146Y-107095156D01*
X154401828Y-107308443D01*
X154569909Y-107490992D01*
X154741349Y-107611632D01*
X154831907Y-107658259D01*
X154911090Y-107686597D01*
X155000318Y-107701095D01*
X155121009Y-107706202D01*
X155198625Y-107706625D01*
X155342845Y-107704492D01*
X155444991Y-107695150D01*
X155526431Y-107674184D01*
X155608530Y-107637180D01*
X155654410Y-107612445D01*
X155838482Y-107482625D01*
X155993694Y-107318743D01*
X156104646Y-107137846D01*
X156123021Y-107093676D01*
X156136490Y-107052210D01*
X156147860Y-107001575D01*
X156157404Y-106935840D01*
X156165396Y-106849073D01*
X156172111Y-106735341D01*
X156177822Y-106588713D01*
X156182804Y-106403257D01*
X156187330Y-106173041D01*
X156191675Y-105892132D01*
X156196111Y-105554600D01*
X156196843Y-105495339D01*
X156201132Y-105153884D01*
X156205066Y-104870235D01*
X156208950Y-104638702D01*
X156213087Y-104453595D01*
X156217783Y-104309224D01*
X156223340Y-104199898D01*
X156230063Y-104119927D01*
X156238257Y-104063622D01*
X156248225Y-104025291D01*
X156260271Y-103999245D01*
X156274700Y-103979793D01*
X156278051Y-103976026D01*
X156407612Y-103875161D01*
X156557673Y-103824844D01*
X156713828Y-103824203D01*
X156861669Y-103872363D01*
X156986793Y-103968452D01*
X157028173Y-104021487D01*
X157038980Y-104049177D01*
X157048287Y-104100645D01*
X157056287Y-104180849D01*
X157063175Y-104294747D01*
X157069145Y-104447297D01*
X157074388Y-104643458D01*
X157079100Y-104888188D01*
X157083474Y-105186445D01*
X157087702Y-105543187D01*
X157087750Y-105547625D01*
X157091546Y-105890243D01*
X157095032Y-106175312D01*
X157098531Y-106408779D01*
X157102367Y-106596593D01*
X157106862Y-106744702D01*
X157112341Y-106859051D01*
X157119126Y-106945591D01*
X157127541Y-107010268D01*
X157137909Y-107059030D01*
X157150553Y-107097824D01*
X157165797Y-107132599D01*
X157174906Y-107151164D01*
X157308386Y-107355201D01*
X157481743Y-107520964D01*
X157684248Y-107640933D01*
X157905169Y-107707590D01*
X157982016Y-107716733D01*
X158090438Y-107720992D01*
X158159569Y-107710008D01*
X158212967Y-107677629D01*
X158244413Y-107648224D01*
X158313546Y-107543014D01*
X158326451Y-107433297D01*
X158288200Y-107331129D01*
X158203869Y-107248561D01*
X158078531Y-107197648D01*
X158052741Y-107192888D01*
X157871908Y-107142121D01*
X157741631Y-107053665D01*
X157699237Y-107001000D01*
X157685924Y-106976185D01*
X157674732Y-106942047D01*
X157665394Y-106892883D01*
X157657643Y-106822990D01*
X157651212Y-106726664D01*
X157645835Y-106598203D01*
X157641242Y-106431904D01*
X157637168Y-106222064D01*
X157633346Y-105962981D01*
X157629507Y-105648950D01*
X157627500Y-105469723D01*
X157623659Y-105128430D01*
X157620089Y-104844623D01*
X157616473Y-104612291D01*
X157612492Y-104425421D01*
X157607829Y-104278002D01*
X157602163Y-104164023D01*
X157595177Y-104077471D01*
X157586552Y-104012337D01*
X157575970Y-103962607D01*
X157563112Y-103922271D01*
X157547660Y-103885317D01*
X157543017Y-103875172D01*
X157410307Y-103657785D01*
X157236930Y-103485523D01*
X157029481Y-103363039D01*
X156794559Y-103294988D01*
X156706296Y-103284837D01*
X156458326Y-103297316D01*
X156227641Y-103368022D01*
X156022758Y-103492384D01*
X155852196Y-103665830D01*
X155773262Y-103785500D01*
X155674875Y-103960125D01*
X155659000Y-105420625D01*
X155654423Y-105795385D01*
X155649426Y-106110335D01*
X155643876Y-106369165D01*
X155637643Y-106575564D01*
X155630592Y-106733222D01*
X155622593Y-106845827D01*
X155613511Y-106917069D01*
X155604154Y-106949137D01*
X155554519Y-107013675D01*
X155480825Y-107087616D01*
X155462797Y-107103302D01*
X155395838Y-107152808D01*
X155331713Y-107176226D01*
X155244763Y-107180092D01*
X155176766Y-107176169D01*
X155011819Y-107143538D01*
X154886875Y-107067911D01*
X154790898Y-106944625D01*
X154780876Y-106902811D01*
X154771892Y-106812299D01*
X154763863Y-106670742D01*
X154756709Y-106475796D01*
X154750349Y-106225114D01*
X154744701Y-105916350D01*
X154739684Y-105547159D01*
X154738250Y-105420625D01*
X154734448Y-105077926D01*
X154730948Y-104792824D01*
X154727433Y-104559418D01*
X154723586Y-104371806D01*
X154719090Y-104224088D01*
X154713627Y-104110363D01*
X154706879Y-104024731D01*
X154698531Y-103961291D01*
X154688263Y-103914141D01*
X154675759Y-103877382D01*
X154660702Y-103845113D01*
X154652709Y-103829923D01*
X154510428Y-103623210D01*
X154336643Y-103465304D01*
X154139829Y-103355983D01*
X153928465Y-103295026D01*
X153711028Y-103282212D01*
X153495995Y-103317320D01*
X153291844Y-103400128D01*
X153107052Y-103530416D01*
X152950097Y-103707962D01*
X152853486Y-103876863D01*
X152837443Y-103913695D01*
X152824051Y-103952618D01*
X152812994Y-103999642D01*
X152803955Y-104060777D01*
X152796618Y-104142031D01*
X152790666Y-104249415D01*
X152785784Y-104388938D01*
X152781656Y-104566609D01*
X152777965Y-104788438D01*
X152774394Y-105060434D01*
X152770629Y-105388608D01*
X152769750Y-105468250D01*
X152765356Y-105830438D01*
X152760696Y-106133720D01*
X152755596Y-106382689D01*
X152749884Y-106581939D01*
X152743383Y-106736062D01*
X152735920Y-106849653D01*
X152727321Y-106927305D01*
X152717411Y-106973611D01*
X152712162Y-106986011D01*
X152619092Y-107089799D01*
X152490169Y-107156101D01*
X152342986Y-107181716D01*
X152195139Y-107163444D01*
X152070387Y-107102737D01*
X151993719Y-107039052D01*
X151937730Y-106980044D01*
X151929281Y-106967800D01*
X151920748Y-106921966D01*
X151912590Y-106815782D01*
X151904909Y-106652400D01*
X151897807Y-106434970D01*
X151891385Y-106166643D01*
X151885745Y-105850567D01*
X151880991Y-105489895D01*
X151880750Y-105468250D01*
X151876956Y-105127940D01*
X151873499Y-104845057D01*
X151870035Y-104613532D01*
X151866219Y-104427296D01*
X151861706Y-104280280D01*
X151856152Y-104166415D01*
X151849213Y-104079631D01*
X151840544Y-104013860D01*
X151829801Y-103963032D01*
X151816639Y-103921078D01*
X151800713Y-103881929D01*
X151789253Y-103856298D01*
X151696358Y-103703670D01*
X151564710Y-103555464D01*
X151412718Y-103428912D01*
X151258792Y-103341244D01*
X151225347Y-103328493D01*
X151165891Y-103312007D01*
X151090790Y-103299335D01*
X150991680Y-103290032D01*
X150860199Y-103283649D01*
X150687983Y-103279738D01*
X150466669Y-103277853D01*
X150272060Y-103277499D01*
X149992493Y-103278455D01*
%TD*%
M02*
