%TF.GenerationSoftware,KiCad,Pcbnew,(5.1.6)-1*%
%TF.CreationDate,2020-12-19T22:24:40-05:00*%
%TF.ProjectId,cargadorDeBateriasLitIon,63617267-6164-46f7-9244-654261746572,rev?*%
%TF.SameCoordinates,Original*%
%TF.FileFunction,Soldermask,Bot*%
%TF.FilePolarity,Negative*%
%FSLAX46Y46*%
G04 Gerber Fmt 4.6, Leading zero omitted, Abs format (unit mm)*
G04 Created by KiCad (PCBNEW (5.1.6)-1) date 2020-12-19 22:24:40*
%MOMM*%
%LPD*%
G01*
G04 APERTURE LIST*
%ADD10C,0.250000*%
%ADD11R,1.600000X1.600000*%
G04 APERTURE END LIST*
D10*
X158941443Y-112452380D02*
X158816443Y-111452380D01*
X158572395Y-112166666D01*
X158149776Y-111452380D01*
X158274776Y-112452380D01*
X157810491Y-112166666D02*
X157334300Y-112166666D01*
X157941443Y-112452380D02*
X157483110Y-111452380D01*
X157274776Y-112452380D01*
X156691443Y-111976190D02*
X156750967Y-112452380D01*
X156959300Y-111452380D02*
X156691443Y-111976190D01*
X156292633Y-111452380D01*
X156084300Y-112452380D02*
X155959300Y-111452380D01*
X155512872Y-112452380D02*
X155870014Y-111880952D01*
X155387872Y-111452380D02*
X156030729Y-112023809D01*
X154768824Y-111452380D02*
X154578348Y-111452380D01*
X154489062Y-111500000D01*
X154405729Y-111595238D01*
X154381919Y-111785714D01*
X154423586Y-112119047D01*
X154495014Y-112309523D01*
X154602157Y-112404761D01*
X154703348Y-112452380D01*
X154893824Y-112452380D01*
X154983110Y-112404761D01*
X155066443Y-112309523D01*
X155090252Y-112119047D01*
X155048586Y-111785714D01*
X154977157Y-111595238D01*
X154870014Y-111500000D01*
X154768824Y-111452380D01*
X153560491Y-112452380D02*
X154036681Y-112452380D01*
X153911681Y-111452380D01*
X152655729Y-112452380D02*
X152929538Y-111976190D01*
X153227157Y-112452380D02*
X153102157Y-111452380D01*
X152721205Y-111452380D01*
X152631919Y-111500000D01*
X152590252Y-111547619D01*
X152554538Y-111642857D01*
X152572395Y-111785714D01*
X152631919Y-111880952D01*
X152685491Y-111928571D01*
X152786681Y-111976190D01*
X153167633Y-111976190D01*
X152161681Y-111928571D02*
X151828348Y-111928571D01*
X151750967Y-112452380D02*
X152227157Y-112452380D01*
X152102157Y-111452380D01*
X151625967Y-111452380D01*
X151072395Y-111976190D02*
X151131919Y-112452380D01*
X151340252Y-111452380D02*
X151072395Y-111976190D01*
X150673586Y-111452380D01*
X150453348Y-112357142D02*
X150411681Y-112404761D01*
X150465252Y-112452380D01*
X150506919Y-112404761D01*
X150453348Y-112357142D01*
X150465252Y-112452380D01*
X149405729Y-112357142D02*
X149459300Y-112404761D01*
X149608110Y-112452380D01*
X149703348Y-112452380D01*
X149840252Y-112404761D01*
X149923586Y-112309523D01*
X149959300Y-112214285D01*
X149983110Y-112023809D01*
X149965252Y-111880952D01*
X149893824Y-111690476D01*
X149834300Y-111595238D01*
X149727157Y-111500000D01*
X149578348Y-111452380D01*
X149483110Y-111452380D01*
X149346205Y-111500000D01*
X149304538Y-111547619D01*
X148673586Y-111452380D02*
X148483110Y-111452380D01*
X148393824Y-111500000D01*
X148310491Y-111595238D01*
X148286681Y-111785714D01*
X148328348Y-112119047D01*
X148399776Y-112309523D01*
X148506919Y-112404761D01*
X148608110Y-112452380D01*
X148798586Y-112452380D01*
X148887872Y-112404761D01*
X148971205Y-112309523D01*
X148995014Y-112119047D01*
X148953348Y-111785714D01*
X148881919Y-111595238D01*
X148774776Y-111500000D01*
X148673586Y-111452380D01*
X147941443Y-112452380D02*
X147816443Y-111452380D01*
X147572395Y-112166666D01*
X147149776Y-111452380D01*
X147274776Y-112452380D01*
D11*
%TO.C,J5*%
X168000000Y-114000000D03*
%TD*%
%TO.C,J6*%
X168000000Y-110500000D03*
%TD*%
%TO.C,J4*%
X168000000Y-103000000D03*
%TD*%
%TO.C,J3*%
X168000000Y-106500000D03*
%TD*%
%TO.C,J2*%
X142500000Y-103000000D03*
%TD*%
%TO.C,J1*%
X142500000Y-113500000D03*
%TD*%
M02*
