<?xml version="1.0" standalone="no"?>
 <!DOCTYPE svg PUBLIC "-//W3C//DTD SVG 1.1//EN" 
 "http://www.w3.org/Graphics/SVG/1.1/DTD/svg11.dtd"> 
<svg
  xmlns:svg="http://www.w3.org/2000/svg"
  xmlns="http://www.w3.org/2000/svg"
  xmlns:xlink="http://www.w3.org/1999/xlink"
  version="1.1"
  width="29.700220cm" height="21.000720cm" viewBox="0 0 116930 82680">
<title>SVG Picture created as cargadorDeBateriasLitIon-F_SilkS.svg date 2021/02/06 12:39:52 </title>
  <desc>Picture generated by PCBNEW </desc>
<g style="fill:#000000; fill-opacity:1;stroke:#000000; stroke-opacity:1;
stroke-linecap:round; stroke-linejoin:round;"
 transform="translate(0 0) scale(1 1)">
</g>
<g style="fill:#000000; fill-opacity:0.0; 
stroke:#000000; stroke-width:-0.000393701; stroke-opacity:1; 
stroke-linecap:round; stroke-linejoin:round;">
</g>
<g style="fill:#000000; fill-opacity:0.0; 
stroke:#000000; stroke-width:59.0551; stroke-opacity:1; 
stroke-linecap:round; stroke-linejoin:round;">
<g transform="rotate(-90 56791.3 40551.2)">
<text x="56791.3" y="40689"
textLength="761.155" font-size="367.454" lengthAdjust="spacingAndGlyphs"
text-anchor="middle" opacity="0">IN-</text>
</g>
<path d="M56916 40866
L56640 40866
" />
<path d="M56916 40734
L56640 40734
L56916 40577
L56640 40577
" />
<path d="M56811 40446
L56811 40236
" />
<g transform="rotate(-90 56791.3 44685)">
<text x="56791.3" y="44822.8"
textLength="837.926" font-size="367.454" lengthAdjust="spacingAndGlyphs"
text-anchor="middle" opacity="0">IN+</text>
</g>
<path d="M56916 45000
L56640 45000
" />
<path d="M56916 44868
L56640 44868
L56916 44711
L56640 44711
" />
<path d="M56811 44580
L56811 44370
" />
<path d="M56916 44475
L56706 44475
" />
<g transform="rotate(-90 65551.2 43503.9)">
<text x="65551.2" y="43641.7"
textLength="1205.38" font-size="367.454" lengthAdjust="spacingAndGlyphs"
text-anchor="middle" opacity="0">OUT-</text>
</g>
<path d="M65400 43950
L65400 43897
L65413 43871
L65439 43845
L65492 43832
L65583 43832
L65636 43845
L65662 43871
L65675 43897
L65675 43950
L65662 43976
L65636 44002
L65583 44015
L65492 44015
L65439 44002
L65413 43976
L65400 43950
" />
<path d="M65400 43713
L65623 43713
L65649 43700
L65662 43687
L65675 43661
L65675 43608
L65662 43582
L65649 43569
L65623 43556
L65400 43556
" />
<path d="M65400 43464
L65400 43307
" />
<path d="M65675 43385
L65400 43385
" />
<path d="M65570 43215
L65570 43005
" />
<g transform="rotate(-90 65551.2 44881.9)">
<text x="65551.2" y="45019.7"
textLength="693.57" font-size="367.454" lengthAdjust="spacingAndGlyphs"
text-anchor="middle" opacity="0">B-</text>
</g>
<path d="M65531 45032
L65544 44993
L65557 44980
L65583 44967
L65623 44967
L65649 44980
L65662 44993
L65675 45019
L65675 45124
L65400 45124
L65400 45032
L65413 45006
L65426 44993
L65452 44980
L65479 44980
L65505 44993
L65518 45006
L65531 45032
L65531 45124
" />
<path d="M65570 44849
L65570 44639
" />
<g transform="rotate(-90 65551.2 41929.1)">
<text x="65551.2" y="42066.9"
textLength="1205.38" font-size="367.454" lengthAdjust="spacingAndGlyphs"
text-anchor="middle" opacity="0">OUT+</text>
</g>
<path d="M65400 42375
L65400 42322
L65413 42296
L65439 42270
L65492 42257
L65583 42257
L65636 42270
L65662 42296
L65675 42322
L65675 42375
L65662 42401
L65636 42427
L65583 42440
L65492 42440
L65439 42427
L65413 42401
L65400 42375
" />
<path d="M65400 42139
L65623 42139
L65649 42125
L65662 42112
L65675 42086
L65675 42034
L65662 42007
L65649 41994
L65623 41981
L65400 41981
" />
<path d="M65400 41889
L65400 41732
" />
<path d="M65675 41811
L65400 41811
" />
<path d="M65570 41640
L65570 41430
" />
<path d="M65675 41535
L65465 41535
" />
<g transform="rotate(-90 65551.2 40551.2)">
<text x="65551.2" y="40689"
textLength="693.57" font-size="367.454" lengthAdjust="spacingAndGlyphs"
text-anchor="middle" opacity="0">B+</text>
</g>
<path d="M65531 40702
L65544 40662
L65557 40649
L65583 40636
L65623 40636
L65649 40649
L65662 40662
L65675 40688
L65675 40793
L65400 40793
L65400 40702
L65413 40675
L65426 40662
L65452 40649
L65479 40649
L65505 40662
L65518 40675
L65531 40702
L65531 40793
" />
<path d="M65570 40518
L65570 40308
" />
<path d="M65675 40413
L65465 40413
" />
</g>
<g style="fill:#000000; fill-opacity:0.0; 
stroke:#000000; stroke-width:47.2441; stroke-opacity:1; 
stroke-linecap:round; stroke-linejoin:round;">
<path d="M65062 43833
L65062 43961
" />
<path d="M64661 43833
L64661 43961
" />
<path d="M60137 41929
L60137 43011
" />
<path d="M58956 41929
L58956 43307
" />
<path d="M61751 44531
L62716 44531
" />
<path d="M62460 43263
L61751 43263
" />
<path d="M63715 44393
L63843 44393
" />
<path d="M63715 43992
L63843 43992
" />
<path d="M63843 43303
L63715 43303
" />
<path d="M63843 43704
L63715 43704
" />
<path d="M63582.7 40748 A1260.46 1260.46 0.0 0 0 62022 40736.9" />
<path d="M62007.9 42716.5 A1260.46 1260.46 0.0 0 0 63582.3 42716.8" />
<path d="M64173 43090
L64173 41574
" />
<path d="M64960 43090
L64960 41574
" />
<path d="M64173 43090
L64960 43090
" />
<path d="M61194 43763
L61194 43559
" />
<path d="M60635 43763
L60635 43559
" />
<path d="M65767 44507
L66515 44507
" />
<path d="M66515 44507
L66515 45255
" />
<path d="M66515 45255
L65767 45255
" />
<path d="M65767 45255
L65767 44507
" />
<path d="M59870 43500
L58846 43500
" />
<path d="M59870 44759
L59200 44759
" />
<path d="M65767 43129
L66515 43129
" />
<path d="M66515 43129
L66515 43877
" />
<path d="M66515 43877
L65767 43877
" />
<path d="M65767 43877
L65767 43129
" />
<path d="M65767 40177
L66515 40177
" />
<path d="M66515 40177
L66515 40925
" />
<path d="M66515 40925
L65767 40925
" />
<path d="M65767 40925
L65767 40177
" />
<path d="M65767 41555
L66515 41555
" />
<path d="M66515 41555
L66515 42303
" />
<path d="M66515 42303
L65767 42303
" />
<path d="M65767 42303
L65767 41555
" />
<path d="M55728 40177
L56476 40177
" />
<path d="M56476 40177
L56476 40925
" />
<path d="M56476 40925
L55728 40925
" />
<path d="M55728 40925
L55728 40177
" />
<path d="M55728 44311
L56476 44311
" />
<path d="M56476 44311
L56476 45059
" />
<path d="M56476 45059
L55728 45059
" />
<path d="M55728 45059
L55728 44311
" />
<path d="M57720 42834
L57720 41870
" />
<path d="M56452 42125
L56452 42834
" />
<path d="M60349 41610
L60477 41610
" />
<path d="M60349 41208
L60477 41208
" />
<path d="M60507 42298
L60507 42426
" />
<path d="M60909 42298
L60909 42426
" />
<path d="M57948 42494
L57948 42623
" />
<path d="M58350 42494
L58350 42623
" />
<path d="M57948 43833
L57948 43961
" />
<path d="M58350 43833
L58350 43961
" />
<path d="M57789 43293
L56889 43293
" />
<path d="M57789 43872
L57789 43293
" />
<path d="M56889 43872
L57789 43872
" />
<path d="M59260 41208
L59132 41208
" />
<path d="M59260 41610
L59132 41610
" />
<path d="M56865 41578
L56993 41578
" />
<path d="M56865 41177
L56993 41177
" />
<path d="M57140 44413
L57268 44413
" />
<path d="M57140 44011
L57268 44011
" />
</g>
<g style="fill:#000000; fill-opacity:0.0; 
stroke:#000000; stroke-width:59.0551; stroke-opacity:1; 
stroke-linecap:round; stroke-linejoin:round;">
<g transform="rotate(-90 64862.2 44881.9)">
<text x="64862.2" y="45078.7"
textLength="845.426" font-size="524.934" lengthAdjust="spacingAndGlyphs"
text-anchor="middle" opacity="0">C5</text>
</g>
<path d="M65002 44947
L65021 44966
L65040 45022
L65040 45059
L65021 45116
L64984 45153
L64946 45172
L64871 45191
L64815 45191
L64740 45172
L64702 45153
L64665 45116
L64646 45059
L64646 45022
L64665 44966
L64684 44947
" />
<path d="M64646 44591
L64646 44778
L64834 44797
L64815 44778
L64796 44741
L64796 44647
L64815 44610
L64834 44591
L64871 44572
L64965 44572
L65002 44591
L65021 44610
L65040 44647
L65040 44741
L65021 44778
L65002 44797
" />
<text x="62106.3" y="45078.7"
textLength="864.173" font-size="524.934" lengthAdjust="spacingAndGlyphs"
text-anchor="middle" opacity="0">U3</text>
<path d="M61806 44666
L61806 44985
L61825 45022
L61843 45041
L61881 45059
L61956 45059
L61993 45041
L62012 45022
L62031 44985
L62031 44666
" />
<path d="M62181 44666
L62425 44666
L62293 44816
L62350 44816
L62387 44835
L62406 44853
L62425 44891
L62425 44985
L62406 45022
L62387 45041
L62350 45059
L62237 45059
L62200 45041
L62181 45022
" />
<text x="63779.5" y="44921.3"
textLength="845.426" font-size="524.934" lengthAdjust="spacingAndGlyphs"
text-anchor="middle" opacity="0">R6</text>
<path d="M63713 44902
L63582 44715
" />
<path d="M63488 44902
L63488 44508
L63638 44508
L63676 44527
L63695 44546
L63713 44583
L63713 44640
L63695 44677
L63676 44696
L63638 44715
L63488 44715
" />
<path d="M64051 44508
L63976 44508
L63938 44527
L63920 44546
L63882 44602
L63863 44677
L63863 44827
L63882 44865
L63901 44883
L63938 44902
L64013 44902
L64051 44883
L64070 44865
L64088 44827
L64088 44733
L64070 44696
L64051 44677
L64013 44658
L63938 44658
L63901 44677
L63882 44696
L63863 44733
" />
<text x="63779.5" y="43208.7"
textLength="845.426" font-size="524.934" lengthAdjust="spacingAndGlyphs"
text-anchor="middle" opacity="0">R5</text>
<path d="M63713 43189
L63582 43002
" />
<path d="M63488 43189
L63488 42796
L63638 42796
L63676 42814
L63695 42833
L63713 42871
L63713 42927
L63695 42964
L63676 42983
L63638 43002
L63488 43002
" />
<path d="M64070 42796
L63882 42796
L63863 42983
L63882 42964
L63920 42946
L64013 42946
L64051 42964
L64070 42983
L64088 43021
L64088 43114
L64070 43152
L64051 43171
L64013 43189
L63920 43189
L63882 43171
L63863 43152
" />
<g transform="rotate(-90 61417.3 41732.3)">
<text x="61417.3" y="41929.1"
textLength="770.435" font-size="524.934" lengthAdjust="spacingAndGlyphs"
text-anchor="middle" opacity="0">L1</text>
</g>
<path d="M61595 41797
L61595 41985
L61201 41985
" />
<path d="M61595 41460
L61595 41685
" />
<path d="M61595 41572
L61201 41572
L61257 41610
L61295 41647
L61314 41685
" />
<g transform="rotate(-90 64566.9 40944.9)">
<text x="64566.9" y="41141.7"
textLength="845.426" font-size="524.934" lengthAdjust="spacingAndGlyphs"
text-anchor="middle" opacity="0">D2</text>
</g>
<path d="M64745 41235
L64351 41235
L64351 41141
L64370 41085
L64407 41047
L64445 41029
L64520 41010
L64576 41010
L64651 41029
L64688 41047
L64726 41085
L64745 41141
L64745 41235
" />
<path d="M64388 40860
L64370 40841
L64351 40804
L64351 40710
L64370 40673
L64388 40654
L64426 40635
L64463 40635
L64520 40654
L64745 40879
L64745 40635
" />
<g transform="rotate(-90 60925.2 44783.5)">
<text x="60925.2" y="44980.3"
textLength="845.426" font-size="524.934" lengthAdjust="spacingAndGlyphs"
text-anchor="middle" opacity="0">C4</text>
</g>
<path d="M61065 44849
L61084 44867
L61103 44924
L61103 44961
L61084 45017
L61047 45055
L61009 45074
L60934 45092
L60878 45092
L60803 45074
L60765 45055
L60728 45017
L60709 44961
L60709 44924
L60728 44867
L60747 44849
" />
<path d="M60840 44511
L61103 44511
" />
<path d="M60690 44605
L60972 44699
L60972 44455
" />
<text x="59527.6" y="45236.2"
textLength="864.173" font-size="524.934" lengthAdjust="spacingAndGlyphs"
text-anchor="middle" opacity="0">Q1</text>
<path d="M59490 45254
L59452 45236
L59415 45198
L59358 45142
L59321 45123
L59283 45123
" />
<path d="M59302 45217
L59265 45198
L59227 45161
L59208 45086
L59208 44955
L59227 44880
L59265 44842
L59302 44823
L59377 44823
L59415 44842
L59452 44880
L59471 44955
L59471 45086
L59452 45161
L59415 45198
L59377 45217
L59302 45217
" />
<path d="M59846 45217
L59621 45217
" />
<path d="M59733 45217
L59733 44823
L59696 44880
L59658 44917
L59621 44936
" />
<g transform="rotate(-90 56200.8 42519.7)">
<text x="56200.8" y="42677.2"
textLength="706.693" font-size="419.947" lengthAdjust="spacingAndGlyphs"
text-anchor="middle" opacity="0">U1</text>
</g>
<path d="M56028 42759
L56283 42759
L56313 42744
L56328 42729
L56343 42699
L56343 42639
L56328 42609
L56313 42594
L56283 42579
L56028 42579
" />
<path d="M56343 42264
L56343 42444
" />
<path d="M56343 42354
L56028 42354
L56073 42384
L56103 42414
L56118 42444
" />
<text x="60433.1" y="41043.3"
textLength="845.426" font-size="524.934" lengthAdjust="spacingAndGlyphs"
text-anchor="middle" opacity="0">R4</text>
<path d="M60367 41024
L60236 40837
" />
<path d="M60142 41024
L60142 40630
L60292 40630
L60329 40649
L60348 40668
L60367 40705
L60367 40762
L60348 40799
L60329 40818
L60292 40837
L60142 40837
" />
<path d="M60704 40762
L60704 41024
" />
<path d="M60611 40612
L60517 40893
L60761 40893
" />
<g transform="rotate(-90 61318.9 42519.7)">
<text x="61318.9" y="42716.5"
textLength="845.426" font-size="524.934" lengthAdjust="spacingAndGlyphs"
text-anchor="middle" opacity="0">R3</text>
</g>
<path d="M61497 42585
L61309 42716
" />
<path d="M61497 42810
L61103 42810
L61103 42660
L61122 42622
L61140 42604
L61178 42585
L61234 42585
L61272 42604
L61290 42622
L61309 42660
L61309 42810
" />
<path d="M61103 42454
L61103 42210
L61253 42341
L61253 42285
L61272 42247
L61290 42229
L61328 42210
L61422 42210
L61459 42229
L61478 42247
L61497 42285
L61497 42397
L61478 42435
L61459 42454
" />
<g transform="rotate(-90 58169.3 41535.4)">
<text x="58169.3" y="41732.3"
textLength="845.426" font-size="524.934" lengthAdjust="spacingAndGlyphs"
text-anchor="middle" opacity="0">R2</text>
</g>
<path d="M58347 41601
L58159 41732
" />
<path d="M58347 41826
L57953 41826
L57953 41676
L57972 41638
L57991 41619
L58028 41601
L58084 41601
L58122 41619
L58141 41638
L58159 41676
L58159 41826
" />
<path d="M57991 41451
L57972 41432
L57953 41394
L57953 41301
L57972 41263
L57991 41244
L58028 41226
L58066 41226
L58122 41244
L58347 41469
L58347 41226
" />
<g transform="rotate(-90 58622 43897.6)">
<text x="58622" y="44094.5"
textLength="845.426" font-size="524.934" lengthAdjust="spacingAndGlyphs"
text-anchor="middle" opacity="0">R1</text>
</g>
<path d="M58800 43963
L58612 44094
" />
<path d="M58800 44188
L58406 44188
L58406 44038
L58425 44000
L58443 43982
L58481 43963
L58537 43963
L58575 43982
L58593 44000
L58612 44038
L58612 44188
" />
<path d="M58800 43588
L58800 43813
" />
<path d="M58800 43700
L58406 43700
L58462 43738
L58500 43775
L58518 43813
" />
<g transform="rotate(-90 56417.3 43582.7)">
<text x="56417.3" y="43720.5"
textLength="614.83" font-size="367.454" lengthAdjust="spacingAndGlyphs"
text-anchor="middle" opacity="0">D1</text>
</g>
<path d="M56541 43786
L56266 43786
L56266 43720
L56279 43681
L56305 43654
L56332 43641
L56384 43628
L56423 43628
L56476 43641
L56502 43654
L56528 43681
L56541 43720
L56541 43786
" />
<path d="M56541 43366
L56541 43523
" />
<path d="M56541 43444
L56266 43444
L56305 43471
L56332 43497
L56345 43523
" />
<text x="59252" y="41043.3"
textLength="845.426" font-size="524.934" lengthAdjust="spacingAndGlyphs"
text-anchor="middle" opacity="0">C3</text>
<path d="M59186 40987
L59167 41005
L59111 41024
L59073 41024
L59017 41005
L58980 40968
L58961 40930
L58942 40855
L58942 40799
L58961 40724
L58980 40687
L59017 40649
L59073 40630
L59111 40630
L59167 40649
L59186 40668
" />
<path d="M59317 40630
L59561 40630
L59430 40780
L59486 40780
L59523 40799
L59542 40818
L59561 40855
L59561 40949
L59542 40987
L59523 41005
L59486 41024
L59373 41024
L59336 41005
L59317 40987
" />
<text x="57677.2" y="40944.9"
textLength="845.426" font-size="524.934" lengthAdjust="spacingAndGlyphs"
text-anchor="middle" opacity="0">C2</text>
<path d="M57611 40888
L57592 40907
L57536 40926
L57499 40926
L57442 40907
L57405 40869
L57386 40832
L57367 40757
L57367 40701
L57386 40626
L57405 40588
L57442 40551
L57499 40532
L57536 40532
L57592 40551
L57611 40569
" />
<path d="M57761 40569
L57780 40551
L57817 40532
L57911 40532
L57949 40551
L57967 40569
L57986 40607
L57986 40644
L57967 40701
L57742 40926
L57986 40926
" />
<text x="57381.9" y="44980.3"
textLength="845.426" font-size="524.934" lengthAdjust="spacingAndGlyphs"
text-anchor="middle" opacity="0">C1</text>
<path d="M57316 44924
L57297 44942
L57241 44961
L57203 44961
L57147 44942
L57110 44905
L57091 44867
L57072 44792
L57072 44736
L57091 44661
L57110 44624
L57147 44586
L57203 44567
L57241 44567
L57297 44586
L57316 44605
" />
<path d="M57691 44961
L57466 44961
" />
<path d="M57578 44961
L57578 44567
L57541 44624
L57503 44661
L57466 44680
" />
<g >
</g>
</g> 
</svg>
