<?xml version="1.0" standalone="no"?>
 <!DOCTYPE svg PUBLIC "-//W3C//DTD SVG 1.1//EN" 
 "http://www.w3.org/Graphics/SVG/1.1/DTD/svg11.dtd"> 
<svg
  xmlns:svg="http://www.w3.org/2000/svg"
  xmlns="http://www.w3.org/2000/svg"
  xmlns:xlink="http://www.w3.org/1999/xlink"
  version="1.1"
  width="29.700220cm" height="21.000720cm" viewBox="0 0 116930 82680">
<title>SVG Picture created as cargadorDeBateriasLitIon-F_Cu.svg date 2021/02/06 12:39:52 </title>
  <desc>Picture generated by PCBNEW </desc>
<g style="fill:#000000; fill-opacity:1;stroke:#000000; stroke-opacity:1;
stroke-linecap:round; stroke-linejoin:round;"
 transform="translate(0 0) scale(1 1)">
</g>
<g style="fill:#000000; fill-opacity:0.0; 
stroke:#000000; stroke-width:-0.000393701; stroke-opacity:1; 
stroke-linecap:round; stroke-linejoin:round;">
<g >
</g>
<g >
</g>
<g style="fill:#000000; fill-opacity:0.0; 
stroke:#000000; stroke-width:-0.000393701; stroke-opacity:1; 
stroke-linecap:round; stroke-linejoin:round;">
</g>
<g style="fill:#000000; fill-opacity:0.0; 
stroke:#000000; stroke-width:0; stroke-opacity:1; 
stroke-linecap:round; stroke-linejoin:round;">
</g>
<g style="fill:#000000; fill-opacity:1.0; 
stroke:#000000; stroke-width:0; stroke-opacity:1; 
stroke-linecap:round; stroke-linejoin:round;">
<path style="fill:#000000; fill-opacity:1.0; 
stroke:#000000; stroke-width:0; stroke-opacity:1; 
stroke-linecap:round; stroke-linejoin:round;fill-rule:evenodd;"
d="M 64971.5,44035.8
64979.9,44037.1
64988.1,44039.1
64996,44042
65003.7,44045.6
65010.9,44049.9
65017.7,44055
65024,44060.7
65029.7,44066.9
65034.7,44073.7
65039,44081
65042.7,44088.6
65045.5,44096.6
65047.6,44104.8
65048.8,44113.1
65049.2,44121.6
65049.2,44293.8
65048.8,44302.2
65047.6,44310.6
65045.5,44318.8
65042.7,44326.8
65039,44334.4
65034.7,44341.6
65029.7,44348.4
65024,44354.7
65017.7,44360.4
65010.9,44365.4
65003.7,44369.8
64996,44373.4
64988.1,44376.2
64979.9,44378.3
64971.5,44379.5
64963.1,44379.9
64761.3,44379.9
64752.9,44379.5
64744.5,44378.3
64736.3,44376.2
64728.4,44373.4
64720.7,44369.8
64713.5,44365.4
64706.7,44360.4
64700.4,44354.7
64694.7,44348.4
64689.7,44341.6
64685.4,44334.4
64681.8,44326.8
64678.9,44318.8
64676.9,44310.6
64675.6,44302.2
64675.2,44293.8
64675.2,44121.6
64675.6,44113.1
64676.9,44104.8
64678.9,44096.6
64681.8,44088.6
64685.4,44081
64689.7,44073.7
64694.7,44066.9
64700.4,44060.7
64706.7,44055
64713.5,44049.9
64720.7,44045.6
64728.4,44042
64736.3,44039.1
64744.5,44037.1
64752.9,44035.8
64761.3,44035.4
64963.1,44035.4
Z" /> 
<path style="fill:#000000; fill-opacity:1.0; 
stroke:#000000; stroke-width:0; stroke-opacity:1; 
stroke-linecap:round; stroke-linejoin:round;fill-rule:evenodd;"
d="M 64971.5,43415.8
64979.9,43417
64988.1,43419.1
64996,43421.9
65003.7,43425.5
65010.9,43429.9
65017.7,43434.9
65024,43440.6
65029.7,43446.8
65034.7,43453.6
65039,43460.9
65042.7,43468.5
65045.5,43476.5
65047.6,43484.7
65048.8,43493
65049.2,43501.5
65049.2,43673.7
65048.8,43682.2
65047.6,43690.5
65045.5,43698.7
65042.7,43706.7
65039,43714.3
65034.7,43721.6
65029.7,43728.4
65024,43734.6
65017.7,43740.3
65010.9,43745.3
65003.7,43749.7
64996,43753.3
64988.1,43756.1
64979.9,43758.2
64971.5,43759.4
64963.1,43759.8
64761.3,43759.8
64752.9,43759.4
64744.5,43758.2
64736.3,43756.1
64728.4,43753.3
64720.7,43749.7
64713.5,43745.3
64706.7,43740.3
64700.4,43734.6
64694.7,43728.4
64689.7,43721.6
64685.4,43714.3
64681.8,43706.7
64678.9,43698.7
64676.9,43690.5
64675.6,43682.2
64675.2,43673.7
64675.2,43501.5
64675.6,43493
64676.9,43484.7
64678.9,43476.5
64681.8,43468.5
64685.4,43460.9
64689.7,43453.6
64694.7,43446.8
64700.4,43440.6
64706.7,43434.9
64713.5,43429.9
64720.7,43425.5
64728.4,43421.9
64736.3,43419.1
64744.5,43417
64752.9,43415.8
64761.3,43415.4
64963.1,43415.4
Z" /> 
</g>
<g >
</g>
<g style="fill:#000000; fill-opacity:1.0; 
stroke:#000000; stroke-width:0; stroke-opacity:1; 
stroke-linecap:round; stroke-linejoin:round;">
<path style="fill:#000000; fill-opacity:1.0; 
stroke:#000000; stroke-width:0; stroke-opacity:1; 
stroke-linecap:round; stroke-linejoin:round;fill-rule:evenodd;"
d="M 59065,43287.4
59065,42893.7
59281.5,42893.7
59281.5,43287.4
Z" /> 
<path style="fill:#000000; fill-opacity:1.0; 
stroke:#000000; stroke-width:0; stroke-opacity:1; 
stroke-linecap:round; stroke-linejoin:round;fill-rule:evenodd;"
d="M 59439,43287.4
59439,42893.7
59655.5,42893.7
59655.5,43287.4
Z" /> 
<path style="fill:#000000; fill-opacity:1.0; 
stroke:#000000; stroke-width:0; stroke-opacity:1; 
stroke-linecap:round; stroke-linejoin:round;fill-rule:evenodd;"
d="M 59813,43287.4
59813,42893.7
60029.5,42893.7
60029.5,43287.4
Z" /> 
<path style="fill:#000000; fill-opacity:1.0; 
stroke:#000000; stroke-width:0; stroke-opacity:1; 
stroke-linecap:round; stroke-linejoin:round;fill-rule:evenodd;"
d="M 59813,42342.5
59813,41948.8
60029.5,41948.8
60029.5,42342.5
Z" /> 
<path style="fill:#000000; fill-opacity:1.0; 
stroke:#000000; stroke-width:0; stroke-opacity:1; 
stroke-linecap:round; stroke-linejoin:round;fill-rule:evenodd;"
d="M 59439,42342.5
59439,41948.8
59655.5,41948.8
59655.5,42342.5
Z" /> 
<path style="fill:#000000; fill-opacity:1.0; 
stroke:#000000; stroke-width:0; stroke-opacity:1; 
stroke-linecap:round; stroke-linejoin:round;fill-rule:evenodd;"
d="M 59065,42342.5
59065,41948.8
59281.5,41948.8
59281.5,42342.5
Z" /> 
</g>
<g >
</g>
<g style="fill:#000000; fill-opacity:1.0; 
stroke:#000000; stroke-width:0; stroke-opacity:1; 
stroke-linecap:round; stroke-linejoin:round;">
<path style="fill:#000000; fill-opacity:1.0; 
stroke:#000000; stroke-width:0; stroke-opacity:1; 
stroke-linecap:round; stroke-linejoin:round;fill-rule:evenodd;"
d="M 61881.9,44143.7
61881.9,44399.6
61464.6,44399.6
61464.6,44143.7
Z" /> 
<path style="fill:#000000; fill-opacity:1.0; 
stroke:#000000; stroke-width:0; stroke-opacity:1; 
stroke-linecap:round; stroke-linejoin:round;fill-rule:evenodd;"
d="M 61881.9,43395.7
61881.9,43651.6
61464.6,43651.6
61464.6,43395.7
Z" /> 
<path style="fill:#000000; fill-opacity:1.0; 
stroke:#000000; stroke-width:0; stroke-opacity:1; 
stroke-linecap:round; stroke-linejoin:round;fill-rule:evenodd;"
d="M 62748,43395.7
62748,43651.6
62330.7,43651.6
62330.7,43395.7
Z" /> 
<path style="fill:#000000; fill-opacity:1.0; 
stroke:#000000; stroke-width:0; stroke-opacity:1; 
stroke-linecap:round; stroke-linejoin:round;fill-rule:evenodd;"
d="M 62748,43769.7
62748,44025.6
62330.7,44025.6
62330.7,43769.7
Z" /> 
<path style="fill:#000000; fill-opacity:1.0; 
stroke:#000000; stroke-width:0; stroke-opacity:1; 
stroke-linecap:round; stroke-linejoin:round;fill-rule:evenodd;"
d="M 62748,44143.7
62748,44399.6
62330.7,44399.6
62330.7,44143.7
Z" /> 
</g>
<g >
</g>
<g style="fill:#000000; fill-opacity:1.0; 
stroke:#000000; stroke-width:0; stroke-opacity:1; 
stroke-linecap:round; stroke-linejoin:round;">
<path style="fill:#000000; fill-opacity:1.0; 
stroke:#000000; stroke-width:0; stroke-opacity:1; 
stroke-linecap:round; stroke-linejoin:round;fill-rule:evenodd;"
d="M 64184.1,44006.3
64192.5,44007.6
64200.7,44009.6
64208.6,44012.5
64216.3,44016.1
64223.5,44020.4
64230.3,44025.5
64236.6,44031.1
64242.3,44037.4
64247.3,44044.2
64251.6,44051.4
64255.3,44059.1
64258.1,44067
64260.2,44075.2
64261.4,44083.6
64261.8,44092
64261.8,44293.8
64261.4,44302.2
64260.2,44310.6
64258.1,44318.8
64255.3,44326.8
64251.6,44334.4
64247.3,44341.6
64242.3,44348.4
64236.6,44354.7
64230.3,44360.4
64223.5,44365.4
64216.3,44369.8
64208.6,44373.4
64200.7,44376.2
64192.5,44378.3
64184.1,44379.5
64175.7,44379.9
64003.4,44379.9
63995,44379.5
63986.6,44378.3
63978.4,44376.2
63970.5,44373.4
63962.8,44369.8
63955.6,44365.4
63948.8,44360.4
63942.5,44354.7
63936.9,44348.4
63931.8,44341.6
63927.5,44334.4
63923.9,44326.8
63921,44318.8
63919,44310.6
63917.7,44302.2
63917.3,44293.8
63917.3,44092
63917.7,44083.6
63919,44075.2
63921,44067
63923.9,44059.1
63927.5,44051.4
63931.8,44044.2
63936.9,44037.4
63942.5,44031.1
63948.8,44025.5
63955.6,44020.4
63962.8,44016.1
63970.5,44012.5
63978.4,44009.6
63986.6,44007.6
63995,44006.3
64003.4,44005.9
64175.7,44005.9
Z" /> 
<path style="fill:#000000; fill-opacity:1.0; 
stroke:#000000; stroke-width:0; stroke-opacity:1; 
stroke-linecap:round; stroke-linejoin:round;fill-rule:evenodd;"
d="M 63564.1,44006.3
63572.4,44007.6
63580.6,44009.6
63588.6,44012.5
63596.2,44016.1
63603.5,44020.4
63610.2,44025.5
63616.5,44031.1
63622.2,44037.4
63627.2,44044.2
63631.6,44051.4
63635.2,44059.1
63638,44067
63640.1,44075.2
63641.3,44083.6
63641.7,44092
63641.7,44293.8
63641.3,44302.2
63640.1,44310.6
63638,44318.8
63635.2,44326.8
63631.6,44334.4
63627.2,44341.6
63622.2,44348.4
63616.5,44354.7
63610.2,44360.4
63603.5,44365.4
63596.2,44369.8
63588.6,44373.4
63580.6,44376.2
63572.4,44378.3
63564.1,44379.5
63555.6,44379.9
63383.4,44379.9
63374.9,44379.5
63366.6,44378.3
63358.4,44376.2
63350.4,44373.4
63342.8,44369.8
63335.5,44365.4
63328.7,44360.4
63322.5,44354.7
63316.8,44348.4
63311.8,44341.6
63307.4,44334.4
63303.8,44326.8
63301,44318.8
63298.9,44310.6
63297.7,44302.2
63297.2,44293.8
63297.2,44092
63297.7,44083.6
63298.9,44075.2
63301,44067
63303.8,44059.1
63307.4,44051.4
63311.8,44044.2
63316.8,44037.4
63322.5,44031.1
63328.7,44025.5
63335.5,44020.4
63342.8,44016.1
63350.4,44012.5
63358.4,44009.6
63366.6,44007.6
63374.9,44006.3
63383.4,44005.9
63555.6,44005.9
Z" /> 
</g>
<g >
</g>
<g style="fill:#000000; fill-opacity:1.0; 
stroke:#000000; stroke-width:0; stroke-opacity:1; 
stroke-linecap:round; stroke-linejoin:round;">
<path style="fill:#000000; fill-opacity:1.0; 
stroke:#000000; stroke-width:0; stroke-opacity:1; 
stroke-linecap:round; stroke-linejoin:round;fill-rule:evenodd;"
d="M 63564.1,43317.3
63572.4,43318.6
63580.6,43320.6
63588.6,43323.5
63596.2,43327.1
63603.5,43331.4
63610.2,43336.5
63616.5,43342.2
63622.2,43348.4
63627.2,43355.2
63631.6,43362.5
63635.2,43370.1
63638,43378.1
63640.1,43386.2
63641.3,43394.6
63641.7,43403.1
63641.7,43604.8
63641.3,43613.3
63640.1,43621.6
63638,43629.8
63635.2,43637.8
63631.6,43645.4
63627.2,43652.7
63622.2,43659.5
63616.5,43665.7
63610.2,43671.4
63603.5,43676.4
63596.2,43680.8
63588.6,43684.4
63580.6,43687.2
63572.4,43689.3
63564.1,43690.5
63555.6,43690.9
63383.4,43690.9
63374.9,43690.5
63366.6,43689.3
63358.4,43687.2
63350.4,43684.4
63342.8,43680.8
63335.5,43676.4
63328.7,43671.4
63322.5,43665.7
63316.8,43659.5
63311.8,43652.7
63307.4,43645.4
63303.8,43637.8
63301,43629.8
63298.9,43621.6
63297.7,43613.3
63297.2,43604.8
63297.2,43403.1
63297.7,43394.6
63298.9,43386.2
63301,43378.1
63303.8,43370.1
63307.4,43362.5
63311.8,43355.2
63316.8,43348.4
63322.5,43342.2
63328.7,43336.5
63335.5,43331.4
63342.8,43327.1
63350.4,43323.5
63358.4,43320.6
63366.6,43318.6
63374.9,43317.3
63383.4,43316.9
63555.6,43316.9
Z" /> 
<path style="fill:#000000; fill-opacity:1.0; 
stroke:#000000; stroke-width:0; stroke-opacity:1; 
stroke-linecap:round; stroke-linejoin:round;fill-rule:evenodd;"
d="M 64184.1,43317.3
64192.5,43318.6
64200.7,43320.6
64208.6,43323.5
64216.3,43327.1
64223.5,43331.4
64230.3,43336.5
64236.6,43342.2
64242.3,43348.4
64247.3,43355.2
64251.6,43362.5
64255.3,43370.1
64258.1,43378.1
64260.2,43386.2
64261.4,43394.6
64261.8,43403.1
64261.8,43604.8
64261.4,43613.3
64260.2,43621.6
64258.1,43629.8
64255.3,43637.8
64251.6,43645.4
64247.3,43652.7
64242.3,43659.5
64236.6,43665.7
64230.3,43671.4
64223.5,43676.4
64216.3,43680.8
64208.6,43684.4
64200.7,43687.2
64192.5,43689.3
64184.1,43690.5
64175.7,43690.9
64003.4,43690.9
63995,43690.5
63986.6,43689.3
63978.4,43687.2
63970.5,43684.4
63962.8,43680.8
63955.6,43676.4
63948.8,43671.4
63942.5,43665.7
63936.9,43659.5
63931.8,43652.7
63927.5,43645.4
63923.9,43637.8
63921,43629.8
63919,43621.6
63917.7,43613.3
63917.3,43604.8
63917.3,43403.1
63917.7,43394.6
63919,43386.2
63921,43378.1
63923.9,43370.1
63927.5,43362.5
63931.8,43355.2
63936.9,43348.4
63942.5,43342.2
63948.8,43336.5
63955.6,43331.4
63962.8,43327.1
63970.5,43323.5
63978.4,43320.6
63986.6,43318.6
63995,43317.3
64003.4,43316.9
64175.7,43316.9
Z" /> 
</g>
<g >
</g>
<g style="fill:#000000; fill-opacity:1.0; 
stroke:#000000; stroke-width:0; stroke-opacity:1; 
stroke-linecap:round; stroke-linejoin:round;">
<path style="fill:#000000; fill-opacity:1.0; 
stroke:#000000; stroke-width:0; stroke-opacity:1; 
stroke-linecap:round; stroke-linejoin:round;fill-rule:evenodd;"
d="M 63799.2,42618.1
63090.6,42618.1
63090.6,40846.5
63799.2,40846.5
Z" /> 
<path style="fill:#000000; fill-opacity:1.0; 
stroke:#000000; stroke-width:0; stroke-opacity:1; 
stroke-linecap:round; stroke-linejoin:round;fill-rule:evenodd;"
d="M 62500,42618.1
61791.3,42618.1
61791.3,40846.5
62500,40846.5
Z" /> 
</g>
<g >
</g>
<g style="fill:#000000; fill-opacity:1.0; 
stroke:#000000; stroke-width:0; stroke-opacity:1; 
stroke-linecap:round; stroke-linejoin:round;">
<path style="fill:#000000; fill-opacity:1.0; 
stroke:#000000; stroke-width:0; stroke-opacity:1; 
stroke-linecap:round; stroke-linejoin:round;fill-rule:evenodd;"
d="M 64783.5,41889.8
64350.4,41889.8
64350.4,41456.7
64783.5,41456.7
Z" /> 
<path style="fill:#000000; fill-opacity:1.0; 
stroke:#000000; stroke-width:0; stroke-opacity:1; 
stroke-linecap:round; stroke-linejoin:round;fill-rule:evenodd;"
d="M 64783.5,42992.1
64350.4,42992.1
64350.4,42559.1
64783.5,42559.1
Z" /> 
</g>
<g >
</g>
<g style="fill:#000000; fill-opacity:1.0; 
stroke:#000000; stroke-width:0; stroke-opacity:1; 
stroke-linecap:round; stroke-linejoin:round;">
<path style="fill:#000000; fill-opacity:1.0; 
stroke:#000000; stroke-width:0; stroke-opacity:1; 
stroke-linecap:round; stroke-linejoin:round;fill-rule:evenodd;"
d="M 61104.4,43100.9
61113.7,43102.2
61122.8,43104.5
61131.7,43107.7
61140.2,43111.7
61148.3,43116.6
61155.9,43122.2
61162.8,43128.5
61169.2,43135.5
61174.8,43143
61179.6,43151.1
61183.6,43159.6
61186.8,43168.5
61189.1,43177.6
61190.5,43187
61190.9,43196.4
61190.9,43388.3
61190.5,43397.7
61189.1,43407
61186.8,43416.1
61183.6,43425
61179.6,43433.5
61174.8,43441.6
61169.2,43449.2
61162.8,43456.1
61155.9,43462.5
61148.3,43468.1
61140.2,43472.9
61131.7,43476.9
61122.8,43480.1
61113.7,43482.4
61104.4,43483.8
61095,43484.3
60735.7,43484.3
60726.3,43483.8
60717,43482.4
60707.9,43480.1
60699,43476.9
60690.5,43472.9
60682.4,43468.1
60674.8,43462.5
60667.9,43456.1
60661.5,43449.2
60655.9,43441.6
60651.1,43433.5
60647.1,43425
60643.9,43416.1
60641.6,43407
60640.2,43397.7
60639.8,43388.3
60639.8,43196.4
60640.2,43187
60641.6,43177.6
60643.9,43168.5
60647.1,43159.6
60651.1,43151.1
60655.9,43143
60661.5,43135.5
60667.9,43128.5
60674.8,43122.2
60682.4,43116.6
60690.5,43111.7
60699,43107.7
60707.9,43104.5
60717,43102.2
60726.3,43100.9
60735.7,43100.4
61095,43100.4
Z" /> 
<path style="fill:#000000; fill-opacity:1.0; 
stroke:#000000; stroke-width:0; stroke-opacity:1; 
stroke-linecap:round; stroke-linejoin:round;fill-rule:evenodd;"
d="M 61104.4,43839
61113.7,43840.4
61122.8,43842.7
61131.7,43845.9
61140.2,43849.9
61148.3,43854.8
61155.9,43860.4
61162.8,43866.7
61169.2,43873.7
61174.8,43881.2
61179.6,43889.3
61183.6,43897.8
61186.8,43906.7
61189.1,43915.8
61190.5,43925.1
61190.9,43934.5
61190.9,44126.5
61190.5,44135.9
61189.1,44145.2
61186.8,44154.3
61183.6,44163.2
61179.6,44171.7
61174.8,44179.8
61169.2,44187.4
61162.8,44194.3
61155.9,44200.7
61148.3,44206.3
61140.2,44211.1
61131.7,44215.1
61122.8,44218.3
61113.7,44220.6
61104.4,44222
61095,44222.4
60735.7,44222.4
60726.3,44222
60717,44220.6
60707.9,44218.3
60699,44215.1
60690.5,44211.1
60682.4,44206.3
60674.8,44200.7
60667.9,44194.3
60661.5,44187.4
60655.9,44179.8
60651.1,44171.7
60647.1,44163.2
60643.9,44154.3
60641.6,44145.2
60640.2,44135.9
60639.8,44126.5
60639.8,43934.5
60640.2,43925.1
60641.6,43915.8
60643.9,43906.7
60647.1,43897.8
60651.1,43889.3
60655.9,43881.2
60661.5,43873.7
60667.9,43866.7
60674.8,43860.4
60682.4,43854.8
60690.5,43849.9
60699,43845.9
60707.9,43842.7
60717,43840.4
60726.3,43839
60735.7,43838.6
61095,43838.6
Z" /> 
</g>
<g >
</g>
<g style="fill:#000000; fill-opacity:1.0; 
stroke:#000000; stroke-width:0; stroke-opacity:1; 
stroke-linecap:round; stroke-linejoin:round;">
<path style="fill:#000000; fill-opacity:1.0; 
stroke:#000000; stroke-width:0; stroke-opacity:1; 
stroke-linecap:round; stroke-linejoin:round;fill-rule:evenodd;"
d="M 65846.5,45177.2
65846.5,44586.6
66437,44586.6
66437,45177.2
Z" /> 
</g>
<g >
</g>
<g style="fill:#000000; fill-opacity:1.0; 
stroke:#000000; stroke-width:0; stroke-opacity:1; 
stroke-linecap:round; stroke-linejoin:round;">
<path style="fill:#000000; fill-opacity:1.0; 
stroke:#000000; stroke-width:0; stroke-opacity:1; 
stroke-linecap:round; stroke-linejoin:round;fill-rule:evenodd;"
d="M 59850.4,44267.7
59850.4,43992.1
60244.1,43992.1
60244.1,44267.7
Z" /> 
<path style="fill:#000000; fill-opacity:1.0; 
stroke:#000000; stroke-width:0; stroke-opacity:1; 
stroke-linecap:round; stroke-linejoin:round;fill-rule:evenodd;"
d="M 59850.4,43893.7
59850.4,43618.1
60244.1,43618.1
60244.1,43893.7
Z" /> 
<path style="fill:#000000; fill-opacity:1.0; 
stroke:#000000; stroke-width:0; stroke-opacity:1; 
stroke-linecap:round; stroke-linejoin:round;fill-rule:evenodd;"
d="M 59850.4,44641.7
59850.4,44366.1
60244.1,44366.1
60244.1,44641.7
Z" /> 
<path style="fill:#000000; fill-opacity:1.0; 
stroke:#000000; stroke-width:0; stroke-opacity:1; 
stroke-linecap:round; stroke-linejoin:round;fill-rule:evenodd;"
d="M 58826.8,44641.7
58826.8,44366.1
59220.5,44366.1
59220.5,44641.7
Z" /> 
<path style="fill:#000000; fill-opacity:1.0; 
stroke:#000000; stroke-width:0; stroke-opacity:1; 
stroke-linecap:round; stroke-linejoin:round;fill-rule:evenodd;"
d="M 58826.8,44267.7
58826.8,43992.1
59220.5,43992.1
59220.5,44267.7
Z" /> 
<path style="fill:#000000; fill-opacity:1.0; 
stroke:#000000; stroke-width:0; stroke-opacity:1; 
stroke-linecap:round; stroke-linejoin:round;fill-rule:evenodd;"
d="M 58826.8,43893.7
58826.8,43618.1
59220.5,43618.1
59220.5,43893.7
Z" /> 
</g>
<g >
</g>
<g style="fill:#000000; fill-opacity:1.0; 
stroke:#000000; stroke-width:0; stroke-opacity:1; 
stroke-linecap:round; stroke-linejoin:round;">
<path style="fill:#000000; fill-opacity:1.0; 
stroke:#000000; stroke-width:0; stroke-opacity:1; 
stroke-linecap:round; stroke-linejoin:round;fill-rule:evenodd;"
d="M 65846.5,43799.2
65846.5,43208.7
66437,43208.7
66437,43799.2
Z" /> 
</g>
<g >
</g>
<g style="fill:#000000; fill-opacity:1.0; 
stroke:#000000; stroke-width:0; stroke-opacity:1; 
stroke-linecap:round; stroke-linejoin:round;">
<path style="fill:#000000; fill-opacity:1.0; 
stroke:#000000; stroke-width:0; stroke-opacity:1; 
stroke-linecap:round; stroke-linejoin:round;fill-rule:evenodd;"
d="M 65846.5,40846.5
65846.5,40255.9
66437,40255.9
66437,40846.5
Z" /> 
</g>
<g >
</g>
<g style="fill:#000000; fill-opacity:1.0; 
stroke:#000000; stroke-width:0; stroke-opacity:1; 
stroke-linecap:round; stroke-linejoin:round;">
<path style="fill:#000000; fill-opacity:1.0; 
stroke:#000000; stroke-width:0; stroke-opacity:1; 
stroke-linecap:round; stroke-linejoin:round;fill-rule:evenodd;"
d="M 65846.5,42224.4
65846.5,41633.9
66437,41633.9
66437,42224.4
Z" /> 
</g>
<g >
</g>
<g style="fill:#000000; fill-opacity:1.0; 
stroke:#000000; stroke-width:0; stroke-opacity:1; 
stroke-linecap:round; stroke-linejoin:round;">
<path style="fill:#000000; fill-opacity:1.0; 
stroke:#000000; stroke-width:0; stroke-opacity:1; 
stroke-linecap:round; stroke-linejoin:round;fill-rule:evenodd;"
d="M 55807.1,40846.5
55807.1,40255.9
56397.6,40255.9
56397.6,40846.5
Z" /> 
</g>
<g >
</g>
<g style="fill:#000000; fill-opacity:1.0; 
stroke:#000000; stroke-width:0; stroke-opacity:1; 
stroke-linecap:round; stroke-linejoin:round;">
<path style="fill:#000000; fill-opacity:1.0; 
stroke:#000000; stroke-width:0; stroke-opacity:1; 
stroke-linecap:round; stroke-linejoin:round;fill-rule:evenodd;"
d="M 55807.1,44980.3
55807.1,44389.8
56397.6,44389.8
56397.6,44980.3
Z" /> 
</g>
<g >
</g>
<g style="fill:#000000; fill-opacity:1.0; 
stroke:#000000; stroke-width:0; stroke-opacity:1; 
stroke-linecap:round; stroke-linejoin:round;">
<path style="fill:#000000; fill-opacity:1.0; 
stroke:#000000; stroke-width:0; stroke-opacity:1; 
stroke-linecap:round; stroke-linejoin:round;fill-rule:evenodd;"
d="M 57332.7,42704.7
57588.6,42704.7
57588.6,43122
57332.7,43122
Z" /> 
<path style="fill:#000000; fill-opacity:1.0; 
stroke:#000000; stroke-width:0; stroke-opacity:1; 
stroke-linecap:round; stroke-linejoin:round;fill-rule:evenodd;"
d="M 56584.6,42704.7
56840.6,42704.7
56840.6,43122
56584.6,43122
Z" /> 
<path style="fill:#000000; fill-opacity:1.0; 
stroke:#000000; stroke-width:0; stroke-opacity:1; 
stroke-linecap:round; stroke-linejoin:round;fill-rule:evenodd;"
d="M 56584.6,41838.6
56840.6,41838.6
56840.6,42255.9
56584.6,42255.9
Z" /> 
<path style="fill:#000000; fill-opacity:1.0; 
stroke:#000000; stroke-width:0; stroke-opacity:1; 
stroke-linecap:round; stroke-linejoin:round;fill-rule:evenodd;"
d="M 56958.7,41838.6
57214.6,41838.6
57214.6,42255.9
56958.7,42255.9
Z" /> 
<path style="fill:#000000; fill-opacity:1.0; 
stroke:#000000; stroke-width:0; stroke-opacity:1; 
stroke-linecap:round; stroke-linejoin:round;fill-rule:evenodd;"
d="M 57332.7,41838.6
57588.6,41838.6
57588.6,42255.9
57332.7,42255.9
Z" /> 
</g>
<g >
</g>
<g style="fill:#000000; fill-opacity:1.0; 
stroke:#000000; stroke-width:0; stroke-opacity:1; 
stroke-linecap:round; stroke-linejoin:round;">
<path style="fill:#000000; fill-opacity:1.0; 
stroke:#000000; stroke-width:0; stroke-opacity:1; 
stroke-linecap:round; stroke-linejoin:round;fill-rule:evenodd;"
d="M 60818,41222.9
60826.3,41224.1
60834.5,41226.1
60842.5,41229
60850.1,41232.6
60857.4,41237
60864.2,41242
60870.4,41247.7
60876.1,41253.9
60881.2,41260.7
60885.5,41268
60889.1,41275.6
60892,41283.6
60894,41291.8
60895.3,41300.1
60895.7,41308.6
60895.7,41510.3
60895.3,41518.8
60894,41527.1
60892,41535.3
60889.1,41543.3
60885.5,41550.9
60881.2,41558.2
60876.1,41565
60870.4,41571.2
60864.2,41576.9
60857.4,41581.9
60850.1,41586.3
60842.5,41589.9
60834.5,41592.7
60826.3,41594.8
60818,41596
60809.5,41596.5
60637.3,41596.5
60628.9,41596
60620.5,41594.8
60612.3,41592.7
60604.3,41589.9
60596.7,41586.3
60589.5,41581.9
60582.7,41576.9
60576.4,41571.2
60570.7,41565
60565.7,41558.2
60561.4,41550.9
60557.7,41543.3
60554.9,41535.3
60552.8,41527.1
60551.6,41518.8
60551.2,41510.3
60551.2,41308.6
60551.6,41300.1
60552.8,41291.8
60554.9,41283.6
60557.7,41275.6
60561.4,41268
60565.7,41260.7
60570.7,41253.9
60576.4,41247.7
60582.7,41242
60589.5,41237
60596.7,41232.6
60604.3,41229
60612.3,41226.1
60620.5,41224.1
60628.9,41222.9
60637.3,41222.4
60809.5,41222.4
Z" /> 
<path style="fill:#000000; fill-opacity:1.0; 
stroke:#000000; stroke-width:0; stroke-opacity:1; 
stroke-linecap:round; stroke-linejoin:round;fill-rule:evenodd;"
d="M 60197.9,41222.9
60206.3,41224.1
60214.5,41226.1
60222.4,41229
60230.1,41232.6
60237.3,41237
60244.1,41242
60250.4,41247.7
60256,41253.9
60261.1,41260.7
60265.4,41268
60269,41275.6
60271.9,41283.6
60273.9,41291.8
60275.2,41300.1
60275.6,41308.6
60275.6,41510.3
60275.2,41518.8
60273.9,41527.1
60271.9,41535.3
60269,41543.3
60265.4,41550.9
60261.1,41558.2
60256,41565
60250.4,41571.2
60244.1,41576.9
60237.3,41581.9
60230.1,41586.3
60222.4,41589.9
60214.5,41592.7
60206.3,41594.8
60197.9,41596
60189.5,41596.5
60017.2,41596.5
60008.8,41596
60000.4,41594.8
59992.2,41592.7
59984.3,41589.9
59976.6,41586.3
59969.4,41581.9
59962.6,41576.9
59956.3,41571.2
59950.7,41565
59945.6,41558.2
59941.3,41550.9
59937.7,41543.3
59934.8,41535.3
59932.8,41527.1
59931.5,41518.8
59931.1,41510.3
59931.1,41308.6
59931.5,41300.1
59932.8,41291.8
59934.8,41283.6
59937.7,41275.6
59941.3,41268
59945.6,41260.7
59950.7,41253.9
59956.3,41247.7
59962.6,41242
59969.4,41237
59976.6,41232.6
59984.3,41229
59992.2,41226.1
60000.4,41224.1
60008.8,41222.9
60017.2,41222.4
60189.5,41222.4
Z" /> 
</g>
<g >
</g>
<g style="fill:#000000; fill-opacity:1.0; 
stroke:#000000; stroke-width:0; stroke-opacity:1; 
stroke-linecap:round; stroke-linejoin:round;">
<path style="fill:#000000; fill-opacity:1.0; 
stroke:#000000; stroke-width:0; stroke-opacity:1; 
stroke-linecap:round; stroke-linejoin:round;fill-rule:evenodd;"
d="M 60818,42500.4
60826.3,42501.7
60834.5,42503.7
60842.5,42506.6
60850.1,42510.2
60857.4,42514.5
60864.2,42519.5
60870.4,42525.2
60876.1,42531.5
60881.2,42538.3
60885.5,42545.5
60889.1,42553.2
60892,42561.1
60894,42569.3
60895.3,42577.7
60895.7,42586.1
60895.7,42758.4
60895.3,42766.8
60894,42775.2
60892,42783.4
60889.1,42791.3
60885.5,42799
60881.2,42806.2
60876.1,42813
60870.4,42819.3
60864.2,42824.9
60857.4,42830
60850.1,42834.3
60842.5,42837.9
60834.5,42840.8
60826.3,42842.8
60818,42844.1
60809.5,42844.5
60607.8,42844.5
60599.3,42844.1
60591,42842.8
60582.8,42840.8
60574.8,42837.9
60567.2,42834.3
60559.9,42830
60553.1,42824.9
60546.9,42819.3
60541.2,42813
60536.2,42806.2
60531.8,42799
60528.2,42791.3
60525.4,42783.4
60523.3,42775.2
60522.1,42766.8
60521.7,42758.4
60521.7,42586.1
60522.1,42577.7
60523.3,42569.3
60525.4,42561.1
60528.2,42553.2
60531.8,42545.5
60536.2,42538.3
60541.2,42531.5
60546.9,42525.2
60553.1,42519.5
60559.9,42514.5
60567.2,42510.2
60574.8,42506.6
60582.8,42503.7
60591,42501.7
60599.3,42500.4
60607.8,42500
60809.5,42500
Z" /> 
<path style="fill:#000000; fill-opacity:1.0; 
stroke:#000000; stroke-width:0; stroke-opacity:1; 
stroke-linecap:round; stroke-linejoin:round;fill-rule:evenodd;"
d="M 60818,41880.3
60826.3,41881.6
60834.5,41883.6
60842.5,41886.5
60850.1,41890.1
60857.4,41894.4
60864.2,41899.5
60870.4,41905.1
60876.1,41911.4
60881.2,41918.2
60885.5,41925.4
60889.1,41933.1
60892,41941
60894,41949.2
60895.3,41957.6
60895.7,41966
60895.7,42138.3
60895.3,42146.7
60894,42155.1
60892,42163.3
60889.1,42171.2
60885.5,42178.9
60881.2,42186.1
60876.1,42192.9
60870.4,42199.2
60864.2,42204.9
60857.4,42209.9
60850.1,42214.2
60842.5,42217.9
60834.5,42220.7
60826.3,42222.8
60818,42224
60809.5,42224.4
60607.8,42224.4
60599.3,42224
60591,42222.8
60582.8,42220.7
60574.8,42217.9
60567.2,42214.2
60559.9,42209.9
60553.1,42204.9
60546.9,42199.2
60541.2,42192.9
60536.2,42186.1
60531.8,42178.9
60528.2,42171.2
60525.4,42163.3
60523.3,42155.1
60522.1,42146.7
60521.7,42138.3
60521.7,41966
60522.1,41957.6
60523.3,41949.2
60525.4,41941
60528.2,41933.1
60531.8,41925.4
60536.2,41918.2
60541.2,41911.4
60546.9,41905.1
60553.1,41899.5
60559.9,41894.4
60567.2,41890.1
60574.8,41886.5
60582.8,41883.6
60591,41881.6
60599.3,41880.3
60607.8,41879.9
60809.5,41879.9
Z" /> 
</g>
<g >
</g>
<g style="fill:#000000; fill-opacity:1.0; 
stroke:#000000; stroke-width:0; stroke-opacity:1; 
stroke-linecap:round; stroke-linejoin:round;">
<path style="fill:#000000; fill-opacity:1.0; 
stroke:#000000; stroke-width:0; stroke-opacity:1; 
stroke-linecap:round; stroke-linejoin:round;fill-rule:evenodd;"
d="M 58258.9,42697.3
58267.3,42698.5
58275.5,42700.6
58283.4,42703.4
58291.1,42707
58298.3,42711.4
58305.1,42716.4
58311.4,42722.1
58317.1,42728.3
58322.1,42735.1
58326.4,42742.4
58330.1,42750
58332.9,42758
58335,42766.2
58336.2,42774.5
58336.6,42783
58336.6,42955.2
58336.2,42963.7
58335,42972
58332.9,42980.2
58330.1,42988.2
58326.4,42995.8
58322.1,43003.1
58317.1,43009.9
58311.4,43016.1
58305.1,43021.8
58298.3,43026.8
58291.1,43031.2
58283.4,43034.8
58275.5,43037.6
58267.3,43039.7
58258.9,43040.9
58250.5,43041.3
58048.7,43041.3
58040.3,43040.9
58031.9,43039.7
58023.7,43037.6
58015.8,43034.8
58008.1,43031.2
58000.9,43026.8
57994.1,43021.8
57987.8,43016.1
57982.1,43009.9
57977.1,43003.1
57972.8,42995.8
57969.2,42988.2
57966.3,42980.2
57964.3,42972
57963,42963.7
57962.6,42955.2
57962.6,42783
57963,42774.5
57964.3,42766.2
57966.3,42758
57969.2,42750
57972.8,42742.4
57977.1,42735.1
57982.1,42728.3
57987.8,42722.1
57994.1,42716.4
58000.9,42711.4
58008.1,42707
58015.8,42703.4
58023.7,42700.6
58031.9,42698.5
58040.3,42697.3
58048.7,42696.9
58250.5,42696.9
Z" /> 
<path style="fill:#000000; fill-opacity:1.0; 
stroke:#000000; stroke-width:0; stroke-opacity:1; 
stroke-linecap:round; stroke-linejoin:round;fill-rule:evenodd;"
d="M 58258.9,42077.2
58267.3,42078.4
58275.5,42080.5
58283.4,42083.3
58291.1,42086.9
58298.3,42091.3
58305.1,42096.3
58311.4,42102
58317.1,42108.3
58322.1,42115
58326.4,42122.3
58330.1,42129.9
58332.9,42137.9
58335,42146.1
58336.2,42154.5
58336.6,42162.9
58336.6,42335.1
58336.2,42343.6
58335,42351.9
58332.9,42360.1
58330.1,42368.1
58326.4,42375.7
58322.1,42383
58317.1,42389.8
58311.4,42396
58305.1,42401.7
58298.3,42406.7
58291.1,42411.1
58283.4,42414.7
58275.5,42417.6
58267.3,42419.6
58258.9,42420.8
58250.5,42421.3
58048.7,42421.3
58040.3,42420.8
58031.9,42419.6
58023.7,42417.6
58015.8,42414.7
58008.1,42411.1
58000.9,42406.7
57994.1,42401.7
57987.8,42396
57982.1,42389.8
57977.1,42383
57972.8,42375.7
57969.2,42368.1
57966.3,42360.1
57964.3,42351.9
57963,42343.6
57962.6,42335.1
57962.6,42162.9
57963,42154.5
57964.3,42146.1
57966.3,42137.9
57969.2,42129.9
57972.8,42122.3
57977.1,42115
57982.1,42108.3
57987.8,42102
57994.1,42096.3
58000.9,42091.3
58008.1,42086.9
58015.8,42083.3
58023.7,42080.5
58031.9,42078.4
58040.3,42077.2
58048.7,42076.8
58250.5,42076.8
Z" /> 
</g>
<g >
</g>
<g style="fill:#000000; fill-opacity:1.0; 
stroke:#000000; stroke-width:0; stroke-opacity:1; 
stroke-linecap:round; stroke-linejoin:round;">
<path style="fill:#000000; fill-opacity:1.0; 
stroke:#000000; stroke-width:0; stroke-opacity:1; 
stroke-linecap:round; stroke-linejoin:round;fill-rule:evenodd;"
d="M 58258.9,44035.8
58267.3,44037.1
58275.5,44039.1
58283.4,44042
58291.1,44045.6
58298.3,44049.9
58305.1,44055
58311.4,44060.7
58317.1,44066.9
58322.1,44073.7
58326.4,44081
58330.1,44088.6
58332.9,44096.6
58335,44104.8
58336.2,44113.1
58336.6,44121.6
58336.6,44293.8
58336.2,44302.2
58335,44310.6
58332.9,44318.8
58330.1,44326.8
58326.4,44334.4
58322.1,44341.6
58317.1,44348.4
58311.4,44354.7
58305.1,44360.4
58298.3,44365.4
58291.1,44369.8
58283.4,44373.4
58275.5,44376.2
58267.3,44378.3
58258.9,44379.5
58250.5,44379.9
58048.7,44379.9
58040.3,44379.5
58031.9,44378.3
58023.7,44376.2
58015.8,44373.4
58008.1,44369.8
58000.9,44365.4
57994.1,44360.4
57987.8,44354.7
57982.1,44348.4
57977.1,44341.6
57972.8,44334.4
57969.2,44326.8
57966.3,44318.8
57964.3,44310.6
57963,44302.2
57962.6,44293.8
57962.6,44121.6
57963,44113.1
57964.3,44104.8
57966.3,44096.6
57969.2,44088.6
57972.8,44081
57977.1,44073.7
57982.1,44066.9
57987.8,44060.7
57994.1,44055
58000.9,44049.9
58008.1,44045.6
58015.8,44042
58023.7,44039.1
58031.9,44037.1
58040.3,44035.8
58048.7,44035.4
58250.5,44035.4
Z" /> 
<path style="fill:#000000; fill-opacity:1.0; 
stroke:#000000; stroke-width:0; stroke-opacity:1; 
stroke-linecap:round; stroke-linejoin:round;fill-rule:evenodd;"
d="M 58258.9,43415.8
58267.3,43417
58275.5,43419.1
58283.4,43421.9
58291.1,43425.5
58298.3,43429.9
58305.1,43434.9
58311.4,43440.6
58317.1,43446.8
58322.1,43453.6
58326.4,43460.9
58330.1,43468.5
58332.9,43476.5
58335,43484.7
58336.2,43493
58336.6,43501.5
58336.6,43673.7
58336.2,43682.2
58335,43690.5
58332.9,43698.7
58330.1,43706.7
58326.4,43714.3
58322.1,43721.6
58317.1,43728.4
58311.4,43734.6
58305.1,43740.3
58298.3,43745.3
58291.1,43749.7
58283.4,43753.3
58275.5,43756.1
58267.3,43758.2
58258.9,43759.4
58250.5,43759.8
58048.7,43759.8
58040.3,43759.4
58031.9,43758.2
58023.7,43756.1
58015.8,43753.3
58008.1,43749.7
58000.9,43745.3
57994.1,43740.3
57987.8,43734.6
57982.1,43728.4
57977.1,43721.6
57972.8,43714.3
57969.2,43706.7
57966.3,43698.7
57964.3,43690.5
57963,43682.2
57962.6,43673.7
57962.6,43501.5
57963,43493
57964.3,43484.7
57966.3,43476.5
57969.2,43468.5
57972.8,43460.9
57977.1,43453.6
57982.1,43446.8
57987.8,43440.6
57994.1,43434.9
58000.9,43429.9
58008.1,43425.5
58015.8,43421.9
58023.7,43419.1
58031.9,43417
58040.3,43415.8
58048.7,43415.4
58250.5,43415.4
Z" /> 
</g>
<g >
</g>
<g style="fill:#000000; fill-opacity:1.0; 
stroke:#000000; stroke-width:0; stroke-opacity:1; 
stroke-linecap:round; stroke-linejoin:round;">
<path style="fill:#000000; fill-opacity:1.0; 
stroke:#000000; stroke-width:0; stroke-opacity:1; 
stroke-linecap:round; stroke-linejoin:round;fill-rule:evenodd;"
d="M 56989.2,43396.1
56997.6,43397.3
57005.8,43399.4
57013.8,43402.2
57021.4,43405.8
57028.7,43410.2
57035.4,43415.2
57041.7,43420.9
57047.4,43427.2
57052.4,43433.9
57056.8,43441.2
57060.4,43448.8
57063.2,43456.8
57065.3,43465
57066.5,43473.3
57066.9,43481.8
57066.9,43683.6
57066.5,43692
57065.3,43700.4
57063.2,43708.6
57060.4,43716.5
57056.8,43724.2
57052.4,43731.4
57047.4,43738.2
57041.7,43744.5
57035.4,43750.1
57028.7,43755.2
57021.4,43759.5
57013.8,43763.1
57005.8,43766
56997.6,43768
56989.2,43769.3
56980.8,43769.7
56808.6,43769.7
56800.1,43769.3
56791.8,43768
56783.6,43766
56775.6,43763.1
56768,43759.5
56760.7,43755.2
56753.9,43750.1
56747.7,43744.5
56742,43738.2
56737,43731.4
56732.6,43724.2
56729,43716.5
56726.1,43708.6
56724.1,43700.4
56722.9,43692
56722.4,43683.6
56722.4,43481.8
56722.9,43473.3
56724.1,43465
56726.1,43456.8
56729,43448.8
56732.6,43441.2
56737,43433.9
56742,43427.2
56747.7,43420.9
56753.9,43415.2
56760.7,43410.2
56768,43405.8
56775.6,43402.2
56783.6,43399.4
56791.8,43397.3
56800.1,43396.1
56808.6,43395.7
56980.8,43395.7
Z" /> 
<path style="fill:#000000; fill-opacity:1.0; 
stroke:#000000; stroke-width:0; stroke-opacity:1; 
stroke-linecap:round; stroke-linejoin:round;fill-rule:evenodd;"
d="M 57609.3,43396.1
57617.7,43397.3
57625.9,43399.4
57633.8,43402.2
57641.5,43405.8
57648.7,43410.2
57655.5,43415.2
57661.8,43420.9
57667.5,43427.2
57672.5,43433.9
57676.8,43441.2
57680.5,43448.8
57683.3,43456.8
57685.4,43465
57686.6,43473.3
57687,43481.8
57687,43683.6
57686.6,43692
57685.4,43700.4
57683.3,43708.6
57680.5,43716.5
57676.8,43724.2
57672.5,43731.4
57667.5,43738.2
57661.8,43744.5
57655.5,43750.1
57648.7,43755.2
57641.5,43759.5
57633.8,43763.1
57625.9,43766
57617.7,43768
57609.3,43769.3
57600.9,43769.7
57428.6,43769.7
57420.2,43769.3
57411.8,43768
57403.6,43766
57395.7,43763.1
57388,43759.5
57380.8,43755.2
57374,43750.1
57367.7,43744.5
57362.1,43738.2
57357,43731.4
57352.7,43724.2
57349.1,43716.5
57346.2,43708.6
57344.2,43700.4
57342.9,43692
57342.5,43683.6
57342.5,43481.8
57342.9,43473.3
57344.2,43465
57346.2,43456.8
57349.1,43448.8
57352.7,43441.2
57357,43433.9
57362.1,43427.2
57367.7,43420.9
57374,43415.2
57380.8,43410.2
57388,43405.8
57395.7,43402.2
57403.6,43399.4
57411.8,43397.3
57420.2,43396.1
57428.6,43395.7
57600.9,43395.7
Z" /> 
</g>
<g >
</g>
<g style="fill:#000000; fill-opacity:1.0; 
stroke:#000000; stroke-width:0; stroke-opacity:1; 
stroke-linecap:round; stroke-linejoin:round;">
<path style="fill:#000000; fill-opacity:1.0; 
stroke:#000000; stroke-width:0; stroke-opacity:1; 
stroke-linecap:round; stroke-linejoin:round;fill-rule:evenodd;"
d="M 58981.4,41222.9
58989.7,41224.1
58997.9,41226.1
59005.9,41229
59013.5,41232.6
59020.8,41237
59027.6,41242
59033.8,41247.7
59039.5,41253.9
59044.5,41260.7
59048.9,41268
59052.5,41275.6
59055.3,41283.6
59057.4,41291.8
59058.6,41300.1
59059.1,41308.6
59059.1,41510.3
59058.6,41518.8
59057.4,41527.1
59055.3,41535.3
59052.5,41543.3
59048.9,41550.9
59044.5,41558.2
59039.5,41565
59033.8,41571.2
59027.6,41576.9
59020.8,41581.9
59013.5,41586.3
59005.9,41589.9
58997.9,41592.7
58989.7,41594.8
58981.4,41596
58972.9,41596.5
58800.7,41596.5
58792.2,41596
58783.9,41594.8
58775.7,41592.7
58767.7,41589.9
58760.1,41586.3
58752.8,41581.9
58746.1,41576.9
58739.8,41571.2
58734.1,41565
58729.1,41558.2
58724.7,41550.9
58721.1,41543.3
58718.3,41535.3
58716.2,41527.1
58715,41518.8
58714.6,41510.3
58714.6,41308.6
58715,41300.1
58716.2,41291.8
58718.3,41283.6
58721.1,41275.6
58724.7,41268
58729.1,41260.7
58734.1,41253.9
58739.8,41247.7
58746.1,41242
58752.8,41237
58760.1,41232.6
58767.7,41229
58775.7,41226.1
58783.9,41224.1
58792.2,41222.9
58800.7,41222.4
58972.9,41222.4
Z" /> 
<path style="fill:#000000; fill-opacity:1.0; 
stroke:#000000; stroke-width:0; stroke-opacity:1; 
stroke-linecap:round; stroke-linejoin:round;fill-rule:evenodd;"
d="M 59601.5,41222.9
59609.8,41224.1
59618,41226.1
59626,41229
59633.6,41232.6
59640.9,41237
59647.6,41242
59653.9,41247.7
59659.6,41253.9
59664.6,41260.7
59669,41268
59672.6,41275.6
59675.4,41283.6
59677.5,41291.8
59678.7,41300.1
59679.1,41308.6
59679.1,41510.3
59678.7,41518.8
59677.5,41527.1
59675.4,41535.3
59672.6,41543.3
59669,41550.9
59664.6,41558.2
59659.6,41565
59653.9,41571.2
59647.6,41576.9
59640.9,41581.9
59633.6,41586.3
59626,41589.9
59618,41592.7
59609.8,41594.8
59601.5,41596
59593,41596.5
59420.8,41596.5
59412.3,41596
59404,41594.8
59395.8,41592.7
59387.8,41589.9
59380.2,41586.3
59372.9,41581.9
59366.1,41576.9
59359.9,41571.2
59354.2,41565
59349.2,41558.2
59344.8,41550.9
59341.2,41543.3
59338.4,41535.3
59336.3,41527.1
59335.1,41518.8
59334.6,41510.3
59334.6,41308.6
59335.1,41300.1
59336.3,41291.8
59338.4,41283.6
59341.2,41275.6
59344.8,41268
59349.2,41260.7
59354.2,41253.9
59359.9,41247.7
59366.1,41242
59372.9,41237
59380.2,41232.6
59387.8,41229
59395.8,41226.1
59404,41224.1
59412.3,41222.9
59420.8,41222.4
59593,41222.4
Z" /> 
</g>
<g >
</g>
<g style="fill:#000000; fill-opacity:1.0; 
stroke:#000000; stroke-width:0; stroke-opacity:1; 
stroke-linecap:round; stroke-linejoin:round;">
<path style="fill:#000000; fill-opacity:1.0; 
stroke:#000000; stroke-width:0; stroke-opacity:1; 
stroke-linecap:round; stroke-linejoin:round;fill-rule:evenodd;"
d="M 57333.7,41191.4
57342.1,41192.6
57350.3,41194.7
57358.3,41197.5
57365.9,41201.1
57373.1,41205.5
57379.9,41210.5
57386.2,41216.2
57391.9,41222.4
57396.9,41229.2
57401.2,41236.5
57404.9,41244.1
57407.7,41252.1
57409.8,41260.3
57411,41268.6
57411.4,41277.1
57411.4,41478.8
57411,41487.3
57409.8,41495.6
57407.7,41503.8
57404.9,41511.8
57401.2,41519.4
57396.9,41526.7
57391.9,41533.5
57386.2,41539.7
57379.9,41545.4
57373.1,41550.4
57365.9,41554.8
57358.3,41558.4
57350.3,41561.3
57342.1,41563.3
57333.7,41564.5
57325.3,41565
57153.1,41565
57144.6,41564.5
57136.2,41563.3
57128.1,41561.3
57120.1,41558.4
57112.5,41554.8
57105.2,41550.4
57098.4,41545.4
57092.2,41539.7
57086.5,41533.5
57081.4,41526.7
57077.1,41519.4
57073.5,41511.8
57070.6,41503.8
57068.6,41495.6
57067.3,41487.3
57066.9,41478.8
57066.9,41277.1
57067.3,41268.6
57068.6,41260.3
57070.6,41252.1
57073.5,41244.1
57077.1,41236.5
57081.4,41229.2
57086.5,41222.4
57092.2,41216.2
57098.4,41210.5
57105.2,41205.5
57112.5,41201.1
57120.1,41197.5
57128.1,41194.7
57136.2,41192.6
57144.6,41191.4
57153.1,41190.9
57325.3,41190.9
Z" /> 
<path style="fill:#000000; fill-opacity:1.0; 
stroke:#000000; stroke-width:0; stroke-opacity:1; 
stroke-linecap:round; stroke-linejoin:round;fill-rule:evenodd;"
d="M 56713.7,41191.4
56722,41192.6
56730.2,41194.7
56738.2,41197.5
56745.8,41201.1
56753.1,41205.5
56759.9,41210.5
56766.1,41216.2
56771.8,41222.4
56776.8,41229.2
56781.2,41236.5
56784.8,41244.1
56787.6,41252.1
56789.7,41260.3
56790.9,41268.6
56791.3,41277.1
56791.3,41478.8
56790.9,41487.3
56789.7,41495.6
56787.6,41503.8
56784.8,41511.8
56781.2,41519.4
56776.8,41526.7
56771.8,41533.5
56766.1,41539.7
56759.9,41545.4
56753.1,41550.4
56745.8,41554.8
56738.2,41558.4
56730.2,41561.3
56722,41563.3
56713.7,41564.5
56705.2,41565
56533,41565
56524.5,41564.5
56516.2,41563.3
56508,41561.3
56500,41558.4
56492.4,41554.8
56485.1,41550.4
56478.3,41545.4
56472.1,41539.7
56466.4,41533.5
56461.4,41526.7
56457,41519.4
56453.4,41511.8
56450.6,41503.8
56448.5,41495.6
56447.3,41487.3
56446.9,41478.8
56446.9,41277.1
56447.3,41268.6
56448.5,41260.3
56450.6,41252.1
56453.4,41244.1
56457,41236.5
56461.4,41229.2
56466.4,41222.4
56472.1,41216.2
56478.3,41210.5
56485.1,41205.5
56492.4,41201.1
56500,41197.5
56508,41194.7
56516.2,41192.6
56524.5,41191.4
56533,41190.9
56705.2,41190.9
Z" /> 
</g>
<g >
</g>
<g style="fill:#000000; fill-opacity:1.0; 
stroke:#000000; stroke-width:0; stroke-opacity:1; 
stroke-linecap:round; stroke-linejoin:round;">
<path style="fill:#000000; fill-opacity:1.0; 
stroke:#000000; stroke-width:0; stroke-opacity:1; 
stroke-linecap:round; stroke-linejoin:round;fill-rule:evenodd;"
d="M 57609.3,44026
57617.7,44027.2
57625.9,44029.3
57633.8,44032.1
57641.5,44035.8
57648.7,44040.1
57655.5,44045.1
57661.8,44050.8
57667.5,44057.1
57672.5,44063.9
57676.8,44071.1
57680.5,44078.8
57683.3,44086.7
57685.4,44094.9
57686.6,44103.3
57687,44111.7
57687,44313.5
57686.6,44321.9
57685.4,44330.3
57683.3,44338.5
57680.5,44346.4
57676.8,44354.1
57672.5,44361.3
57667.5,44368.1
57661.8,44374.4
57655.5,44380.1
57648.7,44385.1
57641.5,44389.4
57633.8,44393.1
57625.9,44395.9
57617.7,44398
57609.3,44399.2
57600.9,44399.6
57428.6,44399.6
57420.2,44399.2
57411.8,44398
57403.6,44395.9
57395.7,44393.1
57388,44389.4
57380.8,44385.1
57374,44380.1
57367.7,44374.4
57362.1,44368.1
57357,44361.3
57352.7,44354.1
57349.1,44346.4
57346.2,44338.5
57344.2,44330.3
57342.9,44321.9
57342.5,44313.5
57342.5,44111.7
57342.9,44103.3
57344.2,44094.9
57346.2,44086.7
57349.1,44078.8
57352.7,44071.1
57357,44063.9
57362.1,44057.1
57367.7,44050.8
57374,44045.1
57380.8,44040.1
57388,44035.8
57395.7,44032.1
57403.6,44029.3
57411.8,44027.2
57420.2,44026
57428.6,44025.6
57600.9,44025.6
Z" /> 
<path style="fill:#000000; fill-opacity:1.0; 
stroke:#000000; stroke-width:0; stroke-opacity:1; 
stroke-linecap:round; stroke-linejoin:round;fill-rule:evenodd;"
d="M 56989.2,44026
56997.6,44027.2
57005.8,44029.3
57013.8,44032.1
57021.4,44035.8
57028.7,44040.1
57035.4,44045.1
57041.7,44050.8
57047.4,44057.1
57052.4,44063.9
57056.8,44071.1
57060.4,44078.8
57063.2,44086.7
57065.3,44094.9
57066.5,44103.3
57066.9,44111.7
57066.9,44313.5
57066.5,44321.9
57065.3,44330.3
57063.2,44338.5
57060.4,44346.4
57056.8,44354.1
57052.4,44361.3
57047.4,44368.1
57041.7,44374.4
57035.4,44380.1
57028.7,44385.1
57021.4,44389.4
57013.8,44393.1
57005.8,44395.9
56997.6,44398
56989.2,44399.2
56980.8,44399.6
56808.6,44399.6
56800.1,44399.2
56791.8,44398
56783.6,44395.9
56775.6,44393.1
56768,44389.4
56760.7,44385.1
56753.9,44380.1
56747.7,44374.4
56742,44368.1
56737,44361.3
56732.6,44354.1
56729,44346.4
56726.1,44338.5
56724.1,44330.3
56722.9,44321.9
56722.4,44313.5
56722.4,44111.7
56722.9,44103.3
56724.1,44094.9
56726.1,44086.7
56729,44078.8
56732.6,44071.1
56737,44063.9
56742,44057.1
56747.7,44050.8
56753.9,44045.1
56760.7,44040.1
56768,44035.8
56775.6,44032.1
56783.6,44029.3
56791.8,44027.2
56800.1,44026
56808.6,44025.6
56980.8,44025.6
Z" /> 
</g>
<g >
</g>
<g style="fill:#000000; fill-opacity:1.0; 
stroke:#000000; stroke-width:0; stroke-opacity:1; 
stroke-linecap:round; stroke-linejoin:round;">
<circle cx="61220.5" cy="42716.5" r="157.48" /> 
</g>
<g style="fill:#000000; fill-opacity:1.0; 
stroke:#000000; stroke-width:39.3701; stroke-opacity:1; 
stroke-linecap:round; stroke-linejoin:round;">
</g>
<g style="fill:#000000; fill-opacity:1.0; 
stroke:#000000; stroke-width:0; stroke-opacity:1; 
stroke-linecap:round; stroke-linejoin:round;">
<circle cx="58582.7" cy="44921.3" r="157.48" /> 
</g>
<g style="fill:#000000; fill-opacity:1.0; 
stroke:#000000; stroke-width:39.3701; stroke-opacity:1; 
stroke-linecap:round; stroke-linejoin:round;">
</g>
<g style="fill:#000000; fill-opacity:1.0; 
stroke:#000000; stroke-width:0; stroke-opacity:1; 
stroke-linecap:round; stroke-linejoin:round;">
<circle cx="57842.5" cy="41378" r="157.48" /> 
</g>
<g style="fill:#000000; fill-opacity:1.0; 
stroke:#000000; stroke-width:39.3701; stroke-opacity:1; 
stroke-linecap:round; stroke-linejoin:round;">
</g>
<g style="fill:#000000; fill-opacity:1.0; 
stroke:#000000; stroke-width:0; stroke-opacity:1; 
stroke-linecap:round; stroke-linejoin:round;">
<circle cx="62992.1" cy="43897.6" r="157.48" /> 
</g>
<g style="fill:#000000; fill-opacity:1.0; 
stroke:#000000; stroke-width:39.3701; stroke-opacity:1; 
stroke-linecap:round; stroke-linejoin:round;">
</g>
<g style="fill:#000000; fill-opacity:1.0; 
stroke:#000000; stroke-width:0; stroke-opacity:1; 
stroke-linecap:round; stroke-linejoin:round;">
<circle cx="66141.7" cy="41141.7" r="157.48" /> 
</g>
<g style="fill:#000000; fill-opacity:1.0; 
stroke:#000000; stroke-width:39.3701; stroke-opacity:1; 
stroke-linecap:round; stroke-linejoin:round;">
</g>
<g style="fill:#000000; fill-opacity:1.0; 
stroke:#000000; stroke-width:0; stroke-opacity:1; 
stroke-linecap:round; stroke-linejoin:round;">
<circle cx="65748" cy="41141.7" r="157.48" /> 
</g>
<g style="fill:#000000; fill-opacity:1.0; 
stroke:#000000; stroke-width:39.3701; stroke-opacity:1; 
stroke-linecap:round; stroke-linejoin:round;">
</g>
<g style="fill:#000000; fill-opacity:1.0; 
stroke:#000000; stroke-width:0; stroke-opacity:1; 
stroke-linecap:round; stroke-linejoin:round;">
<circle cx="65354.3" cy="41141.7" r="157.48" /> 
</g>
<g style="fill:#000000; fill-opacity:1.0; 
stroke:#000000; stroke-width:39.3701; stroke-opacity:1; 
stroke-linecap:round; stroke-linejoin:round;">
</g>
<g style="fill:#000000; fill-opacity:1.0; 
stroke:#000000; stroke-width:0; stroke-opacity:1; 
stroke-linecap:round; stroke-linejoin:round;">
<circle cx="65354.3" cy="40748" r="157.48" /> 
</g>
<g style="fill:#000000; fill-opacity:1.0; 
stroke:#000000; stroke-width:39.3701; stroke-opacity:1; 
stroke-linecap:round; stroke-linejoin:round;">
</g>
<g style="fill:#000000; fill-opacity:1.0; 
stroke:#000000; stroke-width:0; stroke-opacity:1; 
stroke-linecap:round; stroke-linejoin:round;">
<circle cx="59153.5" cy="42618.1" r="157.48" /> 
</g>
<g style="fill:#000000; fill-opacity:1.0; 
stroke:#000000; stroke-width:39.3701; stroke-opacity:1; 
stroke-linecap:round; stroke-linejoin:round;">
</g>
<g style="fill:#000000; fill-opacity:1.0; 
stroke:#000000; stroke-width:0; stroke-opacity:1; 
stroke-linecap:round; stroke-linejoin:round;">
<circle cx="60336.7" cy="43208.7" r="157.48" /> 
</g>
<g style="fill:#000000; fill-opacity:1.0; 
stroke:#000000; stroke-width:39.3701; stroke-opacity:1; 
stroke-linecap:round; stroke-linejoin:round;">
</g>
<g style="fill:#000000; fill-opacity:1.0; 
stroke:#000000; stroke-width:0; stroke-opacity:1; 
stroke-linecap:round; stroke-linejoin:round;">
<circle cx="64468.5" cy="41141.7" r="157.48" /> 
</g>
<g style="fill:#000000; fill-opacity:1.0; 
stroke:#000000; stroke-width:39.3701; stroke-opacity:1; 
stroke-linecap:round; stroke-linejoin:round;">
</g>
<g style="fill:#000000; fill-opacity:1.0; 
stroke:#000000; stroke-width:0; stroke-opacity:1; 
stroke-linecap:round; stroke-linejoin:round;">
<circle cx="64074.8" cy="41141.7" r="157.48" /> 
</g>
<g style="fill:#000000; fill-opacity:1.0; 
stroke:#000000; stroke-width:39.3701; stroke-opacity:1; 
stroke-linecap:round; stroke-linejoin:round;">
</g>
<g style="fill:#000000; fill-opacity:1.0; 
stroke:#000000; stroke-width:0; stroke-opacity:1; 
stroke-linecap:round; stroke-linejoin:round;">
<circle cx="64074.8" cy="41535.4" r="157.48" /> 
</g>
<g style="fill:#000000; fill-opacity:1.0; 
stroke:#000000; stroke-width:39.3701; stroke-opacity:1; 
stroke-linecap:round; stroke-linejoin:round;">
</g>
<g style="fill:#000000; fill-opacity:1.0; 
stroke:#000000; stroke-width:0; stroke-opacity:1; 
stroke-linecap:round; stroke-linejoin:round;">
<circle cx="64074.8" cy="41929.1" r="157.48" /> 
</g>
<g style="fill:#000000; fill-opacity:1.0; 
stroke:#000000; stroke-width:39.3701; stroke-opacity:1; 
stroke-linecap:round; stroke-linejoin:round;">
</g>
<g >
</g>
<g style="fill:#000000; fill-opacity:1.0; 
stroke:#000000; stroke-width:39.3701; stroke-opacity:1; 
stroke-linecap:round; stroke-linejoin:round;">
</g>
<g style="fill:#000000; fill-opacity:1.0; 
stroke:#000000; stroke-width:98.4252; stroke-opacity:1; 
stroke-linecap:round; stroke-linejoin:round;">
</g>
<g style="fill:#000000; fill-opacity:0.0; 
stroke:#000000; stroke-width:98.4252; stroke-opacity:1; 
stroke-linecap:round; stroke-linejoin:round;">
<path d="M59023 44129
L58728 44129
" />
<path d="M58582 44275
L58582 44921
" />
<path d="M58728 44129
L58582 44275
" />
<path d="M57514 44212
L57514 44463
" />
<path d="M57972 44921
L58582 44921
" />
<path d="M57514 44463
L57972 44921
" />
<path d="M57239 41377
L57842 41377
" />
</g>
<g style="fill:#000000; fill-opacity:0.0; 
stroke:#000000; stroke-width:196.85; stroke-opacity:1; 
stroke-linecap:round; stroke-linejoin:round;">
<path d="M57086 41530
L57239 41377
" />
<path d="M57086 42047
L57086 41530
" />
<path d="M64163 44266
L64089 44192
" />
<path d="M64862 44266
L64163 44266
" />
<path d="M60915 43021
L61220 42716
" />
<path d="M60915 43292
L60915 43021
" />
<path d="M61176 42672
L61220 42716
" />
<path d="M60708 42672
L61176 42672
" />
<path d="M62539 43897
L62598 43897
" />
</g>
<g style="fill:#000000; fill-opacity:0.0; 
stroke:#000000; stroke-width:236.22; stroke-opacity:1; 
stroke-linecap:round; stroke-linejoin:round;">
<path d="M66141 43897
L66141 43503
" />
<path d="M64862 44266
L65772 44266
" />
<path d="M65772 44266
L66141 43897
" />
<path d="M62539 43897
L62992 43897
" />
</g>
<g style="fill:#000000; fill-opacity:0.0; 
stroke:#000000; stroke-width:118.11; stroke-opacity:1; 
stroke-linecap:round; stroke-linejoin:round;">
<path d="M62598 43897
L62795 43897
" />
<path d="M63723 44559
L64089 44192
" />
<path d="M63062 44559
L63723 44559
" />
<path d="M62992 44488
L63062 44559
" />
<path d="M62992 44094
L62992 44488
" />
<path d="M62795 43897
L62992 44094
" />
</g>
<g style="fill:#000000; fill-opacity:0.0; 
stroke:#000000; stroke-width:196.85; stroke-opacity:1; 
stroke-linecap:round; stroke-linejoin:round;">
<path d="M57926 42472
L58149 42249
" />
<path d="M57230 42472
L57926 42472
" />
<path d="M57086 42047
L57086 42328
" />
<path d="M57086 42328
L57230 42472
" />
<path d="M61673 43523
L61673 44271
" />
<path d="M61673 43149
L61673 43523
" />
<path d="M62145 41732
L62145 42677
" />
<path d="M62145 42677
L61673 43149
" />
<path d="M61432 44030
L61673 44271
" />
<path d="M60915 44030
L61432 44030
" />
</g>
<g style="fill:#000000; fill-opacity:0.0; 
stroke:#000000; stroke-width:314.961; stroke-opacity:1; 
stroke-linecap:round; stroke-linejoin:round;">
<path d="M61822 41409
L60723 41409
" />
<path d="M62145 41732
L61822 41409
" />
<path d="M66035 40444
L66141 40551
" />
<path d="M62145 41732
L62145 40881
" />
<path d="M56619 41317
L56619 41377
" />
<path d="M60350 40944
L56992 40944
" />
<path d="M60723 41409
L60723 41317
" />
<path d="M56992 40944
L56619 41317
" />
<path d="M60723 41317
L60350 40944
" />
</g>
<g style="fill:#000000; fill-opacity:0.0; 
stroke:#000000; stroke-width:236.22; stroke-opacity:1; 
stroke-linecap:round; stroke-linejoin:round;">
<path d="M56619 41953
L56712 42047
" />
<path d="M56619 41377
L56619 41953
" />
</g>
<g style="fill:#000000; fill-opacity:0.0; 
stroke:#000000; stroke-width:196.85; stroke-opacity:1; 
stroke-linecap:round; stroke-linejoin:round;">
<path d="M60047 44129
L60409 44129
" />
<path d="M60409 44129
L60440 44161
" />
<path d="M60440 44736
L60440 44161
" />
<path d="M60720 45015
L60440 44736
" />
<path d="M66141 44881
L66007 45015
" />
<path d="M66007 45015
L60720 45015
" />
</g>
<g style="fill:#000000; fill-opacity:0.0; 
stroke:#000000; stroke-width:157.48; stroke-opacity:1; 
stroke-linecap:round; stroke-linejoin:round;">
<path d="M59173 41695
L58886 41409
" />
<path d="M59173 42145
L59173 41695
" />
<path d="M59173 42145
L59173 42598
" />
<path d="M59173 42598
L59153 42618
" />
<path d="M60409 43281
L60336 43208
" />
<path d="M60409 44129
L60409 43281
" />
</g>
<g style="fill:#000000; fill-opacity:0.0; 
stroke:#000000; stroke-width:98.4252; stroke-opacity:1; 
stroke-linecap:round; stroke-linejoin:round;">
<path d="M59506 41409
L60193 41409
" />
</g>
<g style="fill:#000000; fill-opacity:0.0; 
stroke:#000000; stroke-width:236.22; stroke-opacity:1; 
stroke-linecap:round; stroke-linejoin:round;">
<path d="M59506 41409
L60103 41409
" />
</g>
<g style="fill:#000000; fill-opacity:0.0; 
stroke:#000000; stroke-width:157.48; stroke-opacity:1; 
stroke-linecap:round; stroke-linejoin:round;">
<path d="M59547 41449
L59506 41409
" />
<path d="M59547 42145
L59547 41449
" />
</g>
<g style="fill:#000000; fill-opacity:0.0; 
stroke:#000000; stroke-width:98.4252; stroke-opacity:1; 
stroke-linecap:round; stroke-linejoin:round;">
<path d="M57524 43582
L58149 44207
" />
<path d="M57514 43582
L57524 43582
" />
</g>
<g style="fill:#000000; fill-opacity:0.0; 
stroke:#000000; stroke-width:157.48; stroke-opacity:1; 
stroke-linecap:round; stroke-linejoin:round;">
<path d="M59921 43305
L59448 43777
" />
<path d="M59921 43090
L59921 43305
" />
<path d="M59448 43777
L59448 44389
" />
<path d="M59334 44503
L59023 44503
" />
<path d="M59448 44389
L59334 44503
" />
<path d="M59023 43240
L59173 43090
" />
<path d="M59023 43755
L59023 43240
" />
</g>
<g style="fill:#000000; fill-opacity:0.0; 
stroke:#000000; stroke-width:196.85; stroke-opacity:1; 
stroke-linecap:round; stroke-linejoin:round;">
<path d="M57460 41889
L57460 42047
" />
<path d="M57543 41807
L57460 41889
" />
<path d="M58321 43587
L58637 43271
" />
<path d="M58149 43587
L58321 43587
" />
<path d="M58468 41807
L57543 41807
" />
<path d="M58637 43271
L58637 41976
" />
<path d="M58637 41976
L58468 41807
" />
</g>
<g style="fill:#000000; fill-opacity:0.0; 
stroke:#000000; stroke-width:236.22; stroke-opacity:1; 
stroke-linecap:round; stroke-linejoin:round;">
<path d="M58105 42913
L58149 42869
" />
<path d="M57460 42913
L58105 42913
" />
</g>
<g style="fill:#000000; fill-opacity:0.0; 
stroke:#000000; stroke-width:98.4252; stroke-opacity:1; 
stroke-linecap:round; stroke-linejoin:round;">
<path d="M56894 44365
L56894 43582
" />
</g>
<g style="fill:#000000; fill-opacity:0.0; 
stroke:#000000; stroke-width:314.961; stroke-opacity:1; 
stroke-linecap:round; stroke-linejoin:round;">
<path d="M56894 44212
L56894 43582
" />
<path d="M56712 43400
L56894 43582
" />
<path d="M56712 42913
L56712 43400
" />
</g>
<g style="fill:#000000; fill-opacity:0.0; 
stroke:#000000; stroke-width:236.22; stroke-opacity:1; 
stroke-linecap:round; stroke-linejoin:round;">
<path d="M56422 44685
L56894 44212
" />
<path d="M56102 44685
L56422 44685
" />
</g>
<g style="fill:#000000; fill-opacity:0.0; 
stroke:#000000; stroke-width:98.4252; stroke-opacity:1; 
stroke-linecap:round; stroke-linejoin:round;">
<path d="M59842 43755
L60047 43755
" />
<path d="M59685 43913
L59842 43755
" />
<path d="M59685 44370
L59685 43913
" />
<path d="M60047 44503
L59818 44503
" />
<path d="M59818 44503
L59685 44370
" />
</g>
<g style="fill:#000000; fill-opacity:0.0; 
stroke:#000000; stroke-width:157.48; stroke-opacity:1; 
stroke-linecap:round; stroke-linejoin:round;">
<path d="M59547 43090
L59547 42716
" />
<path d="M59547 42716
L59645 42618
" />
<path d="M60603 42052
L60708 42052
" />
<path d="M60037 42618
L60603 42052
" />
<path d="M59645 42618
L60037 42618
" />
</g>
<g style="fill:#000000; fill-opacity:0.0; 
stroke:#000000; stroke-width:196.85; stroke-opacity:1; 
stroke-linecap:round; stroke-linejoin:round;">
<path d="M64089 43503
L64271 43503
" />
<path d="M64566 43208
L64566 42775
" />
<path d="M64271 43503
L64566 43208
" />
<path d="M64114 43528
L64089 43503
" />
<path d="M64862 43528
L64114 43528
" />
</g>
<g style="fill:#000000; fill-opacity:0.0; 
stroke:#000000; stroke-width:314.961; stroke-opacity:1; 
stroke-linecap:round; stroke-linejoin:round;">
<path d="M65748 41929
L66141 41929
" />
<path d="M64566 42775
L64901 42775
" />
<path d="M64901 42775
L65748 41929
" />
</g>
<g style="fill:#000000; fill-opacity:0.0; 
stroke:#000000; stroke-width:196.85; stroke-opacity:1; 
stroke-linecap:round; stroke-linejoin:round;">
<path d="M63484 41771
L63444 41732
" />
<path d="M63444 41992
L63444 41732
" />
<path d="M63444 42909
L63444 41732
" />
<path d="M62539 44271
L62257 44271
" />
<path d="M62106 44120
L62106 43346
" />
<path d="M62257 44271
L62106 44120
" />
<path d="M62295 43157
L63196 43157
" />
<path d="M63196 43157
L63444 42909
" />
<path d="M62106 43346
L62295 43157
" />
<path d="M63449 43523
L63469 43503
" />
<path d="M62539 43523
L63449 43523
" />
<path d="M63469 44192
L63469 43503
" />
</g>
<g >
</g>
<g style="fill:#000000; fill-opacity:0.0; 
stroke:#000000; stroke-width:196.85; stroke-opacity:1; 
stroke-linecap:round; stroke-linejoin:round;">
<g >
</g>
<g style="fill:#000000; fill-opacity:1.0; 
stroke:#000000; stroke-width:100; stroke-opacity:1; 
stroke-linecap:round; stroke-linejoin:round;">
<path style="fill:#000000; fill-opacity:1.0; 
stroke:#000000; stroke-width:100; stroke-opacity:1; 
stroke-linecap:round; stroke-linejoin:round;fill-rule:evenodd;"
d="M 57362.8,44014.4
57428.6,44020.9
57539.7,44020.9
57711.4,44192.6
57711.4,44293.8
57717.9,44359.6
57737.1,44422.9
57768.2,44481.2
57810.2,44532.3
57861.3,44574.3
57919.6,44605.5
57982.9,44624.6
58048.7,44631.1
58250.5,44631.1
58316.3,44624.6
58379.6,44605.5
58437.9,44574.3
58489,44532.3
58531,44481.2
58562.1,44422.9
58575.6,44378.7
58575.6,44641.7
58580.4,44690.7
58594.7,44737.9
58617.9,44781.3
58649.1,44819.4
58687.2,44850.6
58730.6,44873.8
58777.8,44888.1
58826.8,44892.9
59220.5,44892.9
59269.5,44888.1
59316.6,44873.8
59360,44850.6
59386.1,44829.2
59399.1,44827.9
59461.1,44809.1
59518.2,44778.6
59568.2,44737.5
59578.5,44725
59597.6,44705.9
59606.3,44716.5
59613.7,44722.6
59618.3,44737.9
59641.5,44781.3
59672.8,44819.4
59710.8,44850.6
59754.3,44873.8
59801.4,44888.1
59850.4,44892.9
60129.6,44892.9
60149.8,44930.7
60193.4,44983.8
60206.7,44994.7
60227.7,45015.7
57333.5,45015.7
57333.5,44005.5
Z" /> 
<path style="fill:#000000; fill-opacity:1.0; 
stroke:#000000; stroke-width:100; stroke-opacity:1; 
stroke-linecap:round; stroke-linejoin:round;fill-rule:evenodd;"
d="M 66275.6,44335.4
65846.5,44335.4
65797.4,44340.2
65750.3,44354.5
65706.9,44377.7
65668.8,44409
65637.6,44447
65614.4,44490.5
65600.1,44537.6
65595.2,44586.6
65595.2,44667.3
60864.8,44667.3
60789.4,44591.9
60789.4,44473.7
61095,44473.7
61162.7,44467
61218.6,44450
61232.5,44495.7
61255.7,44539.2
61286.9,44577.2
61325,44608.5
61368.4,44631.7
61415.6,44646
61464.6,44650.8
61881.9,44650.8
61930.9,44646
61978,44631.7
62021.5,44608.5
62059.5,44577.2
62069,44565.7
62123.9,44595.1
62189.6,44615
62206.5,44616.7
62234.6,44631.7
62281.7,44646
62330.7,44650.8
62748,44650.8
62797,44646
62844.2,44631.7
62887.6,44608.5
62925.7,44577.2
62956.9,44539.2
62980.1,44495.7
62994.4,44448.6
62999.2,44399.6
62999.2,44143.7
62994.4,44094.7
62980.1,44047.6
62956.9,44004.1
62925.7,43966.1
62887.6,43934.8
62844.2,43911.6
62798.1,43897.6
62844.2,43883.7
62865.9,43872
63121.1,43872
63121.1,43882.5
63102.9,43904.6
63071.7,43962.9
63052.5,44026.2
63046,44092
63046,44293.8
63052.5,44359.6
63071.7,44422.9
63102.9,44481.2
63144.8,44532.3
63196,44574.3
63254.3,44605.5
63317.6,44624.6
63383.4,44631.1
63555.6,44631.1
63621.4,44624.6
63684.7,44605.5
63743,44574.3
63794.1,44532.3
63836.1,44481.2
63867.3,44422.9
63886.5,44359.6
63892.9,44293.8
63892.9,44144.5
65551.2,44144.5
65560.9,44143.5
65570.3,44140.7
65579,44136.1
65586.5,44129.8
65592.8,44122.3
65597.4,44113.6
65600.2,44104.2
65601.2,44094.5
65601.2,42963.4
66275.6,42963.4
Z" /> 
<path style="fill:#000000; fill-opacity:1.0; 
stroke:#000000; stroke-width:100; stroke-opacity:1; 
stroke-linecap:round; stroke-linejoin:round;fill-rule:evenodd;"
d="M 58575.6,43893.7
58580.4,43942.7
58594.7,43989.8
58617.9,44033.3
58649.1,44071.3
58687.2,44102.6
58730.6,44125.8
58744.3,44129.9
58730.6,44134.1
58687.2,44157.3
58649.1,44188.5
58617.9,44226.6
58594.7,44270
58587.8,44292.6
58587.8,44121.6
58581.3,44055.7
58562.1,43992.5
58531,43934.1
58501,43897.6
58516.9,43878.2
58569.4,43835.2
58575.6,43827.7
Z" /> 
<path style="fill:#000000; fill-opacity:1.0; 
stroke:#000000; stroke-width:100; stroke-opacity:1; 
stroke-linecap:round; stroke-linejoin:round;fill-rule:evenodd;"
d="M 61268.9,43240
61255.7,43256.1
61232.5,43299.5
61218.2,43346.7
61213.4,43395.7
61213.4,43609.4
61162.7,43594
61095,43587.4
60738.2,43587.4
60738.2,43297.6
60739.8,43281.4
60739.1,43274.3
60744.1,43248.8
60744.1,43168.5
60728.5,43089.8
60697.8,43015.6
60653.2,42948.9
60596.4,42892.2
60529.7,42847.6
60455.5,42816.8
60376.8,42801.2
60319.2,42801.2
60644.8,42475.6
60809.5,42475.6
60875.4,42469.1
60938.6,42449.9
60997,42418.8
61048.1,42376.8
61090,42325.7
61121.2,42267.4
61140.4,42204.1
61146.9,42138.3
61146.9,41966
61140.4,41900.2
61121.2,41837
61110.5,41816.9
61268.9,41816.9
Z" /> 
<path style="fill:#000000; fill-opacity:1.0; 
stroke:#000000; stroke-width:100; stroke-opacity:1; 
stroke-linecap:round; stroke-linejoin:round;fill-rule:evenodd;"
d="M 58289.4,42449.5
58250.5,42445.6
58048.7,42445.6
57982.9,42452.1
57919.6,42471.3
57861.3,42502.5
57810.2,42544.4
57809.5,42545.3
57781.1,42545.3
57766.2,42527.1
57728.1,42495.9
57699.1,42480.3
57728.1,42464.8
57766.2,42433.5
57797.5,42395.5
57820.7,42352
57835,42304.9
57839.8,42255.9
57839.8,42155.5
58289.4,42155.5
Z" /> 
<path style="fill:#000000; fill-opacity:1.0; 
stroke:#000000; stroke-width:100; stroke-opacity:1; 
stroke-linecap:round; stroke-linejoin:round;fill-rule:evenodd;"
d="M 61268.9,41002
60983.7,41002
60652.7,40670.9
60639.9,40655.4
60577.9,40604.4
60507.1,40566.6
60430.3,40543.3
60370.4,40537.4
60370.4,40537.4
60350.4,40535.4
60330.4,40537.4
57012.1,40537.4
56992.1,40535.4
56972.1,40537.4
56972.1,40537.4
56912.2,40543.3
56835.4,40566.6
56802.5,40584.2
56764.6,40604.4
56718.1,40642.6
56702.6,40655.4
56689.8,40670.9
56385.5,40975.2
56345.6,40996.6
56294.4,41038.5
56252.5,41089.7
56221.3,41148
56202.1,41211.3
56195.6,41277.1
56195.6,41478.8
56202.1,41544.6
56221.3,41607.9
56251,41663.4
56251,41935.7
56249.2,41953.7
56256.3,42025.9
56268,42064.4
56277.4,42095.3
56311.5,42159.2
56333.4,42185.9
56333.4,42255.9
56335.1,42272.8
55968.5,42272.8
55968.5,40417.3
61268.9,40417.3
Z" /> 
<path style="fill:#000000; fill-opacity:1.0; 
stroke:#000000; stroke-width:100; stroke-opacity:1; 
stroke-linecap:round; stroke-linejoin:round;fill-rule:evenodd;"
d="M 58463.4,41457.5
58451.4,41458.7
57560.4,41458.7
57543.3,41457
57526.2,41458.7
57526.2,41458.7
57475,41463.7
57409.3,41483.6
57348.8,41516
57295.7,41559.5
57284.8,41572.8
57257.5,41600.1
57236.5,41606.5
57193.1,41629.7
57155,41661
57123.8,41699
57100.6,41742.4
57086.6,41788.5
57072.6,41742.4
57049.4,41699
57018.2,41661
56997.6,41644
57016.9,41607.9
57036.1,41544.6
57042.5,41478.8
57042.5,41470.7
57160.9,41352.4
58463.4,41352.4
Z" /> 
</g>
</g>
<g style="fill:#000000; fill-opacity:1.0; 
stroke:#000000; stroke-width:100; stroke-opacity:1; 
stroke-linecap:round; stroke-linejoin:round;">
<g >
<path style="fill:#000000; fill-opacity:1.0; 
stroke:#000000; stroke-width:100; stroke-opacity:1; 
stroke-linecap:round; stroke-linejoin:round;fill-rule:evenodd;"
d="M 66275.6,41190.2
65207.5,41190.2
65207.5,40748
65206.5,40738.3
65203.7,40728.9
65199.1,40720.3
65192.8,40712.7
65185.3,40706.5
65176.6,40701.8
65167.2,40699
65157.5,40698
64000.8,40698
63976.8,40668.8
63938.8,40637.6
63895.3,40614.4
63848.2,40600.1
63799.2,40595.2
63090.6,40595.2
63041.5,40600.1
62994.4,40614.4
62951,40637.6
62912.9,40668.8
62888.9,40698
62598.4,40698
62588.7,40699
62579.3,40701.8
62570.6,40706.5
62563.1,40712.7
62556.9,40720.3
62552.2,40728.9
62549.4,40738.3
62548.4,40748
62548.4,42765
61664.2,42765
61664.2,40417.3
66275.6,40417.3
Z" /> 
</g>
</g>
<g style="fill:#000000; fill-opacity:1.0; 
stroke:#000000; stroke-width:100; stroke-opacity:1; 
stroke-linecap:round; stroke-linejoin:round;">
<g >
<path style="fill:#000000; fill-opacity:1.0; 
stroke:#000000; stroke-width:100; stroke-opacity:1; 
stroke-linecap:round; stroke-linejoin:round;fill-rule:evenodd;"
d="M 56938.2,42673.1
56938.2,45015.7
55968.5,45015.7
55968.5,42668.1
56933.2,42668.1
Z" /> 
</g>
</g>
<g style="fill:#000000; fill-opacity:1.0; 
stroke:#000000; stroke-width:100; stroke-opacity:1; 
stroke-linecap:round; stroke-linejoin:round;">
<g >
<path style="fill:#000000; fill-opacity:1.0; 
stroke:#000000; stroke-width:100; stroke-opacity:1; 
stroke-linecap:round; stroke-linejoin:round;fill-rule:evenodd;"
d="M 66275.6,42568.1
65255.9,42568.1
65246.2,42569.1
65236.8,42571.9
65228.1,42576.5
65220.5,42582.8
65214.3,42590.3
65209.7,42599
65206.9,42608.4
65205.9,42618.1
65205.9,43749.2
64223.2,43749.2
64223.2,42372.8
65157.5,42372.8
65167.2,42371.9
65176.6,42369
65185.3,42364.4
65192.8,42358.2
65199.1,42350.6
65203.7,42342
65206.5,42332.6
65207.5,42322.8
65207.5,41585.4
66275.6,41585.4
Z" /> 
</g>
</g>
<g style="fill:#000000; fill-opacity:1.0; 
stroke:#000000; stroke-width:100; stroke-opacity:1; 
stroke-linecap:round; stroke-linejoin:round;">
<g >
<path style="fill:#000000; fill-opacity:1.0; 
stroke:#000000; stroke-width:100; stroke-opacity:1; 
stroke-linecap:round; stroke-linejoin:round;fill-rule:evenodd;"
d="M 64812.2,41977.6
63878,41977.6
63868.2,41978.5
63858.8,41981.4
63850.2,41986
63842.6,41992.2
63836.4,41999.8
63831.8,42008.4
63828.9,42017.8
63828,42027.6
63828,43060.2
63042.1,43060.2
63042.1,41093.3
64812.2,41093.3
Z" /> 
</g>
</g>
</g> 
</svg>
