%TF.GenerationSoftware,KiCad,Pcbnew,(5.1.6)-1*%
%TF.CreationDate,2020-12-19T22:24:40-05:00*%
%TF.ProjectId,cargadorDeBateriasLitIon,63617267-6164-46f7-9244-654261746572,rev?*%
%TF.SameCoordinates,Original*%
%TF.FileFunction,Legend,Top*%
%TF.FilePolarity,Positive*%
%FSLAX46Y46*%
G04 Gerber Fmt 4.6, Leading zero omitted, Abs format (unit mm)*
G04 Created by KiCad (PCBNEW (5.1.6)-1) date 2020-12-19 22:24:40*
%MOMM*%
%LPD*%
G01*
G04 APERTURE LIST*
%ADD10C,0.150000*%
%ADD11C,0.120000*%
G04 APERTURE END LIST*
D10*
X144566666Y-103800000D02*
X143866666Y-103800000D01*
X144566666Y-103466666D02*
X143866666Y-103466666D01*
X144566666Y-103066666D01*
X143866666Y-103066666D01*
X144300000Y-102733333D02*
X144300000Y-102200000D01*
X144566666Y-114300000D02*
X143866666Y-114300000D01*
X144566666Y-113966666D02*
X143866666Y-113966666D01*
X144566666Y-113566666D01*
X143866666Y-113566666D01*
X144300000Y-113233333D02*
X144300000Y-112700000D01*
X144566666Y-112966666D02*
X144033333Y-112966666D01*
X166116666Y-111633333D02*
X166116666Y-111500000D01*
X166150000Y-111433333D01*
X166216666Y-111366666D01*
X166350000Y-111333333D01*
X166583333Y-111333333D01*
X166716666Y-111366666D01*
X166783333Y-111433333D01*
X166816666Y-111500000D01*
X166816666Y-111633333D01*
X166783333Y-111700000D01*
X166716666Y-111766666D01*
X166583333Y-111800000D01*
X166350000Y-111800000D01*
X166216666Y-111766666D01*
X166150000Y-111700000D01*
X166116666Y-111633333D01*
X166116666Y-111033333D02*
X166683333Y-111033333D01*
X166750000Y-111000000D01*
X166783333Y-110966666D01*
X166816666Y-110900000D01*
X166816666Y-110766666D01*
X166783333Y-110700000D01*
X166750000Y-110666666D01*
X166683333Y-110633333D01*
X166116666Y-110633333D01*
X166116666Y-110400000D02*
X166116666Y-110000000D01*
X166816666Y-110200000D02*
X166116666Y-110200000D01*
X166550000Y-109766666D02*
X166550000Y-109233333D01*
X166450000Y-114383333D02*
X166483333Y-114283333D01*
X166516666Y-114250000D01*
X166583333Y-114216666D01*
X166683333Y-114216666D01*
X166750000Y-114250000D01*
X166783333Y-114283333D01*
X166816666Y-114350000D01*
X166816666Y-114616666D01*
X166116666Y-114616666D01*
X166116666Y-114383333D01*
X166150000Y-114316666D01*
X166183333Y-114283333D01*
X166250000Y-114250000D01*
X166316666Y-114250000D01*
X166383333Y-114283333D01*
X166416666Y-114316666D01*
X166450000Y-114383333D01*
X166450000Y-114616666D01*
X166550000Y-113916666D02*
X166550000Y-113383333D01*
X166116666Y-107633333D02*
X166116666Y-107500000D01*
X166150000Y-107433333D01*
X166216666Y-107366666D01*
X166350000Y-107333333D01*
X166583333Y-107333333D01*
X166716666Y-107366666D01*
X166783333Y-107433333D01*
X166816666Y-107500000D01*
X166816666Y-107633333D01*
X166783333Y-107700000D01*
X166716666Y-107766666D01*
X166583333Y-107800000D01*
X166350000Y-107800000D01*
X166216666Y-107766666D01*
X166150000Y-107700000D01*
X166116666Y-107633333D01*
X166116666Y-107033333D02*
X166683333Y-107033333D01*
X166750000Y-107000000D01*
X166783333Y-106966666D01*
X166816666Y-106900000D01*
X166816666Y-106766666D01*
X166783333Y-106700000D01*
X166750000Y-106666666D01*
X166683333Y-106633333D01*
X166116666Y-106633333D01*
X166116666Y-106400000D02*
X166116666Y-106000000D01*
X166816666Y-106200000D02*
X166116666Y-106200000D01*
X166550000Y-105766666D02*
X166550000Y-105233333D01*
X166816666Y-105500000D02*
X166283333Y-105500000D01*
X166450000Y-103383333D02*
X166483333Y-103283333D01*
X166516666Y-103250000D01*
X166583333Y-103216666D01*
X166683333Y-103216666D01*
X166750000Y-103250000D01*
X166783333Y-103283333D01*
X166816666Y-103350000D01*
X166816666Y-103616666D01*
X166116666Y-103616666D01*
X166116666Y-103383333D01*
X166150000Y-103316666D01*
X166183333Y-103283333D01*
X166250000Y-103250000D01*
X166316666Y-103250000D01*
X166383333Y-103283333D01*
X166416666Y-103316666D01*
X166450000Y-103383333D01*
X166450000Y-103616666D01*
X166550000Y-102916666D02*
X166550000Y-102383333D01*
X166816666Y-102650000D02*
X166283333Y-102650000D01*
D11*
%TO.C,C5*%
X164240000Y-111337221D02*
X164240000Y-111662779D01*
X165260000Y-111337221D02*
X165260000Y-111662779D01*
%TO.C,U2*%
X149750000Y-106500000D02*
X149750000Y-110000000D01*
X152750000Y-106500000D02*
X152750000Y-109250000D01*
%TO.C,U3*%
X158650000Y-109890000D02*
X156850000Y-109890000D01*
X156850000Y-113110000D02*
X159300000Y-113110000D01*
%TO.C,R6*%
X161837221Y-111740000D02*
X162162779Y-111740000D01*
X161837221Y-112760000D02*
X162162779Y-112760000D01*
%TO.C,R5*%
X162162779Y-111010000D02*
X161837221Y-111010000D01*
X162162779Y-109990000D02*
X161837221Y-109990000D01*
%TO.C,L1*%
X157535966Y-103471647D02*
G75*
G02*
X161500000Y-103500000I1964034J-2528353D01*
G01*
X161499144Y-108500685D02*
G75*
G02*
X157500000Y-108500000I-1999144J2500685D01*
G01*
%TO.C,D2*%
X163000000Y-109450000D02*
X165000000Y-109450000D01*
X165000000Y-109450000D02*
X165000000Y-105600000D01*
X163000000Y-109450000D02*
X163000000Y-105600000D01*
%TO.C,C4*%
X154015000Y-111158578D02*
X154015000Y-110641422D01*
X155435000Y-111158578D02*
X155435000Y-110641422D01*
%TO.C,J5*%
X167050000Y-114950000D02*
X167050000Y-113050000D01*
X168950000Y-114950000D02*
X167050000Y-114950000D01*
X168950000Y-113050000D02*
X168950000Y-114950000D01*
X167050000Y-113050000D02*
X168950000Y-113050000D01*
%TO.C,Q1*%
X152070000Y-113690000D02*
X150370000Y-113690000D01*
X152070000Y-110490000D02*
X149470000Y-110490000D01*
%TO.C,J6*%
X167050000Y-111450000D02*
X167050000Y-109550000D01*
X168950000Y-111450000D02*
X167050000Y-111450000D01*
X168950000Y-109550000D02*
X168950000Y-111450000D01*
X167050000Y-109550000D02*
X168950000Y-109550000D01*
%TO.C,J4*%
X167050000Y-103950000D02*
X167050000Y-102050000D01*
X168950000Y-103950000D02*
X167050000Y-103950000D01*
X168950000Y-102050000D02*
X168950000Y-103950000D01*
X167050000Y-102050000D02*
X168950000Y-102050000D01*
%TO.C,J3*%
X167050000Y-107450000D02*
X167050000Y-105550000D01*
X168950000Y-107450000D02*
X167050000Y-107450000D01*
X168950000Y-105550000D02*
X168950000Y-107450000D01*
X167050000Y-105550000D02*
X168950000Y-105550000D01*
%TO.C,J2*%
X141550000Y-103950000D02*
X141550000Y-102050000D01*
X143450000Y-103950000D02*
X141550000Y-103950000D01*
X143450000Y-102050000D02*
X143450000Y-103950000D01*
X141550000Y-102050000D02*
X143450000Y-102050000D01*
%TO.C,J1*%
X141550000Y-114450000D02*
X141550000Y-112550000D01*
X143450000Y-114450000D02*
X141550000Y-114450000D01*
X143450000Y-112550000D02*
X143450000Y-114450000D01*
X141550000Y-112550000D02*
X143450000Y-112550000D01*
%TO.C,U1*%
X143390000Y-107000000D02*
X143390000Y-108800000D01*
X146610000Y-108800000D02*
X146610000Y-106350000D01*
%TO.C,R4*%
X153287221Y-104670000D02*
X153612779Y-104670000D01*
X153287221Y-105690000D02*
X153612779Y-105690000D01*
%TO.C,R3*%
X154710000Y-107437221D02*
X154710000Y-107762779D01*
X153690000Y-107437221D02*
X153690000Y-107762779D01*
%TO.C,R2*%
X148210000Y-107937221D02*
X148210000Y-108262779D01*
X147190000Y-107937221D02*
X147190000Y-108262779D01*
%TO.C,R1*%
X148210000Y-111337221D02*
X148210000Y-111662779D01*
X147190000Y-111337221D02*
X147190000Y-111662779D01*
%TO.C,D1*%
X144500000Y-111435000D02*
X146785000Y-111435000D01*
X146785000Y-111435000D02*
X146785000Y-109965000D01*
X146785000Y-109965000D02*
X144500000Y-109965000D01*
%TO.C,C3*%
X150522779Y-105690000D02*
X150197221Y-105690000D01*
X150522779Y-104670000D02*
X150197221Y-104670000D01*
%TO.C,C2*%
X144437221Y-104590000D02*
X144762779Y-104590000D01*
X144437221Y-105610000D02*
X144762779Y-105610000D01*
%TO.C,C1*%
X145137221Y-111790000D02*
X145462779Y-111790000D01*
X145137221Y-112810000D02*
X145462779Y-112810000D01*
%TO.C,C5*%
D10*
X165107142Y-114166666D02*
X165154761Y-114214285D01*
X165202380Y-114357142D01*
X165202380Y-114452380D01*
X165154761Y-114595238D01*
X165059523Y-114690476D01*
X164964285Y-114738095D01*
X164773809Y-114785714D01*
X164630952Y-114785714D01*
X164440476Y-114738095D01*
X164345238Y-114690476D01*
X164250000Y-114595238D01*
X164202380Y-114452380D01*
X164202380Y-114357142D01*
X164250000Y-114214285D01*
X164297619Y-114166666D01*
X164202380Y-113261904D02*
X164202380Y-113738095D01*
X164678571Y-113785714D01*
X164630952Y-113738095D01*
X164583333Y-113642857D01*
X164583333Y-113404761D01*
X164630952Y-113309523D01*
X164678571Y-113261904D01*
X164773809Y-113214285D01*
X165011904Y-113214285D01*
X165107142Y-113261904D01*
X165154761Y-113309523D01*
X165202380Y-113404761D01*
X165202380Y-113642857D01*
X165154761Y-113738095D01*
X165107142Y-113785714D01*
%TO.C,U3*%
X156988095Y-113452380D02*
X156988095Y-114261904D01*
X157035714Y-114357142D01*
X157083333Y-114404761D01*
X157178571Y-114452380D01*
X157369047Y-114452380D01*
X157464285Y-114404761D01*
X157511904Y-114357142D01*
X157559523Y-114261904D01*
X157559523Y-113452380D01*
X157940476Y-113452380D02*
X158559523Y-113452380D01*
X158226190Y-113833333D01*
X158369047Y-113833333D01*
X158464285Y-113880952D01*
X158511904Y-113928571D01*
X158559523Y-114023809D01*
X158559523Y-114261904D01*
X158511904Y-114357142D01*
X158464285Y-114404761D01*
X158369047Y-114452380D01*
X158083333Y-114452380D01*
X157988095Y-114404761D01*
X157940476Y-114357142D01*
%TO.C,R6*%
X161833333Y-114052380D02*
X161500000Y-113576190D01*
X161261904Y-114052380D02*
X161261904Y-113052380D01*
X161642857Y-113052380D01*
X161738095Y-113100000D01*
X161785714Y-113147619D01*
X161833333Y-113242857D01*
X161833333Y-113385714D01*
X161785714Y-113480952D01*
X161738095Y-113528571D01*
X161642857Y-113576190D01*
X161261904Y-113576190D01*
X162690476Y-113052380D02*
X162500000Y-113052380D01*
X162404761Y-113100000D01*
X162357142Y-113147619D01*
X162261904Y-113290476D01*
X162214285Y-113480952D01*
X162214285Y-113861904D01*
X162261904Y-113957142D01*
X162309523Y-114004761D01*
X162404761Y-114052380D01*
X162595238Y-114052380D01*
X162690476Y-114004761D01*
X162738095Y-113957142D01*
X162785714Y-113861904D01*
X162785714Y-113623809D01*
X162738095Y-113528571D01*
X162690476Y-113480952D01*
X162595238Y-113433333D01*
X162404761Y-113433333D01*
X162309523Y-113480952D01*
X162261904Y-113528571D01*
X162214285Y-113623809D01*
%TO.C,R5*%
X161833333Y-109702380D02*
X161500000Y-109226190D01*
X161261904Y-109702380D02*
X161261904Y-108702380D01*
X161642857Y-108702380D01*
X161738095Y-108750000D01*
X161785714Y-108797619D01*
X161833333Y-108892857D01*
X161833333Y-109035714D01*
X161785714Y-109130952D01*
X161738095Y-109178571D01*
X161642857Y-109226190D01*
X161261904Y-109226190D01*
X162738095Y-108702380D02*
X162261904Y-108702380D01*
X162214285Y-109178571D01*
X162261904Y-109130952D01*
X162357142Y-109083333D01*
X162595238Y-109083333D01*
X162690476Y-109130952D01*
X162738095Y-109178571D01*
X162785714Y-109273809D01*
X162785714Y-109511904D01*
X162738095Y-109607142D01*
X162690476Y-109654761D01*
X162595238Y-109702380D01*
X162357142Y-109702380D01*
X162261904Y-109654761D01*
X162214285Y-109607142D01*
%TO.C,L1*%
X156452380Y-106166666D02*
X156452380Y-106642857D01*
X155452380Y-106642857D01*
X156452380Y-105309523D02*
X156452380Y-105880952D01*
X156452380Y-105595238D02*
X155452380Y-105595238D01*
X155595238Y-105690476D01*
X155690476Y-105785714D01*
X155738095Y-105880952D01*
%TO.C,D2*%
X164452380Y-104738095D02*
X163452380Y-104738095D01*
X163452380Y-104500000D01*
X163500000Y-104357142D01*
X163595238Y-104261904D01*
X163690476Y-104214285D01*
X163880952Y-104166666D01*
X164023809Y-104166666D01*
X164214285Y-104214285D01*
X164309523Y-104261904D01*
X164404761Y-104357142D01*
X164452380Y-104500000D01*
X164452380Y-104738095D01*
X163547619Y-103785714D02*
X163500000Y-103738095D01*
X163452380Y-103642857D01*
X163452380Y-103404761D01*
X163500000Y-103309523D01*
X163547619Y-103261904D01*
X163642857Y-103214285D01*
X163738095Y-103214285D01*
X163880952Y-103261904D01*
X164452380Y-103833333D01*
X164452380Y-103214285D01*
%TO.C,C4*%
X155107142Y-113916666D02*
X155154761Y-113964285D01*
X155202380Y-114107142D01*
X155202380Y-114202380D01*
X155154761Y-114345238D01*
X155059523Y-114440476D01*
X154964285Y-114488095D01*
X154773809Y-114535714D01*
X154630952Y-114535714D01*
X154440476Y-114488095D01*
X154345238Y-114440476D01*
X154250000Y-114345238D01*
X154202380Y-114202380D01*
X154202380Y-114107142D01*
X154250000Y-113964285D01*
X154297619Y-113916666D01*
X154535714Y-113059523D02*
X155202380Y-113059523D01*
X154154761Y-113297619D02*
X154869047Y-113535714D01*
X154869047Y-112916666D01*
%TO.C,Q1*%
X151104761Y-114947619D02*
X151009523Y-114900000D01*
X150914285Y-114804761D01*
X150771428Y-114661904D01*
X150676190Y-114614285D01*
X150580952Y-114614285D01*
X150628571Y-114852380D02*
X150533333Y-114804761D01*
X150438095Y-114709523D01*
X150390476Y-114519047D01*
X150390476Y-114185714D01*
X150438095Y-113995238D01*
X150533333Y-113900000D01*
X150628571Y-113852380D01*
X150819047Y-113852380D01*
X150914285Y-113900000D01*
X151009523Y-113995238D01*
X151057142Y-114185714D01*
X151057142Y-114519047D01*
X151009523Y-114709523D01*
X150914285Y-114804761D01*
X150819047Y-114852380D01*
X150628571Y-114852380D01*
X152009523Y-114852380D02*
X151438095Y-114852380D01*
X151723809Y-114852380D02*
X151723809Y-113852380D01*
X151628571Y-113995238D01*
X151533333Y-114090476D01*
X151438095Y-114138095D01*
%TO.C,U1*%
X142311904Y-108609523D02*
X142959523Y-108609523D01*
X143035714Y-108571428D01*
X143073809Y-108533333D01*
X143111904Y-108457142D01*
X143111904Y-108304761D01*
X143073809Y-108228571D01*
X143035714Y-108190476D01*
X142959523Y-108152380D01*
X142311904Y-108152380D01*
X143111904Y-107352380D02*
X143111904Y-107809523D01*
X143111904Y-107580952D02*
X142311904Y-107580952D01*
X142426190Y-107657142D01*
X142502380Y-107733333D01*
X142540476Y-107809523D01*
%TO.C,R4*%
X153333333Y-104202380D02*
X153000000Y-103726190D01*
X152761904Y-104202380D02*
X152761904Y-103202380D01*
X153142857Y-103202380D01*
X153238095Y-103250000D01*
X153285714Y-103297619D01*
X153333333Y-103392857D01*
X153333333Y-103535714D01*
X153285714Y-103630952D01*
X153238095Y-103678571D01*
X153142857Y-103726190D01*
X152761904Y-103726190D01*
X154190476Y-103535714D02*
X154190476Y-104202380D01*
X153952380Y-103154761D02*
X153714285Y-103869047D01*
X154333333Y-103869047D01*
%TO.C,R3*%
X156202380Y-108166666D02*
X155726190Y-108500000D01*
X156202380Y-108738095D02*
X155202380Y-108738095D01*
X155202380Y-108357142D01*
X155250000Y-108261904D01*
X155297619Y-108214285D01*
X155392857Y-108166666D01*
X155535714Y-108166666D01*
X155630952Y-108214285D01*
X155678571Y-108261904D01*
X155726190Y-108357142D01*
X155726190Y-108738095D01*
X155202380Y-107833333D02*
X155202380Y-107214285D01*
X155583333Y-107547619D01*
X155583333Y-107404761D01*
X155630952Y-107309523D01*
X155678571Y-107261904D01*
X155773809Y-107214285D01*
X156011904Y-107214285D01*
X156107142Y-107261904D01*
X156154761Y-107309523D01*
X156202380Y-107404761D01*
X156202380Y-107690476D01*
X156154761Y-107785714D01*
X156107142Y-107833333D01*
%TO.C,R2*%
X148202380Y-105666666D02*
X147726190Y-106000000D01*
X148202380Y-106238095D02*
X147202380Y-106238095D01*
X147202380Y-105857142D01*
X147250000Y-105761904D01*
X147297619Y-105714285D01*
X147392857Y-105666666D01*
X147535714Y-105666666D01*
X147630952Y-105714285D01*
X147678571Y-105761904D01*
X147726190Y-105857142D01*
X147726190Y-106238095D01*
X147297619Y-105285714D02*
X147250000Y-105238095D01*
X147202380Y-105142857D01*
X147202380Y-104904761D01*
X147250000Y-104809523D01*
X147297619Y-104761904D01*
X147392857Y-104714285D01*
X147488095Y-104714285D01*
X147630952Y-104761904D01*
X148202380Y-105333333D01*
X148202380Y-104714285D01*
%TO.C,R1*%
X149352380Y-111666666D02*
X148876190Y-112000000D01*
X149352380Y-112238095D02*
X148352380Y-112238095D01*
X148352380Y-111857142D01*
X148400000Y-111761904D01*
X148447619Y-111714285D01*
X148542857Y-111666666D01*
X148685714Y-111666666D01*
X148780952Y-111714285D01*
X148828571Y-111761904D01*
X148876190Y-111857142D01*
X148876190Y-112238095D01*
X149352380Y-110714285D02*
X149352380Y-111285714D01*
X149352380Y-111000000D02*
X148352380Y-111000000D01*
X148495238Y-111095238D01*
X148590476Y-111190476D01*
X148638095Y-111285714D01*
%TO.C,D1*%
X143616666Y-111216666D02*
X142916666Y-111216666D01*
X142916666Y-111050000D01*
X142950000Y-110950000D01*
X143016666Y-110883333D01*
X143083333Y-110850000D01*
X143216666Y-110816666D01*
X143316666Y-110816666D01*
X143450000Y-110850000D01*
X143516666Y-110883333D01*
X143583333Y-110950000D01*
X143616666Y-111050000D01*
X143616666Y-111216666D01*
X143616666Y-110150000D02*
X143616666Y-110550000D01*
X143616666Y-110350000D02*
X142916666Y-110350000D01*
X143016666Y-110416666D01*
X143083333Y-110483333D01*
X143116666Y-110550000D01*
%TO.C,C3*%
X150333333Y-104107142D02*
X150285714Y-104154761D01*
X150142857Y-104202380D01*
X150047619Y-104202380D01*
X149904761Y-104154761D01*
X149809523Y-104059523D01*
X149761904Y-103964285D01*
X149714285Y-103773809D01*
X149714285Y-103630952D01*
X149761904Y-103440476D01*
X149809523Y-103345238D01*
X149904761Y-103250000D01*
X150047619Y-103202380D01*
X150142857Y-103202380D01*
X150285714Y-103250000D01*
X150333333Y-103297619D01*
X150666666Y-103202380D02*
X151285714Y-103202380D01*
X150952380Y-103583333D01*
X151095238Y-103583333D01*
X151190476Y-103630952D01*
X151238095Y-103678571D01*
X151285714Y-103773809D01*
X151285714Y-104011904D01*
X151238095Y-104107142D01*
X151190476Y-104154761D01*
X151095238Y-104202380D01*
X150809523Y-104202380D01*
X150714285Y-104154761D01*
X150666666Y-104107142D01*
%TO.C,C2*%
X146333333Y-103857142D02*
X146285714Y-103904761D01*
X146142857Y-103952380D01*
X146047619Y-103952380D01*
X145904761Y-103904761D01*
X145809523Y-103809523D01*
X145761904Y-103714285D01*
X145714285Y-103523809D01*
X145714285Y-103380952D01*
X145761904Y-103190476D01*
X145809523Y-103095238D01*
X145904761Y-103000000D01*
X146047619Y-102952380D01*
X146142857Y-102952380D01*
X146285714Y-103000000D01*
X146333333Y-103047619D01*
X146714285Y-103047619D02*
X146761904Y-103000000D01*
X146857142Y-102952380D01*
X147095238Y-102952380D01*
X147190476Y-103000000D01*
X147238095Y-103047619D01*
X147285714Y-103142857D01*
X147285714Y-103238095D01*
X147238095Y-103380952D01*
X146666666Y-103952380D01*
X147285714Y-103952380D01*
%TO.C,C1*%
X145583333Y-114107142D02*
X145535714Y-114154761D01*
X145392857Y-114202380D01*
X145297619Y-114202380D01*
X145154761Y-114154761D01*
X145059523Y-114059523D01*
X145011904Y-113964285D01*
X144964285Y-113773809D01*
X144964285Y-113630952D01*
X145011904Y-113440476D01*
X145059523Y-113345238D01*
X145154761Y-113250000D01*
X145297619Y-113202380D01*
X145392857Y-113202380D01*
X145535714Y-113250000D01*
X145583333Y-113297619D01*
X146535714Y-114202380D02*
X145964285Y-114202380D01*
X146250000Y-114202380D02*
X146250000Y-113202380D01*
X146154761Y-113345238D01*
X146059523Y-113440476D01*
X145964285Y-113488095D01*
%TD*%
M02*
