<?xml version="1.0" standalone="no"?>
 <!DOCTYPE svg PUBLIC "-//W3C//DTD SVG 1.1//EN" 
 "http://www.w3.org/Graphics/SVG/1.1/DTD/svg11.dtd"> 
<svg
  xmlns:svg="http://www.w3.org/2000/svg"
  xmlns="http://www.w3.org/2000/svg"
  xmlns:xlink="http://www.w3.org/1999/xlink"
  version="1.1"
  width="29.700220cm" height="21.000720cm" viewBox="0 0 116930 82680">
<title>SVG Picture created as cargadorDeBateriasLitIon-B_Mask.svg date 2021/02/06 12:39:52 </title>
  <desc>Picture generated by PCBNEW </desc>
<g style="fill:#000000; fill-opacity:1;stroke:#000000; stroke-opacity:1;
stroke-linecap:round; stroke-linejoin:round;"
 transform="translate(0 0) scale(1 1)">
</g>
<g style="fill:#000000; fill-opacity:0.0; 
stroke:#000000; stroke-width:-0.000393701; stroke-opacity:1; 
stroke-linecap:round; stroke-linejoin:round;">
</g>
<g style="fill:#000000; fill-opacity:0.0; 
stroke:#000000; stroke-width:98.4252; stroke-opacity:1; 
stroke-linecap:round; stroke-linejoin:round;">
<text x="60236.2" y="44291.3"
transform="scale(-1 1) translate(-120472.440945 0)"
textLength="4620.47" font-size="524.934" lengthAdjust="spacingAndGlyphs"
text-anchor="middle" opacity="0">MAYKOLREY.COM</text>
<path d="M62575 44272
L62526 43878
L62430 44160
L62263 43878
L62312 44272
" />
<path d="M62130 44160
L61942 44160
" />
<path d="M62181 44272
L62001 43878
L61919 44272
" />
<path d="M61689 44085
L61712 44272
" />
<path d="M61795 43878
L61689 44085
L61532 43878
" />
<path d="M61450 44272
L61401 43878
" />
<path d="M61225 44272
L61366 44047
" />
<path d="M61176 43878
L61429 44103
" />
<path d="M60932 43878
L60857 43878
L60822 43897
L60789 43935
L60780 44010
L60796 44141
L60824 44216
L60866 44253
L60906 44272
L60981 44272
L61016 44253
L61049 44216
L61059 44141
L61042 44010
L61014 43935
L60972 43897
L60932 43878
" />
<path d="M60456 44272
L60644 44272
L60595 43878
" />
<path d="M60100 44272
L60208 44085
" />
<path d="M60325 44272
L60276 43878
L60126 43878
L60091 43897
L60074 43916
L60060 43953
L60067 44010
L60091 44047
L60112 44066
L60152 44085
L60302 44085
" />
<path d="M59906 44066
L59774 44066
" />
<path d="M59744 44272
L59931 44272
L59882 43878
L59695 43878
" />
<path d="M59477 44085
L59500 44272
" />
<path d="M59582 43878
L59477 44085
L59320 43878
" />
<path d="M59233 44235
L59217 44253
L59238 44272
L59254 44253
L59233 44235
L59238 44272
" />
<path d="M58821 44235
L58842 44253
L58900 44272
L58938 44272
L58992 44253
L59025 44216
L59039 44178
L59048 44103
L59041 44047
L59013 43972
L58989 43935
L58947 43897
L58889 43878
L58851 43878
L58797 43897
L58781 43916
" />
<path d="M58532 43878
L58457 43878
L58422 43897
L58389 43935
L58380 44010
L58396 44141
L58425 44216
L58467 44253
L58507 44272
L58582 44272
L58617 44253
L58650 44216
L58659 44141
L58643 44010
L58614 43935
L58572 43897
L58532 43878
" />
<path d="M58244 44272
L58195 43878
L58099 44160
L57932 43878
L57982 44272
" />
<g >
</g>
<g >
</g>
<g >
</g>
<g >
</g>
<g >
</g>
<g >
</g>
<g >
</g>
<g >
</g>
<g >
</g>
<g >
</g>
<g style="fill:#000000; fill-opacity:0.0; 
stroke:#000000; stroke-width:98.4252; stroke-opacity:1; 
stroke-linecap:round; stroke-linejoin:round;">
</g>
<g style="fill:#000000; fill-opacity:0.0; 
stroke:#000000; stroke-width:0; stroke-opacity:1; 
stroke-linecap:round; stroke-linejoin:round;">
</g>
<g style="fill:#000000; fill-opacity:1.0; 
stroke:#000000; stroke-width:0; stroke-opacity:1; 
stroke-linecap:round; stroke-linejoin:round;">
<path style="fill:#000000; fill-opacity:1.0; 
stroke:#000000; stroke-width:0; stroke-opacity:1; 
stroke-linecap:round; stroke-linejoin:round;fill-rule:evenodd;"
d="M 66438.9,44567
66440.8,44567.3
66442.7,44567.8
66444.5,44568.4
66446.3,44569.3
66447.9,44570.2
66449.5,44571.4
66450.9,44572.7
66452.2,44574.1
66453.4,44575.7
66454.4,44577.3
66455.2,44579.1
66455.8,44580.9
66456.3,44582.8
66456.6,44584.7
66456.7,44586.6
66456.7,45177.2
66456.6,45179.1
66456.3,45181
66455.8,45182.9
66455.2,45184.7
66454.4,45186.4
66453.4,45188.1
66452.2,45189.7
66450.9,45191.1
66449.5,45192.4
66447.9,45193.5
66446.3,45194.5
66444.5,45195.4
66442.7,45196
66440.8,45196.5
66438.9,45196.8
66437,45196.9
65846.5,45196.9
65844.5,45196.8
65842.6,45196.5
65840.7,45196
65838.9,45195.4
65837.2,45194.5
65835.5,45193.5
65834,45192.4
65832.5,45191.1
65831.2,45189.7
65830.1,45188.1
65829.1,45186.4
65828.3,45184.7
65827.6,45182.9
65827.1,45181
65826.9,45179.1
65826.8,45177.2
65826.8,44586.6
65826.9,44584.7
65827.1,44582.8
65827.6,44580.9
65828.3,44579.1
65829.1,44577.3
65830.1,44575.7
65831.2,44574.1
65832.5,44572.7
65834,44571.4
65835.5,44570.2
65837.2,44569.3
65838.9,44568.4
65840.7,44567.8
65842.6,44567.3
65844.5,44567
65846.5,44566.9
66437,44566.9
Z" /> 
</g>
<g >
</g>
<g >
</g>
<g style="fill:#000000; fill-opacity:1.0; 
stroke:#000000; stroke-width:0; stroke-opacity:1; 
stroke-linecap:round; stroke-linejoin:round;">
<path style="fill:#000000; fill-opacity:1.0; 
stroke:#000000; stroke-width:0; stroke-opacity:1; 
stroke-linecap:round; stroke-linejoin:round;fill-rule:evenodd;"
d="M 66438.9,43189.1
66440.8,43189.4
66442.7,43189.8
66444.5,43190.5
66446.3,43191.3
66447.9,43192.3
66449.5,43193.4
66450.9,43194.7
66452.2,43196.2
66453.4,43197.7
66454.4,43199.4
66455.2,43201.1
66455.8,43202.9
66456.3,43204.8
66456.6,43206.7
66456.7,43208.7
66456.7,43799.2
66456.6,43801.1
66456.3,43803.1
66455.8,43804.9
66455.2,43806.7
66454.4,43808.5
66453.4,43810.1
66452.2,43811.7
66450.9,43813.1
66449.5,43814.4
66447.9,43815.6
66446.3,43816.6
66444.5,43817.4
66442.7,43818.1
66440.8,43818.5
66438.9,43818.8
66437,43818.9
65846.5,43818.9
65844.5,43818.8
65842.6,43818.5
65840.7,43818.1
65838.9,43817.4
65837.2,43816.6
65835.5,43815.6
65834,43814.4
65832.5,43813.1
65831.2,43811.7
65830.1,43810.1
65829.1,43808.5
65828.3,43806.7
65827.6,43804.9
65827.1,43803.1
65826.9,43801.1
65826.8,43799.2
65826.8,43208.7
65826.9,43206.7
65827.1,43204.8
65827.6,43202.9
65828.3,43201.1
65829.1,43199.4
65830.1,43197.7
65831.2,43196.2
65832.5,43194.7
65834,43193.4
65835.5,43192.3
65837.2,43191.3
65838.9,43190.5
65840.7,43189.8
65842.6,43189.4
65844.5,43189.1
65846.5,43189
66437,43189
Z" /> 
</g>
<g >
</g>
<g style="fill:#000000; fill-opacity:1.0; 
stroke:#000000; stroke-width:0; stroke-opacity:1; 
stroke-linecap:round; stroke-linejoin:round;">
<path style="fill:#000000; fill-opacity:1.0; 
stroke:#000000; stroke-width:0; stroke-opacity:1; 
stroke-linecap:round; stroke-linejoin:round;fill-rule:evenodd;"
d="M 66438.9,40236.3
66440.8,40236.6
66442.7,40237.1
66444.5,40237.7
66446.3,40238.5
66447.9,40239.5
66449.5,40240.7
66450.9,40242
66452.2,40243.4
66453.4,40245
66454.4,40246.6
66455.2,40248.4
66455.8,40250.2
66456.3,40252.1
66456.6,40254
66456.7,40255.9
66456.7,40846.5
66456.6,40848.4
66456.3,40850.3
66455.8,40852.2
66455.2,40854
66454.4,40855.7
66453.4,40857.4
66452.2,40858.9
66450.9,40860.4
66449.5,40861.7
66447.9,40862.8
66446.3,40863.8
66444.5,40864.6
66442.7,40865.3
66440.8,40865.8
66438.9,40866
66437,40866.1
65846.5,40866.1
65844.5,40866
65842.6,40865.8
65840.7,40865.3
65838.9,40864.6
65837.2,40863.8
65835.5,40862.8
65834,40861.7
65832.5,40860.4
65831.2,40858.9
65830.1,40857.4
65829.1,40855.7
65828.3,40854
65827.6,40852.2
65827.1,40850.3
65826.9,40848.4
65826.8,40846.5
65826.8,40255.9
65826.9,40254
65827.1,40252.1
65827.6,40250.2
65828.3,40248.4
65829.1,40246.6
65830.1,40245
65831.2,40243.4
65832.5,40242
65834,40240.7
65835.5,40239.5
65837.2,40238.5
65838.9,40237.7
65840.7,40237.1
65842.6,40236.6
65844.5,40236.3
65846.5,40236.2
66437,40236.2
Z" /> 
</g>
<g >
</g>
<g style="fill:#000000; fill-opacity:1.0; 
stroke:#000000; stroke-width:0; stroke-opacity:1; 
stroke-linecap:round; stroke-linejoin:round;">
<path style="fill:#000000; fill-opacity:1.0; 
stroke:#000000; stroke-width:0; stroke-opacity:1; 
stroke-linecap:round; stroke-linejoin:round;fill-rule:evenodd;"
d="M 66438.9,41614.3
66440.8,41614.6
66442.7,41615
66444.5,41615.7
66446.3,41616.5
66447.9,41617.5
66449.5,41618.6
66450.9,41619.9
66452.2,41621.4
66453.4,41622.9
66454.4,41624.6
66455.2,41626.3
66455.8,41628.1
66456.3,41630
66456.6,41631.9
66456.7,41633.9
66456.7,42224.4
66456.6,42226.3
66456.3,42228.2
66455.8,42230.1
66455.2,42231.9
66454.4,42233.7
66453.4,42235.3
66452.2,42236.9
66450.9,42238.3
66449.5,42239.6
66447.9,42240.8
66446.3,42241.8
66444.5,42242.6
66442.7,42243.2
66440.8,42243.7
66438.9,42244
66437,42244.1
65846.5,42244.1
65844.5,42244
65842.6,42243.7
65840.7,42243.2
65838.9,42242.6
65837.2,42241.8
65835.5,42240.8
65834,42239.6
65832.5,42238.3
65831.2,42236.9
65830.1,42235.3
65829.1,42233.7
65828.3,42231.9
65827.6,42230.1
65827.1,42228.2
65826.9,42226.3
65826.8,42224.4
65826.8,41633.9
65826.9,41631.9
65827.1,41630
65827.6,41628.1
65828.3,41626.3
65829.1,41624.6
65830.1,41622.9
65831.2,41621.4
65832.5,41619.9
65834,41618.6
65835.5,41617.5
65837.2,41616.5
65838.9,41615.7
65840.7,41615
65842.6,41614.6
65844.5,41614.3
65846.5,41614.2
66437,41614.2
Z" /> 
</g>
<g >
</g>
<g style="fill:#000000; fill-opacity:1.0; 
stroke:#000000; stroke-width:0; stroke-opacity:1; 
stroke-linecap:round; stroke-linejoin:round;">
<path style="fill:#000000; fill-opacity:1.0; 
stroke:#000000; stroke-width:0; stroke-opacity:1; 
stroke-linecap:round; stroke-linejoin:round;fill-rule:evenodd;"
d="M 56399.6,40236.3
56401.5,40236.6
56403.4,40237.1
56405.2,40237.7
56406.9,40238.5
56408.6,40239.5
56410.1,40240.7
56411.6,40242
56412.9,40243.4
56414,40245
56415,40246.6
56415.8,40248.4
56416.5,40250.2
56416.9,40252.1
56417.2,40254
56417.3,40255.9
56417.3,40846.5
56417.2,40848.4
56416.9,40850.3
56416.5,40852.2
56415.8,40854
56415,40855.7
56414,40857.4
56412.9,40858.9
56411.6,40860.4
56410.1,40861.7
56408.6,40862.8
56406.9,40863.8
56405.2,40864.6
56403.4,40865.3
56401.5,40865.8
56399.6,40866
56397.6,40866.1
55807.1,40866.1
55805.2,40866
55803.2,40865.8
55801.4,40865.3
55799.6,40864.6
55797.8,40863.8
55796.2,40862.8
55794.6,40861.7
55793.2,40860.4
55791.9,40858.9
55790.7,40857.4
55789.7,40855.7
55788.9,40854
55788.2,40852.2
55787.8,40850.3
55787.5,40848.4
55787.4,40846.5
55787.4,40255.9
55787.5,40254
55787.8,40252.1
55788.2,40250.2
55788.9,40248.4
55789.7,40246.6
55790.7,40245
55791.9,40243.4
55793.2,40242
55794.6,40240.7
55796.2,40239.5
55797.8,40238.5
55799.6,40237.7
55801.4,40237.1
55803.2,40236.6
55805.2,40236.3
55807.1,40236.2
56397.6,40236.2
Z" /> 
</g>
<g >
</g>
<g style="fill:#000000; fill-opacity:1.0; 
stroke:#000000; stroke-width:0; stroke-opacity:1; 
stroke-linecap:round; stroke-linejoin:round;">
<path style="fill:#000000; fill-opacity:1.0; 
stroke:#000000; stroke-width:0; stroke-opacity:1; 
stroke-linecap:round; stroke-linejoin:round;fill-rule:evenodd;"
d="M 56399.6,44370.2
56401.5,44370.5
56403.4,44370.9
56405.2,44371.6
56406.9,44372.4
56408.6,44373.4
56410.1,44374.5
56411.6,44375.8
56412.9,44377.3
56414,44378.8
56415,44380.5
56415.8,44382.2
56416.5,44384
56416.9,44385.9
56417.2,44387.8
56417.3,44389.8
56417.3,44980.3
56417.2,44982.2
56416.9,44984.2
56416.5,44986
56415.8,44987.8
56415,44989.6
56414,44991.3
56412.9,44992.8
56411.6,44994.2
56410.1,44995.5
56408.6,44996.7
56406.9,44997.7
56405.2,44998.5
56403.4,44999.2
56401.5,44999.6
56399.6,44999.9
56397.6,45000
55807.1,45000
55805.2,44999.9
55803.2,44999.6
55801.4,44999.2
55799.6,44998.5
55797.8,44997.7
55796.2,44996.7
55794.6,44995.5
55793.2,44994.2
55791.9,44992.8
55790.7,44991.3
55789.7,44989.6
55788.9,44987.8
55788.2,44986
55787.8,44984.2
55787.5,44982.2
55787.4,44980.3
55787.4,44389.8
55787.5,44387.8
55787.8,44385.9
55788.2,44384
55788.9,44382.2
55789.7,44380.5
55790.7,44378.8
55791.9,44377.3
55793.2,44375.8
55794.6,44374.5
55796.2,44373.4
55797.8,44372.4
55799.6,44371.6
55801.4,44370.9
55803.2,44370.5
55805.2,44370.2
55807.1,44370.1
56397.6,44370.1
Z" /> 
</g>
<g >
</g>
<g >
</g>
<g >
</g>
<g >
</g>
<g >
</g>
<g >
</g>
<g >
</g>
<g >
</g>
<g >
</g>
<g >
</g>
<g >
</g>
<g >
</g>
</g> 
</svg>
