<?xml version="1.0" standalone="no"?>
 <!DOCTYPE svg PUBLIC "-//W3C//DTD SVG 1.1//EN" 
 "http://www.w3.org/Graphics/SVG/1.1/DTD/svg11.dtd"> 
<svg
  xmlns:svg="http://www.w3.org/2000/svg"
  xmlns="http://www.w3.org/2000/svg"
  xmlns:xlink="http://www.w3.org/1999/xlink"
  version="1.1"
  width="29.700220cm" height="21.000720cm" viewBox="0 0 116930 82680">
<title>SVG Picture created as cargadorDeBateriasLitIon-B_SilkS.svg date 2021/02/06 12:39:52 </title>
  <desc>Picture generated by PCBNEW </desc>
<g style="fill:#000000; fill-opacity:1;stroke:#000000; stroke-opacity:1;
stroke-linecap:round; stroke-linejoin:round;"
 transform="translate(0 0) scale(1 1)">
</g>
<g style="fill:#000000; fill-opacity:0.0; 
stroke:#000000; stroke-width:-0.000393701; stroke-opacity:1; 
stroke-linecap:round; stroke-linejoin:round;">
</g>
<g style="fill:#000000; fill-opacity:1.0; 
stroke:#000000; stroke-width:3.93701; stroke-opacity:1; 
stroke-linecap:round; stroke-linejoin:round;">
<path style="fill:#000000; fill-opacity:1.0; 
stroke:#000000; stroke-width:3.93701; stroke-opacity:1; 
stroke-linecap:round; stroke-linejoin:round;fill-rule:evenodd;"
d="M 59052.2,40660.8
58963.6,40662.4
58893.2,40665.8
58837.3,40671.6
58792.5,40680.6
58755.4,40693.4
58722.6,40710.6
58690.4,40732.8
58664.6,40753.3
58602.4,40819.1
58560.2,40895.4
58537.4,40978.5
58533.5,41064.7
58547.9,41150.3
58580.1,41231.4
58629.5,41304.5
58695.5,41365.8
58762.4,41404.9
58789.1,41416.1
58816.3,41424.5
58848.5,41430.7
58890.4,41435.4
58946.7,41439.1
59021.9,41442.5
59049.7,41443.5
59137.1,41447.3
59202.2,41451.6
59247.5,41457.2
59275.8,41464.9
59289.7,41475.2
59291.8,41489
59284.9,41507.1
59284.2,41508.4
59277.7,41517.3
59267,41523.9
59248.2,41528.6
59217.9,41532
59172.4,41534.5
59108.1,41536.4
59048.9,41537.8
58950.1,41540.9
58872,41546.6
58810.4,41556
58760.9,41570.6
58719.3,41591.6
58681.4,41620.5
58642.8,41658.5
58633.9,41668.2
58602.7,41704.3
58578.8,41738.9
58561,41775.7
58548.4,41819
58540.2,41872.6
58535.2,41940.6
58532.5,42027.1
58531.6,42094.1
58531.1,42179.7
58531.4,42244
58533,42290.7
58536,42323.3
58540.8,42345.7
58547.5,42361.5
58550.1,42365.8
58583.5,42396.8
58625.9,42409.1
58669.6,42402.7
58706.8,42377.6
58716.3,42365.4
58724.4,42349.5
58730,42328
58733.5,42296.8
58735,42251.6
58735,42188.2
58734.4,42135.8
58734.1,42038.1
58736.9,41962.1
58743.3,41904.2
58753.7,41861.3
58768.6,41830.1
58779.9,41815.5
58799.5,41794.9
58817.8,41779.5
58838.8,41768.3
58866.3,41760.6
58904.4,41755.5
58956.8,41752.1
59027.5,41749.6
59090.2,41747.9
59331,41741.7
59385.2,41703.6
59443.3,41649.4
59481.3,41585.8
59499.5,41516.8
59498.6,41446.6
59479.1,41379.2
59441.6,41318.8
59386.7,41269.4
59321.8,41237.5
59291.7,41231.8
59240.6,41227.2
59172.7,41224.2
59092,41223
59077.9,41222.9
58999.5,41222.6
58941.7,41221.2
58900.1,41218.3
58870.2,41213.6
58847.6,41206.6
58832.9,41199.6
58783.5,41159.9
58752.6,41105.1
58742.5,41039.8
58753.3,40977.5
58784.7,40928.4
58824.4,40897.4
58838.8,40889.7
58855.6,40883.8
58878.3,40879.5
58910.2,40876.5
58954.6,40874.6
59014.9,40873.5
59094.4,40873.1
59165,40873
59465.7,40872.9
59508.4,40904.4
59538.6,40929.5
59560.6,40952.7
59564,40957.6
59567.3,40975.6
59570.5,41017.4
59573.5,41081.8
59576.3,41167.5
59578.8,41273.4
59581,41398.2
59582.9,41540.6
59583.1,41554.2
59589.3,42129.2
59622.5,42191.7
59680.5,42276.1
59754.9,42343.6
59804.7,42373.7
59867.8,42395.4
59943.5,42405.6
60022.3,42404.1
60094.6,42391
60133.1,42376.4
60209.3,42326.2
60275.8,42257.7
60318.5,42192.4
60351.8,42129.2
60358.1,41554.2
60359.6,41416
60360.9,41300.6
60362.5,41205.8
60364.5,41129.2
60367.3,41068.6
60371.1,41021.8
60376.2,40986.6
60382.9,40960.6
60391.4,40941.8
60402.1,40927.7
60415.3,40916.3
60431.2,40905.2
60440.8,40898.7
60471.3,40881.4
60502.7,40874.3
60546,40875.1
60552.6,40875.6
60598.8,40882.1
60631.1,40895.4
60660.8,40919.9
60662.1,40921.1
60701.8,40960.9
60708.6,41532.5
60710.2,41667.8
60711.8,41780.4
60713.4,41872.8
60715.1,41947.2
60717.1,42006.1
60719.4,42051.8
60722.3,42086.7
60725.8,42113.2
60730,42133.6
60735,42150.2
60740.2,42163.4
60788.1,42247.4
60854.3,42319.3
60921.8,42366.8
60957.4,42385.1
60988.6,42396.3
61023.7,42402
61071.3,42404
61101.8,42404.2
61158.6,42403.3
61198.8,42399.7
61230.9,42391.4
61263.2,42376.8
61281.3,42367.1
61353.7,42316
61414.8,42251.5
61458.5,42180.3
61465.8,42162.9
61471.1,42146.5
61475.5,42126.6
61479.3,42100.7
61482.4,42066.6
61485.1,42021.8
61487.3,41964.1
61489.3,41891
61491.1,41800.4
61492.8,41689.8
61494.5,41556.9
61494.8,41533.6
61496.5,41399.2
61498.1,41287.5
61499.6,41196.3
61501.2,41123.5
61503.1,41066.6
61505.3,41023.6
61507.9,40992.1
61511.1,40969.9
61515,40954.8
61519.8,40944.6
61525.5,40936.9
61526.8,40935.4
61577.8,40895.7
61636.9,40875.9
61698.4,40875.7
61756.6,40894.6
61805.8,40932.5
61822.1,40953.3
61826.4,40964.2
61830,40984.5
61833.2,41016.1
61835.9,41060.9
61838.2,41121
61840.3,41198.2
61842.2,41294.6
61843.9,41412
61845.6,41552.4
61845.6,41554.2
61847.1,41689.1
61848.4,41801.3
61849.8,41893.2
61851.3,41967.2
61853.1,42025.5
61855.3,42070.5
61857.9,42104.6
61861.2,42130
61865.3,42149.2
61870.3,42164.5
61876.3,42178.2
61879.9,42185.5
61932.4,42265.8
62000.7,42331.1
62080.4,42378.3
62167.4,42404.6
62197.6,42408.2
62240.3,42409.8
62267.5,42405.5
62288.6,42392.8
62300.9,42381.2
62328.2,42339.8
62333.2,42296.6
62318.2,42256.3
62285,42223.8
62235.6,42203.8
62225.5,42201.9
62154.3,42181.9
62103,42147.1
62086.3,42126.4
62081.1,42116.6
62076.7,42103.2
62073,42083.8
62069.9,42056.3
62067.4,42018.4
62065.3,41967.8
62063.5,41902.3
62061.9,41819.7
62060.4,41717.7
62058.9,41594.1
62058.1,41523.5
62056.6,41389.1
62055.2,41277.4
62053.7,41185.9
62052.2,41112.4
62050.3,41054.3
62048.1,41009.5
62045.3,40975.4
62041.9,40949.7
62037.8,40930.2
62032.7,40914.3
62026.6,40899.7
62024.8,40895.7
61972.6,40810.2
61904.3,40742.3
61822.6,40694.1
61730.1,40667.3
61695.4,40663.3
61597.8,40668.2
61506.9,40696.1
61426.3,40745
61359.1,40813.3
61328.1,40860.4
61289.3,40929.2
61283.1,41504.2
61281.3,41651.7
61279.3,41775.7
61277.1,41877.6
61274.7,41958.9
61271.9,42021
61268.7,42065.3
61265.2,42093.3
61261.5,42106
61241.9,42131.4
61212.9,42160.5
61205.8,42166.7
61179.5,42186.1
61154.2,42195.4
61120,42196.9
61093.2,42195.3
61028.3,42182.5
60979.1,42152.7
60941.3,42104.2
60937.4,42087.7
60933.8,42052.1
60930.7,41996.4
60927.8,41919.6
60925.3,41820.9
60923.1,41699.4
60921.1,41554
60920.6,41504.2
60919.1,41369.3
60917.7,41257
60916.3,41165.1
60914.8,41091.3
60913,41033.1
60910.9,40988.3
60908.2,40954.6
60904.9,40929.6
60900.9,40911.1
60896,40896.6
60890,40883.9
60886.9,40877.9
60830.9,40796.5
60762.5,40734.4
60685,40691.3
60601.8,40667.3
60516.2,40662.3
60431.5,40676.1
60351.1,40708.7
60278.4,40760
60216.6,40829.9
60178.5,40896.4
60172.2,40910.9
60166.9,40926.2
60162.6,40944.7
60159,40968.8
60156.1,41000.8
60153.8,41043.1
60151.9,41098
60150.3,41168
60148.8,41255.3
60147.4,41362.4
60145.9,41491.6
60145.6,41522.9
60143.8,41665.5
60142,41784.9
60140,41882.9
60137.7,41961.4
60135.2,42022.1
60132.3,42066.8
60128.9,42097.4
60125,42115.6
60122.9,42120.5
60086.3,42161.3
60035.5,42187.4
59977.6,42197.5
59919.3,42190.3
59870.2,42166.4
59840,42141.4
59818,42118.1
59814.7,42113.3
59811.3,42095.3
59808.1,42053.5
59805.1,41989.1
59802.3,41903.5
59799.8,41797.9
59797.5,41673.5
59795.7,41531.5
59795.6,41522.9
59794.1,41389
59792.7,41277.6
59791.4,41186.4
59789.8,41113.1
59788.1,41055.2
59785.9,41010.4
59783.2,40976.2
59779.7,40950.3
59775.5,40930.3
59770.3,40913.8
59764.1,40898.4
59759.5,40888.3
59723,40828.2
59671.1,40769.9
59611.3,40720
59550.7,40685.5
59537.5,40680.5
59514.1,40674
59484.6,40669
59445.5,40665.4
59393.8,40662.9
59326,40661.3
59238.8,40660.6
59162.2,40660.4
Z" /> 
<g >
</g>
</g> 
</svg>
