%TF.GenerationSoftware,KiCad,Pcbnew,(5.1.6)-1*%
%TF.CreationDate,2020-11-18T10:21:31-05:00*%
%TF.ProjectId,cargadorDeBateriasLitIon,63617267-6164-46f7-9244-654261746572,rev?*%
%TF.SameCoordinates,Original*%
%TF.FileFunction,Copper,L2,Bot*%
%TF.FilePolarity,Positive*%
%FSLAX46Y46*%
G04 Gerber Fmt 4.6, Leading zero omitted, Abs format (unit mm)*
G04 Created by KiCad (PCBNEW (5.1.6)-1) date 2020-11-18 10:21:31*
%MOMM*%
%LPD*%
G01*
G04 APERTURE LIST*
%TA.AperFunction,ComponentPad*%
%ADD10R,1.500000X1.500000*%
%TD*%
%TA.AperFunction,ViaPad*%
%ADD11C,0.800000*%
%TD*%
%TA.AperFunction,Conductor*%
%ADD12C,0.400000*%
%TD*%
%TA.AperFunction,Conductor*%
%ADD13C,0.254000*%
%TD*%
G04 APERTURE END LIST*
D10*
%TO.P,J5,1*%
%TO.N,/B-*%
X168000000Y-114000000D03*
%TD*%
%TO.P,J6,1*%
%TO.N,GND*%
X168000000Y-110500000D03*
%TD*%
%TO.P,J4,1*%
%TO.N,/B+*%
X168000000Y-103000000D03*
%TD*%
%TO.P,J3,1*%
%TO.N,/STEP-UP/VOUT*%
X168000000Y-106500000D03*
%TD*%
%TO.P,J2,1*%
%TO.N,GND*%
X142500000Y-103000000D03*
%TD*%
%TO.P,J1,1*%
%TO.N,VDD*%
X142500000Y-113500000D03*
%TD*%
D11*
%TO.N,GND*%
X155500000Y-108500000D03*
X148800000Y-114100000D03*
X146920000Y-105100000D03*
X160000000Y-111500000D03*
%TO.N,/B+*%
X168000000Y-104500000D03*
X167000000Y-104500000D03*
X166000000Y-104500000D03*
X166000000Y-103500000D03*
%TO.N,/B-*%
X150250000Y-108250000D03*
X153255118Y-109750000D03*
%TO.N,Net-(D2-Pad2)*%
X163750000Y-104500000D03*
X162750000Y-104500000D03*
X162750000Y-105500000D03*
X162750000Y-106500000D03*
%TD*%
D12*
%TO.N,/B-*%
X151755118Y-108250000D02*
X153255118Y-109750000D01*
X150250000Y-108250000D02*
X151755118Y-108250000D01*
%TD*%
D13*
%TO.N,GND*%
G36*
X160123000Y-109000000D02*
G01*
X160125440Y-109024776D01*
X160132667Y-109048601D01*
X160144403Y-109070557D01*
X160160197Y-109089803D01*
X160179443Y-109105597D01*
X160201399Y-109117333D01*
X160225224Y-109124560D01*
X160250000Y-109127000D01*
X168340000Y-109127000D01*
X168340001Y-112611928D01*
X167250000Y-112611928D01*
X167125518Y-112624188D01*
X167005820Y-112660498D01*
X166895506Y-112719463D01*
X166798815Y-112798815D01*
X166719463Y-112895506D01*
X166660498Y-113005820D01*
X166624188Y-113125518D01*
X166611928Y-113250000D01*
X166611928Y-114340000D01*
X143879208Y-114340000D01*
X143888072Y-114250000D01*
X143888072Y-112750000D01*
X143875812Y-112625518D01*
X143839502Y-112505820D01*
X143780537Y-112395506D01*
X143701185Y-112298815D01*
X143604494Y-112219463D01*
X143494180Y-112160498D01*
X143374482Y-112124188D01*
X143250000Y-112111928D01*
X142160000Y-112111928D01*
X142160000Y-108148061D01*
X149215000Y-108148061D01*
X149215000Y-108351939D01*
X149254774Y-108551898D01*
X149332795Y-108740256D01*
X149446063Y-108909774D01*
X149590226Y-109053937D01*
X149759744Y-109167205D01*
X149948102Y-109245226D01*
X150148061Y-109285000D01*
X150351939Y-109285000D01*
X150551898Y-109245226D01*
X150740256Y-109167205D01*
X150863285Y-109085000D01*
X151409251Y-109085000D01*
X152231026Y-109906775D01*
X152259892Y-110051898D01*
X152337913Y-110240256D01*
X152451181Y-110409774D01*
X152595344Y-110553937D01*
X152764862Y-110667205D01*
X152953220Y-110745226D01*
X153153179Y-110785000D01*
X153357057Y-110785000D01*
X153557016Y-110745226D01*
X153745374Y-110667205D01*
X153914892Y-110553937D01*
X154059055Y-110409774D01*
X154172323Y-110240256D01*
X154250344Y-110051898D01*
X154290118Y-109851939D01*
X154290118Y-109648061D01*
X154250344Y-109448102D01*
X154172323Y-109259744D01*
X154059055Y-109090226D01*
X153914892Y-108946063D01*
X153745374Y-108832795D01*
X153557016Y-108754774D01*
X153411893Y-108725908D01*
X152374564Y-107688579D01*
X152348409Y-107656709D01*
X152221264Y-107552364D01*
X152076205Y-107474828D01*
X151918807Y-107427082D01*
X151796137Y-107415000D01*
X151796136Y-107415000D01*
X151755118Y-107410960D01*
X151714100Y-107415000D01*
X150863285Y-107415000D01*
X150740256Y-107332795D01*
X150551898Y-107254774D01*
X150351939Y-107215000D01*
X150148061Y-107215000D01*
X149948102Y-107254774D01*
X149759744Y-107332795D01*
X149590226Y-107446063D01*
X149446063Y-107590226D01*
X149332795Y-107759744D01*
X149254774Y-107948102D01*
X149215000Y-108148061D01*
X142160000Y-108148061D01*
X142160000Y-102660000D01*
X160123000Y-102660000D01*
X160123000Y-109000000D01*
G37*
X160123000Y-109000000D02*
X160125440Y-109024776D01*
X160132667Y-109048601D01*
X160144403Y-109070557D01*
X160160197Y-109089803D01*
X160179443Y-109105597D01*
X160201399Y-109117333D01*
X160225224Y-109124560D01*
X160250000Y-109127000D01*
X168340000Y-109127000D01*
X168340001Y-112611928D01*
X167250000Y-112611928D01*
X167125518Y-112624188D01*
X167005820Y-112660498D01*
X166895506Y-112719463D01*
X166798815Y-112798815D01*
X166719463Y-112895506D01*
X166660498Y-113005820D01*
X166624188Y-113125518D01*
X166611928Y-113250000D01*
X166611928Y-114340000D01*
X143879208Y-114340000D01*
X143888072Y-114250000D01*
X143888072Y-112750000D01*
X143875812Y-112625518D01*
X143839502Y-112505820D01*
X143780537Y-112395506D01*
X143701185Y-112298815D01*
X143604494Y-112219463D01*
X143494180Y-112160498D01*
X143374482Y-112124188D01*
X143250000Y-112111928D01*
X142160000Y-112111928D01*
X142160000Y-108148061D01*
X149215000Y-108148061D01*
X149215000Y-108351939D01*
X149254774Y-108551898D01*
X149332795Y-108740256D01*
X149446063Y-108909774D01*
X149590226Y-109053937D01*
X149759744Y-109167205D01*
X149948102Y-109245226D01*
X150148061Y-109285000D01*
X150351939Y-109285000D01*
X150551898Y-109245226D01*
X150740256Y-109167205D01*
X150863285Y-109085000D01*
X151409251Y-109085000D01*
X152231026Y-109906775D01*
X152259892Y-110051898D01*
X152337913Y-110240256D01*
X152451181Y-110409774D01*
X152595344Y-110553937D01*
X152764862Y-110667205D01*
X152953220Y-110745226D01*
X153153179Y-110785000D01*
X153357057Y-110785000D01*
X153557016Y-110745226D01*
X153745374Y-110667205D01*
X153914892Y-110553937D01*
X154059055Y-110409774D01*
X154172323Y-110240256D01*
X154250344Y-110051898D01*
X154290118Y-109851939D01*
X154290118Y-109648061D01*
X154250344Y-109448102D01*
X154172323Y-109259744D01*
X154059055Y-109090226D01*
X153914892Y-108946063D01*
X153745374Y-108832795D01*
X153557016Y-108754774D01*
X153411893Y-108725908D01*
X152374564Y-107688579D01*
X152348409Y-107656709D01*
X152221264Y-107552364D01*
X152076205Y-107474828D01*
X151918807Y-107427082D01*
X151796137Y-107415000D01*
X151796136Y-107415000D01*
X151755118Y-107410960D01*
X151714100Y-107415000D01*
X150863285Y-107415000D01*
X150740256Y-107332795D01*
X150551898Y-107254774D01*
X150351939Y-107215000D01*
X150148061Y-107215000D01*
X149948102Y-107254774D01*
X149759744Y-107332795D01*
X149590226Y-107446063D01*
X149446063Y-107590226D01*
X149332795Y-107759744D01*
X149254774Y-107948102D01*
X149215000Y-108148061D01*
X142160000Y-108148061D01*
X142160000Y-102660000D01*
X160123000Y-102660000D01*
X160123000Y-109000000D01*
%TO.N,Net-(D2-Pad2)*%
G36*
X164623000Y-108123000D02*
G01*
X161127000Y-108123000D01*
X161127000Y-102660000D01*
X164623000Y-102660000D01*
X164623000Y-108123000D01*
G37*
X164623000Y-108123000D02*
X161127000Y-108123000D01*
X161127000Y-102660000D01*
X164623000Y-102660000D01*
X164623000Y-108123000D01*
%TO.N,/B+*%
G36*
X168340000Y-104873000D02*
G01*
X165627000Y-104873000D01*
X165627000Y-102660000D01*
X168340000Y-102660000D01*
X168340000Y-104873000D01*
G37*
X168340000Y-104873000D02*
X165627000Y-104873000D01*
X165627000Y-102660000D01*
X168340000Y-102660000D01*
X168340000Y-104873000D01*
%TO.N,/STEP-UP/VOUT*%
G36*
X168340000Y-108123000D02*
G01*
X165627000Y-108123000D01*
X165627000Y-105877000D01*
X168340000Y-105877000D01*
X168340000Y-108123000D01*
G37*
X168340000Y-108123000D02*
X165627000Y-108123000D01*
X165627000Y-105877000D01*
X168340000Y-105877000D01*
X168340000Y-108123000D01*
%TD*%
M02*
