%TF.GenerationSoftware,KiCad,Pcbnew,(5.1.6)-1*%
%TF.CreationDate,2020-11-18T10:21:31-05:00*%
%TF.ProjectId,cargadorDeBateriasLitIon,63617267-6164-46f7-9244-654261746572,rev?*%
%TF.SameCoordinates,Original*%
%TF.FileFunction,Copper,L1,Top*%
%TF.FilePolarity,Positive*%
%FSLAX46Y46*%
G04 Gerber Fmt 4.6, Leading zero omitted, Abs format (unit mm)*
G04 Created by KiCad (PCBNEW (5.1.6)-1) date 2020-11-18 10:21:31*
%MOMM*%
%LPD*%
G01*
G04 APERTURE LIST*
%TA.AperFunction,SMDPad,CuDef*%
%ADD10R,0.550000X1.000000*%
%TD*%
%TA.AperFunction,SMDPad,CuDef*%
%ADD11R,1.060000X0.650000*%
%TD*%
%TA.AperFunction,SMDPad,CuDef*%
%ADD12R,1.800000X4.500000*%
%TD*%
%TA.AperFunction,SMDPad,CuDef*%
%ADD13R,1.100000X1.100000*%
%TD*%
%TA.AperFunction,ComponentPad*%
%ADD14R,1.500000X1.500000*%
%TD*%
%TA.AperFunction,SMDPad,CuDef*%
%ADD15R,1.000000X0.700000*%
%TD*%
%TA.AperFunction,SMDPad,CuDef*%
%ADD16R,0.650000X1.060000*%
%TD*%
%TA.AperFunction,ViaPad*%
%ADD17C,0.800000*%
%TD*%
%TA.AperFunction,Conductor*%
%ADD18C,0.250000*%
%TD*%
%TA.AperFunction,Conductor*%
%ADD19C,0.500000*%
%TD*%
%TA.AperFunction,Conductor*%
%ADD20C,0.600000*%
%TD*%
%TA.AperFunction,Conductor*%
%ADD21C,0.300000*%
%TD*%
%TA.AperFunction,Conductor*%
%ADD22C,0.800000*%
%TD*%
%TA.AperFunction,Conductor*%
%ADD23C,0.400000*%
%TD*%
%TA.AperFunction,Conductor*%
%ADD24C,0.254000*%
%TD*%
G04 APERTURE END LIST*
%TO.P,C5,2*%
%TO.N,GND*%
%TA.AperFunction,SMDPad,CuDef*%
G36*
G01*
X164493750Y-111850000D02*
X165006250Y-111850000D01*
G75*
G02*
X165225000Y-112068750I0J-218750D01*
G01*
X165225000Y-112506250D01*
G75*
G02*
X165006250Y-112725000I-218750J0D01*
G01*
X164493750Y-112725000D01*
G75*
G02*
X164275000Y-112506250I0J218750D01*
G01*
X164275000Y-112068750D01*
G75*
G02*
X164493750Y-111850000I218750J0D01*
G01*
G37*
%TD.AperFunction*%
%TO.P,C5,1*%
%TO.N,/STEP-UP/VOUT*%
%TA.AperFunction,SMDPad,CuDef*%
G36*
G01*
X164493750Y-110275000D02*
X165006250Y-110275000D01*
G75*
G02*
X165225000Y-110493750I0J-218750D01*
G01*
X165225000Y-110931250D01*
G75*
G02*
X165006250Y-111150000I-218750J0D01*
G01*
X164493750Y-111150000D01*
G75*
G02*
X164275000Y-110931250I0J218750D01*
G01*
X164275000Y-110493750D01*
G75*
G02*
X164493750Y-110275000I218750J0D01*
G01*
G37*
%TD.AperFunction*%
%TD*%
D10*
%TO.P,U2,1*%
%TO.N,Net-(Q1-Pad1)*%
X150300000Y-109450000D03*
%TO.P,U2,2*%
%TO.N,Net-(R3-Pad1)*%
X151250000Y-109450000D03*
%TO.P,U2,3*%
%TO.N,Net-(Q1-Pad3)*%
X152200000Y-109450000D03*
%TO.P,U2,4*%
%TO.N,Net-(U2-Pad4)*%
X152200000Y-107050000D03*
%TO.P,U2,5*%
%TO.N,Net-(C3-Pad1)*%
X151250000Y-107050000D03*
%TO.P,U2,6*%
%TO.N,/B-*%
X150300000Y-107050000D03*
%TD*%
D11*
%TO.P,U3,5*%
%TO.N,/B+*%
X156650000Y-112450000D03*
%TO.P,U3,4*%
X156650000Y-110550000D03*
%TO.P,U3,3*%
%TO.N,Net-(R5-Pad2)*%
X158850000Y-110550000D03*
%TO.P,U3,2*%
%TO.N,GND*%
X158850000Y-111500000D03*
%TO.P,U3,1*%
%TO.N,Net-(D2-Pad2)*%
X158850000Y-112450000D03*
%TD*%
%TO.P,R6,2*%
%TO.N,GND*%
%TA.AperFunction,SMDPad,CuDef*%
G36*
G01*
X162350000Y-112506250D02*
X162350000Y-111993750D01*
G75*
G02*
X162568750Y-111775000I218750J0D01*
G01*
X163006250Y-111775000D01*
G75*
G02*
X163225000Y-111993750I0J-218750D01*
G01*
X163225000Y-112506250D01*
G75*
G02*
X163006250Y-112725000I-218750J0D01*
G01*
X162568750Y-112725000D01*
G75*
G02*
X162350000Y-112506250I0J218750D01*
G01*
G37*
%TD.AperFunction*%
%TO.P,R6,1*%
%TO.N,Net-(R5-Pad2)*%
%TA.AperFunction,SMDPad,CuDef*%
G36*
G01*
X160775000Y-112506250D02*
X160775000Y-111993750D01*
G75*
G02*
X160993750Y-111775000I218750J0D01*
G01*
X161431250Y-111775000D01*
G75*
G02*
X161650000Y-111993750I0J-218750D01*
G01*
X161650000Y-112506250D01*
G75*
G02*
X161431250Y-112725000I-218750J0D01*
G01*
X160993750Y-112725000D01*
G75*
G02*
X160775000Y-112506250I0J218750D01*
G01*
G37*
%TD.AperFunction*%
%TD*%
%TO.P,R5,2*%
%TO.N,Net-(R5-Pad2)*%
%TA.AperFunction,SMDPad,CuDef*%
G36*
G01*
X161650000Y-110243750D02*
X161650000Y-110756250D01*
G75*
G02*
X161431250Y-110975000I-218750J0D01*
G01*
X160993750Y-110975000D01*
G75*
G02*
X160775000Y-110756250I0J218750D01*
G01*
X160775000Y-110243750D01*
G75*
G02*
X160993750Y-110025000I218750J0D01*
G01*
X161431250Y-110025000D01*
G75*
G02*
X161650000Y-110243750I0J-218750D01*
G01*
G37*
%TD.AperFunction*%
%TO.P,R5,1*%
%TO.N,/STEP-UP/VOUT*%
%TA.AperFunction,SMDPad,CuDef*%
G36*
G01*
X163225000Y-110243750D02*
X163225000Y-110756250D01*
G75*
G02*
X163006250Y-110975000I-218750J0D01*
G01*
X162568750Y-110975000D01*
G75*
G02*
X162350000Y-110756250I0J218750D01*
G01*
X162350000Y-110243750D01*
G75*
G02*
X162568750Y-110025000I218750J0D01*
G01*
X163006250Y-110025000D01*
G75*
G02*
X163225000Y-110243750I0J-218750D01*
G01*
G37*
%TD.AperFunction*%
%TD*%
D12*
%TO.P,L1,2*%
%TO.N,Net-(D2-Pad2)*%
X161150000Y-106000000D03*
%TO.P,L1,1*%
%TO.N,/B+*%
X157850000Y-106000000D03*
%TD*%
D13*
%TO.P,D2,2*%
%TO.N,Net-(D2-Pad2)*%
X164000000Y-105850000D03*
%TO.P,D2,1*%
%TO.N,/STEP-UP/VOUT*%
X164000000Y-108650000D03*
%TD*%
%TO.P,C4,2*%
%TO.N,GND*%
%TA.AperFunction,SMDPad,CuDef*%
G36*
G01*
X155181250Y-110450000D02*
X154268750Y-110450000D01*
G75*
G02*
X154025000Y-110206250I0J243750D01*
G01*
X154025000Y-109718750D01*
G75*
G02*
X154268750Y-109475000I243750J0D01*
G01*
X155181250Y-109475000D01*
G75*
G02*
X155425000Y-109718750I0J-243750D01*
G01*
X155425000Y-110206250D01*
G75*
G02*
X155181250Y-110450000I-243750J0D01*
G01*
G37*
%TD.AperFunction*%
%TO.P,C4,1*%
%TO.N,/B+*%
%TA.AperFunction,SMDPad,CuDef*%
G36*
G01*
X155181250Y-112325000D02*
X154268750Y-112325000D01*
G75*
G02*
X154025000Y-112081250I0J243750D01*
G01*
X154025000Y-111593750D01*
G75*
G02*
X154268750Y-111350000I243750J0D01*
G01*
X155181250Y-111350000D01*
G75*
G02*
X155425000Y-111593750I0J-243750D01*
G01*
X155425000Y-112081250D01*
G75*
G02*
X155181250Y-112325000I-243750J0D01*
G01*
G37*
%TD.AperFunction*%
%TD*%
D14*
%TO.P,J5,1*%
%TO.N,/B-*%
X168000000Y-114000000D03*
%TD*%
D15*
%TO.P,Q1,5*%
%TO.N,/B-*%
X152520000Y-112090000D03*
%TO.P,Q1,6*%
%TO.N,Net-(Q1-Pad4)*%
X152520000Y-111140000D03*
%TO.P,Q1,4*%
X152520000Y-113040000D03*
%TO.P,Q1,3*%
%TO.N,Net-(Q1-Pad3)*%
X149920000Y-113040000D03*
%TO.P,Q1,2*%
%TO.N,GND*%
X149920000Y-112090000D03*
%TO.P,Q1,1*%
%TO.N,Net-(Q1-Pad1)*%
X149920000Y-111140000D03*
%TD*%
D14*
%TO.P,J6,1*%
%TO.N,GND*%
X168000000Y-110500000D03*
%TD*%
%TO.P,J4,1*%
%TO.N,/B+*%
X168000000Y-103000000D03*
%TD*%
%TO.P,J3,1*%
%TO.N,/STEP-UP/VOUT*%
X168000000Y-106500000D03*
%TD*%
%TO.P,J2,1*%
%TO.N,GND*%
X142500000Y-103000000D03*
%TD*%
%TO.P,J1,1*%
%TO.N,VDD*%
X142500000Y-113500000D03*
%TD*%
D16*
%TO.P,U1,5*%
%TO.N,Net-(R2-Pad2)*%
X145950000Y-109000000D03*
%TO.P,U1,4*%
%TO.N,VDD*%
X144050000Y-109000000D03*
%TO.P,U1,3*%
%TO.N,/B+*%
X144050000Y-106800000D03*
%TO.P,U1,2*%
%TO.N,GND*%
X145000000Y-106800000D03*
%TO.P,U1,1*%
%TO.N,Net-(R1-Pad1)*%
X145950000Y-106800000D03*
%TD*%
%TO.P,R4,2*%
%TO.N,/B+*%
%TA.AperFunction,SMDPad,CuDef*%
G36*
G01*
X153800000Y-105436250D02*
X153800000Y-104923750D01*
G75*
G02*
X154018750Y-104705000I218750J0D01*
G01*
X154456250Y-104705000D01*
G75*
G02*
X154675000Y-104923750I0J-218750D01*
G01*
X154675000Y-105436250D01*
G75*
G02*
X154456250Y-105655000I-218750J0D01*
G01*
X154018750Y-105655000D01*
G75*
G02*
X153800000Y-105436250I0J218750D01*
G01*
G37*
%TD.AperFunction*%
%TO.P,R4,1*%
%TO.N,Net-(C3-Pad1)*%
%TA.AperFunction,SMDPad,CuDef*%
G36*
G01*
X152225000Y-105436250D02*
X152225000Y-104923750D01*
G75*
G02*
X152443750Y-104705000I218750J0D01*
G01*
X152881250Y-104705000D01*
G75*
G02*
X153100000Y-104923750I0J-218750D01*
G01*
X153100000Y-105436250D01*
G75*
G02*
X152881250Y-105655000I-218750J0D01*
G01*
X152443750Y-105655000D01*
G75*
G02*
X152225000Y-105436250I0J218750D01*
G01*
G37*
%TD.AperFunction*%
%TD*%
%TO.P,R3,2*%
%TO.N,GND*%
%TA.AperFunction,SMDPad,CuDef*%
G36*
G01*
X153943750Y-107950000D02*
X154456250Y-107950000D01*
G75*
G02*
X154675000Y-108168750I0J-218750D01*
G01*
X154675000Y-108606250D01*
G75*
G02*
X154456250Y-108825000I-218750J0D01*
G01*
X153943750Y-108825000D01*
G75*
G02*
X153725000Y-108606250I0J218750D01*
G01*
X153725000Y-108168750D01*
G75*
G02*
X153943750Y-107950000I218750J0D01*
G01*
G37*
%TD.AperFunction*%
%TO.P,R3,1*%
%TO.N,Net-(R3-Pad1)*%
%TA.AperFunction,SMDPad,CuDef*%
G36*
G01*
X153943750Y-106375000D02*
X154456250Y-106375000D01*
G75*
G02*
X154675000Y-106593750I0J-218750D01*
G01*
X154675000Y-107031250D01*
G75*
G02*
X154456250Y-107250000I-218750J0D01*
G01*
X153943750Y-107250000D01*
G75*
G02*
X153725000Y-107031250I0J218750D01*
G01*
X153725000Y-106593750D01*
G75*
G02*
X153943750Y-106375000I218750J0D01*
G01*
G37*
%TD.AperFunction*%
%TD*%
%TO.P,R2,2*%
%TO.N,Net-(R2-Pad2)*%
%TA.AperFunction,SMDPad,CuDef*%
G36*
G01*
X147443750Y-108450000D02*
X147956250Y-108450000D01*
G75*
G02*
X148175000Y-108668750I0J-218750D01*
G01*
X148175000Y-109106250D01*
G75*
G02*
X147956250Y-109325000I-218750J0D01*
G01*
X147443750Y-109325000D01*
G75*
G02*
X147225000Y-109106250I0J218750D01*
G01*
X147225000Y-108668750D01*
G75*
G02*
X147443750Y-108450000I218750J0D01*
G01*
G37*
%TD.AperFunction*%
%TO.P,R2,1*%
%TO.N,GND*%
%TA.AperFunction,SMDPad,CuDef*%
G36*
G01*
X147443750Y-106875000D02*
X147956250Y-106875000D01*
G75*
G02*
X148175000Y-107093750I0J-218750D01*
G01*
X148175000Y-107531250D01*
G75*
G02*
X147956250Y-107750000I-218750J0D01*
G01*
X147443750Y-107750000D01*
G75*
G02*
X147225000Y-107531250I0J218750D01*
G01*
X147225000Y-107093750D01*
G75*
G02*
X147443750Y-106875000I218750J0D01*
G01*
G37*
%TD.AperFunction*%
%TD*%
%TO.P,R1,2*%
%TO.N,Net-(D1-Pad1)*%
%TA.AperFunction,SMDPad,CuDef*%
G36*
G01*
X147443750Y-111850000D02*
X147956250Y-111850000D01*
G75*
G02*
X148175000Y-112068750I0J-218750D01*
G01*
X148175000Y-112506250D01*
G75*
G02*
X147956250Y-112725000I-218750J0D01*
G01*
X147443750Y-112725000D01*
G75*
G02*
X147225000Y-112506250I0J218750D01*
G01*
X147225000Y-112068750D01*
G75*
G02*
X147443750Y-111850000I218750J0D01*
G01*
G37*
%TD.AperFunction*%
%TO.P,R1,1*%
%TO.N,Net-(R1-Pad1)*%
%TA.AperFunction,SMDPad,CuDef*%
G36*
G01*
X147443750Y-110275000D02*
X147956250Y-110275000D01*
G75*
G02*
X148175000Y-110493750I0J-218750D01*
G01*
X148175000Y-110931250D01*
G75*
G02*
X147956250Y-111150000I-218750J0D01*
G01*
X147443750Y-111150000D01*
G75*
G02*
X147225000Y-110931250I0J218750D01*
G01*
X147225000Y-110493750D01*
G75*
G02*
X147443750Y-110275000I218750J0D01*
G01*
G37*
%TD.AperFunction*%
%TD*%
%TO.P,D1,2*%
%TO.N,VDD*%
%TA.AperFunction,SMDPad,CuDef*%
G36*
G01*
X144950000Y-110443750D02*
X144950000Y-110956250D01*
G75*
G02*
X144731250Y-111175000I-218750J0D01*
G01*
X144293750Y-111175000D01*
G75*
G02*
X144075000Y-110956250I0J218750D01*
G01*
X144075000Y-110443750D01*
G75*
G02*
X144293750Y-110225000I218750J0D01*
G01*
X144731250Y-110225000D01*
G75*
G02*
X144950000Y-110443750I0J-218750D01*
G01*
G37*
%TD.AperFunction*%
%TO.P,D1,1*%
%TO.N,Net-(D1-Pad1)*%
%TA.AperFunction,SMDPad,CuDef*%
G36*
G01*
X146525000Y-110443750D02*
X146525000Y-110956250D01*
G75*
G02*
X146306250Y-111175000I-218750J0D01*
G01*
X145868750Y-111175000D01*
G75*
G02*
X145650000Y-110956250I0J218750D01*
G01*
X145650000Y-110443750D01*
G75*
G02*
X145868750Y-110225000I218750J0D01*
G01*
X146306250Y-110225000D01*
G75*
G02*
X146525000Y-110443750I0J-218750D01*
G01*
G37*
%TD.AperFunction*%
%TD*%
%TO.P,C3,2*%
%TO.N,/B-*%
%TA.AperFunction,SMDPad,CuDef*%
G36*
G01*
X150010000Y-104923750D02*
X150010000Y-105436250D01*
G75*
G02*
X149791250Y-105655000I-218750J0D01*
G01*
X149353750Y-105655000D01*
G75*
G02*
X149135000Y-105436250I0J218750D01*
G01*
X149135000Y-104923750D01*
G75*
G02*
X149353750Y-104705000I218750J0D01*
G01*
X149791250Y-104705000D01*
G75*
G02*
X150010000Y-104923750I0J-218750D01*
G01*
G37*
%TD.AperFunction*%
%TO.P,C3,1*%
%TO.N,Net-(C3-Pad1)*%
%TA.AperFunction,SMDPad,CuDef*%
G36*
G01*
X151585000Y-104923750D02*
X151585000Y-105436250D01*
G75*
G02*
X151366250Y-105655000I-218750J0D01*
G01*
X150928750Y-105655000D01*
G75*
G02*
X150710000Y-105436250I0J218750D01*
G01*
X150710000Y-104923750D01*
G75*
G02*
X150928750Y-104705000I218750J0D01*
G01*
X151366250Y-104705000D01*
G75*
G02*
X151585000Y-104923750I0J-218750D01*
G01*
G37*
%TD.AperFunction*%
%TD*%
%TO.P,C2,2*%
%TO.N,GND*%
%TA.AperFunction,SMDPad,CuDef*%
G36*
G01*
X144950000Y-105356250D02*
X144950000Y-104843750D01*
G75*
G02*
X145168750Y-104625000I218750J0D01*
G01*
X145606250Y-104625000D01*
G75*
G02*
X145825000Y-104843750I0J-218750D01*
G01*
X145825000Y-105356250D01*
G75*
G02*
X145606250Y-105575000I-218750J0D01*
G01*
X145168750Y-105575000D01*
G75*
G02*
X144950000Y-105356250I0J218750D01*
G01*
G37*
%TD.AperFunction*%
%TO.P,C2,1*%
%TO.N,/B+*%
%TA.AperFunction,SMDPad,CuDef*%
G36*
G01*
X143375000Y-105356250D02*
X143375000Y-104843750D01*
G75*
G02*
X143593750Y-104625000I218750J0D01*
G01*
X144031250Y-104625000D01*
G75*
G02*
X144250000Y-104843750I0J-218750D01*
G01*
X144250000Y-105356250D01*
G75*
G02*
X144031250Y-105575000I-218750J0D01*
G01*
X143593750Y-105575000D01*
G75*
G02*
X143375000Y-105356250I0J218750D01*
G01*
G37*
%TD.AperFunction*%
%TD*%
%TO.P,C1,2*%
%TO.N,GND*%
%TA.AperFunction,SMDPad,CuDef*%
G36*
G01*
X145650000Y-112556250D02*
X145650000Y-112043750D01*
G75*
G02*
X145868750Y-111825000I218750J0D01*
G01*
X146306250Y-111825000D01*
G75*
G02*
X146525000Y-112043750I0J-218750D01*
G01*
X146525000Y-112556250D01*
G75*
G02*
X146306250Y-112775000I-218750J0D01*
G01*
X145868750Y-112775000D01*
G75*
G02*
X145650000Y-112556250I0J218750D01*
G01*
G37*
%TD.AperFunction*%
%TO.P,C1,1*%
%TO.N,VDD*%
%TA.AperFunction,SMDPad,CuDef*%
G36*
G01*
X144075000Y-112556250D02*
X144075000Y-112043750D01*
G75*
G02*
X144293750Y-111825000I218750J0D01*
G01*
X144731250Y-111825000D01*
G75*
G02*
X144950000Y-112043750I0J-218750D01*
G01*
X144950000Y-112556250D01*
G75*
G02*
X144731250Y-112775000I-218750J0D01*
G01*
X144293750Y-112775000D01*
G75*
G02*
X144075000Y-112556250I0J218750D01*
G01*
G37*
%TD.AperFunction*%
%TD*%
D17*
%TO.N,GND*%
X155500000Y-108500000D03*
X148800000Y-114100000D03*
X146920000Y-105100000D03*
X160000000Y-111500000D03*
%TO.N,/B+*%
X168000000Y-104500000D03*
X167000000Y-104500000D03*
X166000000Y-104500000D03*
X166000000Y-103500000D03*
%TO.N,/B-*%
X150250000Y-108250000D03*
X153255118Y-109750000D03*
%TO.N,Net-(D2-Pad2)*%
X163750000Y-104500000D03*
X162750000Y-104500000D03*
X162750000Y-105500000D03*
X162750000Y-106500000D03*
%TD*%
D18*
%TO.N,GND*%
X149920000Y-112090000D02*
X149170000Y-112090000D01*
X148800000Y-112460000D02*
X148800000Y-114100000D01*
X149170000Y-112090000D02*
X148800000Y-112460000D01*
X146087500Y-112300000D02*
X146087500Y-112937500D01*
X147250000Y-114100000D02*
X148800000Y-114100000D01*
X146087500Y-112937500D02*
X147250000Y-114100000D01*
X145387500Y-105100000D02*
X146920000Y-105100000D01*
D19*
X145000000Y-105487500D02*
X145387500Y-105100000D01*
X145000000Y-106800000D02*
X145000000Y-105487500D01*
X162975000Y-112437500D02*
X162787500Y-112250000D01*
X164750000Y-112437500D02*
X162975000Y-112437500D01*
X154725000Y-109275000D02*
X155500000Y-108500000D01*
X154725000Y-109962500D02*
X154725000Y-109275000D01*
X155387500Y-108387500D02*
X155500000Y-108500000D01*
X154200000Y-108387500D02*
X155387500Y-108387500D01*
X158850000Y-111500000D02*
X159000000Y-111500000D01*
D20*
X168000000Y-111500000D02*
X168000000Y-110500000D01*
X164750000Y-112437500D02*
X167062500Y-112437500D01*
X167062500Y-112437500D02*
X168000000Y-111500000D01*
X158850000Y-111500000D02*
X160000000Y-111500000D01*
D21*
X159000000Y-111500000D02*
X159500000Y-111500000D01*
X161857511Y-113179989D02*
X162787500Y-112250000D01*
X160179989Y-113179989D02*
X161857511Y-113179989D01*
X160000000Y-113000000D02*
X160179989Y-113179989D01*
X160000000Y-112000000D02*
X160000000Y-113000000D01*
X159500000Y-111500000D02*
X160000000Y-112000000D01*
D19*
X147132500Y-107880000D02*
X147700000Y-107312500D01*
X145364998Y-107880000D02*
X147132500Y-107880000D01*
X145000000Y-106800000D02*
X145000000Y-107515002D01*
X145000000Y-107515002D02*
X145364998Y-107880000D01*
%TO.N,/B+*%
X156650000Y-110550000D02*
X156650000Y-112450000D01*
X156650000Y-109600000D02*
X156650000Y-110550000D01*
X157850000Y-106000000D02*
X157850000Y-108400000D01*
X157850000Y-108400000D02*
X156650000Y-109600000D01*
X156037500Y-111837500D02*
X156650000Y-112450000D01*
X154725000Y-111837500D02*
X156037500Y-111837500D01*
D22*
X157030000Y-105180000D02*
X154237500Y-105180000D01*
X157850000Y-106000000D02*
X157030000Y-105180000D01*
X167730000Y-102730000D02*
X168000000Y-103000000D01*
X157850000Y-106000000D02*
X157850000Y-103840000D01*
X143812500Y-104947500D02*
X143812500Y-105100000D01*
X153290000Y-104000000D02*
X144760000Y-104000000D01*
X154237500Y-105180000D02*
X154237500Y-104947500D01*
X144760000Y-104000000D02*
X143812500Y-104947500D01*
X154237500Y-104947500D02*
X153290000Y-104000000D01*
D20*
X143812500Y-106562500D02*
X144050000Y-106800000D01*
X143812500Y-105100000D02*
X143812500Y-106562500D01*
D19*
%TO.N,/B-*%
X152520000Y-112090000D02*
X153440000Y-112090000D01*
X153440000Y-112090000D02*
X153520001Y-112170001D01*
X153520001Y-113630001D02*
X153520001Y-112170001D01*
X154230000Y-114340000D02*
X153520001Y-113630001D01*
X168000000Y-114000000D02*
X167660000Y-114340000D01*
X167660000Y-114340000D02*
X154230000Y-114340000D01*
D23*
X150300000Y-105907500D02*
X149572500Y-105180000D01*
X150300000Y-107050000D02*
X150300000Y-105907500D01*
X150300000Y-107050000D02*
X150300000Y-108200000D01*
X150300000Y-108200000D02*
X150250000Y-108250000D01*
X153440000Y-109934882D02*
X153255118Y-109750000D01*
X153440000Y-112090000D02*
X153440000Y-109934882D01*
D18*
%TO.N,Net-(C3-Pad1)*%
X151147500Y-105180000D02*
X152892500Y-105180000D01*
D20*
X151147500Y-105180000D02*
X152662500Y-105180000D01*
D23*
X151250000Y-105282500D02*
X151147500Y-105180000D01*
X151250000Y-107050000D02*
X151250000Y-105282500D01*
D18*
%TO.N,Net-(D1-Pad1)*%
X146112500Y-110700000D02*
X147700000Y-112287500D01*
X146087500Y-110700000D02*
X146112500Y-110700000D01*
D23*
%TO.N,Net-(Q1-Pad3)*%
X152200000Y-109995002D02*
X151000000Y-111195002D01*
X152200000Y-109450000D02*
X152200000Y-109995002D01*
X151000000Y-111195002D02*
X151000000Y-112750000D01*
X150710000Y-113040000D02*
X149920000Y-113040000D01*
X151000000Y-112750000D02*
X150710000Y-113040000D01*
%TO.N,Net-(Q1-Pad1)*%
X149920000Y-109830000D02*
X150300000Y-109450000D01*
X149920000Y-111140000D02*
X149920000Y-109830000D01*
D19*
%TO.N,Net-(R1-Pad1)*%
X145950000Y-106400000D02*
X145950000Y-106800000D01*
X146160000Y-106190000D02*
X145950000Y-106400000D01*
X148137500Y-110712500D02*
X148940000Y-109910000D01*
X147700000Y-110712500D02*
X148137500Y-110712500D01*
X148510000Y-106190000D02*
X146160000Y-106190000D01*
X148940000Y-109910000D02*
X148940000Y-106620000D01*
X148940000Y-106620000D02*
X148510000Y-106190000D01*
D20*
%TO.N,Net-(R2-Pad2)*%
X147587500Y-109000000D02*
X147700000Y-108887500D01*
X145950000Y-109000000D02*
X147587500Y-109000000D01*
D18*
%TO.N,VDD*%
X144512500Y-112687500D02*
X144512500Y-110700000D01*
D22*
X144512500Y-112300000D02*
X144512500Y-110700000D01*
X144050000Y-110237500D02*
X144512500Y-110700000D01*
X144050000Y-109000000D02*
X144050000Y-110237500D01*
D20*
X143312500Y-113500000D02*
X144512500Y-112300000D01*
X142500000Y-113500000D02*
X143312500Y-113500000D01*
D18*
%TO.N,Net-(Q1-Pad4)*%
X152000000Y-111140000D02*
X152520000Y-111140000D01*
X151600000Y-111540000D02*
X152000000Y-111140000D01*
X151600000Y-112700000D02*
X151600000Y-111540000D01*
X152520000Y-113040000D02*
X151940000Y-113040000D01*
X151940000Y-113040000D02*
X151600000Y-112700000D01*
D23*
%TO.N,Net-(R3-Pad1)*%
X151250000Y-109450000D02*
X151250000Y-108500000D01*
X151250000Y-108500000D02*
X151500000Y-108250000D01*
X153932502Y-106812500D02*
X154200000Y-106812500D01*
X152495002Y-108250000D02*
X153932502Y-106812500D01*
X151500000Y-108250000D02*
X152495002Y-108250000D01*
D19*
%TO.N,/STEP-UP/VOUT*%
X162787500Y-110500000D02*
X163250000Y-110500000D01*
X164000000Y-109750000D02*
X164000000Y-108650000D01*
X163250000Y-110500000D02*
X164000000Y-109750000D01*
X162850000Y-110562500D02*
X162787500Y-110500000D01*
X164750000Y-110562500D02*
X162850000Y-110562500D01*
D22*
X167000000Y-106500000D02*
X168000000Y-106500000D01*
X164000000Y-108650000D02*
X164850000Y-108650000D01*
X164850000Y-108650000D02*
X167000000Y-106500000D01*
D19*
%TO.N,Net-(D2-Pad2)*%
X161250000Y-106100000D02*
X161150000Y-106000000D01*
X161150000Y-106660002D02*
X161150000Y-106000000D01*
X161150000Y-108990000D02*
X161150000Y-106000000D01*
X158850000Y-112450000D02*
X158134998Y-112450000D01*
X157750000Y-112065002D02*
X157750000Y-110100000D01*
X158134998Y-112450000D02*
X157750000Y-112065002D01*
X158230000Y-109620000D02*
X160520000Y-109620000D01*
X160520000Y-109620000D02*
X161150000Y-108990000D01*
X157750000Y-110100000D02*
X158230000Y-109620000D01*
%TO.N,Net-(R5-Pad2)*%
X161162500Y-110550000D02*
X161212500Y-110500000D01*
X158850000Y-110550000D02*
X161162500Y-110550000D01*
X161212500Y-112250000D02*
X161212500Y-110500000D01*
%TD*%
D24*
%TO.N,GND*%
G36*
X145701592Y-111796608D02*
G01*
X145868750Y-111813072D01*
X146150771Y-111813072D01*
X146586928Y-112249230D01*
X146586928Y-112506250D01*
X146603392Y-112673408D01*
X146652150Y-112834142D01*
X146731329Y-112982275D01*
X146837885Y-113112115D01*
X146967725Y-113218671D01*
X147115858Y-113297850D01*
X147276592Y-113346608D01*
X147443750Y-113363072D01*
X147956250Y-113363072D01*
X148123408Y-113346608D01*
X148284142Y-113297850D01*
X148432275Y-113218671D01*
X148562115Y-113112115D01*
X148668671Y-112982275D01*
X148747850Y-112834142D01*
X148781928Y-112721802D01*
X148781928Y-113390000D01*
X148794188Y-113514482D01*
X148830498Y-113634180D01*
X148889463Y-113744494D01*
X148968815Y-113841185D01*
X149065506Y-113920537D01*
X149175820Y-113979502D01*
X149295518Y-114015812D01*
X149420000Y-114028072D01*
X150420000Y-114028072D01*
X150544482Y-114015812D01*
X150664180Y-113979502D01*
X150774494Y-113920537D01*
X150840750Y-113866162D01*
X150873689Y-113862918D01*
X151031087Y-113815172D01*
X151176146Y-113737636D01*
X151303291Y-113633291D01*
X151329445Y-113601422D01*
X151377852Y-113553015D01*
X151399999Y-113580001D01*
X151418725Y-113595369D01*
X151430498Y-113634180D01*
X151489463Y-113744494D01*
X151568815Y-113841185D01*
X151665506Y-113920537D01*
X151775820Y-113979502D01*
X151895518Y-114015812D01*
X152020000Y-114028072D01*
X152729284Y-114028072D01*
X152780590Y-114124059D01*
X152891184Y-114258818D01*
X152924957Y-114286535D01*
X152978422Y-114340000D01*
X145627000Y-114340000D01*
X145627000Y-111773981D01*
X145701592Y-111796608D01*
G37*
X145701592Y-111796608D02*
X145868750Y-111813072D01*
X146150771Y-111813072D01*
X146586928Y-112249230D01*
X146586928Y-112506250D01*
X146603392Y-112673408D01*
X146652150Y-112834142D01*
X146731329Y-112982275D01*
X146837885Y-113112115D01*
X146967725Y-113218671D01*
X147115858Y-113297850D01*
X147276592Y-113346608D01*
X147443750Y-113363072D01*
X147956250Y-113363072D01*
X148123408Y-113346608D01*
X148284142Y-113297850D01*
X148432275Y-113218671D01*
X148562115Y-113112115D01*
X148668671Y-112982275D01*
X148747850Y-112834142D01*
X148781928Y-112721802D01*
X148781928Y-113390000D01*
X148794188Y-113514482D01*
X148830498Y-113634180D01*
X148889463Y-113744494D01*
X148968815Y-113841185D01*
X149065506Y-113920537D01*
X149175820Y-113979502D01*
X149295518Y-114015812D01*
X149420000Y-114028072D01*
X150420000Y-114028072D01*
X150544482Y-114015812D01*
X150664180Y-113979502D01*
X150774494Y-113920537D01*
X150840750Y-113866162D01*
X150873689Y-113862918D01*
X151031087Y-113815172D01*
X151176146Y-113737636D01*
X151303291Y-113633291D01*
X151329445Y-113601422D01*
X151377852Y-113553015D01*
X151399999Y-113580001D01*
X151418725Y-113595369D01*
X151430498Y-113634180D01*
X151489463Y-113744494D01*
X151568815Y-113841185D01*
X151665506Y-113920537D01*
X151775820Y-113979502D01*
X151895518Y-114015812D01*
X152020000Y-114028072D01*
X152729284Y-114028072D01*
X152780590Y-114124059D01*
X152891184Y-114258818D01*
X152924957Y-114286535D01*
X152978422Y-114340000D01*
X145627000Y-114340000D01*
X145627000Y-111773981D01*
X145701592Y-111796608D01*
G36*
X168340001Y-112611928D02*
G01*
X167250000Y-112611928D01*
X167125518Y-112624188D01*
X167005820Y-112660498D01*
X166895506Y-112719463D01*
X166798815Y-112798815D01*
X166719463Y-112895506D01*
X166660498Y-113005820D01*
X166624188Y-113125518D01*
X166611928Y-113250000D01*
X166611928Y-113455000D01*
X154596579Y-113455000D01*
X154405001Y-113263423D01*
X154405001Y-112963072D01*
X155181250Y-112963072D01*
X155353285Y-112946128D01*
X155495272Y-112903056D01*
X155530498Y-113019180D01*
X155589463Y-113129494D01*
X155668815Y-113226185D01*
X155765506Y-113305537D01*
X155875820Y-113364502D01*
X155995518Y-113400812D01*
X156120000Y-113413072D01*
X157180000Y-113413072D01*
X157304482Y-113400812D01*
X157424180Y-113364502D01*
X157534494Y-113305537D01*
X157631185Y-113226185D01*
X157655137Y-113197000D01*
X157794685Y-113271589D01*
X157961508Y-113322195D01*
X158004613Y-113326440D01*
X158075820Y-113364502D01*
X158195518Y-113400812D01*
X158320000Y-113413072D01*
X159380000Y-113413072D01*
X159504482Y-113400812D01*
X159624180Y-113364502D01*
X159734494Y-113305537D01*
X159831185Y-113226185D01*
X159910537Y-113129494D01*
X159969502Y-113019180D01*
X160005812Y-112899482D01*
X160018072Y-112775000D01*
X160018072Y-112125000D01*
X160005812Y-112000518D01*
X159969502Y-111880820D01*
X159910537Y-111770506D01*
X159831185Y-111673815D01*
X159734494Y-111594463D01*
X159624180Y-111535498D01*
X159507159Y-111500000D01*
X159624180Y-111464502D01*
X159679373Y-111435000D01*
X160327500Y-111435000D01*
X160327500Y-111461464D01*
X160281329Y-111517725D01*
X160202150Y-111665858D01*
X160153392Y-111826592D01*
X160136928Y-111993750D01*
X160136928Y-112506250D01*
X160153392Y-112673408D01*
X160202150Y-112834142D01*
X160281329Y-112982275D01*
X160387885Y-113112115D01*
X160517725Y-113218671D01*
X160665858Y-113297850D01*
X160826592Y-113346608D01*
X160993750Y-113363072D01*
X161431250Y-113363072D01*
X161598408Y-113346608D01*
X161759142Y-113297850D01*
X161907275Y-113218671D01*
X162037115Y-113112115D01*
X162143671Y-112982275D01*
X162222850Y-112834142D01*
X162271608Y-112673408D01*
X162288072Y-112506250D01*
X162288072Y-112127000D01*
X166500000Y-112127000D01*
X166524776Y-112124560D01*
X166548601Y-112117333D01*
X166570557Y-112105597D01*
X166589803Y-112089803D01*
X166605597Y-112070557D01*
X166617333Y-112048601D01*
X166624560Y-112024776D01*
X166627000Y-112000000D01*
X166627000Y-109127000D01*
X168340000Y-109127000D01*
X168340001Y-112611928D01*
G37*
X168340001Y-112611928D02*
X167250000Y-112611928D01*
X167125518Y-112624188D01*
X167005820Y-112660498D01*
X166895506Y-112719463D01*
X166798815Y-112798815D01*
X166719463Y-112895506D01*
X166660498Y-113005820D01*
X166624188Y-113125518D01*
X166611928Y-113250000D01*
X166611928Y-113455000D01*
X154596579Y-113455000D01*
X154405001Y-113263423D01*
X154405001Y-112963072D01*
X155181250Y-112963072D01*
X155353285Y-112946128D01*
X155495272Y-112903056D01*
X155530498Y-113019180D01*
X155589463Y-113129494D01*
X155668815Y-113226185D01*
X155765506Y-113305537D01*
X155875820Y-113364502D01*
X155995518Y-113400812D01*
X156120000Y-113413072D01*
X157180000Y-113413072D01*
X157304482Y-113400812D01*
X157424180Y-113364502D01*
X157534494Y-113305537D01*
X157631185Y-113226185D01*
X157655137Y-113197000D01*
X157794685Y-113271589D01*
X157961508Y-113322195D01*
X158004613Y-113326440D01*
X158075820Y-113364502D01*
X158195518Y-113400812D01*
X158320000Y-113413072D01*
X159380000Y-113413072D01*
X159504482Y-113400812D01*
X159624180Y-113364502D01*
X159734494Y-113305537D01*
X159831185Y-113226185D01*
X159910537Y-113129494D01*
X159969502Y-113019180D01*
X160005812Y-112899482D01*
X160018072Y-112775000D01*
X160018072Y-112125000D01*
X160005812Y-112000518D01*
X159969502Y-111880820D01*
X159910537Y-111770506D01*
X159831185Y-111673815D01*
X159734494Y-111594463D01*
X159624180Y-111535498D01*
X159507159Y-111500000D01*
X159624180Y-111464502D01*
X159679373Y-111435000D01*
X160327500Y-111435000D01*
X160327500Y-111461464D01*
X160281329Y-111517725D01*
X160202150Y-111665858D01*
X160153392Y-111826592D01*
X160136928Y-111993750D01*
X160136928Y-112506250D01*
X160153392Y-112673408D01*
X160202150Y-112834142D01*
X160281329Y-112982275D01*
X160387885Y-113112115D01*
X160517725Y-113218671D01*
X160665858Y-113297850D01*
X160826592Y-113346608D01*
X160993750Y-113363072D01*
X161431250Y-113363072D01*
X161598408Y-113346608D01*
X161759142Y-113297850D01*
X161907275Y-113218671D01*
X162037115Y-113112115D01*
X162143671Y-112982275D01*
X162222850Y-112834142D01*
X162271608Y-112673408D01*
X162288072Y-112506250D01*
X162288072Y-112127000D01*
X166500000Y-112127000D01*
X166524776Y-112124560D01*
X166548601Y-112117333D01*
X166570557Y-112105597D01*
X166589803Y-112089803D01*
X166605597Y-112070557D01*
X166617333Y-112048601D01*
X166624560Y-112024776D01*
X166627000Y-112000000D01*
X166627000Y-109127000D01*
X168340000Y-109127000D01*
X168340001Y-112611928D01*
G36*
X148781928Y-111490000D02*
G01*
X148794188Y-111614482D01*
X148830498Y-111734180D01*
X148889463Y-111844494D01*
X148968815Y-111941185D01*
X149065506Y-112020537D01*
X149175820Y-112079502D01*
X149210427Y-112090000D01*
X149175820Y-112100498D01*
X149065506Y-112159463D01*
X148968815Y-112238815D01*
X148889463Y-112335506D01*
X148830498Y-112445820D01*
X148813072Y-112503266D01*
X148813072Y-112068750D01*
X148796608Y-111901592D01*
X148747850Y-111740858D01*
X148668671Y-111592725D01*
X148592574Y-111500000D01*
X148633031Y-111450703D01*
X148766317Y-111341317D01*
X148781928Y-111322295D01*
X148781928Y-111490000D01*
G37*
X148781928Y-111490000D02*
X148794188Y-111614482D01*
X148830498Y-111734180D01*
X148889463Y-111844494D01*
X148968815Y-111941185D01*
X149065506Y-112020537D01*
X149175820Y-112079502D01*
X149210427Y-112090000D01*
X149175820Y-112100498D01*
X149065506Y-112159463D01*
X148968815Y-112238815D01*
X148889463Y-112335506D01*
X148830498Y-112445820D01*
X148813072Y-112503266D01*
X148813072Y-112068750D01*
X148796608Y-111901592D01*
X148747850Y-111740858D01*
X148668671Y-111592725D01*
X148592574Y-111500000D01*
X148633031Y-111450703D01*
X148766317Y-111341317D01*
X148781928Y-111322295D01*
X148781928Y-111490000D01*
G36*
X155623000Y-109829641D02*
G01*
X155589463Y-109870506D01*
X155530498Y-109980820D01*
X155494188Y-110100518D01*
X155481928Y-110225000D01*
X155481928Y-110767896D01*
X155353285Y-110728872D01*
X155181250Y-110711928D01*
X154275000Y-110711928D01*
X154275000Y-109975900D01*
X154279040Y-109934882D01*
X154277245Y-109916657D01*
X154290118Y-109851939D01*
X154290118Y-109648061D01*
X154250344Y-109448102D01*
X154172323Y-109259744D01*
X154059055Y-109090226D01*
X153914892Y-108946063D01*
X153745374Y-108832795D01*
X153557016Y-108754774D01*
X153357057Y-108715000D01*
X153210869Y-108715000D01*
X154037798Y-107888072D01*
X154456250Y-107888072D01*
X154623408Y-107871608D01*
X154784142Y-107822850D01*
X154932275Y-107743671D01*
X155062115Y-107637115D01*
X155168671Y-107507275D01*
X155247850Y-107359142D01*
X155296608Y-107198408D01*
X155313072Y-107031250D01*
X155313072Y-106593750D01*
X155296608Y-106426592D01*
X155247850Y-106265858D01*
X155220666Y-106215000D01*
X155623000Y-106215000D01*
X155623000Y-109829641D01*
G37*
X155623000Y-109829641D02*
X155589463Y-109870506D01*
X155530498Y-109980820D01*
X155494188Y-110100518D01*
X155481928Y-110225000D01*
X155481928Y-110767896D01*
X155353285Y-110728872D01*
X155181250Y-110711928D01*
X154275000Y-110711928D01*
X154275000Y-109975900D01*
X154279040Y-109934882D01*
X154277245Y-109916657D01*
X154290118Y-109851939D01*
X154290118Y-109648061D01*
X154250344Y-109448102D01*
X154172323Y-109259744D01*
X154059055Y-109090226D01*
X153914892Y-108946063D01*
X153745374Y-108832795D01*
X153557016Y-108754774D01*
X153357057Y-108715000D01*
X153210869Y-108715000D01*
X154037798Y-107888072D01*
X154456250Y-107888072D01*
X154623408Y-107871608D01*
X154784142Y-107822850D01*
X154932275Y-107743671D01*
X155062115Y-107637115D01*
X155168671Y-107507275D01*
X155247850Y-107359142D01*
X155296608Y-107198408D01*
X155313072Y-107031250D01*
X155313072Y-106593750D01*
X155296608Y-106426592D01*
X155247850Y-106265858D01*
X155220666Y-106215000D01*
X155623000Y-106215000D01*
X155623000Y-109829641D01*
G36*
X148055001Y-107821654D02*
G01*
X147956250Y-107811928D01*
X147443750Y-107811928D01*
X147276592Y-107828392D01*
X147115858Y-107877150D01*
X146967725Y-107956329D01*
X146837885Y-108062885D01*
X146836149Y-108065000D01*
X146764088Y-108065000D01*
X146726185Y-108018815D01*
X146629494Y-107939463D01*
X146555665Y-107900000D01*
X146629494Y-107860537D01*
X146726185Y-107781185D01*
X146805537Y-107684494D01*
X146864502Y-107574180D01*
X146900812Y-107454482D01*
X146913072Y-107330000D01*
X146913072Y-107075000D01*
X148055001Y-107075000D01*
X148055001Y-107821654D01*
G37*
X148055001Y-107821654D02*
X147956250Y-107811928D01*
X147443750Y-107811928D01*
X147276592Y-107828392D01*
X147115858Y-107877150D01*
X146967725Y-107956329D01*
X146837885Y-108062885D01*
X146836149Y-108065000D01*
X146764088Y-108065000D01*
X146726185Y-108018815D01*
X146629494Y-107939463D01*
X146555665Y-107900000D01*
X146629494Y-107860537D01*
X146726185Y-107781185D01*
X146805537Y-107684494D01*
X146864502Y-107574180D01*
X146900812Y-107454482D01*
X146913072Y-107330000D01*
X146913072Y-107075000D01*
X148055001Y-107075000D01*
X148055001Y-107821654D01*
G36*
X155623000Y-104145000D02*
G01*
X154898711Y-104145000D01*
X154057807Y-103304097D01*
X154025396Y-103264604D01*
X153867797Y-103135266D01*
X153687993Y-103039159D01*
X153492895Y-102979976D01*
X153340838Y-102965000D01*
X153340828Y-102965000D01*
X153290000Y-102959994D01*
X153239172Y-102965000D01*
X144810827Y-102965000D01*
X144759999Y-102959994D01*
X144709171Y-102965000D01*
X144709162Y-102965000D01*
X144557105Y-102979976D01*
X144362007Y-103039159D01*
X144278309Y-103083896D01*
X144182202Y-103135266D01*
X144064092Y-103232197D01*
X144024604Y-103264604D01*
X143992197Y-103304092D01*
X143219201Y-104077089D01*
X143117725Y-104131329D01*
X142987885Y-104237885D01*
X142881329Y-104367725D01*
X142802150Y-104515858D01*
X142753392Y-104676592D01*
X142736928Y-104843750D01*
X142736928Y-105356250D01*
X142753392Y-105523408D01*
X142802150Y-105684142D01*
X142877500Y-105825112D01*
X142877501Y-106516559D01*
X142872976Y-106562500D01*
X142891029Y-106745791D01*
X142920662Y-106843476D01*
X142944494Y-106922040D01*
X143031315Y-107084472D01*
X143086928Y-107152236D01*
X143086928Y-107330000D01*
X143091163Y-107373000D01*
X142160000Y-107373000D01*
X142160000Y-102660000D01*
X155623000Y-102660000D01*
X155623000Y-104145000D01*
G37*
X155623000Y-104145000D02*
X154898711Y-104145000D01*
X154057807Y-103304097D01*
X154025396Y-103264604D01*
X153867797Y-103135266D01*
X153687993Y-103039159D01*
X153492895Y-102979976D01*
X153340838Y-102965000D01*
X153340828Y-102965000D01*
X153290000Y-102959994D01*
X153239172Y-102965000D01*
X144810827Y-102965000D01*
X144759999Y-102959994D01*
X144709171Y-102965000D01*
X144709162Y-102965000D01*
X144557105Y-102979976D01*
X144362007Y-103039159D01*
X144278309Y-103083896D01*
X144182202Y-103135266D01*
X144064092Y-103232197D01*
X144024604Y-103264604D01*
X143992197Y-103304092D01*
X143219201Y-104077089D01*
X143117725Y-104131329D01*
X142987885Y-104237885D01*
X142881329Y-104367725D01*
X142802150Y-104515858D01*
X142753392Y-104676592D01*
X142736928Y-104843750D01*
X142736928Y-105356250D01*
X142753392Y-105523408D01*
X142802150Y-105684142D01*
X142877500Y-105825112D01*
X142877501Y-106516559D01*
X142872976Y-106562500D01*
X142891029Y-106745791D01*
X142920662Y-106843476D01*
X142944494Y-106922040D01*
X143031315Y-107084472D01*
X143086928Y-107152236D01*
X143086928Y-107330000D01*
X143091163Y-107373000D01*
X142160000Y-107373000D01*
X142160000Y-102660000D01*
X155623000Y-102660000D01*
X155623000Y-104145000D01*
G36*
X148496928Y-105302006D02*
G01*
X148466531Y-105305000D01*
X146203469Y-105305000D01*
X146160000Y-105300719D01*
X146116531Y-105305000D01*
X146116523Y-105305000D01*
X145986510Y-105317805D01*
X145819687Y-105368411D01*
X145665941Y-105450589D01*
X145531183Y-105561183D01*
X145503466Y-105594956D01*
X145434080Y-105664342D01*
X145380820Y-105680498D01*
X145270506Y-105739463D01*
X145173815Y-105818815D01*
X145094463Y-105915506D01*
X145035498Y-106025820D01*
X145000000Y-106142841D01*
X144964502Y-106025820D01*
X144905537Y-105915506D01*
X144826185Y-105818815D01*
X144773831Y-105775849D01*
X144822850Y-105684142D01*
X144871608Y-105523408D01*
X144888072Y-105356250D01*
X144888072Y-105335638D01*
X145188711Y-105035000D01*
X148496928Y-105035000D01*
X148496928Y-105302006D01*
G37*
X148496928Y-105302006D02*
X148466531Y-105305000D01*
X146203469Y-105305000D01*
X146160000Y-105300719D01*
X146116531Y-105305000D01*
X146116523Y-105305000D01*
X145986510Y-105317805D01*
X145819687Y-105368411D01*
X145665941Y-105450589D01*
X145531183Y-105561183D01*
X145503466Y-105594956D01*
X145434080Y-105664342D01*
X145380820Y-105680498D01*
X145270506Y-105739463D01*
X145173815Y-105818815D01*
X145094463Y-105915506D01*
X145035498Y-106025820D01*
X145000000Y-106142841D01*
X144964502Y-106025820D01*
X144905537Y-105915506D01*
X144826185Y-105818815D01*
X144773831Y-105775849D01*
X144822850Y-105684142D01*
X144871608Y-105523408D01*
X144888072Y-105356250D01*
X144888072Y-105335638D01*
X145188711Y-105035000D01*
X148496928Y-105035000D01*
X148496928Y-105302006D01*
%TO.N,/B+*%
G36*
X168340000Y-104623000D02*
G01*
X165627000Y-104623000D01*
X165627000Y-103500000D01*
X165624560Y-103475224D01*
X165617333Y-103451399D01*
X165605597Y-103429443D01*
X165589803Y-103410197D01*
X165570557Y-103394403D01*
X165548601Y-103382667D01*
X165524776Y-103375440D01*
X165500000Y-103373000D01*
X162562067Y-103373000D01*
X162501185Y-103298815D01*
X162404494Y-103219463D01*
X162294180Y-103160498D01*
X162174482Y-103124188D01*
X162050000Y-103111928D01*
X160250000Y-103111928D01*
X160125518Y-103124188D01*
X160005820Y-103160498D01*
X159895506Y-103219463D01*
X159798815Y-103298815D01*
X159737933Y-103373000D01*
X159000000Y-103373000D01*
X158975224Y-103375440D01*
X158951399Y-103382667D01*
X158929443Y-103394403D01*
X158910197Y-103410197D01*
X158894403Y-103429443D01*
X158882667Y-103451399D01*
X158875440Y-103475224D01*
X158873000Y-103500000D01*
X158873000Y-108623000D01*
X156627000Y-108623000D01*
X156627000Y-102660000D01*
X168340000Y-102660000D01*
X168340000Y-104623000D01*
G37*
X168340000Y-104623000D02*
X165627000Y-104623000D01*
X165627000Y-103500000D01*
X165624560Y-103475224D01*
X165617333Y-103451399D01*
X165605597Y-103429443D01*
X165589803Y-103410197D01*
X165570557Y-103394403D01*
X165548601Y-103382667D01*
X165524776Y-103375440D01*
X165500000Y-103373000D01*
X162562067Y-103373000D01*
X162501185Y-103298815D01*
X162404494Y-103219463D01*
X162294180Y-103160498D01*
X162174482Y-103124188D01*
X162050000Y-103111928D01*
X160250000Y-103111928D01*
X160125518Y-103124188D01*
X160005820Y-103160498D01*
X159895506Y-103219463D01*
X159798815Y-103298815D01*
X159737933Y-103373000D01*
X159000000Y-103373000D01*
X158975224Y-103375440D01*
X158951399Y-103382667D01*
X158929443Y-103394403D01*
X158910197Y-103410197D01*
X158894403Y-103429443D01*
X158882667Y-103451399D01*
X158875440Y-103475224D01*
X158873000Y-103500000D01*
X158873000Y-108623000D01*
X156627000Y-108623000D01*
X156627000Y-102660000D01*
X168340000Y-102660000D01*
X168340000Y-104623000D01*
%TO.N,VDD*%
G36*
X144623000Y-108389580D02*
G01*
X144623000Y-114340000D01*
X142160000Y-114340000D01*
X142160000Y-108377000D01*
X144610420Y-108377000D01*
X144623000Y-108389580D01*
G37*
X144623000Y-108389580D02*
X144623000Y-114340000D01*
X142160000Y-114340000D01*
X142160000Y-108377000D01*
X144610420Y-108377000D01*
X144623000Y-108389580D01*
%TO.N,/STEP-UP/VOUT*%
G36*
X168340001Y-108123000D02*
G01*
X165750000Y-108123000D01*
X165725224Y-108125440D01*
X165701399Y-108132667D01*
X165679443Y-108144403D01*
X165660197Y-108160197D01*
X165644403Y-108179443D01*
X165632667Y-108201399D01*
X165625440Y-108225224D01*
X165623000Y-108250000D01*
X165623000Y-111123000D01*
X163127000Y-111123000D01*
X163127000Y-107627000D01*
X165500000Y-107627000D01*
X165524776Y-107624560D01*
X165548601Y-107617333D01*
X165570557Y-107605597D01*
X165589803Y-107589803D01*
X165605597Y-107570557D01*
X165617333Y-107548601D01*
X165624560Y-107524776D01*
X165627000Y-107500000D01*
X165627000Y-105627000D01*
X168340000Y-105627000D01*
X168340001Y-108123000D01*
G37*
X168340001Y-108123000D02*
X165750000Y-108123000D01*
X165725224Y-108125440D01*
X165701399Y-108132667D01*
X165679443Y-108144403D01*
X165660197Y-108160197D01*
X165644403Y-108179443D01*
X165632667Y-108201399D01*
X165625440Y-108225224D01*
X165623000Y-108250000D01*
X165623000Y-111123000D01*
X163127000Y-111123000D01*
X163127000Y-107627000D01*
X165500000Y-107627000D01*
X165524776Y-107624560D01*
X165548601Y-107617333D01*
X165570557Y-107605597D01*
X165589803Y-107589803D01*
X165605597Y-107570557D01*
X165617333Y-107548601D01*
X165624560Y-107524776D01*
X165627000Y-107500000D01*
X165627000Y-105627000D01*
X168340000Y-105627000D01*
X168340001Y-108123000D01*
%TO.N,Net-(D2-Pad2)*%
G36*
X164623000Y-106623000D02*
G01*
X162250000Y-106623000D01*
X162225224Y-106625440D01*
X162201399Y-106632667D01*
X162179443Y-106644403D01*
X162160197Y-106660197D01*
X162144403Y-106679443D01*
X162132667Y-106701399D01*
X162125440Y-106725224D01*
X162123000Y-106750000D01*
X162123000Y-109373000D01*
X160127000Y-109373000D01*
X160127000Y-104377000D01*
X164623000Y-104377000D01*
X164623000Y-106623000D01*
G37*
X164623000Y-106623000D02*
X162250000Y-106623000D01*
X162225224Y-106625440D01*
X162201399Y-106632667D01*
X162179443Y-106644403D01*
X162160197Y-106660197D01*
X162144403Y-106679443D01*
X162132667Y-106701399D01*
X162125440Y-106725224D01*
X162123000Y-106750000D01*
X162123000Y-109373000D01*
X160127000Y-109373000D01*
X160127000Y-104377000D01*
X164623000Y-104377000D01*
X164623000Y-106623000D01*
%TD*%
M02*
