%TF.GenerationSoftware,KiCad,Pcbnew,(5.1.6)-1*%
%TF.CreationDate,2020-09-04T02:35:42-05:00*%
%TF.ProjectId,cargadorDeBateriasLitIon,63617267-6164-46f7-9244-654261746572,rev?*%
%TF.SameCoordinates,Original*%
%TF.FileFunction,Soldermask,Top*%
%TF.FilePolarity,Negative*%
%FSLAX46Y46*%
G04 Gerber Fmt 4.6, Leading zero omitted, Abs format (unit mm)*
G04 Created by KiCad (PCBNEW (5.1.6)-1) date 2020-09-04 02:35:42*
%MOMM*%
%LPD*%
G01*
G04 APERTURE LIST*
%ADD10R,1.600000X1.600000*%
%ADD11R,0.650000X1.100000*%
%ADD12R,1.100000X0.800000*%
%ADD13R,1.160000X0.750000*%
G04 APERTURE END LIST*
D10*
%TO.C,J5*%
X156500000Y-111000000D03*
%TD*%
D11*
%TO.C,U2*%
X149860000Y-109240000D03*
X150810000Y-109240000D03*
X151760000Y-109240000D03*
X151760000Y-106840000D03*
X150810000Y-106840000D03*
X149860000Y-106840000D03*
%TD*%
D12*
%TO.C,Q1*%
X152520000Y-112090000D03*
X152520000Y-111140000D03*
X152520000Y-113040000D03*
X149920000Y-113040000D03*
X149920000Y-112090000D03*
X149920000Y-111140000D03*
%TD*%
D10*
%TO.C,J6*%
X156500000Y-114000000D03*
%TD*%
%TO.C,J4*%
X156500000Y-103000000D03*
%TD*%
%TO.C,J3*%
X156500000Y-106000000D03*
%TD*%
%TO.C,J2*%
X140500000Y-103000000D03*
%TD*%
%TO.C,J1*%
X140500000Y-114000000D03*
%TD*%
D13*
%TO.C,U1*%
X147220000Y-107120000D03*
X147220000Y-109020000D03*
X145020000Y-109020000D03*
X145020000Y-108070000D03*
X145020000Y-107120000D03*
%TD*%
%TO.C,R4*%
G36*
G01*
X153750000Y-105461250D02*
X153750000Y-104898750D01*
G75*
G02*
X153993750Y-104655000I243750J0D01*
G01*
X154481250Y-104655000D01*
G75*
G02*
X154725000Y-104898750I0J-243750D01*
G01*
X154725000Y-105461250D01*
G75*
G02*
X154481250Y-105705000I-243750J0D01*
G01*
X153993750Y-105705000D01*
G75*
G02*
X153750000Y-105461250I0J243750D01*
G01*
G37*
G36*
G01*
X152175000Y-105461250D02*
X152175000Y-104898750D01*
G75*
G02*
X152418750Y-104655000I243750J0D01*
G01*
X152906250Y-104655000D01*
G75*
G02*
X153150000Y-104898750I0J-243750D01*
G01*
X153150000Y-105461250D01*
G75*
G02*
X152906250Y-105705000I-243750J0D01*
G01*
X152418750Y-105705000D01*
G75*
G02*
X152175000Y-105461250I0J243750D01*
G01*
G37*
%TD*%
%TO.C,R3*%
G36*
G01*
X153621250Y-107610000D02*
X153058750Y-107610000D01*
G75*
G02*
X152815000Y-107366250I0J243750D01*
G01*
X152815000Y-106878750D01*
G75*
G02*
X153058750Y-106635000I243750J0D01*
G01*
X153621250Y-106635000D01*
G75*
G02*
X153865000Y-106878750I0J-243750D01*
G01*
X153865000Y-107366250D01*
G75*
G02*
X153621250Y-107610000I-243750J0D01*
G01*
G37*
G36*
G01*
X153621250Y-109185000D02*
X153058750Y-109185000D01*
G75*
G02*
X152815000Y-108941250I0J243750D01*
G01*
X152815000Y-108453750D01*
G75*
G02*
X153058750Y-108210000I243750J0D01*
G01*
X153621250Y-108210000D01*
G75*
G02*
X153865000Y-108453750I0J-243750D01*
G01*
X153865000Y-108941250D01*
G75*
G02*
X153621250Y-109185000I-243750J0D01*
G01*
G37*
%TD*%
%TO.C,R2*%
G36*
G01*
X146820000Y-105691250D02*
X146820000Y-105128750D01*
G75*
G02*
X147063750Y-104885000I243750J0D01*
G01*
X147551250Y-104885000D01*
G75*
G02*
X147795000Y-105128750I0J-243750D01*
G01*
X147795000Y-105691250D01*
G75*
G02*
X147551250Y-105935000I-243750J0D01*
G01*
X147063750Y-105935000D01*
G75*
G02*
X146820000Y-105691250I0J243750D01*
G01*
G37*
G36*
G01*
X145245000Y-105691250D02*
X145245000Y-105128750D01*
G75*
G02*
X145488750Y-104885000I243750J0D01*
G01*
X145976250Y-104885000D01*
G75*
G02*
X146220000Y-105128750I0J-243750D01*
G01*
X146220000Y-105691250D01*
G75*
G02*
X145976250Y-105935000I-243750J0D01*
G01*
X145488750Y-105935000D01*
G75*
G02*
X145245000Y-105691250I0J243750D01*
G01*
G37*
%TD*%
%TO.C,R1*%
G36*
G01*
X141348750Y-108710000D02*
X141911250Y-108710000D01*
G75*
G02*
X142155000Y-108953750I0J-243750D01*
G01*
X142155000Y-109441250D01*
G75*
G02*
X141911250Y-109685000I-243750J0D01*
G01*
X141348750Y-109685000D01*
G75*
G02*
X141105000Y-109441250I0J243750D01*
G01*
X141105000Y-108953750D01*
G75*
G02*
X141348750Y-108710000I243750J0D01*
G01*
G37*
G36*
G01*
X141348750Y-107135000D02*
X141911250Y-107135000D01*
G75*
G02*
X142155000Y-107378750I0J-243750D01*
G01*
X142155000Y-107866250D01*
G75*
G02*
X141911250Y-108110000I-243750J0D01*
G01*
X141348750Y-108110000D01*
G75*
G02*
X141105000Y-107866250I0J243750D01*
G01*
X141105000Y-107378750D01*
G75*
G02*
X141348750Y-107135000I243750J0D01*
G01*
G37*
%TD*%
%TO.C,D1*%
G36*
G01*
X146840000Y-111031250D02*
X146840000Y-110468750D01*
G75*
G02*
X147083750Y-110225000I243750J0D01*
G01*
X147571250Y-110225000D01*
G75*
G02*
X147815000Y-110468750I0J-243750D01*
G01*
X147815000Y-111031250D01*
G75*
G02*
X147571250Y-111275000I-243750J0D01*
G01*
X147083750Y-111275000D01*
G75*
G02*
X146840000Y-111031250I0J243750D01*
G01*
G37*
G36*
G01*
X145265000Y-111031250D02*
X145265000Y-110468750D01*
G75*
G02*
X145508750Y-110225000I243750J0D01*
G01*
X145996250Y-110225000D01*
G75*
G02*
X146240000Y-110468750I0J-243750D01*
G01*
X146240000Y-111031250D01*
G75*
G02*
X145996250Y-111275000I-243750J0D01*
G01*
X145508750Y-111275000D01*
G75*
G02*
X145265000Y-111031250I0J243750D01*
G01*
G37*
%TD*%
%TO.C,C4*%
G36*
G01*
X143601250Y-108110000D02*
X143038750Y-108110000D01*
G75*
G02*
X142795000Y-107866250I0J243750D01*
G01*
X142795000Y-107378750D01*
G75*
G02*
X143038750Y-107135000I243750J0D01*
G01*
X143601250Y-107135000D01*
G75*
G02*
X143845000Y-107378750I0J-243750D01*
G01*
X143845000Y-107866250D01*
G75*
G02*
X143601250Y-108110000I-243750J0D01*
G01*
G37*
G36*
G01*
X143601250Y-109685000D02*
X143038750Y-109685000D01*
G75*
G02*
X142795000Y-109441250I0J243750D01*
G01*
X142795000Y-108953750D01*
G75*
G02*
X143038750Y-108710000I243750J0D01*
G01*
X143601250Y-108710000D01*
G75*
G02*
X143845000Y-108953750I0J-243750D01*
G01*
X143845000Y-109441250D01*
G75*
G02*
X143601250Y-109685000I-243750J0D01*
G01*
G37*
%TD*%
%TO.C,C3*%
G36*
G01*
X150060000Y-104898750D02*
X150060000Y-105461250D01*
G75*
G02*
X149816250Y-105705000I-243750J0D01*
G01*
X149328750Y-105705000D01*
G75*
G02*
X149085000Y-105461250I0J243750D01*
G01*
X149085000Y-104898750D01*
G75*
G02*
X149328750Y-104655000I243750J0D01*
G01*
X149816250Y-104655000D01*
G75*
G02*
X150060000Y-104898750I0J-243750D01*
G01*
G37*
G36*
G01*
X151635000Y-104898750D02*
X151635000Y-105461250D01*
G75*
G02*
X151391250Y-105705000I-243750J0D01*
G01*
X150903750Y-105705000D01*
G75*
G02*
X150660000Y-105461250I0J243750D01*
G01*
X150660000Y-104898750D01*
G75*
G02*
X150903750Y-104655000I243750J0D01*
G01*
X151391250Y-104655000D01*
G75*
G02*
X151635000Y-104898750I0J-243750D01*
G01*
G37*
%TD*%
%TO.C,C2*%
G36*
G01*
X143630000Y-111071250D02*
X143630000Y-110508750D01*
G75*
G02*
X143873750Y-110265000I243750J0D01*
G01*
X144361250Y-110265000D01*
G75*
G02*
X144605000Y-110508750I0J-243750D01*
G01*
X144605000Y-111071250D01*
G75*
G02*
X144361250Y-111315000I-243750J0D01*
G01*
X143873750Y-111315000D01*
G75*
G02*
X143630000Y-111071250I0J243750D01*
G01*
G37*
G36*
G01*
X142055000Y-111071250D02*
X142055000Y-110508750D01*
G75*
G02*
X142298750Y-110265000I243750J0D01*
G01*
X142786250Y-110265000D01*
G75*
G02*
X143030000Y-110508750I0J-243750D01*
G01*
X143030000Y-111071250D01*
G75*
G02*
X142786250Y-111315000I-243750J0D01*
G01*
X142298750Y-111315000D01*
G75*
G02*
X142055000Y-111071250I0J243750D01*
G01*
G37*
%TD*%
%TO.C,C1*%
G36*
G01*
X145430000Y-112088750D02*
X145430000Y-112651250D01*
G75*
G02*
X145186250Y-112895000I-243750J0D01*
G01*
X144698750Y-112895000D01*
G75*
G02*
X144455000Y-112651250I0J243750D01*
G01*
X144455000Y-112088750D01*
G75*
G02*
X144698750Y-111845000I243750J0D01*
G01*
X145186250Y-111845000D01*
G75*
G02*
X145430000Y-112088750I0J-243750D01*
G01*
G37*
G36*
G01*
X147005000Y-112088750D02*
X147005000Y-112651250D01*
G75*
G02*
X146761250Y-112895000I-243750J0D01*
G01*
X146273750Y-112895000D01*
G75*
G02*
X146030000Y-112651250I0J243750D01*
G01*
X146030000Y-112088750D01*
G75*
G02*
X146273750Y-111845000I243750J0D01*
G01*
X146761250Y-111845000D01*
G75*
G02*
X147005000Y-112088750I0J-243750D01*
G01*
G37*
%TD*%
M02*
