%TF.GenerationSoftware,KiCad,Pcbnew,(5.1.6)-1*%
%TF.CreationDate,2020-09-04T02:35:42-05:00*%
%TF.ProjectId,cargadorDeBateriasLitIon,63617267-6164-46f7-9244-654261746572,rev?*%
%TF.SameCoordinates,Original*%
%TF.FileFunction,Copper,L2,Bot*%
%TF.FilePolarity,Positive*%
%FSLAX46Y46*%
G04 Gerber Fmt 4.6, Leading zero omitted, Abs format (unit mm)*
G04 Created by KiCad (PCBNEW (5.1.6)-1) date 2020-09-04 02:35:42*
%MOMM*%
%LPD*%
G01*
G04 APERTURE LIST*
%TA.AperFunction,ComponentPad*%
%ADD10R,1.500000X1.500000*%
%TD*%
%TA.AperFunction,ViaPad*%
%ADD11C,0.800000*%
%TD*%
%TA.AperFunction,Conductor*%
%ADD12C,0.254000*%
%TD*%
G04 APERTURE END LIST*
D10*
%TO.P,J5,1*%
%TO.N,/B-*%
X156500000Y-111000000D03*
%TD*%
%TO.P,J6,1*%
%TO.N,GND*%
X156500000Y-114000000D03*
%TD*%
%TO.P,J4,1*%
%TO.N,/B+*%
X156500000Y-103000000D03*
%TD*%
%TO.P,J3,1*%
%TO.N,/B+*%
X156500000Y-106000000D03*
%TD*%
%TO.P,J2,1*%
%TO.N,GND*%
X140500000Y-103000000D03*
%TD*%
%TO.P,J1,1*%
%TO.N,/IN+*%
X140500000Y-114000000D03*
%TD*%
D11*
%TO.N,GND*%
X143510000Y-112360000D03*
%TD*%
D12*
%TO.N,GND*%
G36*
X155111928Y-103750000D02*
G01*
X155124188Y-103874482D01*
X155160498Y-103994180D01*
X155219463Y-104104494D01*
X155298815Y-104201185D01*
X155395506Y-104280537D01*
X155505820Y-104339502D01*
X155625518Y-104375812D01*
X155750000Y-104388072D01*
X156840001Y-104388072D01*
X156840001Y-104611928D01*
X155750000Y-104611928D01*
X155625518Y-104624188D01*
X155505820Y-104660498D01*
X155395506Y-104719463D01*
X155298815Y-104798815D01*
X155219463Y-104895506D01*
X155160498Y-105005820D01*
X155124188Y-105125518D01*
X155111928Y-105250000D01*
X155111928Y-106750000D01*
X155124188Y-106874482D01*
X155160498Y-106994180D01*
X155219463Y-107104494D01*
X155298815Y-107201185D01*
X155395506Y-107280537D01*
X155505820Y-107339502D01*
X155625518Y-107375812D01*
X155750000Y-107388072D01*
X156678548Y-107388072D01*
X156556231Y-107510389D01*
X156531053Y-107531052D01*
X156510389Y-107556231D01*
X156510386Y-107556234D01*
X156448575Y-107631550D01*
X156387290Y-107746208D01*
X156360999Y-107832878D01*
X156350209Y-107868450D01*
X156349551Y-107870618D01*
X156336808Y-108000000D01*
X156340001Y-108032418D01*
X156340000Y-108967590D01*
X156336808Y-109000000D01*
X156340000Y-109032409D01*
X156340000Y-109032418D01*
X156349550Y-109129382D01*
X156384989Y-109246207D01*
X156387290Y-109253792D01*
X156448575Y-109368450D01*
X156496689Y-109427076D01*
X156531052Y-109468948D01*
X156556236Y-109489616D01*
X156678548Y-109611928D01*
X155750000Y-109611928D01*
X155625518Y-109624188D01*
X155505820Y-109660498D01*
X155395506Y-109719463D01*
X155298815Y-109798815D01*
X155219463Y-109895506D01*
X155160498Y-110005820D01*
X155124188Y-110125518D01*
X155111928Y-110250000D01*
X155111928Y-111750000D01*
X155124188Y-111874482D01*
X155160498Y-111994180D01*
X155219463Y-112104494D01*
X155298815Y-112201185D01*
X155395506Y-112280537D01*
X155505820Y-112339502D01*
X155625518Y-112375812D01*
X155750000Y-112388072D01*
X156840001Y-112388072D01*
X156840001Y-112614641D01*
X156785750Y-112615000D01*
X156627000Y-112773750D01*
X156627000Y-113873000D01*
X156647000Y-113873000D01*
X156647000Y-114127000D01*
X156627000Y-114127000D01*
X156627000Y-114147000D01*
X156373000Y-114147000D01*
X156373000Y-114127000D01*
X155273750Y-114127000D01*
X155115000Y-114285750D01*
X155114641Y-114340000D01*
X141888072Y-114340000D01*
X141888072Y-113250000D01*
X155111928Y-113250000D01*
X155115000Y-113714250D01*
X155273750Y-113873000D01*
X156373000Y-113873000D01*
X156373000Y-112773750D01*
X156214250Y-112615000D01*
X155750000Y-112611928D01*
X155625518Y-112624188D01*
X155505820Y-112660498D01*
X155395506Y-112719463D01*
X155298815Y-112798815D01*
X155219463Y-112895506D01*
X155160498Y-113005820D01*
X155124188Y-113125518D01*
X155111928Y-113250000D01*
X141888072Y-113250000D01*
X141875812Y-113125518D01*
X141839502Y-113005820D01*
X141780537Y-112895506D01*
X141701185Y-112798815D01*
X141604494Y-112719463D01*
X141494180Y-112660498D01*
X141374482Y-112624188D01*
X141250000Y-112611928D01*
X140321453Y-112611928D01*
X140443769Y-112489612D01*
X140468948Y-112468948D01*
X140551425Y-112368450D01*
X140612710Y-112253793D01*
X140650450Y-112129383D01*
X140660000Y-112032419D01*
X140660000Y-112032412D01*
X140663192Y-112000000D01*
X140660000Y-111967588D01*
X140660000Y-105032412D01*
X140663192Y-105000000D01*
X140660000Y-104967588D01*
X140660000Y-104967581D01*
X140650450Y-104870617D01*
X140612710Y-104746207D01*
X140551425Y-104631550D01*
X140468948Y-104531052D01*
X140443770Y-104510389D01*
X140266315Y-104332935D01*
X140373000Y-104226250D01*
X140373000Y-103127000D01*
X140627000Y-103127000D01*
X140627000Y-104226250D01*
X140785750Y-104385000D01*
X141250000Y-104388072D01*
X141374482Y-104375812D01*
X141494180Y-104339502D01*
X141604494Y-104280537D01*
X141701185Y-104201185D01*
X141780537Y-104104494D01*
X141839502Y-103994180D01*
X141875812Y-103874482D01*
X141888072Y-103750000D01*
X141885000Y-103285750D01*
X141726250Y-103127000D01*
X140627000Y-103127000D01*
X140373000Y-103127000D01*
X140353000Y-103127000D01*
X140353000Y-102873000D01*
X140373000Y-102873000D01*
X140373000Y-102853000D01*
X140627000Y-102853000D01*
X140627000Y-102873000D01*
X141726250Y-102873000D01*
X141885000Y-102714250D01*
X141885359Y-102660000D01*
X155111928Y-102660000D01*
X155111928Y-103750000D01*
G37*
X155111928Y-103750000D02*
X155124188Y-103874482D01*
X155160498Y-103994180D01*
X155219463Y-104104494D01*
X155298815Y-104201185D01*
X155395506Y-104280537D01*
X155505820Y-104339502D01*
X155625518Y-104375812D01*
X155750000Y-104388072D01*
X156840001Y-104388072D01*
X156840001Y-104611928D01*
X155750000Y-104611928D01*
X155625518Y-104624188D01*
X155505820Y-104660498D01*
X155395506Y-104719463D01*
X155298815Y-104798815D01*
X155219463Y-104895506D01*
X155160498Y-105005820D01*
X155124188Y-105125518D01*
X155111928Y-105250000D01*
X155111928Y-106750000D01*
X155124188Y-106874482D01*
X155160498Y-106994180D01*
X155219463Y-107104494D01*
X155298815Y-107201185D01*
X155395506Y-107280537D01*
X155505820Y-107339502D01*
X155625518Y-107375812D01*
X155750000Y-107388072D01*
X156678548Y-107388072D01*
X156556231Y-107510389D01*
X156531053Y-107531052D01*
X156510389Y-107556231D01*
X156510386Y-107556234D01*
X156448575Y-107631550D01*
X156387290Y-107746208D01*
X156360999Y-107832878D01*
X156350209Y-107868450D01*
X156349551Y-107870618D01*
X156336808Y-108000000D01*
X156340001Y-108032418D01*
X156340000Y-108967590D01*
X156336808Y-109000000D01*
X156340000Y-109032409D01*
X156340000Y-109032418D01*
X156349550Y-109129382D01*
X156384989Y-109246207D01*
X156387290Y-109253792D01*
X156448575Y-109368450D01*
X156496689Y-109427076D01*
X156531052Y-109468948D01*
X156556236Y-109489616D01*
X156678548Y-109611928D01*
X155750000Y-109611928D01*
X155625518Y-109624188D01*
X155505820Y-109660498D01*
X155395506Y-109719463D01*
X155298815Y-109798815D01*
X155219463Y-109895506D01*
X155160498Y-110005820D01*
X155124188Y-110125518D01*
X155111928Y-110250000D01*
X155111928Y-111750000D01*
X155124188Y-111874482D01*
X155160498Y-111994180D01*
X155219463Y-112104494D01*
X155298815Y-112201185D01*
X155395506Y-112280537D01*
X155505820Y-112339502D01*
X155625518Y-112375812D01*
X155750000Y-112388072D01*
X156840001Y-112388072D01*
X156840001Y-112614641D01*
X156785750Y-112615000D01*
X156627000Y-112773750D01*
X156627000Y-113873000D01*
X156647000Y-113873000D01*
X156647000Y-114127000D01*
X156627000Y-114127000D01*
X156627000Y-114147000D01*
X156373000Y-114147000D01*
X156373000Y-114127000D01*
X155273750Y-114127000D01*
X155115000Y-114285750D01*
X155114641Y-114340000D01*
X141888072Y-114340000D01*
X141888072Y-113250000D01*
X155111928Y-113250000D01*
X155115000Y-113714250D01*
X155273750Y-113873000D01*
X156373000Y-113873000D01*
X156373000Y-112773750D01*
X156214250Y-112615000D01*
X155750000Y-112611928D01*
X155625518Y-112624188D01*
X155505820Y-112660498D01*
X155395506Y-112719463D01*
X155298815Y-112798815D01*
X155219463Y-112895506D01*
X155160498Y-113005820D01*
X155124188Y-113125518D01*
X155111928Y-113250000D01*
X141888072Y-113250000D01*
X141875812Y-113125518D01*
X141839502Y-113005820D01*
X141780537Y-112895506D01*
X141701185Y-112798815D01*
X141604494Y-112719463D01*
X141494180Y-112660498D01*
X141374482Y-112624188D01*
X141250000Y-112611928D01*
X140321453Y-112611928D01*
X140443769Y-112489612D01*
X140468948Y-112468948D01*
X140551425Y-112368450D01*
X140612710Y-112253793D01*
X140650450Y-112129383D01*
X140660000Y-112032419D01*
X140660000Y-112032412D01*
X140663192Y-112000000D01*
X140660000Y-111967588D01*
X140660000Y-105032412D01*
X140663192Y-105000000D01*
X140660000Y-104967588D01*
X140660000Y-104967581D01*
X140650450Y-104870617D01*
X140612710Y-104746207D01*
X140551425Y-104631550D01*
X140468948Y-104531052D01*
X140443770Y-104510389D01*
X140266315Y-104332935D01*
X140373000Y-104226250D01*
X140373000Y-103127000D01*
X140627000Y-103127000D01*
X140627000Y-104226250D01*
X140785750Y-104385000D01*
X141250000Y-104388072D01*
X141374482Y-104375812D01*
X141494180Y-104339502D01*
X141604494Y-104280537D01*
X141701185Y-104201185D01*
X141780537Y-104104494D01*
X141839502Y-103994180D01*
X141875812Y-103874482D01*
X141888072Y-103750000D01*
X141885000Y-103285750D01*
X141726250Y-103127000D01*
X140627000Y-103127000D01*
X140373000Y-103127000D01*
X140353000Y-103127000D01*
X140353000Y-102873000D01*
X140373000Y-102873000D01*
X140373000Y-102853000D01*
X140627000Y-102853000D01*
X140627000Y-102873000D01*
X141726250Y-102873000D01*
X141885000Y-102714250D01*
X141885359Y-102660000D01*
X155111928Y-102660000D01*
X155111928Y-103750000D01*
%TD*%
M02*
