<?xml version="1.0" standalone="no"?>
 <!DOCTYPE svg PUBLIC "-//W3C//DTD SVG 1.1//EN" 
 "http://www.w3.org/Graphics/SVG/1.1/DTD/svg11.dtd"> 
<svg
  xmlns:svg="http://www.w3.org/2000/svg"
  xmlns="http://www.w3.org/2000/svg"
  xmlns:xlink="http://www.w3.org/1999/xlink"
  version="1.1"
  width="29.700220cm" height="21.000720cm" viewBox="0 0 116930 82680">
<title>SVG Picture created as cargadorDeBateriasLitIon-37-F_SilkS.svg date 2021/12/18 17:13:55 </title>
  <desc>Picture generated by PCBNEW </desc>
<g style="fill:#000000; fill-opacity:1;stroke:#000000; stroke-opacity:1;
stroke-linecap:round; stroke-linejoin:round;"
 transform="translate(0 0) scale(1 1)">
</g>
<g style="fill:#000000; fill-opacity:0.0; 
stroke:#000000; stroke-width:-0.000787402; stroke-opacity:1; 
stroke-linecap:round; stroke-linejoin:round;">
</g>
<g style="fill:#000000; fill-opacity:0.0; 
stroke:#000000; stroke-width:118.11; stroke-opacity:1; 
stroke-linecap:round; stroke-linejoin:round;">
<text x="50902.7" y="38267.8"
textLength="1522.31" font-size="734.908" lengthAdjust="spacingAndGlyphs"
text-anchor="middle" opacity="0">IN-</text>
<path d="M50272 38241
L50272 37690
" />
<path d="M50535 38241
L50535 37690
L50850 38241
L50850 37690
" />
<path d="M51112 38031
L51532 38031
" />
<text x="50989.3" y="46944.9"
textLength="1675.85" font-size="734.908" lengthAdjust="spacingAndGlyphs"
text-anchor="middle" opacity="0">IN+</text>
<path d="M50359 46918
L50359 46367
" />
<path d="M50621 46918
L50621 46367
L50936 46918
L50936 46367
" />
<path d="M51199 46708
L51619 46708
" />
<path d="M51409 46918
L51409 46498
" />
<text x="60784.6" y="47063.1"
textLength="2410.76" font-size="734.908" lengthAdjust="spacingAndGlyphs"
text-anchor="middle" opacity="0">OUT-</text>
<path d="M59892 46485
L59997 46485
L60049 46511
L60102 46564
L60128 46669
L60128 46853
L60102 46958
L60049 47010
L59997 47036
L59892 47036
L59839 47010
L59787 46958
L59760 46853
L59760 46669
L59787 46564
L59839 46511
L59892 46485
" />
<path d="M60364 46485
L60364 46931
L60390 46984
L60417 47010
L60469 47036
L60574 47036
L60627 47010
L60653 46984
L60679 46931
L60679 46485
" />
<path d="M60863 46485
L61178 46485
" />
<path d="M61020 47036
L61020 46485
" />
<path d="M61361 46826
L61781 46826
" />
<g transform="rotate(-90 61666.4 44307.1)">
<text x="61666.4" y="44582.7"
textLength="1387.14" font-size="734.908" lengthAdjust="spacingAndGlyphs"
text-anchor="middle" opacity="0">B-</text>
</g>
<path d="M61627 44608
L61653 44530
L61679 44503
L61732 44477
L61810 44477
L61863 44503
L61889 44530
L61915 44582
L61915 44792
L61364 44792
L61364 44608
L61390 44556
L61417 44530
L61469 44503
L61522 44503
L61574 44530
L61600 44556
L61627 44608
L61627 44792
" />
<path d="M61705 44241
L61705 43821
" />
<text x="60808.2" y="38378"
textLength="2410.76" font-size="734.908" lengthAdjust="spacingAndGlyphs"
text-anchor="middle" opacity="0">OUT+</text>
<path d="M59915 37800
L60020 37800
L60073 37826
L60125 37879
L60152 37984
L60152 38168
L60125 38273
L60073 38325
L60020 38351
L59915 38351
L59863 38325
L59810 38273
L59784 38168
L59784 37984
L59810 37879
L59863 37826
L59915 37800
" />
<path d="M60388 37800
L60388 38246
L60414 38299
L60440 38325
L60493 38351
L60598 38351
L60650 38325
L60676 38299
L60703 38246
L60703 37800
" />
<path d="M60886 37800
L61201 37800
" />
<path d="M61044 38351
L61044 37800
" />
<path d="M61385 38141
L61805 38141
" />
<path d="M61595 38351
L61595 37931
" />
<g transform="rotate(-90 61390.9 40362.3)">
<text x="61390.9" y="40637.9"
textLength="1387.14" font-size="734.908" lengthAdjust="spacingAndGlyphs"
text-anchor="middle" opacity="0">B+</text>
</g>
<path d="M61351 40664
L61377 40585
L61403 40559
L61456 40532
L61535 40532
L61587 40559
L61613 40585
L61640 40637
L61640 40847
L61089 40847
L61089 40664
L61115 40611
L61141 40585
L61194 40559
L61246 40559
L61298 40585
L61325 40611
L61351 40664
L61351 40847
" />
<path d="M61430 40296
L61430 39876
" />
<path d="M61640 40086
L61220 40086
" />
</g>
<g style="fill:#000000; fill-opacity:0.0; 
stroke:#000000; stroke-width:39.3701; stroke-opacity:1; 
stroke-linecap:round; stroke-linejoin:round;">
<path d="M48343 45464
L48343 47433
" />
<path d="M48737 45070
L48343 45464
" />
<path d="M48737 39559
L48737 45070
" />
<path d="M48343 39165
L48737 39559
" />
<path d="M63697 41527
L63697 37196
" />
<path d="M63304 41921
L63697 41527
" />
<path d="M63304 42708
L63304 41921
" />
<path d="M63697 43102
L63304 42708
" />
<path d="M48343 37196
L63697 37196
" />
<path d="M48343 39165
L48343 37196
" />
<path d="M63697 47433
L48343 47433
" />
<path d="M63697 43102
L63697 47433
" />
</g>
<g style="fill:#000000; fill-opacity:0.0; 
stroke:#000000; stroke-width:94.4882; stroke-opacity:1; 
stroke-linecap:round; stroke-linejoin:round;">
<path d="M62162 45897
L63658 45897
" />
<path d="M63658 45897
L63658 47393
" />
<path d="M63658 47393
L62162 47393
" />
<path d="M62162 47393
L62162 45897
" />
<path d="M62162 43535
L63658 43535
" />
<path d="M63658 43535
L63658 45031
" />
<path d="M63658 45031
L62162 45031
" />
<path d="M62162 45031
L62162 43535
" />
<path d="M62162 37236
L63658 37236
" />
<path d="M63658 37236
L63658 38732
" />
<path d="M63658 38732
L62162 38732
" />
<path d="M62162 38732
L62162 37236
" />
<path d="M62162 39598
L63658 39598
" />
<path d="M63658 39598
L63658 41094
" />
<path d="M63658 41094
L62162 41094
" />
<path d="M62162 41094
L62162 39598
" />
<path d="M48382 37236
L49879 37236
" />
<path d="M49879 37236
L49879 38732
" />
<path d="M49879 38732
L48382 38732
" />
<path d="M48382 38732
L48382 37236
" />
<path d="M48382 45897
L49879 45897
" />
<path d="M49879 45897
L49879 47393
" />
<path d="M49879 47393
L48382 47393
" />
<path d="M48382 47393
L48382 45897
" />
</g>
<g style="fill:#000000; fill-opacity:0.0; 
stroke:#000000; stroke-width:157.48; stroke-opacity:1; 
stroke-linecap:round; stroke-linejoin:round;">
<circle cx="58020.8" cy="41669.4" r="78.7402" /> 
</g>
<g style="fill:#000000; fill-opacity:0.0; 
stroke:#000000; stroke-width:118.11; stroke-opacity:1; 
stroke-linecap:round; stroke-linejoin:round;">
<path d="M58335 42614
L56052 42614
" />
<path d="M56052 42614
L56052 41354
" />
<path d="M56052 41354
L58335 41354
" />
<path d="M58335 41354
L58335 42614
" />
</g>
<g style="fill:#000000; fill-opacity:0.0; 
stroke:#000000; stroke-width:94.4882; stroke-opacity:1; 
stroke-linecap:round; stroke-linejoin:round;">
<path d="M54264 40708
L52335 40708
" />
<path d="M52847 43244
L54264 43244
" />
<path d="M59380 40102
L59637 40102
" />
<path d="M59380 39299
L59637 39299
" />
<path d="M59642 41978
L59642 41722
" />
<path d="M58839 41978
L58839 41722
" />
<path d="M53742 40283
L53999 40283
" />
<path d="M53742 39480
L53999 39480
" />
<path d="M49619 42115
L49619 42372
" />
<path d="M50422 42115
L50422 42372
" />
<path d="M55753 45732
L55753 44582
" />
<path d="M58241 45732
L58241 44031
" />
<path d="M58241 45732
L57508 45732
" />
<path d="M55753 45732
L56485 45732
" />
<path d="M58682 45732
L58682 44582
" />
<path d="M61170 45732
L61170 44031
" />
<path d="M61170 45732
L60438 45732
" />
<path d="M58682 45732
L59414 45732
" />
<path d="M52717 44665
L54516 44665
" />
<path d="M52717 43507
L52717 44665
" />
<path d="M54516 43507
L52717 43507
" />
<path d="M51753 42372
L51753 42115
" />
<path d="M50949 42372
L50949 42115
" />
<path d="M57022 39299
L56766 39299
" />
<path d="M57022 40102
L56766 40102
" />
<path d="M51231 44519
L51487 44519
" />
<path d="M51231 43716
L51487 43716
" />
<path d="M53377 44960
L53120 44960
" />
<path d="M53377 45763
L53120 45763
" />
<g >
</g>
<g >
</g>
<g >
</g>
<g >
</g>
<g >
</g>
<g >
</g>
<g >
</g>
<g >
</g>
<g >
</g>
<g >
</g>
<g >
</g>
<g >
</g>
<g >
</g>
<g >
</g>
<g >
</g>
<g >
</g>
<g >
</g>
<g >
</g>
<g >
</g>
<g >
</g>
</g>
<g style="fill:#000000; fill-opacity:0.0; 
stroke:#000000; stroke-width:94.4882; stroke-opacity:1; 
stroke-linecap:round; stroke-linejoin:round;">
</g>
<g style="fill:#000000; fill-opacity:0.0; 
stroke:#000000; stroke-width:78.7402; stroke-opacity:1; 
stroke-linecap:round; stroke-linejoin:round;">
<text x="58831.8" y="43748.1"
textLength="1255.91" font-size="734.908" lengthAdjust="spacingAndGlyphs"
text-anchor="middle" opacity="0">U2</text>
<path d="M58411 43170
L58411 43616
L58438 43669
L58464 43695
L58516 43721
L58621 43721
L58674 43695
L58700 43669
L58726 43616
L58726 43170
" />
<path d="M58963 43223
L58989 43196
L59041 43170
L59173 43170
L59225 43196
L59251 43223
L59277 43275
L59277 43328
L59251 43406
L58936 43721
L59277 43721
" />
</g>
<g style="fill:#000000; fill-opacity:0.0; 
stroke:#000000; stroke-width:118.11; stroke-opacity:1; 
stroke-linecap:round; stroke-linejoin:round;">
<g transform="rotate(-90 55430.2 41921.3)">
<text x="55430.2" y="42236.3"
textLength="1362.2" font-size="839.894" lengthAdjust="spacingAndGlyphs"
text-anchor="middle" opacity="0">U1</text>
</g>
<path d="M55085 42401
L55595 42401
L55655 42371
L55685 42341
L55715 42281
L55715 42161
L55685 42101
L55655 42071
L55595 42041
L55085 42041
" />
<path d="M55715 41411
L55715 41771
" />
<path d="M55715 41591
L55085 41591
L55175 41651
L55235 41711
L55265 41771
" />
<text x="58099.5" y="38803.2"
textLength="1690.85" font-size="1049.87" lengthAdjust="spacingAndGlyphs"
text-anchor="middle" opacity="0">R4</text>
<path d="M57968 38765
L57705 38390
" />
<path d="M57518 38765
L57518 37978
L57818 37978
L57893 38015
L57930 38053
L57968 38128
L57968 38240
L57930 38315
L57893 38353
L57818 38390
L57518 38390
" />
<path d="M58643 38240
L58643 38765
" />
<path d="M58455 37940
L58268 38503
L58755 38503
" />
<g transform="rotate(-90 60548.3 41921.3)">
<text x="60548.3" y="42315"
textLength="1690.85" font-size="1049.87" lengthAdjust="spacingAndGlyphs"
text-anchor="middle" opacity="0">R3</text>
</g>
<path d="M60904 42052
L60529 42315
" />
<path d="M60904 42502
L60117 42502
L60117 42202
L60154 42127
L60192 42090
L60267 42052
L60379 42052
L60454 42090
L60492 42127
L60529 42202
L60529 42502
" />
<path d="M60117 41790
L60117 41302
L60417 41565
L60417 41452
L60454 41377
L60492 41340
L60567 41302
L60754 41302
L60829 41340
L60867 41377
L60904 41452
L60904 41677
L60867 41752
L60829 41790
" />
<text x="53871.2" y="39149.7"
textLength="1690.85" font-size="1049.87" lengthAdjust="spacingAndGlyphs"
text-anchor="middle" opacity="0">R2</text>
<path d="M53739 39112
L53477 38737
" />
<path d="M53289 39112
L53289 38324
L53589 38324
L53664 38362
L53702 38399
L53739 38474
L53739 38587
L53702 38662
L53664 38699
L53589 38737
L53289 38737
" />
<path d="M54039 38399
L54077 38362
L54152 38324
L54339 38324
L54414 38362
L54452 38399
L54489 38474
L54489 38549
L54452 38662
L54002 39112
L54489 39112
" />
<g transform="rotate(-90 50068 40196.9)">
<text x="50068" y="40590.6"
textLength="1690.85" font-size="1049.87" lengthAdjust="spacingAndGlyphs"
text-anchor="middle" opacity="0">R1</text>
</g>
<path d="M50424 40328
L50049 40590
" />
<path d="M50424 40778
L49636 40778
L49636 40478
L49674 40403
L49711 40365
L49786 40328
L49899 40328
L49974 40365
L50011 40403
L50049 40478
L50049 40778
" />
<path d="M50424 39578
L50424 40028
" />
<path d="M50424 39803
L49636 39803
L49749 39878
L49824 39953
L49861 40028
" />
<text x="55430.2" y="47039.4"
textLength="1728.35" font-size="1049.87" lengthAdjust="spacingAndGlyphs"
text-anchor="middle" opacity="0">Q2</text>
<path d="M55355 47076
L55280 47039
L55205 46964
L55092 46851
L55017 46814
L54942 46814
" />
<path d="M54980 47001
L54905 46964
L54830 46889
L54792 46739
L54792 46477
L54830 46327
L54905 46252
L54980 46214
L55130 46214
L55205 46252
L55280 46327
L55317 46477
L55317 46739
L55280 46889
L55205 46964
L55130 47001
L54980 47001
" />
<path d="M55617 46289
L55655 46252
L55730 46214
L55917 46214
L55992 46252
L56030 46289
L56067 46364
L56067 46439
L56030 46551
L55580 47001
L56067 47001
" />
<text x="58579.8" y="47039.4"
textLength="1728.35" font-size="1049.87" lengthAdjust="spacingAndGlyphs"
text-anchor="middle" opacity="0">Q1</text>
<path d="M58504 47076
L58429 47039
L58354 46964
L58242 46851
L58167 46814
L58092 46814
" />
<path d="M58129 47001
L58054 46964
L57979 46889
L57942 46739
L57942 46477
L57979 46327
L58054 46252
L58129 46214
L58279 46214
L58354 46252
L58429 46327
L58467 46477
L58467 46739
L58429 46889
L58354 46964
L58279 47001
L58129 47001
" />
<path d="M59217 47001
L58767 47001
" />
<path d="M58992 47001
L58992 46214
L58917 46327
L58842 46402
L58767 46439
" />
<g transform="rotate(-90 55398.7 44047.3)">
<text x="55398.7" y="44322.9"
textLength="1229.66" font-size="734.908" lengthAdjust="spacingAndGlyphs"
text-anchor="middle" opacity="0">D1</text>
</g>
<path d="M55648 44454
L55096 44454
L55096 44322
L55123 44244
L55175 44191
L55228 44165
L55333 44139
L55411 44139
L55516 44165
L55569 44191
L55621 44244
L55648 44322
L55648 44454
" />
<path d="M55648 43614
L55648 43929
" />
<path d="M55648 43771
L55096 43771
L55175 43824
L55228 43876
L55254 43929
" />
<g transform="rotate(-90 51327.9 40220.5)">
<text x="51327.9" y="40614.2"
textLength="1690.85" font-size="1049.87" lengthAdjust="spacingAndGlyphs"
text-anchor="middle" opacity="0">C4</text>
</g>
<path d="M51609 40351
L51646 40389
L51684 40501
L51684 40576
L51646 40689
L51571 40764
L51496 40801
L51346 40839
L51234 40839
L51084 40801
L51009 40764
L50934 40689
L50896 40576
L50896 40501
L50934 40389
L50971 40351
" />
<path d="M51159 39676
L51684 39676
" />
<path d="M50859 39864
L51421 40051
L51421 39564
" />
<text x="56005" y="38874.1"
textLength="1690.85" font-size="1049.87" lengthAdjust="spacingAndGlyphs"
text-anchor="middle" opacity="0">C3</text>
<path d="M55873 38761
L55836 38799
L55723 38836
L55648 38836
L55536 38799
L55461 38724
L55423 38649
L55386 38499
L55386 38386
L55423 38236
L55461 38161
L55536 38086
L55648 38049
L55723 38049
L55836 38086
L55873 38124
" />
<path d="M56136 38049
L56623 38049
L56361 38349
L56473 38349
L56548 38386
L56586 38424
L56623 38499
L56623 38686
L56586 38761
L56548 38799
L56473 38836
L56248 38836
L56173 38799
L56136 38761
" />
<text x="51099.5" y="45858.3"
textLength="1690.85" font-size="1049.87" lengthAdjust="spacingAndGlyphs"
text-anchor="middle" opacity="0">C2</text>
<path d="M50968 45745
L50930 45783
L50818 45820
L50743 45820
L50630 45783
L50555 45708
L50518 45633
L50480 45483
L50480 45370
L50518 45220
L50555 45145
L50630 45070
L50743 45033
L50818 45033
L50930 45070
L50968 45108
" />
<path d="M51268 45108
L51305 45070
L51380 45033
L51568 45033
L51643 45070
L51680 45108
L51718 45183
L51718 45258
L51680 45370
L51230 45820
L51718 45820
" />
<text x="53249.1" y="46881.9"
textLength="1690.85" font-size="1049.87" lengthAdjust="spacingAndGlyphs"
text-anchor="middle" opacity="0">C1</text>
<path d="M53117 46769
L53080 46806
L52967 46844
L52892 46844
L52780 46806
L52705 46731
L52667 46656
L52630 46506
L52630 46394
L52667 46244
L52705 46169
L52780 46094
L52892 46057
L52967 46057
L53080 46094
L53117 46132
" />
<path d="M53867 46844
L53417 46844
" />
<path d="M53642 46844
L53642 46057
L53567 46169
L53492 46244
L53417 46282
" />
<g >
</g>
</g> 
</svg>
