<?xml version="1.0" standalone="no"?>
 <!DOCTYPE svg PUBLIC "-//W3C//DTD SVG 1.1//EN" 
 "http://www.w3.org/Graphics/SVG/1.1/DTD/svg11.dtd"> 
<svg
  xmlns:svg="http://www.w3.org/2000/svg"
  xmlns="http://www.w3.org/2000/svg"
  xmlns:xlink="http://www.w3.org/1999/xlink"
  version="1.1"
  width="29.700220cm" height="21.000720cm" viewBox="0 0 116930 82680">
<title>SVG Picture created as cargadorDeBateriasLitIon-47-F_CrtYd.svg date 2021/12/18 17:13:55 </title>
  <desc>Picture generated by PCBNEW </desc>
<g style="fill:#000000; fill-opacity:1;stroke:#000000; stroke-opacity:1;
stroke-linecap:round; stroke-linejoin:round;"
 transform="translate(0 0) scale(1 1)">
</g>
<g style="fill:#000000; fill-opacity:0.0; 
stroke:#000000; stroke-width:-0.000787402; stroke-opacity:1; 
stroke-linecap:round; stroke-linejoin:round;">
</g>
<g style="fill:#000000; fill-opacity:0.0; 
stroke:#000000; stroke-width:39.3701; stroke-opacity:1; 
stroke-linecap:round; stroke-linejoin:round;">
<path d="M48343 45464
L48343 47433
" />
<path d="M48737 45070
L48343 45464
" />
<path d="M48737 39559
L48737 45070
" />
<path d="M48343 39165
L48737 39559
" />
<path d="M63697 41527
L63697 37196
" />
<path d="M63304 41921
L63697 41527
" />
<path d="M63304 42708
L63304 41921
" />
<path d="M63697 43102
L63304 42708
" />
<path d="M48343 37196
L63697 37196
" />
<path d="M48343 39165
L48343 37196
" />
<path d="M63697 47433
L48343 47433
" />
<path d="M63697 43102
L63697 47433
" />
<path d="M61926 45661
L63894 45661
" />
<path d="M61926 45661
L61926 47629
" />
<path d="M63894 47629
L63894 45661
" />
<path d="M63894 47629
L61926 47629
" />
<path d="M61926 43299
L63894 43299
" />
<path d="M61926 43299
L61926 45267
" />
<path d="M63894 45267
L63894 43299
" />
<path d="M63894 45267
L61926 45267
" />
<path d="M61926 37000
L63894 37000
" />
<path d="M61926 37000
L61926 38968
" />
<path d="M63894 38968
L63894 37000
" />
<path d="M63894 38968
L61926 38968
" />
<path d="M61926 39362
L63894 39362
" />
<path d="M61926 39362
L61926 41330
" />
<path d="M63894 41330
L63894 39362
" />
<path d="M63894 41330
L61926 41330
" />
<path d="M48146 37000
L50115 37000
" />
<path d="M48146 37000
L48146 38968
" />
<path d="M50115 38968
L50115 37000
" />
<path d="M50115 38968
L48146 38968
" />
<path d="M48146 45661
L50115 45661
" />
<path d="M48146 45661
L48146 47629
" />
<path d="M50115 47629
L50115 45661
" />
<path d="M50115 47629
L48146 47629
" />
<path d="M52060 43393
L52060 40559
" />
<path d="M55052 43393
L52060 43393
" />
<path d="M55052 40559
L55052 43393
" />
<path d="M52060 40559
L55052 40559
" />
<path d="M60674 40275
L58343 40275
" />
<path d="M60674 39126
L60674 40275
" />
<path d="M58343 39126
L60674 39126
" />
<path d="M58343 40275
L58343 39126
" />
<path d="M59816 40685
L59816 43015
" />
<path d="M58666 40685
L59816 40685
" />
<path d="M58666 43015
L58666 40685
" />
<path d="M59816 43015
L58666 43015
" />
<path d="M55036 40456
L52705 40456
" />
<path d="M55036 39307
L55036 40456
" />
<path d="M52705 39307
L55036 39307
" />
<path d="M52705 40456
L52705 39307
" />
<path d="M49445 43409
L49445 41078
" />
<path d="M50595 43409
L49445 43409
" />
<path d="M50595 41078
L50595 43409
" />
<path d="M49445 41078
L50595 41078
" />
<path d="M55619 43795
L58375 43795
" />
<path d="M55619 46472
L55619 43795
" />
<path d="M58375 46472
L55619 46472
" />
<path d="M58375 43795
L58375 46472
" />
<path d="M58548 43795
L61304 43795
" />
<path d="M58548 46472
L58548 43795
" />
<path d="M61304 46472
L58548 46472
" />
<path d="M61304 43795
L61304 46472
" />
<path d="M55052 44661
L52721 44661
" />
<path d="M55052 43511
L55052 44661
" />
<path d="M52721 43511
L55052 43511
" />
<path d="M52721 44661
L52721 43511
" />
<path d="M51926 41078
L51926 43409
" />
<path d="M50776 41078
L51926 41078
" />
<path d="M50776 43409
L50776 41078
" />
<path d="M51926 43409
L50776 43409
" />
<path d="M55729 39126
L58060 39126
" />
<path d="M55729 40275
L55729 39126
" />
<path d="M58060 40275
L55729 40275
" />
<path d="M58060 39126
L58060 40275
" />
<path d="M52524 44692
L50194 44692
" />
<path d="M52524 43543
L52524 44692
" />
<path d="M50194 43543
L52524 43543
" />
<path d="M50194 44692
L50194 43543
" />
<path d="M52083 44787
L54414 44787
" />
<path d="M52083 45937
L52083 44787
" />
<path d="M54414 45937
L52083 45937
" />
<path d="M54414 44787
L54414 45937
" />
<g >
</g>
<g >
</g>
<g >
</g>
<g >
</g>
<g >
</g>
<g >
</g>
<g >
</g>
<g >
</g>
<g >
</g>
<g >
</g>
<g >
</g>
<g >
</g>
<g >
</g>
<g >
</g>
<g >
</g>
<g >
</g>
<g >
</g>
<g >
</g>
<g >
</g>
<g >
</g>
<g >
</g>
</g> 
</svg>
