<?xml version="1.0" standalone="no"?>
 <!DOCTYPE svg PUBLIC "-//W3C//DTD SVG 1.1//EN" 
 "http://www.w3.org/Graphics/SVG/1.1/DTD/svg11.dtd"> 
<svg
  xmlns:svg="http://www.w3.org/2000/svg"
  xmlns="http://www.w3.org/2000/svg"
  xmlns:xlink="http://www.w3.org/1999/xlink"
  version="1.1"
  width="29.700220cm" height="21.000720cm" viewBox="0 0 116930 82680">
<title>SVG Picture created as cargadorDeBateriasLitIon-39-F_Mask.svg date 2021/12/18 17:13:55 </title>
  <desc>Picture generated by PCBNEW </desc>
<g style="fill:#000000; fill-opacity:1;stroke:#000000; stroke-opacity:1;
stroke-linecap:round; stroke-linejoin:round;"
 transform="translate(0 0) scale(1 1)">
</g>
<g style="fill:#000000; fill-opacity:0.0; 
stroke:#000000; stroke-width:-0.000787402; stroke-opacity:1; 
stroke-linecap:round; stroke-linejoin:round;">
</g>
<g style="fill:#000000; fill-opacity:0.0; 
stroke:#000000; stroke-width:39.3701; stroke-opacity:1; 
stroke-linecap:round; stroke-linejoin:round;">
<path d="M48343 45464
L48343 47433
" />
<path d="M48737 45070
L48343 45464
" />
<path d="M48737 39559
L48737 45070
" />
<path d="M48343 39165
L48737 39559
" />
<path d="M63697 41527
L63697 37196
" />
<path d="M63304 41921
L63697 41527
" />
<path d="M63304 42708
L63304 41921
" />
<path d="M63697 43102
L63304 42708
" />
<path d="M48343 37196
L63697 37196
" />
<path d="M48343 39165
L48343 37196
" />
<path d="M63697 47433
L48343 47433
" />
<path d="M63697 43102
L63697 47433
" />
<g >
</g>
<g >
</g>
<g style="fill:#000000; fill-opacity:0.0; 
stroke:#000000; stroke-width:39.3701; stroke-opacity:1; 
stroke-linecap:round; stroke-linejoin:round;">
</g>
<g style="fill:#000000; fill-opacity:0.0; 
stroke:#000000; stroke-width:0; stroke-opacity:1; 
stroke-linecap:round; stroke-linejoin:round;">
</g>
<g style="fill:#000000; fill-opacity:1.0; 
stroke:#000000; stroke-width:0; stroke-opacity:1; 
stroke-linecap:round; stroke-linejoin:round;">
<path style="fill:#000000; fill-opacity:1.0; 
stroke:#000000; stroke-width:0; stroke-opacity:1; 
stroke-linecap:round; stroke-linejoin:round;fill-rule:evenodd;"
d="M 63504.9,46016
63508.8,46016.6
63512.5,46017.5
63516.2,46018.8
63519.6,46020.5
63523,46022.4
63526.1,46024.7
63528.9,46027.3
63531.5,46030.2
63533.8,46033.3
63535.8,46036.6
63537.5,46040.1
63538.8,46043.7
63539.7,46047.5
63540.3,46051.3
63540.5,46055.2
63540.5,47236.3
63540.3,47240.1
63539.7,47244
63538.8,47247.7
63537.5,47251.3
63535.8,47254.8
63533.8,47258.2
63531.5,47261.3
63528.9,47264.1
63526.1,47266.7
63523,47269
63519.6,47271
63516.2,47272.7
63512.5,47274
63508.8,47274.9
63504.9,47275.5
63501.1,47275.7
62320,47275.7
62316.1,47275.5
62312.3,47274.9
62308.6,47274
62304.9,47272.7
62301.4,47271
62298.1,47269
62295,47266.7
62292.1,47264.1
62289.6,47261.3
62287.3,47258.2
62285.3,47254.8
62283.6,47251.3
62282.3,47247.7
62281.4,47244
62280.8,47240.1
62280.6,47236.3
62280.6,46055.2
62280.8,46051.3
62281.4,46047.5
62282.3,46043.7
62283.6,46040.1
62285.3,46036.6
62287.3,46033.3
62289.6,46030.2
62292.1,46027.3
62295,46024.7
62298.1,46022.4
62301.4,46020.5
62304.9,46018.8
62308.6,46017.5
62312.3,46016.6
62316.1,46016
62320,46015.8
63501.1,46015.8
Z" /> 
</g>
<g >
</g>
<g style="fill:#000000; fill-opacity:1.0; 
stroke:#000000; stroke-width:0; stroke-opacity:1; 
stroke-linecap:round; stroke-linejoin:round;">
<path style="fill:#000000; fill-opacity:1.0; 
stroke:#000000; stroke-width:0; stroke-opacity:1; 
stroke-linecap:round; stroke-linejoin:round;fill-rule:evenodd;"
d="M 63504.9,43653.8
63508.8,43654.4
63512.5,43655.3
63516.2,43656.6
63519.6,43658.3
63523,43660.2
63526.1,43662.5
63528.9,43665.1
63531.5,43668
63533.8,43671.1
63535.8,43674.4
63537.5,43677.9
63538.8,43681.5
63539.7,43685.3
63540.3,43689.1
63540.5,43693
63540.5,44874.1
63540.3,44877.9
63539.7,44881.8
63538.8,44885.5
63537.5,44889.1
63535.8,44892.6
63533.8,44895.9
63531.5,44899.1
63528.9,44901.9
63526.1,44904.5
63523,44906.8
63519.6,44908.8
63516.2,44910.4
63512.5,44911.8
63508.8,44912.7
63504.9,44913.3
63501.1,44913.4
62320,44913.4
62316.1,44913.3
62312.3,44912.7
62308.6,44911.8
62304.9,44910.4
62301.4,44908.8
62298.1,44906.8
62295,44904.5
62292.1,44901.9
62289.6,44899.1
62287.3,44895.9
62285.3,44892.6
62283.6,44889.1
62282.3,44885.5
62281.4,44881.8
62280.8,44877.9
62280.6,44874.1
62280.6,43693
62280.8,43689.1
62281.4,43685.3
62282.3,43681.5
62283.6,43677.9
62285.3,43674.4
62287.3,43671.1
62289.6,43668
62292.1,43665.1
62295,43662.5
62298.1,43660.2
62301.4,43658.3
62304.9,43656.6
62308.6,43655.3
62312.3,43654.4
62316.1,43653.8
62320,43653.6
63501.1,43653.6
Z" /> 
</g>
<g >
</g>
<g style="fill:#000000; fill-opacity:1.0; 
stroke:#000000; stroke-width:0; stroke-opacity:1; 
stroke-linecap:round; stroke-linejoin:round;">
<path style="fill:#000000; fill-opacity:1.0; 
stroke:#000000; stroke-width:0; stroke-opacity:1; 
stroke-linecap:round; stroke-linejoin:round;fill-rule:evenodd;"
d="M 63504.9,37354.6
63508.8,37355.1
63512.5,37356.1
63516.2,37357.4
63519.6,37359
63523,37361
63526.1,37363.3
63528.9,37365.9
63531.5,37368.8
63533.8,37371.9
63535.8,37375.2
63537.5,37378.7
63538.8,37382.3
63539.7,37386.1
63540.3,37389.9
63540.5,37393.8
63540.5,38574.9
63540.3,38578.7
63539.7,38582.5
63538.8,38586.3
63537.5,38589.9
63535.8,38593.4
63533.8,38596.7
63531.5,38599.8
63528.9,38602.7
63526.1,38605.3
63523,38607.6
63519.6,38609.6
63516.2,38611.2
63512.5,38612.5
63508.8,38613.5
63504.9,38614
63501.1,38614.2
62320,38614.2
62316.1,38614
62312.3,38613.5
62308.6,38612.5
62304.9,38611.2
62301.4,38609.6
62298.1,38607.6
62295,38605.3
62292.1,38602.7
62289.6,38599.8
62287.3,38596.7
62285.3,38593.4
62283.6,38589.9
62282.3,38586.3
62281.4,38582.5
62280.8,38578.7
62280.6,38574.9
62280.6,37393.8
62280.8,37389.9
62281.4,37386.1
62282.3,37382.3
62283.6,37378.7
62285.3,37375.2
62287.3,37371.9
62289.6,37368.8
62292.1,37365.9
62295,37363.3
62298.1,37361
62301.4,37359
62304.9,37357.4
62308.6,37356.1
62312.3,37355.1
62316.1,37354.6
62320,37354.4
63501.1,37354.4
Z" /> 
</g>
<g >
</g>
<g style="fill:#000000; fill-opacity:1.0; 
stroke:#000000; stroke-width:0; stroke-opacity:1; 
stroke-linecap:round; stroke-linejoin:round;">
<path style="fill:#000000; fill-opacity:1.0; 
stroke:#000000; stroke-width:0; stroke-opacity:1; 
stroke-linecap:round; stroke-linejoin:round;fill-rule:evenodd;"
d="M 63504.9,39716.8
63508.8,39717.4
63512.5,39718.3
63516.2,39719.6
63519.6,39721.2
63523,39723.2
63526.1,39725.5
63528.9,39728.1
63531.5,39731
63533.8,39734.1
63535.8,39737.4
63537.5,39740.9
63538.8,39744.5
63539.7,39748.3
63540.3,39752.1
63540.5,39756
63540.5,40937.1
63540.3,40940.9
63539.7,40944.7
63538.8,40948.5
63537.5,40952.1
63535.8,40955.6
63533.8,40958.9
63531.5,40962
63528.9,40964.9
63526.1,40967.5
63523,40969.8
63519.6,40971.8
63516.2,40973.4
63512.5,40974.7
63508.8,40975.7
63504.9,40976.2
63501.1,40976.4
62320,40976.4
62316.1,40976.2
62312.3,40975.7
62308.6,40974.7
62304.9,40973.4
62301.4,40971.8
62298.1,40969.8
62295,40967.5
62292.1,40964.9
62289.6,40962
62287.3,40958.9
62285.3,40955.6
62283.6,40952.1
62282.3,40948.5
62281.4,40944.7
62280.8,40940.9
62280.6,40937.1
62280.6,39756
62280.8,39752.1
62281.4,39748.3
62282.3,39744.5
62283.6,39740.9
62285.3,39737.4
62287.3,39734.1
62289.6,39731
62292.1,39728.1
62295,39725.5
62298.1,39723.2
62301.4,39721.2
62304.9,39719.6
62308.6,39718.3
62312.3,39717.4
62316.1,39716.8
62320,39716.6
63501.1,39716.6
Z" /> 
</g>
<g >
</g>
<g style="fill:#000000; fill-opacity:1.0; 
stroke:#000000; stroke-width:0; stroke-opacity:1; 
stroke-linecap:round; stroke-linejoin:round;">
<path style="fill:#000000; fill-opacity:1.0; 
stroke:#000000; stroke-width:0; stroke-opacity:1; 
stroke-linecap:round; stroke-linejoin:round;fill-rule:evenodd;"
d="M 49725.4,37354.6
49729.2,37355.1
49733,37356.1
49736.6,37357.4
49740.1,37359
49743.4,37361
49746.5,37363.3
49749.4,37365.9
49752,37368.8
49754.3,37371.9
49756.3,37375.2
49757.9,37378.7
49759.2,37382.3
49760.2,37386.1
49760.7,37389.9
49760.9,37393.8
49760.9,38574.9
49760.7,38578.7
49760.2,38582.5
49759.2,38586.3
49757.9,38589.9
49756.3,38593.4
49754.3,38596.7
49752,38599.8
49749.4,38602.7
49746.5,38605.3
49743.4,38607.6
49740.1,38609.6
49736.6,38611.2
49733,38612.5
49729.2,38613.5
49725.4,38614
49721.6,38614.2
48540.5,38614.2
48536.6,38614
48532.8,38613.5
48529,38612.5
48525.4,38611.2
48521.9,38609.6
48518.6,38607.6
48515.5,38605.3
48512.6,38602.7
48510,38599.8
48507.7,38596.7
48505.7,38593.4
48504.1,38589.9
48502.8,38586.3
48501.8,38582.5
48501.3,38578.7
48501.1,38574.9
48501.1,37393.8
48501.3,37389.9
48501.8,37386.1
48502.8,37382.3
48504.1,37378.7
48505.7,37375.2
48507.7,37371.9
48510,37368.8
48512.6,37365.9
48515.5,37363.3
48518.6,37361
48521.9,37359
48525.4,37357.4
48529,37356.1
48532.8,37355.1
48536.6,37354.6
48540.5,37354.4
49721.6,37354.4
Z" /> 
</g>
<g >
</g>
<g style="fill:#000000; fill-opacity:1.0; 
stroke:#000000; stroke-width:0; stroke-opacity:1; 
stroke-linecap:round; stroke-linejoin:round;">
<path style="fill:#000000; fill-opacity:1.0; 
stroke:#000000; stroke-width:0; stroke-opacity:1; 
stroke-linecap:round; stroke-linejoin:round;fill-rule:evenodd;"
d="M 49725.4,46016
49729.2,46016.6
49733,46017.5
49736.6,46018.8
49740.1,46020.5
49743.4,46022.4
49746.5,46024.7
49749.4,46027.3
49752,46030.2
49754.3,46033.3
49756.3,46036.6
49757.9,46040.1
49759.2,46043.7
49760.2,46047.5
49760.7,46051.3
49760.9,46055.2
49760.9,47236.3
49760.7,47240.1
49760.2,47244
49759.2,47247.7
49757.9,47251.3
49756.3,47254.8
49754.3,47258.2
49752,47261.3
49749.4,47264.1
49746.5,47266.7
49743.4,47269
49740.1,47271
49736.6,47272.7
49733,47274
49729.2,47274.9
49725.4,47275.5
49721.6,47275.7
48540.5,47275.7
48536.6,47275.5
48532.8,47274.9
48529,47274
48525.4,47272.7
48521.9,47271
48518.6,47269
48515.5,47266.7
48512.6,47264.1
48510,47261.3
48507.7,47258.2
48505.7,47254.8
48504.1,47251.3
48502.8,47247.7
48501.8,47244
48501.3,47240.1
48501.1,47236.3
48501.1,46055.2
48501.3,46051.3
48501.8,46047.5
48502.8,46043.7
48504.1,46040.1
48505.7,46036.6
48507.7,46033.3
48510,46030.2
48512.6,46027.3
48515.5,46024.7
48518.6,46022.4
48521.9,46020.5
48525.4,46018.8
48529,46017.5
48532.8,46016.6
48536.6,46016
48540.5,46015.8
49721.6,46015.8
Z" /> 
</g>
<g >
</g>
<g style="fill:#000000; fill-opacity:1.0; 
stroke:#000000; stroke-width:0; stroke-opacity:1; 
stroke-linecap:round; stroke-linejoin:round;">
<path style="fill:#000000; fill-opacity:1.0; 
stroke:#000000; stroke-width:0; stroke-opacity:1; 
stroke-linecap:round; stroke-linejoin:round;fill-rule:evenodd;"
d="M 58162.4,42575.1
58166.3,42575.6
58170,42576.6
58173.6,42577.9
58177.1,42579.5
58180.4,42581.5
58183.5,42583.8
58186.4,42586.4
58189,42589.3
58191.3,42592.4
58193.3,42595.7
58194.9,42599.2
58196.2,42602.8
58197.2,42606.6
58197.7,42610.4
58197.9,42614.2
58197.9,43244.2
58197.7,43248
58197.2,43251.8
58196.2,43255.6
58194.9,43259.2
58193.3,43262.7
58191.3,43266
58189,43269.1
58186.4,43272
58183.5,43274.6
58180.4,43276.9
58177.1,43278.9
58173.6,43280.5
58170,43281.8
58166.3,43282.8
58162.4,43283.3
58158.6,43283.5
57725.5,43283.5
57721.6,43283.3
57717.8,43282.8
57714.1,43281.8
57710.4,43280.5
57706.9,43278.9
57703.6,43276.9
57700.5,43274.6
57697.7,43272
57695.1,43269.1
57692.8,43266
57690.8,43262.7
57689.1,43259.2
57687.8,43255.6
57686.9,43251.8
57686.3,43248
57686.1,43244.2
57686.1,42614.2
57686.3,42610.4
57686.9,42606.6
57687.8,42602.8
57689.1,42599.2
57690.8,42595.7
57692.8,42592.4
57695.1,42589.3
57697.7,42586.4
57700.5,42583.8
57703.6,42581.5
57706.9,42579.5
57710.4,42577.9
57714.1,42576.6
57717.8,42575.6
57721.6,42575.1
57725.5,42574.9
58158.6,42574.9
Z" /> 
<path style="fill:#000000; fill-opacity:1.0; 
stroke:#000000; stroke-width:0; stroke-opacity:1; 
stroke-linecap:round; stroke-linejoin:round;fill-rule:evenodd;"
d="M 56666.4,42575.1
56670.2,42575.6
56673.9,42576.6
56677.6,42577.9
56681.1,42579.5
56684.4,42581.5
56687.5,42583.8
56690.3,42586.4
56692.9,42589.3
56695.2,42592.4
56697.2,42595.7
56698.9,42599.2
56700.2,42602.8
56701.1,42606.6
56701.7,42610.4
56701.9,42614.2
56701.9,43244.2
56701.7,43248
56701.1,43251.8
56700.2,43255.6
56698.9,43259.2
56697.2,43262.7
56695.2,43266
56692.9,43269.1
56690.3,43272
56687.5,43274.6
56684.4,43276.9
56681.1,43278.9
56677.6,43280.5
56673.9,43281.8
56670.2,43282.8
56666.4,43283.3
56662.5,43283.5
56229.4,43283.5
56225.6,43283.3
56221.8,43282.8
56218,43281.8
56214.4,43280.5
56210.9,43278.9
56207.6,43276.9
56204.5,43274.6
56201.6,43272
56199,43269.1
56196.7,43266
56194.7,43262.7
56193.1,43259.2
56191.8,43255.6
56190.8,43251.8
56190.3,43248
56190.1,43244.2
56190.1,42614.2
56190.3,42610.4
56190.8,42606.6
56191.8,42602.8
56193.1,42599.2
56194.7,42595.7
56196.7,42592.4
56199,42589.3
56201.6,42586.4
56204.5,42583.8
56207.6,42581.5
56210.9,42579.5
56214.4,42577.9
56218,42576.6
56221.8,42575.6
56225.6,42575.1
56229.4,42574.9
56662.5,42574.9
Z" /> 
<path style="fill:#000000; fill-opacity:1.0; 
stroke:#000000; stroke-width:0; stroke-opacity:1; 
stroke-linecap:round; stroke-linejoin:round;fill-rule:evenodd;"
d="M 56666.4,40685.3
56670.2,40685.9
56673.9,40686.8
56677.6,40688.1
56681.1,40689.7
56684.4,40691.7
56687.5,40694
56690.3,40696.6
56692.9,40699.5
56695.2,40702.6
56697.2,40705.9
56698.9,40709.4
56700.2,40713
56701.1,40716.8
56701.7,40720.6
56701.9,40724.5
56701.9,41354.4
56701.7,41358.2
56701.1,41362.1
56700.2,41365.8
56698.9,41369.5
56697.2,41372.9
56695.2,41376.3
56692.9,41379.4
56690.3,41382.2
56687.5,41384.8
56684.4,41387.1
56681.1,41389.1
56677.6,41390.8
56673.9,41392.1
56670.2,41393
56666.4,41393.6
56662.5,41393.8
56229.4,41393.8
56225.6,41393.6
56221.8,41393
56218,41392.1
56214.4,41390.8
56210.9,41389.1
56207.6,41387.1
56204.5,41384.8
56201.6,41382.2
56199,41379.4
56196.7,41376.3
56194.7,41372.9
56193.1,41369.5
56191.8,41365.8
56190.8,41362.1
56190.3,41358.2
56190.1,41354.4
56190.1,40724.5
56190.3,40720.6
56190.8,40716.8
56191.8,40713
56193.1,40709.4
56194.7,40705.9
56196.7,40702.6
56199,40699.5
56201.6,40696.6
56204.5,40694
56207.6,40691.7
56210.9,40689.7
56214.4,40688.1
56218,40686.8
56221.8,40685.9
56225.6,40685.3
56229.4,40685.1
56662.5,40685.1
Z" /> 
<path style="fill:#000000; fill-opacity:1.0; 
stroke:#000000; stroke-width:0; stroke-opacity:1; 
stroke-linecap:round; stroke-linejoin:round;fill-rule:evenodd;"
d="M 57414.4,40685.3
57418.2,40685.9
57422,40686.8
57425.6,40688.1
57429.1,40689.7
57432.4,40691.7
57435.5,40694
57438.4,40696.6
57441,40699.5
57443.3,40702.6
57445.3,40705.9
57446.9,40709.4
57448.2,40713
57449.2,40716.8
57449.7,40720.6
57449.9,40724.5
57449.9,41354.4
57449.7,41358.2
57449.2,41362.1
57448.2,41365.8
57446.9,41369.5
57445.3,41372.9
57443.3,41376.3
57441,41379.4
57438.4,41382.2
57435.5,41384.8
57432.4,41387.1
57429.1,41389.1
57425.6,41390.8
57422,41392.1
57418.2,41393
57414.4,41393.6
57410.5,41393.8
56977.5,41393.8
56973.6,41393.6
56969.8,41393
56966,41392.1
56962.4,41390.8
56958.9,41389.1
56955.6,41387.1
56952.5,41384.8
56949.6,41382.2
56947,41379.4
56944.7,41376.3
56942.7,41372.9
56941.1,41369.5
56939.8,41365.8
56938.9,41362.1
56938.3,41358.2
56938.1,41354.4
56938.1,40724.5
56938.3,40720.6
56938.9,40716.8
56939.8,40713
56941.1,40709.4
56942.7,40705.9
56944.7,40702.6
56947,40699.5
56949.6,40696.6
56952.5,40694
56955.6,40691.7
56958.9,40689.7
56962.4,40688.1
56966,40686.8
56969.8,40685.9
56973.6,40685.3
56977.5,40685.1
57410.5,40685.1
Z" /> 
<path style="fill:#000000; fill-opacity:1.0; 
stroke:#000000; stroke-width:0; stroke-opacity:1; 
stroke-linecap:round; stroke-linejoin:round;fill-rule:evenodd;"
d="M 58162.4,40685.3
58166.3,40685.9
58170,40686.8
58173.6,40688.1
58177.1,40689.7
58180.4,40691.7
58183.5,40694
58186.4,40696.6
58189,40699.5
58191.3,40702.6
58193.3,40705.9
58194.9,40709.4
58196.2,40713
58197.2,40716.8
58197.7,40720.6
58197.9,40724.5
58197.9,41354.4
58197.7,41358.2
58197.2,41362.1
58196.2,41365.8
58194.9,41369.5
58193.3,41372.9
58191.3,41376.3
58189,41379.4
58186.4,41382.2
58183.5,41384.8
58180.4,41387.1
58177.1,41389.1
58173.6,41390.8
58170,41392.1
58166.3,41393
58162.4,41393.6
58158.6,41393.8
57725.5,41393.8
57721.6,41393.6
57717.8,41393
57714.1,41392.1
57710.4,41390.8
57706.9,41389.1
57703.6,41387.1
57700.5,41384.8
57697.7,41382.2
57695.1,41379.4
57692.8,41376.3
57690.8,41372.9
57689.1,41369.5
57687.8,41365.8
57686.9,41362.1
57686.3,41358.2
57686.1,41354.4
57686.1,40724.5
57686.3,40720.6
57686.9,40716.8
57687.8,40713
57689.1,40709.4
57690.8,40705.9
57692.8,40702.6
57695.1,40699.5
57697.7,40696.6
57700.5,40694
57703.6,40691.7
57706.9,40689.7
57710.4,40688.1
57714.1,40686.8
57717.8,40685.9
57721.6,40685.3
57725.5,40685.1
58158.6,40685.1
Z" /> 
</g>
<g >
</g>
<g style="fill:#000000; fill-opacity:1.0; 
stroke:#000000; stroke-width:0; stroke-opacity:1; 
stroke-linecap:round; stroke-linejoin:round;">
<path style="fill:#000000; fill-opacity:1.0; 
stroke:#000000; stroke-width:0; stroke-opacity:1; 
stroke-linecap:round; stroke-linejoin:round;fill-rule:evenodd;"
d="M 54843.5,40933.3
54847.4,40933.9
54851.1,40934.8
54854.7,40936.1
54858.2,40937.8
54861.5,40939.8
54864.6,40942.1
54867.5,40944.7
54870.1,40947.5
54872.4,40950.6
54874.4,40953.9
54876,40957.4
54877.3,40961.1
54878.3,40964.8
54878.9,40968.6
54879,40972.5
54879,41484.3
54878.9,41488.2
54878.3,41492
54877.3,41495.7
54876,41499.4
54874.4,41502.9
54872.4,41506.2
54870.1,41509.3
54867.5,41512.2
54864.6,41514.7
54861.5,41517
54858.2,41519
54854.7,41520.7
54851.1,41522
54847.4,41522.9
54843.5,41523.5
54839.7,41523.7
54005,41523.7
54001.2,41523.5
53997.3,41522.9
53993.6,41522
53990,41520.7
53986.5,41519
53983.2,41517
53980,41514.7
53977.2,41512.2
53974.6,41509.3
53972.3,41506.2
53970.3,41502.9
53968.7,41499.4
53967.4,41495.7
53966.4,41492
53965.8,41488.2
53965.7,41484.3
53965.7,40972.5
53965.8,40968.6
53966.4,40964.8
53967.4,40961.1
53968.7,40957.4
53970.3,40953.9
53972.3,40950.6
53974.6,40947.5
53977.2,40944.7
53980,40942.1
53983.2,40939.8
53986.5,40937.8
53990,40936.1
53993.6,40934.8
53997.3,40933.9
54001.2,40933.3
54005,40933.1
54839.7,40933.1
Z" /> 
<path style="fill:#000000; fill-opacity:1.0; 
stroke:#000000; stroke-width:0; stroke-opacity:1; 
stroke-linecap:round; stroke-linejoin:round;fill-rule:evenodd;"
d="M 54843.5,42429.4
54847.4,42430
54851.1,42430.9
54854.7,42432.2
54858.2,42433.8
54861.5,42435.8
54864.6,42438.1
54867.5,42440.7
54870.1,42443.6
54872.4,42446.7
54874.4,42450
54876,42453.5
54877.3,42457.1
54878.3,42460.9
54878.9,42464.7
54879,42468.6
54879,42980.4
54878.9,42984.2
54878.3,42988.1
54877.3,42991.8
54876,42995.4
54874.4,42998.9
54872.4,43002.2
54870.1,43005.4
54867.5,43008.2
54864.6,43010.8
54861.5,43013.1
54858.2,43015.1
54854.7,43016.7
54851.1,43018
54847.4,43019
54843.5,43019.6
54839.7,43019.7
54005,43019.7
54001.2,43019.6
53997.3,43019
53993.6,43018
53990,43016.7
53986.5,43015.1
53983.2,43013.1
53980,43010.8
53977.2,43008.2
53974.6,43005.4
53972.3,43002.2
53970.3,42998.9
53968.7,42995.4
53967.4,42991.8
53966.4,42988.1
53965.8,42984.2
53965.7,42980.4
53965.7,42468.6
53965.8,42464.7
53966.4,42460.9
53967.4,42457.1
53968.7,42453.5
53970.3,42450
53972.3,42446.7
53974.6,42443.6
53977.2,42440.7
53980,42438.1
53983.2,42435.8
53986.5,42433.8
53990,42432.2
53993.6,42430.9
53997.3,42430
54001.2,42429.4
54005,42429.2
54839.7,42429.2
Z" /> 
<path style="fill:#000000; fill-opacity:1.0; 
stroke:#000000; stroke-width:0; stroke-opacity:1; 
stroke-linecap:round; stroke-linejoin:round;fill-rule:evenodd;"
d="M 53111.2,42429.4
53115.1,42430
53118.8,42430.9
53122.5,42432.2
53125.9,42433.8
53129.3,42435.8
53132.4,42438.1
53135.2,42440.7
53137.8,42443.6
53140.1,42446.7
53142.1,42450
53143.8,42453.5
53145.1,42457.1
53146,42460.9
53146.6,42464.7
53146.8,42468.6
53146.8,42980.4
53146.6,42984.2
53146,42988.1
53145.1,42991.8
53143.8,42995.4
53142.1,42998.9
53140.1,43002.2
53137.8,43005.4
53135.2,43008.2
53132.4,43010.8
53129.3,43013.1
53125.9,43015.1
53122.5,43016.7
53118.8,43018
53115.1,43019
53111.2,43019.6
53107.4,43019.7
52272.7,43019.7
52268.9,43019.6
52265.1,43019
52261.3,43018
52257.7,43016.7
52254.2,43015.1
52250.9,43013.1
52247.8,43010.8
52244.9,43008.2
52242.3,43005.4
52240,43002.2
52238,42998.9
52236.4,42995.4
52235.1,42991.8
52234.1,42988.1
52233.6,42984.2
52233.4,42980.4
52233.4,42468.6
52233.6,42464.7
52234.1,42460.9
52235.1,42457.1
52236.4,42453.5
52238,42450
52240,42446.7
52242.3,42443.6
52244.9,42440.7
52247.8,42438.1
52250.9,42435.8
52254.2,42433.8
52257.7,42432.2
52261.3,42430.9
52265.1,42430
52268.9,42429.4
52272.7,42429.2
53107.4,42429.2
Z" /> 
<path style="fill:#000000; fill-opacity:1.0; 
stroke:#000000; stroke-width:0; stroke-opacity:1; 
stroke-linecap:round; stroke-linejoin:round;fill-rule:evenodd;"
d="M 53111.2,41681.4
53115.1,41681.9
53118.8,41682.9
53122.5,41684.2
53125.9,41685.8
53129.3,41687.8
53132.4,41690.1
53135.2,41692.7
53137.8,41695.6
53140.1,41698.7
53142.1,41702
53143.8,41705.5
53145.1,41709.1
53146,41712.9
53146.6,41716.7
53146.8,41720.5
53146.8,42232.3
53146.6,42236.2
53146,42240
53145.1,42243.8
53143.8,42247.4
53142.1,42250.9
53140.1,42254.2
53137.8,42257.3
53135.2,42260.2
53132.4,42262.8
53129.3,42265.1
53125.9,42267.1
53122.5,42268.7
53118.8,42270
53115.1,42271
53111.2,42271.5
53107.4,42271.7
52272.7,42271.7
52268.9,42271.5
52265.1,42271
52261.3,42270
52257.7,42268.7
52254.2,42267.1
52250.9,42265.1
52247.8,42262.8
52244.9,42260.2
52242.3,42257.3
52240,42254.2
52238,42250.9
52236.4,42247.4
52235.1,42243.8
52234.1,42240
52233.6,42236.2
52233.4,42232.3
52233.4,41720.5
52233.6,41716.7
52234.1,41712.9
52235.1,41709.1
52236.4,41705.5
52238,41702
52240,41698.7
52242.3,41695.6
52244.9,41692.7
52247.8,41690.1
52250.9,41687.8
52254.2,41685.8
52257.7,41684.2
52261.3,41682.9
52265.1,41681.9
52268.9,41681.4
52272.7,41681.2
53107.4,41681.2
Z" /> 
<path style="fill:#000000; fill-opacity:1.0; 
stroke:#000000; stroke-width:0; stroke-opacity:1; 
stroke-linecap:round; stroke-linejoin:round;fill-rule:evenodd;"
d="M 53111.2,40933.3
53115.1,40933.9
53118.8,40934.8
53122.5,40936.1
53125.9,40937.8
53129.3,40939.8
53132.4,40942.1
53135.2,40944.7
53137.8,40947.5
53140.1,40950.6
53142.1,40953.9
53143.8,40957.4
53145.1,40961.1
53146,40964.8
53146.6,40968.6
53146.8,40972.5
53146.8,41484.3
53146.6,41488.2
53146,41492
53145.1,41495.7
53143.8,41499.4
53142.1,41502.9
53140.1,41506.2
53137.8,41509.3
53135.2,41512.2
53132.4,41514.7
53129.3,41517
53125.9,41519
53122.5,41520.7
53118.8,41522
53115.1,41522.9
53111.2,41523.5
53107.4,41523.7
52272.7,41523.7
52268.9,41523.5
52265.1,41522.9
52261.3,41522
52257.7,41520.7
52254.2,41519
52250.9,41517
52247.8,41514.7
52244.9,41512.2
52242.3,41509.3
52240,41506.2
52238,41502.9
52236.4,41499.4
52235.1,41495.7
52234.1,41492
52233.6,41488.2
52233.4,41484.3
52233.4,40972.5
52233.6,40968.6
52234.1,40964.8
52235.1,40961.1
52236.4,40957.4
52238,40953.9
52240,40950.6
52242.3,40947.5
52244.9,40944.7
52247.8,40942.1
52250.9,40939.8
52254.2,40937.8
52257.7,40936.1
52261.3,40934.8
52265.1,40933.9
52268.9,40933.3
52272.7,40933.1
53107.4,40933.1
Z" /> 
</g>
<g >
</g>
<g style="fill:#000000; fill-opacity:1.0; 
stroke:#000000; stroke-width:0; stroke-opacity:1; 
stroke-linecap:round; stroke-linejoin:round;">
<path style="fill:#000000; fill-opacity:1.0; 
stroke:#000000; stroke-width:0; stroke-opacity:1; 
stroke-linecap:round; stroke-linejoin:round;fill-rule:evenodd;"
d="M 60339.8,39288.4
60358.4,39291.1
60376.7,39295.7
60394.4,39302.1
60411.4,39310.1
60427.6,39319.8
60442.7,39331
60456.7,39343.7
60469.3,39357.6
60480.6,39372.8
60490.2,39388.9
60498.3,39405.9
60504.6,39423.7
60509.2,39441.9
60512,39460.6
60512.9,39479.4
60512.9,39922.3
60512,39941.1
60509.2,39959.7
60504.6,39978
60498.3,39995.8
60490.2,40012.8
60480.6,40028.9
60469.3,40044.1
60456.7,40058
60442.7,40070.7
60427.6,40081.9
60411.4,40091.6
60394.4,40099.6
60376.7,40106
60358.4,40110.5
60339.8,40113.3
60321,40114.2
59937.1,40114.2
59918.3,40113.3
59899.7,40110.5
59881.4,40106
59863.7,40099.6
59846.6,40091.6
59830.5,40081.9
59815.4,40070.7
59801.4,40058
59788.7,40044.1
59777.5,40028.9
59767.8,40012.8
59759.8,39995.8
59753.4,39978
59748.9,39959.7
59746.1,39941.1
59745.2,39922.3
59745.2,39479.4
59746.1,39460.6
59748.9,39441.9
59753.4,39423.7
59759.8,39405.9
59767.8,39388.9
59777.5,39372.8
59788.7,39357.6
59801.4,39343.7
59815.4,39331
59830.5,39319.8
59846.6,39310.1
59863.7,39302.1
59881.4,39295.7
59899.7,39291.1
59918.3,39288.4
59937.1,39287.5
60321,39287.5
Z" /> 
<path style="fill:#000000; fill-opacity:1.0; 
stroke:#000000; stroke-width:0; stroke-opacity:1; 
stroke-linecap:round; stroke-linejoin:round;fill-rule:evenodd;"
d="M 59099.6,39288.4
59118.3,39291.1
59136.5,39295.7
59154.3,39302.1
59171.3,39310.1
59187.4,39319.8
59202.6,39331
59216.5,39343.7
59229.2,39357.6
59240.4,39372.8
59250.1,39388.9
59258.1,39405.9
59264.5,39423.7
59269.1,39441.9
59271.8,39460.6
59272.7,39479.4
59272.7,39922.3
59271.8,39941.1
59269.1,39959.7
59264.5,39978
59258.1,39995.8
59250.1,40012.8
59240.4,40028.9
59229.2,40044.1
59216.5,40058
59202.6,40070.7
59187.4,40081.9
59171.3,40091.6
59154.3,40099.6
59136.5,40106
59118.3,40110.5
59099.6,40113.3
59080.8,40114.2
58697,40114.2
58678.1,40113.3
58659.5,40110.5
58641.2,40106
58623.5,40099.6
58606.5,40091.6
58590.3,40081.9
58575.2,40070.7
58561.2,40058
58548.6,40044.1
58537.4,40028.9
58527.7,40012.8
58519.6,39995.8
58513.3,39978
58508.7,39959.7
58506,39941.1
58505,39922.3
58505,39479.4
58506,39460.6
58508.7,39441.9
58513.3,39423.7
58519.6,39405.9
58527.7,39388.9
58537.4,39372.8
58548.6,39357.6
58561.2,39343.7
58575.2,39331
58590.3,39319.8
58606.5,39310.1
58623.5,39302.1
58641.2,39295.7
58659.5,39291.1
58678.1,39288.4
58697,39287.5
59080.8,39287.5
Z" /> 
</g>
<g >
</g>
<g style="fill:#000000; fill-opacity:1.0; 
stroke:#000000; stroke-width:0; stroke-opacity:1; 
stroke-linecap:round; stroke-linejoin:round;">
<path style="fill:#000000; fill-opacity:1.0; 
stroke:#000000; stroke-width:0; stroke-opacity:1; 
stroke-linecap:round; stroke-linejoin:round;fill-rule:evenodd;"
d="M 59481.5,40847.4
59500.1,40850.2
59518.4,40854.8
59536.2,40861.1
59553.2,40869.2
59569.3,40878.9
59584.5,40890.1
59598.4,40902.7
59611.1,40916.7
59622.3,40931.8
59632,40948
59640,40965
59646.4,40982.7
59650.9,41001
59653.7,41019.6
59654.6,41038.4
59654.6,41422.3
59653.7,41441.1
59650.9,41459.7
59646.4,41478
59640,41495.8
59632,41512.8
59622.3,41528.9
59611.1,41544.1
59598.4,41558
59584.5,41570.7
59569.3,41581.9
59553.2,41591.6
59536.2,41599.6
59518.4,41606
59500.1,41610.5
59481.5,41613.3
59462.7,41614.2
59019.8,41614.2
59001,41613.3
58982.3,41610.5
58964.1,41606
58946.3,41599.6
58929.3,41591.6
58913.2,41581.9
58898,41570.7
58884.1,41558
58871.4,41544.1
58860.2,41528.9
58850.5,41512.8
58842.5,41495.8
58836.1,41478
58831.5,41459.7
58828.8,41441.1
58827.9,41422.3
58827.9,41038.4
58828.8,41019.6
58831.5,41001
58836.1,40982.7
58842.5,40965
58850.5,40948
58860.2,40931.8
58871.4,40916.7
58884.1,40902.7
58898,40890.1
58913.2,40878.9
58929.3,40869.2
58946.3,40861.1
58964.1,40854.8
58982.3,40850.2
59001,40847.4
59019.8,40846.5
59462.7,40846.5
Z" /> 
<path style="fill:#000000; fill-opacity:1.0; 
stroke:#000000; stroke-width:0; stroke-opacity:1; 
stroke-linecap:round; stroke-linejoin:round;fill-rule:evenodd;"
d="M 59481.5,42087.6
59500.1,42090.4
59518.4,42094.9
59536.2,42101.3
59553.2,42109.3
59569.3,42119
59584.5,42130.2
59598.4,42142.9
59611.1,42156.8
59622.3,42172
59632,42188.1
59640,42205.2
59646.4,42222.9
59650.9,42241.2
59653.7,42259.8
59654.6,42278.6
59654.6,42662.5
59653.7,42681.3
59650.9,42699.9
59646.4,42718.2
59640,42735.9
59632,42752.9
59622.3,42769.1
59611.1,42784.2
59598.4,42798.2
59584.5,42810.8
59569.3,42822
59553.2,42831.7
59536.2,42839.8
59518.4,42846.1
59500.1,42850.7
59481.5,42853.5
59462.7,42854.4
59019.8,42854.4
59001,42853.5
58982.3,42850.7
58964.1,42846.1
58946.3,42839.8
58929.3,42831.7
58913.2,42822
58898,42810.8
58884.1,42798.2
58871.4,42784.2
58860.2,42769.1
58850.5,42752.9
58842.5,42735.9
58836.1,42718.2
58831.5,42699.9
58828.8,42681.3
58827.9,42662.5
58827.9,42278.6
58828.8,42259.8
58831.5,42241.2
58836.1,42222.9
58842.5,42205.2
58850.5,42188.1
58860.2,42172
58871.4,42156.8
58884.1,42142.9
58898,42130.2
58913.2,42119
58929.3,42109.3
58946.3,42101.3
58964.1,42094.9
58982.3,42090.4
59001,42087.6
59019.8,42086.7
59462.7,42086.7
Z" /> 
</g>
<g >
</g>
<g style="fill:#000000; fill-opacity:1.0; 
stroke:#000000; stroke-width:0; stroke-opacity:1; 
stroke-linecap:round; stroke-linejoin:round;">
<path style="fill:#000000; fill-opacity:1.0; 
stroke:#000000; stroke-width:0; stroke-opacity:1; 
stroke-linecap:round; stroke-linejoin:round;fill-rule:evenodd;"
d="M 54702,39469.5
54720.6,39472.3
54738.9,39476.8
54756.6,39483.2
54773.7,39491.2
54789.8,39500.9
54804.9,39512.1
54818.9,39524.8
54831.5,39538.7
54842.8,39553.9
54852.4,39570
54860.5,39587
54866.8,39604.8
54871.4,39623
54874.2,39641.7
54875.1,39660.5
54875.1,40103.4
54874.2,40122.2
54871.4,40140.8
54866.8,40159.1
54860.5,40176.9
54852.4,40193.9
54842.8,40210
54831.5,40225.2
54818.9,40239.1
54804.9,40251.8
54789.8,40263
54773.7,40272.7
54756.6,40280.7
54738.9,40287.1
54720.6,40291.6
54702,40294.4
54683.2,40295.3
54299.3,40295.3
54280.5,40294.4
54261.9,40291.6
54243.6,40287.1
54225.9,40280.7
54208.8,40272.7
54192.7,40263
54177.6,40251.8
54163.6,40239.1
54151,40225.2
54139.7,40210
54130.1,40193.9
54122,40176.9
54115.7,40159.1
54111.1,40140.8
54108.3,40122.2
54107.4,40103.4
54107.4,39660.5
54108.3,39641.7
54111.1,39623
54115.7,39604.8
54122,39587
54130.1,39570
54139.7,39553.9
54151,39538.7
54163.6,39524.8
54177.6,39512.1
54192.7,39500.9
54208.8,39491.2
54225.9,39483.2
54243.6,39476.8
54261.9,39472.3
54280.5,39469.5
54299.3,39468.6
54683.2,39468.6
Z" /> 
<path style="fill:#000000; fill-opacity:1.0; 
stroke:#000000; stroke-width:0; stroke-opacity:1; 
stroke-linecap:round; stroke-linejoin:round;fill-rule:evenodd;"
d="M 53461.8,39469.5
53480.5,39472.3
53498.7,39476.8
53516.5,39483.2
53533.5,39491.2
53549.6,39500.9
53564.8,39512.1
53578.7,39524.8
53591.4,39538.7
53602.6,39553.9
53612.3,39570
53620.3,39587
53626.7,39604.8
53631.3,39623
53634,39641.7
53634.9,39660.5
53634.9,40103.4
53634,40122.2
53631.3,40140.8
53626.7,40159.1
53620.3,40176.9
53612.3,40193.9
53602.6,40210
53591.4,40225.2
53578.7,40239.1
53564.8,40251.8
53549.6,40263
53533.5,40272.7
53516.5,40280.7
53498.7,40287.1
53480.5,40291.6
53461.8,40294.4
53443,40295.3
53059.2,40295.3
53040.3,40294.4
53021.7,40291.6
53003.4,40287.1
52985.7,40280.7
52968.7,40272.7
52952.5,40263
52937.4,40251.8
52923.4,40239.1
52910.8,40225.2
52899.6,40210
52889.9,40193.9
52881.8,40176.9
52875.5,40159.1
52870.9,40140.8
52868.2,40122.2
52867.2,40103.4
52867.2,39660.5
52868.2,39641.7
52870.9,39623
52875.5,39604.8
52881.8,39587
52889.9,39570
52899.6,39553.9
52910.8,39538.7
52923.4,39524.8
52937.4,39512.1
52952.5,39500.9
52968.7,39491.2
52985.7,39483.2
53003.4,39476.8
53021.7,39472.3
53040.3,39469.5
53059.2,39468.6
53443,39468.6
Z" /> 
</g>
<g >
</g>
<g style="fill:#000000; fill-opacity:1.0; 
stroke:#000000; stroke-width:0; stroke-opacity:1; 
stroke-linecap:round; stroke-linejoin:round;">
<path style="fill:#000000; fill-opacity:1.0; 
stroke:#000000; stroke-width:0; stroke-opacity:1; 
stroke-linecap:round; stroke-linejoin:round;fill-rule:evenodd;"
d="M 50261,42481.3
50279.7,42484.1
50297.9,42488.6
50315.7,42495
50332.7,42503
50348.9,42512.7
50364,42523.9
50377.9,42536.6
50390.6,42550.5
50401.8,42565.7
50411.5,42581.8
50419.6,42598.9
50425.9,42616.6
50430.5,42634.9
50433.2,42653.5
50434.2,42672.3
50434.2,43056.2
50433.2,43075
50430.5,43093.6
50425.9,43111.9
50419.6,43129.6
50411.5,43146.6
50401.8,43162.8
50390.6,43177.9
50377.9,43191.9
50364,43204.5
50348.9,43215.7
50332.7,43225.4
50315.7,43233.5
50297.9,43239.8
50279.7,43244.4
50261,43247.2
50242.2,43248.1
49799.3,43248.1
49780.5,43247.2
49761.9,43244.4
49743.6,43239.8
49725.9,43233.5
49708.8,43225.4
49692.7,43215.7
49677.6,43204.5
49663.6,43191.9
49651,43177.9
49639.7,43162.8
49630.1,43146.6
49622,43129.6
49615.7,43111.9
49611.1,43093.6
49608.3,43075
49607.4,43056.2
49607.4,42672.3
49608.3,42653.5
49611.1,42634.9
49615.7,42616.6
49622,42598.9
49630.1,42581.8
49639.7,42565.7
49651,42550.5
49663.6,42536.6
49677.6,42523.9
49692.7,42512.7
49708.8,42503
49725.9,42495
49743.6,42488.6
49761.9,42484.1
49780.5,42481.3
49799.3,42480.4
50242.2,42480.4
Z" /> 
<path style="fill:#000000; fill-opacity:1.0; 
stroke:#000000; stroke-width:0; stroke-opacity:1; 
stroke-linecap:round; stroke-linejoin:round;fill-rule:evenodd;"
d="M 50261,41241.1
50279.7,41243.9
50297.9,41248.5
50315.7,41254.8
50332.7,41262.9
50348.9,41272.6
50364,41283.8
50377.9,41296.4
50390.6,41310.4
50401.8,41325.5
50411.5,41341.7
50419.6,41358.7
50425.9,41376.4
50430.5,41394.7
50433.2,41413.3
50434.2,41432.1
50434.2,41816
50433.2,41834.8
50430.5,41853.4
50425.9,41871.7
50419.6,41889.5
50411.5,41906.5
50401.8,41922.6
50390.6,41937.8
50377.9,41951.7
50364,41964.4
50348.9,41975.6
50332.7,41985.3
50315.7,41993.3
50297.9,41999.7
50279.7,42004.2
50261,42007
50242.2,42007.9
49799.3,42007.9
49780.5,42007
49761.9,42004.2
49743.6,41999.7
49725.9,41993.3
49708.8,41985.3
49692.7,41975.6
49677.6,41964.4
49663.6,41951.7
49651,41937.8
49639.7,41922.6
49630.1,41906.5
49622,41889.5
49615.7,41871.7
49611.1,41853.4
49608.3,41834.8
49607.4,41816
49607.4,41432.1
49608.3,41413.3
49611.1,41394.7
49615.7,41376.4
49622,41358.7
49630.1,41341.7
49639.7,41325.5
49651,41310.4
49663.6,41296.4
49677.6,41283.8
49692.7,41272.6
49708.8,41262.9
49725.9,41254.8
49743.6,41248.5
49761.9,41243.9
49780.5,41241.1
49799.3,41240.2
50242.2,41240.2
Z" /> 
</g>
<g >
</g>
<g style="fill:#000000; fill-opacity:1.0; 
stroke:#000000; stroke-width:0; stroke-opacity:1; 
stroke-linecap:round; stroke-linejoin:round;">
<path style="fill:#000000; fill-opacity:1.0; 
stroke:#000000; stroke-width:0; stroke-opacity:1; 
stroke-linecap:round; stroke-linejoin:round;fill-rule:evenodd;"
d="M 57316,45527.8
57319.8,45528.4
57323.5,45529.3
57327.2,45530.6
57330.7,45532.3
57334,45534.3
57337.1,45536.6
57340,45539.2
57342.5,45542
57344.8,45545.1
57346.8,45548.4
57348.5,45551.9
57349.8,45555.6
57350.7,45559.3
57351.3,45563.1
57351.5,45567
57351.5,46275.7
57351.3,46279.5
57350.7,46283.3
57349.8,46287.1
57348.5,46290.7
57346.8,46294.2
57344.8,46297.5
57342.5,46300.6
57340,46303.5
57337.1,46306.1
57334,46308.4
57330.7,46310.4
57327.2,46312
57323.5,46313.3
57319.8,46314.3
57316,46314.8
57312.1,46315
56682.2,46315
56678.3,46314.8
56674.5,46314.3
56670.8,46313.3
56667.1,46312
56663.6,46310.4
56660.3,46308.4
56657.2,46306.1
56654.4,46303.5
56651.8,46300.6
56649.5,46297.5
56647.5,46294.2
56645.8,46290.7
56644.5,46287.1
56643.6,46283.3
56643,46279.5
56642.8,46275.7
56642.8,45567
56643,45563.1
56643.6,45559.3
56644.5,45555.6
56645.8,45551.9
56647.5,45548.4
56649.5,45545.1
56651.8,45542
56654.4,45539.2
56657.2,45536.6
56660.3,45534.3
56663.6,45532.3
56667.1,45530.6
56670.8,45529.3
56674.5,45528.4
56678.3,45527.8
56682.2,45527.6
57312.1,45527.6
Z" /> 
<path style="fill:#000000; fill-opacity:1.0; 
stroke:#000000; stroke-width:0; stroke-opacity:1; 
stroke-linecap:round; stroke-linejoin:round;fill-rule:evenodd;"
d="M 56567.9,43953
56571.8,43953.6
56575.5,43954.5
56579.1,43955.8
56582.6,43957.5
56586,43959.5
56589.1,43961.8
56591.9,43964.3
56594.5,43967.2
56596.8,43970.3
56598.8,43973.6
56600.5,43977.1
56601.8,43980.8
56602.7,43984.5
56603.3,43988.3
56603.5,43992.2
56603.5,44700.8
56603.3,44704.7
56602.7,44708.5
56601.8,44712.3
56600.5,44715.9
56598.8,44719.4
56596.8,44722.7
56594.5,44725.8
56591.9,44728.7
56589.1,44731.3
56586,44733.6
56582.6,44735.6
56579.1,44737.2
56575.5,44738.5
56571.8,44739.5
56567.9,44740
56564.1,44740.2
55934.2,44740.2
55930.3,44740
55926.5,44739.5
55922.7,44738.5
55919.1,44737.2
55915.6,44735.6
55912.3,44733.6
55909.2,44731.3
55906.3,44728.7
55903.7,44725.8
55901.4,44722.7
55899.4,44719.4
55897.8,44715.9
55896.5,44712.3
55895.5,44708.5
55895,44704.7
55894.8,44700.8
55894.8,43992.2
55895,43988.3
55895.5,43984.5
55896.5,43980.8
55897.8,43977.1
55899.4,43973.6
55901.4,43970.3
55903.7,43967.2
55906.3,43964.3
55909.2,43961.8
55912.3,43959.5
55915.6,43957.5
55919.1,43955.8
55922.7,43954.5
55926.5,43953.6
55930.3,43953
55934.2,43952.8
56564.1,43952.8
Z" /> 
<path style="fill:#000000; fill-opacity:1.0; 
stroke:#000000; stroke-width:0; stroke-opacity:1; 
stroke-linecap:round; stroke-linejoin:round;fill-rule:evenodd;"
d="M 58064,43953
58067.8,43953.6
58071.6,43954.5
58075.2,43955.8
58078.7,43957.5
58082,43959.5
58085.1,43961.8
58088,43964.3
58090.6,43967.2
58092.9,43970.3
58094.9,43973.6
58096.5,43977.1
58097.8,43980.8
58098.8,43984.5
58099.3,43988.3
58099.5,43992.2
58099.5,44700.8
58099.3,44704.7
58098.8,44708.5
58097.8,44712.3
58096.5,44715.9
58094.9,44719.4
58092.9,44722.7
58090.6,44725.8
58088,44728.7
58085.1,44731.3
58082,44733.6
58078.7,44735.6
58075.2,44737.2
58071.6,44738.5
58067.8,44739.5
58064,44740
58060.1,44740.2
57430.2,44740.2
57426.4,44740
57422.5,44739.5
57418.8,44738.5
57415.2,44737.2
57411.7,44735.6
57408.3,44733.6
57405.2,44731.3
57402.4,44728.7
57399.8,44725.8
57397.5,44722.7
57395.5,44719.4
57393.8,44715.9
57392.5,44712.3
57391.6,44708.5
57391,44704.7
57390.9,44700.8
57390.9,43992.2
57391,43988.3
57391.6,43984.5
57392.5,43980.8
57393.8,43977.1
57395.5,43973.6
57397.5,43970.3
57399.8,43967.2
57402.4,43964.3
57405.2,43961.8
57408.3,43959.5
57411.7,43957.5
57415.2,43955.8
57418.8,43954.5
57422.5,43953.6
57426.4,43953
57430.2,43952.8
58060.1,43952.8
Z" /> 
</g>
<g >
</g>
<g style="fill:#000000; fill-opacity:1.0; 
stroke:#000000; stroke-width:0; stroke-opacity:1; 
stroke-linecap:round; stroke-linejoin:round;">
<path style="fill:#000000; fill-opacity:1.0; 
stroke:#000000; stroke-width:0; stroke-opacity:1; 
stroke-linecap:round; stroke-linejoin:round;fill-rule:evenodd;"
d="M 60245.1,45527.8
60248.9,45528.4
60252.7,45529.3
60256.3,45530.6
60259.8,45532.3
60263.1,45534.3
60266.2,45536.6
60269.1,45539.2
60271.7,45542
60274,45545.1
60276,45548.4
60277.6,45551.9
60278.9,45555.6
60279.9,45559.3
60280.4,45563.1
60280.6,45567
60280.6,46275.7
60280.4,46279.5
60279.9,46283.3
60278.9,46287.1
60277.6,46290.7
60276,46294.2
60274,46297.5
60271.7,46300.6
60269.1,46303.5
60266.2,46306.1
60263.1,46308.4
60259.8,46310.4
60256.3,46312
60252.7,46313.3
60248.9,46314.3
60245.1,46314.8
60241.2,46315
59611.3,46315
59607.5,46314.8
59603.6,46314.3
59599.9,46313.3
59596.3,46312
59592.8,46310.4
59589.5,46308.4
59586.3,46306.1
59583.5,46303.5
59580.9,46300.6
59578.6,46297.5
59576.6,46294.2
59575,46290.7
59573.7,46287.1
59572.7,46283.3
59572.1,46279.5
59572,46275.7
59572,45567
59572.1,45563.1
59572.7,45559.3
59573.7,45555.6
59575,45551.9
59576.6,45548.4
59578.6,45545.1
59580.9,45542
59583.5,45539.2
59586.3,45536.6
59589.5,45534.3
59592.8,45532.3
59596.3,45530.6
59599.9,45529.3
59603.6,45528.4
59607.5,45527.8
59611.3,45527.6
60241.2,45527.6
Z" /> 
<path style="fill:#000000; fill-opacity:1.0; 
stroke:#000000; stroke-width:0; stroke-opacity:1; 
stroke-linecap:round; stroke-linejoin:round;fill-rule:evenodd;"
d="M 59497.1,43953
59500.9,43953.6
59504.6,43954.5
59508.3,43955.8
59511.8,43957.5
59515.1,43959.5
59518.2,43961.8
59521.1,43964.3
59523.6,43967.2
59525.9,43970.3
59527.9,43973.6
59529.6,43977.1
59530.9,43980.8
59531.8,43984.5
59532.4,43988.3
59532.6,43992.2
59532.6,44700.8
59532.4,44704.7
59531.8,44708.5
59530.9,44712.3
59529.6,44715.9
59527.9,44719.4
59525.9,44722.7
59523.6,44725.8
59521.1,44728.7
59518.2,44731.3
59515.1,44733.6
59511.8,44735.6
59508.3,44737.2
59504.6,44738.5
59500.9,44739.5
59497.1,44740
59493.2,44740.2
58863.3,44740.2
58859.4,44740
58855.6,44739.5
58851.9,44738.5
58848.2,44737.2
58844.7,44735.6
58841.4,44733.6
58838.3,44731.3
58835.5,44728.7
58832.9,44725.8
58830.6,44722.7
58828.6,44719.4
58826.9,44715.9
58825.6,44712.3
58824.7,44708.5
58824.1,44704.7
58823.9,44700.8
58823.9,43992.2
58824.1,43988.3
58824.7,43984.5
58825.6,43980.8
58826.9,43977.1
58828.6,43973.6
58830.6,43970.3
58832.9,43967.2
58835.5,43964.3
58838.3,43961.8
58841.4,43959.5
58844.7,43957.5
58848.2,43955.8
58851.9,43954.5
58855.6,43953.6
58859.4,43953
58863.3,43952.8
59493.2,43952.8
Z" /> 
<path style="fill:#000000; fill-opacity:1.0; 
stroke:#000000; stroke-width:0; stroke-opacity:1; 
stroke-linecap:round; stroke-linejoin:round;fill-rule:evenodd;"
d="M 60993.1,43953
60997,43953.6
61000.7,43954.5
61004.3,43955.8
61007.8,43957.5
61011.2,43959.5
61014.3,43961.8
61017.1,43964.3
61019.7,43967.2
61022,43970.3
61024,43973.6
61025.7,43977.1
61027,43980.8
61027.9,43984.5
61028.5,43988.3
61028.6,43992.2
61028.6,44700.8
61028.5,44704.7
61027.9,44708.5
61027,44712.3
61025.7,44715.9
61024,44719.4
61022,44722.7
61019.7,44725.8
61017.1,44728.7
61014.3,44731.3
61011.2,44733.6
61007.8,44735.6
61004.3,44737.2
61000.7,44738.5
60997,44739.5
60993.1,44740
60989.3,44740.2
60359.4,44740.2
60355.5,44740
60351.7,44739.5
60347.9,44738.5
60344.3,44737.2
60340.8,44735.6
60337.5,44733.6
60334.4,44731.3
60331.5,44728.7
60328.9,44725.8
60326.6,44722.7
60324.6,44719.4
60323,44715.9
60321.7,44712.3
60320.7,44708.5
60320.2,44704.7
60320,44700.8
60320,43992.2
60320.2,43988.3
60320.7,43984.5
60321.7,43980.8
60323,43977.1
60324.6,43973.6
60326.6,43970.3
60328.9,43967.2
60331.5,43964.3
60334.4,43961.8
60337.5,43959.5
60340.8,43957.5
60344.3,43955.8
60347.9,43954.5
60351.7,43953.6
60355.5,43953
60359.4,43952.8
60989.3,43952.8
Z" /> 
</g>
<g >
</g>
<g style="fill:#000000; fill-opacity:1.0; 
stroke:#000000; stroke-width:0; stroke-opacity:1; 
stroke-linecap:round; stroke-linejoin:round;">
<path style="fill:#000000; fill-opacity:1.0; 
stroke:#000000; stroke-width:0; stroke-opacity:1; 
stroke-linecap:round; stroke-linejoin:round;fill-rule:evenodd;"
d="M 54717.7,43674.2
54736.4,43677
54754.6,43681.6
54772.4,43687.9
54789.4,43696
54805.6,43705.6
54820.7,43716.9
54834.6,43729.5
54847.3,43743.5
54858.5,43758.6
54868.2,43774.7
54876.2,43791.8
54882.6,43809.5
54887.2,43827.8
54889.9,43846.4
54890.9,43865.2
54890.9,44308.1
54889.9,44326.9
54887.2,44345.6
54882.6,44363.8
54876.2,44381.6
54868.2,44398.6
54858.5,44414.8
54847.3,44429.9
54834.6,44443.8
54820.7,44456.5
54805.6,44467.7
54789.4,44477.4
54772.4,44485.5
54754.6,44491.8
54736.4,44496.4
54717.7,44499.1
54698.9,44500.1
54315.1,44500.1
54296.3,44499.1
54277.6,44496.4
54259.4,44491.8
54241.6,44485.5
54224.6,44477.4
54208.4,44467.7
54193.3,44456.5
54179.4,44443.8
54166.7,44429.9
54155.5,44414.8
54145.8,44398.6
54137.7,44381.6
54131.4,44363.8
54126.8,44345.6
54124.1,44326.9
54123.1,44308.1
54123.1,43865.2
54124.1,43846.4
54126.8,43827.8
54131.4,43809.5
54137.7,43791.8
54145.8,43774.7
54155.5,43758.6
54166.7,43743.5
54179.4,43729.5
54193.3,43716.9
54208.4,43705.6
54224.6,43696
54241.6,43687.9
54259.4,43681.6
54277.6,43677
54296.3,43674.2
54315.1,43673.3
54698.9,43673.3
Z" /> 
<path style="fill:#000000; fill-opacity:1.0; 
stroke:#000000; stroke-width:0; stroke-opacity:1; 
stroke-linecap:round; stroke-linejoin:round;fill-rule:evenodd;"
d="M 53477.6,43674.2
53496.2,43677
53514.5,43681.6
53532.2,43687.9
53549.2,43696
53565.4,43705.6
53580.5,43716.9
53594.5,43729.5
53607.1,43743.5
53618.3,43758.6
53628,43774.7
53636.1,43791.8
53642.4,43809.5
53647,43827.8
53649.8,43846.4
53650.7,43865.2
53650.7,44308.1
53649.8,44326.9
53647,44345.6
53642.4,44363.8
53636.1,44381.6
53628,44398.6
53618.3,44414.8
53607.1,44429.9
53594.5,44443.8
53580.5,44456.5
53565.4,44467.7
53549.2,44477.4
53532.2,44485.5
53514.5,44491.8
53496.2,44496.4
53477.6,44499.1
53458.8,44500.1
53074.9,44500.1
53056.1,44499.1
53037.5,44496.4
53019.2,44491.8
53001.5,44485.5
52984.4,44477.4
52968.3,44467.7
52953.1,44456.5
52939.2,44443.8
52926.5,44429.9
52915.3,44414.8
52905.6,44398.6
52897.6,44381.6
52891.2,44363.8
52886.7,44345.6
52883.9,44326.9
52883,44308.1
52883,43865.2
52883.9,43846.4
52886.7,43827.8
52891.2,43809.5
52897.6,43791.8
52905.6,43774.7
52915.3,43758.6
52926.5,43743.5
52939.2,43729.5
52953.1,43716.9
52968.3,43705.6
52984.4,43696
53001.5,43687.9
53019.2,43681.6
53037.5,43677
53056.1,43674.2
53074.9,43673.3
53458.8,43673.3
Z" /> 
</g>
<g >
</g>
<g style="fill:#000000; fill-opacity:1.0; 
stroke:#000000; stroke-width:0; stroke-opacity:1; 
stroke-linecap:round; stroke-linejoin:round;">
<path style="fill:#000000; fill-opacity:1.0; 
stroke:#000000; stroke-width:0; stroke-opacity:1; 
stroke-linecap:round; stroke-linejoin:round;fill-rule:evenodd;"
d="M 51591.8,41241.1
51610.4,41243.9
51628.7,41248.5
51646.4,41254.8
51663.4,41262.9
51679.6,41272.6
51694.7,41283.8
51708.7,41296.4
51721.3,41310.4
51732.5,41325.5
51742.2,41341.7
51750.3,41358.7
51756.6,41376.4
51761.2,41394.7
51763.9,41413.3
51764.9,41432.1
51764.9,41816
51763.9,41834.8
51761.2,41853.4
51756.6,41871.7
51750.3,41889.5
51742.2,41906.5
51732.5,41922.6
51721.3,41937.8
51708.7,41951.7
51694.7,41964.4
51679.6,41975.6
51663.4,41985.3
51646.4,41993.3
51628.7,41999.7
51610.4,42004.2
51591.8,42007
51572.9,42007.9
51130,42007.9
51111.2,42007
51092.6,42004.2
51074.3,41999.7
51056.6,41993.3
51039.6,41985.3
51023.4,41975.6
51008.3,41964.4
50994.3,41951.7
50981.7,41937.8
50970.4,41922.6
50960.8,41906.5
50952.7,41889.5
50946.4,41871.7
50941.8,41853.4
50939,41834.8
50938.1,41816
50938.1,41432.1
50939,41413.3
50941.8,41394.7
50946.4,41376.4
50952.7,41358.7
50960.8,41341.7
50970.4,41325.5
50981.7,41310.4
50994.3,41296.4
51008.3,41283.8
51023.4,41272.6
51039.6,41262.9
51056.6,41254.8
51074.3,41248.5
51092.6,41243.9
51111.2,41241.1
51130,41240.2
51572.9,41240.2
Z" /> 
<path style="fill:#000000; fill-opacity:1.0; 
stroke:#000000; stroke-width:0; stroke-opacity:1; 
stroke-linecap:round; stroke-linejoin:round;fill-rule:evenodd;"
d="M 51591.8,42481.3
51610.4,42484.1
51628.7,42488.6
51646.4,42495
51663.4,42503
51679.6,42512.7
51694.7,42523.9
51708.7,42536.6
51721.3,42550.5
51732.5,42565.7
51742.2,42581.8
51750.3,42598.9
51756.6,42616.6
51761.2,42634.9
51763.9,42653.5
51764.9,42672.3
51764.9,43056.2
51763.9,43075
51761.2,43093.6
51756.6,43111.9
51750.3,43129.6
51742.2,43146.6
51732.5,43162.8
51721.3,43177.9
51708.7,43191.9
51694.7,43204.5
51679.6,43215.7
51663.4,43225.4
51646.4,43233.5
51628.7,43239.8
51610.4,43244.4
51591.8,43247.2
51572.9,43248.1
51130,43248.1
51111.2,43247.2
51092.6,43244.4
51074.3,43239.8
51056.6,43233.5
51039.6,43225.4
51023.4,43215.7
51008.3,43204.5
50994.3,43191.9
50981.7,43177.9
50970.4,43162.8
50960.8,43146.6
50952.7,43129.6
50946.4,43111.9
50941.8,43093.6
50939,43075
50938.1,43056.2
50938.1,42672.3
50939,42653.5
50941.8,42634.9
50946.4,42616.6
50952.7,42598.9
50960.8,42581.8
50970.4,42565.7
50981.7,42550.5
50994.3,42536.6
51008.3,42523.9
51023.4,42512.7
51039.6,42503
51056.6,42495
51074.3,42488.6
51092.6,42484.1
51111.2,42481.3
51130,42480.4
51572.9,42480.4
Z" /> 
</g>
<g >
</g>
<g style="fill:#000000; fill-opacity:1.0; 
stroke:#000000; stroke-width:0; stroke-opacity:1; 
stroke-linecap:round; stroke-linejoin:round;">
<path style="fill:#000000; fill-opacity:1.0; 
stroke:#000000; stroke-width:0; stroke-opacity:1; 
stroke-linecap:round; stroke-linejoin:round;fill-rule:evenodd;"
d="M 56485.5,39288.4
56504.1,39291.1
56522.4,39295.7
56540.1,39302.1
56557.1,39310.1
56573.3,39319.8
56588.4,39331
56602.4,39343.7
56615,39357.6
56626.2,39372.8
56635.9,39388.9
56644,39405.9
56650.3,39423.7
56654.9,39441.9
56657.6,39460.6
56658.6,39479.4
56658.6,39922.3
56657.6,39941.1
56654.9,39959.7
56650.3,39978
56644,39995.8
56635.9,40012.8
56626.2,40028.9
56615,40044.1
56602.4,40058
56588.4,40070.7
56573.3,40081.9
56557.1,40091.6
56540.1,40099.6
56522.4,40106
56504.1,40110.5
56485.5,40113.3
56466.6,40114.2
56082.8,40114.2
56064,40113.3
56045.3,40110.5
56027.1,40106
56009.3,40099.6
55992.3,40091.6
55976.2,40081.9
55961,40070.7
55947.1,40058
55934.4,40044.1
55923.2,40028.9
55913.5,40012.8
55905.5,39995.8
55899.1,39978
55894.5,39959.7
55891.8,39941.1
55890.9,39922.3
55890.9,39479.4
55891.8,39460.6
55894.5,39441.9
55899.1,39423.7
55905.5,39405.9
55913.5,39388.9
55923.2,39372.8
55934.4,39357.6
55947.1,39343.7
55961,39331
55976.2,39319.8
55992.3,39310.1
56009.3,39302.1
56027.1,39295.7
56045.3,39291.1
56064,39288.4
56082.8,39287.5
56466.6,39287.5
Z" /> 
<path style="fill:#000000; fill-opacity:1.0; 
stroke:#000000; stroke-width:0; stroke-opacity:1; 
stroke-linecap:round; stroke-linejoin:round;fill-rule:evenodd;"
d="M 57725.6,39288.4
57744.2,39291.1
57762.5,39295.7
57780.2,39302.1
57797.3,39310.1
57813.4,39319.8
57828.6,39331
57842.5,39343.7
57855.2,39357.6
57866.4,39372.8
57876.1,39388.9
57884.1,39405.9
57890.5,39423.7
57895,39441.9
57897.8,39460.6
57898.7,39479.4
57898.7,39922.3
57897.8,39941.1
57895,39959.7
57890.5,39978
57884.1,39995.8
57876.1,40012.8
57866.4,40028.9
57855.2,40044.1
57842.5,40058
57828.6,40070.7
57813.4,40081.9
57797.3,40091.6
57780.2,40099.6
57762.5,40106
57744.2,40110.5
57725.6,40113.3
57706.8,40114.2
57322.9,40114.2
57304.1,40113.3
57285.5,40110.5
57267.2,40106
57249.5,40099.6
57232.5,40091.6
57216.3,40081.9
57201.2,40070.7
57187.2,40058
57174.6,40044.1
57163.4,40028.9
57153.7,40012.8
57145.6,39995.8
57139.3,39978
57134.7,39959.7
57131.9,39941.1
57131,39922.3
57131,39479.4
57131.9,39460.6
57134.7,39441.9
57139.3,39423.7
57145.6,39405.9
57153.7,39388.9
57163.4,39372.8
57174.6,39357.6
57187.2,39343.7
57201.2,39331
57216.3,39319.8
57232.5,39310.1
57249.5,39302.1
57267.2,39295.7
57285.5,39291.1
57304.1,39288.4
57322.9,39287.5
57706.8,39287.5
Z" /> 
</g>
<g >
</g>
<g style="fill:#000000; fill-opacity:1.0; 
stroke:#000000; stroke-width:0; stroke-opacity:1; 
stroke-linecap:round; stroke-linejoin:round;">
<path style="fill:#000000; fill-opacity:1.0; 
stroke:#000000; stroke-width:0; stroke-opacity:1; 
stroke-linecap:round; stroke-linejoin:round;fill-rule:evenodd;"
d="M 52190.2,43705.7
52208.8,43708.5
52227.1,43713
52244.8,43719.4
52261.8,43727.4
52278,43737.1
52293.1,43748.4
52307.1,43761
52319.7,43775
52330.9,43790.1
52340.6,43806.2
52348.7,43823.3
52355,43841
52359.6,43859.3
52362.4,43877.9
52363.3,43896.7
52363.3,44339.6
52362.4,44358.4
52359.6,44377.1
52355,44395.3
52348.7,44413.1
52340.6,44430.1
52330.9,44446.3
52319.7,44461.4
52307.1,44475.3
52293.1,44488
52278,44499.2
52261.8,44508.9
52244.8,44516.9
52227.1,44523.3
52208.8,44527.9
52190.2,44530.6
52171.4,44531.6
51787.5,44531.6
51768.7,44530.6
51750.1,44527.9
51731.8,44523.3
51714.1,44516.9
51697,44508.9
51680.9,44499.2
51665.7,44488
51651.8,44475.3
51639.1,44461.4
51627.9,44446.3
51618.2,44430.1
51610.2,44413.1
51603.8,44395.3
51599.3,44377.1
51596.5,44358.4
51595.6,44339.6
51595.6,43896.7
51596.5,43877.9
51599.3,43859.3
51603.8,43841
51610.2,43823.3
51618.2,43806.2
51627.9,43790.1
51639.1,43775
51651.8,43761
51665.7,43748.4
51680.9,43737.1
51697,43727.4
51714.1,43719.4
51731.8,43713
51750.1,43708.5
51768.7,43705.7
51787.5,43704.8
52171.4,43704.8
Z" /> 
<path style="fill:#000000; fill-opacity:1.0; 
stroke:#000000; stroke-width:0; stroke-opacity:1; 
stroke-linecap:round; stroke-linejoin:round;fill-rule:evenodd;"
d="M 50950,43705.7
50968.7,43708.5
50986.9,43713
51004.7,43719.4
51021.7,43727.4
51037.8,43737.1
51053,43748.4
51066.9,43761
51079.6,43775
51090.8,43790.1
51100.5,43806.2
51108.5,43823.3
51114.9,43841
51119.4,43859.3
51122.2,43877.9
51123.1,43896.7
51123.1,44339.6
51122.2,44358.4
51119.4,44377.1
51114.9,44395.3
51108.5,44413.1
51100.5,44430.1
51090.8,44446.3
51079.6,44461.4
51066.9,44475.3
51053,44488
51037.8,44499.2
51021.7,44508.9
51004.7,44516.9
50986.9,44523.3
50968.7,44527.9
50950,44530.6
50931.2,44531.6
50547.3,44531.6
50528.5,44530.6
50509.9,44527.9
50491.6,44523.3
50473.9,44516.9
50456.9,44508.9
50440.7,44499.2
50425.6,44488
50411.6,44475.3
50399,44461.4
50387.8,44446.3
50378.1,44430.1
50370,44413.1
50363.7,44395.3
50359.1,44377.1
50356.3,44358.4
50355.4,44339.6
50355.4,43896.7
50356.3,43877.9
50359.1,43859.3
50363.7,43841
50370,43823.3
50378.1,43806.2
50387.8,43790.1
50399,43775
50411.6,43761
50425.6,43748.4
50440.7,43737.1
50456.9,43727.4
50473.9,43719.4
50491.6,43713
50509.9,43708.5
50528.5,43705.7
50547.3,43704.8
50931.2,43704.8
Z" /> 
</g>
<g >
</g>
<g style="fill:#000000; fill-opacity:1.0; 
stroke:#000000; stroke-width:0; stroke-opacity:1; 
stroke-linecap:round; stroke-linejoin:round;">
<path style="fill:#000000; fill-opacity:1.0; 
stroke:#000000; stroke-width:0; stroke-opacity:1; 
stroke-linecap:round; stroke-linejoin:round;fill-rule:evenodd;"
d="M 52839.8,44949.8
52858.4,44952.6
52876.7,44957.1
52894.4,44963.5
52911.4,44971.5
52927.6,44981.2
52942.7,44992.4
52956.7,45005.1
52969.3,45019
52980.6,45034.2
52990.2,45050.3
52998.3,45067.4
53004.6,45085.1
53009.2,45103.4
53012,45122
53012.9,45140.8
53012.9,45583.7
53012,45602.5
53009.2,45621.2
53004.6,45639.4
52998.3,45657.2
52990.2,45674.2
52980.6,45690.4
52969.3,45705.5
52956.7,45719.4
52942.7,45732.1
52927.6,45743.3
52911.4,45753
52894.4,45761
52876.7,45767.4
52858.4,45772
52839.8,45774.7
52821,45775.7
52437.1,45775.7
52418.3,45774.7
52399.7,45772
52381.4,45767.4
52363.7,45761
52346.6,45753
52330.5,45743.3
52315.4,45732.1
52301.4,45719.4
52288.7,45705.5
52277.5,45690.4
52267.8,45674.2
52259.8,45657.2
52253.4,45639.4
52248.9,45621.2
52246.1,45602.5
52245.2,45583.7
52245.2,45140.8
52246.1,45122
52248.9,45103.4
52253.4,45085.1
52259.8,45067.4
52267.8,45050.3
52277.5,45034.2
52288.7,45019
52301.4,45005.1
52315.4,44992.4
52330.5,44981.2
52346.6,44971.5
52363.7,44963.5
52381.4,44957.1
52399.7,44952.6
52418.3,44949.8
52437.1,44948.9
52821,44948.9
Z" /> 
<path style="fill:#000000; fill-opacity:1.0; 
stroke:#000000; stroke-width:0; stroke-opacity:1; 
stroke-linecap:round; stroke-linejoin:round;fill-rule:evenodd;"
d="M 54079.9,44949.8
54098.6,44952.6
54116.8,44957.1
54134.6,44963.5
54151.6,44971.5
54167.8,44981.2
54182.9,44992.4
54196.8,45005.1
54209.5,45019
54220.7,45034.2
54230.4,45050.3
54238.4,45067.4
54244.8,45085.1
54249.4,45103.4
54252.1,45122
54253.1,45140.8
54253.1,45583.7
54252.1,45602.5
54249.4,45621.2
54244.8,45639.4
54238.4,45657.2
54230.4,45674.2
54220.7,45690.4
54209.5,45705.5
54196.8,45719.4
54182.9,45732.1
54167.8,45743.3
54151.6,45753
54134.6,45761
54116.8,45767.4
54098.6,45772
54079.9,45774.7
54061.1,45775.7
53677.3,45775.7
53658.5,45774.7
53639.8,45772
53621.6,45767.4
53603.8,45761
53586.8,45753
53570.6,45743.3
53555.5,45732.1
53541.6,45719.4
53528.9,45705.5
53517.7,45690.4
53508,45674.2
53500,45657.2
53493.6,45639.4
53489,45621.2
53486.3,45602.5
53485.3,45583.7
53485.3,45140.8
53486.3,45122
53489,45103.4
53493.6,45085.1
53500,45067.4
53508,45050.3
53517.7,45034.2
53528.9,45019
53541.6,45005.1
53555.5,44992.4
53570.6,44981.2
53586.8,44971.5
53603.8,44963.5
53621.6,44957.1
53639.8,44952.6
53658.5,44949.8
53677.3,44948.9
54061.1,44948.9
Z" /> 
</g>
<g >
</g>
<g >
</g>
<g >
</g>
</g> 
</svg>
