<?xml version="1.0" standalone="no"?>
 <!DOCTYPE svg PUBLIC "-//W3C//DTD SVG 1.1//EN" 
 "http://www.w3.org/Graphics/SVG/1.1/DTD/svg11.dtd"> 
<svg
  xmlns:svg="http://www.w3.org/2000/svg"
  xmlns="http://www.w3.org/2000/svg"
  xmlns:xlink="http://www.w3.org/1999/xlink"
  version="1.1"
  width="29.700220cm" height="21.000720cm" viewBox="0 0 116930 82680">
<title>SVG Picture created as cargadorDeBateriasLitIon-38-B_Mask.svg date 2021/12/18 17:13:55 </title>
  <desc>Picture generated by PCBNEW </desc>
<g style="fill:#000000; fill-opacity:1;stroke:#000000; stroke-opacity:1;
stroke-linecap:round; stroke-linejoin:round;"
 transform="translate(0 0) scale(1 1)">
</g>
<g style="fill:#000000; fill-opacity:0.0; 
stroke:#000000; stroke-width:-0.000787402; stroke-opacity:1; 
stroke-linecap:round; stroke-linejoin:round;">
</g>
<g style="fill:#000000; fill-opacity:0.0; 
stroke:#000000; stroke-width:39.3701; stroke-opacity:1; 
stroke-linecap:round; stroke-linejoin:round;">
<path d="M48343 45464
L48343 47433
" />
<path d="M48737 45070
L48343 45464
" />
<path d="M48737 39559
L48737 45070
" />
<path d="M48343 39165
L48737 39559
" />
<path d="M63697 41527
L63697 37196
" />
<path d="M63304 41921
L63697 41527
" />
<path d="M63304 42708
L63304 41921
" />
<path d="M63697 43102
L63304 42708
" />
<path d="M48343 37196
L63697 37196
" />
<path d="M48343 39165
L48343 37196
" />
<path d="M63697 47433
L48343 47433
" />
<path d="M63697 43102
L63697 47433
" />
</g>
<g style="fill:#000000; fill-opacity:1.0; 
stroke:#000000; stroke-width:7.87402; stroke-opacity:1; 
stroke-linecap:round; stroke-linejoin:round;">
<path style="fill:#000000; fill-opacity:1.0; 
stroke:#000000; stroke-width:7.87402; stroke-opacity:1; 
stroke-linecap:round; stroke-linejoin:round;fill-rule:evenodd;"
d="M 53590.8,38388.1
53449.2,38390.6
53336.4,38396
53247,38405.4
53175.4,38419.8
53116.1,38440.2
53063.5,38467.7
53012.1,38503.2
52970.7,38536.1
52871.2,38641.4
52803.7,38763.5
52767.2,38896.4
52761,39034.3
52784.1,39171.2
52835.6,39301.1
52914.6,39418
53020.2,39516
53127.3,39578.6
53170,39596.6
53213.4,39610
53265,39620
53332.1,39627.4
53422.1,39633.3
53542.4,39638.7
53586.8,39640.4
53726.7,39646.5
53830.8,39653.4
53903.4,39662.4
53948.7,39674.5
53970.9,39691.1
53974.3,39713.2
53963.2,39742.1
53962,39744.2
53951.8,39758.4
53934.6,39769
53904.6,39776.6
53856.1,39782
53783.3,39785.9
53680.3,39789
53585.6,39791.2
53427.6,39796.3
53302.6,39805.3
53204,39820.4
53124.8,39843.7
53058.3,39877.4
52997.6,39923.6
52935.8,39984.4
52921.6,39999.9
52871.8,40057.7
52833.4,40112.9
52805,40171.9
52784.9,40241.1
52771.6,40326.9
52763.7,40435.8
52759.4,40574.1
52758,40681.3
52757.1,40818.3
52757.7,40921.2
52760.2,40995.8
52765.1,41048.1
52772.6,41083.9
52783.3,41109.2
52787.5,41116
52841.1,41165.7
52908.9,41185.4
52978.7,41175.1
53038.3,41135
53053.5,41115.4
53066.5,41090
53075.5,41055.6
53080.9,41005.6
53083.4,40933.3
53083.4,40832
53082.4,40748
53081.9,40591.8
53086.4,40470.1
53096.6,40377.6
53113.3,40308.9
53137.2,40258.9
53155.2,40235.6
53186.6,40202.6
53215.9,40177.9
53249.4,40160.1
53293.5,40147.8
53354.4,40139.6
53438.2,40134.2
53551.5,40130.2
53651.7,40127.5
54037,40117.5
54123.6,40056.6
54216.7,39969.8
54277.4,39868
54306.6,39757.7
54305.2,39645.3
54274,39537.5
54214,39440.9
54126.1,39361.9
54022.3,39310.8
53974,39301.6
53892.3,39294.4
53783.6,39289.5
53654.5,39287.5
53632,39287.5
53506.6,39286.9
53414.2,39284.6
53347.5,39280.1
53299.7,39272.5
53263.5,39261.3
53240,39250.2
53161,39186.5
53111.5,39099
53095.4,38994.5
53112.6,38894.8
53162.9,38816.2
53226.4,38766.6
53249.4,38754.2
53276.4,38744.8
53312.7,38737.9
53363.7,38733.1
53434.7,38730.1
53531.2,38728.4
53658.5,38727.7
53771.4,38727.5
54252.5,38727.5
54320.8,38777.9
54369.1,38818
54404.4,38855.1
54409.7,38862.9
54415.1,38891.7
54420.2,38958.6
54425,39061.6
54429.5,39198.8
54433.5,39368.2
54437.1,39567.8
54440.1,39795.8
54440.3,39817.5
54450.3,40737.5
54503.3,40837.5
54596.2,40972.6
54715.3,41080.5
54794.9,41128.7
54895.9,41163.4
55017,41179.7
55143,41177.4
55258.7,41156.4
55320.3,41133.1
55442.3,41052.7
55548.7,40943
55616.9,40838.6
55670.3,40737.5
55680.3,39817.5
55682.7,39596.4
55684.9,39411.8
55687.4,39260
55690.6,39137.4
55695,39040.5
55701.1,38965.6
55709.3,38909.3
55720,38867.8
55733.7,38837.6
55750.8,38815.1
55771.9,38796.8
55797.3,38779.1
55812.7,38768.6
55861.5,38741
55911.6,38729.6
55980.9,38730.9
55991.5,38731.7
56065.4,38742.2
56117.2,38763.3
56164.7,38802.6
56166.7,38804.6
56230.3,38868.2
56241.1,39782.8
56243.8,39999.2
56246.3,40179.4
56248.8,40327.2
56251.5,40446.3
56254.7,40540.5
56258.5,40613.7
56263.1,40669.5
56268.6,40711.9
56275.4,40744.5
56283.5,40771.1
56291.7,40792.3
56368.4,40926.6
56474.3,41041.6
56582.3,41117.6
56639.3,41147
56689.2,41164.8
56745.4,41174
56821.4,41177.2
56870.3,41177.5
56961.1,41176.1
57025.5,41170.2
57076.8,41157
57128.5,41133.7
57157.4,41118.1
57273.4,41036.4
57371.1,40933.1
57441,40819.2
57452.6,40791.4
57461.1,40765.2
57468.2,40733.3
57474.3,40691.9
57479.3,40637.3
57483.5,40565.6
57487.1,40473.3
57490.3,40356.4
57493.1,40211.4
57495.8,40034.5
57498.6,39821.9
57499.1,39784.5
57501.8,39569.4
57504.3,39390.8
57506.7,39244.9
57509.3,39128.3
57512.3,39037.4
57515.8,38968.5
57520,38918.1
57525.2,38882.7
57531.5,38858.5
57539.1,38842.1
57548.1,38829.9
57550.3,38827.5
57631.9,38763.9
57726.4,38732.2
57824.8,38731.8
57917.9,38762.2
57996.7,38822.7
58022.8,38856.1
58029.6,38873.6
58035.4,38906
58040.5,38956.5
58044.8,39028.2
58048.6,39124.3
58051.9,39247.9
58054.9,39402.1
58057.6,39589.9
58060.3,39814.7
58060.3,39817.5
58062.7,40033.3
58064.9,40212.9
58067.1,40359.9
58069.5,40478.2
58072.3,40571.5
58075.8,40643.6
58080.1,40698.1
58085.4,40738.8
58091.9,40769.5
58099.9,40794
58109.5,40815.9
58115.2,40827.6
58199.3,40956.1
58308.5,41060.5
58436,41136.1
58575.2,41178.1
58623.6,41183.8
58691.9,41186.5
58735.5,41179.6
58769.1,41159.2
58788.9,41140.7
58832.5,41074.4
58840.6,41005.3
58816.5,40940.9
58763.4,40888.9
58684.4,40856.8
58668.2,40853.8
58554.3,40821.9
58472.2,40766.1
58445.5,40733
58437.1,40717.3
58430.1,40695.8
58424.2,40664.9
58419.3,40620.8
58415.2,40560.2
58411.9,40479.2
58409,40374.5
58406.4,40242.3
58404,40079.1
58401.6,39881.3
58400.3,39768.4
58397.9,39553.4
58395.6,39374.6
58393.4,39228.3
58390.8,39110.6
58387.9,39017.7
58384.3,38945.9
58379.9,38891.4
58374.5,38850.4
58367.8,38819
58359.7,38793.6
58350,38770.3
58347.1,38763.9
58263.5,38627
58154.3,38518.5
58023.6,38441.3
57875.6,38398.5
57820,38392.1
57663.8,38399.9
57518.5,38444.5
57389.4,38522.8
57282,38632.1
57232.3,38707.5
57170.3,38817.5
57160.3,39737.5
57157.4,39973.5
57154.3,40171.9
57150.8,40335
57146.8,40465
57142.4,40564.3
57137.4,40635.2
57131.6,40680.1
57125.8,40700.3
57094.5,40741
57048.1,40787.5
57036.7,40797.4
56994.5,40828.6
56954.1,40843.4
56899.4,40845.8
56856.5,40843.3
56752.6,40822.8
56673.9,40775.1
56613.5,40697.5
56607.2,40671.1
56601.5,40614.1
56596.4,40524.9
56591.9,40402.1
56587.9,40244.2
56584.4,40049.7
56581.2,39817.2
56580.3,39737.5
56577.9,39521.6
56575.7,39342
56573.5,39195
56571.1,39076.8
56568.2,38983.7
56564.8,38912.1
56560.5,38858.2
56555.3,38818.2
56548.8,38788.5
56540.9,38765.3
56531.5,38745
56526.4,38735.4
56436.8,38605.2
56327.3,38505.8
56203.3,38436.9
56070.2,38398.5
55933.2,38390.4
55797.8,38412.5
55669.2,38464.7
55552.8,38546.8
55453.9,38658.6
55393,38765
55382.9,38788.2
55374.5,38812.7
55367.5,38842.4
55361.8,38880.9
55357.2,38932
55353.5,38999.7
55350.4,39087.6
55347.8,39199.5
55345.5,39339.2
55343.2,39510.6
55340.9,39717.3
55340.3,39767.5
55337.5,39995.6
55334.6,40186.7
55331.4,40343.5
55327.8,40469
55323.7,40566.1
55319,40637.6
55313.6,40686.6
55307.3,40715.7
55304,40723.5
55245.4,40788.9
55164.2,40830.7
55071.5,40846.8
54978.3,40835.3
54899.8,40797.1
54851.5,40756.9
54816.2,40719.8
54810.9,40712.1
54805.5,40683.2
54800.4,40616.3
54795.5,40513.4
54791,40376.4
54787,40207.4
54783.4,40008.3
54780.5,39781.1
54780.3,39767.5
54777.9,39553.1
54775.7,39374.9
54773.6,39229.1
54771.1,39111.7
54768.3,39019.1
54764.8,38947.4
54760.4,38892.7
54755,38851.3
54748.2,38819.3
54739.9,38792.9
54729.9,38768.2
54722.7,38752.1
54664.1,38655.9
54581.2,38562.6
54485.5,38482.8
54388.5,38427.6
54367.4,38419.6
54330,38409.2
54282.7,38401.2
54220.3,38395.4
54137.4,38391.3
54029,38388.9
53889.5,38387.7
53767,38387.5
Z" /> 
<g >
</g>
<g >
</g>
<g style="fill:#000000; fill-opacity:1.0; 
stroke:#000000; stroke-width:7.87402; stroke-opacity:1; 
stroke-linecap:round; stroke-linejoin:round;">
</g>
<g style="fill:#000000; fill-opacity:1.0; 
stroke:#000000; stroke-width:0; stroke-opacity:1; 
stroke-linecap:round; stroke-linejoin:round;">
<path style="fill:#000000; fill-opacity:1.0; 
stroke:#000000; stroke-width:0; stroke-opacity:1; 
stroke-linecap:round; stroke-linejoin:round;fill-rule:evenodd;"
d="M 63504.9,46016
63508.8,46016.6
63512.5,46017.5
63516.2,46018.8
63519.6,46020.5
63523,46022.4
63526.1,46024.7
63528.9,46027.3
63531.5,46030.2
63533.8,46033.3
63535.8,46036.6
63537.5,46040.1
63538.8,46043.7
63539.7,46047.5
63540.3,46051.3
63540.5,46055.2
63540.5,47236.3
63540.3,47240.1
63539.7,47244
63538.8,47247.7
63537.5,47251.3
63535.8,47254.8
63533.8,47258.2
63531.5,47261.3
63528.9,47264.1
63526.1,47266.7
63523,47269
63519.6,47271
63516.2,47272.7
63512.5,47274
63508.8,47274.9
63504.9,47275.5
63501.1,47275.7
62320,47275.7
62316.1,47275.5
62312.3,47274.9
62308.6,47274
62304.9,47272.7
62301.4,47271
62298.1,47269
62295,47266.7
62292.1,47264.1
62289.6,47261.3
62287.3,47258.2
62285.3,47254.8
62283.6,47251.3
62282.3,47247.7
62281.4,47244
62280.8,47240.1
62280.6,47236.3
62280.6,46055.2
62280.8,46051.3
62281.4,46047.5
62282.3,46043.7
62283.6,46040.1
62285.3,46036.6
62287.3,46033.3
62289.6,46030.2
62292.1,46027.3
62295,46024.7
62298.1,46022.4
62301.4,46020.5
62304.9,46018.8
62308.6,46017.5
62312.3,46016.6
62316.1,46016
62320,46015.8
63501.1,46015.8
Z" /> 
</g>
<g >
</g>
<g style="fill:#000000; fill-opacity:1.0; 
stroke:#000000; stroke-width:0; stroke-opacity:1; 
stroke-linecap:round; stroke-linejoin:round;">
<path style="fill:#000000; fill-opacity:1.0; 
stroke:#000000; stroke-width:0; stroke-opacity:1; 
stroke-linecap:round; stroke-linejoin:round;fill-rule:evenodd;"
d="M 63504.9,43653.8
63508.8,43654.4
63512.5,43655.3
63516.2,43656.6
63519.6,43658.3
63523,43660.2
63526.1,43662.5
63528.9,43665.1
63531.5,43668
63533.8,43671.1
63535.8,43674.4
63537.5,43677.9
63538.8,43681.5
63539.7,43685.3
63540.3,43689.1
63540.5,43693
63540.5,44874.1
63540.3,44877.9
63539.7,44881.8
63538.8,44885.5
63537.5,44889.1
63535.8,44892.6
63533.8,44895.9
63531.5,44899.1
63528.9,44901.9
63526.1,44904.5
63523,44906.8
63519.6,44908.8
63516.2,44910.4
63512.5,44911.8
63508.8,44912.7
63504.9,44913.3
63501.1,44913.4
62320,44913.4
62316.1,44913.3
62312.3,44912.7
62308.6,44911.8
62304.9,44910.4
62301.4,44908.8
62298.1,44906.8
62295,44904.5
62292.1,44901.9
62289.6,44899.1
62287.3,44895.9
62285.3,44892.6
62283.6,44889.1
62282.3,44885.5
62281.4,44881.8
62280.8,44877.9
62280.6,44874.1
62280.6,43693
62280.8,43689.1
62281.4,43685.3
62282.3,43681.5
62283.6,43677.9
62285.3,43674.4
62287.3,43671.1
62289.6,43668
62292.1,43665.1
62295,43662.5
62298.1,43660.2
62301.4,43658.3
62304.9,43656.6
62308.6,43655.3
62312.3,43654.4
62316.1,43653.8
62320,43653.6
63501.1,43653.6
Z" /> 
</g>
<g >
</g>
<g style="fill:#000000; fill-opacity:1.0; 
stroke:#000000; stroke-width:0; stroke-opacity:1; 
stroke-linecap:round; stroke-linejoin:round;">
<path style="fill:#000000; fill-opacity:1.0; 
stroke:#000000; stroke-width:0; stroke-opacity:1; 
stroke-linecap:round; stroke-linejoin:round;fill-rule:evenodd;"
d="M 63504.9,37354.6
63508.8,37355.1
63512.5,37356.1
63516.2,37357.4
63519.6,37359
63523,37361
63526.1,37363.3
63528.9,37365.9
63531.5,37368.8
63533.8,37371.9
63535.8,37375.2
63537.5,37378.7
63538.8,37382.3
63539.7,37386.1
63540.3,37389.9
63540.5,37393.8
63540.5,38574.9
63540.3,38578.7
63539.7,38582.5
63538.8,38586.3
63537.5,38589.9
63535.8,38593.4
63533.8,38596.7
63531.5,38599.8
63528.9,38602.7
63526.1,38605.3
63523,38607.6
63519.6,38609.6
63516.2,38611.2
63512.5,38612.5
63508.8,38613.5
63504.9,38614
63501.1,38614.2
62320,38614.2
62316.1,38614
62312.3,38613.5
62308.6,38612.5
62304.9,38611.2
62301.4,38609.6
62298.1,38607.6
62295,38605.3
62292.1,38602.7
62289.6,38599.8
62287.3,38596.7
62285.3,38593.4
62283.6,38589.9
62282.3,38586.3
62281.4,38582.5
62280.8,38578.7
62280.6,38574.9
62280.6,37393.8
62280.8,37389.9
62281.4,37386.1
62282.3,37382.3
62283.6,37378.7
62285.3,37375.2
62287.3,37371.9
62289.6,37368.8
62292.1,37365.9
62295,37363.3
62298.1,37361
62301.4,37359
62304.9,37357.4
62308.6,37356.1
62312.3,37355.1
62316.1,37354.6
62320,37354.4
63501.1,37354.4
Z" /> 
</g>
<g >
</g>
<g style="fill:#000000; fill-opacity:1.0; 
stroke:#000000; stroke-width:0; stroke-opacity:1; 
stroke-linecap:round; stroke-linejoin:round;">
<path style="fill:#000000; fill-opacity:1.0; 
stroke:#000000; stroke-width:0; stroke-opacity:1; 
stroke-linecap:round; stroke-linejoin:round;fill-rule:evenodd;"
d="M 63504.9,39716.8
63508.8,39717.4
63512.5,39718.3
63516.2,39719.6
63519.6,39721.2
63523,39723.2
63526.1,39725.5
63528.9,39728.1
63531.5,39731
63533.8,39734.1
63535.8,39737.4
63537.5,39740.9
63538.8,39744.5
63539.7,39748.3
63540.3,39752.1
63540.5,39756
63540.5,40937.1
63540.3,40940.9
63539.7,40944.7
63538.8,40948.5
63537.5,40952.1
63535.8,40955.6
63533.8,40958.9
63531.5,40962
63528.9,40964.9
63526.1,40967.5
63523,40969.8
63519.6,40971.8
63516.2,40973.4
63512.5,40974.7
63508.8,40975.7
63504.9,40976.2
63501.1,40976.4
62320,40976.4
62316.1,40976.2
62312.3,40975.7
62308.6,40974.7
62304.9,40973.4
62301.4,40971.8
62298.1,40969.8
62295,40967.5
62292.1,40964.9
62289.6,40962
62287.3,40958.9
62285.3,40955.6
62283.6,40952.1
62282.3,40948.5
62281.4,40944.7
62280.8,40940.9
62280.6,40937.1
62280.6,39756
62280.8,39752.1
62281.4,39748.3
62282.3,39744.5
62283.6,39740.9
62285.3,39737.4
62287.3,39734.1
62289.6,39731
62292.1,39728.1
62295,39725.5
62298.1,39723.2
62301.4,39721.2
62304.9,39719.6
62308.6,39718.3
62312.3,39717.4
62316.1,39716.8
62320,39716.6
63501.1,39716.6
Z" /> 
</g>
<g >
</g>
<g style="fill:#000000; fill-opacity:1.0; 
stroke:#000000; stroke-width:0; stroke-opacity:1; 
stroke-linecap:round; stroke-linejoin:round;">
<path style="fill:#000000; fill-opacity:1.0; 
stroke:#000000; stroke-width:0; stroke-opacity:1; 
stroke-linecap:round; stroke-linejoin:round;fill-rule:evenodd;"
d="M 49725.4,37354.6
49729.2,37355.1
49733,37356.1
49736.6,37357.4
49740.1,37359
49743.4,37361
49746.5,37363.3
49749.4,37365.9
49752,37368.8
49754.3,37371.9
49756.3,37375.2
49757.9,37378.7
49759.2,37382.3
49760.2,37386.1
49760.7,37389.9
49760.9,37393.8
49760.9,38574.9
49760.7,38578.7
49760.2,38582.5
49759.2,38586.3
49757.9,38589.9
49756.3,38593.4
49754.3,38596.7
49752,38599.8
49749.4,38602.7
49746.5,38605.3
49743.4,38607.6
49740.1,38609.6
49736.6,38611.2
49733,38612.5
49729.2,38613.5
49725.4,38614
49721.6,38614.2
48540.5,38614.2
48536.6,38614
48532.8,38613.5
48529,38612.5
48525.4,38611.2
48521.9,38609.6
48518.6,38607.6
48515.5,38605.3
48512.6,38602.7
48510,38599.8
48507.7,38596.7
48505.7,38593.4
48504.1,38589.9
48502.8,38586.3
48501.8,38582.5
48501.3,38578.7
48501.1,38574.9
48501.1,37393.8
48501.3,37389.9
48501.8,37386.1
48502.8,37382.3
48504.1,37378.7
48505.7,37375.2
48507.7,37371.9
48510,37368.8
48512.6,37365.9
48515.5,37363.3
48518.6,37361
48521.9,37359
48525.4,37357.4
48529,37356.1
48532.8,37355.1
48536.6,37354.6
48540.5,37354.4
49721.6,37354.4
Z" /> 
</g>
<g >
</g>
<g style="fill:#000000; fill-opacity:1.0; 
stroke:#000000; stroke-width:0; stroke-opacity:1; 
stroke-linecap:round; stroke-linejoin:round;">
<path style="fill:#000000; fill-opacity:1.0; 
stroke:#000000; stroke-width:0; stroke-opacity:1; 
stroke-linecap:round; stroke-linejoin:round;fill-rule:evenodd;"
d="M 49725.4,46016
49729.2,46016.6
49733,46017.5
49736.6,46018.8
49740.1,46020.5
49743.4,46022.4
49746.5,46024.7
49749.4,46027.3
49752,46030.2
49754.3,46033.3
49756.3,46036.6
49757.9,46040.1
49759.2,46043.7
49760.2,46047.5
49760.7,46051.3
49760.9,46055.2
49760.9,47236.3
49760.7,47240.1
49760.2,47244
49759.2,47247.7
49757.9,47251.3
49756.3,47254.8
49754.3,47258.2
49752,47261.3
49749.4,47264.1
49746.5,47266.7
49743.4,47269
49740.1,47271
49736.6,47272.7
49733,47274
49729.2,47274.9
49725.4,47275.5
49721.6,47275.7
48540.5,47275.7
48536.6,47275.5
48532.8,47274.9
48529,47274
48525.4,47272.7
48521.9,47271
48518.6,47269
48515.5,47266.7
48512.6,47264.1
48510,47261.3
48507.7,47258.2
48505.7,47254.8
48504.1,47251.3
48502.8,47247.7
48501.8,47244
48501.3,47240.1
48501.1,47236.3
48501.1,46055.2
48501.3,46051.3
48501.8,46047.5
48502.8,46043.7
48504.1,46040.1
48505.7,46036.6
48507.7,46033.3
48510,46030.2
48512.6,46027.3
48515.5,46024.7
48518.6,46022.4
48521.9,46020.5
48525.4,46018.8
48529,46017.5
48532.8,46016.6
48536.6,46016
48540.5,46015.8
49721.6,46015.8
Z" /> 
</g>
<g >
</g>
<g >
</g>
<g >
</g>
<g >
</g>
<g >
</g>
<g >
</g>
<g >
</g>
<g >
</g>
<g >
</g>
<g >
</g>
<g >
</g>
<g >
</g>
<g >
</g>
<g >
</g>
<g >
</g>
<g >
</g>
</g> 
</svg>
