<?xml version="1.0" standalone="no"?>
 <!DOCTYPE svg PUBLIC "-//W3C//DTD SVG 1.1//EN" 
 "http://www.w3.org/Graphics/SVG/1.1/DTD/svg11.dtd"> 
<svg
  xmlns:svg="http://www.w3.org/2000/svg"
  xmlns="http://www.w3.org/2000/svg"
  xmlns:xlink="http://www.w3.org/1999/xlink"
  version="1.1"
  width="29.700220cm" height="21.000720cm" viewBox="0 0 116930 82680">
<title>SVG Picture created as cargadorDeBateriasLitIon-40-Dwgs_User.svg date 2021/12/18 17:13:55 </title>
  <desc>Picture generated by PCBNEW </desc>
<g style="fill:#000000; fill-opacity:1;stroke:#000000; stroke-opacity:1;
stroke-linecap:round; stroke-linejoin:round;"
 transform="translate(0 0) scale(1 1)">
</g>
<g style="fill:#000000; fill-opacity:0.0; 
stroke:#000000; stroke-width:-0.000787402; stroke-opacity:1; 
stroke-linecap:round; stroke-linejoin:round;">
</g>
<g style="fill:#000000; fill-opacity:0.0; 
stroke:#000000; stroke-width:39.3701; stroke-opacity:1; 
stroke-linecap:round; stroke-linejoin:round;">
<path d="M48343 45464
L48343 47433
" />
<path d="M48737 45070
L48343 45464
" />
<path d="M48737 39559
L48737 45070
" />
<path d="M48343 39165
L48737 39559
" />
<path d="M63697 41527
L63697 37196
" />
<path d="M63304 41921
L63697 41527
" />
<path d="M63304 42708
L63304 41921
" />
<path d="M63697 43102
L63304 42708
" />
<path d="M48343 37196
L63697 37196
" />
<path d="M48343 39165
L48343 37196
" />
<path d="M63697 47433
L48343 47433
" />
<path d="M63697 43102
L63697 47433
" />
</g>
<g style="fill:#000000; fill-opacity:0.0; 
stroke:#000000; stroke-width:118.11; stroke-opacity:1; 
stroke-linecap:round; stroke-linejoin:round;">
<g transform="rotate(-270 65509 42315)">
<text x="65509" y="42708.7"
textLength="6977.69" font-size="1049.87" lengthAdjust="spacingAndGlyphs"
text-anchor="middle" opacity="0">13.000 mm</text>
</g>
<path d="M65152 39502
L65152 39052
" />
<path d="M65152 39277
L65940 39277
L65827 39202
L65752 39127
L65715 39052
" />
<path d="M65940 39765
L65940 40252
L65640 39990
L65640 40102
L65602 40177
L65565 40215
L65490 40252
L65302 40252
L65227 40215
L65190 40177
L65152 40102
L65152 39877
L65190 39802
L65227 39765
" />
<path d="M65227 40590
L65190 40627
L65152 40590
L65190 40552
L65227 40590
L65152 40590
" />
<path d="M65940 41115
L65940 41190
L65902 41265
L65865 41302
L65790 41340
L65640 41377
L65452 41377
L65302 41340
L65227 41302
L65190 41265
L65152 41190
L65152 41115
L65190 41040
L65227 41002
L65302 40965
L65452 40927
L65640 40927
L65790 40965
L65865 41002
L65902 41040
L65940 41115
" />
<path d="M65940 41865
L65940 41940
L65902 42015
L65865 42052
L65790 42090
L65640 42127
L65452 42127
L65302 42090
L65227 42052
L65190 42015
L65152 41940
L65152 41865
L65190 41790
L65227 41752
L65302 41715
L65452 41677
L65640 41677
L65790 41715
L65865 41752
L65902 41790
L65940 41865
" />
<path d="M65940 42614
L65940 42689
L65902 42764
L65865 42802
L65790 42839
L65640 42877
L65452 42877
L65302 42839
L65227 42802
L65190 42764
L65152 42689
L65152 42614
L65190 42539
L65227 42502
L65302 42465
L65452 42427
L65640 42427
L65790 42465
L65865 42502
L65902 42539
L65940 42614
" />
<path d="M65152 43814
L65677 43814
" />
<path d="M65602 43814
L65640 43852
L65677 43927
L65677 44039
L65640 44114
L65565 44152
L65152 44152
" />
<path d="M65565 44152
L65640 44189
L65677 44264
L65677 44377
L65640 44452
L65565 44489
L65152 44489
" />
<path d="M65152 44864
L65677 44864
" />
<path d="M65602 44864
L65640 44902
L65677 44977
L65677 45089
L65640 45164
L65565 45202
L65152 45202
" />
<path d="M65565 45202
L65640 45239
L65677 45314
L65677 45427
L65640 45502
L65565 45539
L65152 45539
" />
<path d="M64485 37196
L64485 47433
" />
<path d="M63697 37196
L64947 37196
" />
<path d="M63697 47433
L64947 47433
" />
<path d="M64485 47433
L64023 46546
" />
<path d="M64485 47433
L64947 46546
" />
<path d="M64485 37196
L64023 38083
" />
<path d="M64485 37196
L64947 38083
" />
<text x="56020.8" y="34943.7"
textLength="6977.69" font-size="1049.87" lengthAdjust="spacingAndGlyphs"
text-anchor="middle" opacity="0">19.500 mm</text>
<path d="M53208 34906
L52758 34906
" />
<path d="M52983 34906
L52983 34118
L52908 34231
L52833 34306
L52758 34343
" />
<path d="M53583 34906
L53733 34906
L53808 34868
L53846 34831
L53921 34718
L53958 34568
L53958 34268
L53921 34193
L53883 34156
L53808 34118
L53658 34118
L53583 34156
L53546 34193
L53508 34268
L53508 34456
L53546 34531
L53583 34568
L53658 34606
L53808 34606
L53883 34568
L53921 34531
L53958 34456
" />
<path d="M54295 34831
L54333 34868
L54295 34906
L54258 34868
L54295 34831
L54295 34906
" />
<path d="M55045 34118
L54670 34118
L54633 34493
L54670 34456
L54745 34418
L54933 34418
L55008 34456
L55045 34493
L55083 34568
L55083 34756
L55045 34831
L55008 34868
L54933 34906
L54745 34906
L54670 34868
L54633 34831
" />
<path d="M55570 34118
L55645 34118
L55720 34156
L55758 34193
L55795 34268
L55833 34418
L55833 34606
L55795 34756
L55758 34831
L55720 34868
L55645 34906
L55570 34906
L55495 34868
L55458 34831
L55420 34756
L55383 34606
L55383 34418
L55420 34268
L55458 34193
L55495 34156
L55570 34118
" />
<path d="M56320 34118
L56395 34118
L56470 34156
L56508 34193
L56545 34268
L56583 34418
L56583 34606
L56545 34756
L56508 34831
L56470 34868
L56395 34906
L56320 34906
L56245 34868
L56208 34831
L56170 34756
L56133 34606
L56133 34418
L56170 34268
L56208 34193
L56245 34156
L56320 34118
" />
<path d="M57520 34906
L57520 34381
" />
<path d="M57520 34456
L57558 34418
L57633 34381
L57745 34381
L57820 34418
L57858 34493
L57858 34906
" />
<path d="M57858 34493
L57895 34418
L57970 34381
L58083 34381
L58158 34418
L58195 34493
L58195 34906
" />
<path d="M58570 34906
L58570 34381
" />
<path d="M58570 34456
L58607 34418
L58682 34381
L58795 34381
L58870 34418
L58907 34493
L58907 34906
" />
<path d="M58907 34493
L58945 34418
L59020 34381
L59132 34381
L59207 34418
L59245 34493
L59245 34906
" />
<path d="M63697 35573
L48343 35573
" />
<path d="M63697 37196
L63697 35111
" />
<path d="M48343 37196
L48343 35111
" />
<path d="M48343 35573
L49230 35111
" />
<path d="M48343 35573
L49230 36035
" />
<path d="M63697 35573
L62810 35111
" />
<path d="M63697 35573
L62810 36035
" />
<g >
</g>
<g >
</g>
<g >
</g>
<g >
</g>
<g >
</g>
<g >
</g>
<g >
</g>
<g >
</g>
<g >
</g>
<g >
</g>
<g >
</g>
<g >
</g>
<g >
</g>
<g >
</g>
<g >
</g>
<g >
</g>
<g >
</g>
<g >
</g>
<g >
</g>
<g >
</g>
<g >
</g>
</g> 
</svg>
