<?xml version="1.0" standalone="no"?>
 <!DOCTYPE svg PUBLIC "-//W3C//DTD SVG 1.1//EN" 
 "http://www.w3.org/Graphics/SVG/1.1/DTD/svg11.dtd"> 
<svg
  xmlns:svg="http://www.w3.org/2000/svg"
  xmlns="http://www.w3.org/2000/svg"
  xmlns:xlink="http://www.w3.org/1999/xlink"
  version="1.1"
  width="29.700220cm" height="21.000720cm" viewBox="0 0 116930 82680">
<title>SVG Picture created as cargadorDeBateriasLitIon-49-F_Fab.svg date 2021/12/18 17:13:55 </title>
  <desc>Picture generated by PCBNEW </desc>
<g style="fill:#000000; fill-opacity:1;stroke:#000000; stroke-opacity:1;
stroke-linecap:round; stroke-linejoin:round;"
 transform="translate(0 0) scale(1 1)">
</g>
<g style="fill:#000000; fill-opacity:0.0; 
stroke:#000000; stroke-width:-0.000787402; stroke-opacity:1; 
stroke-linecap:round; stroke-linejoin:round;">
</g>
<g style="fill:#000000; fill-opacity:0.0; 
stroke:#000000; stroke-width:39.3701; stroke-opacity:1; 
stroke-linecap:round; stroke-linejoin:round;">
<path d="M48343 45464
L48343 47433
" />
<path d="M48737 45070
L48343 45464
" />
<path d="M48737 39559
L48737 45070
" />
<path d="M48343 39165
L48737 39559
" />
<path d="M63697 41527
L63697 37196
" />
<path d="M63304 41921
L63697 41527
" />
<path d="M63304 42708
L63304 41921
" />
<path d="M63697 43102
L63304 42708
" />
<path d="M48343 37196
L63697 37196
" />
<path d="M48343 39165
L48343 37196
" />
<path d="M63697 47433
L48343 47433
" />
<path d="M63697 43102
L63697 47433
" />
</g>
<g style="fill:#000000; fill-opacity:0.0; 
stroke:#000000; stroke-width:78.7402; stroke-opacity:1; 
stroke-linecap:round; stroke-linejoin:round;">
<path d="M54264 40755
L54264 43196
" />
<path d="M54264 43196
L52847 43196
" />
<path d="M52847 41267
L52847 43196
" />
<path d="M54264 40755
L53359 40755
" />
<path d="M52847 41267
L53359 40755
" />
<path d="M60138 40015
L58879 40015
" />
<path d="M60138 39385
L60138 40015
" />
<path d="M58879 39385
L60138 39385
" />
<path d="M58879 40015
L58879 39385
" />
<path d="M59556 41220
L59556 42480
" />
<path d="M58926 41220
L59556 41220
" />
<path d="M58926 42480
L58926 41220
" />
<path d="M59556 42480
L58926 42480
" />
<path d="M54501 40196
L53241 40196
" />
<path d="M54501 39566
L54501 40196
" />
<path d="M53241 39566
L54501 39566
" />
<path d="M53241 40196
L53241 39566
" />
<path d="M49705 42874
L49705 41614
" />
<path d="M50335 42874
L49705 42874
" />
<path d="M50335 41614
L50335 42874
" />
<path d="M49705 41614
L50335 41614
" />
<path d="M55800 44582
L55800 45685
" />
<path d="M58194 45685
L55800 45685
" />
<path d="M57745 44582
L58194 45015
" />
<path d="M58194 45015
L58194 45685
" />
<path d="M57745 44582
L55816 44582
" />
<path d="M58729 44582
L58729 45685
" />
<path d="M61123 45685
L58729 45685
" />
<path d="M60674 44582
L61123 45015
" />
<path d="M61123 45015
L61123 45685
" />
<path d="M60674 44582
L58745 44582
" />
<path d="M54516 44401
L54516 43771
" />
<path d="M53256 44401
L54516 44401
" />
<path d="M53256 44007
L53256 44401
" />
<path d="M53493 43771
L53256 44007
" />
<path d="M54516 43771
L53493 43771
" />
<path d="M51666 41614
L51666 42874
" />
<path d="M51036 41614
L51666 41614
" />
<path d="M51036 42874
L51036 41614
" />
<path d="M51666 42874
L51036 42874
" />
<path d="M56264 39385
L57524 39385
" />
<path d="M56264 40015
L56264 39385
" />
<path d="M57524 40015
L56264 40015
" />
<path d="M57524 39385
L57524 40015
" />
<path d="M51989 44433
L50729 44433
" />
<path d="M51989 43803
L51989 44433
" />
<path d="M50729 43803
L51989 43803
" />
<path d="M50729 44433
L50729 43803
" />
<path d="M52619 45047
L53879 45047
" />
<path d="M52619 45677
L52619 45047
" />
<path d="M53879 45677
L52619 45677
" />
<path d="M53879 45047
L53879 45677
" />
<g >
</g>
<g >
</g>
<g >
</g>
<g >
</g>
<g >
</g>
<g >
</g>
<g >
</g>
<g >
</g>
<g >
</g>
<g >
</g>
<g >
</g>
<g >
</g>
<g >
</g>
<g >
</g>
<g >
</g>
<g >
</g>
<g >
</g>
<g >
</g>
<g >
</g>
<g >
</g>
</g>
<g style="fill:#000000; fill-opacity:0.0; 
stroke:#000000; stroke-width:78.7402; stroke-opacity:1; 
stroke-linecap:round; stroke-linejoin:round;">
</g>
<g style="fill:#000000; fill-opacity:0.0; 
stroke:#000000; stroke-width:118.11; stroke-opacity:1; 
stroke-linecap:round; stroke-linejoin:round;">
<text x="62910.5" y="48417.4"
textLength="3378.14" font-size="1049.87" lengthAdjust="spacingAndGlyphs"
text-anchor="middle" opacity="0">OUT-</text>
<path d="M61635 47592
L61785 47592
L61860 47629
L61935 47704
L61973 47854
L61973 48117
L61935 48267
L61860 48342
L61785 48379
L61635 48379
L61560 48342
L61485 48267
L61448 48117
L61448 47854
L61485 47704
L61560 47629
L61635 47592
" />
<path d="M62310 47592
L62310 48229
L62348 48304
L62385 48342
L62460 48379
L62610 48379
L62685 48342
L62723 48304
L62760 48229
L62760 47592
" />
<path d="M63023 47592
L63472 47592
" />
<path d="M63247 48379
L63247 47592
" />
<path d="M63735 48079
L64335 48079
" />
<text x="62910.5" y="45740.2"
textLength="1503.37" font-size="1049.87" lengthAdjust="spacingAndGlyphs"
text-anchor="middle" opacity="0">J6</text>
<path d="M62648 44915
L62648 45477
L62610 45590
L62535 45665
L62423 45702
L62348 45702
" />
<path d="M63360 44915
L63210 44915
L63135 44952
L63098 44990
L63023 45102
L62985 45252
L62985 45552
L63023 45627
L63060 45665
L63135 45702
L63285 45702
L63360 45665
L63397 45627
L63435 45552
L63435 45365
L63397 45290
L63360 45252
L63285 45215
L63135 45215
L63060 45252
L63023 45290
L62985 45365
" />
<text x="62910.5" y="46055.2"
textLength="1915.82" font-size="1049.87" lengthAdjust="spacingAndGlyphs"
text-anchor="middle" opacity="0">B-</text>
<path d="M62479 45605
L62591 45642
L62629 45680
L62666 45755
L62666 45867
L62629 45942
L62591 45980
L62516 46017
L62216 46017
L62216 45230
L62479 45230
L62554 45267
L62591 45305
L62629 45380
L62629 45455
L62591 45530
L62554 45567
L62479 45605
L62216 45605
" />
<path d="M63004 45717
L63604 45717
" />
<text x="62910.5" y="43378"
textLength="1503.37" font-size="1049.87" lengthAdjust="spacingAndGlyphs"
text-anchor="middle" opacity="0">J5</text>
<path d="M62648 42553
L62648 43115
L62610 43228
L62535 43303
L62423 43340
L62348 43340
" />
<path d="M63397 42553
L63023 42553
L62985 42928
L63023 42890
L63098 42853
L63285 42853
L63360 42890
L63397 42928
L63435 43003
L63435 43190
L63397 43265
L63360 43303
L63285 43340
L63098 43340
L63023 43303
L62985 43265
" />
<text x="62910.5" y="39756"
textLength="1915.82" font-size="1049.87" lengthAdjust="spacingAndGlyphs"
text-anchor="middle" opacity="0">B+</text>
<path d="M62479 39306
L62591 39343
L62629 39381
L62666 39456
L62666 39568
L62629 39643
L62591 39680
L62516 39718
L62216 39718
L62216 38931
L62479 38931
L62554 38968
L62591 39006
L62629 39081
L62629 39156
L62591 39231
L62554 39268
L62479 39306
L62216 39306
" />
<path d="M63004 39418
L63604 39418
" />
<path d="M63304 39718
L63304 39118
" />
<text x="62910.5" y="37078.8"
textLength="1503.37" font-size="1049.87" lengthAdjust="spacingAndGlyphs"
text-anchor="middle" opacity="0">J4</text>
<path d="M62648 36253
L62648 36816
L62610 36928
L62535 37003
L62423 37041
L62348 37041
" />
<path d="M63360 36516
L63360 37041
" />
<path d="M63173 36216
L62985 36778
L63472 36778
" />
<text x="62910.5" y="42118.2"
textLength="3378.14" font-size="1049.87" lengthAdjust="spacingAndGlyphs"
text-anchor="middle" opacity="0">OUT+</text>
<path d="M61635 41293
L61785 41293
L61860 41330
L61935 41405
L61973 41555
L61973 41818
L61935 41968
L61860 42043
L61785 42080
L61635 42080
L61560 42043
L61485 41968
L61448 41818
L61448 41555
L61485 41405
L61560 41330
L61635 41293
" />
<path d="M62310 41293
L62310 41930
L62348 42005
L62385 42043
L62460 42080
L62610 42080
L62685 42043
L62723 42005
L62760 41930
L62760 41293
" />
<path d="M63023 41293
L63472 41293
" />
<path d="M63247 42080
L63247 41293
" />
<path d="M63735 41780
L64335 41780
" />
<path d="M64035 42080
L64035 41480
" />
<text x="62910.5" y="39441"
textLength="1503.37" font-size="1049.87" lengthAdjust="spacingAndGlyphs"
text-anchor="middle" opacity="0">J3</text>
<path d="M62648 38616
L62648 39178
L62610 39291
L62535 39366
L62423 39403
L62348 39403
" />
<path d="M62948 38616
L63435 38616
L63173 38916
L63285 38916
L63360 38953
L63397 38991
L63435 39066
L63435 39253
L63397 39328
L63360 39366
L63285 39403
L63060 39403
L62985 39366
L62948 39328
" />
<text x="49131" y="39756"
textLength="2328.27" font-size="1049.87" lengthAdjust="spacingAndGlyphs"
text-anchor="middle" opacity="0">IN-</text>
<path d="M48231 39718
L48231 38931
" />
<path d="M48606 39718
L48606 38931
L49056 39718
L49056 38931
" />
<path d="M49430 39418
L50030 39418
" />
<text x="49131" y="37078.8"
textLength="1503.37" font-size="1049.87" lengthAdjust="spacingAndGlyphs"
text-anchor="middle" opacity="0">J2</text>
<path d="M48868 36253
L48868 36816
L48831 36928
L48756 37003
L48643 37041
L48568 37041
" />
<path d="M49206 36328
L49243 36291
L49318 36253
L49505 36253
L49580 36291
L49618 36328
L49655 36403
L49655 36478
L49618 36591
L49168 37041
L49655 37041
" />
<text x="49131" y="48417.4"
textLength="2328.27" font-size="1049.87" lengthAdjust="spacingAndGlyphs"
text-anchor="middle" opacity="0">IN+</text>
<path d="M48231 48379
L48231 47592
" />
<path d="M48606 48379
L48606 47592
L49056 48379
L49056 47592
" />
<path d="M49430 48079
L50030 48079
" />
<path d="M49730 48379
L49730 47779
" />
<text x="49131" y="45740.2"
textLength="1503.37" font-size="1049.87" lengthAdjust="spacingAndGlyphs"
text-anchor="middle" opacity="0">J1</text>
<path d="M48868 44915
L48868 45477
L48831 45590
L48756 45665
L48643 45702
L48568 45702
" />
<path d="M49655 45702
L49206 45702
" />
<path d="M49430 45702
L49430 44915
L49355 45027
L49280 45102
L49206 45140
" />
<text x="53556.2" y="44653.6"
textLength="8102.55" font-size="1049.87" lengthAdjust="spacingAndGlyphs"
text-anchor="middle" opacity="0">MCP73831-2</text>
<path d="M49769 44616
L49769 43828
L50031 44391
L50294 43828
L50294 44616
" />
<path d="M51119 44541
L51081 44578
L50969 44616
L50894 44616
L50781 44578
L50706 44503
L50669 44428
L50631 44278
L50631 44166
L50669 44016
L50706 43941
L50781 43866
L50894 43828
L50969 43828
L51081 43866
L51119 43903
" />
<path d="M51456 44616
L51456 43828
L51756 43828
L51831 43866
L51868 43903
L51906 43978
L51906 44091
L51868 44166
L51831 44203
L51756 44241
L51456 44241
" />
<path d="M52168 43828
L52693 43828
L52356 44616
" />
<path d="M52918 43828
L53406 43828
L53143 44128
L53256 44128
L53331 44166
L53368 44203
L53406 44278
L53406 44466
L53368 44541
L53331 44578
L53256 44616
L53031 44616
L52956 44578
L52918 44541
" />
<path d="M53856 44166
L53781 44128
L53743 44091
L53706 44016
L53706 43978
L53743 43903
L53781 43866
L53856 43828
L54006 43828
L54081 43866
L54118 43903
L54156 43978
L54156 44016
L54118 44091
L54081 44128
L54006 44166
L53856 44166
L53781 44203
L53743 44241
L53706 44316
L53706 44466
L53743 44541
L53781 44578
L53856 44616
L54006 44616
L54081 44578
L54118 44541
L54156 44466
L54156 44316
L54118 44241
L54081 44203
L54006 44166
" />
<path d="M54418 43828
L54906 43828
L54643 44128
L54756 44128
L54831 44166
L54868 44203
L54906 44278
L54906 44466
L54868 44541
L54831 44578
L54756 44616
L54531 44616
L54456 44578
L54418 44541
" />
<path d="M55655 44616
L55206 44616
" />
<path d="M55430 44616
L55430 43828
L55355 43941
L55280 44016
L55206 44053
" />
<path d="M55993 44316
L56593 44316
" />
<path d="M56930 43903
L56968 43866
L57043 43828
L57230 43828
L57305 43866
L57343 43903
L57380 43978
L57380 44053
L57343 44166
L56893 44616
L57380 44616
" />
</g>
<g style="fill:#000000; fill-opacity:0.0; 
stroke:#000000; stroke-width:59.0551; stroke-opacity:1; 
stroke-linecap:round; stroke-linejoin:round;">
<g transform="rotate(-90 53556.2 41976.4)">
<text x="53556.2" y="42173.3"
textLength="940.945" font-size="524.934" lengthAdjust="spacingAndGlyphs"
text-anchor="middle" opacity="0">U1</text>
</g>
<path d="M53340 42276
L53659 42276
L53696 42257
L53715 42238
L53734 42201
L53734 42126
L53715 42088
L53696 42070
L53659 42051
L53340 42051
" />
<path d="M53734 41657
L53734 41882
" />
<path d="M53734 41770
L53340 41770
L53396 41807
L53434 41845
L53453 41882
" />
</g>
<g style="fill:#000000; fill-opacity:0.0; 
stroke:#000000; stroke-width:118.11; stroke-opacity:1; 
stroke-linecap:round; stroke-linejoin:round;">
<text x="59509" y="41220.5"
textLength="2326.49" font-size="1049.87" lengthAdjust="spacingAndGlyphs"
text-anchor="middle" opacity="0">330</text>
<path d="M58496 40395
L58984 40395
L58721 40695
L58834 40695
L58909 40733
L58946 40770
L58984 40845
L58984 41033
L58946 41108
L58909 41145
L58834 41183
L58609 41183
L58534 41145
L58496 41108
" />
<path d="M59246 40395
L59733 40395
L59471 40695
L59583 40695
L59658 40733
L59696 40770
L59733 40845
L59733 41033
L59696 41108
L59658 41145
L59583 41183
L59358 41183
L59283 41145
L59246 41108
" />
<path d="M60221 40395
L60296 40395
L60371 40433
L60408 40470
L60446 40545
L60483 40695
L60483 40883
L60446 41033
L60408 41108
L60371 41145
L60296 41183
L60221 41183
L60146 41145
L60108 41108
L60071 41033
L60033 40883
L60033 40695
L60071 40545
L60108 40470
L60146 40433
L60221 40395
" />
</g>
<g style="fill:#000000; fill-opacity:0.0; 
stroke:#000000; stroke-width:47.2441; stroke-opacity:1; 
stroke-linecap:round; stroke-linejoin:round;">
<text x="59509" y="39858.3"
textLength="768.466" font-size="419.947" lengthAdjust="spacingAndGlyphs"
text-anchor="middle" opacity="0">R4</text>
<path d="M59456 39843
L59351 39693
" />
<path d="M59276 39843
L59276 39528
L59396 39528
L59426 39543
L59441 39558
L59456 39588
L59456 39633
L59441 39663
L59426 39678
L59396 39693
L59276 39693
" />
<path d="M59726 39633
L59726 39843
" />
<path d="M59651 39513
L59576 39738
L59771 39738
" />
</g>
<g style="fill:#000000; fill-opacity:0.0; 
stroke:#000000; stroke-width:118.11; stroke-opacity:1; 
stroke-linecap:round; stroke-linejoin:round;">
<g transform="rotate(-90 60367.2 41850.5)">
<text x="60367.2" y="42244.2"
textLength="2723.58" font-size="1049.87" lengthAdjust="spacingAndGlyphs"
text-anchor="middle" opacity="0">2.7K</text>
</g>
<path d="M60011 43031
L59973 42994
L59936 42919
L59936 42731
L59973 42656
L60011 42619
L60086 42581
L60161 42581
L60273 42619
L60723 43069
L60723 42581
" />
<path d="M60648 42244
L60685 42206
L60723 42244
L60685 42281
L60648 42244
L60723 42244
" />
<path d="M59936 41944
L59936 41419
L60723 41756
" />
<path d="M60723 41119
L59936 41119
" />
<path d="M60723 40669
L60273 41006
" />
<path d="M59936 40669
L60385 41119
" />
</g>
<g style="fill:#000000; fill-opacity:0.0; 
stroke:#000000; stroke-width:47.2441; stroke-opacity:1; 
stroke-linecap:round; stroke-linejoin:round;">
<g transform="rotate(-90 59241.2 41850.5)">
<text x="59241.2" y="42007.9"
textLength="768.466" font-size="419.947" lengthAdjust="spacingAndGlyphs"
text-anchor="middle" opacity="0">R3</text>
</g>
<path d="M59383 41902
L59233 42007
" />
<path d="M59383 42082
L59068 42082
L59068 41962
L59083 41932
L59098 41917
L59128 41902
L59173 41902
L59203 41917
L59218 41932
L59233 41962
L59233 42082
" />
<path d="M59068 41797
L59068 41602
L59188 41707
L59188 41662
L59203 41632
L59218 41617
L59248 41602
L59323 41602
L59353 41617
L59368 41632
L59383 41662
L59383 41752
L59368 41782
L59353 41797
" />
</g>
<g style="fill:#000000; fill-opacity:0.0; 
stroke:#000000; stroke-width:118.11; stroke-opacity:1; 
stroke-linecap:round; stroke-linejoin:round;">
<text x="53871.2" y="41401.6"
textLength="1598.73" font-size="1049.87" lengthAdjust="spacingAndGlyphs"
text-anchor="middle" opacity="0">2K</text>
<path d="M53252 40651
L53289 40614
L53364 40576
L53552 40576
L53627 40614
L53664 40651
L53702 40726
L53702 40801
L53664 40914
L53214 41364
L53702 41364
" />
<path d="M54039 41364
L54039 40576
" />
<path d="M54489 41364
L54152 40914
" />
<path d="M54489 40576
L54039 41026
" />
</g>
<g style="fill:#000000; fill-opacity:0.0; 
stroke:#000000; stroke-width:47.2441; stroke-opacity:1; 
stroke-linecap:round; stroke-linejoin:round;">
<text x="53871.2" y="40039.4"
textLength="768.466" font-size="419.947" lengthAdjust="spacingAndGlyphs"
text-anchor="middle" opacity="0">R2</text>
<path d="M53818 40024
L53713 39874
" />
<path d="M53638 40024
L53638 39709
L53758 39709
L53788 39724
L53803 39739
L53818 39769
L53818 39814
L53803 39844
L53788 39859
L53758 39874
L53638 39874
" />
<path d="M53938 39739
L53953 39724
L53983 39709
L54058 39709
L54088 39724
L54103 39739
L54118 39769
L54118 39799
L54103 39844
L53923 40024
L54118 40024
" />
</g>
<g style="fill:#000000; fill-opacity:0.0; 
stroke:#000000; stroke-width:118.11; stroke-opacity:1; 
stroke-linecap:round; stroke-linejoin:round;">
<g transform="rotate(-90 48894.8 42244.2)">
<text x="48894.8" y="42637.9"
textLength="2311.14" font-size="1049.87" lengthAdjust="spacingAndGlyphs"
text-anchor="middle" opacity="0">470</text>
</g>
<path d="M48726 42844
L49250 42844
" />
<path d="M48426 43031
L48988 43219
L48988 42731
" />
<path d="M48463 42506
L48463 41981
L49250 42319
" />
<path d="M48463 41531
L48463 41456
L48501 41381
L48538 41344
L48613 41306
L48763 41269
L48951 41269
L49101 41306
L49176 41344
L49213 41381
L49250 41456
L49250 41531
L49213 41606
L49176 41644
L49101 41681
L48951 41719
L48763 41719
L48613 41681
L48538 41644
L48501 41606
L48463 41531
" />
</g>
<g style="fill:#000000; fill-opacity:0.0; 
stroke:#000000; stroke-width:47.2441; stroke-opacity:1; 
stroke-linecap:round; stroke-linejoin:round;">
<g transform="rotate(-90 50020.8 42244.2)">
<text x="50020.8" y="42401.6"
textLength="768.466" font-size="419.947" lengthAdjust="spacingAndGlyphs"
text-anchor="middle" opacity="0">R1</text>
</g>
<path d="M50163 42296
L50013 42401
" />
<path d="M50163 42476
L49848 42476
L49848 42356
L49863 42326
L49878 42311
L49908 42296
L49953 42296
L49983 42311
L49998 42326
L50013 42356
L50013 42476
" />
<path d="M50163 41996
L50163 42176
" />
<path d="M50163 42086
L49848 42086
L49893 42116
L49923 42146
L49938 42176
" />
</g>
<g style="fill:#000000; fill-opacity:0.0; 
stroke:#000000; stroke-width:118.11; stroke-opacity:1; 
stroke-linecap:round; stroke-linejoin:round;">
<g transform="rotate(-90 55028.6 45133.9)">
<text x="55028.6" y="45527.6"
textLength="4635.85" font-size="1049.87" lengthAdjust="spacingAndGlyphs"
text-anchor="middle" opacity="0">2N7002</text>
</g>
<path d="M54672 47271
L54634 47233
L54597 47158
L54597 46971
L54634 46896
L54672 46858
L54747 46821
L54822 46821
L54934 46858
L55384 47308
L55384 46821
" />
<path d="M55384 46483
L54597 46483
L55384 46033
L54597 46033
" />
<path d="M54597 45733
L54597 45208
L55384 45546
" />
<path d="M54597 44758
L54597 44683
L54634 44608
L54672 44571
L54747 44533
L54897 44496
L55084 44496
L55234 44533
L55309 44571
L55347 44608
L55384 44683
L55384 44758
L55347 44833
L55309 44871
L55234 44908
L55084 44946
L54897 44946
L54747 44908
L54672 44871
L54634 44833
L54597 44758
" />
<path d="M54597 44009
L54597 43934
L54634 43859
L54672 43821
L54747 43784
L54897 43746
L55084 43746
L55234 43784
L55309 43821
L55347 43859
L55384 43934
L55384 44009
L55347 44084
L55309 44121
L55234 44159
L55084 44196
L54897 44196
L54747 44159
L54672 44121
L54634 44084
L54597 44009
" />
<path d="M54672 43446
L54634 43409
L54597 43334
L54597 43146
L54634 43071
L54672 43034
L54747 42996
L54822 42996
L54934 43034
L55384 43484
L55384 42996
" />
</g>
<g style="fill:#000000; fill-opacity:0.0; 
stroke:#000000; stroke-width:59.0551; stroke-opacity:1; 
stroke-linecap:round; stroke-linejoin:round;">
<text x="56997.2" y="45330.8"
textLength="940.945" font-size="524.934" lengthAdjust="spacingAndGlyphs"
text-anchor="middle" opacity="0">Q2</text>
<path d="M56959 45349
L56922 45330
L56884 45293
L56828 45237
L56790 45218
L56753 45218
" />
<path d="M56772 45312
L56734 45293
L56697 45255
L56678 45180
L56678 45049
L56697 44974
L56734 44937
L56772 44918
L56847 44918
L56884 44937
L56922 44974
L56940 45049
L56940 45180
L56922 45255
L56884 45293
L56847 45312
L56772 45312
" />
<path d="M57090 44955
L57109 44937
L57147 44918
L57240 44918
L57278 44937
L57297 44955
L57315 44993
L57315 45030
L57297 45087
L57072 45312
L57315 45312
" />
</g>
<g style="fill:#000000; fill-opacity:0.0; 
stroke:#000000; stroke-width:118.11; stroke-opacity:1; 
stroke-linecap:round; stroke-linejoin:round;">
<g transform="rotate(-90 57957.8 45133.9)">
<text x="57957.8" y="45527.6"
textLength="4651.2" font-size="1049.87" lengthAdjust="spacingAndGlyphs"
text-anchor="middle" opacity="0">2N7002</text>
</g>
<path d="M57601 47271
L57564 47233
L57526 47158
L57526 46971
L57564 46896
L57601 46858
L57676 46821
L57751 46821
L57864 46858
L58313 47308
L58313 46821
" />
<path d="M58313 46483
L57526 46483
L58313 46033
L57526 46033
" />
<path d="M57526 45733
L57526 45208
L58313 45546
" />
<path d="M57526 44758
L57526 44683
L57564 44608
L57601 44571
L57676 44533
L57826 44496
L58014 44496
L58164 44533
L58238 44571
L58276 44608
L58313 44683
L58313 44758
L58276 44833
L58238 44871
L58164 44908
L58014 44946
L57826 44946
L57676 44908
L57601 44871
L57564 44833
L57526 44758
" />
<path d="M57526 44009
L57526 43934
L57564 43859
L57601 43821
L57676 43784
L57826 43746
L58014 43746
L58164 43784
L58238 43821
L58276 43859
L58313 43934
L58313 44009
L58276 44084
L58238 44121
L58164 44159
L58014 44196
L57826 44196
L57676 44159
L57601 44121
L57564 44084
L57526 44009
" />
<path d="M57601 43446
L57564 43409
L57526 43334
L57526 43146
L57564 43071
L57601 43034
L57676 42996
L57751 42996
L57864 43034
L58313 43484
L58313 42996
" />
</g>
<g style="fill:#000000; fill-opacity:0.0; 
stroke:#000000; stroke-width:59.0551; stroke-opacity:1; 
stroke-linecap:round; stroke-linejoin:round;">
<text x="59926.3" y="45330.8"
textLength="940.945" font-size="524.934" lengthAdjust="spacingAndGlyphs"
text-anchor="middle" opacity="0">Q1</text>
<path d="M59888 45349
L59851 45330
L59813 45293
L59757 45237
L59720 45218
L59682 45218
" />
<path d="M59701 45312
L59663 45293
L59626 45255
L59607 45180
L59607 45049
L59626 44974
L59663 44937
L59701 44918
L59776 44918
L59813 44937
L59851 44974
L59870 45049
L59870 45180
L59851 45255
L59813 45293
L59776 45312
L59701 45312
" />
<path d="M60244 45312
L60020 45312
" />
<path d="M60132 45312
L60132 44918
L60095 44974
L60057 45012
L60020 45030
" />
</g>
<g style="fill:#000000; fill-opacity:0.0; 
stroke:#000000; stroke-width:118.11; stroke-opacity:1; 
stroke-linecap:round; stroke-linejoin:round;">
<text x="53886.9" y="45606.4"
textLength="2701.44" font-size="1049.87" lengthAdjust="spacingAndGlyphs"
text-anchor="middle" opacity="0">STAT</text>
<path d="M52724 45531
L52837 45568
L53024 45568
L53099 45531
L53137 45493
L53174 45418
L53174 45343
L53137 45268
L53099 45231
L53024 45193
L52874 45156
L52799 45118
L52762 45081
L52724 45006
L52724 44931
L52762 44856
L52799 44818
L52874 44781
L53062 44781
L53174 44818
" />
<path d="M53399 44781
L53849 44781
" />
<path d="M53624 45568
L53624 44781
" />
<path d="M54074 45343
L54449 45343
" />
<path d="M53999 45568
L54261 44781
L54524 45568
" />
<path d="M54674 44781
L55124 44781
" />
<path d="M54899 45568
L54899 44781
" />
</g>
<g style="fill:#000000; fill-opacity:0.0; 
stroke:#000000; stroke-width:47.2441; stroke-opacity:1; 
stroke-linecap:round; stroke-linejoin:round;">
<text x="53886.9" y="44244.2"
textLength="768.466" font-size="419.947" lengthAdjust="spacingAndGlyphs"
text-anchor="middle" opacity="0">D1</text>
<path d="M53654 44229
L53654 43914
L53729 43914
L53774 43929
L53804 43959
L53819 43989
L53834 44049
L53834 44094
L53819 44154
L53804 44184
L53774 44214
L53729 44229
L53654 44229
" />
<path d="M54134 44229
L53954 44229
" />
<path d="M54044 44229
L54044 43914
L54014 43959
L53984 43989
L53954 44004
" />
</g>
<g style="fill:#000000; fill-opacity:0.0; 
stroke:#000000; stroke-width:118.11; stroke-opacity:1; 
stroke-linecap:round; stroke-linejoin:round;">
<g transform="rotate(-90 52477.5 42244.2)">
<text x="52477.5" y="42637.9"
textLength="3698.46" font-size="1049.87" lengthAdjust="spacingAndGlyphs"
text-anchor="middle" opacity="0">100nF</text>
</g>
<path d="M52833 43462
L52833 43912
" />
<path d="M52833 43687
L52046 43687
L52158 43762
L52233 43837
L52271 43912
" />
<path d="M52046 42975
L52046 42900
L52083 42825
L52121 42787
L52196 42750
L52346 42712
L52533 42712
L52683 42750
L52758 42787
L52796 42825
L52833 42900
L52833 42975
L52796 43050
L52758 43087
L52683 43125
L52533 43162
L52346 43162
L52196 43125
L52121 43087
L52083 43050
L52046 42975
" />
<path d="M52046 42225
L52046 42150
L52083 42075
L52121 42037
L52196 42000
L52346 41962
L52533 41962
L52683 42000
L52758 42037
L52796 42075
L52833 42150
L52833 42225
L52796 42300
L52758 42337
L52683 42375
L52533 42412
L52346 42412
L52196 42375
L52121 42337
L52083 42300
L52046 42225
" />
<path d="M52308 41625
L52833 41625
" />
<path d="M52383 41625
L52346 41587
L52308 41512
L52308 41400
L52346 41325
L52421 41288
L52833 41288
" />
<path d="M52421 40650
L52421 40913
" />
<path d="M52833 40913
L52046 40913
L52046 40538
" />
</g>
<g style="fill:#000000; fill-opacity:0.0; 
stroke:#000000; stroke-width:47.2441; stroke-opacity:1; 
stroke-linecap:round; stroke-linejoin:round;">
<g transform="rotate(-90 51351.5 42244.2)">
<text x="51351.5" y="42401.6"
textLength="768.466" font-size="419.947" lengthAdjust="spacingAndGlyphs"
text-anchor="middle" opacity="0">C4</text>
</g>
<path d="M51463 42296
L51478 42311
L51493 42356
L51493 42386
L51478 42431
L51448 42461
L51418 42476
L51358 42491
L51313 42491
L51253 42476
L51223 42461
L51194 42431
L51179 42386
L51179 42356
L51194 42311
L51209 42296
" />
<path d="M51283 42026
L51493 42026
" />
<path d="M51164 42101
L51388 42176
L51388 41981
" />
</g>
<g style="fill:#000000; fill-opacity:0.0; 
stroke:#000000; stroke-width:118.11; stroke-opacity:1; 
stroke-linecap:round; stroke-linejoin:round;">
<text x="56894.8" y="38968.6"
textLength="3698.46" font-size="1049.87" lengthAdjust="spacingAndGlyphs"
text-anchor="middle" opacity="0">100nF</text>
<path d="M55676 38931
L55226 38931
" />
<path d="M55451 38931
L55451 38143
L55376 38256
L55301 38331
L55226 38368
" />
<path d="M56163 38143
L56238 38143
L56313 38181
L56351 38218
L56388 38293
L56426 38443
L56426 38631
L56388 38781
L56351 38856
L56313 38893
L56238 38931
L56163 38931
L56088 38893
L56051 38856
L56013 38781
L55976 38631
L55976 38443
L56013 38293
L56051 38218
L56088 38181
L56163 38143
" />
<path d="M56913 38143
L56988 38143
L57063 38181
L57101 38218
L57138 38293
L57176 38443
L57176 38631
L57138 38781
L57101 38856
L57063 38893
L56988 38931
L56913 38931
L56838 38893
L56801 38856
L56763 38781
L56726 38631
L56726 38443
L56763 38293
L56801 38218
L56838 38181
L56913 38143
" />
<path d="M57513 38406
L57513 38931
" />
<path d="M57513 38481
L57550 38443
L57625 38406
L57738 38406
L57813 38443
L57850 38518
L57850 38931
" />
<path d="M58488 38518
L58225 38518
" />
<path d="M58225 38931
L58225 38143
L58600 38143
" />
</g>
<g style="fill:#000000; fill-opacity:0.0; 
stroke:#000000; stroke-width:47.2441; stroke-opacity:1; 
stroke-linecap:round; stroke-linejoin:round;">
<text x="56894.8" y="39858.3"
textLength="768.466" font-size="419.947" lengthAdjust="spacingAndGlyphs"
text-anchor="middle" opacity="0">C3</text>
<path d="M56842 39813
L56827 39828
L56782 39843
L56752 39843
L56707 39828
L56677 39798
L56662 39768
L56647 39708
L56647 39663
L56662 39603
L56677 39573
L56707 39543
L56752 39528
L56782 39528
L56827 39543
L56842 39558
" />
<path d="M56947 39528
L57142 39528
L57037 39648
L57082 39648
L57112 39663
L57127 39678
L57142 39708
L57142 39783
L57127 39813
L57112 39828
L57082 39843
L56992 39843
L56962 39828
L56947 39813
" />
</g>
<g style="fill:#000000; fill-opacity:0.0; 
stroke:#000000; stroke-width:118.11; stroke-opacity:1; 
stroke-linecap:round; stroke-linejoin:round;">
<text x="51359.4" y="45637.9"
textLength="3323.51" font-size="1049.87" lengthAdjust="spacingAndGlyphs"
text-anchor="middle" opacity="0">4.7uF</text>
<path d="M50253 45075
L50253 45600
" />
<path d="M50065 44775
L49878 45337
L50365 45337
" />
<path d="M50665 45525
L50703 45562
L50665 45600
L50628 45562
L50665 45525
L50665 45600
" />
<path d="M50965 44812
L51490 44812
L51153 45600
" />
<path d="M52128 45075
L52128 45600
" />
<path d="M51790 45075
L51790 45487
L51828 45562
L51903 45600
L52015 45600
L52090 45562
L52128 45525
" />
<path d="M52765 45187
L52502 45187
" />
<path d="M52502 45600
L52502 44812
L52877 44812
" />
</g>
<g style="fill:#000000; fill-opacity:0.0; 
stroke:#000000; stroke-width:47.2441; stroke-opacity:1; 
stroke-linecap:round; stroke-linejoin:round;">
<text x="51359.4" y="44275.7"
textLength="768.466" font-size="419.947" lengthAdjust="spacingAndGlyphs"
text-anchor="middle" opacity="0">C2</text>
<path d="M51306 44230
L51291 44245
L51246 44260
L51216 44260
L51171 44245
L51141 44215
L51126 44185
L51111 44125
L51111 44080
L51126 44020
L51141 43990
L51171 43960
L51216 43945
L51246 43945
L51291 43960
L51306 43975
" />
<path d="M51426 43975
L51441 43960
L51471 43945
L51546 43945
L51576 43960
L51591 43975
L51606 44005
L51606 44035
L51591 44080
L51411 44260
L51606 44260
" />
</g>
<g style="fill:#000000; fill-opacity:0.0; 
stroke:#000000; stroke-width:118.11; stroke-opacity:1; 
stroke-linecap:round; stroke-linejoin:round;">
<text x="53249.1" y="44630"
textLength="3323.51" font-size="1049.87" lengthAdjust="spacingAndGlyphs"
text-anchor="middle" opacity="0">4.7uF</text>
<path d="M52143 44067
L52143 44592
" />
<path d="M51955 43767
L51768 44330
L52255 44330
" />
<path d="M52555 44517
L52592 44554
L52555 44592
L52517 44554
L52555 44517
L52555 44592
" />
<path d="M52855 43805
L53380 43805
L53042 44592
" />
<path d="M54017 44067
L54017 44592
" />
<path d="M53680 44067
L53680 44479
L53717 44554
L53792 44592
L53905 44592
L53980 44554
L54017 44517
" />
<path d="M54655 44180
L54392 44180
" />
<path d="M54392 44592
L54392 43805
L54767 43805
" />
</g>
<g style="fill:#000000; fill-opacity:0.0; 
stroke:#000000; stroke-width:47.2441; stroke-opacity:1; 
stroke-linecap:round; stroke-linejoin:round;">
<text x="53249.1" y="45519.7"
textLength="768.466" font-size="419.947" lengthAdjust="spacingAndGlyphs"
text-anchor="middle" opacity="0">C1</text>
<path d="M53196 45474
L53181 45489
L53136 45504
L53106 45504
L53061 45489
L53031 45459
L53016 45429
L53001 45369
L53001 45324
L53016 45264
L53031 45234
L53061 45204
L53106 45189
L53136 45189
L53181 45204
L53196 45219
" />
<path d="M53496 45504
L53316 45504
" />
<path d="M53406 45504
L53406 45189
L53376 45234
L53346 45264
L53316 45279
" />
<g >
</g>
</g> 
</svg>
