<?xml version="1.0" standalone="no"?>
 <!DOCTYPE svg PUBLIC "-//W3C//DTD SVG 1.1//EN" 
 "http://www.w3.org/Graphics/SVG/1.1/DTD/svg11.dtd"> 
<svg
  xmlns:svg="http://www.w3.org/2000/svg"
  xmlns="http://www.w3.org/2000/svg"
  xmlns:xlink="http://www.w3.org/1999/xlink"
  version="1.1"
  width="29.700220cm" height="21.000720cm" viewBox="0 0 116930 82680">
<title>SVG Picture created as cargadorDeBateriasLitIon-35-F_Paste.svg date 2021/12/18 17:13:55 </title>
  <desc>Picture generated by PCBNEW </desc>
<g style="fill:#000000; fill-opacity:1;stroke:#000000; stroke-opacity:1;
stroke-linecap:round; stroke-linejoin:round;"
 transform="translate(0 0) scale(1 1)">
</g>
<g style="fill:#000000; fill-opacity:0.0; 
stroke:#000000; stroke-width:-0.000787402; stroke-opacity:1; 
stroke-linecap:round; stroke-linejoin:round;">
</g>
<g style="fill:#000000; fill-opacity:0.0; 
stroke:#000000; stroke-width:39.3701; stroke-opacity:1; 
stroke-linecap:round; stroke-linejoin:round;">
<path d="M48343 45464
L48343 47433
" />
<path d="M48737 45070
L48343 45464
" />
<path d="M48737 39559
L48737 45070
" />
<path d="M48343 39165
L48737 39559
" />
<path d="M63697 41527
L63697 37196
" />
<path d="M63304 41921
L63697 41527
" />
<path d="M63304 42708
L63304 41921
" />
<path d="M63697 43102
L63304 42708
" />
<path d="M48343 37196
L63697 37196
" />
<path d="M48343 39165
L48343 37196
" />
<path d="M63697 47433
L48343 47433
" />
<path d="M63697 43102
L63697 47433
" />
<g >
</g>
<g >
</g>
<g >
</g>
<g >
</g>
<g >
</g>
<g >
</g>
<g >
</g>
<g >
</g>
<g style="fill:#000000; fill-opacity:0.0; 
stroke:#000000; stroke-width:39.3701; stroke-opacity:1; 
stroke-linecap:round; stroke-linejoin:round;">
</g>
<g style="fill:#000000; fill-opacity:0.0; 
stroke:#000000; stroke-width:0; stroke-opacity:1; 
stroke-linecap:round; stroke-linejoin:round;">
</g>
<g style="fill:#000000; fill-opacity:1.0; 
stroke:#000000; stroke-width:0; stroke-opacity:1; 
stroke-linecap:round; stroke-linejoin:round;">
<path style="fill:#000000; fill-opacity:1.0; 
stroke:#000000; stroke-width:0; stroke-opacity:1; 
stroke-linecap:round; stroke-linejoin:round;fill-rule:evenodd;"
d="M 58158.6,42614.2
58158.6,43244.2
57725.5,43244.2
57725.5,42614.2
Z" /> 
<path style="fill:#000000; fill-opacity:1.0; 
stroke:#000000; stroke-width:0; stroke-opacity:1; 
stroke-linecap:round; stroke-linejoin:round;fill-rule:evenodd;"
d="M 56662.5,42614.2
56662.5,43244.2
56229.4,43244.2
56229.4,42614.2
Z" /> 
<path style="fill:#000000; fill-opacity:1.0; 
stroke:#000000; stroke-width:0; stroke-opacity:1; 
stroke-linecap:round; stroke-linejoin:round;fill-rule:evenodd;"
d="M 56662.5,40724.5
56662.5,41354.4
56229.4,41354.4
56229.4,40724.5
Z" /> 
<path style="fill:#000000; fill-opacity:1.0; 
stroke:#000000; stroke-width:0; stroke-opacity:1; 
stroke-linecap:round; stroke-linejoin:round;fill-rule:evenodd;"
d="M 57410.5,40724.5
57410.5,41354.4
56977.5,41354.4
56977.5,40724.5
Z" /> 
<path style="fill:#000000; fill-opacity:1.0; 
stroke:#000000; stroke-width:0; stroke-opacity:1; 
stroke-linecap:round; stroke-linejoin:round;fill-rule:evenodd;"
d="M 58158.6,40724.5
58158.6,41354.4
57725.5,41354.4
57725.5,40724.5
Z" /> 
</g>
<g >
</g>
<g style="fill:#000000; fill-opacity:1.0; 
stroke:#000000; stroke-width:0; stroke-opacity:1; 
stroke-linecap:round; stroke-linejoin:round;">
<path style="fill:#000000; fill-opacity:1.0; 
stroke:#000000; stroke-width:0; stroke-opacity:1; 
stroke-linecap:round; stroke-linejoin:round;fill-rule:evenodd;"
d="M 54005,41484.3
54005,40972.5
54839.7,40972.5
54839.7,41484.3
Z" /> 
<path style="fill:#000000; fill-opacity:1.0; 
stroke:#000000; stroke-width:0; stroke-opacity:1; 
stroke-linecap:round; stroke-linejoin:round;fill-rule:evenodd;"
d="M 54005,42980.4
54005,42468.6
54839.7,42468.6
54839.7,42980.4
Z" /> 
<path style="fill:#000000; fill-opacity:1.0; 
stroke:#000000; stroke-width:0; stroke-opacity:1; 
stroke-linecap:round; stroke-linejoin:round;fill-rule:evenodd;"
d="M 52272.7,42980.4
52272.7,42468.6
53107.4,42468.6
53107.4,42980.4
Z" /> 
<path style="fill:#000000; fill-opacity:1.0; 
stroke:#000000; stroke-width:0; stroke-opacity:1; 
stroke-linecap:round; stroke-linejoin:round;fill-rule:evenodd;"
d="M 52272.7,42232.3
52272.7,41720.5
53107.4,41720.5
53107.4,42232.3
Z" /> 
<path style="fill:#000000; fill-opacity:1.0; 
stroke:#000000; stroke-width:0; stroke-opacity:1; 
stroke-linecap:round; stroke-linejoin:round;fill-rule:evenodd;"
d="M 52272.7,41484.3
52272.7,40972.5
53107.4,40972.5
53107.4,41484.3
Z" /> 
</g>
<g >
</g>
<g style="fill:#000000; fill-opacity:1.0; 
stroke:#000000; stroke-width:0; stroke-opacity:1; 
stroke-linecap:round; stroke-linejoin:round;">
<path style="fill:#000000; fill-opacity:1.0; 
stroke:#000000; stroke-width:0; stroke-opacity:1; 
stroke-linecap:round; stroke-linejoin:round;fill-rule:evenodd;"
d="M 60318.2,39327.7
60334.9,39330.1
60351.3,39334.2
60367.2,39339.9
60382.5,39347.2
60397,39355.9
60410.6,39365.9
60423.1,39377.3
60434.4,39389.8
60444.5,39403.4
60453.2,39417.9
60460.4,39433.2
60466.1,39449.1
60470.2,39465.5
60472.7,39482.2
60473.5,39499.1
60473.5,39902.6
60472.7,39919.5
60470.2,39936.2
60466.1,39952.6
60460.4,39968.5
60453.2,39983.8
60444.5,39998.3
60434.4,40011.9
60423.1,40024.4
60410.6,40035.8
60397,40045.8
60382.5,40054.5
60367.2,40061.8
60351.3,40067.4
60334.9,40071.6
60318.2,40074
60301.3,40074.9
59956.8,40074.9
59939.9,40074
59923.2,40071.6
59906.8,40067.4
59890.9,40061.8
59875.6,40054.5
59861.1,40045.8
59847.5,40035.8
59835,40024.4
59823.7,40011.9
59813.6,39998.3
59804.9,39983.8
59797.7,39968.5
59792,39952.6
59787.9,39936.2
59785.4,39919.5
59784.6,39902.6
59784.6,39499.1
59785.4,39482.2
59787.9,39465.5
59792,39449.1
59797.7,39433.2
59804.9,39417.9
59813.6,39403.4
59823.7,39389.8
59835,39377.3
59847.5,39365.9
59861.1,39355.9
59875.6,39347.2
59890.9,39339.9
59906.8,39334.2
59923.2,39330.1
59939.9,39327.7
59956.8,39326.8
60301.3,39326.8
Z" /> 
<path style="fill:#000000; fill-opacity:1.0; 
stroke:#000000; stroke-width:0; stroke-opacity:1; 
stroke-linecap:round; stroke-linejoin:round;fill-rule:evenodd;"
d="M 59078,39327.7
59094.7,39330.1
59111.1,39334.2
59127,39339.9
59142.3,39347.2
59156.8,39355.9
59170.4,39365.9
59182.9,39377.3
59194.3,39389.8
59204.3,39403.4
59213,39417.9
59220.3,39433.2
59226,39449.1
59230.1,39465.5
59232.5,39482.2
59233.4,39499.1
59233.4,39902.6
59232.5,39919.5
59230.1,39936.2
59226,39952.6
59220.3,39968.5
59213,39983.8
59204.3,39998.3
59194.3,40011.9
59182.9,40024.4
59170.4,40035.8
59156.8,40045.8
59142.3,40054.5
59127,40061.8
59111.1,40067.4
59094.7,40071.6
59078,40074
59061.1,40074.9
58716.6,40074.9
58699.8,40074
58683,40071.6
58666.6,40067.4
58650.7,40061.8
58635.4,40054.5
58620.9,40045.8
58607.4,40035.8
58594.8,40024.4
58583.5,40011.9
58573.4,39998.3
58564.7,39983.8
58557.5,39968.5
58551.8,39952.6
58547.7,39936.2
58545.2,39919.5
58544.4,39902.6
58544.4,39499.1
58545.2,39482.2
58547.7,39465.5
58551.8,39449.1
58557.5,39433.2
58564.7,39417.9
58573.4,39403.4
58583.5,39389.8
58594.8,39377.3
58607.4,39365.9
58620.9,39355.9
58635.4,39347.2
58650.7,39339.9
58666.6,39334.2
58683,39330.1
58699.8,39327.7
58716.6,39326.8
59061.1,39326.8
Z" /> 
</g>
<g >
</g>
<g style="fill:#000000; fill-opacity:1.0; 
stroke:#000000; stroke-width:0; stroke-opacity:1; 
stroke-linecap:round; stroke-linejoin:round;">
<path style="fill:#000000; fill-opacity:1.0; 
stroke:#000000; stroke-width:0; stroke-opacity:1; 
stroke-linecap:round; stroke-linejoin:round;fill-rule:evenodd;"
d="M 59459.9,40886.7
59476.6,40889.2
59493,40893.3
59508.9,40899
59524.2,40906.2
59538.7,40914.9
59552.3,40925
59564.8,40936.3
59576.2,40948.9
59586.2,40962.4
59594.9,40976.9
59602.2,40992.2
59607.8,41008.1
59612,41024.5
59614.4,41041.2
59615.3,41058.1
59615.3,41402.6
59614.4,41419.5
59612,41436.2
59607.8,41452.6
59602.2,41468.5
59594.9,41483.8
59586.2,41498.3
59576.2,41511.9
59564.8,41524.4
59552.3,41535.8
59538.7,41545.8
59524.2,41554.5
59508.9,41561.8
59493,41567.4
59476.6,41571.6
59459.9,41574
59443,41574.9
59039.5,41574.9
59022.6,41574
59005.9,41571.6
58989.5,41567.4
58973.6,41561.8
58958.3,41554.5
58943.8,41545.8
58930.2,41535.8
58917.7,41524.4
58906.3,41511.9
58896.3,41498.3
58887.6,41483.8
58880.3,41468.5
58874.6,41452.6
58870.5,41436.2
58868.1,41419.5
58867.2,41402.6
58867.2,41058.1
58868.1,41041.2
58870.5,41024.5
58874.6,41008.1
58880.3,40992.2
58887.6,40976.9
58896.3,40962.4
58906.3,40948.9
58917.7,40936.3
58930.2,40925
58943.8,40914.9
58958.3,40906.2
58973.6,40899
58989.5,40893.3
59005.9,40889.2
59022.6,40886.7
59039.5,40885.9
59443,40885.9
Z" /> 
<path style="fill:#000000; fill-opacity:1.0; 
stroke:#000000; stroke-width:0; stroke-opacity:1; 
stroke-linecap:round; stroke-linejoin:round;fill-rule:evenodd;"
d="M 59459.9,42126.9
59476.6,42129.4
59493,42133.5
59508.9,42139.2
59524.2,42146.4
59538.7,42155.1
59552.3,42165.1
59564.8,42176.5
59576.2,42189
59586.2,42202.6
59594.9,42217.1
59602.2,42232.4
59607.8,42248.3
59612,42264.7
59614.4,42281.4
59615.3,42298.3
59615.3,42642.8
59614.4,42659.7
59612,42676.4
59607.8,42692.8
59602.2,42708.7
59594.9,42724
59586.2,42738.5
59576.2,42752
59564.8,42764.6
59552.3,42775.9
59538.7,42786
59524.2,42794.7
59508.9,42801.9
59493,42807.6
59476.6,42811.7
59459.9,42814.2
59443,42815
59039.5,42815
59022.6,42814.2
59005.9,42811.7
58989.5,42807.6
58973.6,42801.9
58958.3,42794.7
58943.8,42786
58930.2,42775.9
58917.7,42764.6
58906.3,42752
58896.3,42738.5
58887.6,42724
58880.3,42708.7
58874.6,42692.8
58870.5,42676.4
58868.1,42659.7
58867.2,42642.8
58867.2,42298.3
58868.1,42281.4
58870.5,42264.7
58874.6,42248.3
58880.3,42232.4
58887.6,42217.1
58896.3,42202.6
58906.3,42189
58917.7,42176.5
58930.2,42165.1
58943.8,42155.1
58958.3,42146.4
58973.6,42139.2
58989.5,42133.5
59005.9,42129.4
59022.6,42126.9
59039.5,42126
59443,42126
Z" /> 
</g>
<g >
</g>
<g style="fill:#000000; fill-opacity:1.0; 
stroke:#000000; stroke-width:0; stroke-opacity:1; 
stroke-linecap:round; stroke-linejoin:round;">
<path style="fill:#000000; fill-opacity:1.0; 
stroke:#000000; stroke-width:0; stroke-opacity:1; 
stroke-linecap:round; stroke-linejoin:round;fill-rule:evenodd;"
d="M 54680.4,39508.8
54697.1,39511.2
54713.5,39515.4
54729.4,39521
54744.7,39528.3
54759.2,39537
54772.8,39547
54785.3,39558.4
54796.6,39570.9
54806.7,39584.5
54815.4,39599
54822.6,39614.3
54828.3,39630.2
54832.4,39646.6
54834.9,39663.3
54835.7,39680.2
54835.7,40083.7
54834.9,40100.6
54832.4,40117.3
54828.3,40133.7
54822.6,40149.6
54815.4,40164.9
54806.7,40179.4
54796.6,40193
54785.3,40205.5
54772.8,40216.9
54759.2,40226.9
54744.7,40235.6
54729.4,40242.9
54713.5,40248.5
54697.1,40252.7
54680.4,40255.1
54663.5,40256
54319,40256
54302.1,40255.1
54285.4,40252.7
54269,40248.5
54253.1,40242.9
54237.8,40235.6
54223.3,40226.9
54209.7,40216.9
54197.2,40205.5
54185.9,40193
54175.8,40179.4
54167.1,40164.9
54159.9,40149.6
54154.2,40133.7
54150.1,40117.3
54147.6,40100.6
54146.8,40083.7
54146.8,39680.2
54147.6,39663.3
54150.1,39646.6
54154.2,39630.2
54159.9,39614.3
54167.1,39599
54175.8,39584.5
54185.9,39570.9
54197.2,39558.4
54209.7,39547
54223.3,39537
54237.8,39528.3
54253.1,39521
54269,39515.4
54285.4,39511.2
54302.1,39508.8
54319,39507.9
54663.5,39507.9
Z" /> 
<path style="fill:#000000; fill-opacity:1.0; 
stroke:#000000; stroke-width:0; stroke-opacity:1; 
stroke-linecap:round; stroke-linejoin:round;fill-rule:evenodd;"
d="M 53440.2,39508.8
53456.9,39511.2
53473.3,39515.4
53489.2,39521
53504.5,39528.3
53519,39537
53532.6,39547
53545.1,39558.4
53556.5,39570.9
53566.5,39584.5
53575.2,39599
53582.5,39614.3
53588.2,39630.2
53592.3,39646.6
53594.7,39663.3
53595.6,39680.2
53595.6,40083.7
53594.7,40100.6
53592.3,40117.3
53588.2,40133.7
53582.5,40149.6
53575.2,40164.9
53566.5,40179.4
53556.5,40193
53545.1,40205.5
53532.6,40216.9
53519,40226.9
53504.5,40235.6
53489.2,40242.9
53473.3,40248.5
53456.9,40252.7
53440.2,40255.1
53423.3,40256
53078.8,40256
53062,40255.1
53045.2,40252.7
53028.8,40248.5
53012.9,40242.9
52997.6,40235.6
52983.2,40226.9
52969.6,40216.9
52957,40205.5
52945.7,40193
52935.6,40179.4
52926.9,40164.9
52919.7,40149.6
52914,40133.7
52909.9,40117.3
52907.4,40100.6
52906.6,40083.7
52906.6,39680.2
52907.4,39663.3
52909.9,39646.6
52914,39630.2
52919.7,39614.3
52926.9,39599
52935.6,39584.5
52945.7,39570.9
52957,39558.4
52969.6,39547
52983.2,39537
52997.6,39528.3
53012.9,39521
53028.8,39515.4
53045.2,39511.2
53062,39508.8
53078.8,39507.9
53423.3,39507.9
Z" /> 
</g>
<g >
</g>
<g style="fill:#000000; fill-opacity:1.0; 
stroke:#000000; stroke-width:0; stroke-opacity:1; 
stroke-linecap:round; stroke-linejoin:round;">
<path style="fill:#000000; fill-opacity:1.0; 
stroke:#000000; stroke-width:0; stroke-opacity:1; 
stroke-linecap:round; stroke-linejoin:round;fill-rule:evenodd;"
d="M 50239.4,42520.6
50256.1,42523.1
50272.5,42527.2
50288.5,42532.9
50303.7,42540.1
50318.2,42548.8
50331.8,42558.8
50344.3,42570.2
50355.7,42582.7
50365.8,42596.3
50374.5,42610.8
50381.7,42626.1
50387.4,42642
50391.5,42658.4
50394,42675.1
50394.8,42692
50394.8,43036.5
50394,43053.4
50391.5,43070.1
50387.4,43086.5
50381.7,43102.4
50374.5,43117.7
50365.8,43132.2
50355.7,43145.7
50344.3,43158.3
50331.8,43169.6
50318.2,43179.7
50303.7,43188.4
50288.5,43195.6
50272.5,43201.3
50256.1,43205.4
50239.4,43207.9
50222.5,43208.7
49819,43208.7
49802.1,43207.9
49785.4,43205.4
49769,43201.3
49753.1,43195.6
49737.8,43188.4
49723.3,43179.7
49709.7,43169.6
49697.2,43158.3
49685.9,43145.7
49675.8,43132.2
49667.1,43117.7
49659.9,43102.4
49654.2,43086.5
49650.1,43070.1
49647.6,43053.4
49646.8,43036.5
49646.8,42692
49647.6,42675.1
49650.1,42658.4
49654.2,42642
49659.9,42626.1
49667.1,42610.8
49675.8,42596.3
49685.9,42582.7
49697.2,42570.2
49709.7,42558.8
49723.3,42548.8
49737.8,42540.1
49753.1,42532.9
49769,42527.2
49785.4,42523.1
49802.1,42520.6
49819,42519.7
50222.5,42519.7
Z" /> 
<path style="fill:#000000; fill-opacity:1.0; 
stroke:#000000; stroke-width:0; stroke-opacity:1; 
stroke-linecap:round; stroke-linejoin:round;fill-rule:evenodd;"
d="M 50239.4,41280.4
50256.1,41282.9
50272.5,41287
50288.5,41292.7
50303.7,41299.9
50318.2,41308.6
50331.8,41318.7
50344.3,41330
50355.7,41342.6
50365.8,41356.1
50374.5,41370.6
50381.7,41385.9
50387.4,41401.8
50391.5,41418.2
50394,41434.9
50394.8,41451.8
50394.8,41796.3
50394,41813.2
50391.5,41829.9
50387.4,41846.3
50381.7,41862.2
50374.5,41877.5
50365.8,41892
50355.7,41905.6
50344.3,41918.1
50331.8,41929.5
50318.2,41939.5
50303.7,41948.2
50288.5,41955.5
50272.5,41961.1
50256.1,41965.3
50239.4,41967.7
50222.5,41968.6
49819,41968.6
49802.1,41967.7
49785.4,41965.3
49769,41961.1
49753.1,41955.5
49737.8,41948.2
49723.3,41939.5
49709.7,41929.5
49697.2,41918.1
49685.9,41905.6
49675.8,41892
49667.1,41877.5
49659.9,41862.2
49654.2,41846.3
49650.1,41829.9
49647.6,41813.2
49646.8,41796.3
49646.8,41451.8
49647.6,41434.9
49650.1,41418.2
49654.2,41401.8
49659.9,41385.9
49667.1,41370.6
49675.8,41356.1
49685.9,41342.6
49697.2,41330
49709.7,41318.7
49723.3,41308.6
49737.8,41299.9
49753.1,41292.7
49769,41287
49785.4,41282.9
49802.1,41280.4
49819,41279.6
50222.5,41279.6
Z" /> 
</g>
<g >
</g>
<g style="fill:#000000; fill-opacity:1.0; 
stroke:#000000; stroke-width:0; stroke-opacity:1; 
stroke-linecap:round; stroke-linejoin:round;">
<path style="fill:#000000; fill-opacity:1.0; 
stroke:#000000; stroke-width:0; stroke-opacity:1; 
stroke-linecap:round; stroke-linejoin:round;fill-rule:evenodd;"
d="M 56682.2,45567
57312.1,45567
57312.1,46275.7
56682.2,46275.7
Z" /> 
<path style="fill:#000000; fill-opacity:1.0; 
stroke:#000000; stroke-width:0; stroke-opacity:1; 
stroke-linecap:round; stroke-linejoin:round;fill-rule:evenodd;"
d="M 55934.2,43992.2
56564.1,43992.2
56564.1,44700.8
55934.2,44700.8
Z" /> 
<path style="fill:#000000; fill-opacity:1.0; 
stroke:#000000; stroke-width:0; stroke-opacity:1; 
stroke-linecap:round; stroke-linejoin:round;fill-rule:evenodd;"
d="M 57430.2,43992.2
58060.1,43992.2
58060.1,44700.8
57430.2,44700.8
Z" /> 
</g>
<g >
</g>
<g style="fill:#000000; fill-opacity:1.0; 
stroke:#000000; stroke-width:0; stroke-opacity:1; 
stroke-linecap:round; stroke-linejoin:round;">
<path style="fill:#000000; fill-opacity:1.0; 
stroke:#000000; stroke-width:0; stroke-opacity:1; 
stroke-linecap:round; stroke-linejoin:round;fill-rule:evenodd;"
d="M 59611.3,45567
60241.2,45567
60241.2,46275.7
59611.3,46275.7
Z" /> 
<path style="fill:#000000; fill-opacity:1.0; 
stroke:#000000; stroke-width:0; stroke-opacity:1; 
stroke-linecap:round; stroke-linejoin:round;fill-rule:evenodd;"
d="M 58863.3,43992.2
59493.2,43992.2
59493.2,44700.8
58863.3,44700.8
Z" /> 
<path style="fill:#000000; fill-opacity:1.0; 
stroke:#000000; stroke-width:0; stroke-opacity:1; 
stroke-linecap:round; stroke-linejoin:round;fill-rule:evenodd;"
d="M 60359.4,43992.2
60989.3,43992.2
60989.3,44700.8
60359.4,44700.8
Z" /> 
</g>
<g >
</g>
<g style="fill:#000000; fill-opacity:1.0; 
stroke:#000000; stroke-width:0; stroke-opacity:1; 
stroke-linecap:round; stroke-linejoin:round;">
<path style="fill:#000000; fill-opacity:1.0; 
stroke:#000000; stroke-width:0; stroke-opacity:1; 
stroke-linecap:round; stroke-linejoin:round;fill-rule:evenodd;"
d="M 54696.1,43713.5
54712.8,43716
54729.2,43720.1
54745.2,43725.8
54760.4,43733
54774.9,43741.7
54788.5,43751.8
54801,43763.1
54812.4,43775.6
54822.5,43789.2
54831.1,43803.7
54838.4,43819
54844.1,43834.9
54848.2,43851.3
54850.7,43868
54851.5,43884.9
54851.5,44288.4
54850.7,44305.3
54848.2,44322
54844.1,44338.4
54838.4,44354.4
54831.1,44369.6
54822.5,44384.1
54812.4,44397.7
54801,44410.2
54788.5,44421.6
54774.9,44431.7
54760.4,44440.4
54745.2,44447.6
54729.2,44453.3
54712.8,44457.4
54696.1,44459.9
54679.2,44460.7
54334.8,44460.7
54317.9,44459.9
54301.1,44457.4
54284.8,44453.3
54268.8,44447.6
54253.6,44440.4
54239.1,44431.7
54225.5,44421.6
54213,44410.2
54201.6,44397.7
54191.5,44384.1
54182.8,44369.6
54175.6,44354.4
54169.9,44338.4
54165.8,44322
54163.3,44305.3
54162.5,44288.4
54162.5,43884.9
54163.3,43868
54165.8,43851.3
54169.9,43834.9
54175.6,43819
54182.8,43803.7
54191.5,43789.2
54201.6,43775.6
54213,43763.1
54225.5,43751.8
54239.1,43741.7
54253.6,43733
54268.8,43725.8
54284.8,43720.1
54301.1,43716
54317.9,43713.5
54334.8,43712.7
54679.2,43712.7
Z" /> 
<path style="fill:#000000; fill-opacity:1.0; 
stroke:#000000; stroke-width:0; stroke-opacity:1; 
stroke-linecap:round; stroke-linejoin:round;fill-rule:evenodd;"
d="M 53456,43713.5
53472.7,43716
53489.1,43720.1
53505,43725.8
53520.3,43733
53534.8,43741.7
53548.4,43751.8
53560.9,43763.1
53572.2,43775.6
53582.3,43789.2
53591,43803.7
53598.2,43819
53603.9,43834.9
53608,43851.3
53610.5,43868
53611.3,43884.9
53611.3,44288.4
53610.5,44305.3
53608,44322
53603.9,44338.4
53598.2,44354.4
53591,44369.6
53582.3,44384.1
53572.2,44397.7
53560.9,44410.2
53548.4,44421.6
53534.8,44431.7
53520.3,44440.4
53505,44447.6
53489.1,44453.3
53472.7,44457.4
53456,44459.9
53439.1,44460.7
53094.6,44460.7
53077.7,44459.9
53061,44457.4
53044.6,44453.3
53028.7,44447.6
53013.4,44440.4
52998.9,44431.7
52985.3,44421.6
52972.8,44410.2
52961.4,44397.7
52951.4,44384.1
52942.7,44369.6
52935.5,44354.4
52929.8,44338.4
52925.7,44322
52923.2,44305.3
52922.3,44288.4
52922.3,43884.9
52923.2,43868
52925.7,43851.3
52929.8,43834.9
52935.5,43819
52942.7,43803.7
52951.4,43789.2
52961.4,43775.6
52972.8,43763.1
52985.3,43751.8
52998.9,43741.7
53013.4,43733
53028.7,43725.8
53044.6,43720.1
53061,43716
53077.7,43713.5
53094.6,43712.7
53439.1,43712.7
Z" /> 
</g>
<g >
</g>
<g style="fill:#000000; fill-opacity:1.0; 
stroke:#000000; stroke-width:0; stroke-opacity:1; 
stroke-linecap:round; stroke-linejoin:round;">
<path style="fill:#000000; fill-opacity:1.0; 
stroke:#000000; stroke-width:0; stroke-opacity:1; 
stroke-linecap:round; stroke-linejoin:round;fill-rule:evenodd;"
d="M 51570.1,41280.4
51586.9,41282.9
51603.3,41287
51619.2,41292.7
51634.4,41299.9
51648.9,41308.6
51662.5,41318.7
51675,41330
51686.4,41342.6
51696.5,41356.1
51705.2,41370.6
51712.4,41385.9
51718.1,41401.8
51722.2,41418.2
51724.7,41434.9
51725.5,41451.8
51725.5,41796.3
51724.7,41813.2
51722.2,41829.9
51718.1,41846.3
51712.4,41862.2
51705.2,41877.5
51696.5,41892
51686.4,41905.6
51675,41918.1
51662.5,41929.5
51648.9,41939.5
51634.4,41948.2
51619.2,41955.5
51603.3,41961.1
51586.9,41965.3
51570.1,41967.7
51553.3,41968.6
51149.7,41968.6
51132.8,41967.7
51116.1,41965.3
51099.7,41961.1
51083.8,41955.5
51068.5,41948.2
51054,41939.5
51040.4,41929.5
51027.9,41918.1
51016.6,41905.6
51006.5,41892
50997.8,41877.5
50990.6,41862.2
50984.9,41846.3
50980.8,41829.9
50978.3,41813.2
50977.5,41796.3
50977.5,41451.8
50978.3,41434.9
50980.8,41418.2
50984.9,41401.8
50990.6,41385.9
50997.8,41370.6
51006.5,41356.1
51016.6,41342.6
51027.9,41330
51040.4,41318.7
51054,41308.6
51068.5,41299.9
51083.8,41292.7
51099.7,41287
51116.1,41282.9
51132.8,41280.4
51149.7,41279.6
51553.3,41279.6
Z" /> 
<path style="fill:#000000; fill-opacity:1.0; 
stroke:#000000; stroke-width:0; stroke-opacity:1; 
stroke-linecap:round; stroke-linejoin:round;fill-rule:evenodd;"
d="M 51570.1,42520.6
51586.9,42523.1
51603.3,42527.2
51619.2,42532.9
51634.4,42540.1
51648.9,42548.8
51662.5,42558.8
51675,42570.2
51686.4,42582.7
51696.5,42596.3
51705.2,42610.8
51712.4,42626.1
51718.1,42642
51722.2,42658.4
51724.7,42675.1
51725.5,42692
51725.5,43036.5
51724.7,43053.4
51722.2,43070.1
51718.1,43086.5
51712.4,43102.4
51705.2,43117.7
51696.5,43132.2
51686.4,43145.7
51675,43158.3
51662.5,43169.6
51648.9,43179.7
51634.4,43188.4
51619.2,43195.6
51603.3,43201.3
51586.9,43205.4
51570.1,43207.9
51553.3,43208.7
51149.7,43208.7
51132.8,43207.9
51116.1,43205.4
51099.7,43201.3
51083.8,43195.6
51068.5,43188.4
51054,43179.7
51040.4,43169.6
51027.9,43158.3
51016.6,43145.7
51006.5,43132.2
50997.8,43117.7
50990.6,43102.4
50984.9,43086.5
50980.8,43070.1
50978.3,43053.4
50977.5,43036.5
50977.5,42692
50978.3,42675.1
50980.8,42658.4
50984.9,42642
50990.6,42626.1
50997.8,42610.8
51006.5,42596.3
51016.6,42582.7
51027.9,42570.2
51040.4,42558.8
51054,42548.8
51068.5,42540.1
51083.8,42532.9
51099.7,42527.2
51116.1,42523.1
51132.8,42520.6
51149.7,42519.7
51553.3,42519.7
Z" /> 
</g>
<g >
</g>
<g style="fill:#000000; fill-opacity:1.0; 
stroke:#000000; stroke-width:0; stroke-opacity:1; 
stroke-linecap:round; stroke-linejoin:round;">
<path style="fill:#000000; fill-opacity:1.0; 
stroke:#000000; stroke-width:0; stroke-opacity:1; 
stroke-linecap:round; stroke-linejoin:round;fill-rule:evenodd;"
d="M 56463.8,39327.7
56480.6,39330.1
56497,39334.2
56512.9,39339.9
56528.2,39347.2
56542.6,39355.9
56556.2,39365.9
56568.8,39377.3
56580.1,39389.8
56590.2,39403.4
56598.9,39417.9
56606.1,39433.2
56611.8,39449.1
56615.9,39465.5
56618.4,39482.2
56619.2,39499.1
56619.2,39902.6
56618.4,39919.5
56615.9,39936.2
56611.8,39952.6
56606.1,39968.5
56598.9,39983.8
56590.2,39998.3
56580.1,40011.9
56568.8,40024.4
56556.2,40035.8
56542.6,40045.8
56528.2,40054.5
56512.9,40061.8
56497,40067.4
56480.6,40071.6
56463.8,40074
56447,40074.9
56102.5,40074.9
56085.6,40074
56068.9,40071.6
56052.5,40067.4
56036.6,40061.8
56021.3,40054.5
56006.8,40045.8
55993.2,40035.8
55980.7,40024.4
55969.3,40011.9
55959.3,39998.3
55950.6,39983.8
55943.3,39968.5
55937.6,39952.6
55933.5,39936.2
55931.1,39919.5
55930.2,39902.6
55930.2,39499.1
55931.1,39482.2
55933.5,39465.5
55937.6,39449.1
55943.3,39433.2
55950.6,39417.9
55959.3,39403.4
55969.3,39389.8
55980.7,39377.3
55993.2,39365.9
56006.8,39355.9
56021.3,39347.2
56036.6,39339.9
56052.5,39334.2
56068.9,39330.1
56085.6,39327.7
56102.5,39326.8
56447,39326.8
Z" /> 
<path style="fill:#000000; fill-opacity:1.0; 
stroke:#000000; stroke-width:0; stroke-opacity:1; 
stroke-linecap:round; stroke-linejoin:round;fill-rule:evenodd;"
d="M 57704,39327.7
57720.7,39330.1
57737.1,39334.2
57753,39339.9
57768.3,39347.2
57782.8,39355.9
57796.4,39365.9
57808.9,39377.3
57820.3,39389.8
57830.3,39403.4
57839,39417.9
57846.2,39433.2
57851.9,39449.1
57856,39465.5
57858.5,39482.2
57859.4,39499.1
57859.4,39902.6
57858.5,39919.5
57856,39936.2
57851.9,39952.6
57846.2,39968.5
57839,39983.8
57830.3,39998.3
57820.3,40011.9
57808.9,40024.4
57796.4,40035.8
57782.8,40045.8
57768.3,40054.5
57753,40061.8
57737.1,40067.4
57720.7,40071.6
57704,40074
57687.1,40074.9
57342.6,40074.9
57325.7,40074
57309,40071.6
57292.6,40067.4
57276.7,40061.8
57261.4,40054.5
57246.9,40045.8
57233.4,40035.8
57220.8,40024.4
57209.5,40011.9
57199.4,39998.3
57190.7,39983.8
57183.5,39968.5
57177.8,39952.6
57173.7,39936.2
57171.2,39919.5
57170.4,39902.6
57170.4,39499.1
57171.2,39482.2
57173.7,39465.5
57177.8,39449.1
57183.5,39433.2
57190.7,39417.9
57199.4,39403.4
57209.5,39389.8
57220.8,39377.3
57233.4,39365.9
57246.9,39355.9
57261.4,39347.2
57276.7,39339.9
57292.6,39334.2
57309,39330.1
57325.7,39327.7
57342.6,39326.8
57687.1,39326.8
Z" /> 
</g>
<g >
</g>
<g style="fill:#000000; fill-opacity:1.0; 
stroke:#000000; stroke-width:0; stroke-opacity:1; 
stroke-linecap:round; stroke-linejoin:round;">
<path style="fill:#000000; fill-opacity:1.0; 
stroke:#000000; stroke-width:0; stroke-opacity:1; 
stroke-linecap:round; stroke-linejoin:round;fill-rule:evenodd;"
d="M 52168.6,43745
52185.3,43747.5
52201.7,43751.6
52217.6,43757.3
52232.9,43764.5
52247.4,43773.2
52261,43783.3
52273.5,43794.6
52284.8,43807.1
52294.9,43820.7
52303.6,43835.2
52310.8,43850.5
52316.5,43866.4
52320.6,43882.8
52323.1,43899.5
52323.9,43916.4
52323.9,44319.9
52323.1,44336.8
52320.6,44353.5
52316.5,44369.9
52310.8,44385.9
52303.6,44401.1
52294.9,44415.6
52284.8,44429.2
52273.5,44441.7
52261,44453.1
52247.4,44463.2
52232.9,44471.8
52217.6,44479.1
52201.7,44484.8
52185.3,44488.9
52168.6,44491.4
52151.7,44492.2
51807.2,44492.2
51790.3,44491.4
51773.6,44488.9
51757.2,44484.8
51741.3,44479.1
51726,44471.8
51711.5,44463.2
51697.9,44453.1
51685.4,44441.7
51674,44429.2
51664,44415.6
51655.3,44401.1
51648.1,44385.9
51642.4,44369.9
51638.3,44353.5
51635.8,44336.8
51634.9,44319.9
51634.9,43916.4
51635.8,43899.5
51638.3,43882.8
51642.4,43866.4
51648.1,43850.5
51655.3,43835.2
51664,43820.7
51674,43807.1
51685.4,43794.6
51697.9,43783.3
51711.5,43773.2
51726,43764.5
51741.3,43757.3
51757.2,43751.6
51773.6,43747.5
51790.3,43745
51807.2,43744.2
52151.7,43744.2
Z" /> 
<path style="fill:#000000; fill-opacity:1.0; 
stroke:#000000; stroke-width:0; stroke-opacity:1; 
stroke-linecap:round; stroke-linejoin:round;fill-rule:evenodd;"
d="M 50928.4,43745
50945.1,43747.5
50961.5,43751.6
50977.4,43757.3
50992.7,43764.5
51007.2,43773.2
51020.8,43783.3
51033.3,43794.6
51044.7,43807.1
51054.7,43820.7
51063.4,43835.2
51070.7,43850.5
51076.3,43866.4
51080.5,43882.8
51082.9,43899.5
51083.8,43916.4
51083.8,44319.9
51082.9,44336.8
51080.5,44353.5
51076.3,44369.9
51070.7,44385.9
51063.4,44401.1
51054.7,44415.6
51044.7,44429.2
51033.3,44441.7
51020.8,44453.1
51007.2,44463.2
50992.7,44471.8
50977.4,44479.1
50961.5,44484.8
50945.1,44488.9
50928.4,44491.4
50911.5,44492.2
50567,44492.2
50550.2,44491.4
50533.4,44488.9
50517,44484.8
50501.1,44479.1
50485.8,44471.8
50471.3,44463.2
50457.8,44453.1
50445.2,44441.7
50433.9,44429.2
50423.8,44415.6
50415.1,44401.1
50407.9,44385.9
50402.2,44369.9
50398.1,44353.5
50395.6,44336.8
50394.8,44319.9
50394.8,43916.4
50395.6,43899.5
50398.1,43882.8
50402.2,43866.4
50407.9,43850.5
50415.1,43835.2
50423.8,43820.7
50433.9,43807.1
50445.2,43794.6
50457.8,43783.3
50471.3,43773.2
50485.8,43764.5
50501.1,43757.3
50517,43751.6
50533.4,43747.5
50550.2,43745
50567,43744.2
50911.5,43744.2
Z" /> 
</g>
<g >
</g>
<g style="fill:#000000; fill-opacity:1.0; 
stroke:#000000; stroke-width:0; stroke-opacity:1; 
stroke-linecap:round; stroke-linejoin:round;">
<path style="fill:#000000; fill-opacity:1.0; 
stroke:#000000; stroke-width:0; stroke-opacity:1; 
stroke-linecap:round; stroke-linejoin:round;fill-rule:evenodd;"
d="M 52818.2,44989.1
52834.9,44991.6
52851.3,44995.7
52867.2,45001.4
52882.5,45008.6
52897,45017.3
52910.6,45027.3
52923.1,45038.7
52934.4,45051.2
52944.5,45064.8
52953.2,45079.3
52960.4,45094.6
52966.1,45110.5
52970.2,45126.9
52972.7,45143.6
52973.5,45160.5
52973.5,45564
52972.7,45580.9
52970.2,45597.6
52966.1,45614
52960.4,45630
52953.2,45645.2
52944.5,45659.7
52934.4,45673.3
52923.1,45685.8
52910.6,45697.2
52897,45707.3
52882.5,45715.9
52867.2,45723.2
52851.3,45728.9
52834.9,45733
52818.2,45735.5
52801.3,45736.3
52456.8,45736.3
52439.9,45735.5
52423.2,45733
52406.8,45728.9
52390.9,45723.2
52375.6,45715.9
52361.1,45707.3
52347.5,45697.2
52335,45685.8
52323.7,45673.3
52313.6,45659.7
52304.9,45645.2
52297.7,45630
52292,45614
52287.9,45597.6
52285.4,45580.9
52284.6,45564
52284.6,45160.5
52285.4,45143.6
52287.9,45126.9
52292,45110.5
52297.7,45094.6
52304.9,45079.3
52313.6,45064.8
52323.7,45051.2
52335,45038.7
52347.5,45027.3
52361.1,45017.3
52375.6,45008.6
52390.9,45001.4
52406.8,44995.7
52423.2,44991.6
52439.9,44989.1
52456.8,44988.2
52801.3,44988.2
Z" /> 
<path style="fill:#000000; fill-opacity:1.0; 
stroke:#000000; stroke-width:0; stroke-opacity:1; 
stroke-linecap:round; stroke-linejoin:round;fill-rule:evenodd;"
d="M 54058.3,44989.1
54075,44991.6
54091.4,44995.7
54107.4,45001.4
54122.6,45008.6
54137.1,45017.3
54150.7,45027.3
54163.2,45038.7
54174.6,45051.2
54184.7,45064.8
54193.3,45079.3
54200.6,45094.6
54206.3,45110.5
54210.4,45126.9
54212.9,45143.6
54213.7,45160.5
54213.7,45564
54212.9,45580.9
54210.4,45597.6
54206.3,45614
54200.6,45630
54193.3,45645.2
54184.7,45659.7
54174.6,45673.3
54163.2,45685.8
54150.7,45697.2
54137.1,45707.3
54122.6,45715.9
54107.4,45723.2
54091.4,45728.9
54075,45733
54058.3,45735.5
54041.4,45736.3
53697,45736.3
53680.1,45735.5
53663.4,45733
53647,45728.9
53631,45723.2
53615.8,45715.9
53601.3,45707.3
53587.7,45697.2
53575.2,45685.8
53563.8,45673.3
53553.7,45659.7
53545,45645.2
53537.8,45630
53532.1,45614
53528,45597.6
53525.5,45580.9
53524.7,45564
53524.7,45160.5
53525.5,45143.6
53528,45126.9
53532.1,45110.5
53537.8,45094.6
53545,45079.3
53553.7,45064.8
53563.8,45051.2
53575.2,45038.7
53587.7,45027.3
53601.3,45017.3
53615.8,45008.6
53631,45001.4
53647,44995.7
53663.4,44991.6
53680.1,44989.1
53697,44988.2
54041.4,44988.2
Z" /> 
</g>
<g >
</g>
<g >
</g>
<g >
</g>
</g> 
</svg>
