<?xml version="1.0" standalone="no"?>
 <!DOCTYPE svg PUBLIC "-//W3C//DTD SVG 1.1//EN" 
 "http://www.w3.org/Graphics/SVG/1.1/DTD/svg11.dtd"> 
<svg
  xmlns:svg="http://www.w3.org/2000/svg"
  xmlns="http://www.w3.org/2000/svg"
  xmlns:xlink="http://www.w3.org/1999/xlink"
  version="1.1"
  width="29.700220cm" height="21.000720cm" viewBox="0 0 116930 82680">
<title>SVG Picture created as cargadorDeBateriasLitIon-31-B_Cu.svg date 2021/12/18 17:13:55 </title>
  <desc>Picture generated by PCBNEW </desc>
<g style="fill:#000000; fill-opacity:1;stroke:#000000; stroke-opacity:1;
stroke-linecap:round; stroke-linejoin:round;"
 transform="translate(0 0) scale(1 1)">
</g>
<g style="fill:#000000; fill-opacity:0.0; 
stroke:#000000; stroke-width:-0.000787402; stroke-opacity:1; 
stroke-linecap:round; stroke-linejoin:round;">
</g>
<g style="fill:#000000; fill-opacity:0.0; 
stroke:#000000; stroke-width:39.3701; stroke-opacity:1; 
stroke-linecap:round; stroke-linejoin:round;">
<path d="M48343 45464
L48343 47433
" />
<path d="M48737 45070
L48343 45464
" />
<path d="M48737 39559
L48737 45070
" />
<path d="M48343 39165
L48737 39559
" />
<path d="M63697 41527
L63697 37196
" />
<path d="M63304 41921
L63697 41527
" />
<path d="M63304 42708
L63304 41921
" />
<path d="M63697 43102
L63304 42708
" />
<path d="M48343 37196
L63697 37196
" />
<path d="M48343 39165
L48343 37196
" />
<path d="M63697 47433
L48343 47433
" />
<path d="M63697 43102
L63697 47433
" />
<g >
</g>
<g >
</g>
<g style="fill:#000000; fill-opacity:0.0; 
stroke:#000000; stroke-width:39.3701; stroke-opacity:1; 
stroke-linecap:round; stroke-linejoin:round;">
</g>
<g style="fill:#000000; fill-opacity:0.0; 
stroke:#000000; stroke-width:0; stroke-opacity:1; 
stroke-linecap:round; stroke-linejoin:round;">
</g>
<g style="fill:#000000; fill-opacity:1.0; 
stroke:#000000; stroke-width:0; stroke-opacity:1; 
stroke-linecap:round; stroke-linejoin:round;">
<path style="fill:#000000; fill-opacity:1.0; 
stroke:#000000; stroke-width:0; stroke-opacity:1; 
stroke-linecap:round; stroke-linejoin:round;fill-rule:evenodd;"
d="M 62320,47236.3
62320,46055.2
63501.1,46055.2
63501.1,47236.3
Z" /> 
</g>
<g >
</g>
<g style="fill:#000000; fill-opacity:1.0; 
stroke:#000000; stroke-width:0; stroke-opacity:1; 
stroke-linecap:round; stroke-linejoin:round;">
<path style="fill:#000000; fill-opacity:1.0; 
stroke:#000000; stroke-width:0; stroke-opacity:1; 
stroke-linecap:round; stroke-linejoin:round;fill-rule:evenodd;"
d="M 62320,44874.1
62320,43693
63501.1,43693
63501.1,44874.1
Z" /> 
</g>
<g >
</g>
<g style="fill:#000000; fill-opacity:1.0; 
stroke:#000000; stroke-width:0; stroke-opacity:1; 
stroke-linecap:round; stroke-linejoin:round;">
<path style="fill:#000000; fill-opacity:1.0; 
stroke:#000000; stroke-width:0; stroke-opacity:1; 
stroke-linecap:round; stroke-linejoin:round;fill-rule:evenodd;"
d="M 62320,38574.9
62320,37393.8
63501.1,37393.8
63501.1,38574.9
Z" /> 
</g>
<g >
</g>
<g style="fill:#000000; fill-opacity:1.0; 
stroke:#000000; stroke-width:0; stroke-opacity:1; 
stroke-linecap:round; stroke-linejoin:round;">
<path style="fill:#000000; fill-opacity:1.0; 
stroke:#000000; stroke-width:0; stroke-opacity:1; 
stroke-linecap:round; stroke-linejoin:round;fill-rule:evenodd;"
d="M 62320,40937.1
62320,39756
63501.1,39756
63501.1,40937.1
Z" /> 
</g>
<g >
</g>
<g style="fill:#000000; fill-opacity:1.0; 
stroke:#000000; stroke-width:0; stroke-opacity:1; 
stroke-linecap:round; stroke-linejoin:round;">
<path style="fill:#000000; fill-opacity:1.0; 
stroke:#000000; stroke-width:0; stroke-opacity:1; 
stroke-linecap:round; stroke-linejoin:round;fill-rule:evenodd;"
d="M 48540.5,38574.9
48540.5,37393.8
49721.6,37393.8
49721.6,38574.9
Z" /> 
</g>
<g >
</g>
<g style="fill:#000000; fill-opacity:1.0; 
stroke:#000000; stroke-width:0; stroke-opacity:1; 
stroke-linecap:round; stroke-linejoin:round;">
<path style="fill:#000000; fill-opacity:1.0; 
stroke:#000000; stroke-width:0; stroke-opacity:1; 
stroke-linecap:round; stroke-linejoin:round;fill-rule:evenodd;"
d="M 48540.5,47236.3
48540.5,46055.2
49721.6,46055.2
49721.6,47236.3
Z" /> 
</g>
<g >
</g>
<g >
</g>
<g >
</g>
<g >
</g>
<g >
</g>
<g >
</g>
<g >
</g>
<g >
</g>
<g >
</g>
<g >
</g>
<g >
</g>
<g >
</g>
<g >
</g>
<g >
</g>
<g style="fill:#000000; fill-opacity:1.0; 
stroke:#000000; stroke-width:0; stroke-opacity:1; 
stroke-linecap:round; stroke-linejoin:round;">
<circle cx="51501.1" cy="45354.4" r="314.961" /> 
</g>
<g style="fill:#000000; fill-opacity:1.0; 
stroke:#000000; stroke-width:118.11; stroke-opacity:1; 
stroke-linecap:round; stroke-linejoin:round;">
</g>
<g >
</g>
<g >
</g>
<g style="fill:#000000; fill-opacity:1.0; 
stroke:#000000; stroke-width:118.11; stroke-opacity:1; 
stroke-linecap:round; stroke-linejoin:round;">
<g >
</g>
<g style="fill:#000000; fill-opacity:1.0; 
stroke:#000000; stroke-width:200; stroke-opacity:1; 
stroke-linecap:round; stroke-linejoin:round;">
<path style="fill:#000000; fill-opacity:1.0; 
stroke:#000000; stroke-width:200; stroke-opacity:1; 
stroke-linecap:round; stroke-linejoin:round;fill-rule:evenodd;"
d="M 61817.6,38574.9
61827.2,38672.9
61855.8,38767.1
61902.2,38854
61964.7,38930.1
62040.9,38992.6
62127.7,39039
62222,39067.6
62320,39077.3
63178.3,39077.3
63178.3,39253.5
62320,39253.5
62222,39263.2
62127.7,39291.8
62040.9,39338.2
61964.7,39400.7
61902.2,39476.8
61855.8,39563.7
61827.2,39657.9
61817.6,39756
61817.6,40937.1
61827.2,41035.1
61855.8,41129.3
61902.2,41216.2
61964.7,41292.3
62040.9,41354.8
62127.7,41401.2
62222,41429.8
62320,41439.5
63051.1,41439.5
62954.8,41535.8
62935,41552.1
62918.7,41571.9
62918.7,41571.9
62870,41631.2
62821.8,41721.5
62801.1,41789.7
62792.6,41817.7
62792.1,41819.4
62782,41921.3
62784.6,41946.8
62784.6,42683.2
62782,42708.7
62784.6,42734.2
62784.6,42734.2
62792.1,42810.6
62820,42902.6
62821.8,42908.6
62870,42998.8
62907.9,43045
62935,43078
62954.8,43094.2
63051.1,43190.6
62320,43190.6
62222,43200.2
62127.7,43228.8
62040.9,43275.2
61964.7,43337.7
61902.2,43413.8
61855.8,43500.7
61827.2,43595
61817.6,43693
61817.6,44874.1
61827.2,44972.1
61855.8,45066.3
61902.2,45153.2
61964.7,45229.3
62040.9,45291.8
62127.7,45338.3
62222,45366.8
62320,45376.5
63178.3,45376.5
63178.3,45554.9
63135.5,45555.2
63010.5,45680.2
63010.5,46545.7
63026.3,46545.7
63026.3,46745.7
63010.5,46745.7
63010.5,46761.5
62810.5,46761.5
62810.5,46745.7
61945,46745.7
61820,46870.7
61819.7,46913.4
50224,46913.4
50224,46055.2
61817.6,46055.2
61820,46420.7
61945,46545.7
62810.5,46545.7
62810.5,45680.2
62685.5,45555.2
62320,45552.8
62222,45562.4
62127.7,45591
62040.9,45637.4
61964.7,45699.9
61902.2,45776
61855.8,45862.9
61827.2,45957.2
61817.6,46055.2
50224,46055.2
50214.3,45957.2
50185.7,45862.9
50139.3,45776
50076.8,45699.9
50000.7,45637.4
49913.8,45591
49819.6,45562.4
49721.6,45552.8
48990.4,45552.8
49086.7,45456.4
49106.6,45440.2
49171.5,45361
49219.8,45270.8
49249.5,45172.8
49257,45096.5
49257,45096.4
49259.5,45070.9
49257,45045.4
49257,39584.6
49259.5,39559.1
49257,39533.6
49257,39533.6
49249.5,39457.2
49219.8,39359.3
49171.5,39269
49106.6,39189.9
49086.7,39173.6
48947,39033.9
49031,38949.9
49031,38084.3
49231,38084.3
49231,38949.9
49356,39074.9
49721.6,39077.3
49819.6,39067.6
49913.8,39039
50000.7,38992.6
50076.8,38930.1
50139.3,38854
50185.7,38767.1
50214.3,38672.9
50224,38574.9
50221.6,38209.3
50096.6,38084.3
49231,38084.3
49031,38084.3
49015.3,38084.3
49015.3,37884.3
49031,37884.3
49031,37868.6
49231,37868.6
49231,37884.3
50096.6,37884.3
50221.6,37759.3
50221.8,37716.6
61817.6,37716.6
Z" /> 
</g>
</g>
</g>
<g style="fill:#FFFFFF; fill-opacity:1.0; 
stroke:#FFFFFF; stroke-width:200; stroke-opacity:1; 
stroke-linecap:round; stroke-linejoin:round;">
</g>
<g style="fill:#FFFFFF; fill-opacity:1.0; 
stroke:#FFFFFF; stroke-width:0; stroke-opacity:1; 
stroke-linecap:round; stroke-linejoin:round;">
<circle cx="51501.1" cy="45354.4" r="137.795" /> 
</g>
<g style="fill:#FFFFFF; fill-opacity:1.0; 
stroke:#FFFFFF; stroke-width:118.11; stroke-opacity:1; 
stroke-linecap:round; stroke-linejoin:round;">
</g>
<g style="fill:#FFFFFF; fill-opacity:1.0; 
stroke:#FFFFFF; stroke-width:0; stroke-opacity:1; 
stroke-linecap:round; stroke-linejoin:round;">
<circle cx="62910.5" cy="46645.7" r="137.795" /> 
</g>
<g style="fill:#FFFFFF; fill-opacity:1.0; 
stroke:#FFFFFF; stroke-width:118.11; stroke-opacity:1; 
stroke-linecap:round; stroke-linejoin:round;">
</g>
<g style="fill:#FFFFFF; fill-opacity:1.0; 
stroke:#FFFFFF; stroke-width:0; stroke-opacity:1; 
stroke-linecap:round; stroke-linejoin:round;">
<circle cx="62910.5" cy="44283.5" r="137.795" /> 
</g>
<g style="fill:#FFFFFF; fill-opacity:1.0; 
stroke:#FFFFFF; stroke-width:118.11; stroke-opacity:1; 
stroke-linecap:round; stroke-linejoin:round;">
</g>
<g style="fill:#FFFFFF; fill-opacity:1.0; 
stroke:#FFFFFF; stroke-width:0; stroke-opacity:1; 
stroke-linecap:round; stroke-linejoin:round;">
<circle cx="62910.5" cy="37984.3" r="137.795" /> 
</g>
<g style="fill:#FFFFFF; fill-opacity:1.0; 
stroke:#FFFFFF; stroke-width:118.11; stroke-opacity:1; 
stroke-linecap:round; stroke-linejoin:round;">
</g>
<g style="fill:#FFFFFF; fill-opacity:1.0; 
stroke:#FFFFFF; stroke-width:0; stroke-opacity:1; 
stroke-linecap:round; stroke-linejoin:round;">
<circle cx="62910.5" cy="40346.5" r="137.795" /> 
</g>
<g style="fill:#FFFFFF; fill-opacity:1.0; 
stroke:#FFFFFF; stroke-width:118.11; stroke-opacity:1; 
stroke-linecap:round; stroke-linejoin:round;">
</g>
<g style="fill:#FFFFFF; fill-opacity:1.0; 
stroke:#FFFFFF; stroke-width:0; stroke-opacity:1; 
stroke-linecap:round; stroke-linejoin:round;">
<circle cx="49131" cy="37984.3" r="137.795" /> 
</g>
<g style="fill:#FFFFFF; fill-opacity:1.0; 
stroke:#FFFFFF; stroke-width:118.11; stroke-opacity:1; 
stroke-linecap:round; stroke-linejoin:round;">
</g>
<g style="fill:#FFFFFF; fill-opacity:1.0; 
stroke:#FFFFFF; stroke-width:0; stroke-opacity:1; 
stroke-linecap:round; stroke-linejoin:round;">
<circle cx="49131" cy="46645.7" r="137.795" /> 
</g>
<g style="fill:#FFFFFF; fill-opacity:1.0; 
stroke:#FFFFFF; stroke-width:118.11; stroke-opacity:1; 
stroke-linecap:round; stroke-linejoin:round;">
</g>
<g style="fill:#000000; fill-opacity:1.0; 
stroke:#000000; stroke-width:118.11; stroke-opacity:1; 
stroke-linecap:round; stroke-linejoin:round;">
</g> 
</svg>
