<?xml version="1.0" standalone="no"?>
 <!DOCTYPE svg PUBLIC "-//W3C//DTD SVG 1.1//EN" 
 "http://www.w3.org/Graphics/SVG/1.1/DTD/svg11.dtd"> 
<svg
  xmlns:svg="http://www.w3.org/2000/svg"
  xmlns="http://www.w3.org/2000/svg"
  xmlns:xlink="http://www.w3.org/1999/xlink"
  version="1.1"
  width="29.700220cm" height="21.000720cm" viewBox="0 0 116930 82680">
<title>SVG Picture created as cargadorDeBateriasLitIon-35-F_Paste.svg date 2021/12/18 17:13:57 </title>
  <desc>Picture generated by PCBNEW </desc>
<g style="fill:#000000; fill-opacity:1;stroke:#000000; stroke-opacity:1;
stroke-linecap:round; stroke-linejoin:round;"
 transform="translate(0 0) scale(1 1)">
</g>
<g style="fill:#000000; fill-opacity:0.0; 
stroke:#000000; stroke-width:-0.000787402; stroke-opacity:1; 
stroke-linecap:round; stroke-linejoin:round;">
</g>
<g style="fill:#000000; fill-opacity:0.0; 
stroke:#000000; stroke-width:39.3701; stroke-opacity:1; 
stroke-linecap:round; stroke-linejoin:round;">
<path d="M66847 37196
L66847 47433
" />
<path d="M45194 37196
L45194 47433
" />
<path d="M45194 37196
L66847 37196
" />
<path d="M66847 47433
L45194 47433
" />
<g >
</g>
<g style="fill:#000000; fill-opacity:0.0; 
stroke:#000000; stroke-width:0; stroke-opacity:1; 
stroke-linecap:round; stroke-linejoin:round;">
</g>
<g style="fill:#000000; fill-opacity:1.0; 
stroke:#000000; stroke-width:0; stroke-opacity:1; 
stroke-linecap:round; stroke-linejoin:round;">
<path style="fill:#000000; fill-opacity:1.0; 
stroke:#000000; stroke-width:0; stroke-opacity:1; 
stroke-linecap:round; stroke-linejoin:round;fill-rule:evenodd;"
d="M 63719.7,44953.6
63736.5,44956.1
63752.9,44960.2
63768.8,44965.9
63784.1,44973.2
63798.6,44981.8
63812.1,44991.9
63824.7,45003.3
63836,45015.8
63846.1,45029.4
63854.8,45043.9
63862,45059.1
63867.7,45075.1
63871.8,45091.5
63874.3,45108.2
63875.1,45125.1
63875.1,45469.5
63874.3,45486.4
63871.8,45503.2
63867.7,45519.5
63862,45535.5
63854.8,45550.7
63846.1,45565.2
63836,45578.8
63824.7,45591.3
63812.1,45602.7
63798.6,45612.8
63784.1,45621.5
63768.8,45628.7
63752.9,45634.4
63736.5,45638.5
63719.7,45641
63702.9,45641.8
63299.3,45641.8
63282.4,45641
63265.7,45638.5
63249.3,45634.4
63233.4,45628.7
63218.1,45621.5
63203.6,45612.8
63190,45602.7
63177.5,45591.3
63166.2,45578.8
63156.1,45565.2
63147.4,45550.7
63140.2,45535.5
63134.5,45519.5
63130.4,45503.2
63127.9,45486.4
63127.1,45469.5
63127.1,45125.1
63127.9,45108.2
63130.4,45091.5
63134.5,45075.1
63140.2,45059.1
63147.4,45043.9
63156.1,45029.4
63166.2,45015.8
63177.5,45003.3
63190,44991.9
63203.6,44981.8
63218.1,44973.2
63233.4,44965.9
63249.3,44960.2
63265.7,44956.1
63282.4,44953.6
63299.3,44952.8
63702.9,44952.8
Z" /> 
<path style="fill:#000000; fill-opacity:1.0; 
stroke:#000000; stroke-width:0; stroke-opacity:1; 
stroke-linecap:round; stroke-linejoin:round;fill-rule:evenodd;"
d="M 63719.7,43713.5
63736.5,43716
63752.9,43720.1
63768.8,43725.8
63784.1,43733
63798.6,43741.7
63812.1,43751.8
63824.7,43763.1
63836,43775.6
63846.1,43789.2
63854.8,43803.7
63862,43819
63867.7,43834.9
63871.8,43851.3
63874.3,43868
63875.1,43884.9
63875.1,44229.4
63874.3,44246.3
63871.8,44263
63867.7,44279.4
63862,44295.3
63854.8,44310.6
63846.1,44325.1
63836,44338.7
63824.7,44351.2
63812.1,44362.5
63798.6,44372.6
63784.1,44381.3
63768.8,44388.5
63752.9,44394.2
63736.5,44398.3
63719.7,44400.8
63702.9,44401.6
63299.3,44401.6
63282.4,44400.8
63265.7,44398.3
63249.3,44394.2
63233.4,44388.5
63218.1,44381.3
63203.6,44372.6
63190,44362.5
63177.5,44351.2
63166.2,44338.7
63156.1,44325.1
63147.4,44310.6
63140.2,44295.3
63134.5,44279.4
63130.4,44263
63127.9,44246.3
63127.1,44229.4
63127.1,43884.9
63127.9,43868
63130.4,43851.3
63134.5,43834.9
63140.2,43819
63147.4,43803.7
63156.1,43789.2
63166.2,43775.6
63177.5,43763.1
63190,43751.8
63203.6,43741.7
63218.1,43733
63233.4,43725.8
63249.3,43720.1
63265.7,43716
63282.4,43713.5
63299.3,43712.7
63702.9,43712.7
Z" /> 
</g>
<g >
</g>
<g style="fill:#000000; fill-opacity:1.0; 
stroke:#000000; stroke-width:0; stroke-opacity:1; 
stroke-linecap:round; stroke-linejoin:round;">
<path style="fill:#000000; fill-opacity:1.0; 
stroke:#000000; stroke-width:0; stroke-opacity:1; 
stroke-linecap:round; stroke-linejoin:round;fill-rule:evenodd;"
d="M 51906.6,43456.8
51906.6,42669.4
52339.7,42669.4
52339.7,43456.8
Z" /> 
<path style="fill:#000000; fill-opacity:1.0; 
stroke:#000000; stroke-width:0; stroke-opacity:1; 
stroke-linecap:round; stroke-linejoin:round;fill-rule:evenodd;"
d="M 52654.6,43456.8
52654.6,42669.4
53087.7,42669.4
53087.7,43456.8
Z" /> 
<path style="fill:#000000; fill-opacity:1.0; 
stroke:#000000; stroke-width:0; stroke-opacity:1; 
stroke-linecap:round; stroke-linejoin:round;fill-rule:evenodd;"
d="M 53402.7,43456.8
53402.7,42669.4
53835.7,42669.4
53835.7,43456.8
Z" /> 
<path style="fill:#000000; fill-opacity:1.0; 
stroke:#000000; stroke-width:0; stroke-opacity:1; 
stroke-linecap:round; stroke-linejoin:round;fill-rule:evenodd;"
d="M 53402.7,41567
53402.7,40779.6
53835.7,40779.6
53835.7,41567
Z" /> 
<path style="fill:#000000; fill-opacity:1.0; 
stroke:#000000; stroke-width:0; stroke-opacity:1; 
stroke-linecap:round; stroke-linejoin:round;fill-rule:evenodd;"
d="M 52654.6,41567
52654.6,40779.6
53087.7,40779.6
53087.7,41567
Z" /> 
<path style="fill:#000000; fill-opacity:1.0; 
stroke:#000000; stroke-width:0; stroke-opacity:1; 
stroke-linecap:round; stroke-linejoin:round;fill-rule:evenodd;"
d="M 51906.6,41567
51906.6,40779.6
52339.7,40779.6
52339.7,41567
Z" /> 
</g>
<g >
</g>
<g style="fill:#000000; fill-opacity:1.0; 
stroke:#000000; stroke-width:0; stroke-opacity:1; 
stroke-linecap:round; stroke-linejoin:round;">
<path style="fill:#000000; fill-opacity:1.0; 
stroke:#000000; stroke-width:0; stroke-opacity:1; 
stroke-linecap:round; stroke-linejoin:round;fill-rule:evenodd;"
d="M 57540.5,45169.4
57540.5,45681.2
56705.8,45681.2
56705.8,45169.4
Z" /> 
<path style="fill:#000000; fill-opacity:1.0; 
stroke:#000000; stroke-width:0; stroke-opacity:1; 
stroke-linecap:round; stroke-linejoin:round;fill-rule:evenodd;"
d="M 57540.5,43673.3
57540.5,44185.1
56705.8,44185.1
56705.8,43673.3
Z" /> 
<path style="fill:#000000; fill-opacity:1.0; 
stroke:#000000; stroke-width:0; stroke-opacity:1; 
stroke-linecap:round; stroke-linejoin:round;fill-rule:evenodd;"
d="M 59272.7,43673.3
59272.7,44185.1
58438.1,44185.1
58438.1,43673.3
Z" /> 
<path style="fill:#000000; fill-opacity:1.0; 
stroke:#000000; stroke-width:0; stroke-opacity:1; 
stroke-linecap:round; stroke-linejoin:round;fill-rule:evenodd;"
d="M 59272.7,44421.3
59272.7,44933.1
58438.1,44933.1
58438.1,44421.3
Z" /> 
<path style="fill:#000000; fill-opacity:1.0; 
stroke:#000000; stroke-width:0; stroke-opacity:1; 
stroke-linecap:round; stroke-linejoin:round;fill-rule:evenodd;"
d="M 59272.7,45169.4
59272.7,45681.2
58438.1,45681.2
58438.1,45169.4
Z" /> 
</g>
<g >
</g>
<g style="fill:#000000; fill-opacity:1.0; 
stroke:#000000; stroke-width:0; stroke-opacity:1; 
stroke-linecap:round; stroke-linejoin:round;">
<path style="fill:#000000; fill-opacity:1.0; 
stroke:#000000; stroke-width:0; stroke-opacity:1; 
stroke-linecap:round; stroke-linejoin:round;fill-rule:evenodd;"
d="M 62144.9,44894.6
62161.7,44897.1
62178.1,44901.2
62194,44906.9
62209.3,44914.1
62223.8,44922.8
62237.3,44932.9
62249.9,44944.2
62261.2,44956.7
62271.3,44970.3
62280,44984.8
62287.2,45000.1
62292.9,45016
62297,45032.4
62299.5,45049.1
62300.3,45066
62300.3,45469.5
62299.5,45486.4
62297,45503.2
62292.9,45519.5
62287.2,45535.5
62280,45550.7
62271.3,45565.2
62261.2,45578.8
62249.9,45591.3
62237.3,45602.7
62223.8,45612.8
62209.3,45621.5
62194,45628.7
62178.1,45634.4
62161.7,45638.5
62144.9,45641
62128.1,45641.8
61783.6,45641.8
61766.7,45641
61750,45638.5
61733.6,45634.4
61717.7,45628.7
61702.4,45621.5
61687.9,45612.8
61674.3,45602.7
61661.8,45591.3
61650.4,45578.8
61640.4,45565.2
61631.7,45550.7
61624.4,45535.5
61618.7,45519.5
61614.6,45503.2
61612.2,45486.4
61611.3,45469.5
61611.3,45066
61612.2,45049.1
61614.6,45032.4
61618.7,45016
61624.4,45000.1
61631.7,44984.8
61640.4,44970.3
61650.4,44956.7
61661.8,44944.2
61674.3,44932.9
61687.9,44922.8
61702.4,44914.1
61717.7,44906.9
61733.6,44901.2
61750,44897.1
61766.7,44894.6
61783.6,44893.8
62128.1,44893.8
Z" /> 
<path style="fill:#000000; fill-opacity:1.0; 
stroke:#000000; stroke-width:0; stroke-opacity:1; 
stroke-linecap:round; stroke-linejoin:round;fill-rule:evenodd;"
d="M 60904.8,44894.6
60921.5,44897.1
60937.9,44901.2
60953.8,44906.9
60969.1,44914.1
60983.6,44922.8
60997.2,44932.9
61009.7,44944.2
61021,44956.7
61031.1,44970.3
61039.8,44984.8
61047,45000.1
61052.7,45016
61056.8,45032.4
61059.3,45049.1
61060.1,45066
61060.1,45469.5
61059.3,45486.4
61056.8,45503.2
61052.7,45519.5
61047,45535.5
61039.8,45550.7
61031.1,45565.2
61021,45578.8
61009.7,45591.3
60997.2,45602.7
60983.6,45612.8
60969.1,45621.5
60953.8,45628.7
60937.9,45634.4
60921.5,45638.5
60904.8,45641
60887.9,45641.8
60543.4,45641.8
60526.5,45641
60509.8,45638.5
60493.4,45634.4
60477.5,45628.7
60462.2,45621.5
60447.7,45612.8
60434.1,45602.7
60421.6,45591.3
60410.3,45578.8
60400.2,45565.2
60391.5,45550.7
60384.3,45535.5
60378.6,45519.5
60374.5,45503.2
60372,45486.4
60371.2,45469.5
60371.2,45066
60372,45049.1
60374.5,45032.4
60378.6,45016
60384.3,45000.1
60391.5,44984.8
60400.2,44970.3
60410.3,44956.7
60421.6,44944.2
60434.1,44932.9
60447.7,44922.8
60462.2,44914.1
60477.5,44906.9
60493.4,44901.2
60509.8,44897.1
60526.5,44894.6
60543.4,44893.8
60887.9,44893.8
Z" /> 
</g>
<g >
</g>
<g style="fill:#000000; fill-opacity:1.0; 
stroke:#000000; stroke-width:0; stroke-opacity:1; 
stroke-linecap:round; stroke-linejoin:round;">
<path style="fill:#000000; fill-opacity:1.0; 
stroke:#000000; stroke-width:0; stroke-opacity:1; 
stroke-linecap:round; stroke-linejoin:round;fill-rule:evenodd;"
d="M 60904.8,43516.6
60921.5,43519.1
60937.9,43523.2
60953.8,43528.9
60969.1,43536.1
60983.6,43544.8
60997.2,43554.9
61009.7,43566.3
61021,43578.8
61031.1,43592.4
61039.8,43606.9
61047,43622.1
61052.7,43638.1
61056.8,43654.4
61059.3,43671.2
61060.1,43688.1
61060.1,44091.6
61059.3,44108.5
61056.8,44125.2
61052.7,44141.6
61047,44157.5
61039.8,44172.8
61031.1,44187.3
61021,44200.9
61009.7,44213.4
60997.2,44224.7
60983.6,44234.8
60969.1,44243.5
60953.8,44250.7
60937.9,44256.4
60921.5,44260.5
60904.8,44263
60887.9,44263.8
60543.4,44263.8
60526.5,44263
60509.8,44260.5
60493.4,44256.4
60477.5,44250.7
60462.2,44243.5
60447.7,44234.8
60434.1,44224.7
60421.6,44213.4
60410.3,44200.9
60400.2,44187.3
60391.5,44172.8
60384.3,44157.5
60378.6,44141.6
60374.5,44125.2
60372,44108.5
60371.2,44091.6
60371.2,43688.1
60372,43671.2
60374.5,43654.4
60378.6,43638.1
60384.3,43622.1
60391.5,43606.9
60400.2,43592.4
60410.3,43578.8
60421.6,43566.3
60434.1,43554.9
60447.7,43544.8
60462.2,43536.1
60477.5,43528.9
60493.4,43523.2
60509.8,43519.1
60526.5,43516.6
60543.4,43515.8
60887.9,43515.8
Z" /> 
<path style="fill:#000000; fill-opacity:1.0; 
stroke:#000000; stroke-width:0; stroke-opacity:1; 
stroke-linecap:round; stroke-linejoin:round;fill-rule:evenodd;"
d="M 62144.9,43516.6
62161.7,43519.1
62178.1,43523.2
62194,43528.9
62209.3,43536.1
62223.8,43544.8
62237.3,43554.9
62249.9,43566.3
62261.2,43578.8
62271.3,43592.4
62280,43606.9
62287.2,43622.1
62292.9,43638.1
62297,43654.4
62299.5,43671.2
62300.3,43688.1
62300.3,44091.6
62299.5,44108.5
62297,44125.2
62292.9,44141.6
62287.2,44157.5
62280,44172.8
62271.3,44187.3
62261.2,44200.9
62249.9,44213.4
62237.3,44224.7
62223.8,44234.8
62209.3,44243.5
62194,44250.7
62178.1,44256.4
62161.7,44260.5
62144.9,44263
62128.1,44263.8
61783.6,44263.8
61766.7,44263
61750,44260.5
61733.6,44256.4
61717.7,44250.7
61702.4,44243.5
61687.9,44234.8
61674.3,44224.7
61661.8,44213.4
61650.4,44200.9
61640.4,44187.3
61631.7,44172.8
61624.4,44157.5
61618.7,44141.6
61614.6,44125.2
61612.2,44108.5
61611.3,44091.6
61611.3,43688.1
61612.2,43671.2
61614.6,43654.4
61618.7,43638.1
61624.4,43622.1
61631.7,43606.9
61640.4,43592.4
61650.4,43578.8
61661.8,43566.3
61674.3,43554.9
61687.9,43544.8
61702.4,43536.1
61717.7,43528.9
61733.6,43523.2
61750,43519.1
61766.7,43516.6
61783.6,43515.8
62128.1,43515.8
Z" /> 
</g>
<g >
</g>
<g style="fill:#000000; fill-opacity:1.0; 
stroke:#000000; stroke-width:0; stroke-opacity:1; 
stroke-linecap:round; stroke-linejoin:round;">
<path style="fill:#000000; fill-opacity:1.0; 
stroke:#000000; stroke-width:0; stroke-opacity:1; 
stroke-linecap:round; stroke-linejoin:round;fill-rule:evenodd;"
d="M 61375.1,42118.2
59957.8,42118.2
59957.8,38574.9
61375.1,38574.9
Z" /> 
<path style="fill:#000000; fill-opacity:1.0; 
stroke:#000000; stroke-width:0; stroke-opacity:1; 
stroke-linecap:round; stroke-linejoin:round;fill-rule:evenodd;"
d="M 58776.7,42118.2
57359.4,42118.2
57359.4,38574.9
58776.7,38574.9
Z" /> 
</g>
<g >
</g>
<g style="fill:#000000; fill-opacity:1.0; 
stroke:#000000; stroke-width:0; stroke-opacity:1; 
stroke-linecap:round; stroke-linejoin:round;">
<path style="fill:#000000; fill-opacity:1.0; 
stroke:#000000; stroke-width:0; stroke-opacity:1; 
stroke-linecap:round; stroke-linejoin:round;fill-rule:evenodd;"
d="M 63343.6,40661.5
62477.5,40661.5
62477.5,39795.3
63343.6,39795.3
Z" /> 
<path style="fill:#000000; fill-opacity:1.0; 
stroke:#000000; stroke-width:0; stroke-opacity:1; 
stroke-linecap:round; stroke-linejoin:round;fill-rule:evenodd;"
d="M 63343.6,42866.2
62477.5,42866.2
62477.5,42000.1
63343.6,42000.1
Z" /> 
</g>
<g >
</g>
<g style="fill:#000000; fill-opacity:1.0; 
stroke:#000000; stroke-width:0; stroke-opacity:1; 
stroke-linecap:round; stroke-linejoin:round;">
<path style="fill:#000000; fill-opacity:1.0; 
stroke:#000000; stroke-width:0; stroke-opacity:1; 
stroke-linecap:round; stroke-linejoin:round;fill-rule:evenodd;"
d="M 55985.5,43083.7
56004.1,43086.4
56022.4,43091
56040.1,43097.3
56057.1,43105.4
56073.3,43115.1
56088.4,43126.3
56102.4,43139
56115,43152.9
56126.2,43168
56135.9,43184.2
56144,43201.2
56150.3,43219
56154.9,43237.2
56157.6,43255.9
56158.6,43274.7
56158.6,43658.5
56157.6,43677.3
56154.9,43696
56150.3,43714.2
56144,43732
56135.9,43749
56126.2,43765.2
56115,43780.3
56102.4,43794.2
56088.4,43806.9
56073.3,43818.1
56057.1,43827.8
56040.1,43835.8
56022.4,43842.2
56004.1,43846.8
55985.5,43849.5
55966.6,43850.5
55248.1,43850.5
55229.3,43849.5
55210.7,43846.8
55192.4,43842.2
55174.7,43835.8
55157.7,43827.8
55141.5,43818.1
55126.4,43806.9
55112.4,43794.2
55099.8,43780.3
55088.6,43765.2
55078.9,43749
55070.8,43732
55064.5,43714.2
55059.9,43696
55057.1,43677.3
55056.2,43658.5
55056.2,43274.7
55057.1,43255.9
55059.9,43237.2
55064.5,43219
55070.8,43201.2
55078.9,43184.2
55088.6,43168
55099.8,43152.9
55112.4,43139
55126.4,43126.3
55141.5,43115.1
55157.7,43105.4
55174.7,43097.3
55192.4,43091
55210.7,43086.4
55229.3,43083.7
55248.1,43082.7
55966.6,43082.7
Z" /> 
<path style="fill:#000000; fill-opacity:1.0; 
stroke:#000000; stroke-width:0; stroke-opacity:1; 
stroke-linecap:round; stroke-linejoin:round;fill-rule:evenodd;"
d="M 55985.5,44560
56004.1,44562.8
56022.4,44567.4
56040.1,44573.7
56057.1,44581.8
56073.3,44591.5
56088.4,44602.7
56102.4,44615.3
56115,44629.3
56126.2,44644.4
56135.9,44660.6
56144,44677.6
56150.3,44695.3
56154.9,44713.6
56157.6,44732.2
56158.6,44751
56158.6,45134.9
56157.6,45153.7
56154.9,45172.3
56150.3,45190.6
56144,45208.4
56135.9,45225.4
56126.2,45241.5
56115,45256.7
56102.4,45270.6
56088.4,45283.3
56073.3,45294.5
56057.1,45304.2
56040.1,45312.2
56022.4,45318.6
56004.1,45323.1
55985.5,45325.9
55966.6,45326.8
55248.1,45326.8
55229.3,45325.9
55210.7,45323.1
55192.4,45318.6
55174.7,45312.2
55157.7,45304.2
55141.5,45294.5
55126.4,45283.3
55112.4,45270.6
55099.8,45256.7
55088.6,45241.5
55078.9,45225.4
55070.8,45208.4
55064.5,45190.6
55059.9,45172.3
55057.1,45153.7
55056.2,45134.9
55056.2,44751
55057.1,44732.2
55059.9,44713.6
55064.5,44695.3
55070.8,44677.6
55078.9,44660.6
55088.6,44644.4
55099.8,44629.3
55112.4,44615.3
55126.4,44602.7
55141.5,44591.5
55157.7,44581.8
55174.7,44573.7
55192.4,44567.4
55210.7,44562.8
55229.3,44560
55248.1,44559.1
55966.6,44559.1
Z" /> 
</g>
<g >
</g>
<g >
</g>
<g style="fill:#000000; fill-opacity:1.0; 
stroke:#000000; stroke-width:0; stroke-opacity:1; 
stroke-linecap:round; stroke-linejoin:round;">
<path style="fill:#000000; fill-opacity:1.0; 
stroke:#000000; stroke-width:0; stroke-opacity:1; 
stroke-linecap:round; stroke-linejoin:round;fill-rule:evenodd;"
d="M 53477.5,45417.4
53477.5,44866.2
54264.9,44866.2
54264.9,45417.4
Z" /> 
<path style="fill:#000000; fill-opacity:1.0; 
stroke:#000000; stroke-width:0; stroke-opacity:1; 
stroke-linecap:round; stroke-linejoin:round;fill-rule:evenodd;"
d="M 53477.5,44669.4
53477.5,44118.2
54264.9,44118.2
54264.9,44669.4
Z" /> 
<path style="fill:#000000; fill-opacity:1.0; 
stroke:#000000; stroke-width:0; stroke-opacity:1; 
stroke-linecap:round; stroke-linejoin:round;fill-rule:evenodd;"
d="M 53477.5,46165.4
53477.5,45614.2
54264.9,45614.2
54264.9,46165.4
Z" /> 
<path style="fill:#000000; fill-opacity:1.0; 
stroke:#000000; stroke-width:0; stroke-opacity:1; 
stroke-linecap:round; stroke-linejoin:round;fill-rule:evenodd;"
d="M 51430.2,46165.4
51430.2,45614.2
52217.6,45614.2
52217.6,46165.4
Z" /> 
<path style="fill:#000000; fill-opacity:1.0; 
stroke:#000000; stroke-width:0; stroke-opacity:1; 
stroke-linecap:round; stroke-linejoin:round;fill-rule:evenodd;"
d="M 51430.2,45417.4
51430.2,44866.2
52217.6,44866.2
52217.6,45417.4
Z" /> 
<path style="fill:#000000; fill-opacity:1.0; 
stroke:#000000; stroke-width:0; stroke-opacity:1; 
stroke-linecap:round; stroke-linejoin:round;fill-rule:evenodd;"
d="M 51430.2,44669.4
51430.2,44118.2
52217.6,44118.2
52217.6,44669.4
Z" /> 
</g>
<g >
</g>
<g >
</g>
<g >
</g>
<g >
</g>
<g >
</g>
<g >
</g>
<g style="fill:#000000; fill-opacity:1.0; 
stroke:#000000; stroke-width:0; stroke-opacity:1; 
stroke-linecap:round; stroke-linejoin:round;">
<path style="fill:#000000; fill-opacity:1.0; 
stroke:#000000; stroke-width:0; stroke-opacity:1; 
stroke-linecap:round; stroke-linejoin:round;fill-rule:evenodd;"
d="M 48442,42291.4
48953.8,42291.4
48953.8,43126
48442,43126
Z" /> 
<path style="fill:#000000; fill-opacity:1.0; 
stroke:#000000; stroke-width:0; stroke-opacity:1; 
stroke-linecap:round; stroke-linejoin:round;fill-rule:evenodd;"
d="M 46946,42291.4
47457.8,42291.4
47457.8,43126
46946,43126
Z" /> 
<path style="fill:#000000; fill-opacity:1.0; 
stroke:#000000; stroke-width:0; stroke-opacity:1; 
stroke-linecap:round; stroke-linejoin:round;fill-rule:evenodd;"
d="M 46946,40559.1
47457.8,40559.1
47457.8,41393.8
46946,41393.8
Z" /> 
<path style="fill:#000000; fill-opacity:1.0; 
stroke:#000000; stroke-width:0; stroke-opacity:1; 
stroke-linecap:round; stroke-linejoin:round;fill-rule:evenodd;"
d="M 47694,40559.1
48205.8,40559.1
48205.8,41393.8
47694,41393.8
Z" /> 
<path style="fill:#000000; fill-opacity:1.0; 
stroke:#000000; stroke-width:0; stroke-opacity:1; 
stroke-linecap:round; stroke-linejoin:round;fill-rule:evenodd;"
d="M 48442,40559.1
48953.8,40559.1
48953.8,41393.8
48442,41393.8
Z" /> 
</g>
<g >
</g>
<g style="fill:#000000; fill-opacity:1.0; 
stroke:#000000; stroke-width:0; stroke-opacity:1; 
stroke-linecap:round; stroke-linejoin:round;">
<path style="fill:#000000; fill-opacity:1.0; 
stroke:#000000; stroke-width:0; stroke-opacity:1; 
stroke-linecap:round; stroke-linejoin:round;fill-rule:evenodd;"
d="M 55412.7,39327.7
55429.4,39330.1
55445.8,39334.2
55461.7,39339.9
55477,39347.2
55491.5,39355.9
55505,39365.9
55517.6,39377.3
55528.9,39389.8
55539,39403.4
55547.7,39417.9
55554.9,39433.2
55560.6,39449.1
55564.7,39465.5
55567.2,39482.2
55568,39499.1
55568,39902.6
55567.2,39919.5
55564.7,39936.2
55560.6,39952.6
55554.9,39968.5
55547.7,39983.8
55539,39998.3
55528.9,40011.9
55517.6,40024.4
55505,40035.8
55491.5,40045.8
55477,40054.5
55461.7,40061.8
55445.8,40067.4
55429.4,40071.6
55412.7,40074
55395.8,40074.9
55051.3,40074.9
55034.4,40074
55017.7,40071.6
55001.3,40067.4
54985.4,40061.8
54970.1,40054.5
54955.6,40045.8
54942,40035.8
54929.5,40024.4
54918.1,40011.9
54908.1,39998.3
54899.4,39983.8
54892.2,39968.5
54886.5,39952.6
54882.4,39936.2
54879.9,39919.5
54879,39902.6
54879,39499.1
54879.9,39482.2
54882.4,39465.5
54886.5,39449.1
54892.2,39433.2
54899.4,39417.9
54908.1,39403.4
54918.1,39389.8
54929.5,39377.3
54942,39365.9
54955.6,39355.9
54970.1,39347.2
54985.4,39339.9
55001.3,39334.2
55017.7,39330.1
55034.4,39327.7
55051.3,39326.8
55395.8,39326.8
Z" /> 
<path style="fill:#000000; fill-opacity:1.0; 
stroke:#000000; stroke-width:0; stroke-opacity:1; 
stroke-linecap:round; stroke-linejoin:round;fill-rule:evenodd;"
d="M 54172.5,39327.7
54189.2,39330.1
54205.6,39334.2
54221.5,39339.9
54236.8,39347.2
54251.3,39355.9
54264.9,39365.9
54277.4,39377.3
54288.8,39389.8
54298.8,39403.4
54307.5,39417.9
54314.7,39433.2
54320.4,39449.1
54324.6,39465.5
54327,39482.2
54327.9,39499.1
54327.9,39902.6
54327,39919.5
54324.6,39936.2
54320.4,39952.6
54314.7,39968.5
54307.5,39983.8
54298.8,39998.3
54288.8,40011.9
54277.4,40024.4
54264.9,40035.8
54251.3,40045.8
54236.8,40054.5
54221.5,40061.8
54205.6,40067.4
54189.2,40071.6
54172.5,40074
54155.6,40074.9
53811.1,40074.9
53794.2,40074
53777.5,40071.6
53761.1,40067.4
53745.2,40061.8
53729.9,40054.5
53715.4,40045.8
53701.9,40035.8
53689.3,40024.4
53678,40011.9
53667.9,39998.3
53659.2,39983.8
53652,39968.5
53646.3,39952.6
53642.2,39936.2
53639.7,39919.5
53638.9,39902.6
53638.9,39499.1
53639.7,39482.2
53642.2,39465.5
53646.3,39449.1
53652,39433.2
53659.2,39417.9
53667.9,39403.4
53678,39389.8
53689.3,39377.3
53701.9,39365.9
53715.4,39355.9
53729.9,39347.2
53745.2,39339.9
53761.1,39334.2
53777.5,39330.1
53794.2,39327.7
53811.1,39326.8
54155.6,39326.8
Z" /> 
</g>
<g >
</g>
<g style="fill:#000000; fill-opacity:1.0; 
stroke:#000000; stroke-width:0; stroke-opacity:1; 
stroke-linecap:round; stroke-linejoin:round;">
<path style="fill:#000000; fill-opacity:1.0; 
stroke:#000000; stroke-width:0; stroke-opacity:1; 
stroke-linecap:round; stroke-linejoin:round;fill-rule:evenodd;"
d="M 55412.7,41882.8
55429.4,41885.3
55445.8,41889.4
55461.7,41895.1
55477,41902.3
55491.5,41911
55505,41921
55517.6,41932.4
55528.9,41944.9
55539,41958.5
55547.7,41973
55554.9,41988.3
55560.6,42004.2
55564.7,42020.6
55567.2,42037.3
55568,42054.2
55568,42398.7
55567.2,42415.6
55564.7,42432.3
55560.6,42448.7
55554.9,42464.6
55547.7,42479.9
55539,42494.4
55528.9,42508
55517.6,42520.5
55505,42531.8
55491.5,42541.9
55477,42550.6
55461.7,42557.8
55445.8,42563.5
55429.4,42567.6
55412.7,42570.1
55395.8,42570.9
54992.2,42570.9
54975.3,42570.1
54958.6,42567.6
54942.2,42563.5
54926.3,42557.8
54911,42550.6
54896.5,42541.9
54883,42531.8
54870.4,42520.5
54859.1,42508
54849,42494.4
54840.3,42479.9
54833.1,42464.6
54827.4,42448.7
54823.3,42432.3
54820.8,42415.6
54820,42398.7
54820,42054.2
54820.8,42037.3
54823.3,42020.6
54827.4,42004.2
54833.1,41988.3
54840.3,41973
54849,41958.5
54859.1,41944.9
54870.4,41932.4
54883,41921
54896.5,41911
54911,41902.3
54926.3,41895.1
54942.2,41889.4
54958.6,41885.3
54975.3,41882.8
54992.2,41881.9
55395.8,41881.9
Z" /> 
<path style="fill:#000000; fill-opacity:1.0; 
stroke:#000000; stroke-width:0; stroke-opacity:1; 
stroke-linecap:round; stroke-linejoin:round;fill-rule:evenodd;"
d="M 55412.7,40642.6
55429.4,40645.1
55445.8,40649.2
55461.7,40654.9
55477,40662.1
55491.5,40670.8
55505,40680.9
55517.6,40692.2
55528.9,40704.8
55539,40718.3
55547.7,40732.8
55554.9,40748.1
55560.6,40764
55564.7,40780.4
55567.2,40797.2
55568,40814
55568,41158.5
55567.2,41175.4
55564.7,41192.1
55560.6,41208.5
55554.9,41224.4
55547.7,41239.7
55539,41254.2
55528.9,41267.8
55517.6,41280.3
55505,41291.7
55491.5,41301.7
55477,41310.4
55461.7,41317.7
55445.8,41323.4
55429.4,41327.5
55412.7,41329.9
55395.8,41330.8
54992.2,41330.8
54975.3,41329.9
54958.6,41327.5
54942.2,41323.4
54926.3,41317.7
54911,41310.4
54896.5,41301.7
54883,41291.7
54870.4,41280.3
54859.1,41267.8
54849,41254.2
54840.3,41239.7
54833.1,41224.4
54827.4,41208.5
54823.3,41192.1
54820.8,41175.4
54820,41158.5
54820,40814
54820.8,40797.2
54823.3,40780.4
54827.4,40764
54833.1,40748.1
54840.3,40732.8
54849,40718.3
54859.1,40704.8
54870.4,40692.2
54883,40680.9
54896.5,40670.8
54911,40662.1
54926.3,40654.9
54942.2,40649.2
54958.6,40645.1
54975.3,40642.6
54992.2,40641.8
55395.8,40641.8
Z" /> 
</g>
<g >
</g>
<g style="fill:#000000; fill-opacity:1.0; 
stroke:#000000; stroke-width:0; stroke-opacity:1; 
stroke-linecap:round; stroke-linejoin:round;">
<path style="fill:#000000; fill-opacity:1.0; 
stroke:#000000; stroke-width:0; stroke-opacity:1; 
stroke-linecap:round; stroke-linejoin:round;fill-rule:evenodd;"
d="M 50294.5,42276.5
50311.3,42279
50327.7,42283.1
50343.6,42288.8
50358.9,42296
50373.4,42304.7
50386.9,42314.7
50399.5,42326.1
50410.8,42338.6
50420.9,42352.2
50429.6,42366.7
50436.8,42382
50442.5,42397.9
50446.6,42414.3
50449.1,42431
50449.9,42447.9
50449.9,42792.4
50449.1,42809.3
50446.6,42826
50442.5,42842.4
50436.8,42858.3
50429.6,42873.6
50420.9,42888.1
50410.8,42901.7
50399.5,42914.2
50386.9,42925.5
50373.4,42935.6
50358.9,42944.3
50343.6,42951.5
50327.7,42957.2
50311.3,42961.3
50294.5,42963.8
50277.7,42964.6
49874.1,42964.6
49857.2,42963.8
49840.5,42961.3
49824.1,42957.2
49808.2,42951.5
49792.9,42944.3
49778.4,42935.6
49764.8,42925.5
49752.3,42914.2
49741,42901.7
49730.9,42888.1
49722.2,42873.6
49715,42858.3
49709.3,42842.4
49705.2,42826
49702.7,42809.3
49701.9,42792.4
49701.9,42447.9
49702.7,42431
49705.2,42414.3
49709.3,42397.9
49715,42382
49722.2,42366.7
49730.9,42352.2
49741,42338.6
49752.3,42326.1
49764.8,42314.7
49778.4,42304.7
49792.9,42296
49808.2,42288.8
49824.1,42283.1
49840.5,42279
49857.2,42276.5
49874.1,42275.7
50277.7,42275.7
Z" /> 
<path style="fill:#000000; fill-opacity:1.0; 
stroke:#000000; stroke-width:0; stroke-opacity:1; 
stroke-linecap:round; stroke-linejoin:round;fill-rule:evenodd;"
d="M 50294.5,41036.3
50311.3,41038.8
50327.7,41042.9
50343.6,41048.6
50358.9,41055.8
50373.4,41064.5
50386.9,41074.6
50399.5,41085.9
50410.8,41098.5
50420.9,41112
50429.6,41126.5
50436.8,41141.8
50442.5,41157.7
50446.6,41174.1
50449.1,41190.9
50449.9,41207.7
50449.9,41552.2
50449.1,41569.1
50446.6,41585.8
50442.5,41602.2
50436.8,41618.1
50429.6,41633.4
50420.9,41647.9
50410.8,41661.5
50399.5,41674
50386.9,41685.4
50373.4,41695.4
50358.9,41704.1
50343.6,41711.4
50327.7,41717.1
50311.3,41721.2
50294.5,41723.6
50277.7,41724.5
49874.1,41724.5
49857.2,41723.6
49840.5,41721.2
49824.1,41717.1
49808.2,41711.4
49792.9,41704.1
49778.4,41695.4
49764.8,41685.4
49752.3,41674
49741,41661.5
49730.9,41647.9
49722.2,41633.4
49715,41618.1
49709.3,41602.2
49705.2,41585.8
49702.7,41569.1
49701.9,41552.2
49701.9,41207.7
49702.7,41190.9
49705.2,41174.1
49709.3,41157.7
49715,41141.8
49722.2,41126.5
49730.9,41112
49741,41098.5
49752.3,41085.9
49764.8,41074.6
49778.4,41064.5
49792.9,41055.8
49808.2,41048.6
49824.1,41042.9
49840.5,41038.8
49857.2,41036.3
49874.1,41035.5
50277.7,41035.5
Z" /> 
</g>
<g >
</g>
<g style="fill:#000000; fill-opacity:1.0; 
stroke:#000000; stroke-width:0; stroke-opacity:1; 
stroke-linecap:round; stroke-linejoin:round;">
<path style="fill:#000000; fill-opacity:1.0; 
stroke:#000000; stroke-width:0; stroke-opacity:1; 
stroke-linecap:round; stroke-linejoin:round;fill-rule:evenodd;"
d="M 50294.5,44953.6
50311.3,44956.1
50327.7,44960.2
50343.6,44965.9
50358.9,44973.2
50373.4,44981.8
50386.9,44991.9
50399.5,45003.3
50410.8,45015.8
50420.9,45029.4
50429.6,45043.9
50436.8,45059.1
50442.5,45075.1
50446.6,45091.5
50449.1,45108.2
50449.9,45125.1
50449.9,45469.5
50449.1,45486.4
50446.6,45503.2
50442.5,45519.5
50436.8,45535.5
50429.6,45550.7
50420.9,45565.2
50410.8,45578.8
50399.5,45591.3
50386.9,45602.7
50373.4,45612.8
50358.9,45621.5
50343.6,45628.7
50327.7,45634.4
50311.3,45638.5
50294.5,45641
50277.7,45641.8
49874.1,45641.8
49857.2,45641
49840.5,45638.5
49824.1,45634.4
49808.2,45628.7
49792.9,45621.5
49778.4,45612.8
49764.8,45602.7
49752.3,45591.3
49741,45578.8
49730.9,45565.2
49722.2,45550.7
49715,45535.5
49709.3,45519.5
49705.2,45503.2
49702.7,45486.4
49701.9,45469.5
49701.9,45125.1
49702.7,45108.2
49705.2,45091.5
49709.3,45075.1
49715,45059.1
49722.2,45043.9
49730.9,45029.4
49741,45015.8
49752.3,45003.3
49764.8,44991.9
49778.4,44981.8
49792.9,44973.2
49808.2,44965.9
49824.1,44960.2
49840.5,44956.1
49857.2,44953.6
49874.1,44952.8
50277.7,44952.8
Z" /> 
<path style="fill:#000000; fill-opacity:1.0; 
stroke:#000000; stroke-width:0; stroke-opacity:1; 
stroke-linecap:round; stroke-linejoin:round;fill-rule:evenodd;"
d="M 50294.5,43713.5
50311.3,43716
50327.7,43720.1
50343.6,43725.8
50358.9,43733
50373.4,43741.7
50386.9,43751.8
50399.5,43763.1
50410.8,43775.6
50420.9,43789.2
50429.6,43803.7
50436.8,43819
50442.5,43834.9
50446.6,43851.3
50449.1,43868
50449.9,43884.9
50449.9,44229.4
50449.1,44246.3
50446.6,44263
50442.5,44279.4
50436.8,44295.3
50429.6,44310.6
50420.9,44325.1
50410.8,44338.7
50399.5,44351.2
50386.9,44362.5
50373.4,44372.6
50358.9,44381.3
50343.6,44388.5
50327.7,44394.2
50311.3,44398.3
50294.5,44400.8
50277.7,44401.6
49874.1,44401.6
49857.2,44400.8
49840.5,44398.3
49824.1,44394.2
49808.2,44388.5
49792.9,44381.3
49778.4,44372.6
49764.8,44362.5
49752.3,44351.2
49741,44338.7
49730.9,44325.1
49722.2,44310.6
49715,44295.3
49709.3,44279.4
49705.2,44263
49702.7,44246.3
49701.9,44229.4
49701.9,43884.9
49702.7,43868
49705.2,43851.3
49709.3,43834.9
49715,43819
49722.2,43803.7
49730.9,43789.2
49741,43775.6
49752.3,43763.1
49764.8,43751.8
49778.4,43741.7
49792.9,43733
49808.2,43725.8
49824.1,43720.1
49840.5,43716
49857.2,43713.5
49874.1,43712.7
50277.7,43712.7
Z" /> 
</g>
<g >
</g>
<g style="fill:#000000; fill-opacity:1.0; 
stroke:#000000; stroke-width:0; stroke-opacity:1; 
stroke-linecap:round; stroke-linejoin:round;">
<path style="fill:#000000; fill-opacity:1.0; 
stroke:#000000; stroke-width:0; stroke-opacity:1; 
stroke-linecap:round; stroke-linejoin:round;fill-rule:evenodd;"
d="M 47755.2,43674.1
47771.9,43676.6
47788.3,43680.7
47804.2,43686.4
47819.5,43693.6
47834,43702.3
47847.6,43712.4
47860.1,43723.7
47871.4,43736.3
47881.5,43749.8
47890.2,43764.3
47897.4,43779.6
47903.1,43795.5
47907.2,43811.9
47909.7,43828.6
47910.5,43845.5
47910.5,44249.1
47909.7,44266
47907.2,44282.7
47903.1,44299.1
47897.4,44315
47890.2,44330.3
47881.5,44344.8
47871.4,44358.3
47860.1,44370.9
47847.6,44382.2
47834,44392.3
47819.5,44401
47804.2,44408.2
47788.3,44413.9
47771.9,44418
47755.2,44420.5
47738.3,44421.3
47393.8,44421.3
47376.9,44420.5
47360.2,44418
47343.8,44413.9
47327.9,44408.2
47312.6,44401
47298.1,44392.3
47284.5,44382.2
47272,44370.9
47260.7,44358.3
47250.6,44344.8
47241.9,44330.3
47234.7,44315
47229,44299.1
47224.9,44282.7
47222.4,44266
47221.6,44249.1
47221.6,43845.5
47222.4,43828.6
47224.9,43811.9
47229,43795.5
47234.7,43779.6
47241.9,43764.3
47250.6,43749.8
47260.7,43736.3
47272,43723.7
47284.5,43712.4
47298.1,43702.3
47312.6,43693.6
47327.9,43686.4
47343.8,43680.7
47360.2,43676.6
47376.9,43674.1
47393.8,43673.3
47738.3,43673.3
Z" /> 
<path style="fill:#000000; fill-opacity:1.0; 
stroke:#000000; stroke-width:0; stroke-opacity:1; 
stroke-linecap:round; stroke-linejoin:round;fill-rule:evenodd;"
d="M 48995.3,43674.1
49012.1,43676.6
49028.5,43680.7
49044.4,43686.4
49059.6,43693.6
49074.1,43702.3
49087.7,43712.4
49100.2,43723.7
49111.6,43736.3
49121.7,43749.8
49130.4,43764.3
49137.6,43779.6
49143.3,43795.5
49147.4,43811.9
49149.9,43828.6
49150.7,43845.5
49150.7,44249.1
49149.9,44266
49147.4,44282.7
49143.3,44299.1
49137.6,44315
49130.4,44330.3
49121.7,44344.8
49111.6,44358.3
49100.2,44370.9
49087.7,44382.2
49074.1,44392.3
49059.6,44401
49044.4,44408.2
49028.5,44413.9
49012.1,44418
48995.3,44420.5
48978.5,44421.3
48634,44421.3
48617.1,44420.5
48600.4,44418
48584,44413.9
48568,44408.2
48552.8,44401
48538.3,44392.3
48524.7,44382.2
48512.2,44370.9
48500.8,44358.3
48490.7,44344.8
48482.1,44330.3
48474.8,44315
48469.1,44299.1
48465,44282.7
48462.5,44266
48461.7,44249.1
48461.7,43845.5
48462.5,43828.6
48465,43811.9
48469.1,43795.5
48474.8,43779.6
48482.1,43764.3
48490.7,43749.8
48500.8,43736.3
48512.2,43723.7
48524.7,43712.4
48538.3,43702.3
48552.8,43693.6
48568,43686.4
48584,43680.7
48600.4,43676.6
48617.1,43674.1
48634,43673.3
48978.5,43673.3
Z" /> 
</g>
<g >
</g>
<g style="fill:#000000; fill-opacity:1.0; 
stroke:#000000; stroke-width:0; stroke-opacity:1; 
stroke-linecap:round; stroke-linejoin:round;">
<path style="fill:#000000; fill-opacity:1.0; 
stroke:#000000; stroke-width:0; stroke-opacity:1; 
stroke-linecap:round; stroke-linejoin:round;fill-rule:evenodd;"
d="M 51739.4,39327.7
51756.1,39330.1
51772.5,39334.2
51788.5,39339.9
51803.7,39347.2
51818.2,39355.9
51831.8,39365.9
51844.3,39377.3
51855.7,39389.8
51865.8,39403.4
51874.5,39417.9
51881.7,39433.2
51887.4,39449.1
51891.5,39465.5
51894,39482.2
51894.8,39499.1
51894.8,39902.6
51894,39919.5
51891.5,39936.2
51887.4,39952.6
51881.7,39968.5
51874.5,39983.8
51865.8,39998.3
51855.7,40011.9
51844.3,40024.4
51831.8,40035.8
51818.2,40045.8
51803.7,40054.5
51788.5,40061.8
51772.5,40067.4
51756.1,40071.6
51739.4,40074
51722.5,40074.9
51378.1,40074.9
51361.2,40074
51344.5,40071.6
51328.1,40067.4
51312.1,40061.8
51296.9,40054.5
51282.4,40045.8
51268.8,40035.8
51256.3,40024.4
51244.9,40011.9
51234.8,39998.3
51226.2,39983.8
51218.9,39968.5
51213.2,39952.6
51209.1,39936.2
51206.6,39919.5
51205.8,39902.6
51205.8,39499.1
51206.6,39482.2
51209.1,39465.5
51213.2,39449.1
51218.9,39433.2
51226.2,39417.9
51234.8,39403.4
51244.9,39389.8
51256.3,39377.3
51268.8,39365.9
51282.4,39355.9
51296.9,39347.2
51312.1,39339.9
51328.1,39334.2
51344.5,39330.1
51361.2,39327.7
51378.1,39326.8
51722.5,39326.8
Z" /> 
<path style="fill:#000000; fill-opacity:1.0; 
stroke:#000000; stroke-width:0; stroke-opacity:1; 
stroke-linecap:round; stroke-linejoin:round;fill-rule:evenodd;"
d="M 52979.6,39327.7
52996.3,39330.1
53012.7,39334.2
53028.6,39339.9
53043.9,39347.2
53058.4,39355.9
53072,39365.9
53084.5,39377.3
53095.8,39389.8
53105.9,39403.4
53114.6,39417.9
53121.8,39433.2
53127.5,39449.1
53131.6,39465.5
53134.1,39482.2
53134.9,39499.1
53134.9,39902.6
53134.1,39919.5
53131.6,39936.2
53127.5,39952.6
53121.8,39968.5
53114.6,39983.8
53105.9,39998.3
53095.8,40011.9
53084.5,40024.4
53072,40035.8
53058.4,40045.8
53043.9,40054.5
53028.6,40061.8
53012.7,40067.4
52996.3,40071.6
52979.6,40074
52962.7,40074.9
52618.2,40074.9
52601.3,40074
52584.6,40071.6
52568.2,40067.4
52552.3,40061.8
52537,40054.5
52522.5,40045.8
52508.9,40035.8
52496.4,40024.4
52485.1,40011.9
52475,39998.3
52466.3,39983.8
52459.1,39968.5
52453.4,39952.6
52449.3,39936.2
52446.8,39919.5
52446,39902.6
52446,39499.1
52446.8,39482.2
52449.3,39465.5
52453.4,39449.1
52459.1,39433.2
52466.3,39417.9
52475,39403.4
52485.1,39389.8
52496.4,39377.3
52508.9,39365.9
52522.5,39355.9
52537,39347.2
52552.3,39339.9
52568.2,39334.2
52584.6,39330.1
52601.3,39327.7
52618.2,39326.8
52962.7,39326.8
Z" /> 
</g>
<g >
</g>
<g style="fill:#000000; fill-opacity:1.0; 
stroke:#000000; stroke-width:0; stroke-opacity:1; 
stroke-linecap:round; stroke-linejoin:round;">
<path style="fill:#000000; fill-opacity:1.0; 
stroke:#000000; stroke-width:0; stroke-opacity:1; 
stroke-linecap:round; stroke-linejoin:round;fill-rule:evenodd;"
d="M 48444.2,39264.7
48460.9,39267.1
48477.3,39271.3
48493.2,39277
48508.5,39284.2
48523,39292.9
48536.5,39302.9
48549.1,39314.3
48560.4,39326.8
48570.5,39340.4
48579.2,39354.9
48586.4,39370.2
48592.1,39386.1
48596.2,39402.5
48598.7,39419.2
48599.5,39436.1
48599.5,39839.6
48598.7,39856.5
48596.2,39873.2
48592.1,39889.6
48586.4,39905.5
48579.2,39920.8
48570.5,39935.3
48560.4,39948.9
48549.1,39961.4
48536.5,39972.8
48523,39982.8
48508.5,39991.5
48493.2,39998.8
48477.3,40004.5
48460.9,40008.6
48444.2,40011
48427.3,40011.9
48082.8,40011.9
48065.9,40011
48049.2,40008.6
48032.8,40004.5
48016.9,39998.8
48001.6,39991.5
47987.1,39982.8
47973.5,39972.8
47961,39961.4
47949.6,39948.9
47939.6,39935.3
47930.9,39920.8
47923.6,39905.5
47918,39889.6
47913.8,39873.2
47911.4,39856.5
47910.5,39839.6
47910.5,39436.1
47911.4,39419.2
47913.8,39402.5
47918,39386.1
47923.6,39370.2
47930.9,39354.9
47939.6,39340.4
47949.6,39326.8
47961,39314.3
47973.5,39302.9
47987.1,39292.9
48001.6,39284.2
48016.9,39277
48032.8,39271.3
48049.2,39267.1
48065.9,39264.7
48082.8,39263.8
48427.3,39263.8
Z" /> 
<path style="fill:#000000; fill-opacity:1.0; 
stroke:#000000; stroke-width:0; stroke-opacity:1; 
stroke-linecap:round; stroke-linejoin:round;fill-rule:evenodd;"
d="M 47204,39264.7
47220.7,39267.1
47237.1,39271.3
47253,39277
47268.3,39284.2
47282.8,39292.9
47296.4,39302.9
47308.9,39314.3
47320.3,39326.8
47330.3,39340.4
47339,39354.9
47346.2,39370.2
47351.9,39386.1
47356,39402.5
47358.5,39419.2
47359.4,39436.1
47359.4,39839.6
47358.5,39856.5
47356,39873.2
47351.9,39889.6
47346.2,39905.5
47339,39920.8
47330.3,39935.3
47320.3,39948.9
47308.9,39961.4
47296.4,39972.8
47282.8,39982.8
47268.3,39991.5
47253,39998.8
47237.1,40004.5
47220.7,40008.6
47204,40011
47187.1,40011.9
46842.6,40011.9
46825.7,40011
46809,40008.6
46792.6,40004.5
46776.7,39998.8
46761.4,39991.5
46746.9,39982.8
46733.4,39972.8
46720.8,39961.4
46709.5,39948.9
46699.4,39935.3
46690.7,39920.8
46683.5,39905.5
46677.8,39889.6
46673.7,39873.2
46671.2,39856.5
46670.4,39839.6
46670.4,39436.1
46671.2,39419.2
46673.7,39402.5
46677.8,39386.1
46683.5,39370.2
46690.7,39354.9
46699.4,39340.4
46709.5,39326.8
46720.8,39314.3
46733.4,39302.9
46746.9,39292.9
46761.4,39284.2
46776.7,39277
46792.6,39271.3
46809,39267.1
46825.7,39264.7
46842.6,39263.8
47187.1,39263.8
Z" /> 
</g>
<g >
</g>
<g style="fill:#000000; fill-opacity:1.0; 
stroke:#000000; stroke-width:0; stroke-opacity:1; 
stroke-linecap:round; stroke-linejoin:round;">
<path style="fill:#000000; fill-opacity:1.0; 
stroke:#000000; stroke-width:0; stroke-opacity:1; 
stroke-linecap:round; stroke-linejoin:round;fill-rule:evenodd;"
d="M 48995.3,44934
49012.1,44936.4
49028.5,44940.5
49044.4,44946.2
49059.6,44953.5
49074.1,44962.2
49087.7,44972.2
49100.2,44983.6
49111.6,44996.1
49121.7,45009.7
49130.4,45024.2
49137.6,45039.5
49143.3,45055.4
49147.4,45071.8
49149.9,45088.5
49150.7,45105.4
49150.7,45508.9
49149.9,45525.8
49147.4,45542.5
49143.3,45558.9
49137.6,45574.8
49130.4,45590.1
49121.7,45604.6
49111.6,45618.2
49100.2,45630.7
49087.7,45642.1
49074.1,45652.1
49059.6,45660.8
49044.4,45668.1
49028.5,45673.7
49012.1,45677.9
48995.3,45680.3
48978.5,45681.2
48634,45681.2
48617.1,45680.3
48600.4,45677.9
48584,45673.7
48568,45668.1
48552.8,45660.8
48538.3,45652.1
48524.7,45642.1
48512.2,45630.7
48500.8,45618.2
48490.7,45604.6
48482.1,45590.1
48474.8,45574.8
48469.1,45558.9
48465,45542.5
48462.5,45525.8
48461.7,45508.9
48461.7,45105.4
48462.5,45088.5
48465,45071.8
48469.1,45055.4
48474.8,45039.5
48482.1,45024.2
48490.7,45009.7
48500.8,44996.1
48512.2,44983.6
48524.7,44972.2
48538.3,44962.2
48552.8,44953.5
48568,44946.2
48584,44940.5
48600.4,44936.4
48617.1,44934
48634,44933.1
48978.5,44933.1
Z" /> 
<path style="fill:#000000; fill-opacity:1.0; 
stroke:#000000; stroke-width:0; stroke-opacity:1; 
stroke-linecap:round; stroke-linejoin:round;fill-rule:evenodd;"
d="M 47755.2,44934
47771.9,44936.4
47788.3,44940.5
47804.2,44946.2
47819.5,44953.5
47834,44962.2
47847.6,44972.2
47860.1,44983.6
47871.4,44996.1
47881.5,45009.7
47890.2,45024.2
47897.4,45039.5
47903.1,45055.4
47907.2,45071.8
47909.7,45088.5
47910.5,45105.4
47910.5,45508.9
47909.7,45525.8
47907.2,45542.5
47903.1,45558.9
47897.4,45574.8
47890.2,45590.1
47881.5,45604.6
47871.4,45618.2
47860.1,45630.7
47847.6,45642.1
47834,45652.1
47819.5,45660.8
47804.2,45668.1
47788.3,45673.7
47771.9,45677.9
47755.2,45680.3
47738.3,45681.2
47393.8,45681.2
47376.9,45680.3
47360.2,45677.9
47343.8,45673.7
47327.9,45668.1
47312.6,45660.8
47298.1,45652.1
47284.5,45642.1
47272,45630.7
47260.7,45618.2
47250.6,45604.6
47241.9,45590.1
47234.7,45574.8
47229,45558.9
47224.9,45542.5
47222.4,45525.8
47221.6,45508.9
47221.6,45105.4
47222.4,45088.5
47224.9,45071.8
47229,45055.4
47234.7,45039.5
47241.9,45024.2
47250.6,45009.7
47260.7,44996.1
47272,44983.6
47284.5,44972.2
47298.1,44962.2
47312.6,44953.5
47327.9,44946.2
47343.8,44940.5
47360.2,44936.4
47376.9,44934
47393.8,44933.1
47738.3,44933.1
Z" /> 
</g>
<g >
</g>
<g >
</g>
<g >
</g>
</g> 
</svg>
