<?xml version="1.0" standalone="no"?>
 <!DOCTYPE svg PUBLIC "-//W3C//DTD SVG 1.1//EN" 
 "http://www.w3.org/Graphics/SVG/1.1/DTD/svg11.dtd"> 
<svg
  xmlns:svg="http://www.w3.org/2000/svg"
  xmlns="http://www.w3.org/2000/svg"
  xmlns:xlink="http://www.w3.org/1999/xlink"
  version="1.1"
  width="29.700220cm" height="21.000720cm" viewBox="0 0 116930 82680">
<title>SVG Picture created as cargadorDeBateriasLitIon-49-F_Fab.svg date 2021/12/18 17:13:57 </title>
  <desc>Picture generated by PCBNEW </desc>
<g style="fill:#000000; fill-opacity:1;stroke:#000000; stroke-opacity:1;
stroke-linecap:round; stroke-linejoin:round;"
 transform="translate(0 0) scale(1 1)">
</g>
<g style="fill:#000000; fill-opacity:0.0; 
stroke:#000000; stroke-width:-0.000787402; stroke-opacity:1; 
stroke-linecap:round; stroke-linejoin:round;">
</g>
<g style="fill:#000000; fill-opacity:0.0; 
stroke:#000000; stroke-width:39.3701; stroke-opacity:1; 
stroke-linecap:round; stroke-linejoin:round;">
<path d="M66847 37196
L66847 47433
" />
<path d="M45194 37196
L45194 47433
" />
<path d="M45194 37196
L66847 37196
" />
<path d="M66847 47433
L45194 47433
" />
</g>
<g style="fill:#000000; fill-opacity:0.0; 
stroke:#000000; stroke-width:78.7402; stroke-opacity:1; 
stroke-linecap:round; stroke-linejoin:round;">
<path d="M63186 45307
L63186 44047
" />
<path d="M63816 45307
L63186 45307
" />
<path d="M63816 44047
L63816 45307
" />
<path d="M63186 44047
L63816 44047
" />
<circle cx="52083.8" cy="42433.1" r="111.355" /> 
<path d="M51690 41409
L54052 41409
" />
<path d="M54052 41409
L54052 42826
" />
<path d="M54052 42826
L51690 42826
" />
<path d="M51690 42826
L51690 41409
" />
<path d="M58697 45385
L58186 45897
" />
<path d="M57280 45897
L58186 45897
" />
<path d="M58697 45385
L58697 43456
" />
<path d="M57280 43456
L58697 43456
" />
<path d="M57280 45897
L57280 43456
" />
<path d="M60705 45582
L60705 44952
" />
<path d="M60705 44952
L61965 44952
" />
<path d="M61965 44952
L61965 45582
" />
<path d="M61965 45582
L60705 45582
" />
<path d="M61965 43574
L61965 44204
" />
<path d="M61965 44204
L60705 44204
" />
<path d="M60705 44204
L60705 43574
" />
<path d="M60705 43574
L61965 43574
" />
<path d="M62910 41133
L62910 40740
" />
<path d="M63225 41133
L62910 41606
" />
<path d="M62595 41133
L63225 41133
" />
<path d="M62910 41606
L62595 41133
" />
<path d="M62910 41606
L63343 41606
" />
<path d="M62910 41606
L62477 41606
" />
<path d="M62910 41921
L62910 41606
" />
<path d="M63619 42433
L62201 42433
" />
<path d="M63619 40228
L63619 42433
" />
<path d="M62201 40228
L63619 40228
" />
<path d="M62201 42433
L62201 40228
" />
<path d="M56079 44992
L55134 44992
" />
<path d="M55134 44992
L55134 43417
" />
<path d="M55134 43417
L56079 43417
" />
<path d="M56079 43417
L56079 44992
" />
</g>
<g style="fill:#000000; fill-opacity:0.0; 
stroke:#000000; stroke-width:94.4882; stroke-opacity:1; 
stroke-linecap:round; stroke-linejoin:round;">
<path d="M52178 44354
L52178 46283
" />
<path d="M52532 44000
L52178 44354
" />
<path d="M53516 44000
L52532 44000
" />
<path d="M53516 46283
L53516 44000
" />
<path d="M52178 46283
L53516 46283
" />
</g>
<g style="fill:#000000; fill-opacity:0.0; 
stroke:#000000; stroke-width:78.7402; stroke-opacity:1; 
stroke-linecap:round; stroke-linejoin:round;">
<path d="M48658 41133
L49170 41645
" />
<path d="M49170 42551
L49170 41645
" />
<path d="M48658 41133
L46729 41133
" />
<path d="M46729 42551
L46729 41133
" />
<path d="M49170 42551
L46729 42551
" />
<path d="M53973 40015
L53973 39385
" />
<path d="M53973 39385
L55233 39385
" />
<path d="M55233 39385
L55233 40015
" />
<path d="M55233 40015
L53973 40015
" />
<path d="M54879 40976
L55508 40976
" />
<path d="M55508 40976
L55508 42236
" />
<path d="M55508 42236
L54879 42236
" />
<path d="M54879 42236
L54879 40976
" />
<path d="M49760 41370
L50390 41370
" />
<path d="M50390 41370
L50390 42629
" />
<path d="M50390 42629
L49760 42629
" />
<path d="M49760 42629
L49760 41370
" />
<path d="M49760 44047
L50390 44047
" />
<path d="M50390 44047
L50390 45307
" />
<path d="M50390 45307
L49760 45307
" />
<path d="M49760 45307
L49760 44047
" />
<path d="M47556 44362
L48579 44362
" />
<path d="M48579 44362
L48816 44126
" />
<path d="M48816 44126
L48816 43732
" />
<path d="M48816 43732
L47556 43732
" />
<path d="M47556 43732
L47556 44362
" />
<path d="M52800 39385
L52800 40015
" />
<path d="M52800 40015
L51540 40015
" />
<path d="M51540 40015
L51540 39385
" />
<path d="M51540 39385
L52800 39385
" />
<path d="M47005 39952
L47005 39322
" />
<path d="M47005 39322
L48264 39322
" />
<path d="M48264 39322
L48264 39952
" />
<path d="M48264 39952
L47005 39952
" />
<path d="M47556 45622
L47556 44992
" />
<path d="M47556 44992
L48816 44992
" />
<path d="M48816 44992
L48816 45622
" />
<path d="M48816 45622
L47556 45622
" />
<g >
</g>
<g >
</g>
<g >
</g>
<g >
</g>
<g >
</g>
<g >
</g>
<g >
</g>
<g >
</g>
<g >
</g>
<g >
</g>
<g >
</g>
<g >
</g>
<g >
</g>
<g >
</g>
<g >
</g>
<g >
</g>
<g >
</g>
<g >
</g>
<g >
</g>
<g >
</g>
<g >
</g>
<g >
</g>
<g >
</g>
<g >
</g>
</g>
<g style="fill:#000000; fill-opacity:0.0; 
stroke:#000000; stroke-width:78.7402; stroke-opacity:1; 
stroke-linecap:round; stroke-linejoin:round;">
</g>
<g style="fill:#000000; fill-opacity:0.0; 
stroke:#000000; stroke-width:118.11; stroke-opacity:1; 
stroke-linecap:round; stroke-linejoin:round;">
<g transform="rotate(-90 62375.1 44677.2)">
<text x="62375.1" y="45070.9"
textLength="3415.64" font-size="1049.87" lengthAdjust="spacingAndGlyphs"
text-anchor="middle" opacity="0">4.7nF</text>
</g>
<path d="M62206 45783
L62731 45783
" />
<path d="M61906 45970
L62468 46158
L62468 45670
" />
<path d="M62656 45370
L62693 45333
L62731 45370
L62693 45408
L62656 45370
L62731 45370
" />
<path d="M61943 45070
L61943 44545
L62731 44883
" />
<path d="M62206 44246
L62731 44246
" />
<path d="M62281 44246
L62243 44208
L62206 44133
L62206 44021
L62243 43946
L62318 43908
L62731 43908
" />
<path d="M62318 43271
L62318 43533
" />
<path d="M62731 43533
L61943 43533
L61943 43158
" />
</g>
<g style="fill:#000000; fill-opacity:0.0; 
stroke:#000000; stroke-width:47.2441; stroke-opacity:1; 
stroke-linecap:round; stroke-linejoin:round;">
<g transform="rotate(-90 63501.1 44677.2)">
<text x="63501.1" y="44834.7"
textLength="768.466" font-size="419.947" lengthAdjust="spacingAndGlyphs"
text-anchor="middle" opacity="0">C5</text>
</g>
<path d="M63613 44729
L63628 44744
L63643 44789
L63643 44819
L63628 44864
L63598 44894
L63568 44909
L63508 44924
L63463 44924
L63403 44909
L63373 44894
L63343 44864
L63328 44819
L63328 44789
L63343 44744
L63358 44729
" />
<path d="M63328 44444
L63328 44594
L63478 44609
L63463 44594
L63448 44564
L63448 44489
L63463 44459
L63478 44444
L63508 44429
L63583 44429
L63613 44444
L63628 44459
L63643 44489
L63643 44564
L63628 44594
L63613 44609
" />
</g>
<g style="fill:#000000; fill-opacity:0.0; 
stroke:#000000; stroke-width:29.5276; stroke-opacity:1; 
stroke-linecap:round; stroke-linejoin:round;">
<text x="53422.3" y="42177.2"
textLength="297.638" font-size="157.48" lengthAdjust="spacingAndGlyphs"
text-anchor="middle" opacity="0">U2</text>
<path d="M53332 42053
L53332 42149
L53337 42160
L53343 42165
L53354 42171
L53377 42171
L53388 42165
L53394 42160
L53399 42149
L53399 42053
" />
<path d="M53450 42064
L53456 42059
L53467 42053
L53495 42053
L53506 42059
L53512 42064
L53517 42075
L53517 42087
L53512 42104
L53444 42171
L53517 42171
" />
<text x="52556.2" y="42177.2"
textLength="1056.38" font-size="157.48" lengthAdjust="spacingAndGlyphs"
text-anchor="middle" opacity="0">AP9101CK6</text>
<path d="M52069 42137
L52125 42137
" />
<path d="M52058 42171
L52097 42053
L52137 42171
" />
<path d="M52176 42171
L52176 42053
L52221 42053
L52232 42059
L52238 42064
L52244 42075
L52244 42092
L52238 42104
L52232 42109
L52221 42115
L52176 42115
" />
<path d="M52300 42171
L52322 42171
L52334 42165
L52339 42160
L52350 42143
L52356 42120
L52356 42075
L52350 42064
L52345 42059
L52334 42053
L52311 42053
L52300 42059
L52294 42064
L52289 42075
L52289 42104
L52294 42115
L52300 42120
L52311 42126
L52334 42126
L52345 42120
L52350 42115
L52356 42104
" />
<path d="M52469 42171
L52401 42171
" />
<path d="M52435 42171
L52435 42053
L52424 42070
L52412 42081
L52401 42087
" />
<path d="M52542 42053
L52553 42053
L52564 42059
L52570 42064
L52575 42075
L52581 42098
L52581 42126
L52575 42149
L52570 42160
L52564 42165
L52553 42171
L52542 42171
L52530 42165
L52525 42160
L52519 42149
L52514 42126
L52514 42098
L52519 42075
L52525 42064
L52530 42059
L52542 42053
" />
<path d="M52694 42171
L52626 42171
" />
<path d="M52660 42171
L52660 42053
L52649 42070
L52637 42081
L52626 42087
" />
<path d="M52812 42160
L52806 42165
L52789 42171
L52778 42171
L52761 42165
L52750 42154
L52744 42143
L52738 42120
L52738 42104
L52744 42081
L52750 42070
L52761 42059
L52778 42053
L52789 42053
L52806 42059
L52812 42064
" />
<path d="M52862 42171
L52862 42053
" />
<path d="M52930 42171
L52879 42104
" />
<path d="M52930 42053
L52862 42120
" />
<path d="M53031 42053
L53008 42053
L52997 42059
L52992 42064
L52980 42081
L52975 42104
L52975 42149
L52980 42160
L52986 42165
L52997 42171
L53020 42171
L53031 42165
L53037 42160
L53042 42149
L53042 42120
L53037 42109
L53031 42104
L53020 42098
L52997 42098
L52986 42104
L52980 42109
L52975 42120
" />
</g>
<g style="fill:#000000; fill-opacity:0.0; 
stroke:#000000; stroke-width:118.11; stroke-opacity:1; 
stroke-linecap:round; stroke-linejoin:round;">
<text x="57989.3" y="42787.5"
textLength="5100.25" font-size="1049.87" lengthAdjust="spacingAndGlyphs"
text-anchor="middle" opacity="0">MIC2251</text>
<path d="M55645 42749
L55645 41962
L55908 42524
L56170 41962
L56170 42749
" />
<path d="M56545 42749
L56545 41962
" />
<path d="M57370 42674
L57333 42712
L57220 42749
L57145 42749
L57033 42712
L56958 42637
L56920 42562
L56883 42412
L56883 42300
L56920 42150
L56958 42075
L57033 42000
L57145 41962
L57220 41962
L57333 42000
L57370 42037
" />
<path d="M57670 42037
L57708 42000
L57783 41962
L57970 41962
L58045 42000
L58083 42037
L58120 42112
L58120 42187
L58083 42300
L57633 42749
L58120 42749
" />
<path d="M58420 42037
L58457 42000
L58532 41962
L58720 41962
L58795 42000
L58832 42037
L58870 42112
L58870 42187
L58832 42300
L58382 42749
L58870 42749
" />
<path d="M59582 41962
L59207 41962
L59170 42337
L59207 42300
L59282 42262
L59470 42262
L59545 42300
L59582 42337
L59620 42412
L59620 42599
L59582 42674
L59545 42712
L59470 42749
L59282 42749
L59207 42712
L59170 42674
" />
<path d="M60370 42749
L59920 42749
" />
<path d="M60145 42749
L60145 41962
L60070 42075
L59995 42150
L59920 42187
" />
</g>
<g style="fill:#000000; fill-opacity:0.0; 
stroke:#000000; stroke-width:59.0551; stroke-opacity:1; 
stroke-linecap:round; stroke-linejoin:round;">
<g transform="rotate(-90 57989.3 44677.2)">
<text x="57989.3" y="44874.1"
textLength="940.945" font-size="524.934" lengthAdjust="spacingAndGlyphs"
text-anchor="middle" opacity="0">U3</text>
</g>
<path d="M57773 44977
L58092 44977
L58129 44958
L58148 44939
L58167 44902
L58167 44827
L58148 44789
L58129 44770
L58092 44752
L57773 44752
" />
<path d="M57773 44602
L57773 44358
L57923 44489
L57923 44433
L57942 44396
L57961 44377
L57998 44358
L58092 44358
L58129 44377
L58148 44396
L58167 44433
L58167 44545
L58148 44583
L58129 44602
" />
</g>
<g style="fill:#000000; fill-opacity:0.0; 
stroke:#000000; stroke-width:118.11; stroke-opacity:1; 
stroke-linecap:round; stroke-linejoin:round;">
<text x="61335.7" y="46787.5"
textLength="2363.99" font-size="1049.87" lengthAdjust="spacingAndGlyphs"
text-anchor="middle" opacity="0">33K</text>
<path d="M60304 45962
L60792 45962
L60529 46262
L60642 46262
L60717 46300
L60754 46337
L60792 46412
L60792 46599
L60754 46674
L60717 46712
L60642 46749
L60417 46749
L60342 46712
L60304 46674
" />
<path d="M61054 45962
L61541 45962
L61279 46262
L61391 46262
L61466 46300
L61504 46337
L61541 46412
L61541 46599
L61504 46674
L61466 46712
L61391 46749
L61167 46749
L61092 46712
L61054 46674
" />
<path d="M61879 46749
L61879 45962
" />
<path d="M62329 46749
L61991 46300
" />
<path d="M62329 45962
L61879 46412
" />
</g>
<g style="fill:#000000; fill-opacity:0.0; 
stroke:#000000; stroke-width:47.2441; stroke-opacity:1; 
stroke-linecap:round; stroke-linejoin:round;">
<text x="61335.7" y="45425.3"
textLength="768.466" font-size="419.947" lengthAdjust="spacingAndGlyphs"
text-anchor="middle" opacity="0">R6</text>
<path d="M61283 45410
L61178 45260
" />
<path d="M61103 45410
L61103 45095
L61223 45095
L61253 45110
L61268 45125
L61283 45155
L61283 45200
L61268 45230
L61253 45245
L61223 45260
L61103 45260
" />
<path d="M61553 45095
L61493 45095
L61463 45110
L61448 45125
L61418 45170
L61403 45230
L61403 45350
L61418 45380
L61433 45395
L61463 45410
L61523 45410
L61553 45395
L61568 45380
L61583 45350
L61583 45275
L61568 45245
L61553 45230
L61523 45215
L61463 45215
L61433 45230
L61418 45245
L61403 45275
" />
</g>
<g style="fill:#000000; fill-opacity:0.0; 
stroke:#000000; stroke-width:118.11; stroke-opacity:1; 
stroke-linecap:round; stroke-linejoin:round;">
<text x="61335.7" y="43157.5"
textLength="3098.54" font-size="1049.87" lengthAdjust="spacingAndGlyphs"
text-anchor="middle" opacity="0">100K</text>
<path d="M60417 43120
L59967 43120
" />
<path d="M60192 43120
L60192 42332
L60117 42445
L60042 42520
L59967 42557
" />
<path d="M60904 42332
L60979 42332
L61054 42370
L61092 42407
L61129 42482
L61167 42632
L61167 42820
L61129 42970
L61092 43045
L61054 43082
L60979 43120
L60904 43120
L60829 43082
L60792 43045
L60754 42970
L60717 42820
L60717 42632
L60754 42482
L60792 42407
L60829 42370
L60904 42332
" />
<path d="M61654 42332
L61729 42332
L61804 42370
L61841 42407
L61879 42482
L61916 42632
L61916 42820
L61879 42970
L61841 43045
L61804 43082
L61729 43120
L61654 43120
L61579 43082
L61541 43045
L61504 42970
L61466 42820
L61466 42632
L61504 42482
L61541 42407
L61579 42370
L61654 42332
" />
<path d="M62254 43120
L62254 42332
" />
<path d="M62704 43120
L62366 42670
" />
<path d="M62704 42332
L62254 42782
" />
</g>
<g style="fill:#000000; fill-opacity:0.0; 
stroke:#000000; stroke-width:47.2441; stroke-opacity:1; 
stroke-linecap:round; stroke-linejoin:round;">
<text x="61335.7" y="44047.3"
textLength="768.466" font-size="419.947" lengthAdjust="spacingAndGlyphs"
text-anchor="middle" opacity="0">R5</text>
<path d="M61283 44032
L61178 43882
" />
<path d="M61103 44032
L61103 43717
L61223 43717
L61253 43732
L61268 43747
L61283 43777
L61283 43822
L61268 43852
L61253 43867
L61223 43882
L61103 43882
" />
<path d="M61568 43717
L61418 43717
L61403 43867
L61418 43852
L61448 43837
L61523 43837
L61553 43852
L61568 43867
L61583 43897
L61583 43972
L61568 44002
L61553 44017
L61523 44032
L61448 44032
L61418 44017
L61403 44002
" />
</g>
<g style="fill:#000000; fill-opacity:0.0; 
stroke:#000000; stroke-width:118.11; stroke-opacity:1; 
stroke-linecap:round; stroke-linejoin:round;">
<g transform="rotate(-90 55233.4 40346.5)">
<text x="55233.4" y="40740.2"
textLength="3098.54" font-size="1049.87" lengthAdjust="spacingAndGlyphs"
text-anchor="middle" opacity="0">10uH</text>
</g>
<path d="M55589 41265
L55589 41715
" />
<path d="M55589 41490
L54802 41490
L54914 41565
L54989 41640
L55027 41715
" />
<path d="M54802 40777
L54802 40702
L54839 40627
L54877 40590
L54952 40552
L55102 40515
L55289 40515
L55439 40552
L55514 40590
L55552 40627
L55589 40702
L55589 40777
L55552 40852
L55514 40890
L55439 40927
L55289 40965
L55102 40965
L54952 40927
L54877 40890
L54839 40852
L54802 40777
" />
<path d="M55064 39840
L55589 39840
" />
<path d="M55064 40177
L55477 40177
L55552 40140
L55589 40065
L55589 39952
L55552 39877
L55514 39840
" />
<path d="M55589 39465
L54802 39465
" />
<path d="M55177 39465
L55177 39015
" />
<path d="M55589 39015
L54802 39015
" />
<g transform="rotate(-90 64564.1 41330.8)">
<text x="64564.1" y="41724.5"
textLength="8589.99" font-size="1049.87" lengthAdjust="spacingAndGlyphs"
text-anchor="middle" opacity="0">SM5819PL-TP</text>
</g>
<path d="M64882 45399
L64920 45286
L64920 45099
L64882 45024
L64845 44986
L64770 44949
L64695 44949
L64620 44986
L64582 45024
L64545 45099
L64507 45249
L64470 45324
L64432 45361
L64357 45399
L64282 45399
L64207 45361
L64170 45324
L64132 45249
L64132 45061
L64170 44949
" />
<path d="M64920 44611
L64132 44611
L64695 44349
L64132 44086
L64920 44086
" />
<path d="M64132 43336
L64132 43711
L64507 43749
L64470 43711
L64432 43636
L64432 43449
L64470 43374
L64507 43336
L64582 43299
L64770 43299
L64845 43336
L64882 43374
L64920 43449
L64920 43636
L64882 43711
L64845 43749
" />
<path d="M64470 42849
L64432 42924
L64395 42961
L64320 42999
L64282 42999
L64207 42961
L64170 42924
L64132 42849
L64132 42699
L64170 42624
L64207 42586
L64282 42549
L64320 42549
L64395 42586
L64432 42624
L64470 42699
L64470 42849
L64507 42924
L64545 42961
L64620 42999
L64770 42999
L64845 42961
L64882 42924
L64920 42849
L64920 42699
L64882 42624
L64845 42586
L64770 42549
L64620 42549
L64545 42586
L64507 42624
L64470 42699
" />
<path d="M64920 41799
L64920 42249
" />
<path d="M64920 42024
L64132 42024
L64245 42099
L64320 42174
L64357 42249
" />
<path d="M64920 41424
L64920 41274
L64882 41199
L64845 41162
L64732 41087
L64582 41049
L64282 41049
L64207 41087
L64170 41124
L64132 41199
L64132 41349
L64170 41424
L64207 41462
L64282 41499
L64470 41499
L64545 41462
L64582 41424
L64620 41349
L64620 41199
L64582 41124
L64545 41087
L64470 41049
" />
<path d="M64920 40712
L64132 40712
L64132 40412
L64170 40337
L64207 40299
L64282 40262
L64395 40262
L64470 40299
L64507 40337
L64545 40412
L64545 40712
" />
<path d="M64920 39549
L64920 39924
L64132 39924
" />
<path d="M64620 39287
L64620 38687
" />
<path d="M64132 38424
L64132 37974
" />
<path d="M64920 38199
L64132 38199
" />
<path d="M64920 37712
L64132 37712
L64132 37412
L64170 37337
L64207 37300
L64282 37262
L64395 37262
L64470 37300
L64507 37337
L64545 37412
L64545 37712
" />
<g transform="rotate(-90 61410.5 41430.8)">
<text x="61410.5" y="41824.5"
textLength="1690.85" font-size="1049.87" lengthAdjust="spacingAndGlyphs"
text-anchor="middle" opacity="0">D2</text>
</g>
<path d="M61766 42011
L60979 42011
L60979 41824
L61016 41711
L61091 41636
L61166 41599
L61316 41562
L61429 41562
L61579 41599
L61654 41636
L61729 41711
L61766 41824
L61766 42011
" />
<path d="M61054 41262
L61016 41224
L60979 41149
L60979 40962
L61016 40887
L61054 40849
L61129 40812
L61204 40812
L61316 40849
L61766 41299
L61766 40812
" />
<g transform="rotate(-90 56906.6 44204.8)">
<text x="56906.6" y="44598.5"
textLength="3040.68" font-size="1049.87" lengthAdjust="spacingAndGlyphs"
text-anchor="middle" opacity="0">10uF</text>
</g>
<path d="M57262 45048
L57262 45498
" />
<path d="M57262 45273
L56475 45273
L56587 45348
L56662 45423
L56700 45498
" />
<path d="M56475 44560
L56475 44485
L56512 44411
L56550 44373
L56625 44336
L56775 44298
L56962 44298
L57112 44336
L57187 44373
L57225 44411
L57262 44485
L57262 44560
L57225 44635
L57187 44673
L57112 44710
L56962 44748
L56775 44748
L56625 44710
L56550 44673
L56512 44635
L56475 44560
" />
<path d="M56737 43623
L57262 43623
" />
<path d="M56737 43961
L57150 43961
L57225 43923
L57262 43848
L57262 43736
L57225 43661
L57187 43623
" />
<path d="M56850 42986
L56850 43248
" />
<path d="M57262 43248
L56475 43248
L56475 42873
" />
</g>
<g style="fill:#000000; fill-opacity:0.0; 
stroke:#000000; stroke-width:62.9921; stroke-opacity:1; 
stroke-linecap:round; stroke-linejoin:round;">
<g transform="rotate(-90 55607.4 44204.8)">
<text x="55607.4" y="44401.6"
textLength="922.197" font-size="524.934" lengthAdjust="spacingAndGlyphs"
text-anchor="middle" opacity="0">C4</text>
</g>
<path d="M55747 44270
L55766 44289
L55785 44345
L55785 44382
L55766 44439
L55729 44476
L55691 44495
L55616 44514
L55560 44514
L55485 44495
L55448 44476
L55410 44439
L55391 44382
L55391 44345
L55410 44289
L55429 44270
" />
<path d="M55523 43932
L55785 43932
" />
<path d="M55373 44026
L55654 44120
L55654 43876
" />
</g>
<g style="fill:#000000; fill-opacity:0.0; 
stroke:#000000; stroke-width:118.11; stroke-opacity:1; 
stroke-linecap:round; stroke-linejoin:round;">
<text x="66060.1" y="48417.4"
textLength="1844.17" font-size="1049.87" lengthAdjust="spacingAndGlyphs"
text-anchor="middle" opacity="0">B-</text>
<path d="M65628 47967
L65741 48004
L65778 48042
L65816 48117
L65816 48229
L65778 48304
L65741 48342
L65666 48379
L65366 48379
L65366 47592
L65628 47592
L65703 47629
L65741 47667
L65778 47742
L65778 47817
L65741 47892
L65703 47929
L65628 47967
L65366 47967
" />
<path d="M66153 48079
L66753 48079
" />
<text x="66060.1" y="45740.2"
textLength="1503.37" font-size="1049.87" lengthAdjust="spacingAndGlyphs"
text-anchor="middle" opacity="0">J5</text>
<path d="M65797 44915
L65797 45477
L65760 45590
L65685 45665
L65572 45702
L65497 45702
" />
<path d="M66547 44915
L66172 44915
L66135 45290
L66172 45252
L66247 45215
L66435 45215
L66510 45252
L66547 45290
L66585 45365
L66585 45552
L66547 45627
L66510 45665
L66435 45702
L66247 45702
L66172 45665
L66135 45627
" />
<text x="52847.5" y="47504"
textLength="6227.78" font-size="1049.87" lengthAdjust="spacingAndGlyphs"
text-anchor="middle" opacity="0">FDC6401N</text>
<path d="M50260 47054
L49997 47054
" />
<path d="M49997 47466
L49997 46679
L50372 46679
" />
<path d="M50672 47466
L50672 46679
L50860 46679
L50972 46716
L51047 46791
L51085 46866
L51122 47016
L51122 47129
L51085 47279
L51047 47354
L50972 47429
L50860 47466
L50672 47466
" />
<path d="M51910 47391
L51872 47429
L51760 47466
L51685 47466
L51572 47429
L51497 47354
L51460 47279
L51422 47129
L51422 47016
L51460 46866
L51497 46791
L51572 46716
L51685 46679
L51760 46679
L51872 46716
L51910 46754
" />
<path d="M52585 46679
L52435 46679
L52360 46716
L52322 46754
L52247 46866
L52210 47016
L52210 47316
L52247 47391
L52285 47429
L52360 47466
L52510 47466
L52585 47429
L52622 47391
L52660 47316
L52660 47129
L52622 47054
L52585 47016
L52510 46979
L52360 46979
L52285 47016
L52247 47054
L52210 47129
" />
<path d="M53334 46941
L53334 47466
" />
<path d="M53147 46641
L52960 47204
L53447 47204
" />
<path d="M53897 46679
L53972 46679
L54047 46716
L54084 46754
L54122 46829
L54159 46979
L54159 47166
L54122 47316
L54084 47391
L54047 47429
L53972 47466
L53897 47466
L53822 47429
L53784 47391
L53747 47316
L53709 47166
L53709 46979
L53747 46829
L53784 46754
L53822 46716
L53897 46679
" />
<path d="M54909 47466
L54459 47466
" />
<path d="M54684 47466
L54684 46679
L54609 46791
L54534 46866
L54459 46904
" />
<path d="M55247 47466
L55247 46679
L55697 47466
L55697 46679
" />
</g>
<g style="fill:#000000; fill-opacity:0.0; 
stroke:#000000; stroke-width:59.0551; stroke-opacity:1; 
stroke-linecap:round; stroke-linejoin:round;">
<g transform="rotate(-90 52847.5 45141.8)">
<text x="52847.5" y="45338.6"
textLength="940.945" font-size="524.934" lengthAdjust="spacingAndGlyphs"
text-anchor="middle" opacity="0">Q1</text>
</g>
<path d="M53063 45179
L53044 45216
L53006 45254
L52950 45310
L52931 45348
L52931 45385
" />
<path d="M53025 45366
L53006 45404
L52969 45441
L52894 45460
L52763 45460
L52688 45441
L52650 45404
L52631 45366
L52631 45291
L52650 45254
L52688 45216
L52763 45198
L52894 45198
L52969 45216
L53006 45254
L53025 45291
L53025 45366
" />
<path d="M53025 44823
L53025 45048
" />
<path d="M53025 44935
L52631 44935
L52688 44973
L52725 45010
L52744 45048
" />
</g>
<g style="fill:#000000; fill-opacity:0.0; 
stroke:#000000; stroke-width:118.11; stroke-opacity:1; 
stroke-linecap:round; stroke-linejoin:round;">
<text x="66060.1" y="45661.5"
textLength="3301.37" font-size="1049.87" lengthAdjust="spacingAndGlyphs"
text-anchor="middle" opacity="0">OUT-</text>
<path d="M64785 44836
L64935 44836
L65010 44874
L65085 44949
L65122 45099
L65122 45361
L65085 45511
L65010 45586
L64935 45623
L64785 45623
L64710 45586
L64635 45511
L64597 45361
L64597 45099
L64635 44949
L64710 44874
L64785 44836
" />
<path d="M65460 44836
L65460 45474
L65497 45548
L65535 45586
L65610 45623
L65760 45623
L65835 45586
L65872 45548
L65910 45474
L65910 44836
" />
<path d="M66172 44836
L66622 44836
" />
<path d="M66397 45623
L66397 44836
" />
<path d="M66885 45324
L67484 45324
" />
<text x="66060.1" y="42984.3"
textLength="1503.37" font-size="1049.87" lengthAdjust="spacingAndGlyphs"
text-anchor="middle" opacity="0">J6</text>
<path d="M65797 42159
L65797 42721
L65760 42834
L65685 42909
L65572 42946
L65497 42946
" />
<path d="M66510 42159
L66360 42159
L66285 42196
L66247 42234
L66172 42346
L66135 42496
L66135 42796
L66172 42871
L66210 42909
L66285 42946
L66435 42946
L66510 42909
L66547 42871
L66585 42796
L66585 42609
L66547 42534
L66510 42496
L66435 42459
L66285 42459
L66210 42496
L66172 42534
L66135 42609
" />
<text x="66060.1" y="39756"
textLength="1915.82" font-size="1049.87" lengthAdjust="spacingAndGlyphs"
text-anchor="middle" opacity="0">B+</text>
<path d="M65628 39306
L65741 39343
L65778 39381
L65816 39456
L65816 39568
L65778 39643
L65741 39680
L65666 39718
L65366 39718
L65366 38931
L65628 38931
L65703 38968
L65741 39006
L65778 39081
L65778 39156
L65741 39231
L65703 39268
L65628 39306
L65366 39306
" />
<path d="M66153 39418
L66753 39418
" />
<path d="M66453 39718
L66453 39118
" />
<text x="66060.1" y="37078.8"
textLength="1503.37" font-size="1049.87" lengthAdjust="spacingAndGlyphs"
text-anchor="middle" opacity="0">J4</text>
<path d="M65797 36253
L65797 36816
L65760 36928
L65685 37003
L65572 37041
L65497 37041
" />
<path d="M66510 36516
L66510 37041
" />
<path d="M66322 36216
L66135 36778
L66622 36778
" />
<text x="66060.1" y="42511.9"
textLength="3378.14" font-size="1049.87" lengthAdjust="spacingAndGlyphs"
text-anchor="middle" opacity="0">OUT+</text>
<path d="M64785 41686
L64935 41686
L65010 41724
L65085 41799
L65122 41949
L65122 42211
L65085 42361
L65010 42436
L64935 42474
L64785 42474
L64710 42436
L64635 42361
L64597 42211
L64597 41949
L64635 41799
L64710 41724
L64785 41686
" />
<path d="M65460 41686
L65460 42324
L65497 42399
L65535 42436
L65610 42474
L65760 42474
L65835 42436
L65872 42399
L65910 42324
L65910 41686
" />
<path d="M66172 41686
L66622 41686
" />
<path d="M66397 42474
L66397 41686
" />
<path d="M66885 42174
L67484 42174
" />
<path d="M67185 42474
L67185 41874
" />
<text x="66060.1" y="39834.7"
textLength="1503.37" font-size="1049.87" lengthAdjust="spacingAndGlyphs"
text-anchor="middle" opacity="0">J3</text>
<path d="M65797 39009
L65797 39572
L65760 39684
L65685 39759
L65572 39797
L65497 39797
" />
<path d="M66097 39009
L66585 39009
L66322 39309
L66435 39309
L66510 39347
L66547 39384
L66585 39459
L66585 39647
L66547 39722
L66510 39759
L66435 39797
L66210 39797
L66135 39759
L66097 39722
" />
<text x="45981.4" y="39756"
textLength="2328.27" font-size="1049.87" lengthAdjust="spacingAndGlyphs"
text-anchor="middle" opacity="0">IN-</text>
<path d="M45081 39718
L45081 38931
" />
<path d="M45456 39718
L45456 38931
L45906 39718
L45906 38931
" />
<path d="M46281 39418
L46881 39418
" />
<text x="45981.4" y="37078.8"
textLength="1503.37" font-size="1049.87" lengthAdjust="spacingAndGlyphs"
text-anchor="middle" opacity="0">J2</text>
<path d="M45718 36253
L45718 36816
L45681 36928
L45606 37003
L45493 37041
L45418 37041
" />
<path d="M46056 36328
L46093 36291
L46168 36253
L46356 36253
L46431 36291
L46468 36328
L46506 36403
L46506 36478
L46468 36591
L46018 37041
L46506 37041
" />
<text x="45981.4" y="48023.7"
textLength="2328.27" font-size="1049.87" lengthAdjust="spacingAndGlyphs"
text-anchor="middle" opacity="0">IN+</text>
<path d="M45081 47986
L45081 47198
" />
<path d="M45456 47986
L45456 47198
L45906 47986
L45906 47198
" />
<path d="M46281 47686
L46881 47686
" />
<path d="M46581 47986
L46581 47386
" />
<text x="45981.4" y="45346.5"
textLength="1503.37" font-size="1049.87" lengthAdjust="spacingAndGlyphs"
text-anchor="middle" opacity="0">J1</text>
<path d="M45718 44521
L45718 45084
L45681 45196
L45606 45271
L45493 45309
L45418 45309
" />
<path d="M46506 45309
L46056 45309
" />
<path d="M46281 45309
L46281 44521
L46206 44634
L46131 44709
L46056 44746
" />
<g transform="rotate(-90 45666.4 41842.6)">
<text x="45666.4" y="42236.3"
textLength="6377.77" font-size="1049.87" lengthAdjust="spacingAndGlyphs"
text-anchor="middle" opacity="0">MCP73831</text>
</g>
<path d="M46022 44767
L45235 44767
L45797 44504
L45235 44242
L46022 44242
" />
<path d="M45947 43417
L45985 43454
L46022 43567
L46022 43642
L45985 43754
L45910 43829
L45835 43867
L45685 43904
L45572 43904
L45422 43867
L45347 43829
L45272 43754
L45235 43642
L45235 43567
L45272 43454
L45310 43417
" />
<path d="M46022 43079
L45235 43079
L45235 42779
L45272 42704
L45310 42667
L45385 42629
L45497 42629
L45572 42667
L45610 42704
L45647 42779
L45647 43079
" />
<path d="M45235 42367
L45235 41842
L46022 42180
" />
<path d="M45235 41617
L45235 41130
L45535 41392
L45535 41280
L45572 41205
L45610 41167
L45685 41130
L45872 41130
L45947 41167
L45985 41205
L46022 41280
L46022 41505
L45985 41580
L45947 41617
" />
<path d="M45572 40680
L45535 40755
L45497 40792
L45422 40830
L45385 40830
L45310 40792
L45272 40755
L45235 40680
L45235 40530
L45272 40455
L45310 40417
L45385 40380
L45422 40380
L45497 40417
L45535 40455
L45572 40530
L45572 40680
L45610 40755
L45647 40792
L45722 40830
L45872 40830
L45947 40792
L45985 40755
L46022 40680
L46022 40530
L45985 40455
L45947 40417
L45872 40380
L45722 40380
L45647 40417
L45610 40455
L45572 40530
" />
<path d="M45235 40117
L45235 39630
L45535 39892
L45535 39780
L45572 39705
L45610 39667
L45685 39630
L45872 39630
L45947 39667
L45985 39705
L46022 39780
L46022 40005
L45985 40080
L45947 40117
" />
<path d="M46022 38880
L46022 39330
" />
<path d="M46022 39105
L45235 39105
L45347 39180
L45422 39255
L45460 39330
" />
</g>
<g style="fill:#000000; fill-opacity:0.0; 
stroke:#000000; stroke-width:59.0551; stroke-opacity:1; 
stroke-linecap:round; stroke-linejoin:round;">
<text x="47949.9" y="42039.4"
textLength="940.945" font-size="524.934" lengthAdjust="spacingAndGlyphs"
text-anchor="middle" opacity="0">U1</text>
<path d="M47649 41626
L47649 41945
L47668 41983
L47687 42001
L47724 42020
L47799 42020
L47837 42001
L47856 41983
L47874 41945
L47874 41626
" />
<path d="M48268 42020
L48043 42020
" />
<path d="M48156 42020
L48156 41626
L48118 41683
L48081 41720
L48043 41739
" />
</g>
<g style="fill:#000000; fill-opacity:0.0; 
stroke:#000000; stroke-width:118.11; stroke-opacity:1; 
stroke-linecap:round; stroke-linejoin:round;">
<text x="54603.5" y="41220.5"
textLength="2326.49" font-size="1049.87" lengthAdjust="spacingAndGlyphs"
text-anchor="middle" opacity="0">330</text>
<path d="M53591 40395
L54078 40395
L53816 40695
L53928 40695
L54003 40733
L54041 40770
L54078 40845
L54078 41033
L54041 41108
L54003 41145
L53928 41183
L53703 41183
L53628 41145
L53591 41108
" />
<path d="M54340 40395
L54828 40395
L54565 40695
L54678 40695
L54753 40733
L54790 40770
L54828 40845
L54828 41033
L54790 41108
L54753 41145
L54678 41183
L54453 41183
L54378 41145
L54340 41108
" />
<path d="M55315 40395
L55390 40395
L55465 40433
L55503 40470
L55540 40545
L55578 40695
L55578 40883
L55540 41033
L55503 41108
L55465 41145
L55390 41183
L55315 41183
L55240 41145
L55203 41108
L55165 41033
L55128 40883
L55128 40695
L55165 40545
L55203 40470
L55240 40433
L55315 40395
" />
</g>
<g style="fill:#000000; fill-opacity:0.0; 
stroke:#000000; stroke-width:47.2441; stroke-opacity:1; 
stroke-linecap:round; stroke-linejoin:round;">
<text x="54603.5" y="39858.3"
textLength="768.466" font-size="419.947" lengthAdjust="spacingAndGlyphs"
text-anchor="middle" opacity="0">R4</text>
<path d="M54550 39843
L54445 39693
" />
<path d="M54370 39843
L54370 39528
L54490 39528
L54520 39543
L54535 39558
L54550 39588
L54550 39633
L54535 39663
L54520 39678
L54490 39693
L54370 39693
" />
<path d="M54820 39633
L54820 39843
" />
<path d="M54745 39513
L54670 39738
L54865 39738
" />
</g>
<g style="fill:#000000; fill-opacity:0.0; 
stroke:#000000; stroke-width:118.11; stroke-opacity:1; 
stroke-linecap:round; stroke-linejoin:round;">
<g transform="rotate(-90 54068 41606.4)">
<text x="54068" y="42000.1"
textLength="2723.58" font-size="1049.87" lengthAdjust="spacingAndGlyphs"
text-anchor="middle" opacity="0">2.7K</text>
</g>
<path d="M53711 42787
L53674 42749
L53636 42674
L53636 42487
L53674 42412
L53711 42375
L53786 42337
L53861 42337
L53974 42375
L54424 42824
L54424 42337
" />
<path d="M54349 42000
L54386 41962
L54424 42000
L54386 42037
L54349 42000
L54424 42000
" />
<path d="M53636 41700
L53636 41175
L54424 41512
" />
<path d="M54424 40875
L53636 40875
" />
<path d="M54424 40425
L53974 40762
" />
<path d="M53636 40425
L54086 40875
" />
</g>
<g style="fill:#000000; fill-opacity:0.0; 
stroke:#000000; stroke-width:47.2441; stroke-opacity:1; 
stroke-linecap:round; stroke-linejoin:round;">
<g transform="rotate(-90 55194 41606.4)">
<text x="55194" y="41763.8"
textLength="768.466" font-size="419.947" lengthAdjust="spacingAndGlyphs"
text-anchor="middle" opacity="0">R3</text>
</g>
<path d="M55336 41658
L55186 41763
" />
<path d="M55336 41838
L55021 41838
L55021 41718
L55036 41688
L55051 41673
L55081 41658
L55126 41658
L55156 41673
L55171 41688
L55186 41718
L55186 41838
" />
<path d="M55021 41553
L55021 41358
L55141 41463
L55141 41418
L55156 41388
L55171 41373
L55201 41358
L55276 41358
L55306 41373
L55321 41388
L55336 41418
L55336 41508
L55321 41538
L55306 41553
" />
</g>
<g style="fill:#000000; fill-opacity:0.0; 
stroke:#000000; stroke-width:118.11; stroke-opacity:1; 
stroke-linecap:round; stroke-linejoin:round;">
<g transform="rotate(-90 48949.9 42000.1)">
<text x="48949.9" y="42393.8"
textLength="1598.73" font-size="1049.87" lengthAdjust="spacingAndGlyphs"
text-anchor="middle" opacity="0">2K</text>
</g>
<path d="M48593 42618
L48556 42581
L48518 42506
L48518 42318
L48556 42243
L48593 42206
L48668 42168
L48743 42168
L48856 42206
L49306 42656
L49306 42168
" />
<path d="M49306 41831
L48518 41831
" />
<path d="M49306 41381
L48856 41718
" />
<path d="M48518 41381
L48968 41831
" />
</g>
<g style="fill:#000000; fill-opacity:0.0; 
stroke:#000000; stroke-width:47.2441; stroke-opacity:1; 
stroke-linecap:round; stroke-linejoin:round;">
<g transform="rotate(-90 50075.9 42000.1)">
<text x="50075.9" y="42157.5"
textLength="768.466" font-size="419.947" lengthAdjust="spacingAndGlyphs"
text-anchor="middle" opacity="0">R2</text>
</g>
<path d="M50218 42052
L50068 42157
" />
<path d="M50218 42232
L49903 42232
L49903 42112
L49918 42082
L49933 42067
L49963 42052
L50008 42052
L50038 42067
L50053 42082
L50068 42112
L50068 42232
" />
<path d="M49933 41932
L49918 41917
L49903 41887
L49903 41812
L49918 41782
L49933 41767
L49963 41752
L49993 41752
L50038 41767
L50218 41947
L50218 41752
" />
</g>
<g style="fill:#000000; fill-opacity:0.0; 
stroke:#000000; stroke-width:118.11; stroke-opacity:1; 
stroke-linecap:round; stroke-linejoin:round;">
<g transform="rotate(-90 48949.9 44677.2)">
<text x="48949.9" y="45070.9"
textLength="2311.14" font-size="1049.87" lengthAdjust="spacingAndGlyphs"
text-anchor="middle" opacity="0">470</text>
</g>
<path d="M48781 45277
L49306 45277
" />
<path d="M48481 45464
L49043 45652
L49043 45164
" />
<path d="M48518 44939
L48518 44414
L49306 44752
" />
<path d="M48518 43964
L48518 43889
L48556 43814
L48593 43777
L48668 43739
L48818 43702
L49006 43702
L49156 43739
L49231 43777
L49268 43814
L49306 43889
L49306 43964
L49268 44039
L49231 44077
L49156 44114
L49006 44152
L48818 44152
L48668 44114
L48593 44077
L48556 44039
L48518 43964
" />
</g>
<g style="fill:#000000; fill-opacity:0.0; 
stroke:#000000; stroke-width:47.2441; stroke-opacity:1; 
stroke-linecap:round; stroke-linejoin:round;">
<g transform="rotate(-90 50075.9 44677.2)">
<text x="50075.9" y="44834.7"
textLength="768.466" font-size="419.947" lengthAdjust="spacingAndGlyphs"
text-anchor="middle" opacity="0">R1</text>
</g>
<path d="M50218 44729
L50068 44834
" />
<path d="M50218 44909
L49903 44909
L49903 44789
L49918 44759
L49933 44744
L49963 44729
L50008 44729
L50038 44744
L50053 44759
L50068 44789
L50068 44909
" />
<path d="M50218 44429
L50218 44609
" />
<path d="M50218 44519
L49903 44519
L49948 44549
L49978 44579
L49993 44609
" />
</g>
<g style="fill:#000000; fill-opacity:0.0; 
stroke:#000000; stroke-width:118.11; stroke-opacity:1; 
stroke-linecap:round; stroke-linejoin:round;">
<text x="48186.1" y="43315"
textLength="2686.09" font-size="1049.87" lengthAdjust="spacingAndGlyphs"
text-anchor="middle" opacity="0">STAT</text>
<path d="M47023 43240
L47136 43277
L47323 43277
L47398 43240
L47436 43202
L47473 43127
L47473 43052
L47436 42977
L47398 42940
L47323 42902
L47173 42865
L47098 42827
L47061 42790
L47023 42715
L47023 42640
L47061 42565
L47098 42527
L47173 42490
L47361 42490
L47473 42527
" />
<path d="M47698 42490
L48148 42490
" />
<path d="M47923 43277
L47923 42490
" />
<path d="M48373 43052
L48748 43052
" />
<path d="M48298 43277
L48561 42490
L48823 43277
" />
<path d="M48973 42490
L49423 42490
" />
<path d="M49198 43277
L49198 42490
" />
</g>
<g style="fill:#000000; fill-opacity:0.0; 
stroke:#000000; stroke-width:47.2441; stroke-opacity:1; 
stroke-linecap:round; stroke-linejoin:round;">
<text x="48186.1" y="44204.8"
textLength="768.466" font-size="419.947" lengthAdjust="spacingAndGlyphs"
text-anchor="middle" opacity="0">D1</text>
<path d="M47953 44189
L47953 43874
L48028 43874
L48073 43889
L48103 43919
L48118 43949
L48133 44009
L48133 44054
L48118 44114
L48103 44144
L48073 44174
L48028 44189
L47953 44189
" />
<path d="M48433 44189
L48253 44189
" />
<path d="M48343 44189
L48343 43874
L48313 43919
L48283 43949
L48253 43964
" />
</g>
<g style="fill:#000000; fill-opacity:0.0; 
stroke:#000000; stroke-width:118.11; stroke-opacity:1; 
stroke-linecap:round; stroke-linejoin:round;">
<text x="52170.4" y="38968.6"
textLength="3698.46" font-size="1049.87" lengthAdjust="spacingAndGlyphs"
text-anchor="middle" opacity="0">100nF</text>
<path d="M50951 38931
L50501 38931
" />
<path d="M50726 38931
L50726 38143
L50651 38256
L50576 38331
L50501 38368
" />
<path d="M51439 38143
L51514 38143
L51589 38181
L51626 38218
L51664 38293
L51701 38443
L51701 38631
L51664 38781
L51626 38856
L51589 38893
L51514 38931
L51439 38931
L51364 38893
L51326 38856
L51289 38781
L51251 38631
L51251 38443
L51289 38293
L51326 38218
L51364 38181
L51439 38143
" />
<path d="M52189 38143
L52264 38143
L52339 38181
L52376 38218
L52414 38293
L52451 38443
L52451 38631
L52414 38781
L52376 38856
L52339 38893
L52264 38931
L52189 38931
L52114 38893
L52076 38856
L52039 38781
L52001 38631
L52001 38443
L52039 38293
L52076 38218
L52114 38181
L52189 38143
" />
<path d="M52789 38406
L52789 38931
" />
<path d="M52789 38481
L52826 38443
L52901 38406
L53014 38406
L53089 38443
L53126 38518
L53126 38931
" />
<path d="M53763 38518
L53501 38518
" />
<path d="M53501 38931
L53501 38143
L53876 38143
" />
</g>
<g style="fill:#000000; fill-opacity:0.0; 
stroke:#000000; stroke-width:47.2441; stroke-opacity:1; 
stroke-linecap:round; stroke-linejoin:round;">
<text x="52170.4" y="39858.3"
textLength="768.466" font-size="419.947" lengthAdjust="spacingAndGlyphs"
text-anchor="middle" opacity="0">C3</text>
<path d="M52117 39813
L52102 39828
L52057 39843
L52027 39843
L51982 39828
L51952 39798
L51937 39768
L51922 39708
L51922 39663
L51937 39603
L51952 39573
L51982 39543
L52027 39528
L52057 39528
L52102 39543
L52117 39558
" />
<path d="M52222 39528
L52417 39528
L52312 39648
L52357 39648
L52387 39663
L52402 39678
L52417 39708
L52417 39783
L52402 39813
L52387 39828
L52357 39843
L52267 39843
L52237 39828
L52222 39813
" />
</g>
<g style="fill:#000000; fill-opacity:0.0; 
stroke:#000000; stroke-width:118.11; stroke-opacity:1; 
stroke-linecap:round; stroke-linejoin:round;">
<text x="47634.9" y="41157.5"
textLength="3323.51" font-size="1049.87" lengthAdjust="spacingAndGlyphs"
text-anchor="middle" opacity="0">4.7uF</text>
<path d="M46528 40595
L46528 41120
" />
<path d="M46341 40295
L46153 40857
L46641 40857
" />
<path d="M46941 41045
L46978 41082
L46941 41120
L46903 41082
L46941 41045
L46941 41120
" />
<path d="M47241 40332
L47766 40332
L47428 41120
" />
<path d="M48403 40595
L48403 41120
" />
<path d="M48066 40595
L48066 41007
L48103 41082
L48178 41120
L48291 41120
L48366 41082
L48403 41045
" />
<path d="M49041 40707
L48778 40707
" />
<path d="M48778 41120
L48778 40332
L49153 40332
" />
</g>
<g style="fill:#000000; fill-opacity:0.0; 
stroke:#000000; stroke-width:47.2441; stroke-opacity:1; 
stroke-linecap:round; stroke-linejoin:round;">
<text x="47634.9" y="39795.3"
textLength="768.466" font-size="419.947" lengthAdjust="spacingAndGlyphs"
text-anchor="middle" opacity="0">C2</text>
<path d="M47582 39750
L47567 39765
L47522 39780
L47492 39780
L47447 39765
L47417 39735
L47402 39705
L47387 39645
L47387 39600
L47402 39540
L47417 39510
L47447 39480
L47492 39465
L47522 39465
L47567 39480
L47582 39495
" />
<path d="M47702 39495
L47717 39480
L47747 39465
L47822 39465
L47852 39480
L47867 39495
L47882 39525
L47882 39555
L47867 39600
L47687 39780
L47882 39780
" />
</g>
<g style="fill:#000000; fill-opacity:0.0; 
stroke:#000000; stroke-width:118.11; stroke-opacity:1; 
stroke-linecap:round; stroke-linejoin:round;">
<text x="48186.1" y="46826.8"
textLength="3323.51" font-size="1049.87" lengthAdjust="spacingAndGlyphs"
text-anchor="middle" opacity="0">4.7uF</text>
<path d="M47080 46264
L47080 46789
" />
<path d="M46892 45964
L46705 46526
L47192 46526
" />
<path d="M47492 46714
L47529 46751
L47492 46789
L47454 46751
L47492 46714
L47492 46789
" />
<path d="M47792 46001
L48317 46001
L47979 46789
" />
<path d="M48954 46264
L48954 46789
" />
<path d="M48617 46264
L48617 46676
L48654 46751
L48729 46789
L48842 46789
L48917 46751
L48954 46714
" />
<path d="M49592 46376
L49329 46376
" />
<path d="M49329 46789
L49329 46001
L49704 46001
" />
</g>
<g style="fill:#000000; fill-opacity:0.0; 
stroke:#000000; stroke-width:47.2441; stroke-opacity:1; 
stroke-linecap:round; stroke-linejoin:round;">
<text x="48186.1" y="45464.6"
textLength="768.466" font-size="419.947" lengthAdjust="spacingAndGlyphs"
text-anchor="middle" opacity="0">C1</text>
<path d="M48133 45419
L48118 45434
L48073 45449
L48043 45449
L47998 45434
L47968 45404
L47953 45374
L47938 45314
L47938 45269
L47953 45209
L47968 45179
L47998 45149
L48043 45134
L48073 45134
L48118 45149
L48133 45164
" />
<path d="M48433 45449
L48253 45449
" />
<path d="M48343 45449
L48343 45134
L48313 45179
L48283 45209
L48253 45224
" />
<g >
</g>
</g> 
</svg>
