<?xml version="1.0" standalone="no"?>
 <!DOCTYPE svg PUBLIC "-//W3C//DTD SVG 1.1//EN" 
 "http://www.w3.org/Graphics/SVG/1.1/DTD/svg11.dtd"> 
<svg
  xmlns:svg="http://www.w3.org/2000/svg"
  xmlns="http://www.w3.org/2000/svg"
  xmlns:xlink="http://www.w3.org/1999/xlink"
  version="1.1"
  width="29.700220cm" height="21.000720cm" viewBox="0 0 116930 82680">
<title>SVG Picture created as cargadorDeBateriasLitIon-37-F_SilkS.svg date 2021/12/18 17:13:57 </title>
  <desc>Picture generated by PCBNEW </desc>
<g style="fill:#000000; fill-opacity:1;stroke:#000000; stroke-opacity:1;
stroke-linecap:round; stroke-linejoin:round;"
 transform="translate(0 0) scale(1 1)">
</g>
<g style="fill:#000000; fill-opacity:0.0; 
stroke:#000000; stroke-width:-0.000787402; stroke-opacity:1; 
stroke-linecap:round; stroke-linejoin:round;">
</g>
<g style="fill:#000000; fill-opacity:0.0; 
stroke:#000000; stroke-width:39.3701; stroke-opacity:1; 
stroke-linecap:round; stroke-linejoin:round;">
<path d="M66847 37196
L66847 47433
" />
</g>
<g style="fill:#000000; fill-opacity:0.0; 
stroke:#000000; stroke-width:118.11; stroke-opacity:1; 
stroke-linecap:round; stroke-linejoin:round;">
<g transform="rotate(-90 47359.4 37984.3)">
<text x="47359.4" y="38259.9"
textLength="1522.31" font-size="734.908" lengthAdjust="spacingAndGlyphs"
text-anchor="middle" opacity="0">IN-</text>
</g>
<path d="M47608 38614
L47057 38614
" />
<path d="M47608 38351
L47057 38351
L47608 38036
L47057 38036
" />
<path d="M47398 37774
L47398 37354
" />
<g transform="rotate(-90 47359.4 46252)">
<text x="47359.4" y="46527.6"
textLength="1675.85" font-size="734.908" lengthAdjust="spacingAndGlyphs"
text-anchor="middle" opacity="0">IN+</text>
</g>
<path d="M47608 46881
L47057 46881
" />
<path d="M47608 46619
L47057 46619
L47608 46304
L47057 46304
" />
<path d="M47398 46042
L47398 45622
" />
<path d="M47608 45832
L47188 45832
" />
<g transform="rotate(-90 64879 43889.8)">
<text x="64879" y="44165.4"
textLength="2410.76" font-size="734.908" lengthAdjust="spacingAndGlyphs"
text-anchor="middle" opacity="0">OUT-</text>
</g>
<path d="M64577 44782
L64577 44677
L64603 44624
L64655 44572
L64760 44545
L64944 44545
L65049 44572
L65102 44624
L65128 44677
L65128 44782
L65102 44834
L65049 44887
L64944 44913
L64760 44913
L64655 44887
L64603 44834
L64577 44782
" />
<path d="M64577 44309
L65023 44309
L65075 44283
L65102 44257
L65128 44204
L65128 44099
L65102 44047
L65075 44021
L65023 43994
L64577 43994
" />
<path d="M64577 43811
L64577 43496
" />
<path d="M65128 43653
L64577 43653
" />
<path d="M64918 43312
L64918 42892
" />
<g transform="rotate(-90 64879 46645.7)">
<text x="64879" y="46921.3"
textLength="1387.14" font-size="734.908" lengthAdjust="spacingAndGlyphs"
text-anchor="middle" opacity="0">B-</text>
</g>
<path d="M64839 46947
L64865 46868
L64892 46842
L64944 46816
L65023 46816
L65075 46842
L65102 46868
L65128 46921
L65128 47131
L64577 47131
L64577 46947
L64603 46895
L64629 46868
L64682 46842
L64734 46842
L64787 46868
L64813 46895
L64839 46947
L64839 47131
" />
<path d="M64918 46580
L64918 46160
" />
<g transform="rotate(-90 64879 40740.2)">
<text x="64879" y="41015.8"
textLength="2410.76" font-size="734.908" lengthAdjust="spacingAndGlyphs"
text-anchor="middle" opacity="0">OUT+</text>
</g>
<path d="M64577 41632
L64577 41527
L64603 41475
L64655 41422
L64760 41396
L64944 41396
L65049 41422
L65102 41475
L65128 41527
L65128 41632
L65102 41685
L65049 41737
L64944 41763
L64760 41763
L64655 41737
L64603 41685
L64577 41632
" />
<path d="M64577 41160
L65023 41160
L65075 41133
L65102 41107
L65128 41055
L65128 40950
L65102 40897
L65075 40871
L65023 40845
L64577 40845
" />
<path d="M64577 40661
L64577 40346
" />
<path d="M65128 40503
L64577 40503
" />
<path d="M64918 40162
L64918 39742
" />
<path d="M65128 39952
L64708 39952
" />
<g transform="rotate(-90 64879 37984.3)">
<text x="64879" y="38259.9"
textLength="1387.14" font-size="734.908" lengthAdjust="spacingAndGlyphs"
text-anchor="middle" opacity="0">B+</text>
</g>
<path d="M64839 38286
L64865 38207
L64892 38181
L64944 38154
L65023 38154
L65075 38181
L65102 38207
L65128 38259
L65128 38469
L64577 38469
L64577 38286
L64603 38233
L64629 38207
L64682 38181
L64734 38181
L64787 38207
L64813 38233
L64839 38286
L64839 38469
" />
<path d="M64918 37918
L64918 37498
" />
<path d="M65128 37708
L64708 37708
" />
</g>
<g style="fill:#000000; fill-opacity:0.0; 
stroke:#000000; stroke-width:39.3701; stroke-opacity:1; 
stroke-linecap:round; stroke-linejoin:round;">
<path d="M45194 37196
L45194 47433
" />
<path d="M45194 37196
L66847 37196
" />
<path d="M66847 47433
L45194 47433
" />
</g>
<g style="fill:#000000; fill-opacity:0.0; 
stroke:#000000; stroke-width:94.4882; stroke-opacity:1; 
stroke-linecap:round; stroke-linejoin:round;">
<path d="M63099 44549
L63099 44805
" />
<path d="M63902 44549
L63902 44805
" />
<path d="M51690 40740
L51690 43496
" />
<path d="M54052 40740
L54052 42905
" />
<path d="M58697 43409
L57280 43409
" />
<path d="M57280 45944
L59209 45944
" />
<path d="M61207 44866
L61463 44866
" />
<path d="M61207 45669
L61463 45669
" />
<path d="M61463 44291
L61207 44291
" />
<path d="M61463 43488
L61207 43488
" />
<path d="M60942 38378 A2520.91 2520.91 0.0 0 0 57820.7 38355.7" />
<path d="M57792.4 42315 A2520.91 2520.91 0.0 0 0 60941.4 42315.6" />
<path d="M62123 43063
L63697 43063
" />
<path d="M63697 43063
L63697 40031
" />
<path d="M62123 43063
L62123 40031
" />
<path d="M55048 44408
L55048 44001
" />
<path d="M56166 44408
L56166 44001
" />
<path d="M65312 47393
L65312 45897
" />
<path d="M66808 47393
L65312 47393
" />
<path d="M66808 45897
L66808 47393
" />
<path d="M65312 45897
L66808 45897
" />
<path d="M53516 46401
L52178 46401
" />
<path d="M53516 43881
L51469 43881
" />
<path d="M65312 44637
L65312 43141
" />
<path d="M66808 44637
L65312 44637
" />
<path d="M66808 43141
L66808 44637
" />
<path d="M65312 43141
L66808 43141
" />
<path d="M65312 38732
L65312 37236
" />
<path d="M66808 38732
L65312 38732
" />
<path d="M66808 37236
L66808 38732
" />
<path d="M65312 37236
L66808 37236
" />
<path d="M65312 41488
L65312 39992
" />
<path d="M66808 41488
L65312 41488
" />
<path d="M66808 39992
L66808 41488
" />
<path d="M65312 39992
L66808 39992
" />
<path d="M45233 38732
L45233 37236
" />
<path d="M46729 38732
L45233 38732
" />
<path d="M46729 37236
L46729 38732
" />
<path d="M45233 37236
L46729 37236
" />
<path d="M45233 47000
L45233 45503
" />
<path d="M46729 47000
L45233 47000
" />
<path d="M46729 45503
L46729 47000
" />
<path d="M45233 45503
L46729 45503
" />
<path d="M46682 41133
L46682 42551
" />
<path d="M49217 42551
L49217 40622
" />
<path d="M54475 39299
L54731 39299
" />
<path d="M54475 40102
L54731 40102
" />
<path d="M55595 41478
L55595 41734
" />
<path d="M54792 41478
L54792 41734
" />
<path d="M50477 41871
L50477 42128
" />
<path d="M49674 41871
L49674 42128
" />
<path d="M50477 44549
L50477 44805
" />
<path d="M49674 44549
L49674 44805
" />
<path d="M47556 44626
L49355 44626
" />
<path d="M49355 44626
L49355 43468
" />
<path d="M49355 43468
L47556 43468
" />
<path d="M52298 40102
L52042 40102
" />
<path d="M52298 39299
L52042 39299
" />
<path d="M47506 39236
L47763 39236
" />
<path d="M47506 40039
L47763 40039
" />
<path d="M48057 44905
L48314 44905
" />
<path d="M48057 45708
L48314 45708
" />
<g >
</g>
<g >
</g>
<g >
</g>
<g >
</g>
<g >
</g>
<g >
</g>
<g >
</g>
<g >
</g>
<g >
</g>
<g >
</g>
<g >
</g>
<g >
</g>
<g >
</g>
<g >
</g>
<g >
</g>
<g >
</g>
<g >
</g>
<g >
</g>
<g >
</g>
<g >
</g>
<g >
</g>
<g >
</g>
<g >
</g>
<g >
</g>
</g>
<g style="fill:#000000; fill-opacity:0.0; 
stroke:#000000; stroke-width:94.4882; stroke-opacity:1; 
stroke-linecap:round; stroke-linejoin:round;">
</g>
<g style="fill:#000000; fill-opacity:0.0; 
stroke:#000000; stroke-width:118.11; stroke-opacity:1; 
stroke-linecap:round; stroke-linejoin:round;">
<g transform="rotate(-90 64627.1 44677.2)">
<text x="64627.1" y="45070.9"
textLength="1690.85" font-size="1049.87" lengthAdjust="spacingAndGlyphs"
text-anchor="middle" opacity="0">C5</text>
</g>
<path d="M64908 44808
L64945 44845
L64983 44958
L64983 45033
L64945 45145
L64870 45220
L64795 45258
L64645 45295
L64533 45295
L64383 45258
L64308 45220
L64233 45145
L64195 45033
L64195 44958
L64233 44845
L64270 44808
" />
<path d="M64195 44096
L64195 44471
L64570 44508
L64533 44471
L64495 44396
L64495 44208
L64533 44133
L64570 44096
L64645 44058
L64833 44058
L64908 44096
L64945 44133
L64983 44208
L64983 44396
L64945 44471
L64908 44508
" />
<text x="57989.3" y="47039.4"
textLength="1728.35" font-size="1049.87" lengthAdjust="spacingAndGlyphs"
text-anchor="middle" opacity="0">U3</text>
<path d="M57389 46214
L57389 46851
L57426 46926
L57464 46964
L57539 47001
L57689 47001
L57764 46964
L57801 46926
L57839 46851
L57839 46214
" />
<path d="M58139 46214
L58626 46214
L58364 46514
L58476 46514
L58551 46551
L58589 46589
L58626 46664
L58626 46851
L58589 46926
L58551 46964
L58476 47001
L58251 47001
L58176 46964
L58139 46926
" />
<text x="61335.7" y="46724.5"
textLength="1690.85" font-size="1049.87" lengthAdjust="spacingAndGlyphs"
text-anchor="middle" opacity="0">R6</text>
<path d="M61204 46686
L60942 46312
" />
<path d="M60754 46686
L60754 45899
L61054 45899
L61129 45937
L61167 45974
L61204 46049
L61204 46162
L61167 46237
L61129 46274
L61054 46312
L60754 46312
" />
<path d="M61879 45899
L61729 45899
L61654 45937
L61616 45974
L61541 46087
L61504 46237
L61504 46536
L61541 46611
L61579 46649
L61654 46686
L61804 46686
L61879 46649
L61916 46611
L61954 46536
L61954 46349
L61916 46274
L61879 46237
L61804 46199
L61654 46199
L61579 46237
L61541 46274
L61504 46349
" />
<text x="61335.7" y="43299.3"
textLength="1690.85" font-size="1049.87" lengthAdjust="spacingAndGlyphs"
text-anchor="middle" opacity="0">R5</text>
<path d="M61204 43261
L60942 42886
" />
<path d="M60754 43261
L60754 42474
L61054 42474
L61129 42511
L61167 42549
L61204 42624
L61204 42736
L61167 42811
L61129 42849
L61054 42886
L60754 42886
" />
<path d="M61916 42474
L61541 42474
L61504 42849
L61541 42811
L61616 42774
L61804 42774
L61879 42811
L61916 42849
L61954 42924
L61954 43111
L61916 43186
L61879 43224
L61804 43261
L61616 43261
L61541 43224
L61504 43186
" />
<g transform="rotate(-90 56611.3 40346.5)">
<text x="56611.3" y="40740.2"
textLength="1540.87" font-size="1049.87" lengthAdjust="spacingAndGlyphs"
text-anchor="middle" opacity="0">L1</text>
</g>
<path d="M56967 40477
L56967 40852
L56180 40852
" />
<path d="M56967 39802
L56967 40252
" />
<path d="M56967 40027
L56180 40027
L56292 40102
L56367 40177
L56405 40252
" />
<g transform="rotate(-90 62910.5 38771.7)">
<text x="62910.5" y="39165.4"
textLength="1690.85" font-size="1049.87" lengthAdjust="spacingAndGlyphs"
text-anchor="middle" opacity="0">D2</text>
</g>
<path d="M63266 39352
L62479 39352
L62479 39165
L62516 39052
L62591 38977
L62666 38940
L62816 38902
L62929 38902
L63079 38940
L63154 38977
L63229 39052
L63266 39165
L63266 39352
" />
<path d="M62554 38602
L62516 38565
L62479 38490
L62479 38303
L62516 38228
L62554 38190
L62629 38153
L62704 38153
L62816 38190
L63266 38640
L63266 38153
" />
<g transform="rotate(-90 55627.1 46448.9)">
<text x="55627.1" y="46842.6"
textLength="1690.85" font-size="1049.87" lengthAdjust="spacingAndGlyphs"
text-anchor="middle" opacity="0">C4</text>
</g>
<path d="M55908 46580
L55945 46617
L55983 46730
L55983 46805
L55945 46917
L55870 46992
L55795 47030
L55645 47067
L55533 47067
L55383 47030
L55308 46992
L55233 46917
L55195 46805
L55195 46730
L55233 46617
L55270 46580
" />
<path d="M55458 45905
L55983 45905
" />
<path d="M55158 46092
L55720 46280
L55720 45792
" />
<text x="52831.8" y="47354.4"
textLength="1728.35" font-size="1049.87" lengthAdjust="spacingAndGlyphs"
text-anchor="middle" opacity="0">Q1</text>
<path d="M52756 47391
L52681 47354
L52606 47279
L52494 47166
L52419 47129
L52344 47129
" />
<path d="M52381 47316
L52306 47279
L52231 47204
L52194 47054
L52194 46791
L52231 46641
L52306 46566
L52381 46529
L52531 46529
L52606 46566
L52681 46641
L52719 46791
L52719 47054
L52681 47204
L52606 47279
L52531 47316
L52381 47316
" />
<path d="M53469 47316
L53019 47316
" />
<path d="M53244 47316
L53244 46529
L53169 46641
L53094 46716
L53019 46754
" />
<g transform="rotate(-90 46178.3 41921.3)">
<text x="46178.3" y="42236.3"
textLength="1413.39" font-size="839.894" lengthAdjust="spacingAndGlyphs"
text-anchor="middle" opacity="0">U1</text>
</g>
<path d="M45833 42401
L46343 42401
L46403 42371
L46433 42341
L46463 42281
L46463 42161
L46433 42101
L46403 42071
L46343 42041
L45833 42041
" />
<path d="M46463 41411
L46463 41771
" />
<path d="M46463 41591
L45833 41591
L45923 41651
L45983 41711
L46013 41771
" />
<text x="54642.8" y="38968.6"
textLength="1690.85" font-size="1049.87" lengthAdjust="spacingAndGlyphs"
text-anchor="middle" opacity="0">R4</text>
<path d="M54511 38931
L54249 38556
" />
<path d="M54061 38931
L54061 38143
L54361 38143
L54436 38181
L54474 38218
L54511 38293
L54511 38406
L54474 38481
L54436 38518
L54361 38556
L54061 38556
" />
<path d="M55186 38406
L55186 38931
" />
<path d="M54999 38106
L54811 38668
L55298 38668
" />
<g transform="rotate(-90 54288.5 41606.4)">
<text x="54288.5" y="42000.1"
textLength="1690.85" font-size="1049.87" lengthAdjust="spacingAndGlyphs"
text-anchor="middle" opacity="0">R3</text>
</g>
<path d="M54644 41737
L54269 42000
" />
<path d="M54644 42187
L53857 42187
L53857 41887
L53894 41812
L53932 41775
L54007 41737
L54119 41737
L54194 41775
L54232 41812
L54269 41887
L54269 42187
" />
<path d="M53857 41475
L53857 40987
L54157 41250
L54157 41137
L54194 41062
L54232 41025
L54307 40987
L54494 40987
L54569 41025
L54607 41062
L54644 41137
L54644 41362
L54607 41437
L54569 41475
" />
<g transform="rotate(-90 50115.3 39952.8)">
<text x="50115.3" y="40346.5"
textLength="1690.85" font-size="1049.87" lengthAdjust="spacingAndGlyphs"
text-anchor="middle" opacity="0">R2</text>
</g>
<path d="M50471 40084
L50096 40346
" />
<path d="M50471 40533
L49684 40533
L49684 40234
L49721 40159
L49759 40121
L49834 40084
L49946 40084
L50021 40121
L50059 40159
L50096 40234
L50096 40533
" />
<path d="M49759 39784
L49721 39746
L49684 39671
L49684 39484
L49721 39409
L49759 39371
L49834 39334
L49909 39334
L50021 39371
L50471 39821
L50471 39334
" />
<g transform="rotate(-90 51020.8 44677.2)">
<text x="51020.8" y="45070.9"
textLength="1690.85" font-size="1049.87" lengthAdjust="spacingAndGlyphs"
text-anchor="middle" opacity="0">R1</text>
</g>
<path d="M51376 44808
L51002 45070
" />
<path d="M51376 45258
L50589 45258
L50589 44958
L50627 44883
L50664 44845
L50739 44808
L50852 44808
L50927 44845
L50964 44883
L51002 44958
L51002 45258
" />
<path d="M51376 44058
L51376 44508
" />
<path d="M51376 44283
L50589 44283
L50702 44358
L50777 44433
L50814 44508
" />
<g transform="rotate(-90 46611.3 44047.3)">
<text x="46611.3" y="44322.9"
textLength="1229.66" font-size="734.908" lengthAdjust="spacingAndGlyphs"
text-anchor="middle" opacity="0">D1</text>
</g>
<path d="M46860 44454
L46309 44454
L46309 44322
L46335 44244
L46388 44191
L46440 44165
L46545 44139
L46624 44139
L46729 44165
L46781 44191
L46834 44244
L46860 44322
L46860 44454
" />
<path d="M46860 43614
L46860 43929
" />
<path d="M46860 43771
L46309 43771
L46388 43824
L46440 43876
L46466 43929
" />
<text x="52280.6" y="38968.6"
textLength="1690.85" font-size="1049.87" lengthAdjust="spacingAndGlyphs"
text-anchor="middle" opacity="0">C3</text>
<path d="M52149 38856
L52111 38893
L51999 38931
L51924 38931
L51811 38893
L51736 38818
L51699 38743
L51661 38593
L51661 38481
L51699 38331
L51736 38256
L51811 38181
L51924 38143
L51999 38143
L52111 38181
L52149 38218
" />
<path d="M52411 38143
L52899 38143
L52636 38443
L52749 38443
L52824 38481
L52861 38518
L52899 38593
L52899 38781
L52861 38856
L52824 38893
L52749 38931
L52524 38931
L52449 38893
L52411 38856
" />
<text x="49131" y="38771.7"
textLength="1690.85" font-size="1049.87" lengthAdjust="spacingAndGlyphs"
text-anchor="middle" opacity="0">C2</text>
<path d="M48999 38659
L48962 38696
L48849 38734
L48774 38734
L48662 38696
L48587 38621
L48549 38546
L48512 38396
L48512 38284
L48549 38134
L48587 38059
L48662 37984
L48774 37946
L48849 37946
L48962 37984
L48999 38021
" />
<path d="M49299 38021
L49337 37984
L49412 37946
L49599 37946
L49674 37984
L49712 38021
L49749 38096
L49749 38171
L49712 38284
L49262 38734
L49749 38734
" />
<text x="48934.2" y="47039.4"
textLength="1690.85" font-size="1049.87" lengthAdjust="spacingAndGlyphs"
text-anchor="middle" opacity="0">C1</text>
<path d="M48802 46926
L48765 46964
L48652 47001
L48577 47001
L48465 46964
L48390 46889
L48352 46814
L48315 46664
L48315 46551
L48352 46402
L48390 46327
L48465 46252
L48577 46214
L48652 46214
L48765 46252
L48802 46289
" />
<path d="M49552 47001
L49102 47001
" />
<path d="M49327 47001
L49327 46214
L49252 46327
L49177 46402
L49102 46439
" />
<g >
</g>
</g> 
</svg>
