<!DOCTYPE svg PUBLIC "-//W3C//DTD SVG 1.1//EN"
"http://www.w3.org/Graphics/SVG/1.1/DTD/svg11.dtd">
<svg xmlns="http://www.w3.org/2000/svg" xmlns:xlink="http://www.w3.org/1999/xlink" width="29.7002cm" height="21.0007cm" viewBox="0 0 11693 8268" font-family="Verdana, sans-serif" style="stroke-opacity:1.000000;fill-opacity:1.000000;"><rect fill="#FFFFFF00" width="11693" height="8268" style="stroke-opacity:1.0;fill-opacity:1.0;"></rect><polyline points="6050, 3950 6250, 3950" stroke-width="10px" stroke="#000000FF"></polyline><polyline points="5600, 3850 6050, 3850" stroke-width="10px" stroke="#000000FF"></polyline><polyline points="4550, 3650 4800, 3650" stroke-width="10px" stroke="#000000FF"></polyline><polyline points="6750, 3500 6900, 3500" stroke-width="10px" stroke="#000000FF"></polyline><polyline points="6250, 3500 6750, 3500" stroke-width="10px" stroke="#000000FF"></polyline><polyline points="6150, 3500 6250, 3500" stroke-width="10px" stroke="#000000FF"></polyline><polyline points="5700, 3500 5850, 3500" stroke-width="10px" stroke="#000000FF"></polyline><polyline points="5600, 3500 5700, 3500" stroke-width="10px" stroke="#000000FF"></polyline><polyline points="4550, 3500 4800, 3500" stroke-width="10px" stroke="#000000FF"></polyline><polyline points="4350, 3500 4550, 3500" stroke-width="10px" stroke="#000000FF"></polyline><polyline points="5350, 3150 5700, 3150" stroke-width="10px" stroke="#000000FF"></polyline><polyline points="4550, 3150 5050, 3150" stroke-width="10px" stroke="#000000FF"></polyline><polyline points="6750, 4100 6750, 4350" stroke-width="10px" stroke="#000000FF"></polyline><polyline points="6750, 3500 6750, 3800" stroke-width="10px" stroke="#000000FF"></polyline><polyline points="6250, 4300 6250, 4350" stroke-width="10px" stroke="#000000FF"></polyline><polyline points="6250, 3950 6250, 4000" stroke-width="10px" stroke="#000000FF"></polyline><polyline points="6250, 3900 6250, 3950" stroke-width="10px" stroke="#000000FF"></polyline><polyline points="6250, 3500 6250, 3600" stroke-width="10px" stroke="#000000FF"></polyline><polyline points="6050, 3850 6050, 3950" stroke-width="10px" stroke="#000000FF"></polyline><polyline points="5700, 3150 5700, 3500" stroke-width="10px" stroke="#000000FF"></polyline><polyline points="5200, 4050 5200, 4350" stroke-width="10px" stroke="#000000FF"></polyline><polyline points="4550, 4100 4550, 4350" stroke-width="10px" stroke="#000000FF"></polyline><polyline points="4550, 3650 4550, 3800" stroke-width="10px" stroke="#000000FF"></polyline><polyline points="4550, 3500 4550, 3650" stroke-width="10px" stroke="#000000FF"></polyline><polyline points="4550, 3150 4550, 3500" stroke-width="10px" stroke="#000000FF"></polyline><circle r="10" cx="6750" cy="3500" fill="#000000" stroke-width="10px" stroke="#000000"></circle><text x="6900" y="3512" font-size="50.000000" text-anchor="start" transform="rotate(0 6900 3512)" fill="#000000">▶VOUT</text><text x="4350" y="3512" font-size="50.000000" text-anchor="end" transform="rotate(0 4350 3512)" fill="#000000">VIN▶</text><circle r="10" cx="4550" cy="3650" fill="#000000" stroke-width="10px" stroke="#000000"></circle><circle r="10" cx="4550" cy="3500" fill="#000000" stroke-width="10px" stroke="#000000"></circle><circle r="10" cx="5700" cy="3500" fill="#000000" stroke-width="10px" stroke="#000000"></circle><text x="4555" y="4523" font-size="50.000000" text-anchor="middle" transform="rotate(0 4555 4523)" fill="#000000">GND</text><polyline points="4500, 4400 4550, 4400" stroke-width="10px" stroke="#000000"></polyline><polyline points="4550, 4450 4500, 4400" stroke-width="10px" stroke="#000000"></polyline><polyline points="4600, 4400 4550, 4450" stroke-width="10px" stroke="#000000"></polyline><polyline points="4550, 4400 4600, 4400" stroke-width="10px" stroke="#000000"></polyline><polyline points="4550, 4350 4550, 4400" stroke-width="10px" stroke="#000000"></polyline><text x="6755" y="4523" font-size="50.000000" text-anchor="middle" transform="rotate(0 6755 4523)" fill="#000000">GND</text><polyline points="6700, 4400 6750, 4400" stroke-width="10px" stroke="#000000"></polyline><polyline points="6750, 4450 6700, 4400" stroke-width="10px" stroke="#000000"></polyline><polyline points="6800, 4400 6750, 4450" stroke-width="10px" stroke="#000000"></polyline><polyline points="6750, 4400 6800, 4400" stroke-width="10px" stroke="#000000"></polyline><polyline points="6750, 4350 6750, 4400" stroke-width="10px" stroke="#000000"></polyline><circle r="10" cx="6250" cy="3500" fill="#000000" stroke-width="10px" stroke="#000000"></circle><text x="5205" y="4523" font-size="50.000000" text-anchor="middle" transform="rotate(0 5205 4523)" fill="#000000">GND</text><polyline points="5150, 4400 5200, 4400" stroke-width="10px" stroke="#000000"></polyline><polyline points="5200, 4450 5150, 4400" stroke-width="10px" stroke="#000000"></polyline><polyline points="5250, 4400 5200, 4450" stroke-width="10px" stroke="#000000"></polyline><polyline points="5200, 4400 5250, 4400" stroke-width="10px" stroke="#000000"></polyline><polyline points="5200, 4350 5200, 4400" stroke-width="10px" stroke="#000000"></polyline><text x="6255" y="4523" font-size="50.000000" text-anchor="middle" transform="rotate(0 6255 4523)" fill="#000000">GND</text><polyline points="6200, 4400 6250, 4400" stroke-width="10px" stroke="#000000"></polyline><polyline points="6250, 4450 6200, 4400" stroke-width="10px" stroke="#000000"></polyline><polyline points="6300, 4400 6250, 4450" stroke-width="10px" stroke="#000000"></polyline><polyline points="6250, 4400 6300, 4400" stroke-width="10px" stroke="#000000"></polyline><polyline points="6250, 4350 6250, 4400" stroke-width="10px" stroke="#000000"></polyline><circle r="10" cx="6250" cy="3950" fill="#000000" stroke-width="10px" stroke="#000000"></circle><text x="6320" y="4104" font-size="50.000000" text-anchor="start" transform="rotate(0 6320 4104)" fill="#000000">R6</text><text x="6320" y="4195" font-size="50.000000" text-anchor="start" transform="rotate(0 6320 4195)" fill="#000000">33K</text><polyline points="6250, 4250 6250, 4300" stroke-width="10px" stroke="#000000"></polyline><polyline points="6250, 4050 6250, 4000" stroke-width="10px" stroke="#000000"></polyline><polyline points="6210, 4250 6290, 4250" stroke-width="10px" stroke="#000000"></polyline><polyline points="6210, 4050 6210, 4250" stroke-width="10px" stroke="#000000"></polyline><polyline points="6290, 4050 6210, 4050" stroke-width="10px" stroke="#000000"></polyline><polyline points="6290, 4250 6290, 4050" stroke-width="10px" stroke="#000000"></polyline><text x="6320" y="3704" font-size="50.000000" text-anchor="start" transform="rotate(0 6320 3704)" fill="#000000">R5</text><text x="6320" y="3795" font-size="50.000000" text-anchor="start" transform="rotate(0 6320 3795)" fill="#000000">100K</text><polyline points="6250, 3850 6250, 3900" stroke-width="10px" stroke="#000000"></polyline><polyline points="6250, 3650 6250, 3600" stroke-width="10px" stroke="#000000"></polyline><polyline points="6210, 3850 6290, 3850" stroke-width="10px" stroke="#000000"></polyline><polyline points="6210, 3650 6210, 3850" stroke-width="10px" stroke="#000000"></polyline><polyline points="6290, 3650 6210, 3650" stroke-width="10px" stroke="#000000"></polyline><polyline points="6290, 3850 6290, 3650" stroke-width="10px" stroke="#000000"></polyline><text x="6865" y="3904" font-size="50.000000" text-anchor="start" transform="rotate(0 6865 3904)" fill="#000000">C5</text><text x="6865" y="3995" font-size="50.000000" text-anchor="start" transform="rotate(0 6865 3995)" fill="#000000">4.7nF</text><polyline points="6750, 3990 6750, 4100" stroke-width="10px" stroke="#000000"></polyline><polyline points="6750, 3910 6750, 3800" stroke-width="10px" stroke="#000000"></polyline><polyline points="6670, 3920 6830, 3920" stroke-width="10px" stroke="#000000"></polyline><polyline points="6670, 3980 6830, 3980" stroke-width="10px" stroke="#000000"></polyline><text x="6000" y="3283" font-size="50.000000" text-anchor="middle" transform="rotate(0 6000 3283)" fill="#000000">D2</text><text x="6000" y="3374" font-size="50.000000" text-anchor="middle" transform="rotate(0 6000 3374)" fill="#000000">SM5819PL-TP</text><polyline points="5950, 3500 5850, 3500" stroke-width="10px" stroke="#000000"></polyline><polyline points="6050, 3500 6150, 3500" stroke-width="10px" stroke="#000000"></polyline><polyline points="6025, 3450 6025, 3475" stroke-width="10px" stroke="#000000"></polyline><polyline points="6050, 3450 6025, 3450" stroke-width="10px" stroke="#000000"></polyline><polyline points="6050, 3550 6050, 3450" stroke-width="10px" stroke="#000000"></polyline><polyline points="6075, 3550 6050, 3550" stroke-width="10px" stroke="#000000"></polyline><polyline points="6075, 3525 6075, 3550" stroke-width="10px" stroke="#000000"></polyline><polyline points="6050, 3500 5950, 3550" stroke-width="10px" stroke="#000000"></polyline><polyline points="5950, 3450 6050, 3500" stroke-width="10px" stroke="#000000"></polyline><polyline points="5950, 3550 5950, 3450" stroke-width="10px" stroke="#000000"></polyline><polyline points="5950, 3550 5950, 3550" stroke-width="10px" stroke="#000000"></polyline><polyline points="5950, 3500 6050, 3500" stroke-width="10px" stroke="#000000"></polyline><text x="5200" y="2925" font-size="50.000000" text-anchor="middle" transform="rotate(0 5200 2925)" fill="#000000">L1</text><text x="5200" y="3016" font-size="50.000000" text-anchor="middle" transform="rotate(0 5200 3016)" fill="#000000">10uH</text><polyline points="5300, 3150 5350, 3150" stroke-width="10px" stroke="#000000"></polyline><polyline points="5100, 3150 5050, 3150" stroke-width="10px" stroke="#000000"></polyline><polyline points="5090, 3090 5110, 3090" stroke-width="10px" stroke="#000000"></polyline><polyline points="5130, 3090 5150, 3090" stroke-width="10px" stroke="#000000"></polyline><polyline points="5170, 3090 5190, 3090" stroke-width="10px" stroke="#000000"></polyline><polyline points="5210, 3090 5230, 3090" stroke-width="10px" stroke="#000000"></polyline><polyline points="5250, 3090 5270, 3090" stroke-width="10px" stroke="#000000"></polyline><polyline points="5290, 3090 5310, 3090" stroke-width="10px" stroke="#000000"></polyline><polyline points="5110, 3110 5090, 3110" stroke-width="10px" stroke="#000000"></polyline><polyline points="5150, 3110 5130, 3110" stroke-width="10px" stroke="#000000"></polyline><polyline points="5190, 3110 5170, 3110" stroke-width="10px" stroke="#000000"></polyline><polyline points="5230, 3110 5210, 3110" stroke-width="10px" stroke="#000000"></polyline><polyline points="5270, 3110 5250, 3110" stroke-width="10px" stroke="#000000"></polyline><polyline points="5310, 3110 5290, 3110" stroke-width="10px" stroke="#000000"></polyline><path d="M5150,3150 A25,25 0 0,0 5100,3150" fill="none" stroke-width="10px" stroke="#000000"></path><path d="M5200,3150 A25,25 0 0,0 5150,3150" fill="none" stroke-width="10px" stroke="#000000"></path><path d="M5250,3150 A25,25 0 0,0 5200,3150" fill="none" stroke-width="10px" stroke="#000000"></path><path d="M5300,3150 A25,25 0 0,0 5250,3150" fill="none" stroke-width="10px" stroke="#000000"></path><text x="4665" y="3904" font-size="50.000000" text-anchor="start" transform="rotate(0 4665 3904)" fill="#000000">C4</text><text x="4665" y="3995" font-size="50.000000" text-anchor="start" transform="rotate(0 4665 3995)" fill="#000000">10uF</text><polyline points="4550, 3990 4550, 4100" stroke-width="10px" stroke="#000000"></polyline><polyline points="4550, 3910 4550, 3800" stroke-width="10px" stroke="#000000"></polyline><polyline points="4470, 3920 4630, 3920" stroke-width="10px" stroke="#000000"></polyline><polyline points="4470, 3980 4630, 3980" stroke-width="10px" stroke="#000000"></polyline><text x="5200" y="3275" font-size="50.000000" text-anchor="middle" transform="rotate(0 5200 3275)" fill="#000000">U3</text><text x="5200" y="3366" font-size="50.000000" text-anchor="middle" transform="rotate(0 5200 3366)" fill="#000000">MIC2251</text><text x="4800" y="3500" font-size="50.000000" text-anchor="start" transform="rotate(0 4800 3500)" fill="#000000">5</text><text x="4900" y="3500" font-size="50.000000" text-anchor="start" transform="rotate(0 4900 3500)" fill="#000000">VIN</text><polyline points="4900, 3500 4800, 3500" stroke-width="10px" stroke="#000000"></polyline><text x="4800" y="3650" font-size="50.000000" text-anchor="start" transform="rotate(0 4800 3650)" fill="#000000">4</text><text x="4900" y="3650" font-size="50.000000" text-anchor="start" transform="rotate(0 4900 3650)" fill="#000000">EN/DITH</text><polyline points="4900, 3650 4800, 3650" stroke-width="10px" stroke="#000000"></polyline><text x="5600" y="3850" font-size="50.000000" text-anchor="end" transform="rotate(0 5600 3850)" fill="#000000">3</text><text x="5500" y="3850" font-size="50.000000" text-anchor="end" transform="rotate(0 5500 3850)" fill="#000000">FB</text><polyline points="5500, 3850 5600, 3850" stroke-width="10px" stroke="#000000"></polyline><text x="5200" y="4050" font-size="50.000000" text-anchor="start" transform="rotate(-90 5200 4050)" fill="#000000">2</text><text x="5200" y="3950" font-size="50.000000" text-anchor="start" transform="rotate(-90 5200 3950)" fill="#000000">GND</text><polyline points="5200, 3950 5200, 4050" stroke-width="10px" stroke="#000000"></polyline><text x="5600" y="3500" font-size="50.000000" text-anchor="end" transform="rotate(0 5600 3500)" fill="#000000">1</text><text x="5500" y="3500" font-size="50.000000" text-anchor="end" transform="rotate(0 5500 3500)" fill="#000000">SW</text><polyline points="5500, 3500 5600, 3500" stroke-width="10px" stroke="#000000"></polyline><polyline points="4900, 3450 5500, 3450" stroke-width="10px" stroke="#000000"></polyline><polyline points="4900, 3950 4900, 3450" stroke-width="10px" stroke="#000000"></polyline><polyline points="5500, 3950 4900, 3950" stroke-width="10px" stroke="#000000"></polyline><polyline points="5500, 3450 5500, 3950" stroke-width="10px" stroke="#000000"></polyline><text x="9893" y="8218" font-size="50.000000" text-anchor="start" transform="rotate(0 9893 8218)" fill="#000000">Git rev 37de89d</text><text x="7693" y="7968" font-size="50.000000" text-anchor="start" transform="rotate(0 7693 7968)" fill="#000000">Page: 2 2</text><rect x="7593" y="7618" width="4000" height="400" fill="none" stroke-width="5px" stroke="#000000"></rect><rect x="7593" y="7918" width="4000" height="100" fill="none" stroke-width="5px" stroke="#000000"></rect><rect x="7593" y="8018" width="4000" height="150" fill="none" stroke-width="5px" stroke="#000000"></rect><rect x="100" y="100" width="11493" height="8068" fill="none" stroke-width="5px" stroke="#000000"></rect></svg>