<!DOCTYPE svg PUBLIC "-//W3C//DTD SVG 1.1//EN"
"http://www.w3.org/Graphics/SVG/1.1/DTD/svg11.dtd">
<svg xmlns="http://www.w3.org/2000/svg" xmlns:xlink="http://www.w3.org/1999/xlink" width="29.7002cm" height="21.0007cm" viewBox="0 0 11693 8268" font-family="Verdana, sans-serif" style="stroke-opacity:1.000000;fill-opacity:1.000000;"><rect fill="#FFFFFF00" width="11693" height="8268" style="stroke-opacity:1.0;fill-opacity:1.0;"></rect><polyline points="7050, 4900 7200, 4900" stroke-width="10px" stroke="#000000FF"></polyline><polyline points="6300, 4550 7200, 4550" stroke-width="10px" stroke="#000000FF"></polyline><polyline points="5950, 4550 6300, 4550" stroke-width="10px" stroke="#000000FF"></polyline><polyline points="5700, 4550 5950, 4550" stroke-width="10px" stroke="#000000FF"></polyline><polyline points="5200, 4550 5300, 4550" stroke-width="10px" stroke="#000000FF"></polyline><polyline points="4550, 4550 4800, 4550" stroke-width="10px" stroke="#000000FF"></polyline><polyline points="2500, 3700 3100, 3700" stroke-width="10px" stroke="#000000FF"></polyline><polyline points="1650, 3700 2000, 3700" stroke-width="10px" stroke="#000000FF"></polyline><polyline points="5800, 3650 5950, 3650" stroke-width="10px" stroke="#000000FF"></polyline><polyline points="4550, 3550 4700, 3550" stroke-width="10px" stroke="#000000FF"></polyline><polyline points="7000, 3450 7200, 3450" stroke-width="10px" stroke="#000000FF"></polyline><polyline points="6800, 3450 7000, 3450" stroke-width="10px" stroke="#000000FF"></polyline><polyline points="6300, 3450 6500, 3450" stroke-width="10px" stroke="#000000FF"></polyline><polyline points="5800, 3450 6300, 3450" stroke-width="10px" stroke="#000000FF"></polyline><polyline points="3500, 3100 3600, 3100" stroke-width="10px" stroke="#000000FF"></polyline><polyline points="2500, 3100 2700, 3100" stroke-width="10px" stroke="#000000FF"></polyline><polyline points="8450, 2900 8550, 2900" stroke-width="10px" stroke="#000000FF"></polyline><polyline points="7000, 2900 7700, 2900" stroke-width="10px" stroke="#000000FF"></polyline><polyline points="4200, 2900 7000, 2900" stroke-width="10px" stroke="#000000FF"></polyline><polyline points="3500, 2900 4200, 2900" stroke-width="10px" stroke="#000000FF"></polyline><polyline points="2050, 2650 3100, 2650" stroke-width="10px" stroke="#000000FF"></polyline><polyline points="1700, 2650 2050, 2650" stroke-width="10px" stroke="#000000FF"></polyline><polyline points="7050, 4900 7050, 5100" stroke-width="10px" stroke="#000000FF"></polyline><polyline points="7000, 2900 7000, 3450" stroke-width="10px" stroke="#000000FF"></polyline><polyline points="6300, 4100 6300, 4550" stroke-width="10px" stroke="#000000FF"></polyline><polyline points="6300, 3450 6300, 3800" stroke-width="10px" stroke="#000000FF"></polyline><polyline points="5950, 3650 5950, 4550" stroke-width="10px" stroke="#000000FF"></polyline><polyline points="5500, 3950 5500, 4250" stroke-width="10px" stroke="#000000FF"></polyline><polyline points="5000, 3950 5000, 4250" stroke-width="10px" stroke="#000000FF"></polyline><polyline points="4550, 4550 4550, 4700" stroke-width="10px" stroke="#000000FF"></polyline><polyline points="4550, 4200 4550, 4550" stroke-width="10px" stroke="#000000FF"></polyline><polyline points="4550, 3550 4550, 3900" stroke-width="10px" stroke="#000000FF"></polyline><polyline points="4200, 3350 4200, 3450" stroke-width="10px" stroke="#000000FF"></polyline><polyline points="4200, 2900 4200, 3050" stroke-width="10px" stroke="#000000FF"></polyline><polyline points="3600, 3950 3600, 4000" stroke-width="10px" stroke="#000000FF"></polyline><polyline points="3600, 3550 3600, 3650" stroke-width="10px" stroke="#000000FF"></polyline><polyline points="3600, 3100 3600, 3250" stroke-width="10px" stroke="#000000FF"></polyline><polyline points="3100, 3300 3100, 3700" stroke-width="10px" stroke="#000000FF"></polyline><polyline points="3100, 2650 3100, 2700" stroke-width="10px" stroke="#000000FF"></polyline><polyline points="3100, 2600 3100, 2650" stroke-width="10px" stroke="#000000FF"></polyline><polyline points="2500, 3700 2500, 3800" stroke-width="10px" stroke="#000000FF"></polyline><polyline points="2500, 3650 2500, 3700" stroke-width="10px" stroke="#000000FF"></polyline><polyline points="2500, 3100 2500, 3350" stroke-width="10px" stroke="#000000FF"></polyline><polyline points="2050, 3000 2050, 3050" stroke-width="10px" stroke="#000000FF"></polyline><polyline points="2050, 2650 2050, 2700" stroke-width="10px" stroke="#000000FF"></polyline><polyline points="2000, 3700 2000, 3800" stroke-width="10px" stroke="#000000FF"></polyline><text x="8450" y="2912" font-size="50.000000" text-anchor="end" transform="rotate(0 8450 2912)" fill="#000000">VOUT▶</text><text x="7700" y="2912" font-size="50.000000" text-anchor="start" transform="rotate(0 7700 2912)" fill="#000000">▶VIN</text><text x="7700" y="3350" font-size="50.000000" text-anchor="start" transform="rotate(0 7700 3350)" fill="#000000">STEP-UP.sch</text><text x="7700" y="2550" font-size="50.000000" text-anchor="start" transform="rotate(0 7700 2550)" fill="#000000">STEP-UP</text><rect x="7700" y="2550" width="750" height="750" fill="none" stroke-width="5px" stroke="#000000"></rect><circle r="10" cx="7000" cy="2900" fill="#000000" stroke-width="10px" stroke="#000000"></circle><circle r="10" cx="7000" cy="3450" fill="#000000" stroke-width="10px" stroke="#000000"></circle><circle r="10" cx="4550" cy="4550" fill="#000000" stroke-width="10px" stroke="#000000"></circle><text x="4545" y="4873" font-size="50.000000" text-anchor="middle" transform="rotate(0 4545 4873)" fill="#000000">GND</text><polyline points="4600, 4750 4550, 4750" stroke-width="10px" stroke="#000000"></polyline><polyline points="4550, 4800 4600, 4750" stroke-width="10px" stroke="#000000"></polyline><polyline points="4500, 4750 4550, 4800" stroke-width="10px" stroke="#000000"></polyline><polyline points="4550, 4750 4500, 4750" stroke-width="10px" stroke="#000000"></polyline><polyline points="4550, 4700 4550, 4750" stroke-width="10px" stroke="#000000"></polyline><circle r="10" cx="6300" cy="4550" fill="#000000" stroke-width="10px" stroke="#000000"></circle><circle r="10" cx="5950" cy="4550" fill="#000000" stroke-width="10px" stroke="#000000"></circle><circle r="10" cx="6300" cy="3450" fill="#000000" stroke-width="10px" stroke="#000000"></circle><circle r="10" cx="2050" cy="2650" fill="#000000" stroke-width="10px" stroke="#000000"></circle><circle r="10" cx="4200" cy="2900" fill="#000000" stroke-width="10px" stroke="#000000"></circle><text x="3615" y="4173" font-size="50.000000" text-anchor="middle" transform="rotate(0 3615 4173)" fill="#000000">VDD</text><polyline points="3600, 4100 3630, 4050" stroke-width="10px" stroke="#000000"></polyline><polyline points="3600, 4000 3600, 4100" stroke-width="10px" stroke="#000000"></polyline><polyline points="3570, 4050 3600, 4100" stroke-width="10px" stroke="#000000"></polyline><circle r="10" cx="3100" cy="2650" fill="#000000" stroke-width="10px" stroke="#000000"></circle><text x="3085" y="2427" font-size="50.000000" text-anchor="middle" transform="rotate(0 3085 2427)" fill="#000000">VDD</text><polyline points="3100, 2500 3070, 2550" stroke-width="10px" stroke="#000000"></polyline><polyline points="3100, 2600 3100, 2500" stroke-width="10px" stroke="#000000"></polyline><polyline points="3130, 2550 3100, 2500" stroke-width="10px" stroke="#000000"></polyline><text x="5000" y="4699" font-size="50.000000" text-anchor="middle" transform="rotate(0 5000 4699)" fill="#000000">Q1A</text><text x="5000" y="4790" font-size="50.000000" text-anchor="middle" transform="rotate(0 5000 4790)" fill="#000000">FDC6401N</text><text x="5200" y="4550" font-size="50.000000" text-anchor="end" transform="rotate(0 5200 4550)" fill="#000000">4</text><polyline points="5100, 4550 5200, 4550" stroke-width="10px" stroke="#000000"></polyline><text x="5000" y="4250" font-size="50.000000" text-anchor="end" transform="rotate(-90 5000 4250)" fill="#000000">3</text><polyline points="5000, 4350 5000, 4250" stroke-width="10px" stroke="#000000"></polyline><text x="4800" y="4550" font-size="50.000000" text-anchor="start" transform="rotate(0 4800 4550)" fill="#000000">2</text><polyline points="4900, 4550 4800, 4550" stroke-width="10px" stroke="#000000"></polyline><polyline points="4990, 4595 5015, 4580" stroke-width="10px" stroke="#000000"></polyline><polyline points="4990, 4565 4990, 4595" stroke-width="10px" stroke="#000000"></polyline><polyline points="5015, 4580 4990, 4565" stroke-width="10px" stroke="#000000"></polyline><polyline points="5015, 4595 5010, 4600" stroke-width="10px" stroke="#000000"></polyline><polyline points="5015, 4565 5015, 4595" stroke-width="10px" stroke="#000000"></polyline><polyline points="5020, 4560 5015, 4565" stroke-width="10px" stroke="#000000"></polyline><polyline points="4985, 4530 5000, 4490" stroke-width="10px" stroke="#000000"></polyline><polyline points="5015, 4530 4985, 4530" stroke-width="10px" stroke="#000000"></polyline><polyline points="5000, 4490 5015, 4530" stroke-width="10px" stroke="#000000"></polyline><polyline points="5000, 4490 5000, 4490" stroke-width="10px" stroke="#000000"></polyline><polyline points="5070, 4580 5070, 4480" stroke-width="10px" stroke="#000000"></polyline><polyline points="4930, 4580 5070, 4580" stroke-width="10px" stroke="#000000"></polyline><polyline points="4930, 4480 4930, 4580" stroke-width="10px" stroke="#000000"></polyline><polyline points="5000, 4550 5000, 4480" stroke-width="10px" stroke="#000000"></polyline><polyline points="4900, 4550 5000, 4550" stroke-width="10px" stroke="#000000"></polyline><polyline points="5100, 4550 5070, 4550" stroke-width="10px" stroke="#000000"></polyline><polyline points="5090, 4480 5050, 4480" stroke-width="10px" stroke="#000000"></polyline><polyline points="5020, 4480 4980, 4480" stroke-width="10px" stroke="#000000"></polyline><polyline points="4950, 4480 4910, 4480" stroke-width="10px" stroke="#000000"></polyline><polyline points="5075, 4460 4925, 4460" stroke-width="10px" stroke="#000000"></polyline><polyline points="5000, 4460 5000, 4350" stroke-width="10px" stroke="#000000"></polyline><circle r="10" cx="5070" cy="4550" fill="none" stroke-width="10px" stroke="#000000"></circle><circle r="10" cx="4930" cy="4550" fill="none" stroke-width="10px" stroke="#000000"></circle><circle r="110" cx="5000" cy="4515" fill="none" stroke-width="10px" stroke="#000000"></circle><text x="5500" y="4699" font-size="50.000000" text-anchor="middle" transform="rotate(0 5500 4699)" fill="#000000">Q1B</text><text x="5500" y="4790" font-size="50.000000" text-anchor="middle" transform="rotate(0 5500 4790)" fill="#000000">FDC6401N</text><text x="5300" y="4550" font-size="50.000000" text-anchor="start" transform="rotate(0 5300 4550)" fill="#000000">6</text><polyline points="5400, 4550 5300, 4550" stroke-width="10px" stroke="#000000"></polyline><text x="5700" y="4550" font-size="50.000000" text-anchor="end" transform="rotate(0 5700 4550)" fill="#000000">5</text><polyline points="5600, 4550 5700, 4550" stroke-width="10px" stroke="#000000"></polyline><text x="5500" y="4250" font-size="50.000000" text-anchor="end" transform="rotate(-90 5500 4250)" fill="#000000">1</text><polyline points="5500, 4350 5500, 4250" stroke-width="10px" stroke="#000000"></polyline><polyline points="5510, 4595 5485, 4580" stroke-width="10px" stroke="#000000"></polyline><polyline points="5510, 4565 5510, 4595" stroke-width="10px" stroke="#000000"></polyline><polyline points="5485, 4580 5510, 4565" stroke-width="10px" stroke="#000000"></polyline><polyline points="5485, 4595 5490, 4600" stroke-width="10px" stroke="#000000"></polyline><polyline points="5485, 4565 5485, 4595" stroke-width="10px" stroke="#000000"></polyline><polyline points="5480, 4560 5485, 4565" stroke-width="10px" stroke="#000000"></polyline><polyline points="5515, 4530 5500, 4490" stroke-width="10px" stroke="#000000"></polyline><polyline points="5485, 4530 5515, 4530" stroke-width="10px" stroke="#000000"></polyline><polyline points="5500, 4490 5485, 4530" stroke-width="10px" stroke="#000000"></polyline><polyline points="5500, 4490 5500, 4490" stroke-width="10px" stroke="#000000"></polyline><polyline points="5430, 4580 5430, 4480" stroke-width="10px" stroke="#000000"></polyline><polyline points="5570, 4580 5430, 4580" stroke-width="10px" stroke="#000000"></polyline><polyline points="5570, 4480 5570, 4580" stroke-width="10px" stroke="#000000"></polyline><polyline points="5500, 4550 5500, 4480" stroke-width="10px" stroke="#000000"></polyline><polyline points="5600, 4550 5500, 4550" stroke-width="10px" stroke="#000000"></polyline><polyline points="5400, 4550 5430, 4550" stroke-width="10px" stroke="#000000"></polyline><polyline points="5410, 4480 5450, 4480" stroke-width="10px" stroke="#000000"></polyline><polyline points="5480, 4480 5520, 4480" stroke-width="10px" stroke="#000000"></polyline><polyline points="5550, 4480 5590, 4480" stroke-width="10px" stroke="#000000"></polyline><polyline points="5425, 4460 5575, 4460" stroke-width="10px" stroke="#000000"></polyline><polyline points="5500, 4460 5500, 4350" stroke-width="10px" stroke="#000000"></polyline><circle r="10" cx="5430" cy="4550" fill="none" stroke-width="10px" stroke="#000000"></circle><circle r="10" cx="5570" cy="4550" fill="none" stroke-width="10px" stroke="#000000"></circle><circle r="110" cx="5500" cy="4515" fill="none" stroke-width="10px" stroke="#000000"></circle><text x="1995" y="3973" font-size="50.000000" text-anchor="middle" transform="rotate(0 1995 3973)" fill="#000000">GND</text><polyline points="2050, 3850 2000, 3850" stroke-width="10px" stroke="#000000"></polyline><polyline points="2000, 3900 2050, 3850" stroke-width="10px" stroke="#000000"></polyline><polyline points="1950, 3850 2000, 3900" stroke-width="10px" stroke="#000000"></polyline><polyline points="2000, 3850 1950, 3850" stroke-width="10px" stroke="#000000"></polyline><polyline points="2000, 3800 2000, 3850" stroke-width="10px" stroke="#000000"></polyline><text x="1558" y="3515" font-size="50.000000" text-anchor="middle" transform="rotate(0 1558 3515)" fill="#000000">J2</text><text x="1558" y="3606" font-size="50.000000" text-anchor="middle" transform="rotate(0 1558 3606)" fill="#000000">IN-</text><text x="1650" y="3700" font-size="50.000000" text-anchor="end" transform="rotate(0 1650 3700)" fill="#000000">1</text><polyline points="1500, 3700 1650, 3700" stroke-width="10px" stroke="#000000"></polyline><polyline points="1500, 3700 1470, 3700" stroke-width="10px" stroke="#000000"></polyline><path d="M1450,3680 A20,20 0 0,0 1450,3720" fill="none" stroke-width="10px" stroke="#000000"></path><text x="7055" y="5273" font-size="50.000000" text-anchor="middle" transform="rotate(0 7055 5273)" fill="#000000">GND</text><polyline points="7000, 5150 7050, 5150" stroke-width="10px" stroke="#000000"></polyline><polyline points="7050, 5200 7000, 5150" stroke-width="10px" stroke="#000000"></polyline><polyline points="7100, 5150 7050, 5200" stroke-width="10px" stroke="#000000"></polyline><polyline points="7050, 5150 7100, 5150" stroke-width="10px" stroke="#000000"></polyline><polyline points="7050, 5100 7050, 5150" stroke-width="10px" stroke="#000000"></polyline><text x="7428" y="4874" font-size="50.000000" text-anchor="start" transform="rotate(0 7428 4874)" fill="#000000">J6</text><text x="7428" y="4965" font-size="50.000000" text-anchor="start" transform="rotate(0 7428 4965)" fill="#000000">OUT-</text><text x="7200" y="4900" font-size="50.000000" text-anchor="start" transform="rotate(0 7200 4900)" fill="#000000">1</text><polyline points="7350, 4900 7200, 4900" stroke-width="10px" stroke="#000000"></polyline><polyline points="7350, 4900 7380, 4900" stroke-width="10px" stroke="#000000"></polyline><path d="M7400,4880 A20,20 0 0,0 7400,4920" fill="none" stroke-width="10px" stroke="#000000"></path><text x="7428" y="4524" font-size="50.000000" text-anchor="start" transform="rotate(0 7428 4524)" fill="#000000">J5</text><text x="7428" y="4615" font-size="50.000000" text-anchor="start" transform="rotate(0 7428 4615)" fill="#000000">B-</text><text x="7200" y="4550" font-size="50.000000" text-anchor="start" transform="rotate(0 7200 4550)" fill="#000000">1</text><polyline points="7350, 4550 7200, 4550" stroke-width="10px" stroke="#000000"></polyline><polyline points="7350, 4550 7380, 4550" stroke-width="10px" stroke="#000000"></polyline><path d="M7400,4530 A20,20 0 0,0 7400,4570" fill="none" stroke-width="10px" stroke="#000000"></path><text x="7428" y="3424" font-size="50.000000" text-anchor="start" transform="rotate(0 7428 3424)" fill="#000000">J4</text><text x="7428" y="3515" font-size="50.000000" text-anchor="start" transform="rotate(0 7428 3515)" fill="#000000">B+</text><text x="7200" y="3450" font-size="50.000000" text-anchor="start" transform="rotate(0 7200 3450)" fill="#000000">1</text><polyline points="7350, 3450 7200, 3450" stroke-width="10px" stroke="#000000"></polyline><polyline points="7350, 3450 7380, 3450" stroke-width="10px" stroke="#000000"></polyline><path d="M7400,3430 A20,20 0 0,0 7400,3470" fill="none" stroke-width="10px" stroke="#000000"></path><text x="8778" y="2874" font-size="50.000000" text-anchor="start" transform="rotate(0 8778 2874)" fill="#000000">J3</text><text x="8778" y="2965" font-size="50.000000" text-anchor="start" transform="rotate(0 8778 2965)" fill="#000000">OUT+</text><text x="8550" y="2900" font-size="50.000000" text-anchor="start" transform="rotate(0 8550 2900)" fill="#000000">1</text><polyline points="8700, 2900 8550, 2900" stroke-width="10px" stroke="#000000"></polyline><polyline points="8700, 2900 8730, 2900" stroke-width="10px" stroke="#000000"></polyline><path d="M8750,2880 A20,20 0 0,0 8750,2920" fill="none" stroke-width="10px" stroke="#000000"></path><text x="1608" y="2425" font-size="50.000000" text-anchor="middle" transform="rotate(0 1608 2425)" fill="#000000">J1</text><text x="1608" y="2516" font-size="50.000000" text-anchor="middle" transform="rotate(0 1608 2516)" fill="#000000">IN+</text><text x="1700" y="2650" font-size="50.000000" text-anchor="end" transform="rotate(0 1700 2650)" fill="#000000">1</text><polyline points="1550, 2650 1700, 2650" stroke-width="10px" stroke="#000000"></polyline><polyline points="1550, 2650 1520, 2650" stroke-width="10px" stroke="#000000"></polyline><path d="M1500,2670 A20,20 0 0,0 1500,2630" fill="none" stroke-width="10px" stroke="#000000"></path><text x="1800" y="2650" font-size="50.000000" text-anchor="start" transform="rotate(0 1800 2650)" fill="#000000FF">IN+</text><text x="2055" y="3223" font-size="50.000000" text-anchor="middle" transform="rotate(0 2055 3223)" fill="#000000">GND</text><polyline points="2000, 3100 2050, 3100" stroke-width="10px" stroke="#000000"></polyline><polyline points="2050, 3150 2000, 3100" stroke-width="10px" stroke="#000000"></polyline><polyline points="2100, 3100 2050, 3150" stroke-width="10px" stroke="#000000"></polyline><polyline points="2050, 3100 2100, 3100" stroke-width="10px" stroke="#000000"></polyline><polyline points="2050, 3050 2050, 3100" stroke-width="10px" stroke="#000000"></polyline><text x="4205" y="3623" font-size="50.000000" text-anchor="middle" transform="rotate(0 4205 3623)" fill="#000000">GND</text><polyline points="4150, 3500 4200, 3500" stroke-width="10px" stroke="#000000"></polyline><polyline points="4200, 3550 4150, 3500" stroke-width="10px" stroke="#000000"></polyline><polyline points="4250, 3500 4200, 3550" stroke-width="10px" stroke="#000000"></polyline><polyline points="4200, 3500 4250, 3500" stroke-width="10px" stroke="#000000"></polyline><polyline points="4200, 3450 4200, 3500" stroke-width="10px" stroke="#000000"></polyline><text x="2495" y="3973" font-size="50.000000" text-anchor="middle" transform="rotate(0 2495 3973)" fill="#000000">GND</text><polyline points="2550, 3850 2500, 3850" stroke-width="10px" stroke="#000000"></polyline><polyline points="2500, 3900 2550, 3850" stroke-width="10px" stroke="#000000"></polyline><polyline points="2450, 3850 2500, 3900" stroke-width="10px" stroke="#000000"></polyline><polyline points="2500, 3850 2450, 3850" stroke-width="10px" stroke="#000000"></polyline><polyline points="2500, 3800 2500, 3850" stroke-width="10px" stroke="#000000"></polyline><text x="2165" y="2804" font-size="50.000000" text-anchor="start" transform="rotate(0 2165 2804)" fill="#000000">C1</text><text x="2165" y="2895" font-size="50.000000" text-anchor="start" transform="rotate(0 2165 2895)" fill="#000000">4.7uF</text><polyline points="2050, 2890 2050, 3000" stroke-width="10px" stroke="#000000"></polyline><polyline points="2050, 2810 2050, 2700" stroke-width="10px" stroke="#000000"></polyline><polyline points="2130, 2820 1970, 2820" stroke-width="10px" stroke="#000000"></polyline><polyline points="2130, 2880 1970, 2880" stroke-width="10px" stroke="#000000"></polyline><text x="4315" y="3154" font-size="50.000000" text-anchor="start" transform="rotate(0 4315 3154)" fill="#000000">C2</text><text x="4315" y="3245" font-size="50.000000" text-anchor="start" transform="rotate(0 4315 3245)" fill="#000000">4.7uF</text><polyline points="4200, 3240 4200, 3350" stroke-width="10px" stroke="#000000"></polyline><polyline points="4200, 3160 4200, 3050" stroke-width="10px" stroke="#000000"></polyline><polyline points="4280, 3170 4120, 3170" stroke-width="10px" stroke="#000000"></polyline><polyline points="4280, 3230 4120, 3230" stroke-width="10px" stroke="#000000"></polyline><text x="3531" y="3446" font-size="50.000000" text-anchor="end" transform="rotate(0 3531 3446)" fill="#000000">R1</text><text x="3531" y="3355" font-size="50.000000" text-anchor="end" transform="rotate(0 3531 3355)" fill="#000000">470</text><polyline points="3600, 3500 3600, 3550" stroke-width="10px" stroke="#000000"></polyline><polyline points="3600, 3300 3600, 3250" stroke-width="10px" stroke="#000000"></polyline><polyline points="3640, 3500 3560, 3500" stroke-width="10px" stroke="#000000"></polyline><polyline points="3640, 3300 3640, 3500" stroke-width="10px" stroke="#000000"></polyline><polyline points="3560, 3300 3640, 3300" stroke-width="10px" stroke="#000000"></polyline><polyline points="3560, 3500 3560, 3300" stroke-width="10px" stroke="#000000"></polyline><text x="3718" y="3839" font-size="50.000000" text-anchor="start" transform="rotate(0 3718 3839)" fill="#000000">D1</text><text x="3718" y="3748" font-size="50.000000" text-anchor="start" transform="rotate(0 3718 3748)" fill="#000000">STAT</text><polyline points="3600, 3850 3600, 3950" stroke-width="10px" stroke="#000000"></polyline><polyline points="3600, 3750 3600, 3650" stroke-width="10px" stroke="#000000"></polyline><polyline points="3690, 3670 3660, 3670" stroke-width="10px" stroke="#000000"></polyline><polyline points="3690, 3700 3690, 3670" stroke-width="10px" stroke="#000000"></polyline><polyline points="3690, 3670 3690, 3700" stroke-width="10px" stroke="#000000"></polyline><polyline points="3630, 3730 3690, 3670" stroke-width="10px" stroke="#000000"></polyline><polyline points="3690, 3620 3660, 3620" stroke-width="10px" stroke="#000000"></polyline><polyline points="3690, 3650 3690, 3620" stroke-width="10px" stroke="#000000"></polyline><polyline points="3690, 3620 3690, 3650" stroke-width="10px" stroke="#000000"></polyline><polyline points="3630, 3680 3690, 3620" stroke-width="10px" stroke="#000000"></polyline><polyline points="3600, 3750 3650, 3850" stroke-width="10px" stroke="#000000"></polyline><polyline points="3550, 3850 3600, 3750" stroke-width="10px" stroke="#000000"></polyline><polyline points="3650, 3850 3550, 3850" stroke-width="10px" stroke="#000000"></polyline><polyline points="3650, 3850 3650, 3850" stroke-width="10px" stroke="#000000"></polyline><polyline points="3600, 3750 3600, 3850" stroke-width="10px" stroke="#000000"></polyline><polyline points="3650, 3750 3550, 3750" stroke-width="10px" stroke="#000000"></polyline><circle r="10" cx="2500" cy="3700" fill="#000000" stroke-width="10px" stroke="#000000"></circle><text x="2570" y="3454" font-size="50.000000" text-anchor="start" transform="rotate(0 2570 3454)" fill="#000000">R2</text><text x="2570" y="3545" font-size="50.000000" text-anchor="start" transform="rotate(0 2570 3545)" fill="#000000">2K</text><polyline points="2500, 3400 2500, 3350" stroke-width="10px" stroke="#000000"></polyline><polyline points="2500, 3600 2500, 3650" stroke-width="10px" stroke="#000000"></polyline><polyline points="2460, 3400 2540, 3400" stroke-width="10px" stroke="#000000"></polyline><polyline points="2460, 3600 2460, 3400" stroke-width="10px" stroke="#000000"></polyline><polyline points="2540, 3600 2460, 3600" stroke-width="10px" stroke="#000000"></polyline><polyline points="2540, 3400 2540, 3600" stroke-width="10px" stroke="#000000"></polyline><text x="7200" y="4550" font-size="50.000000" text-anchor="end" transform="rotate(0 7200 4550)" fill="#000000FF">B-</text><text x="7300" y="2900" font-size="50.000000" text-anchor="end" transform="rotate(0 7300 2900)" fill="#000000FF">OUT+</text><text x="7200" y="3450" font-size="50.000000" text-anchor="end" transform="rotate(0 7200 3450)" fill="#000000FF">B+</text><text x="4620" y="4004" font-size="50.000000" text-anchor="start" transform="rotate(0 4620 4004)" fill="#000000">R3</text><text x="4620" y="4095" font-size="50.000000" text-anchor="start" transform="rotate(0 4620 4095)" fill="#000000">2.7K</text><polyline points="4550, 4150 4550, 4200" stroke-width="10px" stroke="#000000"></polyline><polyline points="4550, 3950 4550, 3900" stroke-width="10px" stroke="#000000"></polyline><polyline points="4510, 4150 4590, 4150" stroke-width="10px" stroke="#000000"></polyline><polyline points="4510, 3950 4510, 4150" stroke-width="10px" stroke="#000000"></polyline><polyline points="4590, 3950 4510, 3950" stroke-width="10px" stroke="#000000"></polyline><polyline points="4590, 4150 4590, 3950" stroke-width="10px" stroke="#000000"></polyline><text x="6415" y="3904" font-size="50.000000" text-anchor="start" transform="rotate(0 6415 3904)" fill="#000000">C3</text><text x="6415" y="3995" font-size="50.000000" text-anchor="start" transform="rotate(0 6415 3995)" fill="#000000">100nF</text><polyline points="6300, 3990 6300, 4100" stroke-width="10px" stroke="#000000"></polyline><polyline points="6300, 3910 6300, 3800" stroke-width="10px" stroke="#000000"></polyline><polyline points="6380, 3920 6220, 3920" stroke-width="10px" stroke="#000000"></polyline><polyline points="6380, 3980 6220, 3980" stroke-width="10px" stroke="#000000"></polyline><text x="6650" y="3243" font-size="50.000000" text-anchor="middle" transform="rotate(0 6650 3243)" fill="#000000">R4</text><text x="6650" y="3334" font-size="50.000000" text-anchor="middle" transform="rotate(0 6650 3334)" fill="#000000">330</text><polyline points="6750, 3450 6800, 3450" stroke-width="10px" stroke="#000000"></polyline><polyline points="6550, 3450 6500, 3450" stroke-width="10px" stroke="#000000"></polyline><polyline points="6750, 3490 6750, 3410" stroke-width="10px" stroke="#000000"></polyline><polyline points="6550, 3490 6750, 3490" stroke-width="10px" stroke="#000000"></polyline><polyline points="6550, 3410 6550, 3490" stroke-width="10px" stroke="#000000"></polyline><polyline points="6750, 3410 6550, 3410" stroke-width="10px" stroke="#000000"></polyline><text x="5250" y="3050" font-size="50.000000" text-anchor="middle" transform="rotate(0 5250 3050)" fill="#000000">U2</text><text x="5250" y="3150" font-size="50.000000" text-anchor="middle" transform="rotate(0 5250 3150)" fill="#000000">AP9101CK6</text><text x="5800" y="3650" font-size="50.000000" text-anchor="end" transform="rotate(0 5800 3650)" fill="#000000">6</text><text x="5700" y="3650" font-size="50.000000" text-anchor="end" transform="rotate(0 5700 3650)" fill="#000000">VSS</text><polyline points="5700, 3650 5800, 3650" stroke-width="10px" stroke="#000000"></polyline><text x="5800" y="3450" font-size="50.000000" text-anchor="end" transform="rotate(0 5800 3450)" fill="#000000">5</text><text x="5700" y="3450" font-size="50.000000" text-anchor="end" transform="rotate(0 5700 3450)" fill="#000000">VDD</text><polyline points="5700, 3450 5800, 3450" stroke-width="10px" stroke="#000000"></polyline><text x="5000" y="3950" font-size="50.000000" text-anchor="start" transform="rotate(-90 5000 3950)" fill="#000000">3</text><text x="5000" y="3850" font-size="50.000000" text-anchor="start" transform="rotate(-90 5000 3850)" fill="#000000">CO</text><polyline points="5000, 3850 5000, 3950" stroke-width="10px" stroke="#000000"></polyline><text x="4700" y="3550" font-size="50.000000" text-anchor="start" transform="rotate(0 4700 3550)" fill="#000000">2</text><text x="4800" y="3550" font-size="50.000000" text-anchor="start" transform="rotate(0 4800 3550)" fill="#000000">VM</text><polyline points="4800, 3550 4700, 3550" stroke-width="10px" stroke="#000000"></polyline><text x="5500" y="3950" font-size="50.000000" text-anchor="start" transform="rotate(-90 5500 3950)" fill="#000000">1</text><text x="5500" y="3850" font-size="50.000000" text-anchor="start" transform="rotate(-90 5500 3850)" fill="#000000">DO</text><polyline points="5500, 3850 5500, 3950" stroke-width="10px" stroke="#000000"></polyline><polyline points="4800, 3250 5700, 3250" stroke-width="10px" stroke="#000000"></polyline><polyline points="4800, 3850 4800, 3250" stroke-width="10px" stroke="#000000"></polyline><polyline points="5700, 3850 4800, 3850" stroke-width="10px" stroke="#000000"></polyline><polyline points="5700, 3250 5700, 3850" stroke-width="10px" stroke="#000000"></polyline><text x="2656" y="2954" font-size="50.000000" text-anchor="end" transform="rotate(0 2656 2954)" fill="#000000">U1</text><text x="2656" y="3045" font-size="50.000000" text-anchor="end" transform="rotate(0 2656 3045)" fill="#000000">MCP73831</text><text x="2700" y="3100" font-size="50.000000" text-anchor="start" transform="rotate(0 2700 3100)" fill="#000000">5</text><text x="2800" y="3100" font-size="50.000000" text-anchor="start" transform="rotate(0 2800 3100)" fill="#000000">PROG</text><polyline points="2800, 3100 2700, 3100" stroke-width="10px" stroke="#000000"></polyline><text x="3100" y="2700" font-size="50.000000" text-anchor="end" transform="rotate(-90 3100 2700)" fill="#000000">4</text><text x="3100" y="2800" font-size="50.000000" text-anchor="end" transform="rotate(-90 3100 2800)" fill="#000000">VDD</text><polyline points="3100, 2800 3100, 2700" stroke-width="10px" stroke="#000000"></polyline><text x="3500" y="2900" font-size="50.000000" text-anchor="end" transform="rotate(0 3500 2900)" fill="#000000">3</text><text x="3400" y="2900" font-size="50.000000" text-anchor="end" transform="rotate(0 3400 2900)" fill="#000000">VBAT</text><polyline points="3400, 2900 3500, 2900" stroke-width="10px" stroke="#000000"></polyline><text x="3100" y="3300" font-size="50.000000" text-anchor="start" transform="rotate(-90 3100 3300)" fill="#000000">2</text><text x="3100" y="3200" font-size="50.000000" text-anchor="start" transform="rotate(-90 3100 3200)" fill="#000000">VSS</text><polyline points="3100, 3200 3100, 3300" stroke-width="10px" stroke="#000000"></polyline><text x="3500" y="3100" font-size="50.000000" text-anchor="end" transform="rotate(0 3500 3100)" fill="#000000">1</text><text x="3400" y="3100" font-size="50.000000" text-anchor="end" transform="rotate(0 3400 3100)" fill="#000000">STAT</text><polyline points="3400, 3100 3500, 3100" stroke-width="10px" stroke="#000000"></polyline><polyline points="3400, 2800 2800, 2800" stroke-width="10px" stroke="#000000"></polyline><polyline points="3400, 3200 3400, 2800" stroke-width="10px" stroke="#000000"></polyline><polyline points="2800, 3200 3400, 3200" stroke-width="10px" stroke="#000000"></polyline><polyline points="2800, 2800 2800, 3200" stroke-width="10px" stroke="#000000"></polyline><text x="9893" y="8218" font-size="50.000000" text-anchor="start" transform="rotate(0 9893 8218)" fill="#000000">Git rev 37de89d</text><text x="8693" y="7968" font-size="50.000000" text-anchor="start" transform="rotate(0 8693 7968)" fill="#000000">maykolrey.com</text><text x="10893" y="8118" font-size="100.000000" text-anchor="start" transform="rotate(0 10893 8118)" fill="#000000">Rev: V 1.0.0</text><text x="8193" y="7968" font-size="50.000000" text-anchor="start" transform="rotate(0 8193 7968)" fill="#000000">Date: 2020-09-01</text><text x="7693" y="8118" font-size="100.000000" text-anchor="start" transform="rotate(0 7693 8118)" fill="#000000">Title: Cargador de Baterias Litio</text><text x="7693" y="7968" font-size="50.000000" text-anchor="start" transform="rotate(0 7693 7968)" fill="#000000">Page: 1 2</text><rect x="7593" y="7618" width="4000" height="400" fill="none" stroke-width="5px" stroke="#000000"></rect><rect x="7593" y="7918" width="4000" height="100" fill="none" stroke-width="5px" stroke="#000000"></rect><rect x="7593" y="8018" width="4000" height="150" fill="none" stroke-width="5px" stroke="#000000"></rect><rect x="100" y="100" width="11493" height="8068" fill="none" stroke-width="5px" stroke="#000000"></rect></svg>